<?xml version="1.0" encoding="UTF-8" standalone="no"?>
<!DOCTYPE svg PUBLIC "-//W3C//DTD SVG 1.1//EN"
 "http://www.w3.org/Graphics/SVG/1.1/DTD/svg11.dtd">
<!-- Generated by graphviz version 2.43.0 (0)
 -->
<!-- Title: %3 Pages: 1 -->
<svg width="361pt" height="325pt"
 viewBox="0.00 0.00 361.28 324.92" xmlns="http://www.w3.org/2000/svg" xmlns:xlink="http://www.w3.org/1999/xlink">
<g id="graph0" class="graph" transform="scale(1 1) rotate(0) translate(4 320.92)">
<title>%3</title>
<polygon fill="white" stroke="transparent" points="-4,4 -4,-320.92 357.28,-320.92 357.28,4 -4,4"/>
<!-- ball_left -->
<g id="node1" class="node">
<title>ball_left</title>
<polygon fill="lightgray" stroke="black" points="89.78,-316.92 36.78,-316.92 36.78,-298.92 89.78,-298.92 89.78,-316.92"/>
<text text-anchor="middle" x="63.28" y="-305.72" font-family="Times,serif" font-size="9.00">ball_left</text>
</g>
<!-- ball_right -->
<g id="node2" class="node">
<title>ball_right</title>
<polygon fill="lightgray" stroke="black" points="170.28,-316.92 108.28,-316.92 108.28,-298.92 170.28,-298.92 170.28,-316.92"/>
<text text-anchor="middle" x="139.28" y="-305.72" font-family="Times,serif" font-size="9.00">ball_right</text>
</g>
<!-- FIRE -->
<g id="node5" class="node">
<title>FIRE</title>
<ellipse fill="lightblue" stroke="black" cx="28.28" cy="-228.98" rx="28.07" ry="28.07"/>
<text text-anchor="middle" x="28.28" y="-226.78" font-family="Times,serif" font-size="9.00">FIRE</text>
</g>
<!-- ball_right&#45;&gt;FIRE -->
<g id="edge6" class="edge">
<title>ball_right&#45;&gt;FIRE</title>
<path fill="none" stroke="red" stroke-width="0.21" d="M123.72,-298.8C108.36,-290.53 84.46,-276.96 65.28,-262.92 62.26,-260.71 59.2,-258.29 56.19,-255.81"/>
<polygon fill="red" stroke="red" stroke-width="0.21" points="58.31,-253.02 48.44,-249.17 53.76,-258.34 58.31,-253.02"/>
</g>
<!-- RIGHT -->
<g id="node6" class="node">
<title>RIGHT</title>
<ellipse fill="lightblue" stroke="black" cx="108.28" cy="-228.98" rx="33.88" ry="33.88"/>
<text text-anchor="middle" x="108.28" y="-226.78" font-family="Times,serif" font-size="9.00">RIGHT</text>
</g>
<!-- ball_right&#45;&gt;RIGHT -->
<g id="edge1" class="edge">
<title>ball_right&#45;&gt;RIGHT</title>
<path fill="none" stroke="red" stroke-width="0.88" d="M135.97,-298.68C133.14,-291.67 128.85,-281.03 124.49,-270.2"/>
<polygon fill="red" stroke="red" stroke-width="0.88" points="127.66,-268.69 120.67,-260.73 121.16,-271.31 127.66,-268.69"/>
</g>
<!-- 835 -->
<g id="node9" class="node">
<title>835</title>
<ellipse fill="white" stroke="black" cx="212.28" cy="-126.51" rx="25" ry="25"/>
<text text-anchor="middle" x="212.28" y="-124.31" font-family="Times,serif" font-size="9.00">835</text>
</g>
<!-- ball_right&#45;&gt;835 -->
<g id="edge4" class="edge">
<title>ball_right&#45;&gt;835</title>
<path fill="none" stroke="red" stroke-width="0.73" stroke-dasharray="1,5" d="M142.61,-298.74C152.52,-274.39 182.23,-201.37 199.49,-158.96"/>
<polygon fill="red" stroke="red" stroke-width="0.73" points="202.75,-160.22 203.28,-149.64 196.27,-157.59 202.75,-160.22"/>
</g>
<!-- 1052 -->
<g id="node10" class="node">
<title>1052</title>
<ellipse fill="white" stroke="black" cx="227.28" cy="-228.98" rx="28.98" ry="28.98"/>
<text text-anchor="middle" x="227.28" y="-226.78" font-family="Times,serif" font-size="9.00">1052</text>
</g>
<!-- ball_right&#45;&gt;1052 -->
<g id="edge7" class="edge">
<title>ball_right&#45;&gt;1052</title>
<path fill="none" stroke="red" stroke-width="0.11" d="M148.7,-298.68C160.47,-288.4 181.15,-270.32 198.34,-255.29"/>
<polygon fill="red" stroke="red" stroke-width="0.11" points="200.72,-257.85 205.95,-248.63 196.11,-252.58 200.72,-257.85"/>
</g>
<!-- ball_out_field -->
<g id="node3" class="node">
<title>ball_out_field</title>
<polygon fill="lightgray" stroke="black" points="353.28,-316.92 275.28,-316.92 275.28,-298.92 353.28,-298.92 353.28,-316.92"/>
<text text-anchor="middle" x="314.28" y="-305.72" font-family="Times,serif" font-size="9.00">ball_out_field</text>
</g>
<!-- 679 -->
<g id="node8" class="node">
<title>679</title>
<ellipse fill="white" stroke="black" cx="314.28" cy="-228.98" rx="25" ry="25"/>
<text text-anchor="middle" x="314.28" y="-226.78" font-family="Times,serif" font-size="9.00">679</text>
</g>
<!-- ball_out_field&#45;&gt;679 -->
<g id="edge2" class="edge">
<title>ball_out_field&#45;&gt;679</title>
<path fill="none" stroke="green" stroke-width="0.24" d="M314.28,-298.68C314.28,-290.3 314.28,-276.75 314.28,-263.88"/>
<polygon fill="green" stroke="green" stroke-width="0.24" points="317.78,-263.83 314.28,-253.83 310.78,-263.83 317.78,-263.83"/>
</g>
<!-- NOOP -->
<g id="node4" class="node">
<title>NOOP</title>
<ellipse fill="lightblue" stroke="black" cx="314.28" cy="-126.51" rx="32.55" ry="32.55"/>
<text text-anchor="middle" x="314.28" y="-124.31" font-family="Times,serif" font-size="9.00">NOOP</text>
</g>
<!-- LEFT -->
<g id="node7" class="node">
<title>LEFT</title>
<ellipse fill="lightblue" stroke="black" cx="212.28" cy="-28.99" rx="28.98" ry="28.98"/>
<text text-anchor="middle" x="212.28" y="-26.79" font-family="Times,serif" font-size="9.00">LEFT</text>
</g>
<!-- 679&#45;&gt;NOOP -->
<g id="edge3" class="edge">
<title>679&#45;&gt;NOOP</title>
<path fill="none" stroke="red" stroke-width="0.32" stroke-dasharray="1,5" d="M314.28,-204.17C314.28,-193.76 314.28,-181.23 314.28,-169.34"/>
<polygon fill="red" stroke="red" stroke-width="0.32" points="317.78,-169.13 314.28,-159.13 310.78,-169.13 317.78,-169.13"/>
</g>
<!-- 835&#45;&gt;LEFT -->
<g id="edge5" class="edge">
<title>835&#45;&gt;LEFT</title>
<path fill="none" stroke="red" stroke-width="0.15" d="M212.28,-101.41C212.28,-91.34 212.28,-79.39 212.28,-68.17"/>
<polygon fill="red" stroke="red" stroke-width="0.15" points="215.78,-68.16 212.28,-58.16 208.78,-68.16 215.78,-68.16"/>
</g>
<!-- 1052&#45;&gt;835 -->
<g id="edge8" class="edge">
<title>1052&#45;&gt;835</title>
<path fill="none" stroke="red" stroke-width="0.68" d="M223.15,-200.26C221.34,-188.19 219.22,-173.93 217.32,-161.25"/>
<polygon fill="red" stroke="red" stroke-width="0.68" points="220.74,-160.43 215.8,-151.05 213.81,-161.46 220.74,-160.43"/>
</g>
</g>
</svg>
