<?xml version="1.0" encoding="utf-8" standalone="no"?>
<!DOCTYPE svg PUBLIC "-//W3C//DTD SVG 1.1//EN"
  "http://www.w3.org/Graphics/SVG/1.1/DTD/svg11.dtd">
<svg xmlns:xlink="http://www.w3.org/1999/xlink" width="460.8pt" height="345.6pt" viewBox="0 0 460.8 345.6" xmlns="http://www.w3.org/2000/svg" version="1.1">
 <metadata>
  <rdf:RDF xmlns:dc="http://purl.org/dc/elements/1.1/" xmlns:cc="http://creativecommons.org/ns#" xmlns:rdf="http://www.w3.org/1999/02/22-rdf-syntax-ns#">
   <cc:Work>
    <dc:type rdf:resource="http://purl.org/dc/dcmitype/StillImage"/>
    <dc:date>2023-01-22T19:45:54.415032</dc:date>
    <dc:format>image/svg+xml</dc:format>
    <dc:creator>
     <cc:Agent>
      <dc:title>Matplotlib v3.6.2, https://matplotlib.org/</dc:title>
     </cc:Agent>
    </dc:creator>
   </cc:Work>
  </rdf:RDF>
 </metadata>
 <defs>
  <style type="text/css">*{stroke-linejoin: round; stroke-linecap: butt}</style>
 </defs>
 <g id="figure_1">
  <g id="patch_1">
   <path d="M 0 345.6 
L 460.8 345.6 
L 460.8 0 
L 0 0 
z
" style="fill: #ffffff"/>
  </g>
  <g id="axes_1">
   <g id="patch_2">
    <path d="M 57.6 307.584 
L 414.72 307.584 
L 414.72 41.472 
L 57.6 41.472 
z
" style="fill: #ffffff"/>
   </g>
   <g id="matplotlib.axis_1">
    <g id="xtick_1">
     <g id="line2d_1">
      <path d="M 73.832727 307.584 
L 73.832727 41.472 
" clip-path="url(#p15d3245e7e)" style="fill: none; stroke: #b0b0b0; stroke-width: 0.8; stroke-linecap: square"/>
     </g>
     <g id="line2d_2">
      <defs>
       <path id="m71f0d65a14" d="M 0 0 
L 0 3.5 
" style="stroke: #000000; stroke-width: 0.8"/>
      </defs>
      <g>
       <use xlink:href="#m71f0d65a14" x="73.832727" y="307.584" style="stroke: #000000; stroke-width: 0.8"/>
      </g>
     </g>
     <g id="text_1">
      <!-- 0 -->
      <g transform="translate(70.651477 322.182437) scale(0.1 -0.1)">
       <defs>
        <path id="DejaVuSans-30" d="M 2034 4250 
Q 1547 4250 1301 3770 
Q 1056 3291 1056 2328 
Q 1056 1369 1301 889 
Q 1547 409 2034 409 
Q 2525 409 2770 889 
Q 3016 1369 3016 2328 
Q 3016 3291 2770 3770 
Q 2525 4250 2034 4250 
z
M 2034 4750 
Q 2819 4750 3233 4129 
Q 3647 3509 3647 2328 
Q 3647 1150 3233 529 
Q 2819 -91 2034 -91 
Q 1250 -91 836 529 
Q 422 1150 422 2328 
Q 422 3509 836 4129 
Q 1250 4750 2034 4750 
z
" transform="scale(0.015625)"/>
       </defs>
       <use xlink:href="#DejaVuSans-30"/>
      </g>
     </g>
    </g>
    <g id="xtick_2">
     <g id="line2d_3">
      <path d="M 114.618474 307.584 
L 114.618474 41.472 
" clip-path="url(#p15d3245e7e)" style="fill: none; stroke: #b0b0b0; stroke-width: 0.8; stroke-linecap: square"/>
     </g>
     <g id="line2d_4">
      <g>
       <use xlink:href="#m71f0d65a14" x="114.618474" y="307.584" style="stroke: #000000; stroke-width: 0.8"/>
      </g>
     </g>
     <g id="text_2">
      <!-- 25 -->
      <g transform="translate(108.255974 322.182437) scale(0.1 -0.1)">
       <defs>
        <path id="DejaVuSans-32" d="M 1228 531 
L 3431 531 
L 3431 0 
L 469 0 
L 469 531 
Q 828 903 1448 1529 
Q 2069 2156 2228 2338 
Q 2531 2678 2651 2914 
Q 2772 3150 2772 3378 
Q 2772 3750 2511 3984 
Q 2250 4219 1831 4219 
Q 1534 4219 1204 4116 
Q 875 4013 500 3803 
L 500 4441 
Q 881 4594 1212 4672 
Q 1544 4750 1819 4750 
Q 2544 4750 2975 4387 
Q 3406 4025 3406 3419 
Q 3406 3131 3298 2873 
Q 3191 2616 2906 2266 
Q 2828 2175 2409 1742 
Q 1991 1309 1228 531 
z
" transform="scale(0.015625)"/>
        <path id="DejaVuSans-35" d="M 691 4666 
L 3169 4666 
L 3169 4134 
L 1269 4134 
L 1269 2991 
Q 1406 3038 1543 3061 
Q 1681 3084 1819 3084 
Q 2600 3084 3056 2656 
Q 3513 2228 3513 1497 
Q 3513 744 3044 326 
Q 2575 -91 1722 -91 
Q 1428 -91 1123 -41 
Q 819 9 494 109 
L 494 744 
Q 775 591 1075 516 
Q 1375 441 1709 441 
Q 2250 441 2565 725 
Q 2881 1009 2881 1497 
Q 2881 1984 2565 2268 
Q 2250 2553 1709 2553 
Q 1456 2553 1204 2497 
Q 953 2441 691 2322 
L 691 4666 
z
" transform="scale(0.015625)"/>
       </defs>
       <use xlink:href="#DejaVuSans-32"/>
       <use xlink:href="#DejaVuSans-35" x="63.623047"/>
      </g>
     </g>
    </g>
    <g id="xtick_3">
     <g id="line2d_5">
      <path d="M 155.404221 307.584 
L 155.404221 41.472 
" clip-path="url(#p15d3245e7e)" style="fill: none; stroke: #b0b0b0; stroke-width: 0.8; stroke-linecap: square"/>
     </g>
     <g id="line2d_6">
      <g>
       <use xlink:href="#m71f0d65a14" x="155.404221" y="307.584" style="stroke: #000000; stroke-width: 0.8"/>
      </g>
     </g>
     <g id="text_3">
      <!-- 50 -->
      <g transform="translate(149.041721 322.182437) scale(0.1 -0.1)">
       <use xlink:href="#DejaVuSans-35"/>
       <use xlink:href="#DejaVuSans-30" x="63.623047"/>
      </g>
     </g>
    </g>
    <g id="xtick_4">
     <g id="line2d_7">
      <path d="M 196.189968 307.584 
L 196.189968 41.472 
" clip-path="url(#p15d3245e7e)" style="fill: none; stroke: #b0b0b0; stroke-width: 0.8; stroke-linecap: square"/>
     </g>
     <g id="line2d_8">
      <g>
       <use xlink:href="#m71f0d65a14" x="196.189968" y="307.584" style="stroke: #000000; stroke-width: 0.8"/>
      </g>
     </g>
     <g id="text_4">
      <!-- 75 -->
      <g transform="translate(189.827468 322.182437) scale(0.1 -0.1)">
       <defs>
        <path id="DejaVuSans-37" d="M 525 4666 
L 3525 4666 
L 3525 4397 
L 1831 0 
L 1172 0 
L 2766 4134 
L 525 4134 
L 525 4666 
z
" transform="scale(0.015625)"/>
       </defs>
       <use xlink:href="#DejaVuSans-37"/>
       <use xlink:href="#DejaVuSans-35" x="63.623047"/>
      </g>
     </g>
    </g>
    <g id="xtick_5">
     <g id="line2d_9">
      <path d="M 236.975715 307.584 
L 236.975715 41.472 
" clip-path="url(#p15d3245e7e)" style="fill: none; stroke: #b0b0b0; stroke-width: 0.8; stroke-linecap: square"/>
     </g>
     <g id="line2d_10">
      <g>
       <use xlink:href="#m71f0d65a14" x="236.975715" y="307.584" style="stroke: #000000; stroke-width: 0.8"/>
      </g>
     </g>
     <g id="text_5">
      <!-- 100 -->
      <g transform="translate(227.431965 322.182437) scale(0.1 -0.1)">
       <defs>
        <path id="DejaVuSans-31" d="M 794 531 
L 1825 531 
L 1825 4091 
L 703 3866 
L 703 4441 
L 1819 4666 
L 2450 4666 
L 2450 531 
L 3481 531 
L 3481 0 
L 794 0 
L 794 531 
z
" transform="scale(0.015625)"/>
       </defs>
       <use xlink:href="#DejaVuSans-31"/>
       <use xlink:href="#DejaVuSans-30" x="63.623047"/>
       <use xlink:href="#DejaVuSans-30" x="127.246094"/>
      </g>
     </g>
    </g>
    <g id="xtick_6">
     <g id="line2d_11">
      <path d="M 277.761462 307.584 
L 277.761462 41.472 
" clip-path="url(#p15d3245e7e)" style="fill: none; stroke: #b0b0b0; stroke-width: 0.8; stroke-linecap: square"/>
     </g>
     <g id="line2d_12">
      <g>
       <use xlink:href="#m71f0d65a14" x="277.761462" y="307.584" style="stroke: #000000; stroke-width: 0.8"/>
      </g>
     </g>
     <g id="text_6">
      <!-- 125 -->
      <g transform="translate(268.217712 322.182437) scale(0.1 -0.1)">
       <use xlink:href="#DejaVuSans-31"/>
       <use xlink:href="#DejaVuSans-32" x="63.623047"/>
       <use xlink:href="#DejaVuSans-35" x="127.246094"/>
      </g>
     </g>
    </g>
    <g id="xtick_7">
     <g id="line2d_13">
      <path d="M 318.547209 307.584 
L 318.547209 41.472 
" clip-path="url(#p15d3245e7e)" style="fill: none; stroke: #b0b0b0; stroke-width: 0.8; stroke-linecap: square"/>
     </g>
     <g id="line2d_14">
      <g>
       <use xlink:href="#m71f0d65a14" x="318.547209" y="307.584" style="stroke: #000000; stroke-width: 0.8"/>
      </g>
     </g>
     <g id="text_7">
      <!-- 150 -->
      <g transform="translate(309.003459 322.182437) scale(0.1 -0.1)">
       <use xlink:href="#DejaVuSans-31"/>
       <use xlink:href="#DejaVuSans-35" x="63.623047"/>
       <use xlink:href="#DejaVuSans-30" x="127.246094"/>
      </g>
     </g>
    </g>
    <g id="xtick_8">
     <g id="line2d_15">
      <path d="M 359.332956 307.584 
L 359.332956 41.472 
" clip-path="url(#p15d3245e7e)" style="fill: none; stroke: #b0b0b0; stroke-width: 0.8; stroke-linecap: square"/>
     </g>
     <g id="line2d_16">
      <g>
       <use xlink:href="#m71f0d65a14" x="359.332956" y="307.584" style="stroke: #000000; stroke-width: 0.8"/>
      </g>
     </g>
     <g id="text_8">
      <!-- 175 -->
      <g transform="translate(349.789206 322.182437) scale(0.1 -0.1)">
       <use xlink:href="#DejaVuSans-31"/>
       <use xlink:href="#DejaVuSans-37" x="63.623047"/>
       <use xlink:href="#DejaVuSans-35" x="127.246094"/>
      </g>
     </g>
    </g>
    <g id="xtick_9">
     <g id="line2d_17">
      <path d="M 400.118703 307.584 
L 400.118703 41.472 
" clip-path="url(#p15d3245e7e)" style="fill: none; stroke: #b0b0b0; stroke-width: 0.8; stroke-linecap: square"/>
     </g>
     <g id="line2d_18">
      <g>
       <use xlink:href="#m71f0d65a14" x="400.118703" y="307.584" style="stroke: #000000; stroke-width: 0.8"/>
      </g>
     </g>
     <g id="text_9">
      <!-- 200 -->
      <g transform="translate(390.574953 322.182437) scale(0.1 -0.1)">
       <use xlink:href="#DejaVuSans-32"/>
       <use xlink:href="#DejaVuSans-30" x="63.623047"/>
       <use xlink:href="#DejaVuSans-30" x="127.246094"/>
      </g>
     </g>
    </g>
    <g id="text_10">
     <!-- Generations -->
     <g transform="translate(205.662344 335.860562) scale(0.1 -0.1)">
      <defs>
       <path id="DejaVuSans-47" d="M 3809 666 
L 3809 1919 
L 2778 1919 
L 2778 2438 
L 4434 2438 
L 4434 434 
Q 4069 175 3628 42 
Q 3188 -91 2688 -91 
Q 1594 -91 976 548 
Q 359 1188 359 2328 
Q 359 3472 976 4111 
Q 1594 4750 2688 4750 
Q 3144 4750 3555 4637 
Q 3966 4525 4313 4306 
L 4313 3634 
Q 3963 3931 3569 4081 
Q 3175 4231 2741 4231 
Q 1884 4231 1454 3753 
Q 1025 3275 1025 2328 
Q 1025 1384 1454 906 
Q 1884 428 2741 428 
Q 3075 428 3337 486 
Q 3600 544 3809 666 
z
" transform="scale(0.015625)"/>
       <path id="DejaVuSans-65" d="M 3597 1894 
L 3597 1613 
L 953 1613 
Q 991 1019 1311 708 
Q 1631 397 2203 397 
Q 2534 397 2845 478 
Q 3156 559 3463 722 
L 3463 178 
Q 3153 47 2828 -22 
Q 2503 -91 2169 -91 
Q 1331 -91 842 396 
Q 353 884 353 1716 
Q 353 2575 817 3079 
Q 1281 3584 2069 3584 
Q 2775 3584 3186 3129 
Q 3597 2675 3597 1894 
z
M 3022 2063 
Q 3016 2534 2758 2815 
Q 2500 3097 2075 3097 
Q 1594 3097 1305 2825 
Q 1016 2553 972 2059 
L 3022 2063 
z
" transform="scale(0.015625)"/>
       <path id="DejaVuSans-6e" d="M 3513 2113 
L 3513 0 
L 2938 0 
L 2938 2094 
Q 2938 2591 2744 2837 
Q 2550 3084 2163 3084 
Q 1697 3084 1428 2787 
Q 1159 2491 1159 1978 
L 1159 0 
L 581 0 
L 581 3500 
L 1159 3500 
L 1159 2956 
Q 1366 3272 1645 3428 
Q 1925 3584 2291 3584 
Q 2894 3584 3203 3211 
Q 3513 2838 3513 2113 
z
" transform="scale(0.015625)"/>
       <path id="DejaVuSans-72" d="M 2631 2963 
Q 2534 3019 2420 3045 
Q 2306 3072 2169 3072 
Q 1681 3072 1420 2755 
Q 1159 2438 1159 1844 
L 1159 0 
L 581 0 
L 581 3500 
L 1159 3500 
L 1159 2956 
Q 1341 3275 1631 3429 
Q 1922 3584 2338 3584 
Q 2397 3584 2469 3576 
Q 2541 3569 2628 3553 
L 2631 2963 
z
" transform="scale(0.015625)"/>
       <path id="DejaVuSans-61" d="M 2194 1759 
Q 1497 1759 1228 1600 
Q 959 1441 959 1056 
Q 959 750 1161 570 
Q 1363 391 1709 391 
Q 2188 391 2477 730 
Q 2766 1069 2766 1631 
L 2766 1759 
L 2194 1759 
z
M 3341 1997 
L 3341 0 
L 2766 0 
L 2766 531 
Q 2569 213 2275 61 
Q 1981 -91 1556 -91 
Q 1019 -91 701 211 
Q 384 513 384 1019 
Q 384 1609 779 1909 
Q 1175 2209 1959 2209 
L 2766 2209 
L 2766 2266 
Q 2766 2663 2505 2880 
Q 2244 3097 1772 3097 
Q 1472 3097 1187 3025 
Q 903 2953 641 2809 
L 641 3341 
Q 956 3463 1253 3523 
Q 1550 3584 1831 3584 
Q 2591 3584 2966 3190 
Q 3341 2797 3341 1997 
z
" transform="scale(0.015625)"/>
       <path id="DejaVuSans-74" d="M 1172 4494 
L 1172 3500 
L 2356 3500 
L 2356 3053 
L 1172 3053 
L 1172 1153 
Q 1172 725 1289 603 
Q 1406 481 1766 481 
L 2356 481 
L 2356 0 
L 1766 0 
Q 1100 0 847 248 
Q 594 497 594 1153 
L 594 3053 
L 172 3053 
L 172 3500 
L 594 3500 
L 594 4494 
L 1172 4494 
z
" transform="scale(0.015625)"/>
       <path id="DejaVuSans-69" d="M 603 3500 
L 1178 3500 
L 1178 0 
L 603 0 
L 603 3500 
z
M 603 4863 
L 1178 4863 
L 1178 4134 
L 603 4134 
L 603 4863 
z
" transform="scale(0.015625)"/>
       <path id="DejaVuSans-6f" d="M 1959 3097 
Q 1497 3097 1228 2736 
Q 959 2375 959 1747 
Q 959 1119 1226 758 
Q 1494 397 1959 397 
Q 2419 397 2687 759 
Q 2956 1122 2956 1747 
Q 2956 2369 2687 2733 
Q 2419 3097 1959 3097 
z
M 1959 3584 
Q 2709 3584 3137 3096 
Q 3566 2609 3566 1747 
Q 3566 888 3137 398 
Q 2709 -91 1959 -91 
Q 1206 -91 779 398 
Q 353 888 353 1747 
Q 353 2609 779 3096 
Q 1206 3584 1959 3584 
z
" transform="scale(0.015625)"/>
       <path id="DejaVuSans-73" d="M 2834 3397 
L 2834 2853 
Q 2591 2978 2328 3040 
Q 2066 3103 1784 3103 
Q 1356 3103 1142 2972 
Q 928 2841 928 2578 
Q 928 2378 1081 2264 
Q 1234 2150 1697 2047 
L 1894 2003 
Q 2506 1872 2764 1633 
Q 3022 1394 3022 966 
Q 3022 478 2636 193 
Q 2250 -91 1575 -91 
Q 1294 -91 989 -36 
Q 684 19 347 128 
L 347 722 
Q 666 556 975 473 
Q 1284 391 1588 391 
Q 1994 391 2212 530 
Q 2431 669 2431 922 
Q 2431 1156 2273 1281 
Q 2116 1406 1581 1522 
L 1381 1569 
Q 847 1681 609 1914 
Q 372 2147 372 2553 
Q 372 3047 722 3315 
Q 1072 3584 1716 3584 
Q 2034 3584 2315 3537 
Q 2597 3491 2834 3397 
z
" transform="scale(0.015625)"/>
      </defs>
      <use xlink:href="#DejaVuSans-47"/>
      <use xlink:href="#DejaVuSans-65" x="77.490234"/>
      <use xlink:href="#DejaVuSans-6e" x="139.013672"/>
      <use xlink:href="#DejaVuSans-65" x="202.392578"/>
      <use xlink:href="#DejaVuSans-72" x="263.916016"/>
      <use xlink:href="#DejaVuSans-61" x="305.029297"/>
      <use xlink:href="#DejaVuSans-74" x="366.308594"/>
      <use xlink:href="#DejaVuSans-69" x="405.517578"/>
      <use xlink:href="#DejaVuSans-6f" x="433.300781"/>
      <use xlink:href="#DejaVuSans-6e" x="494.482422"/>
      <use xlink:href="#DejaVuSans-73" x="557.861328"/>
     </g>
    </g>
   </g>
   <g id="matplotlib.axis_2">
    <g id="ytick_1">
     <g id="line2d_19">
      <path d="M 57.6 302.817826 
L 414.72 302.817826 
" clip-path="url(#p15d3245e7e)" style="fill: none; stroke: #b0b0b0; stroke-width: 0.8; stroke-linecap: square"/>
     </g>
     <g id="line2d_20">
      <defs>
       <path id="me64b383203" d="M 0 0 
L -3.5 0 
" style="stroke: #000000; stroke-width: 0.8"/>
      </defs>
      <g>
       <use xlink:href="#me64b383203" x="57.6" y="302.817826" style="stroke: #000000; stroke-width: 0.8"/>
      </g>
     </g>
     <g id="text_11">
      <!-- 0 -->
      <g transform="translate(44.2375 306.617044) scale(0.1 -0.1)">
       <use xlink:href="#DejaVuSans-30"/>
      </g>
     </g>
    </g>
    <g id="ytick_2">
     <g id="line2d_21">
      <path d="M 57.6 271.729603 
L 414.72 271.729603 
" clip-path="url(#p15d3245e7e)" style="fill: none; stroke: #b0b0b0; stroke-width: 0.8; stroke-linecap: square"/>
     </g>
     <g id="line2d_22">
      <g>
       <use xlink:href="#me64b383203" x="57.6" y="271.729603" style="stroke: #000000; stroke-width: 0.8"/>
      </g>
     </g>
     <g id="text_12">
      <!-- 20 -->
      <g transform="translate(37.875 275.528822) scale(0.1 -0.1)">
       <use xlink:href="#DejaVuSans-32"/>
       <use xlink:href="#DejaVuSans-30" x="63.623047"/>
      </g>
     </g>
    </g>
    <g id="ytick_3">
     <g id="line2d_23">
      <path d="M 57.6 240.64138 
L 414.72 240.64138 
" clip-path="url(#p15d3245e7e)" style="fill: none; stroke: #b0b0b0; stroke-width: 0.8; stroke-linecap: square"/>
     </g>
     <g id="line2d_24">
      <g>
       <use xlink:href="#me64b383203" x="57.6" y="240.64138" style="stroke: #000000; stroke-width: 0.8"/>
      </g>
     </g>
     <g id="text_13">
      <!-- 40 -->
      <g transform="translate(37.875 244.440599) scale(0.1 -0.1)">
       <defs>
        <path id="DejaVuSans-34" d="M 2419 4116 
L 825 1625 
L 2419 1625 
L 2419 4116 
z
M 2253 4666 
L 3047 4666 
L 3047 1625 
L 3713 1625 
L 3713 1100 
L 3047 1100 
L 3047 0 
L 2419 0 
L 2419 1100 
L 313 1100 
L 313 1709 
L 2253 4666 
z
" transform="scale(0.015625)"/>
       </defs>
       <use xlink:href="#DejaVuSans-34"/>
       <use xlink:href="#DejaVuSans-30" x="63.623047"/>
      </g>
     </g>
    </g>
    <g id="ytick_4">
     <g id="line2d_25">
      <path d="M 57.6 209.553158 
L 414.72 209.553158 
" clip-path="url(#p15d3245e7e)" style="fill: none; stroke: #b0b0b0; stroke-width: 0.8; stroke-linecap: square"/>
     </g>
     <g id="line2d_26">
      <g>
       <use xlink:href="#me64b383203" x="57.6" y="209.553158" style="stroke: #000000; stroke-width: 0.8"/>
      </g>
     </g>
     <g id="text_14">
      <!-- 60 -->
      <g transform="translate(37.875 213.352376) scale(0.1 -0.1)">
       <defs>
        <path id="DejaVuSans-36" d="M 2113 2584 
Q 1688 2584 1439 2293 
Q 1191 2003 1191 1497 
Q 1191 994 1439 701 
Q 1688 409 2113 409 
Q 2538 409 2786 701 
Q 3034 994 3034 1497 
Q 3034 2003 2786 2293 
Q 2538 2584 2113 2584 
z
M 3366 4563 
L 3366 3988 
Q 3128 4100 2886 4159 
Q 2644 4219 2406 4219 
Q 1781 4219 1451 3797 
Q 1122 3375 1075 2522 
Q 1259 2794 1537 2939 
Q 1816 3084 2150 3084 
Q 2853 3084 3261 2657 
Q 3669 2231 3669 1497 
Q 3669 778 3244 343 
Q 2819 -91 2113 -91 
Q 1303 -91 875 529 
Q 447 1150 447 2328 
Q 447 3434 972 4092 
Q 1497 4750 2381 4750 
Q 2619 4750 2861 4703 
Q 3103 4656 3366 4563 
z
" transform="scale(0.015625)"/>
       </defs>
       <use xlink:href="#DejaVuSans-36"/>
       <use xlink:href="#DejaVuSans-30" x="63.623047"/>
      </g>
     </g>
    </g>
    <g id="ytick_5">
     <g id="line2d_27">
      <path d="M 57.6 178.464935 
L 414.72 178.464935 
" clip-path="url(#p15d3245e7e)" style="fill: none; stroke: #b0b0b0; stroke-width: 0.8; stroke-linecap: square"/>
     </g>
     <g id="line2d_28">
      <g>
       <use xlink:href="#me64b383203" x="57.6" y="178.464935" style="stroke: #000000; stroke-width: 0.8"/>
      </g>
     </g>
     <g id="text_15">
      <!-- 80 -->
      <g transform="translate(37.875 182.264154) scale(0.1 -0.1)">
       <defs>
        <path id="DejaVuSans-38" d="M 2034 2216 
Q 1584 2216 1326 1975 
Q 1069 1734 1069 1313 
Q 1069 891 1326 650 
Q 1584 409 2034 409 
Q 2484 409 2743 651 
Q 3003 894 3003 1313 
Q 3003 1734 2745 1975 
Q 2488 2216 2034 2216 
z
M 1403 2484 
Q 997 2584 770 2862 
Q 544 3141 544 3541 
Q 544 4100 942 4425 
Q 1341 4750 2034 4750 
Q 2731 4750 3128 4425 
Q 3525 4100 3525 3541 
Q 3525 3141 3298 2862 
Q 3072 2584 2669 2484 
Q 3125 2378 3379 2068 
Q 3634 1759 3634 1313 
Q 3634 634 3220 271 
Q 2806 -91 2034 -91 
Q 1263 -91 848 271 
Q 434 634 434 1313 
Q 434 1759 690 2068 
Q 947 2378 1403 2484 
z
M 1172 3481 
Q 1172 3119 1398 2916 
Q 1625 2713 2034 2713 
Q 2441 2713 2670 2916 
Q 2900 3119 2900 3481 
Q 2900 3844 2670 4047 
Q 2441 4250 2034 4250 
Q 1625 4250 1398 4047 
Q 1172 3844 1172 3481 
z
" transform="scale(0.015625)"/>
       </defs>
       <use xlink:href="#DejaVuSans-38"/>
       <use xlink:href="#DejaVuSans-30" x="63.623047"/>
      </g>
     </g>
    </g>
    <g id="ytick_6">
     <g id="line2d_29">
      <path d="M 57.6 147.376712 
L 414.72 147.376712 
" clip-path="url(#p15d3245e7e)" style="fill: none; stroke: #b0b0b0; stroke-width: 0.8; stroke-linecap: square"/>
     </g>
     <g id="line2d_30">
      <g>
       <use xlink:href="#me64b383203" x="57.6" y="147.376712" style="stroke: #000000; stroke-width: 0.8"/>
      </g>
     </g>
     <g id="text_16">
      <!-- 100 -->
      <g transform="translate(31.5125 151.175931) scale(0.1 -0.1)">
       <use xlink:href="#DejaVuSans-31"/>
       <use xlink:href="#DejaVuSans-30" x="63.623047"/>
       <use xlink:href="#DejaVuSans-30" x="127.246094"/>
      </g>
     </g>
    </g>
    <g id="ytick_7">
     <g id="line2d_31">
      <path d="M 57.6 116.288489 
L 414.72 116.288489 
" clip-path="url(#p15d3245e7e)" style="fill: none; stroke: #b0b0b0; stroke-width: 0.8; stroke-linecap: square"/>
     </g>
     <g id="line2d_32">
      <g>
       <use xlink:href="#me64b383203" x="57.6" y="116.288489" style="stroke: #000000; stroke-width: 0.8"/>
      </g>
     </g>
     <g id="text_17">
      <!-- 120 -->
      <g transform="translate(31.5125 120.087708) scale(0.1 -0.1)">
       <use xlink:href="#DejaVuSans-31"/>
       <use xlink:href="#DejaVuSans-32" x="63.623047"/>
       <use xlink:href="#DejaVuSans-30" x="127.246094"/>
      </g>
     </g>
    </g>
    <g id="ytick_8">
     <g id="line2d_33">
      <path d="M 57.6 85.200267 
L 414.72 85.200267 
" clip-path="url(#p15d3245e7e)" style="fill: none; stroke: #b0b0b0; stroke-width: 0.8; stroke-linecap: square"/>
     </g>
     <g id="line2d_34">
      <g>
       <use xlink:href="#me64b383203" x="57.6" y="85.200267" style="stroke: #000000; stroke-width: 0.8"/>
      </g>
     </g>
     <g id="text_18">
      <!-- 140 -->
      <g transform="translate(31.5125 88.999485) scale(0.1 -0.1)">
       <use xlink:href="#DejaVuSans-31"/>
       <use xlink:href="#DejaVuSans-34" x="63.623047"/>
       <use xlink:href="#DejaVuSans-30" x="127.246094"/>
      </g>
     </g>
    </g>
    <g id="ytick_9">
     <g id="line2d_35">
      <path d="M 57.6 54.112044 
L 414.72 54.112044 
" clip-path="url(#p15d3245e7e)" style="fill: none; stroke: #b0b0b0; stroke-width: 0.8; stroke-linecap: square"/>
     </g>
     <g id="line2d_36">
      <g>
       <use xlink:href="#me64b383203" x="57.6" y="54.112044" style="stroke: #000000; stroke-width: 0.8"/>
      </g>
     </g>
     <g id="text_19">
      <!-- 160 -->
      <g transform="translate(31.5125 57.911263) scale(0.1 -0.1)">
       <use xlink:href="#DejaVuSans-31"/>
       <use xlink:href="#DejaVuSans-36" x="63.623047"/>
       <use xlink:href="#DejaVuSans-30" x="127.246094"/>
      </g>
     </g>
    </g>
    <g id="text_20">
     <!-- Fitness -->
     <g transform="translate(25.432812 191.845187) rotate(-90) scale(0.1 -0.1)">
      <defs>
       <path id="DejaVuSans-46" d="M 628 4666 
L 3309 4666 
L 3309 4134 
L 1259 4134 
L 1259 2759 
L 3109 2759 
L 3109 2228 
L 1259 2228 
L 1259 0 
L 628 0 
L 628 4666 
z
" transform="scale(0.015625)"/>
      </defs>
      <use xlink:href="#DejaVuSans-46"/>
      <use xlink:href="#DejaVuSans-69" x="50.269531"/>
      <use xlink:href="#DejaVuSans-74" x="78.052734"/>
      <use xlink:href="#DejaVuSans-6e" x="117.261719"/>
      <use xlink:href="#DejaVuSans-65" x="180.640625"/>
      <use xlink:href="#DejaVuSans-73" x="242.164062"/>
      <use xlink:href="#DejaVuSans-73" x="294.263672"/>
     </g>
    </g>
   </g>
   <g id="line2d_37">
    <path d="M 73.832727 295.488 
L 75.464157 291.201711 
L 77.095587 292.070073 
L 78.727017 291.186675 
L 81.989877 289.07283 
L 83.621307 287.844427 
L 85.252736 289.340619 
L 86.884166 288.958942 
L 88.515596 287.12366 
L 90.147026 288.241759 
L 91.778456 282.426568 
L 93.409886 282.144927 
L 95.041316 285.373793 
L 96.672746 282.92675 
L 98.304175 280.864462 
L 99.935605 278.484226 
L 101.567035 273.908087 
L 103.198465 271.169238 
L 104.829895 274.889982 
L 106.461325 270.831584 
L 108.092755 262.809438 
L 109.724185 267.888976 
L 111.355614 268.232178 
L 112.987044 257.226639 
L 114.618474 262.407799 
L 116.249904 258.497482 
L 117.881334 265.195581 
L 119.512764 260.544838 
L 121.144194 260.153165 
L 122.775624 261.602614 
L 124.407053 259.854679 
L 126.038483 260.842507 
L 127.669913 250.598161 
L 129.301343 260.138467 
L 130.932773 240.444331 
L 132.564203 248.223798 
L 134.195633 233.837369 
L 135.827063 248.909591 
L 137.458492 250.030652 
L 139.089922 244.016784 
L 140.721352 245.447743 
L 142.352782 254.835486 
L 143.984212 255.111881 
L 145.615642 237.360631 
L 147.247072 240.172678 
L 148.878502 249.378725 
L 150.509931 243.700184 
L 152.141361 240.499285 
L 153.772791 243.820928 
L 155.404221 245.663683 
L 157.035651 253.113567 
L 158.667081 247.523182 
L 160.298511 252.15879 
L 161.929941 244.909666 
L 163.56137 252.068681 
L 165.1928 252.160509 
L 166.82423 249.944762 
L 168.45566 256.039377 
L 170.08709 249.760857 
L 171.71852 250.852605 
L 173.34995 252.889826 
L 174.98138 239.417478 
L 176.61281 239.690081 
L 178.244239 248.875834 
L 179.875669 252.912764 
L 181.507099 239.603811 
L 183.138529 243.454087 
L 184.769959 241.740459 
L 186.401389 251.249459 
L 188.032819 235.895809 
L 189.664249 233.527987 
L 191.295678 243.834019 
L 192.927108 234.566095 
L 194.558538 238.25187 
L 196.189968 224.856896 
L 197.821398 238.629281 
L 199.452828 233.429731 
L 201.084258 227.786871 
L 202.715688 235.841547 
L 204.347117 223.296876 
L 205.978547 226.788088 
L 207.609977 236.823839 
L 209.241407 228.510116 
L 210.872837 228.688116 
L 212.504267 227.299092 
L 214.135697 230.660703 
L 215.767127 231.980443 
L 217.398556 233.856607 
L 219.029986 237.61866 
L 220.661416 235.868876 
L 222.292846 228.599266 
L 223.924276 231.22642 
L 225.555706 238.049885 
L 227.187136 233.476667 
L 228.818566 230.369955 
L 230.449995 232.983943 
L 232.081425 227.160396 
L 233.712855 239.788024 
L 235.344285 242.804736 
L 236.975715 223.325721 
L 238.607145 225.572141 
L 240.238575 232.048156 
L 243.501434 207.139203 
L 245.132864 234.596275 
L 246.764294 233.66052 
L 248.395724 236.194987 
L 250.027154 221.32359 
L 251.658584 222.216222 
L 253.290014 235.047832 
L 254.921444 232.715454 
L 256.552873 223.463583 
L 258.184303 229.30506 
L 259.815733 220.213186 
L 261.447163 201.697164 
L 263.078593 185.828958 
L 264.710023 179.340845 
L 266.341453 181.011426 
L 267.972883 193.852828 
L 269.604312 182.74032 
L 271.235742 182.274797 
L 272.867172 188.28081 
L 274.498602 200.963858 
L 276.130032 195.892038 
L 277.761462 169.330807 
L 279.392892 186.593901 
L 281.024322 185.910262 
L 282.655751 185.365905 
L 284.287181 189.053583 
L 285.918611 205.096676 
L 287.550041 165.70581 
L 289.181471 179.974072 
L 290.812901 183.339995 
L 292.444331 200.200266 
L 294.075761 193.822218 
L 295.70719 190.077744 
L 297.33862 194.198346 
L 298.97005 184.859005 
L 300.60148 198.613989 
L 302.23291 181.781797 
L 303.86434 194.489568 
L 305.49577 179.291882 
L 307.1272 200.774621 
L 308.75863 196.608875 
L 310.390059 193.235727 
L 312.021489 188.737899 
L 313.652919 205.235434 
L 315.284349 199.584149 
L 316.915779 191.932474 
L 318.547209 207.597316 
L 320.178639 181.519122 
L 321.810069 177.58747 
L 323.441498 205.727325 
L 325.072928 194.404507 
L 326.704358 197.323328 
L 328.335788 208.241235 
L 329.967218 210.869125 
L 331.598648 199.933507 
L 333.230078 203.190176 
L 334.861508 215.289089 
L 336.492937 210.152503 
L 338.124367 203.421615 
L 339.755797 201.545609 
L 341.387227 208.985947 
L 343.018657 194.474592 
L 344.650087 192.774153 
L 346.281517 200.811974 
L 347.912947 204.706504 
L 349.544376 192.922482 
L 351.175806 200.564775 
L 352.807236 232.190047 
L 354.438666 202.328993 
L 356.070096 197.482616 
L 357.701526 209.969237 
L 359.332956 206.639399 
L 360.964386 205.732659 
L 362.595815 210.633772 
L 364.227245 198.10592 
L 365.858675 201.932695 
L 367.490105 196.498459 
L 369.121535 199.465029 
L 370.752965 197.034761 
L 372.384395 208.123876 
L 374.015825 198.390071 
L 375.647254 208.905486 
L 377.278684 203.297037 
L 380.541544 202.477539 
L 382.172974 210.486581 
L 383.804404 201.700241 
L 385.435834 195.993511 
L 387.067264 193.686845 
L 388.698693 191.788239 
L 390.330123 205.129122 
L 391.961553 187.402799 
L 393.592983 193.653208 
L 395.224413 190.74863 
L 396.855843 184.58716 
L 398.487273 196.430227 
L 398.487273 196.430227 
" clip-path="url(#p15d3245e7e)" style="fill: none; stroke: #0000ff; stroke-width: 1.5; stroke-linecap: square"/>
   </g>
   <g id="line2d_38">
    <path d="M 73.832727 289.910753 
L 75.464157 285.815229 
L 77.095587 286.337518 
L 78.727017 277.931156 
L 80.358447 278.570107 
L 81.989877 274.71155 
L 83.621307 271.164774 
L 85.252736 280.509487 
L 86.884166 277.846364 
L 88.515596 270.562745 
L 90.147026 268.952369 
L 91.778456 254.479975 
L 93.409886 255.827434 
L 95.041316 263.299758 
L 96.672746 259.655262 
L 98.304175 251.306741 
L 99.935605 247.729285 
L 101.567035 239.19548 
L 103.198465 234.371921 
L 104.829895 238.847018 
L 106.461325 235.157176 
L 108.092755 223.024 
L 109.724185 229.773211 
L 111.355614 229.776015 
L 112.987044 216.635464 
L 114.618474 220.133755 
L 116.249904 217.313417 
L 117.881334 224.752041 
L 119.512764 218.166468 
L 121.144194 215.527654 
L 122.775624 215.14815 
L 124.407053 213.806 
L 126.038483 217.127542 
L 127.669913 203.515359 
L 129.301343 213.719917 
L 130.932773 188.344179 
L 132.564203 199.74268 
L 134.195633 177.283942 
L 135.827063 192.723704 
L 137.458492 193.177196 
L 139.089922 183.838914 
L 140.721352 188.573483 
L 142.352782 198.091112 
L 143.984212 200.801053 
L 145.615642 178.643529 
L 147.247072 180.363158 
L 148.878502 193.1552 
L 150.509931 187.671548 
L 152.141361 184.394911 
L 153.772791 189.51466 
L 155.404221 184.007697 
L 157.035651 197.773502 
L 158.667081 187.0806 
L 160.298511 195.663928 
L 161.929941 185.930603 
L 163.56137 199.484542 
L 165.1928 201.442167 
L 166.82423 196.148382 
L 168.45566 205.014902 
L 170.08709 202.415085 
L 171.71852 200.39808 
L 173.34995 204.976775 
L 174.98138 191.700322 
L 176.61281 198.690588 
L 178.244239 204.024171 
L 179.875669 207.274562 
L 181.507099 195.624226 
L 183.138529 199.845114 
L 184.769959 194.543632 
L 186.401389 206.505351 
L 188.032819 195.408437 
L 189.664249 191.762278 
L 191.295678 194.877767 
L 192.927108 181.530337 
L 194.558538 188.918918 
L 196.189968 177.113117 
L 197.821398 189.055336 
L 199.452828 185.527062 
L 201.084258 176.579312 
L 202.715688 185.366741 
L 204.347117 178.263039 
L 205.978547 177.104222 
L 207.609977 181.922197 
L 209.241407 175.663176 
L 210.872837 174.523811 
L 212.504267 174.347121 
L 214.135697 177.062431 
L 217.398556 178.800701 
L 219.029986 183.073246 
L 220.661416 183.09438 
L 222.292846 175.069682 
L 223.924276 176.290293 
L 225.555706 183.039108 
L 227.187136 178.055429 
L 228.818566 174.481949 
L 230.449995 176.189334 
L 232.081425 175.034983 
L 233.712855 187.2669 
L 235.344285 188.669554 
L 236.975715 163.434849 
L 238.607145 167.704902 
L 240.238575 177.97802 
L 241.870005 157.650364 
L 243.501434 147.774486 
L 245.132864 172.629528 
L 246.764294 169.295554 
L 248.395724 169.714696 
L 250.027154 158.307927 
L 251.658584 158.781259 
L 253.290014 168.801716 
L 254.921444 167.872395 
L 256.552873 153.576638 
L 258.184303 160.930134 
L 259.815733 141.741414 
L 261.447163 114.245774 
L 263.078593 98.157194 
L 264.710023 93.551168 
L 266.341453 91.40019 
L 267.972883 102.769608 
L 269.604312 90.696241 
L 271.235742 87.377073 
L 272.867172 95.29322 
L 274.498602 107.128374 
L 276.130032 103.376509 
L 277.761462 75.342331 
L 279.392892 88.489849 
L 281.024322 86.085146 
L 282.655751 82.728374 
L 284.287181 88.768301 
L 285.918611 107.595418 
L 287.550041 70.5394 
L 289.181471 78.504594 
L 290.812901 81.956767 
L 292.444331 100.652072 
L 295.70719 87.484456 
L 297.33862 89.870492 
L 298.97005 83.139263 
L 300.60148 95.906833 
L 302.23291 81.410775 
L 303.86434 92.340354 
L 305.49577 76.062499 
L 307.1272 98.403368 
L 308.75863 94.681756 
L 310.390059 90.385308 
L 312.021489 82.907827 
L 313.652919 103.434038 
L 315.284349 95.566011 
L 316.915779 88.506672 
L 318.547209 105.068833 
L 320.178639 78.932799 
L 321.810069 73.673957 
L 323.441498 102.161481 
L 325.072928 91.736417 
L 326.704358 91.809496 
L 328.335788 104.300286 
L 329.967218 108.827459 
L 331.598648 95.747855 
L 333.230078 100.171837 
L 334.861508 113.981812 
L 336.492937 106.836946 
L 338.124367 99.173633 
L 339.755797 94.973963 
L 341.387227 103.424537 
L 343.018657 89.509225 
L 344.650087 87.873858 
L 346.281517 97.195381 
L 347.912947 101.039893 
L 349.544376 86.764453 
L 351.175806 93.981233 
L 352.807236 133.765224 
L 354.438666 98.016536 
L 356.070096 90.872666 
L 357.701526 105.868351 
L 359.332956 102.491216 
L 360.964386 101.423159 
L 362.595815 109.454204 
L 364.227245 92.228264 
L 365.858675 97.536481 
L 367.490105 90.961008 
L 369.121535 96.766927 
L 370.752965 91.821309 
L 372.384395 104.359248 
L 374.015825 93.615581 
L 375.647254 104.112172 
L 377.278684 101.151461 
L 378.910114 97.342759 
L 380.541544 98.682196 
L 382.172974 107.714346 
L 383.804404 97.887834 
L 385.435834 92.158689 
L 387.067264 88.774884 
L 388.698693 86.721623 
L 390.330123 100.420231 
L 391.961553 80.863017 
L 393.592983 86.412507 
L 395.224413 85.382325 
L 396.855843 78.280871 
L 398.487273 92.254462 
L 398.487273 92.254462 
" clip-path="url(#p15d3245e7e)" style="fill: none; stroke-dasharray: 9.6,2.4,1.5,2.4; stroke-dashoffset: 0; stroke: #008000; stroke-width: 1.5"/>
   </g>
   <g id="line2d_39">
    <path d="M 73.832727 287.195994 
L 75.464157 284.398054 
L 77.095587 285.952465 
L 78.727017 181.651478 
L 80.358447 211.651613 
L 81.989877 193.775884 
L 83.621307 181.884639 
L 85.252736 237.532558 
L 88.515596 197.972795 
L 90.147026 202.325146 
L 91.778456 176.521921 
L 93.409886 189.423533 
L 95.041316 172.402731 
L 96.672746 171.236923 
L 98.304175 178.231773 
L 99.935605 189.578974 
L 101.567035 168.205821 
L 103.198465 150.718696 
L 104.829895 171.392364 
L 106.461325 186.936475 
L 108.092755 171.392364 
L 109.724185 172.014129 
L 111.355614 183.050448 
L 112.987044 171.470085 
L 114.618474 153.516636 
L 116.249904 176.521921 
L 117.881334 180.252508 
L 119.512764 163.387147 
L 121.144194 141.54767 
L 122.775624 85.277987 
L 124.407053 152.350828 
L 126.038483 170.84832 
L 127.669913 109.37136 
L 129.301343 109.604521 
L 130.932773 99.811731 
L 132.564203 130.045028 
L 134.195633 77.894534 
L 135.827063 81.780562 
L 137.458492 110.381727 
L 139.089922 77.972255 
L 140.721352 127.635691 
L 142.352782 75.640638 
L 143.984212 83.568135 
L 147.247072 111.625256 
L 148.878502 101.754745 
L 150.509931 100.666657 
L 152.141361 125.614956 
L 153.772791 107.583787 
L 155.404221 81.236518 
L 157.035651 83.568135 
L 158.667081 84.500782 
L 160.298511 77.583652 
L 161.929941 94.06041 
L 163.56137 120.019076 
L 165.1928 120.407679 
L 166.82423 78.438578 
L 168.45566 115.511284 
L 170.08709 120.174517 
L 171.71852 134.4751 
L 173.34995 141.159068 
L 174.98138 119.241871 
L 176.61281 158.413031 
L 178.244239 155.925973 
L 179.875669 147.843035 
L 181.507099 135.87407 
L 183.138529 156.081414 
L 184.769959 155.692812 
L 186.401389 171.547805 
L 188.032819 172.16957 
L 189.664249 141.858553 
L 191.295678 123.050178 
L 192.927108 106.495699 
L 194.558538 127.013926 
L 196.189968 101.599304 
L 197.821398 113.335108 
L 199.452828 126.625323 
L 201.084258 85.355708 
L 202.715688 80.925636 
L 204.347117 126.625323 
L 205.978547 100.666657 
L 207.609977 80.925636 
L 209.241407 105.17445 
L 210.872837 111.158933 
L 212.504267 119.086429 
L 214.135697 102.998274 
L 215.767127 109.604521 
L 217.398556 98.568202 
L 219.029986 88.386809 
L 220.661416 127.402529 
L 222.292846 110.226286 
L 223.924276 127.635691 
L 225.555706 92.816881 
L 227.187136 109.915404 
L 228.818566 115.977607 
L 230.449995 80.770195 
L 233.712855 133.542453 
L 235.344285 113.879152 
L 238.607145 90.718426 
L 240.238575 121.184884 
L 241.870005 82.091444 
L 243.501434 85.511149 
L 245.132864 86.676957 
L 246.764294 109.759963 
L 248.395724 77.195049 
L 250.027154 96.625188 
L 251.658584 111.702976 
L 253.290014 81.625121 
L 254.921444 82.091444 
L 256.552873 72.920419 
L 258.184303 70.899684 
L 259.815733 63.671672 
L 261.447163 70.200199 
L 263.078593 61.650938 
L 264.710023 55.122411 
L 266.341453 63.127628 
L 267.972883 61.96182 
L 269.604312 65.381525 
L 271.235742 60.796012 
L 272.867172 63.827113 
L 274.498602 57.76491 
L 276.130032 56.288219 
L 277.761462 64.371157 
L 279.392892 63.205349 
L 281.024322 60.174247 
L 282.655751 65.925569 
L 284.287181 61.495497 
L 285.918611 65.148363 
L 287.550041 64.75976 
L 289.181471 64.526599 
L 290.812901 58.775277 
L 292.444331 59.552483 
L 294.075761 65.381525 
L 295.70719 63.982555 
L 297.33862 57.68719 
L 298.97005 56.832263 
L 300.60148 59.474762 
L 302.23291 59.397042 
L 303.86434 61.96182 
L 305.49577 57.220866 
L 307.1272 61.8841 
L 308.75863 58.386675 
L 310.390059 56.055058 
L 312.021489 57.531748 
L 313.652919 57.609469 
L 315.284349 60.640571 
L 316.915779 62.739026 
L 318.547209 60.56285 
L 320.178639 59.474762 
L 321.810069 61.106894 
L 323.441498 63.671672 
L 325.072928 63.982555 
L 326.704358 61.650938 
L 328.335788 57.842631 
L 329.967218 62.117261 
L 331.598648 63.671672 
L 333.230078 62.428143 
L 334.861508 62.739026 
L 336.492937 62.117261 
L 338.124367 56.132778 
L 339.755797 59.707924 
L 341.387227 53.568 
L 343.018657 61.417776 
L 344.650087 57.454028 
L 346.281517 65.148363 
L 347.912947 59.16388 
L 349.544376 59.863365 
L 351.175806 64.293437 
L 352.807236 64.448878 
L 354.438666 56.288219 
L 356.070096 60.951453 
L 357.701526 61.650938 
L 359.332956 65.459245 
L 360.964386 55.511014 
L 362.595815 57.920351 
L 364.227245 60.951453 
L 365.858675 61.184615 
L 367.490105 64.915201 
L 369.121535 60.096527 
L 370.752965 62.272702 
L 372.384395 64.215716 
L 374.015825 61.340056 
L 375.647254 63.749393 
L 377.278684 64.293437 
L 378.910114 56.987704 
L 380.541544 59.707924 
L 382.172974 58.852998 
L 383.804404 61.029173 
L 385.435834 59.16388 
L 387.067264 55.355573 
L 388.698693 58.231233 
L 390.330123 54.345206 
L 391.961553 62.194982 
L 393.592983 63.127628 
L 395.224413 59.707924 
L 396.855843 61.029173 
L 398.487273 58.464395 
L 398.487273 58.464395 
" clip-path="url(#p15d3245e7e)" style="fill: none; stroke: #ff0000; stroke-width: 1.5; stroke-linecap: square"/>
   </g>
   <g id="patch_3">
    <path d="M 57.6 307.584 
L 57.6 41.472 
" style="fill: none; stroke: #000000; stroke-width: 0.8; stroke-linejoin: miter; stroke-linecap: square"/>
   </g>
   <g id="patch_4">
    <path d="M 414.72 307.584 
L 414.72 41.472 
" style="fill: none; stroke: #000000; stroke-width: 0.8; stroke-linejoin: miter; stroke-linecap: square"/>
   </g>
   <g id="patch_5">
    <path d="M 57.6 307.584 
L 414.72 307.584 
" style="fill: none; stroke: #000000; stroke-width: 0.8; stroke-linejoin: miter; stroke-linecap: square"/>
   </g>
   <g id="patch_6">
    <path d="M 57.6 41.472 
L 414.72 41.472 
" style="fill: none; stroke: #000000; stroke-width: 0.8; stroke-linejoin: miter; stroke-linecap: square"/>
   </g>
   <g id="text_21">
    <!-- Population's average and best fitness -->
    <g transform="translate(123.529687 35.472) scale(0.12 -0.12)">
     <defs>
      <path id="DejaVuSans-50" d="M 1259 4147 
L 1259 2394 
L 2053 2394 
Q 2494 2394 2734 2622 
Q 2975 2850 2975 3272 
Q 2975 3691 2734 3919 
Q 2494 4147 2053 4147 
L 1259 4147 
z
M 628 4666 
L 2053 4666 
Q 2838 4666 3239 4311 
Q 3641 3956 3641 3272 
Q 3641 2581 3239 2228 
Q 2838 1875 2053 1875 
L 1259 1875 
L 1259 0 
L 628 0 
L 628 4666 
z
" transform="scale(0.015625)"/>
      <path id="DejaVuSans-70" d="M 1159 525 
L 1159 -1331 
L 581 -1331 
L 581 3500 
L 1159 3500 
L 1159 2969 
Q 1341 3281 1617 3432 
Q 1894 3584 2278 3584 
Q 2916 3584 3314 3078 
Q 3713 2572 3713 1747 
Q 3713 922 3314 415 
Q 2916 -91 2278 -91 
Q 1894 -91 1617 61 
Q 1341 213 1159 525 
z
M 3116 1747 
Q 3116 2381 2855 2742 
Q 2594 3103 2138 3103 
Q 1681 3103 1420 2742 
Q 1159 2381 1159 1747 
Q 1159 1113 1420 752 
Q 1681 391 2138 391 
Q 2594 391 2855 752 
Q 3116 1113 3116 1747 
z
" transform="scale(0.015625)"/>
      <path id="DejaVuSans-75" d="M 544 1381 
L 544 3500 
L 1119 3500 
L 1119 1403 
Q 1119 906 1312 657 
Q 1506 409 1894 409 
Q 2359 409 2629 706 
Q 2900 1003 2900 1516 
L 2900 3500 
L 3475 3500 
L 3475 0 
L 2900 0 
L 2900 538 
Q 2691 219 2414 64 
Q 2138 -91 1772 -91 
Q 1169 -91 856 284 
Q 544 659 544 1381 
z
M 1991 3584 
L 1991 3584 
z
" transform="scale(0.015625)"/>
      <path id="DejaVuSans-6c" d="M 603 4863 
L 1178 4863 
L 1178 0 
L 603 0 
L 603 4863 
z
" transform="scale(0.015625)"/>
      <path id="DejaVuSans-27" d="M 1147 4666 
L 1147 2931 
L 616 2931 
L 616 4666 
L 1147 4666 
z
" transform="scale(0.015625)"/>
      <path id="DejaVuSans-20" transform="scale(0.015625)"/>
      <path id="DejaVuSans-76" d="M 191 3500 
L 800 3500 
L 1894 563 
L 2988 3500 
L 3597 3500 
L 2284 0 
L 1503 0 
L 191 3500 
z
" transform="scale(0.015625)"/>
      <path id="DejaVuSans-67" d="M 2906 1791 
Q 2906 2416 2648 2759 
Q 2391 3103 1925 3103 
Q 1463 3103 1205 2759 
Q 947 2416 947 1791 
Q 947 1169 1205 825 
Q 1463 481 1925 481 
Q 2391 481 2648 825 
Q 2906 1169 2906 1791 
z
M 3481 434 
Q 3481 -459 3084 -895 
Q 2688 -1331 1869 -1331 
Q 1566 -1331 1297 -1286 
Q 1028 -1241 775 -1147 
L 775 -588 
Q 1028 -725 1275 -790 
Q 1522 -856 1778 -856 
Q 2344 -856 2625 -561 
Q 2906 -266 2906 331 
L 2906 616 
Q 2728 306 2450 153 
Q 2172 0 1784 0 
Q 1141 0 747 490 
Q 353 981 353 1791 
Q 353 2603 747 3093 
Q 1141 3584 1784 3584 
Q 2172 3584 2450 3431 
Q 2728 3278 2906 2969 
L 2906 3500 
L 3481 3500 
L 3481 434 
z
" transform="scale(0.015625)"/>
      <path id="DejaVuSans-64" d="M 2906 2969 
L 2906 4863 
L 3481 4863 
L 3481 0 
L 2906 0 
L 2906 525 
Q 2725 213 2448 61 
Q 2172 -91 1784 -91 
Q 1150 -91 751 415 
Q 353 922 353 1747 
Q 353 2572 751 3078 
Q 1150 3584 1784 3584 
Q 2172 3584 2448 3432 
Q 2725 3281 2906 2969 
z
M 947 1747 
Q 947 1113 1208 752 
Q 1469 391 1925 391 
Q 2381 391 2643 752 
Q 2906 1113 2906 1747 
Q 2906 2381 2643 2742 
Q 2381 3103 1925 3103 
Q 1469 3103 1208 2742 
Q 947 2381 947 1747 
z
" transform="scale(0.015625)"/>
      <path id="DejaVuSans-62" d="M 3116 1747 
Q 3116 2381 2855 2742 
Q 2594 3103 2138 3103 
Q 1681 3103 1420 2742 
Q 1159 2381 1159 1747 
Q 1159 1113 1420 752 
Q 1681 391 2138 391 
Q 2594 391 2855 752 
Q 3116 1113 3116 1747 
z
M 1159 2969 
Q 1341 3281 1617 3432 
Q 1894 3584 2278 3584 
Q 2916 3584 3314 3078 
Q 3713 2572 3713 1747 
Q 3713 922 3314 415 
Q 2916 -91 2278 -91 
Q 1894 -91 1617 61 
Q 1341 213 1159 525 
L 1159 0 
L 581 0 
L 581 4863 
L 1159 4863 
L 1159 2969 
z
" transform="scale(0.015625)"/>
      <path id="DejaVuSans-66" d="M 2375 4863 
L 2375 4384 
L 1825 4384 
Q 1516 4384 1395 4259 
Q 1275 4134 1275 3809 
L 1275 3500 
L 2222 3500 
L 2222 3053 
L 1275 3053 
L 1275 0 
L 697 0 
L 697 3053 
L 147 3053 
L 147 3500 
L 697 3500 
L 697 3744 
Q 697 4328 969 4595 
Q 1241 4863 1831 4863 
L 2375 4863 
z
" transform="scale(0.015625)"/>
     </defs>
     <use xlink:href="#DejaVuSans-50"/>
     <use xlink:href="#DejaVuSans-6f" x="56.677734"/>
     <use xlink:href="#DejaVuSans-70" x="117.859375"/>
     <use xlink:href="#DejaVuSans-75" x="181.335938"/>
     <use xlink:href="#DejaVuSans-6c" x="244.714844"/>
     <use xlink:href="#DejaVuSans-61" x="272.498047"/>
     <use xlink:href="#DejaVuSans-74" x="333.777344"/>
     <use xlink:href="#DejaVuSans-69" x="372.986328"/>
     <use xlink:href="#DejaVuSans-6f" x="400.769531"/>
     <use xlink:href="#DejaVuSans-6e" x="461.951172"/>
     <use xlink:href="#DejaVuSans-27" x="525.330078"/>
     <use xlink:href="#DejaVuSans-73" x="552.820312"/>
     <use xlink:href="#DejaVuSans-20" x="604.919922"/>
     <use xlink:href="#DejaVuSans-61" x="636.707031"/>
     <use xlink:href="#DejaVuSans-76" x="697.986328"/>
     <use xlink:href="#DejaVuSans-65" x="757.166016"/>
     <use xlink:href="#DejaVuSans-72" x="818.689453"/>
     <use xlink:href="#DejaVuSans-61" x="859.802734"/>
     <use xlink:href="#DejaVuSans-67" x="921.082031"/>
     <use xlink:href="#DejaVuSans-65" x="984.558594"/>
     <use xlink:href="#DejaVuSans-20" x="1046.082031"/>
     <use xlink:href="#DejaVuSans-61" x="1077.869141"/>
     <use xlink:href="#DejaVuSans-6e" x="1139.148438"/>
     <use xlink:href="#DejaVuSans-64" x="1202.527344"/>
     <use xlink:href="#DejaVuSans-20" x="1266.003906"/>
     <use xlink:href="#DejaVuSans-62" x="1297.791016"/>
     <use xlink:href="#DejaVuSans-65" x="1361.267578"/>
     <use xlink:href="#DejaVuSans-73" x="1422.791016"/>
     <use xlink:href="#DejaVuSans-74" x="1474.890625"/>
     <use xlink:href="#DejaVuSans-20" x="1514.099609"/>
     <use xlink:href="#DejaVuSans-66" x="1545.886719"/>
     <use xlink:href="#DejaVuSans-69" x="1581.091797"/>
     <use xlink:href="#DejaVuSans-74" x="1608.875"/>
     <use xlink:href="#DejaVuSans-6e" x="1648.083984"/>
     <use xlink:href="#DejaVuSans-65" x="1711.462891"/>
     <use xlink:href="#DejaVuSans-73" x="1772.986328"/>
     <use xlink:href="#DejaVuSans-73" x="1825.085938"/>
    </g>
   </g>
   <g id="legend_1">
    <g id="patch_7">
     <path d="M 334.779375 302.584 
L 407.72 302.584 
Q 409.72 302.584 409.72 300.584 
L 409.72 257.549625 
Q 409.72 255.549625 407.72 255.549625 
L 334.779375 255.549625 
Q 332.779375 255.549625 332.779375 257.549625 
L 332.779375 300.584 
Q 332.779375 302.584 334.779375 302.584 
z
" style="fill: #ffffff; opacity: 0.8; stroke: #cccccc; stroke-linejoin: miter"/>
    </g>
    <g id="line2d_40">
     <path d="M 336.779375 263.648062 
L 346.779375 263.648062 
L 356.779375 263.648062 
" style="fill: none; stroke: #0000ff; stroke-width: 1.5; stroke-linecap: square"/>
    </g>
    <g id="text_22">
     <!-- average -->
     <g transform="translate(364.779375 267.148062) scale(0.1 -0.1)">
      <use xlink:href="#DejaVuSans-61"/>
      <use xlink:href="#DejaVuSans-76" x="61.279297"/>
      <use xlink:href="#DejaVuSans-65" x="120.458984"/>
      <use xlink:href="#DejaVuSans-72" x="181.982422"/>
      <use xlink:href="#DejaVuSans-61" x="223.095703"/>
      <use xlink:href="#DejaVuSans-67" x="284.375"/>
      <use xlink:href="#DejaVuSans-65" x="347.851562"/>
     </g>
    </g>
    <g id="line2d_41">
     <path d="M 336.779375 278.326188 
L 346.779375 278.326188 
L 356.779375 278.326188 
" style="fill: none; stroke-dasharray: 9.6,2.4,1.5,2.4; stroke-dashoffset: 0; stroke: #008000; stroke-width: 1.5"/>
    </g>
    <g id="text_23">
     <!-- +1 sd -->
     <g transform="translate(364.779375 281.826188) scale(0.1 -0.1)">
      <defs>
       <path id="DejaVuSans-2b" d="M 2944 4013 
L 2944 2272 
L 4684 2272 
L 4684 1741 
L 2944 1741 
L 2944 0 
L 2419 0 
L 2419 1741 
L 678 1741 
L 678 2272 
L 2419 2272 
L 2419 4013 
L 2944 4013 
z
" transform="scale(0.015625)"/>
      </defs>
      <use xlink:href="#DejaVuSans-2b"/>
      <use xlink:href="#DejaVuSans-31" x="83.789062"/>
      <use xlink:href="#DejaVuSans-20" x="147.412109"/>
      <use xlink:href="#DejaVuSans-73" x="179.199219"/>
      <use xlink:href="#DejaVuSans-64" x="231.298828"/>
     </g>
    </g>
    <g id="line2d_42">
     <path d="M 336.779375 293.004312 
L 346.779375 293.004312 
L 356.779375 293.004312 
" style="fill: none; stroke: #ff0000; stroke-width: 1.5; stroke-linecap: square"/>
    </g>
    <g id="text_24">
     <!-- best -->
     <g transform="translate(364.779375 296.504312) scale(0.1 -0.1)">
      <use xlink:href="#DejaVuSans-62"/>
      <use xlink:href="#DejaVuSans-65" x="63.476562"/>
      <use xlink:href="#DejaVuSans-73" x="125"/>
      <use xlink:href="#DejaVuSans-74" x="177.099609"/>
     </g>
    </g>
   </g>
  </g>
 </g>
 <defs>
  <clipPath id="p15d3245e7e">
   <rect x="57.6" y="41.472" width="357.12" height="266.112"/>
  </clipPath>
 </defs>
</svg>
