<?xml version="1.0" encoding="utf-8" standalone="no"?>
<!DOCTYPE svg PUBLIC "-//W3C//DTD SVG 1.1//EN"
  "http://www.w3.org/Graphics/SVG/1.1/DTD/svg11.dtd">
<svg xmlns:xlink="http://www.w3.org/1999/xlink" width="460.8pt" height="345.6pt" viewBox="0 0 460.8 345.6" xmlns="http://www.w3.org/2000/svg" version="1.1">
 <metadata>
  <rdf:RDF xmlns:dc="http://purl.org/dc/elements/1.1/" xmlns:cc="http://creativecommons.org/ns#" xmlns:rdf="http://www.w3.org/1999/02/22-rdf-syntax-ns#">
   <cc:Work>
    <dc:type rdf:resource="http://purl.org/dc/dcmitype/StillImage"/>
    <dc:date>2023-01-30T18:52:59.536539</dc:date>
    <dc:format>image/svg+xml</dc:format>
    <dc:creator>
     <cc:Agent>
      <dc:title>Matplotlib v3.6.2, https://matplotlib.org/</dc:title>
     </cc:Agent>
    </dc:creator>
   </cc:Work>
  </rdf:RDF>
 </metadata>
 <defs>
  <style type="text/css">*{stroke-linejoin: round; stroke-linecap: butt}</style>
 </defs>
 <g id="figure_1">
  <g id="patch_1">
   <path d="M 0 345.6 
L 460.8 345.6 
L 460.8 0 
L 0 0 
z
" style="fill: #ffffff"/>
  </g>
  <g id="axes_1">
   <g id="patch_2">
    <path d="M 57.6 307.584 
L 414.72 307.584 
L 414.72 41.472 
L 57.6 41.472 
z
" style="fill: #ffffff"/>
   </g>
   <g id="matplotlib.axis_1">
    <g id="xtick_1">
     <g id="line2d_1">
      <path d="M 73.832727 307.584 
L 73.832727 41.472 
" clip-path="url(#p0f1e9c6979)" style="fill: none; stroke: #b0b0b0; stroke-width: 0.8; stroke-linecap: square"/>
     </g>
     <g id="line2d_2">
      <defs>
       <path id="m71ff9fff62" d="M 0 0 
L 0 3.5 
" style="stroke: #000000; stroke-width: 0.8"/>
      </defs>
      <g>
       <use xlink:href="#m71ff9fff62" x="73.832727" y="307.584" style="stroke: #000000; stroke-width: 0.8"/>
      </g>
     </g>
     <g id="text_1">
      <!-- 0 -->
      <g transform="translate(70.651477 322.182437) scale(0.1 -0.1)">
       <defs>
        <path id="DejaVuSans-30" d="M 2034 4250 
Q 1547 4250 1301 3770 
Q 1056 3291 1056 2328 
Q 1056 1369 1301 889 
Q 1547 409 2034 409 
Q 2525 409 2770 889 
Q 3016 1369 3016 2328 
Q 3016 3291 2770 3770 
Q 2525 4250 2034 4250 
z
M 2034 4750 
Q 2819 4750 3233 4129 
Q 3647 3509 3647 2328 
Q 3647 1150 3233 529 
Q 2819 -91 2034 -91 
Q 1250 -91 836 529 
Q 422 1150 422 2328 
Q 422 3509 836 4129 
Q 1250 4750 2034 4750 
z
" transform="scale(0.015625)"/>
       </defs>
       <use xlink:href="#DejaVuSans-30"/>
      </g>
     </g>
    </g>
    <g id="xtick_2">
     <g id="line2d_3">
      <path d="M 128.122785 307.584 
L 128.122785 41.472 
" clip-path="url(#p0f1e9c6979)" style="fill: none; stroke: #b0b0b0; stroke-width: 0.8; stroke-linecap: square"/>
     </g>
     <g id="line2d_4">
      <g>
       <use xlink:href="#m71ff9fff62" x="128.122785" y="307.584" style="stroke: #000000; stroke-width: 0.8"/>
      </g>
     </g>
     <g id="text_2">
      <!-- 50 -->
      <g transform="translate(121.760285 322.182437) scale(0.1 -0.1)">
       <defs>
        <path id="DejaVuSans-35" d="M 691 4666 
L 3169 4666 
L 3169 4134 
L 1269 4134 
L 1269 2991 
Q 1406 3038 1543 3061 
Q 1681 3084 1819 3084 
Q 2600 3084 3056 2656 
Q 3513 2228 3513 1497 
Q 3513 744 3044 326 
Q 2575 -91 1722 -91 
Q 1428 -91 1123 -41 
Q 819 9 494 109 
L 494 744 
Q 775 591 1075 516 
Q 1375 441 1709 441 
Q 2250 441 2565 725 
Q 2881 1009 2881 1497 
Q 2881 1984 2565 2268 
Q 2250 2553 1709 2553 
Q 1456 2553 1204 2497 
Q 953 2441 691 2322 
L 691 4666 
z
" transform="scale(0.015625)"/>
       </defs>
       <use xlink:href="#DejaVuSans-35"/>
       <use xlink:href="#DejaVuSans-30" x="63.623047"/>
      </g>
     </g>
    </g>
    <g id="xtick_3">
     <g id="line2d_5">
      <path d="M 182.412843 307.584 
L 182.412843 41.472 
" clip-path="url(#p0f1e9c6979)" style="fill: none; stroke: #b0b0b0; stroke-width: 0.8; stroke-linecap: square"/>
     </g>
     <g id="line2d_6">
      <g>
       <use xlink:href="#m71ff9fff62" x="182.412843" y="307.584" style="stroke: #000000; stroke-width: 0.8"/>
      </g>
     </g>
     <g id="text_3">
      <!-- 100 -->
      <g transform="translate(172.869093 322.182437) scale(0.1 -0.1)">
       <defs>
        <path id="DejaVuSans-31" d="M 794 531 
L 1825 531 
L 1825 4091 
L 703 3866 
L 703 4441 
L 1819 4666 
L 2450 4666 
L 2450 531 
L 3481 531 
L 3481 0 
L 794 0 
L 794 531 
z
" transform="scale(0.015625)"/>
       </defs>
       <use xlink:href="#DejaVuSans-31"/>
       <use xlink:href="#DejaVuSans-30" x="63.623047"/>
       <use xlink:href="#DejaVuSans-30" x="127.246094"/>
      </g>
     </g>
    </g>
    <g id="xtick_4">
     <g id="line2d_7">
      <path d="M 236.702901 307.584 
L 236.702901 41.472 
" clip-path="url(#p0f1e9c6979)" style="fill: none; stroke: #b0b0b0; stroke-width: 0.8; stroke-linecap: square"/>
     </g>
     <g id="line2d_8">
      <g>
       <use xlink:href="#m71ff9fff62" x="236.702901" y="307.584" style="stroke: #000000; stroke-width: 0.8"/>
      </g>
     </g>
     <g id="text_4">
      <!-- 150 -->
      <g transform="translate(227.159151 322.182437) scale(0.1 -0.1)">
       <use xlink:href="#DejaVuSans-31"/>
       <use xlink:href="#DejaVuSans-35" x="63.623047"/>
       <use xlink:href="#DejaVuSans-30" x="127.246094"/>
      </g>
     </g>
    </g>
    <g id="xtick_5">
     <g id="line2d_9">
      <path d="M 290.992958 307.584 
L 290.992958 41.472 
" clip-path="url(#p0f1e9c6979)" style="fill: none; stroke: #b0b0b0; stroke-width: 0.8; stroke-linecap: square"/>
     </g>
     <g id="line2d_10">
      <g>
       <use xlink:href="#m71ff9fff62" x="290.992958" y="307.584" style="stroke: #000000; stroke-width: 0.8"/>
      </g>
     </g>
     <g id="text_5">
      <!-- 200 -->
      <g transform="translate(281.449208 322.182437) scale(0.1 -0.1)">
       <defs>
        <path id="DejaVuSans-32" d="M 1228 531 
L 3431 531 
L 3431 0 
L 469 0 
L 469 531 
Q 828 903 1448 1529 
Q 2069 2156 2228 2338 
Q 2531 2678 2651 2914 
Q 2772 3150 2772 3378 
Q 2772 3750 2511 3984 
Q 2250 4219 1831 4219 
Q 1534 4219 1204 4116 
Q 875 4013 500 3803 
L 500 4441 
Q 881 4594 1212 4672 
Q 1544 4750 1819 4750 
Q 2544 4750 2975 4387 
Q 3406 4025 3406 3419 
Q 3406 3131 3298 2873 
Q 3191 2616 2906 2266 
Q 2828 2175 2409 1742 
Q 1991 1309 1228 531 
z
" transform="scale(0.015625)"/>
       </defs>
       <use xlink:href="#DejaVuSans-32"/>
       <use xlink:href="#DejaVuSans-30" x="63.623047"/>
       <use xlink:href="#DejaVuSans-30" x="127.246094"/>
      </g>
     </g>
    </g>
    <g id="xtick_6">
     <g id="line2d_11">
      <path d="M 345.283016 307.584 
L 345.283016 41.472 
" clip-path="url(#p0f1e9c6979)" style="fill: none; stroke: #b0b0b0; stroke-width: 0.8; stroke-linecap: square"/>
     </g>
     <g id="line2d_12">
      <g>
       <use xlink:href="#m71ff9fff62" x="345.283016" y="307.584" style="stroke: #000000; stroke-width: 0.8"/>
      </g>
     </g>
     <g id="text_6">
      <!-- 250 -->
      <g transform="translate(335.739266 322.182437) scale(0.1 -0.1)">
       <use xlink:href="#DejaVuSans-32"/>
       <use xlink:href="#DejaVuSans-35" x="63.623047"/>
       <use xlink:href="#DejaVuSans-30" x="127.246094"/>
      </g>
     </g>
    </g>
    <g id="xtick_7">
     <g id="line2d_13">
      <path d="M 399.573074 307.584 
L 399.573074 41.472 
" clip-path="url(#p0f1e9c6979)" style="fill: none; stroke: #b0b0b0; stroke-width: 0.8; stroke-linecap: square"/>
     </g>
     <g id="line2d_14">
      <g>
       <use xlink:href="#m71ff9fff62" x="399.573074" y="307.584" style="stroke: #000000; stroke-width: 0.8"/>
      </g>
     </g>
     <g id="text_7">
      <!-- 300 -->
      <g transform="translate(390.029324 322.182437) scale(0.1 -0.1)">
       <defs>
        <path id="DejaVuSans-33" d="M 2597 2516 
Q 3050 2419 3304 2112 
Q 3559 1806 3559 1356 
Q 3559 666 3084 287 
Q 2609 -91 1734 -91 
Q 1441 -91 1130 -33 
Q 819 25 488 141 
L 488 750 
Q 750 597 1062 519 
Q 1375 441 1716 441 
Q 2309 441 2620 675 
Q 2931 909 2931 1356 
Q 2931 1769 2642 2001 
Q 2353 2234 1838 2234 
L 1294 2234 
L 1294 2753 
L 1863 2753 
Q 2328 2753 2575 2939 
Q 2822 3125 2822 3475 
Q 2822 3834 2567 4026 
Q 2313 4219 1838 4219 
Q 1578 4219 1281 4162 
Q 984 4106 628 3988 
L 628 4550 
Q 988 4650 1302 4700 
Q 1616 4750 1894 4750 
Q 2613 4750 3031 4423 
Q 3450 4097 3450 3541 
Q 3450 3153 3228 2886 
Q 3006 2619 2597 2516 
z
" transform="scale(0.015625)"/>
       </defs>
       <use xlink:href="#DejaVuSans-33"/>
       <use xlink:href="#DejaVuSans-30" x="63.623047"/>
       <use xlink:href="#DejaVuSans-30" x="127.246094"/>
      </g>
     </g>
    </g>
    <g id="text_8">
     <!-- Generations -->
     <g transform="translate(205.662344 335.860562) scale(0.1 -0.1)">
      <defs>
       <path id="DejaVuSans-47" d="M 3809 666 
L 3809 1919 
L 2778 1919 
L 2778 2438 
L 4434 2438 
L 4434 434 
Q 4069 175 3628 42 
Q 3188 -91 2688 -91 
Q 1594 -91 976 548 
Q 359 1188 359 2328 
Q 359 3472 976 4111 
Q 1594 4750 2688 4750 
Q 3144 4750 3555 4637 
Q 3966 4525 4313 4306 
L 4313 3634 
Q 3963 3931 3569 4081 
Q 3175 4231 2741 4231 
Q 1884 4231 1454 3753 
Q 1025 3275 1025 2328 
Q 1025 1384 1454 906 
Q 1884 428 2741 428 
Q 3075 428 3337 486 
Q 3600 544 3809 666 
z
" transform="scale(0.015625)"/>
       <path id="DejaVuSans-65" d="M 3597 1894 
L 3597 1613 
L 953 1613 
Q 991 1019 1311 708 
Q 1631 397 2203 397 
Q 2534 397 2845 478 
Q 3156 559 3463 722 
L 3463 178 
Q 3153 47 2828 -22 
Q 2503 -91 2169 -91 
Q 1331 -91 842 396 
Q 353 884 353 1716 
Q 353 2575 817 3079 
Q 1281 3584 2069 3584 
Q 2775 3584 3186 3129 
Q 3597 2675 3597 1894 
z
M 3022 2063 
Q 3016 2534 2758 2815 
Q 2500 3097 2075 3097 
Q 1594 3097 1305 2825 
Q 1016 2553 972 2059 
L 3022 2063 
z
" transform="scale(0.015625)"/>
       <path id="DejaVuSans-6e" d="M 3513 2113 
L 3513 0 
L 2938 0 
L 2938 2094 
Q 2938 2591 2744 2837 
Q 2550 3084 2163 3084 
Q 1697 3084 1428 2787 
Q 1159 2491 1159 1978 
L 1159 0 
L 581 0 
L 581 3500 
L 1159 3500 
L 1159 2956 
Q 1366 3272 1645 3428 
Q 1925 3584 2291 3584 
Q 2894 3584 3203 3211 
Q 3513 2838 3513 2113 
z
" transform="scale(0.015625)"/>
       <path id="DejaVuSans-72" d="M 2631 2963 
Q 2534 3019 2420 3045 
Q 2306 3072 2169 3072 
Q 1681 3072 1420 2755 
Q 1159 2438 1159 1844 
L 1159 0 
L 581 0 
L 581 3500 
L 1159 3500 
L 1159 2956 
Q 1341 3275 1631 3429 
Q 1922 3584 2338 3584 
Q 2397 3584 2469 3576 
Q 2541 3569 2628 3553 
L 2631 2963 
z
" transform="scale(0.015625)"/>
       <path id="DejaVuSans-61" d="M 2194 1759 
Q 1497 1759 1228 1600 
Q 959 1441 959 1056 
Q 959 750 1161 570 
Q 1363 391 1709 391 
Q 2188 391 2477 730 
Q 2766 1069 2766 1631 
L 2766 1759 
L 2194 1759 
z
M 3341 1997 
L 3341 0 
L 2766 0 
L 2766 531 
Q 2569 213 2275 61 
Q 1981 -91 1556 -91 
Q 1019 -91 701 211 
Q 384 513 384 1019 
Q 384 1609 779 1909 
Q 1175 2209 1959 2209 
L 2766 2209 
L 2766 2266 
Q 2766 2663 2505 2880 
Q 2244 3097 1772 3097 
Q 1472 3097 1187 3025 
Q 903 2953 641 2809 
L 641 3341 
Q 956 3463 1253 3523 
Q 1550 3584 1831 3584 
Q 2591 3584 2966 3190 
Q 3341 2797 3341 1997 
z
" transform="scale(0.015625)"/>
       <path id="DejaVuSans-74" d="M 1172 4494 
L 1172 3500 
L 2356 3500 
L 2356 3053 
L 1172 3053 
L 1172 1153 
Q 1172 725 1289 603 
Q 1406 481 1766 481 
L 2356 481 
L 2356 0 
L 1766 0 
Q 1100 0 847 248 
Q 594 497 594 1153 
L 594 3053 
L 172 3053 
L 172 3500 
L 594 3500 
L 594 4494 
L 1172 4494 
z
" transform="scale(0.015625)"/>
       <path id="DejaVuSans-69" d="M 603 3500 
L 1178 3500 
L 1178 0 
L 603 0 
L 603 3500 
z
M 603 4863 
L 1178 4863 
L 1178 4134 
L 603 4134 
L 603 4863 
z
" transform="scale(0.015625)"/>
       <path id="DejaVuSans-6f" d="M 1959 3097 
Q 1497 3097 1228 2736 
Q 959 2375 959 1747 
Q 959 1119 1226 758 
Q 1494 397 1959 397 
Q 2419 397 2687 759 
Q 2956 1122 2956 1747 
Q 2956 2369 2687 2733 
Q 2419 3097 1959 3097 
z
M 1959 3584 
Q 2709 3584 3137 3096 
Q 3566 2609 3566 1747 
Q 3566 888 3137 398 
Q 2709 -91 1959 -91 
Q 1206 -91 779 398 
Q 353 888 353 1747 
Q 353 2609 779 3096 
Q 1206 3584 1959 3584 
z
" transform="scale(0.015625)"/>
       <path id="DejaVuSans-73" d="M 2834 3397 
L 2834 2853 
Q 2591 2978 2328 3040 
Q 2066 3103 1784 3103 
Q 1356 3103 1142 2972 
Q 928 2841 928 2578 
Q 928 2378 1081 2264 
Q 1234 2150 1697 2047 
L 1894 2003 
Q 2506 1872 2764 1633 
Q 3022 1394 3022 966 
Q 3022 478 2636 193 
Q 2250 -91 1575 -91 
Q 1294 -91 989 -36 
Q 684 19 347 128 
L 347 722 
Q 666 556 975 473 
Q 1284 391 1588 391 
Q 1994 391 2212 530 
Q 2431 669 2431 922 
Q 2431 1156 2273 1281 
Q 2116 1406 1581 1522 
L 1381 1569 
Q 847 1681 609 1914 
Q 372 2147 372 2553 
Q 372 3047 722 3315 
Q 1072 3584 1716 3584 
Q 2034 3584 2315 3537 
Q 2597 3491 2834 3397 
z
" transform="scale(0.015625)"/>
      </defs>
      <use xlink:href="#DejaVuSans-47"/>
      <use xlink:href="#DejaVuSans-65" x="77.490234"/>
      <use xlink:href="#DejaVuSans-6e" x="139.013672"/>
      <use xlink:href="#DejaVuSans-65" x="202.392578"/>
      <use xlink:href="#DejaVuSans-72" x="263.916016"/>
      <use xlink:href="#DejaVuSans-61" x="305.029297"/>
      <use xlink:href="#DejaVuSans-74" x="366.308594"/>
      <use xlink:href="#DejaVuSans-69" x="405.517578"/>
      <use xlink:href="#DejaVuSans-6f" x="433.300781"/>
      <use xlink:href="#DejaVuSans-6e" x="494.482422"/>
      <use xlink:href="#DejaVuSans-73" x="557.861328"/>
     </g>
    </g>
   </g>
   <g id="matplotlib.axis_2">
    <g id="ytick_1">
     <g id="line2d_15">
      <path d="M 57.6 279.446459 
L 414.72 279.446459 
" clip-path="url(#p0f1e9c6979)" style="fill: none; stroke: #b0b0b0; stroke-width: 0.8; stroke-linecap: square"/>
     </g>
     <g id="line2d_16">
      <defs>
       <path id="mb8df6458cf" d="M 0 0 
L -3.5 0 
" style="stroke: #000000; stroke-width: 0.8"/>
      </defs>
      <g>
       <use xlink:href="#mb8df6458cf" x="57.6" y="279.446459" style="stroke: #000000; stroke-width: 0.8"/>
      </g>
     </g>
     <g id="text_9">
      <!-- 0 -->
      <g transform="translate(44.2375 283.245677) scale(0.1 -0.1)">
       <use xlink:href="#DejaVuSans-30"/>
      </g>
     </g>
    </g>
    <g id="ytick_2">
     <g id="line2d_17">
      <path d="M 57.6 246.861568 
L 414.72 246.861568 
" clip-path="url(#p0f1e9c6979)" style="fill: none; stroke: #b0b0b0; stroke-width: 0.8; stroke-linecap: square"/>
     </g>
     <g id="line2d_18">
      <g>
       <use xlink:href="#mb8df6458cf" x="57.6" y="246.861568" style="stroke: #000000; stroke-width: 0.8"/>
      </g>
     </g>
     <g id="text_10">
      <!-- 25 -->
      <g transform="translate(37.875 250.660787) scale(0.1 -0.1)">
       <use xlink:href="#DejaVuSans-32"/>
       <use xlink:href="#DejaVuSans-35" x="63.623047"/>
      </g>
     </g>
    </g>
    <g id="ytick_3">
     <g id="line2d_19">
      <path d="M 57.6 214.276678 
L 414.72 214.276678 
" clip-path="url(#p0f1e9c6979)" style="fill: none; stroke: #b0b0b0; stroke-width: 0.8; stroke-linecap: square"/>
     </g>
     <g id="line2d_20">
      <g>
       <use xlink:href="#mb8df6458cf" x="57.6" y="214.276678" style="stroke: #000000; stroke-width: 0.8"/>
      </g>
     </g>
     <g id="text_11">
      <!-- 50 -->
      <g transform="translate(37.875 218.075897) scale(0.1 -0.1)">
       <use xlink:href="#DejaVuSans-35"/>
       <use xlink:href="#DejaVuSans-30" x="63.623047"/>
      </g>
     </g>
    </g>
    <g id="ytick_4">
     <g id="line2d_21">
      <path d="M 57.6 181.691788 
L 414.72 181.691788 
" clip-path="url(#p0f1e9c6979)" style="fill: none; stroke: #b0b0b0; stroke-width: 0.8; stroke-linecap: square"/>
     </g>
     <g id="line2d_22">
      <g>
       <use xlink:href="#mb8df6458cf" x="57.6" y="181.691788" style="stroke: #000000; stroke-width: 0.8"/>
      </g>
     </g>
     <g id="text_12">
      <!-- 75 -->
      <g transform="translate(37.875 185.491007) scale(0.1 -0.1)">
       <defs>
        <path id="DejaVuSans-37" d="M 525 4666 
L 3525 4666 
L 3525 4397 
L 1831 0 
L 1172 0 
L 2766 4134 
L 525 4134 
L 525 4666 
z
" transform="scale(0.015625)"/>
       </defs>
       <use xlink:href="#DejaVuSans-37"/>
       <use xlink:href="#DejaVuSans-35" x="63.623047"/>
      </g>
     </g>
    </g>
    <g id="ytick_5">
     <g id="line2d_23">
      <path d="M 57.6 149.106898 
L 414.72 149.106898 
" clip-path="url(#p0f1e9c6979)" style="fill: none; stroke: #b0b0b0; stroke-width: 0.8; stroke-linecap: square"/>
     </g>
     <g id="line2d_24">
      <g>
       <use xlink:href="#mb8df6458cf" x="57.6" y="149.106898" style="stroke: #000000; stroke-width: 0.8"/>
      </g>
     </g>
     <g id="text_13">
      <!-- 100 -->
      <g transform="translate(31.5125 152.906117) scale(0.1 -0.1)">
       <use xlink:href="#DejaVuSans-31"/>
       <use xlink:href="#DejaVuSans-30" x="63.623047"/>
       <use xlink:href="#DejaVuSans-30" x="127.246094"/>
      </g>
     </g>
    </g>
    <g id="ytick_6">
     <g id="line2d_25">
      <path d="M 57.6 116.522008 
L 414.72 116.522008 
" clip-path="url(#p0f1e9c6979)" style="fill: none; stroke: #b0b0b0; stroke-width: 0.8; stroke-linecap: square"/>
     </g>
     <g id="line2d_26">
      <g>
       <use xlink:href="#mb8df6458cf" x="57.6" y="116.522008" style="stroke: #000000; stroke-width: 0.8"/>
      </g>
     </g>
     <g id="text_14">
      <!-- 125 -->
      <g transform="translate(31.5125 120.321227) scale(0.1 -0.1)">
       <use xlink:href="#DejaVuSans-31"/>
       <use xlink:href="#DejaVuSans-32" x="63.623047"/>
       <use xlink:href="#DejaVuSans-35" x="127.246094"/>
      </g>
     </g>
    </g>
    <g id="ytick_7">
     <g id="line2d_27">
      <path d="M 57.6 83.937118 
L 414.72 83.937118 
" clip-path="url(#p0f1e9c6979)" style="fill: none; stroke: #b0b0b0; stroke-width: 0.8; stroke-linecap: square"/>
     </g>
     <g id="line2d_28">
      <g>
       <use xlink:href="#mb8df6458cf" x="57.6" y="83.937118" style="stroke: #000000; stroke-width: 0.8"/>
      </g>
     </g>
     <g id="text_15">
      <!-- 150 -->
      <g transform="translate(31.5125 87.736336) scale(0.1 -0.1)">
       <use xlink:href="#DejaVuSans-31"/>
       <use xlink:href="#DejaVuSans-35" x="63.623047"/>
       <use xlink:href="#DejaVuSans-30" x="127.246094"/>
      </g>
     </g>
    </g>
    <g id="ytick_8">
     <g id="line2d_29">
      <path d="M 57.6 51.352227 
L 414.72 51.352227 
" clip-path="url(#p0f1e9c6979)" style="fill: none; stroke: #b0b0b0; stroke-width: 0.8; stroke-linecap: square"/>
     </g>
     <g id="line2d_30">
      <g>
       <use xlink:href="#mb8df6458cf" x="57.6" y="51.352227" style="stroke: #000000; stroke-width: 0.8"/>
      </g>
     </g>
     <g id="text_16">
      <!-- 175 -->
      <g transform="translate(31.5125 55.151446) scale(0.1 -0.1)">
       <use xlink:href="#DejaVuSans-31"/>
       <use xlink:href="#DejaVuSans-37" x="63.623047"/>
       <use xlink:href="#DejaVuSans-35" x="127.246094"/>
      </g>
     </g>
    </g>
    <g id="text_17">
     <!-- Fitness -->
     <g transform="translate(25.432812 191.845187) rotate(-90) scale(0.1 -0.1)">
      <defs>
       <path id="DejaVuSans-46" d="M 628 4666 
L 3309 4666 
L 3309 4134 
L 1259 4134 
L 1259 2759 
L 3109 2759 
L 3109 2228 
L 1259 2228 
L 1259 0 
L 628 0 
L 628 4666 
z
" transform="scale(0.015625)"/>
      </defs>
      <use xlink:href="#DejaVuSans-46"/>
      <use xlink:href="#DejaVuSans-69" x="50.269531"/>
      <use xlink:href="#DejaVuSans-74" x="78.052734"/>
      <use xlink:href="#DejaVuSans-6e" x="117.261719"/>
      <use xlink:href="#DejaVuSans-65" x="180.640625"/>
      <use xlink:href="#DejaVuSans-73" x="242.164062"/>
      <use xlink:href="#DejaVuSans-73" x="294.263672"/>
     </g>
    </g>
   </g>
   <g id="line2d_31">
    <path d="M 73.832727 295.488 
L 74.918528 295.03116 
L 76.00433 294.879314 
L 77.090131 294.116757 
L 78.175932 294.066647 
L 79.261733 293.545715 
L 80.347534 290.402079 
L 81.433335 290.194206 
L 82.519137 288.488601 
L 83.604938 290.574034 
L 84.690739 289.589715 
L 85.77654 288.392966 
L 86.862341 286.701369 
L 87.948142 283.598234 
L 89.033943 272.580403 
L 90.119745 280.333026 
L 91.205546 276.052468 
L 92.291347 274.752931 
L 94.462949 266.074271 
L 95.54875 264.827573 
L 96.634552 266.343461 
L 97.720353 260.736279 
L 99.891955 247.331443 
L 100.977756 249.384942 
L 102.063557 250.030123 
L 103.149358 249.313501 
L 104.23516 238.661481 
L 105.320961 255.743558 
L 106.406762 255.807602 
L 107.492563 247.738457 
L 108.578364 248.818598 
L 109.664165 252.930746 
L 110.749967 246.670621 
L 111.835768 247.774591 
L 112.921569 249.337375 
L 114.00737 256.098081 
L 115.093171 240.82917 
L 116.178972 249.54917 
L 117.264773 231.905426 
L 118.350575 247.909447 
L 119.436376 231.918789 
L 120.522177 240.196829 
L 121.607978 232.855228 
L 122.693779 232.182882 
L 123.77958 233.201982 
L 124.865382 255.364612 
L 125.951183 247.609717 
L 127.036984 235.890236 
L 128.122785 236.808478 
L 129.208586 218.781951 
L 130.294387 225.723331 
L 131.380189 226.156478 
L 132.46599 207.555067 
L 133.551791 217.879083 
L 134.637592 219.225671 
L 135.723393 216.871969 
L 136.809194 218.439238 
L 137.894995 228.026857 
L 138.980797 227.603576 
L 140.066598 224.887213 
L 141.152399 226.73714 
L 142.2382 228.064281 
L 143.324001 231.626535 
L 144.409802 222.374188 
L 145.495604 220.741391 
L 146.581405 224.896719 
L 147.667206 210.949761 
L 148.753007 217.178347 
L 149.838808 225.803986 
L 150.924609 229.247661 
L 152.01041 218.154932 
L 153.096212 213.312297 
L 154.182013 199.120426 
L 155.267814 216.673478 
L 156.353615 219.076241 
L 157.439416 206.815403 
L 158.525217 200.768938 
L 159.611019 222.932528 
L 160.69682 229.67847 
L 161.782621 217.273836 
L 162.868422 206.56277 
L 163.954223 220.196049 
L 165.040024 228.394164 
L 166.125825 206.454988 
L 167.211627 210.344547 
L 168.297428 218.434909 
L 169.383229 221.810042 
L 170.46903 204.527279 
L 171.554831 206.581378 
L 172.640632 221.999949 
L 173.726434 206.163041 
L 174.812235 218.610798 
L 175.898036 210.307187 
L 176.983837 214.322491 
L 178.069638 191.896609 
L 179.155439 202.169436 
L 180.24124 205.491792 
L 181.327042 201.766036 
L 182.412843 203.074059 
L 183.498644 194.76833 
L 184.584445 208.065104 
L 185.670246 216.087095 
L 186.756047 201.869901 
L 187.841849 210.896795 
L 188.92765 197.060242 
L 190.013451 226.697006 
L 191.099252 216.662403 
L 192.185053 213.490807 
L 193.270854 203.132646 
L 194.356656 202.333664 
L 195.442457 206.815377 
L 196.528258 213.159208 
L 197.614059 208.405591 
L 198.69986 211.997053 
L 199.785661 202.295866 
L 200.871462 203.070767 
L 201.957264 198.943251 
L 203.043065 206.085934 
L 204.128866 201.589636 
L 205.214667 192.218353 
L 206.300468 202.318991 
L 207.386269 219.07686 
L 208.472071 212.139761 
L 209.557872 206.727411 
L 210.643673 206.52734 
L 211.729474 208.787428 
L 212.815275 204.76828 
L 213.901076 208.978178 
L 214.986877 204.28419 
L 216.072679 193.999101 
L 217.15848 195.057288 
L 218.244281 192.742056 
L 219.330082 199.09603 
L 220.415883 185.329326 
L 221.501684 189.861472 
L 222.587486 177.532944 
L 223.673287 196.059373 
L 224.759088 202.352544 
L 225.844889 200.020469 
L 226.93069 190.092643 
L 228.016491 197.380786 
L 229.102292 206.329955 
L 230.188094 201.902808 
L 231.273895 190.264747 
L 232.359696 193.881068 
L 233.445497 179.910911 
L 234.531298 185.446718 
L 235.617099 186.802505 
L 236.702901 184.757931 
L 237.788702 197.741444 
L 238.874503 192.241067 
L 239.960304 192.076969 
L 241.046105 200.926089 
L 242.131906 197.066795 
L 243.217708 192.157249 
L 244.303509 205.911907 
L 245.38931 198.072864 
L 246.475111 186.289161 
L 247.560912 201.298213 
L 248.646713 192.604106 
L 249.732514 198.624626 
L 250.818316 211.958957 
L 251.904117 202.823254 
L 252.989918 205.879651 
L 254.075719 199.313302 
L 255.16152 196.46951 
L 256.247321 205.218079 
L 257.333123 202.709042 
L 258.418924 192.333444 
L 259.504725 217.135591 
L 260.590526 208.730006 
L 261.676327 209.523234 
L 262.762128 216.093044 
L 263.847929 204.864582 
L 264.933731 197.255344 
L 266.019532 207.486761 
L 267.105333 196.456364 
L 268.191134 207.970505 
L 269.276935 211.439798 
L 270.362736 207.873096 
L 271.448538 229.377355 
L 272.534339 218.836007 
L 273.62014 212.028643 
L 274.705941 208.269328 
L 275.791742 213.173854 
L 276.877543 215.565592 
L 277.963344 207.91943 
L 279.049146 227.633952 
L 280.134947 224.063876 
L 281.220748 213.463973 
L 282.306549 212.536901 
L 283.39235 224.283653 
L 284.478151 230.260696 
L 285.563953 228.853404 
L 286.649754 224.912386 
L 287.735555 222.739166 
L 288.821356 215.096314 
L 289.907157 221.416529 
L 290.992958 235.239624 
L 292.07876 232.256775 
L 293.164561 228.652511 
L 294.250362 225.738413 
L 295.336163 214.950911 
L 296.421964 217.584045 
L 297.507765 224.354409 
L 298.593566 224.39029 
L 299.679368 233.987308 
L 301.85097 225.002747 
L 302.936771 224.569318 
L 304.022572 232.808002 
L 306.194175 238.063056 
L 307.279976 229.219516 
L 308.365777 230.480885 
L 309.451578 232.791596 
L 310.537379 214.6888 
L 311.62318 234.864898 
L 312.708981 228.641184 
L 313.794783 207.860529 
L 314.880584 214.546409 
L 315.966385 233.264838 
L 318.137987 218.154585 
L 319.223788 236.94309 
L 320.30959 223.352331 
L 321.395391 234.649612 
L 322.481192 231.323494 
L 323.566993 231.922603 
L 324.652794 220.77843 
L 325.738595 237.491129 
L 326.824396 228.651442 
L 327.910198 230.96136 
L 328.995999 231.879346 
L 330.0818 235.127905 
L 331.167601 223.429619 
L 332.253402 222.879741 
L 333.339203 225.770839 
L 334.425005 231.357367 
L 335.510806 228.431938 
L 336.596607 223.116128 
L 337.682408 226.677817 
L 338.768209 238.483631 
L 339.85401 232.226649 
L 340.939811 235.6654 
L 342.025613 227.182139 
L 343.111414 227.444077 
L 344.197215 242.623096 
L 345.283016 240.528635 
L 346.368817 238.839109 
L 347.454618 237.38086 
L 348.54042 236.363803 
L 349.626221 243.343009 
L 350.712022 240.777849 
L 351.797823 242.599226 
L 352.883624 237.035281 
L 353.969425 235.101652 
L 355.055227 237.111073 
L 356.141028 229.992949 
L 357.226829 223.799384 
L 358.31263 236.587888 
L 359.398431 241.960435 
L 360.484232 248.43425 
L 361.570033 231.256423 
L 362.655835 236.082248 
L 363.741636 244.129356 
L 364.827437 243.676242 
L 365.913238 245.874185 
L 366.999039 239.27653 
L 368.08484 241.952112 
L 369.170642 240.721468 
L 370.256443 230.281393 
L 371.342244 239.435231 
L 372.428045 234.310351 
L 373.513846 236.182414 
L 374.599647 233.922017 
L 375.685448 223.287487 
L 376.77125 229.770641 
L 377.857051 242.062758 
L 378.942852 236.185084 
L 380.028653 244.023395 
L 381.114454 246.445206 
L 382.200255 243.765123 
L 383.286057 238.409825 
L 384.371858 245.667361 
L 385.457659 243.75382 
L 387.629261 249.009362 
L 388.715062 252.457181 
L 389.800863 244.568828 
L 390.886665 247.699708 
L 391.972466 253.216458 
L 393.058267 243.266369 
L 394.144068 245.125053 
L 395.229869 253.258011 
L 396.31567 248.477309 
L 397.401472 249.370023 
L 398.487273 256.573051 
L 398.487273 256.573051 
" clip-path="url(#p0f1e9c6979)" style="fill: none; stroke: #0000ff; stroke-width: 1.5; stroke-linecap: square"/>
   </g>
   <g id="line2d_32">
    <path d="M 73.832727 294.943501 
L 74.918528 293.050813 
L 76.00433 292.371087 
L 77.090131 290.094684 
L 78.175932 289.772209 
L 79.261733 284.818111 
L 80.347534 264.657802 
L 81.433335 263.157739 
L 82.519137 261.179601 
L 83.604938 274.427527 
L 84.690739 269.933949 
L 85.77654 260.129476 
L 86.862341 256.079556 
L 87.948142 252.49965 
L 89.033943 223.08874 
L 90.119745 242.771844 
L 91.205546 232.936383 
L 92.291347 231.609788 
L 93.377148 221.348574 
L 94.462949 209.82896 
L 95.54875 204.711908 
L 96.634552 210.081289 
L 97.720353 202.101596 
L 98.806154 188.131435 
L 99.891955 180.431805 
L 100.977756 181.756572 
L 102.063557 183.592222 
L 103.149358 184.068985 
L 104.23516 164.883229 
L 105.320961 191.822818 
L 106.406762 190.576177 
L 107.492563 178.664322 
L 108.578364 179.595522 
L 109.664165 186.401661 
L 110.749967 172.765487 
L 111.835768 180.214443 
L 112.921569 179.431952 
L 114.00737 190.511029 
L 115.093171 167.801512 
L 116.178972 181.61741 
L 117.264773 157.707811 
L 118.350575 179.725766 
L 119.436376 158.767155 
L 120.522177 165.366547 
L 121.607978 155.431341 
L 122.693779 159.042666 
L 123.77958 158.616544 
L 124.865382 189.738495 
L 125.951183 177.549894 
L 127.036984 158.943175 
L 128.122785 163.925281 
L 129.208586 140.967486 
L 130.294387 151.235756 
L 131.380189 149.82334 
L 132.46599 128.90844 
L 133.551791 138.917945 
L 134.637592 142.2031 
L 135.723393 140.637391 
L 136.809194 138.114345 
L 137.894995 153.941398 
L 138.980797 152.565003 
L 140.066598 148.784997 
L 141.152399 151.129811 
L 142.2382 151.120661 
L 143.324001 156.243165 
L 144.409802 145.223296 
L 145.495604 151.013988 
L 146.581405 148.6827 
L 147.667206 132.023377 
L 148.753007 135.491604 
L 149.838808 148.395795 
L 150.924609 155.218748 
L 152.01041 140.267144 
L 153.096212 135.856656 
L 154.182013 121.886024 
L 155.267814 140.906192 
L 156.353615 140.587285 
L 157.439416 130.804831 
L 158.525217 125.908471 
L 159.611019 146.235616 
L 160.69682 155.813635 
L 161.782621 138.663314 
L 162.868422 130.469938 
L 163.954223 145.976001 
L 165.040024 153.474723 
L 166.125825 126.299718 
L 167.211627 127.777606 
L 168.297428 140.815548 
L 169.383229 144.469949 
L 170.46903 123.489076 
L 171.554831 128.351815 
L 172.640632 148.897859 
L 173.726434 130.496428 
L 174.812235 140.242037 
L 175.898036 134.361057 
L 176.983837 134.717109 
L 178.069638 119.549885 
L 179.155439 127.557249 
L 180.24124 125.254258 
L 181.327042 124.458967 
L 182.412843 123.247095 
L 183.498644 119.873029 
L 184.584445 130.150584 
L 185.670246 138.724496 
L 186.756047 124.25804 
L 187.841849 133.565956 
L 188.92765 120.574768 
L 190.013451 150.344657 
L 191.099252 137.031895 
L 192.185053 133.528534 
L 193.270854 124.419096 
L 194.356656 126.696046 
L 195.442457 128.107849 
L 196.528258 131.712147 
L 197.614059 130.264394 
L 198.69986 131.602376 
L 199.785661 122.364161 
L 200.871462 127.367493 
L 201.957264 117.474949 
L 203.043065 126.991029 
L 204.128866 123.746877 
L 205.214667 117.247379 
L 206.300468 120.054115 
L 207.386269 141.954767 
L 208.472071 131.964937 
L 209.557872 127.672616 
L 210.643673 127.709569 
L 211.729474 128.454405 
L 212.815275 124.969896 
L 213.901076 127.72474 
L 214.986877 127.549455 
L 216.072679 112.341682 
L 217.15848 114.290499 
L 218.244281 110.819664 
L 219.330082 119.542981 
L 220.415883 106.162456 
L 221.501684 110.319665 
L 222.587486 102.544084 
L 223.673287 118.186412 
L 224.759088 123.164368 
L 225.844889 121.195781 
L 226.93069 112.718362 
L 228.016491 118.095338 
L 229.102292 126.884201 
L 231.273895 111.717657 
L 232.359696 115.573707 
L 233.445497 103.654641 
L 235.617099 112.354933 
L 236.702901 105.23061 
L 237.788702 115.272937 
L 238.874503 113.091911 
L 239.960304 115.949124 
L 241.046105 121.30095 
L 242.131906 120.597029 
L 243.217708 111.532665 
L 244.303509 124.701657 
L 245.38931 120.637098 
L 246.475111 108.567624 
L 247.560912 121.718155 
L 248.646713 111.126033 
L 249.732514 118.053405 
L 250.818316 134.101684 
L 251.904117 122.576938 
L 252.989918 123.800551 
L 254.075719 120.020273 
L 255.16152 114.261911 
L 256.247321 119.900088 
L 257.333123 118.170677 
L 258.418924 112.474044 
L 259.504725 139.727102 
L 260.590526 124.780372 
L 261.676327 128.965142 
L 262.762128 136.715026 
L 263.847929 122.10102 
L 264.933731 114.8414 
L 266.019532 124.689132 
L 267.105333 114.051564 
L 268.191134 122.518741 
L 269.276935 128.734105 
L 270.362736 127.02062 
L 271.448538 147.384234 
L 272.534339 136.126875 
L 274.705941 126.329885 
L 275.791742 132.18214 
L 276.877543 130.567245 
L 277.963344 124.952145 
L 279.049146 144.656142 
L 280.134947 142.617902 
L 281.220748 131.190091 
L 282.306549 131.35588 
L 284.478151 152.111872 
L 285.563953 148.497916 
L 286.649754 143.159929 
L 287.735555 140.528532 
L 288.821356 134.412197 
L 289.907157 139.380888 
L 290.992958 157.271012 
L 292.07876 150.850125 
L 293.164561 150.802412 
L 294.250362 143.171792 
L 295.336163 130.092664 
L 296.421964 133.743777 
L 297.507765 138.393758 
L 298.593566 140.097442 
L 299.679368 155.753561 
L 300.765169 149.516358 
L 301.85097 142.38148 
L 302.936771 139.637146 
L 304.022572 148.61378 
L 305.108373 154.106652 
L 306.194175 160.866214 
L 307.279976 146.145272 
L 308.365777 147.234883 
L 309.451578 152.876921 
L 310.537379 133.578303 
L 311.62318 155.421527 
L 312.708981 148.945602 
L 313.794783 121.18446 
L 314.880584 132.419891 
L 315.966385 152.076139 
L 317.052186 144.474904 
L 318.137987 135.355771 
L 319.223788 159.496908 
L 320.30959 139.793984 
L 321.395391 153.702357 
L 322.481192 151.212523 
L 323.566993 149.322464 
L 324.652794 135.488159 
L 325.738595 157.816574 
L 326.824396 149.954594 
L 327.910198 148.61642 
L 328.995999 150.858209 
L 330.0818 158.036152 
L 331.167601 139.852198 
L 332.253402 141.690392 
L 333.339203 141.458912 
L 334.425005 149.428105 
L 335.510806 147.465744 
L 336.596607 143.563974 
L 337.682408 143.974207 
L 338.768209 160.535436 
L 339.85401 149.722539 
L 340.939811 156.282702 
L 342.025613 142.694283 
L 343.111414 143.005215 
L 344.197215 163.983492 
L 345.283016 163.399724 
L 346.368817 160.128571 
L 347.454618 158.905132 
L 348.54042 157.268506 
L 349.626221 164.921979 
L 350.712022 162.196747 
L 351.797823 165.205491 
L 352.883624 156.658534 
L 353.969425 151.969874 
L 355.055227 157.373463 
L 356.141028 149.43701 
L 357.226829 140.390901 
L 358.31263 156.521094 
L 359.398431 163.724794 
L 360.484232 176.822414 
L 361.570033 149.414784 
L 362.655835 157.255404 
L 363.741636 166.673854 
L 364.827437 166.249119 
L 365.913238 168.521756 
L 366.999039 162.03302 
L 368.08484 163.083185 
L 369.170642 163.758672 
L 370.256443 148.339413 
L 371.342244 160.776819 
L 372.428045 152.485444 
L 373.513846 157.597497 
L 374.599647 152.658688 
L 375.685448 139.115699 
L 376.77125 145.030756 
L 377.857051 162.75951 
L 378.942852 155.943796 
L 380.028653 167.666282 
L 381.114454 170.331443 
L 382.200255 165.499328 
L 383.286057 158.741572 
L 384.371858 169.709998 
L 385.457659 164.527945 
L 386.54346 171.751517 
L 387.629261 175.928173 
L 388.715062 182.595098 
L 389.800863 166.419887 
L 390.886665 174.032397 
L 391.972466 180.562415 
L 393.058267 165.240076 
L 394.144068 167.801656 
L 395.229869 181.20828 
L 396.31567 174.406176 
L 397.401472 176.746105 
L 398.487273 187.459687 
L 398.487273 187.459687 
" clip-path="url(#p0f1e9c6979)" style="fill: none; stroke-dasharray: 9.6,2.4,1.5,2.4; stroke-dashoffset: 0; stroke: #008000; stroke-width: 1.5"/>
   </g>
   <g id="line2d_33">
    <path d="M 73.832727 292.284905 
L 76.00433 276.18797 
L 77.090131 266.412503 
L 78.175932 262.632655 
L 79.261733 213.69015 
L 80.347534 56.696149 
L 81.433335 54.545547 
L 82.519137 54.806226 
L 83.604938 169.765718 
L 84.690739 146.956295 
L 85.77654 55.718603 
L 86.862341 55.262414 
L 87.948142 132.553774 
L 89.033943 53.959019 
L 90.119745 96.971074 
L 91.205546 112.285972 
L 92.291347 87.000097 
L 93.377148 118.346762 
L 94.462949 111.503935 
L 95.54875 56.761319 
L 96.634552 104.921787 
L 97.720353 92.21368 
L 98.806154 53.828679 
L 99.891955 88.564172 
L 100.977756 89.476549 
L 102.063557 100.034053 
L 103.149358 101.467789 
L 104.23516 89.802398 
L 105.320961 55.653433 
L 106.406762 97.362092 
L 107.492563 56.370301 
L 108.578364 55.783773 
L 109.664165 93.908094 
L 110.749967 56.56581 
L 111.835768 54.936565 
L 112.921569 94.885641 
L 114.00737 89.1507 
L 115.093171 97.296923 
L 116.178972 95.01598 
L 117.264773 89.21587 
L 118.350575 91.431642 
L 119.436376 99.643035 
L 120.522177 92.800208 
L 121.607978 93.256396 
L 122.693779 96.645225 
L 123.77958 53.568 
L 124.865382 101.598128 
L 125.951183 87.325946 
L 127.036984 54.089358 
L 128.122785 93.842924 
L 129.208586 84.523646 
L 130.294387 84.197797 
L 131.380189 84.719155 
L 132.46599 94.299113 
L 133.551791 98.339639 
L 134.637592 96.775564 
L 135.723393 86.348399 
L 136.809194 91.366473 
L 138.980797 97.622771 
L 140.066598 92.604698 
L 141.152399 97.427262 
L 142.2382 88.759681 
L 143.324001 81.330326 
L 144.409802 95.537339 
L 145.495604 89.541719 
L 146.581405 77.745988 
L 147.667206 89.867568 
L 148.753007 82.373043 
L 149.838808 97.166583 
L 150.924609 91.431642 
L 152.01041 90.910284 
L 153.096212 86.804588 
L 154.182013 87.130437 
L 155.267814 94.950811 
L 156.353615 92.800208 
L 157.439416 81.069647 
L 158.525217 84.784325 
L 159.611019 84.132627 
L 160.69682 96.580055 
L 161.782621 91.822661 
L 162.868422 92.409189 
L 163.954223 95.276659 
L 165.040024 90.845114 
L 166.125825 86.934928 
L 167.211627 92.735038 
L 168.297428 91.236133 
L 169.383229 88.564172 
L 170.46903 86.609079 
L 171.554831 91.496812 
L 172.640632 94.364282 
L 173.726434 93.451906 
L 174.812235 95.602508 
L 175.898036 98.795828 
L 176.983837 85.370853 
L 178.069638 78.593196 
L 179.155439 93.842924 
L 180.24124 85.827041 
L 181.327042 94.624962 
L 182.412843 97.231753 
L 183.498644 93.321566 
L 184.584445 90.063077 
L 185.670246 102.640845 
L 187.841849 92.669868 
L 188.92765 94.103603 
L 190.013451 94.624962 
L 191.099252 80.548289 
L 192.185053 104.13975 
L 193.270854 96.123867 
L 194.356656 81.069647 
L 195.442457 96.645225 
L 196.528258 79.896591 
L 197.614059 94.559792 
L 198.69986 95.01598 
L 199.785661 91.496812 
L 200.871462 100.816091 
L 203.043065 89.672058 
L 204.128866 77.094291 
L 206.300468 89.802398 
L 207.386269 95.472169 
L 208.472071 90.845114 
L 209.557872 98.991337 
L 210.643673 88.629342 
L 211.729474 81.916854 
L 212.815275 91.040624 
L 213.901076 87.065267 
L 214.986877 94.429452 
L 216.072679 92.800208 
L 217.15848 83.546099 
L 218.244281 88.955191 
L 219.330082 84.132627 
L 220.415883 92.604698 
L 221.501684 87.977644 
L 222.587486 89.346209 
L 223.673287 94.103603 
L 224.759088 88.238323 
L 225.844889 95.276659 
L 226.93069 90.584435 
L 228.016491 94.299113 
L 229.102292 83.22025 
L 230.188094 96.905904 
L 231.273895 76.507763 
L 232.359696 94.820471 
L 233.445497 91.431642 
L 234.531298 90.584435 
L 235.617099 80.483119 
L 236.702901 88.759681 
L 237.788702 87.977644 
L 238.874503 82.438213 
L 239.960304 92.735038 
L 241.046105 95.798018 
L 243.217708 86.022551 
L 244.303509 85.957381 
L 245.38931 93.060887 
L 246.475111 85.045004 
L 247.560912 86.739418 
L 248.646713 81.069647 
L 249.732514 91.366473 
L 250.818316 107.593748 
L 251.904117 90.584435 
L 252.989918 75.856065 
L 254.075719 90.779945 
L 255.16152 81.982024 
L 256.247321 90.128247 
L 257.333123 82.633722 
L 258.418924 94.494622 
L 259.504725 95.732848 
L 260.590526 91.496812 
L 261.676327 90.519265 
L 262.762128 93.908094 
L 263.847929 88.694512 
L 264.933731 93.973264 
L 266.019532 87.586625 
L 267.105333 88.890021 
L 268.191134 92.669868 
L 269.276935 94.820471 
L 270.362736 101.207109 
L 271.448538 96.514885 
L 272.534339 83.676439 
L 273.62014 94.950811 
L 274.705941 90.128247 
L 275.791742 94.429452 
L 276.877543 83.22025 
L 277.963344 91.431642 
L 279.049146 86.478739 
L 280.134947 92.800208 
L 281.220748 86.022551 
L 282.306549 92.14851 
L 283.39235 94.755301 
L 284.478151 79.896591 
L 285.563953 100.034053 
L 286.649754 99.252016 
L 287.735555 93.908094 
L 288.821356 89.932737 
L 289.907157 95.21149 
L 290.992958 82.177534 
L 292.07876 93.191226 
L 293.164561 95.08115 
L 294.250362 86.739418 
L 295.336163 96.905904 
L 296.421964 92.01817 
L 297.507765 92.865378 
L 298.593566 79.701082 
L 299.679368 97.492432 
L 300.765169 91.953001 
L 301.85097 94.950811 
L 302.936771 92.539529 
L 304.022572 96.123867 
L 305.108373 97.362092 
L 306.194175 95.602508 
L 307.279976 85.957381 
L 308.365777 85.370853 
L 309.451578 92.995717 
L 310.537379 94.494622 
L 311.62318 88.433832 
L 312.708981 98.600318 
L 313.794783 90.258586 
L 314.880584 93.256396 
L 315.966385 81.591006 
L 317.052186 94.233943 
L 318.137987 89.476549 
L 319.223788 91.953001 
L 320.30959 87.065267 
L 321.395391 95.406999 
L 322.481192 92.539529 
L 323.566993 94.494622 
L 324.652794 92.01817 
L 325.738595 84.067457 
L 326.824396 102.380165 
L 327.910198 94.168773 
L 328.995999 96.058697 
L 330.0818 99.577865 
L 331.167601 90.584435 
L 332.253402 90.258586 
L 333.339203 96.840734 
L 334.425005 99.968884 
L 335.510806 91.170963 
L 336.596607 92.604698 
L 337.682408 89.737228 
L 338.768209 87.521456 
L 339.85401 92.800208 
L 340.939811 92.344019 
L 342.025613 88.042814 
L 343.111414 84.523646 
L 344.197215 88.238323 
L 345.283016 93.517075 
L 346.368817 93.973264 
L 347.454618 95.472169 
L 348.54042 89.606889 
L 349.626221 95.928357 
L 350.712022 88.564172 
L 351.797823 86.413569 
L 352.883624 94.103603 
L 353.969425 91.040624 
L 355.055227 92.865378 
L 356.141028 89.02036 
L 357.226829 88.042814 
L 358.31263 91.953001 
L 359.398431 90.519265 
L 360.484232 98.600318 
L 361.570033 89.08553 
L 362.655835 89.346209 
L 363.741636 93.451906 
L 364.827437 92.930547 
L 365.913238 80.939308 
L 366.999039 92.930547 
L 368.08484 91.366473 
L 369.170642 93.256396 
L 370.256443 80.808968 
L 371.342244 98.795828 
L 372.428045 89.476549 
L 373.513846 99.252016 
L 374.599647 86.21806 
L 375.685448 85.045004 
L 376.77125 86.869758 
L 377.857051 97.753111 
L 378.942852 89.606889 
L 380.028653 87.260776 
L 381.114454 91.366473 
L 382.200255 96.123867 
L 383.286057 89.411379 
L 384.371858 92.604698 
L 385.457659 89.1507 
L 386.54346 92.409189 
L 387.629261 100.881261 
L 388.715062 94.299113 
L 389.800863 95.798018 
L 390.886665 99.708204 
L 391.972466 92.735038 
L 393.058267 98.991337 
L 394.144068 96.840734 
L 395.229869 98.795828 
L 396.31567 101.728468 
L 397.401472 83.937118 
L 398.487273 99.577865 
L 398.487273 99.577865 
" clip-path="url(#p0f1e9c6979)" style="fill: none; stroke: #ff0000; stroke-width: 1.5; stroke-linecap: square"/>
   </g>
   <g id="patch_3">
    <path d="M 57.6 307.584 
L 57.6 41.472 
" style="fill: none; stroke: #000000; stroke-width: 0.8; stroke-linejoin: miter; stroke-linecap: square"/>
   </g>
   <g id="patch_4">
    <path d="M 414.72 307.584 
L 414.72 41.472 
" style="fill: none; stroke: #000000; stroke-width: 0.8; stroke-linejoin: miter; stroke-linecap: square"/>
   </g>
   <g id="patch_5">
    <path d="M 57.6 307.584 
L 414.72 307.584 
" style="fill: none; stroke: #000000; stroke-width: 0.8; stroke-linejoin: miter; stroke-linecap: square"/>
   </g>
   <g id="patch_6">
    <path d="M 57.6 41.472 
L 414.72 41.472 
" style="fill: none; stroke: #000000; stroke-width: 0.8; stroke-linejoin: miter; stroke-linecap: square"/>
   </g>
   <g id="text_18">
    <!-- Population's average and best fitness -->
    <g transform="translate(123.529687 35.472) scale(0.12 -0.12)">
     <defs>
      <path id="DejaVuSans-50" d="M 1259 4147 
L 1259 2394 
L 2053 2394 
Q 2494 2394 2734 2622 
Q 2975 2850 2975 3272 
Q 2975 3691 2734 3919 
Q 2494 4147 2053 4147 
L 1259 4147 
z
M 628 4666 
L 2053 4666 
Q 2838 4666 3239 4311 
Q 3641 3956 3641 3272 
Q 3641 2581 3239 2228 
Q 2838 1875 2053 1875 
L 1259 1875 
L 1259 0 
L 628 0 
L 628 4666 
z
" transform="scale(0.015625)"/>
      <path id="DejaVuSans-70" d="M 1159 525 
L 1159 -1331 
L 581 -1331 
L 581 3500 
L 1159 3500 
L 1159 2969 
Q 1341 3281 1617 3432 
Q 1894 3584 2278 3584 
Q 2916 3584 3314 3078 
Q 3713 2572 3713 1747 
Q 3713 922 3314 415 
Q 2916 -91 2278 -91 
Q 1894 -91 1617 61 
Q 1341 213 1159 525 
z
M 3116 1747 
Q 3116 2381 2855 2742 
Q 2594 3103 2138 3103 
Q 1681 3103 1420 2742 
Q 1159 2381 1159 1747 
Q 1159 1113 1420 752 
Q 1681 391 2138 391 
Q 2594 391 2855 752 
Q 3116 1113 3116 1747 
z
" transform="scale(0.015625)"/>
      <path id="DejaVuSans-75" d="M 544 1381 
L 544 3500 
L 1119 3500 
L 1119 1403 
Q 1119 906 1312 657 
Q 1506 409 1894 409 
Q 2359 409 2629 706 
Q 2900 1003 2900 1516 
L 2900 3500 
L 3475 3500 
L 3475 0 
L 2900 0 
L 2900 538 
Q 2691 219 2414 64 
Q 2138 -91 1772 -91 
Q 1169 -91 856 284 
Q 544 659 544 1381 
z
M 1991 3584 
L 1991 3584 
z
" transform="scale(0.015625)"/>
      <path id="DejaVuSans-6c" d="M 603 4863 
L 1178 4863 
L 1178 0 
L 603 0 
L 603 4863 
z
" transform="scale(0.015625)"/>
      <path id="DejaVuSans-27" d="M 1147 4666 
L 1147 2931 
L 616 2931 
L 616 4666 
L 1147 4666 
z
" transform="scale(0.015625)"/>
      <path id="DejaVuSans-20" transform="scale(0.015625)"/>
      <path id="DejaVuSans-76" d="M 191 3500 
L 800 3500 
L 1894 563 
L 2988 3500 
L 3597 3500 
L 2284 0 
L 1503 0 
L 191 3500 
z
" transform="scale(0.015625)"/>
      <path id="DejaVuSans-67" d="M 2906 1791 
Q 2906 2416 2648 2759 
Q 2391 3103 1925 3103 
Q 1463 3103 1205 2759 
Q 947 2416 947 1791 
Q 947 1169 1205 825 
Q 1463 481 1925 481 
Q 2391 481 2648 825 
Q 2906 1169 2906 1791 
z
M 3481 434 
Q 3481 -459 3084 -895 
Q 2688 -1331 1869 -1331 
Q 1566 -1331 1297 -1286 
Q 1028 -1241 775 -1147 
L 775 -588 
Q 1028 -725 1275 -790 
Q 1522 -856 1778 -856 
Q 2344 -856 2625 -561 
Q 2906 -266 2906 331 
L 2906 616 
Q 2728 306 2450 153 
Q 2172 0 1784 0 
Q 1141 0 747 490 
Q 353 981 353 1791 
Q 353 2603 747 3093 
Q 1141 3584 1784 3584 
Q 2172 3584 2450 3431 
Q 2728 3278 2906 2969 
L 2906 3500 
L 3481 3500 
L 3481 434 
z
" transform="scale(0.015625)"/>
      <path id="DejaVuSans-64" d="M 2906 2969 
L 2906 4863 
L 3481 4863 
L 3481 0 
L 2906 0 
L 2906 525 
Q 2725 213 2448 61 
Q 2172 -91 1784 -91 
Q 1150 -91 751 415 
Q 353 922 353 1747 
Q 353 2572 751 3078 
Q 1150 3584 1784 3584 
Q 2172 3584 2448 3432 
Q 2725 3281 2906 2969 
z
M 947 1747 
Q 947 1113 1208 752 
Q 1469 391 1925 391 
Q 2381 391 2643 752 
Q 2906 1113 2906 1747 
Q 2906 2381 2643 2742 
Q 2381 3103 1925 3103 
Q 1469 3103 1208 2742 
Q 947 2381 947 1747 
z
" transform="scale(0.015625)"/>
      <path id="DejaVuSans-62" d="M 3116 1747 
Q 3116 2381 2855 2742 
Q 2594 3103 2138 3103 
Q 1681 3103 1420 2742 
Q 1159 2381 1159 1747 
Q 1159 1113 1420 752 
Q 1681 391 2138 391 
Q 2594 391 2855 752 
Q 3116 1113 3116 1747 
z
M 1159 2969 
Q 1341 3281 1617 3432 
Q 1894 3584 2278 3584 
Q 2916 3584 3314 3078 
Q 3713 2572 3713 1747 
Q 3713 922 3314 415 
Q 2916 -91 2278 -91 
Q 1894 -91 1617 61 
Q 1341 213 1159 525 
L 1159 0 
L 581 0 
L 581 4863 
L 1159 4863 
L 1159 2969 
z
" transform="scale(0.015625)"/>
      <path id="DejaVuSans-66" d="M 2375 4863 
L 2375 4384 
L 1825 4384 
Q 1516 4384 1395 4259 
Q 1275 4134 1275 3809 
L 1275 3500 
L 2222 3500 
L 2222 3053 
L 1275 3053 
L 1275 0 
L 697 0 
L 697 3053 
L 147 3053 
L 147 3500 
L 697 3500 
L 697 3744 
Q 697 4328 969 4595 
Q 1241 4863 1831 4863 
L 2375 4863 
z
" transform="scale(0.015625)"/>
     </defs>
     <use xlink:href="#DejaVuSans-50"/>
     <use xlink:href="#DejaVuSans-6f" x="56.677734"/>
     <use xlink:href="#DejaVuSans-70" x="117.859375"/>
     <use xlink:href="#DejaVuSans-75" x="181.335938"/>
     <use xlink:href="#DejaVuSans-6c" x="244.714844"/>
     <use xlink:href="#DejaVuSans-61" x="272.498047"/>
     <use xlink:href="#DejaVuSans-74" x="333.777344"/>
     <use xlink:href="#DejaVuSans-69" x="372.986328"/>
     <use xlink:href="#DejaVuSans-6f" x="400.769531"/>
     <use xlink:href="#DejaVuSans-6e" x="461.951172"/>
     <use xlink:href="#DejaVuSans-27" x="525.330078"/>
     <use xlink:href="#DejaVuSans-73" x="552.820312"/>
     <use xlink:href="#DejaVuSans-20" x="604.919922"/>
     <use xlink:href="#DejaVuSans-61" x="636.707031"/>
     <use xlink:href="#DejaVuSans-76" x="697.986328"/>
     <use xlink:href="#DejaVuSans-65" x="757.166016"/>
     <use xlink:href="#DejaVuSans-72" x="818.689453"/>
     <use xlink:href="#DejaVuSans-61" x="859.802734"/>
     <use xlink:href="#DejaVuSans-67" x="921.082031"/>
     <use xlink:href="#DejaVuSans-65" x="984.558594"/>
     <use xlink:href="#DejaVuSans-20" x="1046.082031"/>
     <use xlink:href="#DejaVuSans-61" x="1077.869141"/>
     <use xlink:href="#DejaVuSans-6e" x="1139.148438"/>
     <use xlink:href="#DejaVuSans-64" x="1202.527344"/>
     <use xlink:href="#DejaVuSans-20" x="1266.003906"/>
     <use xlink:href="#DejaVuSans-62" x="1297.791016"/>
     <use xlink:href="#DejaVuSans-65" x="1361.267578"/>
     <use xlink:href="#DejaVuSans-73" x="1422.791016"/>
     <use xlink:href="#DejaVuSans-74" x="1474.890625"/>
     <use xlink:href="#DejaVuSans-20" x="1514.099609"/>
     <use xlink:href="#DejaVuSans-66" x="1545.886719"/>
     <use xlink:href="#DejaVuSans-69" x="1581.091797"/>
     <use xlink:href="#DejaVuSans-74" x="1608.875"/>
     <use xlink:href="#DejaVuSans-6e" x="1648.083984"/>
     <use xlink:href="#DejaVuSans-65" x="1711.462891"/>
     <use xlink:href="#DejaVuSans-73" x="1772.986328"/>
     <use xlink:href="#DejaVuSans-73" x="1825.085938"/>
    </g>
   </g>
   <g id="legend_1">
    <g id="patch_7">
     <path d="M 199.689687 302.584 
L 272.630313 302.584 
Q 274.630313 302.584 274.630313 300.584 
L 274.630313 257.549625 
Q 274.630313 255.549625 272.630313 255.549625 
L 199.689687 255.549625 
Q 197.689687 255.549625 197.689687 257.549625 
L 197.689687 300.584 
Q 197.689687 302.584 199.689687 302.584 
z
" style="fill: #ffffff; opacity: 0.8; stroke: #cccccc; stroke-linejoin: miter"/>
    </g>
    <g id="line2d_34">
     <path d="M 201.689687 263.648062 
L 211.689687 263.648062 
L 221.689687 263.648062 
" style="fill: none; stroke: #0000ff; stroke-width: 1.5; stroke-linecap: square"/>
    </g>
    <g id="text_19">
     <!-- average -->
     <g transform="translate(229.689687 267.148062) scale(0.1 -0.1)">
      <use xlink:href="#DejaVuSans-61"/>
      <use xlink:href="#DejaVuSans-76" x="61.279297"/>
      <use xlink:href="#DejaVuSans-65" x="120.458984"/>
      <use xlink:href="#DejaVuSans-72" x="181.982422"/>
      <use xlink:href="#DejaVuSans-61" x="223.095703"/>
      <use xlink:href="#DejaVuSans-67" x="284.375"/>
      <use xlink:href="#DejaVuSans-65" x="347.851562"/>
     </g>
    </g>
    <g id="line2d_35">
     <path d="M 201.689687 278.326188 
L 211.689687 278.326188 
L 221.689687 278.326188 
" style="fill: none; stroke-dasharray: 9.6,2.4,1.5,2.4; stroke-dashoffset: 0; stroke: #008000; stroke-width: 1.5"/>
    </g>
    <g id="text_20">
     <!-- +1 sd -->
     <g transform="translate(229.689687 281.826188) scale(0.1 -0.1)">
      <defs>
       <path id="DejaVuSans-2b" d="M 2944 4013 
L 2944 2272 
L 4684 2272 
L 4684 1741 
L 2944 1741 
L 2944 0 
L 2419 0 
L 2419 1741 
L 678 1741 
L 678 2272 
L 2419 2272 
L 2419 4013 
L 2944 4013 
z
" transform="scale(0.015625)"/>
      </defs>
      <use xlink:href="#DejaVuSans-2b"/>
      <use xlink:href="#DejaVuSans-31" x="83.789062"/>
      <use xlink:href="#DejaVuSans-20" x="147.412109"/>
      <use xlink:href="#DejaVuSans-73" x="179.199219"/>
      <use xlink:href="#DejaVuSans-64" x="231.298828"/>
     </g>
    </g>
    <g id="line2d_36">
     <path d="M 201.689687 293.004312 
L 211.689687 293.004312 
L 221.689687 293.004312 
" style="fill: none; stroke: #ff0000; stroke-width: 1.5; stroke-linecap: square"/>
    </g>
    <g id="text_21">
     <!-- best -->
     <g transform="translate(229.689687 296.504312) scale(0.1 -0.1)">
      <use xlink:href="#DejaVuSans-62"/>
      <use xlink:href="#DejaVuSans-65" x="63.476562"/>
      <use xlink:href="#DejaVuSans-73" x="125"/>
      <use xlink:href="#DejaVuSans-74" x="177.099609"/>
     </g>
    </g>
   </g>
  </g>
 </g>
 <defs>
  <clipPath id="p0f1e9c6979">
   <rect x="57.6" y="41.472" width="357.12" height="266.112"/>
  </clipPath>
 </defs>
</svg>
