<?xml version="1.0" encoding="UTF-8" standalone="no"?>
<!DOCTYPE svg PUBLIC "-//W3C//DTD SVG 1.1//EN"
 "http://www.w3.org/Graphics/SVG/1.1/DTD/svg11.dtd">
<!-- Generated by graphviz version 2.43.0 (0)
 -->
<!-- Title: %3 Pages: 1 -->
<svg width="1271pt" height="228pt"
 viewBox="0.00 0.00 1270.99 228.49" xmlns="http://www.w3.org/2000/svg" xmlns:xlink="http://www.w3.org/1999/xlink">
<g id="graph0" class="graph" transform="scale(1 1) rotate(0) translate(4 224.49)">
<title>%3</title>
<polygon fill="white" stroke="transparent" points="-4,4 -4,-224.49 1266.99,-224.49 1266.99,4 -4,4"/>
<!-- &#45;1 -->
<g id="node1" class="node">
<title>&#45;1</title>
<polygon fill="lightgray" stroke="black" points="26,-200.5 0,-200.5 0,-182.5 26,-182.5 26,-200.5"/>
<text text-anchor="middle" x="13" y="-189.3" font-family="Times,serif" font-size="9.00">&#45;1</text>
</g>
<!-- &#45;2 -->
<g id="node2" class="node">
<title>&#45;2</title>
<polygon fill="lightgray" stroke="black" points="70,-200.5 44,-200.5 44,-182.5 70,-182.5 70,-200.5"/>
<text text-anchor="middle" x="57" y="-189.3" font-family="Times,serif" font-size="9.00">&#45;2</text>
</g>
<!-- 7 -->
<g id="node10" class="node">
<title>7</title>
<ellipse fill="lightblue" stroke="black" cx="25" cy="-97.52" rx="16.03" ry="16.03"/>
<text text-anchor="middle" x="25" y="-95.32" font-family="Times,serif" font-size="9.00">7</text>
</g>
<!-- &#45;2&#45;&gt;7 -->
<g id="edge2" class="edge">
<title>&#45;2&#45;&gt;7</title>
<path fill="none" stroke="green" stroke-width="1.35" d="M54.16,-182.34C49.55,-169.08 40.26,-142.38 33.4,-122.66"/>
<polygon fill="green" stroke="green" stroke-width="1.35" points="36.66,-121.39 30.07,-113.09 30.05,-123.69 36.66,-121.39"/>
</g>
<!-- 1414 -->
<g id="node26" class="node">
<title>1414</title>
<ellipse fill="white" stroke="black" cx="88" cy="-97.52" rx="28.98" ry="28.98"/>
<text text-anchor="middle" x="88" y="-95.32" font-family="Times,serif" font-size="9.00">1414</text>
</g>
<!-- &#45;2&#45;&gt;1414 -->
<g id="edge3" class="edge">
<title>&#45;2&#45;&gt;1414</title>
<path fill="none" stroke="green" stroke-width="0.23" d="M59.75,-182.34C63.32,-171.75 69.78,-152.59 75.62,-135.26"/>
<polygon fill="green" stroke="green" stroke-width="0.23" points="79.08,-135.93 78.96,-125.34 72.45,-133.7 79.08,-135.93"/>
</g>
<!-- 0 -->
<g id="node3" class="node">
<title>0</title>
<ellipse fill="lightblue" stroke="black" cx="104" cy="-191.5" rx="16.03" ry="16.03"/>
<text text-anchor="middle" x="104" y="-189.3" font-family="Times,serif" font-size="9.00">0</text>
</g>
<!-- 1 -->
<g id="node4" class="node">
<title>1</title>
<ellipse fill="lightblue" stroke="black" cx="155" cy="-191.5" rx="16.03" ry="16.03"/>
<text text-anchor="middle" x="155" y="-189.3" font-family="Times,serif" font-size="9.00">1</text>
</g>
<!-- 2 -->
<g id="node5" class="node">
<title>2</title>
<ellipse fill="lightblue" stroke="black" cx="206" cy="-191.5" rx="16.03" ry="16.03"/>
<text text-anchor="middle" x="206" y="-189.3" font-family="Times,serif" font-size="9.00">2</text>
</g>
<!-- 3 -->
<g id="node6" class="node">
<title>3</title>
<ellipse fill="lightblue" stroke="black" cx="257" cy="-191.5" rx="16.03" ry="16.03"/>
<text text-anchor="middle" x="257" y="-189.3" font-family="Times,serif" font-size="9.00">3</text>
</g>
<!-- 4 -->
<g id="node7" class="node">
<title>4</title>
<ellipse fill="lightblue" stroke="black" cx="308" cy="-191.5" rx="16.03" ry="16.03"/>
<text text-anchor="middle" x="308" y="-189.3" font-family="Times,serif" font-size="9.00">4</text>
</g>
<!-- 5 -->
<g id="node8" class="node">
<title>5</title>
<ellipse fill="lightblue" stroke="black" cx="359" cy="-191.5" rx="16.03" ry="16.03"/>
<text text-anchor="middle" x="359" y="-189.3" font-family="Times,serif" font-size="9.00">5</text>
</g>
<!-- 6 -->
<g id="node9" class="node">
<title>6</title>
<ellipse fill="lightblue" stroke="black" cx="410" cy="-191.5" rx="16.03" ry="16.03"/>
<text text-anchor="middle" x="410" y="-189.3" font-family="Times,serif" font-size="9.00">6</text>
</g>
<!-- 8 -->
<g id="node11" class="node">
<title>8</title>
<ellipse fill="lightblue" stroke="black" cx="88" cy="-16.26" rx="16.03" ry="16.03"/>
<text text-anchor="middle" x="88" y="-14.06" font-family="Times,serif" font-size="9.00">8</text>
</g>
<!-- 9 -->
<g id="node12" class="node">
<title>9</title>
<ellipse fill="lightblue" stroke="black" cx="461" cy="-191.5" rx="16.03" ry="16.03"/>
<text text-anchor="middle" x="461" y="-189.3" font-family="Times,serif" font-size="9.00">9</text>
</g>
<!-- 10 -->
<g id="node13" class="node">
<title>10</title>
<ellipse fill="lightblue" stroke="black" cx="516" cy="-191.5" rx="20.51" ry="20.51"/>
<text text-anchor="middle" x="516" y="-189.3" font-family="Times,serif" font-size="9.00">10</text>
</g>
<!-- 10&#45;&gt;10 -->
<g id="edge1" class="edge">
<title>10&#45;&gt;10</title>
<path fill="none" stroke="red" stroke-width="0.1" stroke-dasharray="1,5" d="M530.62,-206.33C542.37,-212.25 554.51,-207.31 554.51,-191.5 554.51,-180.14 548.24,-174.39 540.35,-174.25"/>
<polygon fill="red" stroke="red" stroke-width="0.1" points="539.48,-170.86 530.62,-176.68 541.17,-177.66 539.48,-170.86"/>
</g>
<!-- 11 -->
<g id="node14" class="node">
<title>11</title>
<ellipse fill="lightblue" stroke="black" cx="593" cy="-191.5" rx="20.51" ry="20.51"/>
<text text-anchor="middle" x="593" y="-189.3" font-family="Times,serif" font-size="9.00">11</text>
</g>
<!-- 12 -->
<g id="node15" class="node">
<title>12</title>
<ellipse fill="lightblue" stroke="black" cx="652" cy="-191.5" rx="20.51" ry="20.51"/>
<text text-anchor="middle" x="652" y="-189.3" font-family="Times,serif" font-size="9.00">12</text>
</g>
<!-- 13 -->
<g id="node16" class="node">
<title>13</title>
<ellipse fill="lightblue" stroke="black" cx="711" cy="-191.5" rx="20.51" ry="20.51"/>
<text text-anchor="middle" x="711" y="-189.3" font-family="Times,serif" font-size="9.00">13</text>
</g>
<!-- 14 -->
<g id="node17" class="node">
<title>14</title>
<ellipse fill="lightblue" stroke="black" cx="770" cy="-191.5" rx="20.51" ry="20.51"/>
<text text-anchor="middle" x="770" y="-189.3" font-family="Times,serif" font-size="9.00">14</text>
</g>
<!-- 15 -->
<g id="node18" class="node">
<title>15</title>
<ellipse fill="lightblue" stroke="black" cx="829" cy="-191.5" rx="20.51" ry="20.51"/>
<text text-anchor="middle" x="829" y="-189.3" font-family="Times,serif" font-size="9.00">15</text>
</g>
<!-- 16 -->
<g id="node19" class="node">
<title>16</title>
<ellipse fill="lightblue" stroke="black" cx="888" cy="-191.5" rx="20.51" ry="20.51"/>
<text text-anchor="middle" x="888" y="-189.3" font-family="Times,serif" font-size="9.00">16</text>
</g>
<!-- 17 -->
<g id="node20" class="node">
<title>17</title>
<ellipse fill="lightblue" stroke="black" cx="947" cy="-191.5" rx="20.51" ry="20.51"/>
<text text-anchor="middle" x="947" y="-189.3" font-family="Times,serif" font-size="9.00">17</text>
</g>
<!-- 838 -->
<g id="node21" class="node">
<title>838</title>
<ellipse fill="white" stroke="black" cx="1014" cy="-97.52" rx="25" ry="25"/>
<text text-anchor="middle" x="1014" y="-95.32" font-family="Times,serif" font-size="9.00">838</text>
</g>
<!-- 936 -->
<g id="node22" class="node">
<title>936</title>
<ellipse fill="white" stroke="black" cx="1086" cy="-191.5" rx="25" ry="25"/>
<text text-anchor="middle" x="1086" y="-189.3" font-family="Times,serif" font-size="9.00">936</text>
</g>
<!-- 1219 -->
<g id="node23" class="node">
<title>1219</title>
<ellipse fill="white" stroke="black" cx="1014" cy="-191.5" rx="28.98" ry="28.98"/>
<text text-anchor="middle" x="1014" y="-189.3" font-family="Times,serif" font-size="9.00">1219</text>
</g>
<!-- 1219&#45;&gt;838 -->
<g id="edge5" class="edge">
<title>1219&#45;&gt;838</title>
<path fill="none" stroke="red" stroke-width="0.31" d="M1014,-162.4C1014,-153.01 1014,-142.45 1014,-132.65"/>
<polygon fill="red" stroke="red" stroke-width="0.31" points="1017.5,-132.41 1014,-122.41 1010.5,-132.41 1017.5,-132.41"/>
</g>
<!-- 1301 -->
<g id="node24" class="node">
<title>1301</title>
<ellipse fill="white" stroke="black" cx="1158" cy="-191.5" rx="28.98" ry="28.98"/>
<text text-anchor="middle" x="1158" y="-189.3" font-family="Times,serif" font-size="9.00">1301</text>
</g>
<!-- 1357 -->
<g id="node25" class="node">
<title>1357</title>
<ellipse fill="white" stroke="black" cx="1234" cy="-191.5" rx="28.98" ry="28.98"/>
<text text-anchor="middle" x="1234" y="-189.3" font-family="Times,serif" font-size="9.00">1357</text>
</g>
<!-- 1414&#45;&gt;8 -->
<g id="edge4" class="edge">
<title>1414&#45;&gt;8</title>
<path fill="none" stroke="green" stroke-width="0.29" d="M88,-68.35C88,-60.06 88,-51.04 88,-42.91"/>
<polygon fill="green" stroke="green" stroke-width="0.29" points="91.5,-42.89 88,-32.89 84.5,-42.89 91.5,-42.89"/>
</g>
</g>
</svg>
