<?xml version="1.0" encoding="UTF-8" standalone="no"?>
<!DOCTYPE svg PUBLIC "-//W3C//DTD SVG 1.1//EN"
 "http://www.w3.org/Graphics/SVG/1.1/DTD/svg11.dtd">
<!-- Generated by graphviz version 2.43.0 (0)
 -->
<!-- Title: %3 Pages: 1 -->
<svg width="1139pt" height="442pt"
 viewBox="0.00 0.00 1139.25 441.91" xmlns="http://www.w3.org/2000/svg" xmlns:xlink="http://www.w3.org/1999/xlink">
<g id="graph0" class="graph" transform="scale(1 1) rotate(0) translate(4 437.91)">
<title>%3</title>
<polygon fill="white" stroke="transparent" points="-4,4 -4,-437.91 1135.25,-437.91 1135.25,4 -4,4"/>
<!-- &#45;1 -->
<g id="node1" class="node">
<title>&#45;1</title>
<polygon fill="lightgray" stroke="black" points="80.26,-413.92 54.26,-413.92 54.26,-395.92 80.26,-395.92 80.26,-413.92"/>
<text text-anchor="middle" x="67.26" y="-402.72" font-family="Times,serif" font-size="9.00">&#45;1</text>
</g>
<!-- 5 -->
<g id="node10" class="node">
<title>5</title>
<ellipse fill="lightblue" stroke="black" cx="16.26" cy="-310.94" rx="16.03" ry="16.03"/>
<text text-anchor="middle" x="16.26" y="-308.74" font-family="Times,serif" font-size="9.00">5</text>
</g>
<!-- &#45;1&#45;&gt;5 -->
<g id="edge3" class="edge">
<title>&#45;1&#45;&gt;5</title>
<path fill="none" stroke="green" stroke-width="1.23" d="M62.74,-395.76C55.2,-382.16 39.8,-354.39 28.79,-334.54"/>
<polygon fill="green" stroke="green" stroke-width="1.23" points="31.71,-332.58 23.8,-325.53 25.59,-335.97 31.71,-332.58"/>
</g>
<!-- 8 -->
<g id="node13" class="node">
<title>8</title>
<ellipse fill="lightblue" stroke="black" cx="67.26" cy="-310.94" rx="16.03" ry="16.03"/>
<text text-anchor="middle" x="67.26" y="-308.74" font-family="Times,serif" font-size="9.00">8</text>
</g>
<!-- &#45;1&#45;&gt;8 -->
<g id="edge11" class="edge">
<title>&#45;1&#45;&gt;8</title>
<path fill="none" stroke="green" stroke-width="0.19" d="M67.26,-395.76C67.26,-382.85 67.26,-357.18 67.26,-337.63"/>
<polygon fill="green" stroke="green" stroke-width="0.19" points="70.76,-337.52 67.26,-327.52 63.76,-337.52 70.76,-337.52"/>
</g>
<!-- 13 -->
<g id="node18" class="node">
<title>13</title>
<ellipse fill="lightblue" stroke="black" cx="122.26" cy="-310.94" rx="20.51" ry="20.51"/>
<text text-anchor="middle" x="122.26" y="-308.74" font-family="Times,serif" font-size="9.00">13</text>
</g>
<!-- &#45;1&#45;&gt;13 -->
<g id="edge6" class="edge">
<title>&#45;1&#45;&gt;13</title>
<path fill="none" stroke="red" stroke-width="0.33" d="M72.14,-395.76C79.86,-382.85 95.2,-357.2 106.89,-337.65"/>
<polygon fill="red" stroke="red" stroke-width="0.33" points="109.99,-339.28 112.12,-328.9 103.99,-335.69 109.99,-339.28"/>
</g>
<!-- &#45;2 -->
<g id="node2" class="node">
<title>&#45;2</title>
<polygon fill="lightgray" stroke="black" points="354.26,-131.97 328.26,-131.97 328.26,-113.97 354.26,-113.97 354.26,-131.97"/>
<text text-anchor="middle" x="341.26" y="-120.77" font-family="Times,serif" font-size="9.00">&#45;2</text>
</g>
<!-- 3 -->
<g id="node8" class="node">
<title>3</title>
<ellipse fill="lightblue" stroke="black" cx="341.26" cy="-28.99" rx="16.03" ry="16.03"/>
<text text-anchor="middle" x="341.26" y="-26.79" font-family="Times,serif" font-size="9.00">3</text>
</g>
<!-- &#45;2&#45;&gt;3 -->
<g id="edge1" class="edge">
<title>&#45;2&#45;&gt;3</title>
<path fill="none" stroke="green" stroke-width="2.67" d="M341.26,-113.81C341.26,-100.9 341.26,-75.23 341.26,-55.68"/>
<polygon fill="green" stroke="green" stroke-width="2.67" points="344.76,-55.57 341.26,-45.57 337.76,-55.57 344.76,-55.57"/>
</g>
<!-- 4258 -->
<g id="node24" class="node">
<title>4258</title>
<ellipse fill="white" stroke="black" cx="251.26" cy="-28.99" rx="28.98" ry="28.98"/>
<text text-anchor="middle" x="251.26" y="-26.79" font-family="Times,serif" font-size="9.00">4258</text>
</g>
<!-- &#45;2&#45;&gt;4258 -->
<g id="edge5" class="edge">
<title>&#45;2&#45;&gt;4258</title>
<path fill="none" stroke="green" stroke-width="0.41" stroke-dasharray="1,5" d="M335.4,-113.87C331.14,-108.14 325.1,-100.37 319.26,-93.98 307.12,-80.71 292.73,-66.92 280.32,-55.56"/>
<polygon fill="green" stroke="green" stroke-width="0.41" points="282.64,-52.94 272.88,-48.82 277.94,-58.13 282.64,-52.94"/>
</g>
<!-- &#45;3 -->
<g id="node3" class="node">
<title>&#45;3</title>
<polygon fill="lightgray" stroke="black" points="175.26,-413.92 149.26,-413.92 149.26,-395.92 175.26,-395.92 175.26,-413.92"/>
<text text-anchor="middle" x="162.26" y="-402.72" font-family="Times,serif" font-size="9.00">&#45;3</text>
</g>
<!-- &#45;4 -->
<g id="node4" class="node">
<title>&#45;4</title>
<polygon fill="lightgray" stroke="black" points="269.26,-413.92 243.26,-413.92 243.26,-395.92 269.26,-395.92 269.26,-413.92"/>
<text text-anchor="middle" x="256.26" y="-402.72" font-family="Times,serif" font-size="9.00">&#45;4</text>
</g>
<!-- 15 -->
<g id="node20" class="node">
<title>15</title>
<ellipse fill="lightblue" stroke="black" cx="256.26" cy="-310.94" rx="20.51" ry="20.51"/>
<text text-anchor="middle" x="256.26" y="-308.74" font-family="Times,serif" font-size="9.00">15</text>
</g>
<!-- &#45;4&#45;&gt;15 -->
<g id="edge2" class="edge">
<title>&#45;4&#45;&gt;15</title>
<path fill="none" stroke="green" stroke-width="2.52" d="M256.26,-395.76C256.26,-383.8 256.26,-360.87 256.26,-342.02"/>
<polygon fill="green" stroke="green" stroke-width="2.52" points="259.76,-341.78 256.26,-331.78 252.76,-341.78 259.76,-341.78"/>
</g>
<!-- 0 -->
<g id="node5" class="node">
<title>0</title>
<ellipse fill="lightblue" stroke="black" cx="303.26" cy="-404.92" rx="16.03" ry="16.03"/>
<text text-anchor="middle" x="303.26" y="-402.72" font-family="Times,serif" font-size="9.00">0</text>
</g>
<!-- 1 -->
<g id="node6" class="node">
<title>1</title>
<ellipse fill="lightblue" stroke="black" cx="354.26" cy="-404.92" rx="16.03" ry="16.03"/>
<text text-anchor="middle" x="354.26" y="-402.72" font-family="Times,serif" font-size="9.00">1</text>
</g>
<!-- 2 -->
<g id="node7" class="node">
<title>2</title>
<ellipse fill="lightblue" stroke="black" cx="405.26" cy="-404.92" rx="16.03" ry="16.03"/>
<text text-anchor="middle" x="405.26" y="-402.72" font-family="Times,serif" font-size="9.00">2</text>
</g>
<!-- 4 -->
<g id="node9" class="node">
<title>4</title>
<ellipse fill="lightblue" stroke="black" cx="456.26" cy="-404.92" rx="16.03" ry="16.03"/>
<text text-anchor="middle" x="456.26" y="-402.72" font-family="Times,serif" font-size="9.00">4</text>
</g>
<!-- 6 -->
<g id="node11" class="node">
<title>6</title>
<ellipse fill="lightblue" stroke="black" cx="507.26" cy="-404.92" rx="16.03" ry="16.03"/>
<text text-anchor="middle" x="507.26" y="-402.72" font-family="Times,serif" font-size="9.00">6</text>
</g>
<!-- 7 -->
<g id="node12" class="node">
<title>7</title>
<ellipse fill="lightblue" stroke="black" cx="558.26" cy="-404.92" rx="16.03" ry="16.03"/>
<text text-anchor="middle" x="558.26" y="-402.72" font-family="Times,serif" font-size="9.00">7</text>
</g>
<!-- 9 -->
<g id="node14" class="node">
<title>9</title>
<ellipse fill="lightblue" stroke="black" cx="609.26" cy="-404.92" rx="16.03" ry="16.03"/>
<text text-anchor="middle" x="609.26" y="-402.72" font-family="Times,serif" font-size="9.00">9</text>
</g>
<!-- 10 -->
<g id="node15" class="node">
<title>10</title>
<ellipse fill="lightblue" stroke="black" cx="664.26" cy="-404.92" rx="20.51" ry="20.51"/>
<text text-anchor="middle" x="664.26" y="-402.72" font-family="Times,serif" font-size="9.00">10</text>
</g>
<!-- 11 -->
<g id="node16" class="node">
<title>11</title>
<ellipse fill="lightblue" stroke="black" cx="723.26" cy="-404.92" rx="20.51" ry="20.51"/>
<text text-anchor="middle" x="723.26" y="-402.72" font-family="Times,serif" font-size="9.00">11</text>
</g>
<!-- 12 -->
<g id="node17" class="node">
<title>12</title>
<ellipse fill="lightblue" stroke="black" cx="782.26" cy="-404.92" rx="20.51" ry="20.51"/>
<text text-anchor="middle" x="782.26" y="-402.72" font-family="Times,serif" font-size="9.00">12</text>
</g>
<!-- 3684 -->
<g id="node23" class="node">
<title>3684</title>
<ellipse fill="white" stroke="black" cx="127.26" cy="-216.96" rx="28.98" ry="28.98"/>
<text text-anchor="middle" x="127.26" y="-214.76" font-family="Times,serif" font-size="9.00">3684</text>
</g>
<!-- 13&#45;&gt;3684 -->
<g id="edge8" class="edge">
<title>13&#45;&gt;3684</title>
<path fill="none" stroke="red" stroke-width="0.4" d="M123.32,-290.43C123.86,-280.48 124.54,-268.02 125.18,-256.25"/>
<polygon fill="red" stroke="red" stroke-width="0.4" points="128.68,-256.34 125.73,-246.16 121.69,-255.96 128.68,-256.34"/>
</g>
<!-- 14 -->
<g id="node19" class="node">
<title>14</title>
<ellipse fill="lightblue" stroke="black" cx="841.26" cy="-404.92" rx="20.51" ry="20.51"/>
<text text-anchor="middle" x="841.26" y="-402.72" font-family="Times,serif" font-size="9.00">14</text>
</g>
<!-- 16 -->
<g id="node21" class="node">
<title>16</title>
<ellipse fill="lightblue" stroke="black" cx="900.26" cy="-404.92" rx="20.51" ry="20.51"/>
<text text-anchor="middle" x="900.26" y="-402.72" font-family="Times,serif" font-size="9.00">16</text>
</g>
<!-- 17 -->
<g id="node22" class="node">
<title>17</title>
<ellipse fill="lightblue" stroke="black" cx="959.26" cy="-404.92" rx="20.51" ry="20.51"/>
<text text-anchor="middle" x="959.26" y="-402.72" font-family="Times,serif" font-size="9.00">17</text>
</g>
<!-- 4283 -->
<g id="node25" class="node">
<title>4283</title>
<ellipse fill="white" stroke="black" cx="1026.26" cy="-404.92" rx="28.98" ry="28.98"/>
<text text-anchor="middle" x="1026.26" y="-402.72" font-family="Times,serif" font-size="9.00">4283</text>
</g>
<!-- 4798 -->
<g id="node26" class="node">
<title>4798</title>
<ellipse fill="white" stroke="black" cx="189.26" cy="-310.94" rx="28.98" ry="28.98"/>
<text text-anchor="middle" x="189.26" y="-308.74" font-family="Times,serif" font-size="9.00">4798</text>
</g>
<!-- 4798&#45;&gt;3684 -->
<g id="edge7" class="edge">
<title>4798&#45;&gt;3684</title>
<path fill="none" stroke="red" stroke-width="0.49" d="M173.3,-286.25C165.85,-275.2 156.87,-261.88 148.83,-249.95"/>
<polygon fill="red" stroke="red" stroke-width="0.49" points="151.67,-247.9 143.18,-241.56 145.86,-251.81 151.67,-247.9"/>
</g>
<!-- 4798&#45;&gt;4258 -->
<g id="edge4" class="edge">
<title>4798&#45;&gt;4258</title>
<path fill="none" stroke="green" stroke-width="0.18" d="M191.74,-281.63C194.2,-256.78 198.59,-219.74 205.26,-187.97 214.13,-145.71 228.56,-98.29 238.9,-66.52"/>
<polygon fill="green" stroke="green" stroke-width="0.18" points="242.3,-67.38 242.1,-56.79 235.65,-65.2 242.3,-67.38"/>
</g>
<!-- 5419 -->
<g id="node28" class="node">
<title>5419</title>
<ellipse fill="white" stroke="black" cx="243.26" cy="-216.96" rx="28.98" ry="28.98"/>
<text text-anchor="middle" x="243.26" y="-214.76" font-family="Times,serif" font-size="9.00">5419</text>
</g>
<!-- 4798&#45;&gt;5419 -->
<g id="edge9" class="edge">
<title>4798&#45;&gt;5419</title>
<path fill="none" stroke="green" stroke-width="0.35" d="M203.73,-285.29C209.9,-274.79 217.18,-262.39 223.8,-251.11"/>
<polygon fill="green" stroke="green" stroke-width="0.35" points="226.9,-252.75 228.94,-242.36 220.86,-249.21 226.9,-252.75"/>
</g>
<!-- 5123 -->
<g id="node27" class="node">
<title>5123</title>
<ellipse fill="white" stroke="black" cx="1102.26" cy="-404.92" rx="28.98" ry="28.98"/>
<text text-anchor="middle" x="1102.26" y="-402.72" font-family="Times,serif" font-size="9.00">5123</text>
</g>
<!-- 5419&#45;&gt;4258 -->
<g id="edge10" class="edge">
<title>5419&#45;&gt;4258</title>
<path fill="none" stroke="green" stroke-width="0.42" stroke-dasharray="1,5" d="M242.27,-187.83C241.64,-163.09 241.26,-126.11 243.26,-93.98 243.79,-85.56 244.7,-76.55 245.72,-68.03"/>
<polygon fill="green" stroke="green" stroke-width="0.42" points="249.21,-68.32 247,-57.95 242.27,-67.43 249.21,-68.32"/>
</g>
<!-- 5484 -->
<g id="node29" class="node">
<title>5484</title>
<ellipse fill="white" stroke="black" cx="281.26" cy="-122.97" rx="28.98" ry="28.98"/>
<text text-anchor="middle" x="281.26" y="-120.77" font-family="Times,serif" font-size="9.00">5484</text>
</g>
<!-- 5419&#45;&gt;5484 -->
<g id="edge12" class="edge">
<title>5419&#45;&gt;5484</title>
<path fill="none" stroke="green" stroke-width="0.3" d="M254.05,-189.84C257.94,-180.43 262.4,-169.63 266.57,-159.54"/>
<polygon fill="green" stroke="green" stroke-width="0.3" points="269.87,-160.73 270.45,-150.15 263.4,-158.06 269.87,-160.73"/>
</g>
<!-- 5484&#45;&gt;4258 -->
<g id="edge13" class="edge">
<title>5484&#45;&gt;4258</title>
<path fill="none" stroke="red" stroke-width="0.44" d="M272.42,-94.87C269.53,-85.98 266.25,-75.96 263.17,-66.49"/>
<polygon fill="red" stroke="red" stroke-width="0.44" points="266.47,-65.32 260.04,-56.9 259.81,-67.49 266.47,-65.32"/>
</g>
</g>
</svg>
