<?xml version="1.0" encoding="UTF-8" standalone="no"?>
<!DOCTYPE svg PUBLIC "-//W3C//DTD SVG 1.1//EN"
 "http://www.w3.org/Graphics/SVG/1.1/DTD/svg11.dtd">
<!-- Generated by graphviz version 2.43.0 (0)
 -->
<!-- Title: %3 Pages: 1 -->
<svg width="1149pt" height="172pt"
 viewBox="0.00 0.00 1148.79 171.54" xmlns="http://www.w3.org/2000/svg" xmlns:xlink="http://www.w3.org/1999/xlink">
<g id="graph0" class="graph" transform="scale(1 1) rotate(0) translate(4 167.54)">
<title>%3</title>
<polygon fill="white" stroke="transparent" points="-4,4 -4,-167.54 1144.79,-167.54 1144.79,4 -4,4"/>
<!-- &#45;1 -->
<g id="node1" class="node">
<title>&#45;1</title>
<polygon fill="lightgray" stroke="black" points="389.52,-163.54 363.52,-163.54 363.52,-145.54 389.52,-145.54 389.52,-163.54"/>
<text text-anchor="middle" x="376.52" y="-152.34" font-family="Times,serif" font-size="9.00">&#45;1</text>
</g>
<!-- 0 -->
<g id="node5" class="node">
<title>0</title>
<ellipse fill="lightblue" stroke="black" cx="84.52" cy="-89.03" rx="16.03" ry="16.03"/>
<text text-anchor="middle" x="84.52" y="-86.83" font-family="Times,serif" font-size="9.00">0</text>
</g>
<!-- &#45;1&#45;&gt;0 -->
<g id="edge26" class="edge">
<title>&#45;1&#45;&gt;0</title>
<path fill="none" stroke="green" stroke-width="0.13" d="M363.35,-152.33C325.91,-148.67 215.93,-136.24 128.52,-109.54 121.81,-107.49 114.77,-104.68 108.33,-101.84"/>
<polygon fill="green" stroke="green" stroke-width="0.13" points="109.4,-98.48 98.85,-97.44 106.45,-104.83 109.4,-98.48"/>
</g>
<!-- 1 -->
<g id="node6" class="node">
<title>1</title>
<ellipse fill="lightblue" stroke="black" cx="456.52" cy="-89.03" rx="16.03" ry="16.03"/>
<text text-anchor="middle" x="456.52" y="-86.83" font-family="Times,serif" font-size="9.00">1</text>
</g>
<!-- &#45;1&#45;&gt;1 -->
<g id="edge31" class="edge">
<title>&#45;1&#45;&gt;1</title>
<path fill="none" stroke="red" stroke-width="0.43" d="M386.66,-145.5C399,-135.7 420.17,-118.9 435.97,-106.35"/>
<polygon fill="red" stroke="red" stroke-width="0.43" points="438.46,-108.84 444.11,-99.88 434.11,-103.36 438.46,-108.84"/>
</g>
<!-- 4 -->
<g id="node9" class="node">
<title>4</title>
<ellipse fill="lightblue" stroke="black" cx="525.52" cy="-89.03" rx="16.03" ry="16.03"/>
<text text-anchor="middle" x="525.52" y="-86.83" font-family="Times,serif" font-size="9.00">4</text>
</g>
<!-- &#45;1&#45;&gt;4 -->
<g id="edge16" class="edge">
<title>&#45;1&#45;&gt;4</title>
<path fill="none" stroke="green" stroke-width="0.23" d="M389.63,-150.25C412.72,-144.15 461.78,-129.85 499.52,-109.54 501.5,-108.47 503.49,-107.27 505.45,-105.99"/>
<polygon fill="green" stroke="green" stroke-width="0.23" points="507.51,-108.82 513.6,-100.16 503.43,-103.13 507.51,-108.82"/>
</g>
<!-- 5 -->
<g id="node10" class="node">
<title>5</title>
<ellipse fill="lightblue" stroke="black" cx="33.52" cy="-89.03" rx="16.03" ry="16.03"/>
<text text-anchor="middle" x="33.52" y="-86.83" font-family="Times,serif" font-size="9.00">5</text>
</g>
<!-- &#45;1&#45;&gt;5 -->
<g id="edge15" class="edge">
<title>&#45;1&#45;&gt;5</title>
<path fill="none" stroke="red" stroke-width="0.12" d="M363.23,-154.02C318.5,-155.15 169.98,-155.04 59.52,-109.54 57.45,-108.68 55.39,-107.62 53.39,-106.44"/>
<polygon fill="red" stroke="red" stroke-width="0.12" points="55.38,-103.56 45.17,-100.74 51.39,-109.32 55.38,-103.56"/>
</g>
<!-- 6 -->
<g id="node11" class="node">
<title>6</title>
<ellipse fill="lightblue" stroke="black" cx="1031.52" cy="-16.26" rx="16.03" ry="16.03"/>
<text text-anchor="middle" x="1031.52" y="-14.06" font-family="Times,serif" font-size="9.00">6</text>
</g>
<!-- &#45;1&#45;&gt;6 -->
<g id="edge33" class="edge">
<title>&#45;1&#45;&gt;6</title>
<path fill="none" stroke="green" stroke-width="0.26" d="M372.7,-145.48C365.37,-128.72 351.74,-89.9 371.52,-68.53 415.19,-21.33 886.84,-17.48 1004.87,-17.25"/>
<polygon fill="green" stroke="green" stroke-width="0.26" points="1005.16,-20.75 1015.16,-17.24 1005.16,-13.75 1005.16,-20.75"/>
</g>
<!-- 10 -->
<g id="node15" class="node">
<title>10</title>
<ellipse fill="lightblue" stroke="black" cx="285.52" cy="-89.03" rx="20.51" ry="20.51"/>
<text text-anchor="middle" x="285.52" y="-86.83" font-family="Times,serif" font-size="9.00">10</text>
</g>
<!-- &#45;1&#45;&gt;10 -->
<g id="edge3" class="edge">
<title>&#45;1&#45;&gt;10</title>
<path fill="none" stroke="green" stroke-width="0.1" d="M365,-145.5C351.27,-135.92 327.96,-119.65 310.12,-107.2"/>
<polygon fill="green" stroke="green" stroke-width="0.1" points="312.07,-104.29 301.87,-101.44 308.07,-110.03 312.07,-104.29"/>
</g>
<!-- 13 -->
<g id="node18" class="node">
<title>13</title>
<ellipse fill="lightblue" stroke="black" cx="401.52" cy="-89.03" rx="20.51" ry="20.51"/>
<text text-anchor="middle" x="401.52" y="-86.83" font-family="Times,serif" font-size="9.00">13</text>
</g>
<!-- &#45;1&#45;&gt;13 -->
<g id="edge6" class="edge">
<title>&#45;1&#45;&gt;13</title>
<path fill="none" stroke="red" stroke-width="0.34" d="M379.69,-145.5C382.46,-138.46 386.64,-127.83 390.61,-117.75"/>
<polygon fill="red" stroke="red" stroke-width="0.34" points="393.89,-118.97 394.3,-108.38 387.38,-116.41 393.89,-118.97"/>
</g>
<!-- 14 -->
<g id="node19" class="node">
<title>14</title>
<ellipse fill="lightblue" stroke="black" cx="580.52" cy="-89.03" rx="20.51" ry="20.51"/>
<text text-anchor="middle" x="580.52" y="-86.83" font-family="Times,serif" font-size="9.00">14</text>
</g>
<!-- &#45;1&#45;&gt;14 -->
<g id="edge42" class="edge">
<title>&#45;1&#45;&gt;14</title>
<path fill="none" stroke="red" stroke-width="0.21" d="M389.66,-151.73C419.34,-147.31 493.42,-134.5 550.52,-109.54 552.13,-108.84 553.74,-108.05 555.35,-107.22"/>
<polygon fill="red" stroke="red" stroke-width="0.21" points="557.4,-110.07 564.26,-101.99 553.86,-104.03 557.4,-110.07"/>
</g>
<!-- 15 -->
<g id="node20" class="node">
<title>15</title>
<ellipse fill="lightblue" stroke="black" cx="208.52" cy="-89.03" rx="20.51" ry="20.51"/>
<text text-anchor="middle" x="208.52" y="-86.83" font-family="Times,serif" font-size="9.00">15</text>
</g>
<!-- &#45;1&#45;&gt;15 -->
<g id="edge4" class="edge">
<title>&#45;1&#45;&gt;15</title>
<path fill="none" stroke="red" stroke-width="0.23" d="M363.38,-148.98C341.09,-141.19 294.48,-124.7 255.52,-109.54 249.36,-107.14 242.79,-104.48 236.57,-101.91"/>
<polygon fill="red" stroke="red" stroke-width="0.23" points="237.78,-98.62 227.2,-98.01 235.09,-105.09 237.78,-98.62"/>
</g>
<!-- 17 -->
<g id="node22" class="node">
<title>17</title>
<ellipse fill="lightblue" stroke="black" cx="639.52" cy="-89.03" rx="20.51" ry="20.51"/>
<text text-anchor="middle" x="639.52" y="-86.83" font-family="Times,serif" font-size="9.00">17</text>
</g>
<!-- &#45;1&#45;&gt;17 -->
<g id="edge17" class="edge">
<title>&#45;1&#45;&gt;17</title>
<path fill="none" stroke="red" stroke-width="0.1" d="M389.73,-152.92C426.21,-150.81 530.97,-142.15 610.52,-109.54 611.93,-108.96 613.33,-108.31 614.73,-107.61"/>
<polygon fill="red" stroke="red" stroke-width="0.1" points="616.76,-110.48 623.62,-102.4 613.22,-104.44 616.76,-110.48"/>
</g>
<!-- &#45;2 -->
<g id="node2" class="node">
<title>&#45;2</title>
<polygon fill="lightgray" stroke="black" points="132.52,-163.54 106.52,-163.54 106.52,-145.54 132.52,-145.54 132.52,-163.54"/>
<text text-anchor="middle" x="119.52" y="-152.34" font-family="Times,serif" font-size="9.00">&#45;2</text>
</g>
<!-- &#45;2&#45;&gt;0 -->
<g id="edge14" class="edge">
<title>&#45;2&#45;&gt;0</title>
<path fill="none" stroke="red" stroke-width="0.44" d="M115.09,-145.5C110.55,-137.26 103.28,-124.07 96.97,-112.62"/>
<polygon fill="red" stroke="red" stroke-width="0.44" points="99.87,-110.63 91.98,-103.56 93.74,-114 99.87,-110.63"/>
</g>
<!-- 3 -->
<g id="node8" class="node">
<title>3</title>
<ellipse fill="lightblue" stroke="black" cx="153.52" cy="-89.03" rx="16.03" ry="16.03"/>
<text text-anchor="middle" x="153.52" y="-86.83" font-family="Times,serif" font-size="9.00">3</text>
</g>
<!-- &#45;2&#45;&gt;3 -->
<g id="edge29" class="edge">
<title>&#45;2&#45;&gt;3</title>
<path fill="none" stroke="green" stroke-width="0.2" d="M123.83,-145.5C128.19,-137.36 135.12,-124.4 141.2,-113.05"/>
<polygon fill="green" stroke="green" stroke-width="0.2" points="144.39,-114.51 146.02,-104.04 138.22,-111.21 144.39,-114.51"/>
</g>
<!-- &#45;2&#45;&gt;5 -->
<g id="edge11" class="edge">
<title>&#45;2&#45;&gt;5</title>
<path fill="none" stroke="green" stroke-width="0.34" d="M108.44,-145.47C96.38,-136.67 76.54,-122.16 59.52,-109.54 57.89,-108.33 56.21,-107.07 54.51,-105.81"/>
<polygon fill="green" stroke="green" stroke-width="0.34" points="56.3,-102.78 46.2,-99.59 52.11,-108.38 56.3,-102.78"/>
</g>
<!-- 9 -->
<g id="node14" class="node">
<title>9</title>
<ellipse fill="lightblue" stroke="black" cx="476.52" cy="-16.26" rx="16.03" ry="16.03"/>
<text text-anchor="middle" x="476.52" y="-14.06" font-family="Times,serif" font-size="9.00">9</text>
</g>
<!-- &#45;2&#45;&gt;9 -->
<g id="edge35" class="edge">
<title>&#45;2&#45;&gt;9</title>
<path fill="none" stroke="green" stroke-width="0.26" d="M106.37,-152.84C82.14,-150.75 30.89,-142.46 8.52,-109.54 -1.72,-94.46 -3.64,-82.1 8.52,-68.53 38.21,-35.41 355.65,-21.55 450.14,-18.14"/>
<polygon fill="green" stroke="green" stroke-width="0.26" points="450.41,-21.63 460.28,-17.78 450.17,-14.64 450.41,-21.63"/>
</g>
<!-- &#45;2&#45;&gt;13 -->
<g id="edge8" class="edge">
<title>&#45;2&#45;&gt;13</title>
<path fill="none" stroke="green" stroke-width="0.14" d="M132.63,-151.21C166.21,-145.15 258.02,-128.1 333.52,-109.54 346.25,-106.41 360.19,-102.5 372.11,-99"/>
<polygon fill="green" stroke="green" stroke-width="0.14" points="373.4,-102.27 381.99,-96.07 371.41,-95.56 373.4,-102.27"/>
</g>
<!-- &#45;2&#45;&gt;15 -->
<g id="edge40" class="edge">
<title>&#45;2&#45;&gt;15</title>
<path fill="none" stroke="green" stroke-width="0.12" d="M130.8,-145.5C144.02,-136.06 166.34,-120.13 183.68,-107.76"/>
<polygon fill="green" stroke="green" stroke-width="0.12" points="186.11,-110.33 192.22,-101.67 182.04,-104.63 186.11,-110.33"/>
</g>
<!-- &#45;3 -->
<g id="node3" class="node">
<title>&#45;3</title>
<polygon fill="lightgray" stroke="black" points="622.52,-163.54 596.52,-163.54 596.52,-145.54 622.52,-145.54 622.52,-163.54"/>
<text text-anchor="middle" x="609.52" y="-152.34" font-family="Times,serif" font-size="9.00">&#45;3</text>
</g>
<!-- &#45;3&#45;&gt;0 -->
<g id="edge43" class="edge">
<title>&#45;3&#45;&gt;0</title>
<path fill="none" stroke="red" stroke-width="0.33" d="M596.4,-152.92C528.94,-149.63 220.84,-133.53 128.52,-109.54 121.46,-107.7 114.09,-104.85 107.46,-101.89"/>
<polygon fill="red" stroke="red" stroke-width="0.33" points="108.9,-98.7 98.37,-97.57 105.9,-105.02 108.9,-98.7"/>
</g>
<!-- &#45;3&#45;&gt;1 -->
<g id="edge25" class="edge">
<title>&#45;3&#45;&gt;1</title>
<path fill="none" stroke="green" stroke-width="0.39" d="M596.38,-148.4C575.84,-140.33 534.91,-124.1 500.52,-109.54 494.06,-106.8 487.1,-103.76 480.67,-100.91"/>
<polygon fill="green" stroke="green" stroke-width="0.39" points="481.7,-97.54 471.14,-96.66 478.84,-103.93 481.7,-97.54"/>
</g>
<!-- 2 -->
<g id="node7" class="node">
<title>2</title>
<ellipse fill="lightblue" stroke="black" cx="840.52" cy="-89.03" rx="16.03" ry="16.03"/>
<text text-anchor="middle" x="840.52" y="-86.83" font-family="Times,serif" font-size="9.00">2</text>
</g>
<!-- &#45;3&#45;&gt;2 -->
<g id="edge30" class="edge">
<title>&#45;3&#45;&gt;2</title>
<path fill="none" stroke="green" stroke-width="0.36" d="M622.7,-152.77C656.36,-150.38 747.58,-141.23 815.52,-109.54 817.32,-108.7 819.11,-107.71 820.85,-106.63"/>
<polygon fill="green" stroke="green" stroke-width="0.36" points="822.96,-109.42 829.05,-100.75 818.88,-103.74 822.96,-109.42"/>
</g>
<!-- &#45;3&#45;&gt;3 -->
<g id="edge32" class="edge">
<title>&#45;3&#45;&gt;3</title>
<path fill="none" stroke="red" stroke-width="0.38" d="M596.4,-153.17C532.91,-151.26 257.39,-141.24 178.52,-109.54 176.68,-108.8 174.87,-107.88 173.11,-106.85"/>
<polygon fill="red" stroke="red" stroke-width="0.38" points="175.06,-103.95 164.87,-101.06 171.03,-109.67 175.06,-103.95"/>
</g>
<!-- &#45;3&#45;&gt;4 -->
<g id="edge7" class="edge">
<title>&#45;3&#45;&gt;4</title>
<path fill="none" stroke="red" stroke-width="0.34" d="M598.6,-145.5C586.71,-136.73 567.18,-122.25 550.52,-109.54 549.11,-108.46 547.65,-107.34 546.19,-106.21"/>
<polygon fill="red" stroke="red" stroke-width="0.34" points="547.99,-103.18 537.94,-99.81 543.7,-108.71 547.99,-103.18"/>
</g>
<!-- 8 -->
<g id="node13" class="node">
<title>8</title>
<ellipse fill="lightblue" stroke="black" cx="712.52" cy="-89.03" rx="16.03" ry="16.03"/>
<text text-anchor="middle" x="712.52" y="-86.83" font-family="Times,serif" font-size="9.00">8</text>
</g>
<!-- &#45;3&#45;&gt;8 -->
<g id="edge38" class="edge">
<title>&#45;3&#45;&gt;8</title>
<path fill="none" stroke="red" stroke-width="0.35" d="M622.57,-146.94C638.35,-138.79 665.53,-124.2 687.52,-109.54 689,-108.55 690.51,-107.5 692.01,-106.42"/>
<polygon fill="red" stroke="red" stroke-width="0.35" points="694.47,-108.95 700.33,-100.13 690.25,-103.37 694.47,-108.95"/>
</g>
<!-- 11 -->
<g id="node16" class="node">
<title>11</title>
<ellipse fill="lightblue" stroke="black" cx="895.52" cy="-89.03" rx="20.51" ry="20.51"/>
<text text-anchor="middle" x="895.52" y="-86.83" font-family="Times,serif" font-size="9.00">11</text>
</g>
<!-- &#45;3&#45;&gt;11 -->
<g id="edge39" class="edge">
<title>&#45;3&#45;&gt;11</title>
<path fill="none" stroke="red" stroke-width="0.27" d="M622.53,-153.14C661.02,-151.6 777.14,-144.16 865.52,-109.54 867.15,-108.9 868.79,-108.17 870.41,-107.36"/>
<polygon fill="red" stroke="red" stroke-width="0.27" points="872.42,-110.25 879.36,-102.24 868.94,-104.17 872.42,-110.25"/>
</g>
<!-- 12 -->
<g id="node17" class="node">
<title>12</title>
<ellipse fill="lightblue" stroke="black" cx="972.52" cy="-89.03" rx="20.51" ry="20.51"/>
<text text-anchor="middle" x="972.52" y="-86.83" font-family="Times,serif" font-size="9.00">12</text>
</g>
<!-- &#45;3&#45;&gt;12 -->
<g id="edge37" class="edge">
<title>&#45;3&#45;&gt;12</title>
<path fill="none" stroke="red" stroke-width="0.19" d="M622.78,-153.93C668.82,-154.83 825.36,-154.23 943.52,-109.54 944.94,-109 946.36,-108.38 947.77,-107.71"/>
<polygon fill="red" stroke="red" stroke-width="0.19" points="949.76,-110.6 956.69,-102.58 946.27,-104.53 949.76,-110.6"/>
</g>
<!-- &#45;3&#45;&gt;14 -->
<g id="edge36" class="edge">
<title>&#45;3&#45;&gt;14</title>
<path fill="none" stroke="green" stroke-width="0.31" d="M605.85,-145.5C602.56,-138.29 597.54,-127.3 592.84,-117"/>
<polygon fill="green" stroke="green" stroke-width="0.31" points="596,-115.5 588.66,-107.86 589.63,-118.41 596,-115.5"/>
</g>
<!-- &#45;3&#45;&gt;15 -->
<g id="edge9" class="edge">
<title>&#45;3&#45;&gt;15</title>
<path fill="none" stroke="red" stroke-width="0.2" d="M596.43,-153.18C549.47,-151.62 385.45,-143.9 255.52,-109.54 249.13,-107.85 242.47,-105.48 236.23,-102.98"/>
<polygon fill="red" stroke="red" stroke-width="0.2" points="237.45,-99.69 226.88,-99 234.71,-106.14 237.45,-99.69"/>
</g>
<!-- 16 -->
<g id="node21" class="node">
<title>16</title>
<ellipse fill="lightblue" stroke="black" cx="785.52" cy="-89.03" rx="20.51" ry="20.51"/>
<text text-anchor="middle" x="785.52" y="-86.83" font-family="Times,serif" font-size="9.00">16</text>
</g>
<!-- &#45;3&#45;&gt;16 -->
<g id="edge18" class="edge">
<title>&#45;3&#45;&gt;16</title>
<path fill="none" stroke="green" stroke-width="0.37" stroke-dasharray="1,5" d="M622.87,-150.85C649.12,-145.28 708.94,-131.16 755.52,-109.54 757.11,-108.8 758.71,-107.99 760.31,-107.13"/>
<polygon fill="green" stroke="green" stroke-width="0.37" points="762.39,-109.97 769.19,-101.84 758.81,-103.95 762.39,-109.97"/>
</g>
<!-- &#45;3&#45;&gt;17 -->
<g id="edge24" class="edge">
<title>&#45;3&#45;&gt;17</title>
<path fill="none" stroke="red" stroke-width="0.59" d="M613.32,-145.5C616.73,-138.29 621.92,-127.3 626.79,-117"/>
<polygon fill="red" stroke="red" stroke-width="0.59" points="630,-118.39 631.1,-107.86 623.67,-115.4 630,-118.39"/>
</g>
<!-- &#45;4 -->
<g id="node4" class="node">
<title>&#45;4</title>
<polygon fill="lightgray" stroke="black" points="985.52,-163.54 959.52,-163.54 959.52,-145.54 985.52,-145.54 985.52,-163.54"/>
<text text-anchor="middle" x="972.52" y="-152.34" font-family="Times,serif" font-size="9.00">&#45;4</text>
</g>
<!-- &#45;4&#45;&gt;2 -->
<g id="edge21" class="edge">
<title>&#45;4&#45;&gt;2</title>
<path fill="none" stroke="red" stroke-width="0.22" d="M959.48,-149.46C938.77,-142.71 897.48,-128.11 865.52,-109.54 863.99,-108.65 862.44,-107.67 860.91,-106.64"/>
<polygon fill="red" stroke="red" stroke-width="0.22" points="862.64,-103.57 852.51,-100.46 858.49,-109.2 862.64,-103.57"/>
</g>
<!-- &#45;4&#45;&gt;6 -->
<g id="edge1" class="edge">
<title>&#45;4&#45;&gt;6</title>
<path fill="none" stroke="red" stroke-width="0.31" stroke-dasharray="1,5" d="M985.71,-151.45C1006.13,-147.42 1044.79,-136.48 1061.52,-109.54 1075.55,-86.95 1060.88,-57.14 1047.56,-37.6"/>
<polygon fill="red" stroke="red" stroke-width="0.31" points="1050.34,-35.47 1041.65,-29.41 1044.67,-39.57 1050.34,-35.47"/>
</g>
<!-- 7 -->
<g id="node12" class="node">
<title>7</title>
<ellipse fill="lightblue" stroke="black" cx="1124.52" cy="-89.03" rx="16.03" ry="16.03"/>
<text text-anchor="middle" x="1124.52" y="-86.83" font-family="Times,serif" font-size="9.00">7</text>
</g>
<!-- &#45;4&#45;&gt;7 -->
<g id="edge5" class="edge">
<title>&#45;4&#45;&gt;7</title>
<path fill="none" stroke="red" stroke-width="0.54" d="M985.75,-149.86C1008.59,-143.28 1056.62,-128.38 1094.52,-109.54 1097.38,-108.12 1100.3,-106.48 1103.14,-104.78"/>
<polygon fill="red" stroke="red" stroke-width="0.54" points="1105.23,-107.59 1111.77,-99.26 1101.46,-101.7 1105.23,-107.59"/>
</g>
<!-- &#45;4&#45;&gt;11 -->
<g id="edge13" class="edge">
<title>&#45;4&#45;&gt;11</title>
<path fill="none" stroke="green" stroke-width="0.24" d="M962.77,-145.5C951.78,-136.43 933.52,-121.37 918.79,-109.23"/>
<polygon fill="green" stroke="green" stroke-width="0.24" points="920.99,-106.5 911.05,-102.84 916.54,-111.9 920.99,-106.5"/>
</g>
<!-- &#45;4&#45;&gt;12 -->
<g id="edge2" class="edge">
<title>&#45;4&#45;&gt;12</title>
<path fill="none" stroke="green" stroke-width="0.23" d="M972.52,-145.5C972.52,-138.93 972.52,-129.21 972.52,-119.74"/>
<polygon fill="green" stroke="green" stroke-width="0.23" points="976.02,-119.72 972.52,-109.72 969.02,-119.72 976.02,-119.72"/>
</g>
<!-- &#45;4&#45;&gt;13 -->
<g id="edge10" class="edge">
<title>&#45;4&#45;&gt;13</title>
<path fill="none" stroke="green" stroke-width="0.34" d="M959.15,-153.34C885.96,-152.1 533.64,-144.38 431.52,-109.54 429.67,-108.91 427.82,-108.14 426,-107.27"/>
<polygon fill="green" stroke="green" stroke-width="0.34" points="427.69,-104.2 417.27,-102.33 424.25,-110.3 427.69,-104.2"/>
</g>
<!-- 48 -->
<g id="node23" class="node">
<title>48</title>
<ellipse fill="white" stroke="black" cx="1031.52" cy="-89.03" rx="20.51" ry="20.51"/>
<text text-anchor="middle" x="1031.52" y="-86.83" font-family="Times,serif" font-size="9.00">48</text>
</g>
<!-- &#45;4&#45;&gt;48 -->
<g id="edge44" class="edge">
<title>&#45;4&#45;&gt;48</title>
<path fill="none" stroke="green" stroke-width="0.13" d="M980,-145.5C987.76,-137.14 1000.24,-123.71 1010.98,-112.15"/>
<polygon fill="green" stroke="green" stroke-width="0.13" points="1013.81,-114.24 1018.05,-104.54 1008.68,-109.48 1013.81,-114.24"/>
</g>
<!-- 0&#45;&gt;0 -->
<g id="edge28" class="edge">
<title>0&#45;&gt;0</title>
<path fill="none" stroke="green" stroke-width="0.36" d="M97.53,-99.35C107.99,-103.47 118.79,-100.03 118.79,-89.03 118.79,-81.64 113.91,-77.67 107.54,-77.1"/>
<polygon fill="green" stroke="green" stroke-width="0.36" points="106.85,-73.67 97.53,-78.72 107.96,-80.58 106.85,-73.67"/>
</g>
<!-- 1&#45;&gt;1 -->
<g id="edge12" class="edge">
<title>1&#45;&gt;1</title>
<path fill="none" stroke="green" stroke-width="0.37" d="M469.53,-99.35C479.99,-103.47 490.79,-100.03 490.79,-89.03 490.79,-81.64 485.91,-77.67 479.54,-77.1"/>
<polygon fill="green" stroke="green" stroke-width="0.37" points="478.85,-73.67 469.53,-78.72 479.96,-80.58 478.85,-73.67"/>
</g>
<!-- 6&#45;&gt;6 -->
<g id="edge41" class="edge">
<title>6&#45;&gt;6</title>
<path fill="none" stroke="red" stroke-width="0.3" d="M1043.46,-27.36C1054.24,-32.76 1065.79,-29.06 1065.79,-16.26 1065.79,-7.47 1060.33,-2.97 1053.42,-2.77"/>
<polygon fill="red" stroke="red" stroke-width="0.3" points="1052.37,0.58 1043.46,-5.17 1054,-6.23 1052.37,0.58"/>
</g>
<!-- 8&#45;&gt;8 -->
<g id="edge19" class="edge">
<title>8&#45;&gt;8</title>
<path fill="none" stroke="red" stroke-width="0.23" d="M725.53,-99.35C735.99,-103.47 746.79,-100.03 746.79,-89.03 746.79,-81.64 741.91,-77.67 735.54,-77.1"/>
<polygon fill="red" stroke="red" stroke-width="0.23" points="734.85,-73.67 725.53,-78.72 735.96,-80.58 734.85,-73.67"/>
</g>
<!-- 9&#45;&gt;9 -->
<g id="edge27" class="edge">
<title>9&#45;&gt;9</title>
<path fill="none" stroke="red" stroke-width="0.38" d="M488.46,-27.36C499.24,-32.76 510.79,-29.06 510.79,-16.26 510.79,-7.47 505.33,-2.97 498.42,-2.77"/>
<polygon fill="red" stroke="red" stroke-width="0.38" points="497.37,0.58 488.46,-5.17 499,-6.23 497.37,0.58"/>
</g>
<!-- 10&#45;&gt;10 -->
<g id="edge20" class="edge">
<title>10&#45;&gt;10</title>
<path fill="none" stroke="red" stroke-width="0.43" d="M302.95,-100.19C313.75,-102.88 324.03,-99.16 324.03,-89.03 324.03,-82.23 319.39,-78.32 313.07,-77.3"/>
<polygon fill="red" stroke="red" stroke-width="0.43" points="312.73,-73.82 302.95,-77.88 313.13,-80.8 312.73,-73.82"/>
</g>
<!-- 11&#45;&gt;11 -->
<g id="edge23" class="edge">
<title>11&#45;&gt;11</title>
<path fill="none" stroke="green" stroke-width="0.16" d="M912.95,-100.19C923.75,-102.88 934.03,-99.16 934.03,-89.03 934.03,-82.23 929.39,-78.32 923.07,-77.3"/>
<polygon fill="green" stroke="green" stroke-width="0.16" points="922.73,-73.82 912.95,-77.88 923.13,-80.8 922.73,-73.82"/>
</g>
<!-- 15&#45;&gt;15 -->
<g id="edge34" class="edge">
<title>15&#45;&gt;15</title>
<path fill="none" stroke="red" stroke-width="0.13" d="M225.95,-100.19C236.75,-102.88 247.03,-99.16 247.03,-89.03 247.03,-82.23 242.39,-78.32 236.07,-77.3"/>
<polygon fill="red" stroke="red" stroke-width="0.13" points="235.73,-73.82 225.95,-77.88 236.13,-80.8 235.73,-73.82"/>
</g>
<!-- 17&#45;&gt;17 -->
<g id="edge22" class="edge">
<title>17&#45;&gt;17</title>
<path fill="none" stroke="green" stroke-width="0.17" d="M656.95,-100.19C667.75,-102.88 678.03,-99.16 678.03,-89.03 678.03,-82.23 673.39,-78.32 667.07,-77.3"/>
<polygon fill="green" stroke="green" stroke-width="0.17" points="666.73,-73.82 656.95,-77.88 667.13,-80.8 666.73,-73.82"/>
</g>
<!-- 48&#45;&gt;6 -->
<g id="edge45" class="edge">
<title>48&#45;&gt;6</title>
<path fill="none" stroke="green" stroke-width="0.58" d="M1031.52,-68.32C1031.52,-60.38 1031.52,-51.13 1031.52,-42.69"/>
<polygon fill="green" stroke="green" stroke-width="0.58" points="1035.02,-42.61 1031.52,-32.61 1028.02,-42.61 1035.02,-42.61"/>
</g>
<!-- 48&#45;&gt;9 -->
<g id="edge46" class="edge">
<title>48&#45;&gt;9</title>
<path fill="none" stroke="green" stroke-width="0.75" d="M1016.03,-75.58C1011.87,-72.81 1007.21,-70.21 1002.52,-68.53 908.86,-34.9 596.23,-21.45 502.99,-18.13"/>
<polygon fill="green" stroke="green" stroke-width="0.75" points="502.85,-14.62 492.74,-17.78 502.61,-21.62 502.85,-14.62"/>
</g>
</g>
</svg>
