<?xml version="1.0" encoding="UTF-8" standalone="no"?>
<!DOCTYPE svg PUBLIC "-//W3C//DTD SVG 1.1//EN"
 "http://www.w3.org/Graphics/SVG/1.1/DTD/svg11.dtd">
<!-- Generated by graphviz version 2.43.0 (0)
 -->
<!-- Title: %3 Pages: 1 -->
<svg width="1112pt" height="228pt"
 viewBox="0.00 0.00 1112.25 228.49" xmlns="http://www.w3.org/2000/svg" xmlns:xlink="http://www.w3.org/1999/xlink">
<g id="graph0" class="graph" transform="scale(1 1) rotate(0) translate(4 224.49)">
<title>%3</title>
<polygon fill="white" stroke="transparent" points="-4,4 -4,-224.49 1108.25,-224.49 1108.25,4 -4,4"/>
<!-- &#45;1 -->
<g id="node1" class="node">
<title>&#45;1</title>
<polygon fill="lightgray" stroke="black" points="29.26,-200.5 3.26,-200.5 3.26,-182.5 29.26,-182.5 29.26,-200.5"/>
<text text-anchor="middle" x="16.26" y="-189.3" font-family="Times,serif" font-size="9.00">&#45;1</text>
</g>
<!-- &#45;2 -->
<g id="node2" class="node">
<title>&#45;2</title>
<polygon fill="lightgray" stroke="black" points="73.26,-200.5 47.26,-200.5 47.26,-182.5 73.26,-182.5 73.26,-200.5"/>
<text text-anchor="middle" x="60.26" y="-189.3" font-family="Times,serif" font-size="9.00">&#45;2</text>
</g>
<!-- 3 -->
<g id="node6" class="node">
<title>3</title>
<ellipse fill="lightblue" stroke="black" cx="16.26" cy="-97.52" rx="16.03" ry="16.03"/>
<text text-anchor="middle" x="16.26" y="-95.32" font-family="Times,serif" font-size="9.00">3</text>
</g>
<!-- &#45;2&#45;&gt;3 -->
<g id="edge2" class="edge">
<title>&#45;2&#45;&gt;3</title>
<path fill="none" stroke="green" stroke-width="0.56" d="M56.36,-182.34C49.92,-168.87 36.84,-141.53 27.36,-121.72"/>
<polygon fill="green" stroke="green" stroke-width="0.56" points="30.39,-119.94 22.92,-112.43 24.08,-122.97 30.39,-119.94"/>
</g>
<!-- 4 -->
<g id="node7" class="node">
<title>4</title>
<ellipse fill="lightblue" stroke="black" cx="88.26" cy="-16.26" rx="16.03" ry="16.03"/>
<text text-anchor="middle" x="88.26" y="-14.06" font-family="Times,serif" font-size="9.00">4</text>
</g>
<!-- &#45;2&#45;&gt;4 -->
<g id="edge1" class="edge">
<title>&#45;2&#45;&gt;4</title>
<path fill="none" stroke="red" stroke-width="0.35" stroke-dasharray="1,5" d="M61.46,-182.5C64.37,-163 72.15,-111.45 79.26,-68.53 80.68,-60 82.29,-50.69 83.76,-42.38"/>
<polygon fill="red" stroke="red" stroke-width="0.35" points="87.21,-42.96 85.51,-32.5 80.31,-41.74 87.21,-42.96"/>
</g>
<!-- 2691 -->
<g id="node23" class="node">
<title>2691</title>
<ellipse fill="white" stroke="black" cx="117.26" cy="-97.52" rx="28.98" ry="28.98"/>
<text text-anchor="middle" x="117.26" y="-95.32" font-family="Times,serif" font-size="9.00">2691</text>
</g>
<!-- &#45;2&#45;&gt;2691 -->
<g id="edge3" class="edge">
<title>&#45;2&#45;&gt;2691</title>
<path fill="none" stroke="green" stroke-width="0.49" d="M65.32,-182.34C72.39,-170.93 85.64,-149.55 96.99,-131.24"/>
<polygon fill="green" stroke="green" stroke-width="0.49" points="100.08,-132.9 102.37,-122.55 94.13,-129.21 100.08,-132.9"/>
</g>
<!-- 0 -->
<g id="node3" class="node">
<title>0</title>
<ellipse fill="lightblue" stroke="black" cx="107.26" cy="-191.5" rx="16.03" ry="16.03"/>
<text text-anchor="middle" x="107.26" y="-189.3" font-family="Times,serif" font-size="9.00">0</text>
</g>
<!-- 1 -->
<g id="node4" class="node">
<title>1</title>
<ellipse fill="lightblue" stroke="black" cx="158.26" cy="-191.5" rx="16.03" ry="16.03"/>
<text text-anchor="middle" x="158.26" y="-189.3" font-family="Times,serif" font-size="9.00">1</text>
</g>
<!-- 2 -->
<g id="node5" class="node">
<title>2</title>
<ellipse fill="lightblue" stroke="black" cx="209.26" cy="-191.5" rx="16.03" ry="16.03"/>
<text text-anchor="middle" x="209.26" y="-189.3" font-family="Times,serif" font-size="9.00">2</text>
</g>
<!-- 5 -->
<g id="node8" class="node">
<title>5</title>
<ellipse fill="lightblue" stroke="black" cx="260.26" cy="-191.5" rx="16.03" ry="16.03"/>
<text text-anchor="middle" x="260.26" y="-189.3" font-family="Times,serif" font-size="9.00">5</text>
</g>
<!-- 6 -->
<g id="node9" class="node">
<title>6</title>
<ellipse fill="lightblue" stroke="black" cx="311.26" cy="-191.5" rx="16.03" ry="16.03"/>
<text text-anchor="middle" x="311.26" y="-189.3" font-family="Times,serif" font-size="9.00">6</text>
</g>
<!-- 7 -->
<g id="node10" class="node">
<title>7</title>
<ellipse fill="lightblue" stroke="black" cx="362.26" cy="-191.5" rx="16.03" ry="16.03"/>
<text text-anchor="middle" x="362.26" y="-189.3" font-family="Times,serif" font-size="9.00">7</text>
</g>
<!-- 8 -->
<g id="node11" class="node">
<title>8</title>
<ellipse fill="lightblue" stroke="black" cx="413.26" cy="-191.5" rx="16.03" ry="16.03"/>
<text text-anchor="middle" x="413.26" y="-189.3" font-family="Times,serif" font-size="9.00">8</text>
</g>
<!-- 9 -->
<g id="node12" class="node">
<title>9</title>
<ellipse fill="lightblue" stroke="black" cx="464.26" cy="-191.5" rx="16.03" ry="16.03"/>
<text text-anchor="middle" x="464.26" y="-189.3" font-family="Times,serif" font-size="9.00">9</text>
</g>
<!-- 10 -->
<g id="node13" class="node">
<title>10</title>
<ellipse fill="lightblue" stroke="black" cx="519.26" cy="-191.5" rx="20.51" ry="20.51"/>
<text text-anchor="middle" x="519.26" y="-189.3" font-family="Times,serif" font-size="9.00">10</text>
</g>
<!-- 11 -->
<g id="node14" class="node">
<title>11</title>
<ellipse fill="lightblue" stroke="black" cx="578.26" cy="-191.5" rx="20.51" ry="20.51"/>
<text text-anchor="middle" x="578.26" y="-189.3" font-family="Times,serif" font-size="9.00">11</text>
</g>
<!-- 12 -->
<g id="node15" class="node">
<title>12</title>
<ellipse fill="lightblue" stroke="black" cx="637.26" cy="-191.5" rx="20.51" ry="20.51"/>
<text text-anchor="middle" x="637.26" y="-189.3" font-family="Times,serif" font-size="9.00">12</text>
</g>
<!-- 13 -->
<g id="node16" class="node">
<title>13</title>
<ellipse fill="lightblue" stroke="black" cx="696.26" cy="-191.5" rx="20.51" ry="20.51"/>
<text text-anchor="middle" x="696.26" y="-189.3" font-family="Times,serif" font-size="9.00">13</text>
</g>
<!-- 14 -->
<g id="node17" class="node">
<title>14</title>
<ellipse fill="lightblue" stroke="black" cx="755.26" cy="-191.5" rx="20.51" ry="20.51"/>
<text text-anchor="middle" x="755.26" y="-189.3" font-family="Times,serif" font-size="9.00">14</text>
</g>
<!-- 15 -->
<g id="node18" class="node">
<title>15</title>
<ellipse fill="lightblue" stroke="black" cx="814.26" cy="-191.5" rx="20.51" ry="20.51"/>
<text text-anchor="middle" x="814.26" y="-189.3" font-family="Times,serif" font-size="9.00">15</text>
</g>
<!-- 16 -->
<g id="node19" class="node">
<title>16</title>
<ellipse fill="lightblue" stroke="black" cx="873.26" cy="-191.5" rx="20.51" ry="20.51"/>
<text text-anchor="middle" x="873.26" y="-189.3" font-family="Times,serif" font-size="9.00">16</text>
</g>
<!-- 17 -->
<g id="node20" class="node">
<title>17</title>
<ellipse fill="lightblue" stroke="black" cx="932.26" cy="-191.5" rx="20.51" ry="20.51"/>
<text text-anchor="middle" x="932.26" y="-189.3" font-family="Times,serif" font-size="9.00">17</text>
</g>
<!-- 1787 -->
<g id="node21" class="node">
<title>1787</title>
<ellipse fill="white" stroke="black" cx="999.26" cy="-191.5" rx="28.98" ry="28.98"/>
<text text-anchor="middle" x="999.26" y="-189.3" font-family="Times,serif" font-size="9.00">1787</text>
</g>
<!-- 2521 -->
<g id="node22" class="node">
<title>2521</title>
<ellipse fill="white" stroke="black" cx="1075.26" cy="-191.5" rx="28.98" ry="28.98"/>
<text text-anchor="middle" x="1075.26" y="-189.3" font-family="Times,serif" font-size="9.00">2521</text>
</g>
<!-- 2691&#45;&gt;4 -->
<g id="edge4" class="edge">
<title>2691&#45;&gt;4</title>
<path fill="none" stroke="green" stroke-width="2.05" d="M107.61,-70.13C104.21,-60.84 100.41,-50.45 97.08,-41.36"/>
<polygon fill="green" stroke="green" stroke-width="2.05" points="100.29,-39.96 93.57,-31.77 93.72,-42.36 100.29,-39.96"/>
</g>
</g>
</svg>
