<?xml version="1.0" encoding="UTF-8" standalone="no"?>
<!DOCTYPE svg PUBLIC "-//W3C//DTD SVG 1.1//EN"
 "http://www.w3.org/Graphics/SVG/1.1/DTD/svg11.dtd">
<!-- Generated by graphviz version 2.43.0 (0)
 -->
<!-- Title: %3 Pages: 1 -->
<svg width="329pt" height="203pt"
 viewBox="0.00 0.00 328.53 203.04" xmlns="http://www.w3.org/2000/svg" xmlns:xlink="http://www.w3.org/1999/xlink">
<g id="graph0" class="graph" transform="scale(1 1) rotate(0) translate(4 199.04)">
<title>%3</title>
<polygon fill="white" stroke="transparent" points="-4,4 -4,-199.04 324.53,-199.04 324.53,4 -4,4"/>
<!-- &#45;1 -->
<g id="node1" class="node">
<title>&#45;1</title>
<polygon fill="lightgray" stroke="black" points="29.26,-187.77 3.26,-187.77 3.26,-169.77 29.26,-169.77 29.26,-187.77"/>
<text text-anchor="middle" x="16.26" y="-176.57" font-family="Times,serif" font-size="9.00">&#45;1</text>
</g>
<!-- &#45;2 -->
<g id="node2" class="node">
<title>&#45;2</title>
<polygon fill="lightgray" stroke="black" points="73.26,-187.77 47.26,-187.77 47.26,-169.77 73.26,-169.77 73.26,-187.77"/>
<text text-anchor="middle" x="60.26" y="-176.57" font-family="Times,serif" font-size="9.00">&#45;2</text>
</g>
<!-- 2 -->
<g id="node6" class="node">
<title>2</title>
<ellipse fill="lightblue" stroke="black" cx="16.26" cy="-97.52" rx="16.03" ry="16.03"/>
<text text-anchor="middle" x="16.26" y="-95.32" font-family="Times,serif" font-size="9.00">2</text>
</g>
<!-- &#45;2&#45;&gt;2 -->
<g id="edge2" class="edge">
<title>&#45;2&#45;&gt;2</title>
<path fill="none" stroke="green" stroke-width="0.58" d="M55.72,-169.59C49.41,-158.22 37.74,-137.2 28.72,-120.96"/>
<polygon fill="green" stroke="green" stroke-width="0.58" points="31.69,-119.1 23.78,-112.06 25.57,-122.5 31.69,-119.1"/>
</g>
<!-- 3 -->
<g id="node7" class="node">
<title>3</title>
<ellipse fill="lightblue" stroke="black" cx="88.26" cy="-16.26" rx="16.03" ry="16.03"/>
<text text-anchor="middle" x="88.26" y="-14.06" font-family="Times,serif" font-size="9.00">3</text>
</g>
<!-- &#45;2&#45;&gt;3 -->
<g id="edge1" class="edge">
<title>&#45;2&#45;&gt;3</title>
<path fill="none" stroke="green" stroke-width="0.12" stroke-dasharray="1,5" d="M61.69,-169.55C64.85,-151.35 72.67,-106.26 79.26,-68.53 80.75,-60.02 82.38,-50.71 83.84,-42.39"/>
<polygon fill="green" stroke="green" stroke-width="0.12" points="87.3,-42.97 85.58,-32.52 80.4,-41.76 87.3,-42.97"/>
</g>
<!-- 1218 -->
<g id="node10" class="node">
<title>1218</title>
<ellipse fill="white" stroke="black" cx="117.26" cy="-97.52" rx="28.98" ry="28.98"/>
<text text-anchor="middle" x="117.26" y="-95.32" font-family="Times,serif" font-size="9.00">1218</text>
</g>
<!-- &#45;2&#45;&gt;1218 -->
<g id="edge3" class="edge">
<title>&#45;2&#45;&gt;1218</title>
<path fill="none" stroke="green" stroke-width="0.32" d="M66.15,-169.59C72.9,-160.2 84.38,-144.24 94.75,-129.82"/>
<polygon fill="green" stroke="green" stroke-width="0.32" points="97.69,-131.73 100.69,-121.57 92.01,-127.64 97.69,-131.73"/>
</g>
<!-- &#45;3 -->
<g id="node3" class="node">
<title>&#45;3</title>
<polygon fill="lightgray" stroke="black" points="117.26,-187.77 91.26,-187.77 91.26,-169.77 117.26,-169.77 117.26,-187.77"/>
<text text-anchor="middle" x="104.26" y="-176.57" font-family="Times,serif" font-size="9.00">&#45;3</text>
</g>
<!-- 0 -->
<g id="node4" class="node">
<title>0</title>
<ellipse fill="lightblue" stroke="black" cx="151.26" cy="-178.77" rx="16.03" ry="16.03"/>
<text text-anchor="middle" x="151.26" y="-176.57" font-family="Times,serif" font-size="9.00">0</text>
</g>
<!-- 1 -->
<g id="node5" class="node">
<title>1</title>
<ellipse fill="lightblue" stroke="black" cx="202.26" cy="-178.77" rx="16.03" ry="16.03"/>
<text text-anchor="middle" x="202.26" y="-176.57" font-family="Times,serif" font-size="9.00">1</text>
</g>
<!-- 4 -->
<g id="node8" class="node">
<title>4</title>
<ellipse fill="lightblue" stroke="black" cx="253.26" cy="-178.77" rx="16.03" ry="16.03"/>
<text text-anchor="middle" x="253.26" y="-176.57" font-family="Times,serif" font-size="9.00">4</text>
</g>
<!-- 5 -->
<g id="node9" class="node">
<title>5</title>
<ellipse fill="lightblue" stroke="black" cx="304.26" cy="-178.77" rx="16.03" ry="16.03"/>
<text text-anchor="middle" x="304.26" y="-176.57" font-family="Times,serif" font-size="9.00">5</text>
</g>
<!-- 1218&#45;&gt;3 -->
<g id="edge4" class="edge">
<title>1218&#45;&gt;3</title>
<path fill="none" stroke="green" stroke-width="1.98" d="M107.61,-70.13C104.21,-60.84 100.41,-50.45 97.08,-41.36"/>
<polygon fill="green" stroke="green" stroke-width="1.98" points="100.29,-39.96 93.57,-31.77 93.72,-42.36 100.29,-39.96"/>
</g>
</g>
</svg>
