<?xml version="1.0" encoding="UTF-8" standalone="no"?>
<!DOCTYPE svg PUBLIC "-//W3C//DTD SVG 1.1//EN"
 "http://www.w3.org/Graphics/SVG/1.1/DTD/svg11.dtd">
<!-- Generated by graphviz version 2.43.0 (0)
 -->
<!-- Title: %3 Pages: 1 -->
<svg width="371pt" height="355pt"
 viewBox="0.00 0.00 371.23 355.00" xmlns="http://www.w3.org/2000/svg" xmlns:xlink="http://www.w3.org/1999/xlink">
<g id="graph0" class="graph" transform="scale(1 1) rotate(0) translate(4 351)">
<title>%3</title>
<polygon fill="white" stroke="transparent" points="-4,4 -4,-351 367.23,-351 367.23,4 -4,4"/>
<!-- player_x -->
<g id="node1" class="node">
<title>player_x</title>
<polygon fill="lightgray" stroke="black" points="226.94,-327.72 170.94,-327.72 170.94,-309.72 226.94,-309.72 226.94,-327.72"/>
<text text-anchor="middle" x="198.94" y="-316.52" font-family="Times,serif" font-size="9.00">player_x</text>
</g>
<!-- player_y -->
<g id="node2" class="node">
<title>player_y</title>
<polygon fill="lightgray" stroke="black" points="212.94,-238.68 156.94,-238.68 156.94,-220.68 212.94,-220.68 212.94,-238.68"/>
<text text-anchor="middle" x="184.94" y="-227.48" font-family="Times,serif" font-size="9.00">player_y</text>
</g>
<!-- LEFT -->
<g id="node8" class="node">
<title>LEFT</title>
<ellipse fill="lightblue" stroke="black" cx="152.94" cy="-134.99" rx="28.98" ry="28.98"/>
<text text-anchor="middle" x="152.94" y="-132.79" font-family="Times,serif" font-size="9.00">LEFT</text>
</g>
<!-- player_y&#45;&gt;LEFT -->
<g id="edge4" class="edge">
<title>player_y&#45;&gt;LEFT</title>
<path fill="none" stroke="red" stroke-width="0.62" d="M182.1,-220.46C178.36,-209.62 171.53,-189.85 165.43,-172.16"/>
<polygon fill="red" stroke="red" stroke-width="0.62" points="168.7,-170.93 162.13,-162.62 162.09,-173.21 168.7,-170.93"/>
</g>
<!-- 714 -->
<g id="node10" class="node">
<title>714</title>
<ellipse fill="white" stroke="black" cx="224.94" cy="-134.99" rx="25" ry="25"/>
<text text-anchor="middle" x="224.94" y="-132.79" font-family="Times,serif" font-size="9.00">714</text>
</g>
<!-- player_y&#45;&gt;714 -->
<g id="edge9" class="edge">
<title>player_y&#45;&gt;714</title>
<path fill="none" stroke="green" stroke-width="0.28" d="M188.49,-220.46C193.6,-208.61 203.32,-186.1 211.43,-167.3"/>
<polygon fill="green" stroke="green" stroke-width="0.28" points="214.75,-168.45 215.5,-157.88 208.32,-165.67 214.75,-168.45"/>
</g>
<!-- ball_x -->
<g id="node3" class="node">
<title>ball_x</title>
<polygon fill="lightgray" stroke="black" points="288.94,-327.72 244.94,-327.72 244.94,-309.72 288.94,-309.72 288.94,-327.72"/>
<text text-anchor="middle" x="266.94" y="-316.52" font-family="Times,serif" font-size="9.00">ball_x</text>
</g>
<!-- 384 -->
<g id="node9" class="node">
<title>384</title>
<ellipse fill="white" stroke="black" cx="266.94" cy="-229.68" rx="25" ry="25"/>
<text text-anchor="middle" x="266.94" y="-227.48" font-family="Times,serif" font-size="9.00">384</text>
</g>
<!-- ball_x&#45;&gt;384 -->
<g id="edge5" class="edge">
<title>ball_x&#45;&gt;384</title>
<path fill="none" stroke="red" stroke-width="0.34" stroke-dasharray="1,5" d="M266.94,-309.69C266.94,-299.54 266.94,-281.42 266.94,-265.09"/>
<polygon fill="red" stroke="red" stroke-width="0.34" points="270.44,-264.73 266.94,-254.73 263.44,-264.73 270.44,-264.73"/>
</g>
<!-- ball_y -->
<g id="node4" class="node">
<title>ball_y</title>
<polygon fill="lightgray" stroke="black" points="117.94,-238.68 73.94,-238.68 73.94,-220.68 117.94,-220.68 117.94,-238.68"/>
<text text-anchor="middle" x="95.94" y="-227.48" font-family="Times,serif" font-size="9.00">ball_y</text>
</g>
<!-- NOOP -->
<g id="node5" class="node">
<title>NOOP</title>
<ellipse fill="lightblue" stroke="black" cx="224.94" cy="-32.53" rx="32.55" ry="32.55"/>
<text text-anchor="middle" x="224.94" y="-30.33" font-family="Times,serif" font-size="9.00">NOOP</text>
</g>
<!-- ball_y&#45;&gt;NOOP -->
<g id="edge2" class="edge">
<title>ball_y&#45;&gt;NOOP</title>
<path fill="none" stroke="green" stroke-width="0.33" d="M94.92,-220.39C92.7,-198.74 89.5,-139.55 114.94,-101.05 131.47,-76.05 160.75,-58.74 184.95,-47.91"/>
<polygon fill="green" stroke="green" stroke-width="0.33" points="186.45,-51.08 194.27,-43.94 183.7,-44.64 186.45,-51.08"/>
</g>
<!-- RIGHT -->
<g id="node7" class="node">
<title>RIGHT</title>
<ellipse fill="lightblue" stroke="black" cx="33.94" cy="-134.99" rx="33.88" ry="33.88"/>
<text text-anchor="middle" x="33.94" y="-132.79" font-family="Times,serif" font-size="9.00">RIGHT</text>
</g>
<!-- ball_y&#45;&gt;RIGHT -->
<g id="edge8" class="edge">
<title>ball_y&#45;&gt;RIGHT</title>
<path fill="none" stroke="green" stroke-width="0.17" d="M90.44,-220.46C83.21,-209.65 70.03,-189.95 58.22,-172.29"/>
<polygon fill="green" stroke="green" stroke-width="0.17" points="61.04,-170.21 52.57,-163.84 55.22,-174.1 61.04,-170.21"/>
</g>
<!-- ball_y&#45;&gt;LEFT -->
<g id="edge1" class="edge">
<title>ball_y&#45;&gt;LEFT</title>
<path fill="none" stroke="green" stroke-width="0.7" d="M101,-220.46C108.07,-208.96 121.32,-187.42 132.67,-168.97"/>
<polygon fill="green" stroke="green" stroke-width="0.7" points="135.79,-170.57 138.05,-160.21 129.83,-166.9 135.79,-170.57"/>
</g>
<!-- FIRE -->
<g id="node6" class="node">
<title>FIRE</title>
<ellipse fill="lightblue" stroke="black" cx="334.94" cy="-318.72" rx="28.07" ry="28.07"/>
<text text-anchor="middle" x="334.94" y="-316.52" font-family="Times,serif" font-size="9.00">FIRE</text>
</g>
<!-- 384&#45;&gt;NOOP -->
<g id="edge3" class="edge">
<title>384&#45;&gt;NOOP</title>
<path fill="none" stroke="red" stroke-width="0.22" d="M268.27,-204.7C269.07,-178.69 268.46,-136.2 258.94,-101.05 256.05,-90.4 251.39,-79.45 246.44,-69.56"/>
<polygon fill="red" stroke="red" stroke-width="0.22" points="249.39,-67.66 241.64,-60.44 243.2,-70.92 249.39,-67.66"/>
</g>
<!-- 384&#45;&gt;714 -->
<g id="edge6" class="edge">
<title>384&#45;&gt;714</title>
<path fill="none" stroke="green" stroke-width="0.19" stroke-dasharray="1,5" d="M256.99,-206.72C251.65,-194.94 244.99,-180.24 239.12,-167.29"/>
<polygon fill="green" stroke="green" stroke-width="0.19" points="242.14,-165.47 234.82,-157.8 235.76,-168.36 242.14,-165.47"/>
</g>
<!-- 714&#45;&gt;NOOP -->
<g id="edge7" class="edge">
<title>714&#45;&gt;NOOP</title>
<path fill="none" stroke="green" stroke-width="0.22" stroke-dasharray="1,5" d="M224.94,-110.19C224.94,-99.77 224.94,-87.24 224.94,-75.36"/>
<polygon fill="green" stroke="green" stroke-width="0.22" points="228.44,-75.15 224.94,-65.15 221.44,-75.15 228.44,-75.15"/>
</g>
</g>
</svg>
