<?xml version="1.0" encoding="UTF-8" standalone="no"?>
<!DOCTYPE svg PUBLIC "-//W3C//DTD SVG 1.1//EN"
 "http://www.w3.org/Graphics/SVG/1.1/DTD/svg11.dtd">
<!-- Generated by graphviz version 2.43.0 (0)
 -->
<!-- Title: %3 Pages: 1 -->
<svg width="2042pt" height="393pt"
 viewBox="0.00 0.00 2041.59 392.54" xmlns="http://www.w3.org/2000/svg" xmlns:xlink="http://www.w3.org/1999/xlink">
<g id="graph0" class="graph" transform="scale(1 1) rotate(0) translate(4 388.54)">
<title>%3</title>
<polygon fill="white" stroke="transparent" points="-4,4 -4,-388.54 2037.59,-388.54 2037.59,4 -4,4"/>
<!-- player_x -->
<g id="node1" class="node">
<title>player_x</title>
<polygon fill="lightgray" stroke="black" points="56,-320 0,-320 0,-302 56,-302 56,-320"/>
<text text-anchor="middle" x="28" y="-308.8" font-family="Times,serif" font-size="9.00">player_x</text>
</g>
<!-- player_y -->
<g id="node2" class="node">
<title>player_y</title>
<polygon fill="lightgray" stroke="black" points="130,-320 74,-320 74,-302 130,-302 130,-320"/>
<text text-anchor="middle" x="102" y="-308.8" font-family="Times,serif" font-size="9.00">player_y</text>
</g>
<!-- 997 -->
<g id="node22" class="node">
<title>997</title>
<ellipse fill="white" stroke="black" cx="102" cy="-151.26" rx="25" ry="25"/>
<text text-anchor="middle" x="102" y="-149.06" font-family="Times,serif" font-size="9.00">997</text>
</g>
<!-- player_y&#45;&gt;997 -->
<g id="edge2" class="edge">
<title>player_y&#45;&gt;997</title>
<path fill="none" stroke="green" stroke-width="0.26" d="M102,-301.96C102,-281.05 102,-223.98 102,-186.65"/>
<polygon fill="green" stroke="green" stroke-width="0.26" points="105.5,-186.23 102,-176.23 98.5,-186.23 105.5,-186.23"/>
</g>
<!-- ball_x -->
<g id="node3" class="node">
<title>ball_x</title>
<polygon fill="lightgray" stroke="black" points="217,-320 173,-320 173,-302 217,-302 217,-320"/>
<text text-anchor="middle" x="195" y="-308.8" font-family="Times,serif" font-size="9.00">ball_x</text>
</g>
<!-- RIGHTFIRE -->
<g id="node9" class="node">
<title>RIGHTFIRE</title>
<ellipse fill="lightblue" stroke="black" cx="195" cy="-151.26" rx="50.41" ry="50.41"/>
<text text-anchor="middle" x="195" y="-149.06" font-family="Times,serif" font-size="9.00">RIGHTFIRE</text>
</g>
<!-- ball_x&#45;&gt;RIGHTFIRE -->
<g id="edge1" class="edge">
<title>ball_x&#45;&gt;RIGHTFIRE</title>
<path fill="none" stroke="green" stroke-width="0.55" d="M195,-301.96C195,-285.41 195,-246.19 195,-212.05"/>
<polygon fill="green" stroke="green" stroke-width="0.55" points="198.5,-211.64 195,-201.64 191.5,-211.64 198.5,-211.64"/>
</g>
<!-- ball_y -->
<g id="node4" class="node">
<title>ball_y</title>
<polygon fill="lightgray" stroke="black" points="279,-320 235,-320 235,-302 279,-302 279,-320"/>
<text text-anchor="middle" x="257" y="-308.8" font-family="Times,serif" font-size="9.00">ball_y</text>
</g>
<!-- NOOP -->
<g id="node5" class="node">
<title>NOOP</title>
<ellipse fill="lightblue" stroke="black" cx="102" cy="-32.53" rx="32.55" ry="32.55"/>
<text text-anchor="middle" x="102" y="-30.33" font-family="Times,serif" font-size="9.00">NOOP</text>
</g>
<!-- FIRE -->
<g id="node6" class="node">
<title>FIRE</title>
<ellipse fill="lightblue" stroke="black" cx="325" cy="-311" rx="28.07" ry="28.07"/>
<text text-anchor="middle" x="325" y="-308.8" font-family="Times,serif" font-size="9.00">FIRE</text>
</g>
<!-- RIGHT -->
<g id="node7" class="node">
<title>RIGHT</title>
<ellipse fill="lightblue" stroke="black" cx="405" cy="-311" rx="33.88" ry="33.88"/>
<text text-anchor="middle" x="405" y="-308.8" font-family="Times,serif" font-size="9.00">RIGHT</text>
</g>
<!-- LEFT -->
<g id="node8" class="node">
<title>LEFT</title>
<ellipse fill="lightblue" stroke="black" cx="486" cy="-311" rx="28.98" ry="28.98"/>
<text text-anchor="middle" x="486" y="-308.8" font-family="Times,serif" font-size="9.00">LEFT</text>
</g>
<!-- LEFTRIGHTFIRE -->
<g id="node10" class="node">
<title>LEFTRIGHTFIRE</title>
<ellipse fill="lightblue" stroke="black" cx="601" cy="-311" rx="67.76" ry="67.76"/>
<text text-anchor="middle" x="601" y="-308.8" font-family="Times,serif" font-size="9.00">LEFTRIGHTFIRE</text>
</g>
<!-- UPRIGHT -->
<g id="node11" class="node">
<title>UPRIGHT</title>
<ellipse fill="lightblue" stroke="black" cx="731" cy="-311" rx="43.68" ry="43.68"/>
<text text-anchor="middle" x="731" y="-308.8" font-family="Times,serif" font-size="9.00">UPRIGHT</text>
</g>
<!-- UPLEFT -->
<g id="node12" class="node">
<title>UPLEFT</title>
<ellipse fill="lightblue" stroke="black" cx="832" cy="-311" rx="38.78" ry="38.78"/>
<text text-anchor="middle" x="832" y="-308.8" font-family="Times,serif" font-size="9.00">UPLEFT</text>
</g>
<!-- DOWNRIGHT -->
<g id="node13" class="node">
<title>DOWNRIGHT</title>
<ellipse fill="lightblue" stroke="black" cx="945" cy="-311" rx="56.64" ry="56.64"/>
<text text-anchor="middle" x="945" y="-308.8" font-family="Times,serif" font-size="9.00">DOWNRIGHT</text>
</g>
<!-- DOWNLEFT -->
<g id="node14" class="node">
<title>DOWNLEFT</title>
<ellipse fill="lightblue" stroke="black" cx="1072" cy="-311" rx="52.15" ry="52.15"/>
<text text-anchor="middle" x="1072" y="-308.8" font-family="Times,serif" font-size="9.00">DOWNLEFT</text>
</g>
<!-- UPFIRE -->
<g id="node15" class="node">
<title>UPFIRE</title>
<ellipse fill="lightblue" stroke="black" cx="1180" cy="-311" rx="37.45" ry="37.45"/>
<text text-anchor="middle" x="1180" y="-308.8" font-family="Times,serif" font-size="9.00">UPFIRE</text>
</g>
<!-- LEFTFIRE -->
<g id="node16" class="node">
<title>LEFTFIRE</title>
<ellipse fill="lightblue" stroke="black" cx="1281" cy="-311" rx="45.92" ry="45.92"/>
<text text-anchor="middle" x="1281" y="-308.8" font-family="Times,serif" font-size="9.00">LEFTFIRE</text>
</g>
<!-- DOWNFIRE -->
<g id="node17" class="node">
<title>DOWNFIRE</title>
<ellipse fill="lightblue" stroke="black" cx="1396" cy="-311" rx="50.82" ry="50.82"/>
<text text-anchor="middle" x="1396" y="-308.8" font-family="Times,serif" font-size="9.00">DOWNFIRE</text>
</g>
<!-- UPRIGHTFIRE -->
<g id="node18" class="node">
<title>UPRIGHTFIRE</title>
<ellipse fill="lightblue" stroke="black" cx="1525" cy="-311" rx="60.21" ry="60.21"/>
<text text-anchor="middle" x="1525" y="-308.8" font-family="Times,serif" font-size="9.00">UPRIGHTFIRE</text>
</g>
<!-- UPLEFTFIRE -->
<g id="node19" class="node">
<title>UPLEFTFIRE</title>
<ellipse fill="lightblue" stroke="black" cx="1658" cy="-311" rx="55.31" ry="55.31"/>
<text text-anchor="middle" x="1658" y="-308.8" font-family="Times,serif" font-size="9.00">UPLEFTFIRE</text>
</g>
<!-- DOWNRIGHTFIRE -->
<g id="node20" class="node">
<title>DOWNRIGHTFIRE</title>
<ellipse fill="lightblue" stroke="black" cx="1805" cy="-311" rx="73.58" ry="73.58"/>
<text text-anchor="middle" x="1805" y="-308.8" font-family="Times,serif" font-size="9.00">DOWNRIGHTFIRE</text>
</g>
<!-- DOWNLEFTFIRE -->
<g id="node21" class="node">
<title>DOWNLEFTFIRE</title>
<ellipse fill="lightblue" stroke="black" cx="1965" cy="-311" rx="68.68" ry="68.68"/>
<text text-anchor="middle" x="1965" y="-308.8" font-family="Times,serif" font-size="9.00">DOWNLEFTFIRE</text>
</g>
<!-- 997&#45;&gt;NOOP -->
<g id="edge3" class="edge">
<title>997&#45;&gt;NOOP</title>
<path fill="none" stroke="green" stroke-width="0.52" d="M102,-126.35C102,-111.77 102,-92.72 102,-75.67"/>
<polygon fill="green" stroke="green" stroke-width="0.52" points="105.5,-75.37 102,-65.37 98.5,-75.37 105.5,-75.37"/>
</g>
</g>
</svg>
