<?xml version="1.0" encoding="UTF-8" standalone="no"?>
<!DOCTYPE svg PUBLIC "-//W3C//DTD SVG 1.1//EN"
 "http://www.w3.org/Graphics/SVG/1.1/DTD/svg11.dtd">
<!-- Generated by graphviz version 2.43.0 (0)
 -->
<!-- Title: %3 Pages: 1 -->
<svg width="421pt" height="355pt"
 viewBox="0.00 0.00 420.75 355.00" xmlns="http://www.w3.org/2000/svg" xmlns:xlink="http://www.w3.org/1999/xlink">
<g id="graph0" class="graph" transform="scale(1 1) rotate(0) translate(4 351)">
<title>%3</title>
<polygon fill="white" stroke="transparent" points="-4,4 -4,-351 416.75,-351 416.75,4 -4,4"/>
<!-- player_x -->
<g id="node1" class="node">
<title>player_x</title>
<polygon fill="lightgray" stroke="black" points="56,-327.72 0,-327.72 0,-309.72 56,-309.72 56,-327.72"/>
<text text-anchor="middle" x="28" y="-316.52" font-family="Times,serif" font-size="9.00">player_x</text>
</g>
<!-- player_y -->
<g id="node2" class="node">
<title>player_y</title>
<polygon fill="lightgray" stroke="black" points="130,-327.72 74,-327.72 74,-309.72 130,-309.72 130,-327.72"/>
<text text-anchor="middle" x="102" y="-316.52" font-family="Times,serif" font-size="9.00">player_y</text>
</g>
<!-- RIGHT -->
<g id="node7" class="node">
<title>RIGHT</title>
<ellipse fill="lightblue" stroke="black" cx="67" cy="-220.49" rx="33.88" ry="33.88"/>
<text text-anchor="middle" x="67" y="-218.29" font-family="Times,serif" font-size="9.00">RIGHT</text>
</g>
<!-- player_y&#45;&gt;RIGHT -->
<g id="edge5" class="edge">
<title>player_y&#45;&gt;RIGHT</title>
<path fill="none" stroke="green" stroke-width="0.89" d="M99.02,-309.51C95.19,-299.01 88.3,-280.04 81.88,-262.4"/>
<polygon fill="green" stroke="green" stroke-width="0.89" points="85.09,-261 78.39,-252.8 78.52,-263.39 85.09,-261"/>
</g>
<!-- LEFT -->
<g id="node8" class="node">
<title>LEFT</title>
<ellipse fill="lightblue" stroke="black" cx="148" cy="-220.49" rx="28.98" ry="28.98"/>
<text text-anchor="middle" x="148" y="-218.29" font-family="Times,serif" font-size="9.00">LEFT</text>
</g>
<!-- player_y&#45;&gt;LEFT -->
<g id="edge1" class="edge">
<title>player_y&#45;&gt;LEFT</title>
<path fill="none" stroke="green" stroke-width="0.34" d="M105.92,-309.51C111.56,-297.72 122.29,-275.26 131.51,-255.99"/>
<polygon fill="green" stroke="green" stroke-width="0.34" points="134.73,-257.37 135.88,-246.84 128.41,-254.35 134.73,-257.37"/>
</g>
<!-- ball_x -->
<g id="node3" class="node">
<title>ball_x</title>
<polygon fill="lightgray" stroke="black" points="289,-327.72 245,-327.72 245,-309.72 289,-309.72 289,-327.72"/>
<text text-anchor="middle" x="267" y="-316.52" font-family="Times,serif" font-size="9.00">ball_x</text>
</g>
<!-- ball_y -->
<g id="node4" class="node">
<title>ball_y</title>
<polygon fill="lightgray" stroke="black" points="227,-327.72 183,-327.72 183,-309.72 227,-309.72 227,-327.72"/>
<text text-anchor="middle" x="205" y="-316.52" font-family="Times,serif" font-size="9.00">ball_y</text>
</g>
<!-- ball_y&#45;&gt;LEFT -->
<g id="edge2" class="edge">
<title>ball_y&#45;&gt;LEFT</title>
<path fill="none" stroke="green" stroke-width="0.64" d="M200.14,-309.51C193,-297.45 179.25,-274.25 167.67,-254.69"/>
<polygon fill="green" stroke="green" stroke-width="0.64" points="170.64,-252.84 162.53,-246.02 164.61,-256.41 170.64,-252.84"/>
</g>
<!-- 1299 -->
<g id="node11" class="node">
<title>1299</title>
<ellipse fill="white" stroke="black" cx="233" cy="-118.02" rx="28.98" ry="28.98"/>
<text text-anchor="middle" x="233" y="-115.82" font-family="Times,serif" font-size="9.00">1299</text>
</g>
<!-- ball_y&#45;&gt;1299 -->
<g id="edge6" class="edge">
<title>ball_y&#45;&gt;1299</title>
<path fill="none" stroke="green" stroke-width="0.33" stroke-dasharray="1,5" d="M206.13,-309.68C209.71,-284.32 220.91,-204.8 227.67,-156.84"/>
<polygon fill="green" stroke="green" stroke-width="0.33" points="231.15,-157.21 229.08,-146.82 224.22,-156.24 231.15,-157.21"/>
</g>
<!-- 1498 -->
<g id="node12" class="node">
<title>1498</title>
<ellipse fill="white" stroke="black" cx="262" cy="-220.49" rx="28.98" ry="28.98"/>
<text text-anchor="middle" x="262" y="-218.29" font-family="Times,serif" font-size="9.00">1498</text>
</g>
<!-- ball_y&#45;&gt;1498 -->
<g id="edge7" class="edge">
<title>ball_y&#45;&gt;1498</title>
<path fill="none" stroke="green" stroke-width="0.28" d="M209.86,-309.51C217,-297.45 230.75,-274.25 242.33,-254.69"/>
<polygon fill="green" stroke="green" stroke-width="0.28" points="245.39,-256.41 247.47,-246.02 239.36,-252.84 245.39,-256.41"/>
</g>
<!-- NOOP -->
<g id="node5" class="node">
<title>NOOP</title>
<ellipse fill="lightblue" stroke="black" cx="313" cy="-118.02" rx="32.55" ry="32.55"/>
<text text-anchor="middle" x="313" y="-115.82" font-family="Times,serif" font-size="9.00">NOOP</text>
</g>
<!-- 230 -->
<g id="node9" class="node">
<title>230</title>
<ellipse fill="white" stroke="black" cx="313" cy="-24.75" rx="25" ry="25"/>
<text text-anchor="middle" x="313" y="-22.55" font-family="Times,serif" font-size="9.00">230</text>
</g>
<!-- NOOP&#45;&gt;230 -->
<g id="edge3" class="edge">
<title>NOOP&#45;&gt;230</title>
<path fill="none" stroke="green" stroke-width="0.16" stroke-dasharray="1,5" d="M313,-85.36C313,-77.1 313,-68.17 313,-59.8"/>
<polygon fill="green" stroke="green" stroke-width="0.16" points="316.5,-59.59 313,-49.59 309.5,-59.59 316.5,-59.59"/>
</g>
<!-- FIRE -->
<g id="node6" class="node">
<title>FIRE</title>
<ellipse fill="lightblue" stroke="black" cx="335" cy="-318.72" rx="28.07" ry="28.07"/>
<text text-anchor="middle" x="335" y="-316.52" font-family="Times,serif" font-size="9.00">FIRE</text>
</g>
<!-- 930 -->
<g id="node10" class="node">
<title>930</title>
<ellipse fill="white" stroke="black" cx="388" cy="-118.02" rx="25" ry="25"/>
<text text-anchor="middle" x="388" y="-115.82" font-family="Times,serif" font-size="9.00">930</text>
</g>
<!-- 930&#45;&gt;230 -->
<g id="edge4" class="edge">
<title>930&#45;&gt;230</title>
<path fill="none" stroke="green" stroke-width="0.59" d="M372.46,-98.11C361.53,-84.81 346.75,-66.82 334.66,-52.11"/>
<polygon fill="green" stroke="green" stroke-width="0.59" points="337.32,-49.83 328.26,-44.32 331.91,-54.27 337.32,-49.83"/>
</g>
<!-- 1299&#45;&gt;230 -->
<g id="edge9" class="edge">
<title>1299&#45;&gt;230</title>
<path fill="none" stroke="green" stroke-width="0.34" d="M251.96,-95.39C263.47,-82.26 278.23,-65.42 290.35,-51.59"/>
<polygon fill="green" stroke="green" stroke-width="0.34" points="293.18,-53.67 297.14,-43.84 287.92,-49.06 293.18,-53.67"/>
</g>
<!-- 1498&#45;&gt;1299 -->
<g id="edge8" class="edge">
<title>1498&#45;&gt;1299</title>
<path fill="none" stroke="green" stroke-width="0.34" d="M254.15,-192.3C250.93,-181.14 247.14,-168.03 243.68,-156.01"/>
<polygon fill="green" stroke="green" stroke-width="0.34" points="246.99,-154.87 240.85,-146.23 240.26,-156.81 246.99,-154.87"/>
</g>
</g>
</svg>
