<?xml version="1.0" encoding="UTF-8" standalone="no"?>
<!DOCTYPE svg PUBLIC "-//W3C//DTD SVG 1.1//EN"
 "http://www.w3.org/Graphics/SVG/1.1/DTD/svg11.dtd">
<!-- Generated by graphviz version 2.43.0 (0)
 -->
<!-- Title: %3 Pages: 1 -->
<svg width="1100pt" height="416pt"
 viewBox="0.00 0.00 1099.98 416.46" xmlns="http://www.w3.org/2000/svg" xmlns:xlink="http://www.w3.org/1999/xlink">
<g id="graph0" class="graph" transform="scale(1 1) rotate(0) translate(4 412.46)">
<title>%3</title>
<polygon fill="white" stroke="transparent" points="-4,4 -4,-412.46 1095.98,-412.46 1095.98,4 -4,4"/>
<!-- &#45;1 -->
<g id="node1" class="node">
<title>&#45;1</title>
<polygon fill="lightgray" stroke="black" points="41.99,-388.47 15.99,-388.47 15.99,-370.47 41.99,-370.47 41.99,-388.47"/>
<text text-anchor="middle" x="28.99" y="-377.27" font-family="Times,serif" font-size="9.00">&#45;1</text>
</g>
<!-- 1942 -->
<g id="node22" class="node">
<title>1942</title>
<ellipse fill="white" stroke="black" cx="28.99" cy="-285.48" rx="28.98" ry="28.98"/>
<text text-anchor="middle" x="28.99" y="-283.28" font-family="Times,serif" font-size="9.00">1942</text>
</g>
<!-- &#45;1&#45;&gt;1942 -->
<g id="edge1" class="edge">
<title>&#45;1&#45;&gt;1942</title>
<path fill="none" stroke="green" stroke-width="0.24" d="M28.99,-370.3C28.99,-360.04 28.99,-341.7 28.99,-324.79"/>
<polygon fill="green" stroke="green" stroke-width="0.24" points="32.49,-324.52 28.99,-314.52 25.49,-324.52 32.49,-324.52"/>
</g>
<!-- &#45;2 -->
<g id="node2" class="node">
<title>&#45;2</title>
<polygon fill="lightgray" stroke="black" points="85.99,-388.47 59.99,-388.47 59.99,-370.47 85.99,-370.47 85.99,-388.47"/>
<text text-anchor="middle" x="72.99" y="-377.27" font-family="Times,serif" font-size="9.00">&#45;2</text>
</g>
<!-- 0 -->
<g id="node3" class="node">
<title>0</title>
<ellipse fill="lightblue" stroke="black" cx="119.99" cy="-379.47" rx="16.03" ry="16.03"/>
<text text-anchor="middle" x="119.99" y="-377.27" font-family="Times,serif" font-size="9.00">0</text>
</g>
<!-- 1 -->
<g id="node4" class="node">
<title>1</title>
<ellipse fill="lightblue" stroke="black" cx="170.99" cy="-379.47" rx="16.03" ry="16.03"/>
<text text-anchor="middle" x="170.99" y="-377.27" font-family="Times,serif" font-size="9.00">1</text>
</g>
<!-- 2 -->
<g id="node5" class="node">
<title>2</title>
<ellipse fill="lightblue" stroke="black" cx="221.99" cy="-379.47" rx="16.03" ry="16.03"/>
<text text-anchor="middle" x="221.99" y="-377.27" font-family="Times,serif" font-size="9.00">2</text>
</g>
<!-- 3 -->
<g id="node6" class="node">
<title>3</title>
<ellipse fill="lightblue" stroke="black" cx="38.99" cy="-16.26" rx="16.03" ry="16.03"/>
<text text-anchor="middle" x="38.99" y="-14.06" font-family="Times,serif" font-size="9.00">3</text>
</g>
<!-- 4 -->
<g id="node7" class="node">
<title>4</title>
<ellipse fill="lightblue" stroke="black" cx="272.99" cy="-379.47" rx="16.03" ry="16.03"/>
<text text-anchor="middle" x="272.99" y="-377.27" font-family="Times,serif" font-size="9.00">4</text>
</g>
<!-- 5 -->
<g id="node8" class="node">
<title>5</title>
<ellipse fill="lightblue" stroke="black" cx="323.99" cy="-379.47" rx="16.03" ry="16.03"/>
<text text-anchor="middle" x="323.99" y="-377.27" font-family="Times,serif" font-size="9.00">5</text>
</g>
<!-- 6 -->
<g id="node9" class="node">
<title>6</title>
<ellipse fill="lightblue" stroke="black" cx="374.99" cy="-379.47" rx="16.03" ry="16.03"/>
<text text-anchor="middle" x="374.99" y="-377.27" font-family="Times,serif" font-size="9.00">6</text>
</g>
<!-- 7 -->
<g id="node10" class="node">
<title>7</title>
<ellipse fill="lightblue" stroke="black" cx="425.99" cy="-379.47" rx="16.03" ry="16.03"/>
<text text-anchor="middle" x="425.99" y="-377.27" font-family="Times,serif" font-size="9.00">7</text>
</g>
<!-- 8 -->
<g id="node11" class="node">
<title>8</title>
<ellipse fill="lightblue" stroke="black" cx="476.99" cy="-379.47" rx="16.03" ry="16.03"/>
<text text-anchor="middle" x="476.99" y="-377.27" font-family="Times,serif" font-size="9.00">8</text>
</g>
<!-- 9 -->
<g id="node12" class="node">
<title>9</title>
<ellipse fill="lightblue" stroke="black" cx="527.99" cy="-379.47" rx="16.03" ry="16.03"/>
<text text-anchor="middle" x="527.99" y="-377.27" font-family="Times,serif" font-size="9.00">9</text>
</g>
<!-- 10 -->
<g id="node13" class="node">
<title>10</title>
<ellipse fill="lightblue" stroke="black" cx="582.99" cy="-379.47" rx="20.51" ry="20.51"/>
<text text-anchor="middle" x="582.99" y="-377.27" font-family="Times,serif" font-size="9.00">10</text>
</g>
<!-- 11 -->
<g id="node14" class="node">
<title>11</title>
<ellipse fill="lightblue" stroke="black" cx="641.99" cy="-379.47" rx="20.51" ry="20.51"/>
<text text-anchor="middle" x="641.99" y="-377.27" font-family="Times,serif" font-size="9.00">11</text>
</g>
<!-- 12 -->
<g id="node15" class="node">
<title>12</title>
<ellipse fill="lightblue" stroke="black" cx="700.99" cy="-379.47" rx="20.51" ry="20.51"/>
<text text-anchor="middle" x="700.99" y="-377.27" font-family="Times,serif" font-size="9.00">12</text>
</g>
<!-- 13 -->
<g id="node16" class="node">
<title>13</title>
<ellipse fill="lightblue" stroke="black" cx="759.99" cy="-379.47" rx="20.51" ry="20.51"/>
<text text-anchor="middle" x="759.99" y="-377.27" font-family="Times,serif" font-size="9.00">13</text>
</g>
<!-- 14 -->
<g id="node17" class="node">
<title>14</title>
<ellipse fill="lightblue" stroke="black" cx="818.99" cy="-379.47" rx="20.51" ry="20.51"/>
<text text-anchor="middle" x="818.99" y="-377.27" font-family="Times,serif" font-size="9.00">14</text>
</g>
<!-- 15 -->
<g id="node18" class="node">
<title>15</title>
<ellipse fill="lightblue" stroke="black" cx="877.99" cy="-379.47" rx="20.51" ry="20.51"/>
<text text-anchor="middle" x="877.99" y="-377.27" font-family="Times,serif" font-size="9.00">15</text>
</g>
<!-- 16 -->
<g id="node19" class="node">
<title>16</title>
<ellipse fill="lightblue" stroke="black" cx="936.99" cy="-379.47" rx="20.51" ry="20.51"/>
<text text-anchor="middle" x="936.99" y="-377.27" font-family="Times,serif" font-size="9.00">16</text>
</g>
<!-- 17 -->
<g id="node20" class="node">
<title>17</title>
<ellipse fill="lightblue" stroke="black" cx="995.99" cy="-379.47" rx="20.51" ry="20.51"/>
<text text-anchor="middle" x="995.99" y="-377.27" font-family="Times,serif" font-size="9.00">17</text>
</g>
<!-- 1544 -->
<g id="node21" class="node">
<title>1544</title>
<ellipse fill="white" stroke="black" cx="1062.99" cy="-379.47" rx="28.98" ry="28.98"/>
<text text-anchor="middle" x="1062.99" y="-377.27" font-family="Times,serif" font-size="9.00">1544</text>
</g>
<!-- 1942&#45;&gt;3 -->
<g id="edge2" class="edge">
<title>1942&#45;&gt;3</title>
<path fill="none" stroke="red" stroke-width="0.28" d="M24.25,-256.85C22.54,-245.61 20.83,-232.47 19.99,-220.49 15.5,-156.3 26.94,-80.93 33.97,-42.53"/>
<polygon fill="red" stroke="red" stroke-width="0.28" points="37.49,-42.76 35.9,-32.29 30.61,-41.46 37.49,-42.76"/>
</g>
<!-- 2445 -->
<g id="node23" class="node">
<title>2445</title>
<ellipse fill="white" stroke="black" cx="57.99" cy="-191.5" rx="28.98" ry="28.98"/>
<text text-anchor="middle" x="57.99" y="-189.3" font-family="Times,serif" font-size="9.00">2445</text>
</g>
<!-- 1942&#45;&gt;2445 -->
<g id="edge3" class="edge">
<title>1942&#45;&gt;2445</title>
<path fill="none" stroke="green" stroke-width="0.12" d="M37.54,-257.38C40.34,-248.49 43.5,-238.47 46.48,-229"/>
<polygon fill="green" stroke="green" stroke-width="0.12" points="49.84,-230 49.51,-219.41 43.16,-227.89 49.84,-230"/>
</g>
<!-- 2445&#45;&gt;3 -->
<g id="edge4" class="edge">
<title>2445&#45;&gt;3</title>
<path fill="none" stroke="red" stroke-width="0.26" stroke-dasharray="1,5" d="M54.94,-162.67C51.32,-129.64 45.33,-75.03 41.81,-42.97"/>
<polygon fill="red" stroke="red" stroke-width="0.26" points="45.25,-42.2 40.68,-32.64 38.29,-42.96 45.25,-42.2"/>
</g>
<!-- 2567 -->
<g id="node24" class="node">
<title>2567</title>
<ellipse fill="white" stroke="black" cx="95.99" cy="-97.52" rx="28.98" ry="28.98"/>
<text text-anchor="middle" x="95.99" y="-95.32" font-family="Times,serif" font-size="9.00">2567</text>
</g>
<!-- 2445&#45;&gt;2567 -->
<g id="edge5" class="edge">
<title>2445&#45;&gt;2567</title>
<path fill="none" stroke="green" stroke-width="0.22" d="M68.78,-164.39C72.67,-154.97 77.13,-144.17 81.3,-134.08"/>
<polygon fill="green" stroke="green" stroke-width="0.22" points="84.59,-135.27 85.18,-124.7 78.12,-132.6 84.59,-135.27"/>
</g>
<!-- 2567&#45;&gt;3 -->
<g id="edge6" class="edge">
<title>2567&#45;&gt;3</title>
<path fill="none" stroke="red" stroke-width="0.29" d="M79.5,-73.59C71.41,-62.34 61.73,-48.88 53.87,-37.95"/>
<polygon fill="red" stroke="red" stroke-width="0.29" points="56.69,-35.88 48.01,-29.81 51.01,-39.97 56.69,-35.88"/>
</g>
</g>
</svg>
