<?xml version="1.0" encoding="UTF-8" standalone="no"?>
<!DOCTYPE svg PUBLIC "-//W3C//DTD SVG 1.1//EN"
 "http://www.w3.org/Graphics/SVG/1.1/DTD/svg11.dtd">
<!-- Generated by graphviz version 2.43.0 (0)
 -->
<!-- Title: %3 Pages: 1 -->
<svg width="427pt" height="254pt"
 viewBox="0.00 0.00 426.74 253.95" xmlns="http://www.w3.org/2000/svg" xmlns:xlink="http://www.w3.org/1999/xlink">
<g id="graph0" class="graph" transform="scale(1 1) rotate(0) translate(4 249.95)">
<title>%3</title>
<polygon fill="white" stroke="transparent" points="-4,4 -4,-249.95 422.74,-249.95 422.74,4 -4,4"/>
<!-- ball_left -->
<g id="node1" class="node">
<title>ball_left</title>
<polygon fill="lightgray" stroke="black" points="55.49,-230.2 2.49,-230.2 2.49,-212.2 55.49,-212.2 55.49,-230.2"/>
<text text-anchor="middle" x="28.99" y="-219" font-family="Times,serif" font-size="9.00">ball_left</text>
</g>
<!-- LEFT -->
<g id="node7" class="node">
<title>LEFT</title>
<ellipse fill="lightblue" stroke="black" cx="28.99" cy="-126.51" rx="28.98" ry="28.98"/>
<text text-anchor="middle" x="28.99" y="-124.31" font-family="Times,serif" font-size="9.00">LEFT</text>
</g>
<!-- ball_left&#45;&gt;LEFT -->
<g id="edge2" class="edge">
<title>ball_left&#45;&gt;LEFT</title>
<path fill="none" stroke="green" stroke-width="0.93" d="M28.99,-211.97C28.99,-201.63 28.99,-183.15 28.99,-166.11"/>
<polygon fill="green" stroke="green" stroke-width="0.93" points="32.49,-165.77 28.99,-155.77 25.49,-165.77 32.49,-165.77"/>
</g>
<!-- ball_right -->
<g id="node2" class="node">
<title>ball_right</title>
<polygon fill="lightgray" stroke="black" points="181.99,-230.2 119.99,-230.2 119.99,-212.2 181.99,-212.2 181.99,-230.2"/>
<text text-anchor="middle" x="150.99" y="-219" font-family="Times,serif" font-size="9.00">ball_right</text>
</g>
<!-- NOOP -->
<g id="node4" class="node">
<title>NOOP</title>
<ellipse fill="lightblue" stroke="black" cx="108.99" cy="-126.51" rx="32.55" ry="32.55"/>
<text text-anchor="middle" x="108.99" y="-124.31" font-family="Times,serif" font-size="9.00">NOOP</text>
</g>
<!-- ball_right&#45;&gt;NOOP -->
<g id="edge8" class="edge">
<title>ball_right&#45;&gt;NOOP</title>
<path fill="none" stroke="red" stroke-width="0.15" d="M147.26,-211.97C142.56,-201.58 134.13,-182.98 126.38,-165.88"/>
<polygon fill="red" stroke="red" stroke-width="0.15" points="129.49,-164.26 122.17,-156.59 123.11,-167.15 129.49,-164.26"/>
</g>
<!-- RIGHT -->
<g id="node6" class="node">
<title>RIGHT</title>
<ellipse fill="lightblue" stroke="black" cx="192.99" cy="-126.51" rx="33.88" ry="33.88"/>
<text text-anchor="middle" x="192.99" y="-124.31" font-family="Times,serif" font-size="9.00">RIGHT</text>
</g>
<!-- ball_right&#45;&gt;RIGHT -->
<g id="edge1" class="edge">
<title>ball_right&#45;&gt;RIGHT</title>
<path fill="none" stroke="green" stroke-width="1.11" d="M154.72,-211.97C159.33,-201.81 167.49,-183.78 175.1,-166.99"/>
<polygon fill="green" stroke="green" stroke-width="1.11" points="178.31,-168.4 179.25,-157.84 171.93,-165.51 178.31,-168.4"/>
</g>
<!-- ball_out_field -->
<g id="node3" class="node">
<title>ball_out_field</title>
<polygon fill="lightgray" stroke="black" points="350.99,-230.2 272.99,-230.2 272.99,-212.2 350.99,-212.2 350.99,-230.2"/>
<text text-anchor="middle" x="311.99" y="-219" font-family="Times,serif" font-size="9.00">ball_out_field</text>
</g>
<!-- FIRE -->
<g id="node5" class="node">
<title>FIRE</title>
<ellipse fill="lightblue" stroke="black" cx="311.99" cy="-28.28" rx="28.07" ry="28.07"/>
<text text-anchor="middle" x="311.99" y="-26.08" font-family="Times,serif" font-size="9.00">FIRE</text>
</g>
<!-- ball_out_field&#45;&gt;FIRE -->
<g id="edge5" class="edge">
<title>ball_out_field&#45;&gt;FIRE</title>
<path fill="none" stroke="red" stroke-width="0.4" d="M304.63,-212.06C295.38,-201.21 279.97,-180.99 273.99,-160.45 265.56,-131.48 265.93,-121.64 273.99,-92.57 277.19,-81.01 283.13,-69.45 289.38,-59.42"/>
<polygon fill="red" stroke="red" stroke-width="0.4" points="292.32,-61.33 294.89,-51.05 286.47,-57.48 292.32,-61.33"/>
</g>
<!-- 1218 -->
<g id="node9" class="node">
<title>1218</title>
<ellipse fill="white" stroke="black" cx="311.99" cy="-126.51" rx="28.98" ry="28.98"/>
<text text-anchor="middle" x="311.99" y="-124.31" font-family="Times,serif" font-size="9.00">1218</text>
</g>
<!-- ball_out_field&#45;&gt;1218 -->
<g id="edge3" class="edge">
<title>ball_out_field&#45;&gt;1218</title>
<path fill="none" stroke="green" stroke-width="0.35" d="M311.99,-211.97C311.99,-201.63 311.99,-183.15 311.99,-166.11"/>
<polygon fill="green" stroke="green" stroke-width="0.35" points="315.49,-165.77 311.99,-155.77 308.49,-165.77 315.49,-165.77"/>
</g>
<!-- 1731 -->
<g id="node10" class="node">
<title>1731</title>
<ellipse fill="white" stroke="black" cx="387.99" cy="-126.51" rx="28.98" ry="28.98"/>
<text text-anchor="middle" x="387.99" y="-124.31" font-family="Times,serif" font-size="9.00">1731</text>
</g>
<!-- ball_out_field&#45;&gt;1731 -->
<g id="edge6" class="edge">
<title>ball_out_field&#45;&gt;1731</title>
<path fill="none" stroke="green" stroke-width="0.13" d="M318.74,-211.97C328.72,-199.8 347.93,-176.37 363.59,-157.27"/>
<polygon fill="green" stroke="green" stroke-width="0.13" points="366.41,-159.35 370.05,-149.39 361,-154.91 366.41,-159.35"/>
</g>
<!-- 876 -->
<g id="node8" class="node">
<title>876</title>
<ellipse fill="white" stroke="black" cx="393.99" cy="-221.2" rx="25" ry="25"/>
<text text-anchor="middle" x="393.99" y="-219" font-family="Times,serif" font-size="9.00">876</text>
</g>
<!-- 1218&#45;&gt;FIRE -->
<g id="edge4" class="edge">
<title>1218&#45;&gt;FIRE</title>
<path fill="none" stroke="green" stroke-width="0.57" d="M311.99,-97.42C311.99,-87.87 311.99,-77.03 311.99,-66.86"/>
<polygon fill="green" stroke="green" stroke-width="0.57" points="315.49,-66.58 311.99,-56.58 308.49,-66.58 315.49,-66.58"/>
</g>
<!-- 1731&#45;&gt;FIRE -->
<g id="edge7" class="edge">
<title>1731&#45;&gt;FIRE</title>
<path fill="none" stroke="red" stroke-width="0.33" stroke-dasharray="1,5" d="M370.36,-103.19C360.03,-90.1 346.83,-73.4 335.61,-59.19"/>
<polygon fill="red" stroke="red" stroke-width="0.33" points="338.21,-56.83 329.26,-51.15 332.71,-61.17 338.21,-56.83"/>
</g>
</g>
</svg>
