<?xml version="1.0" encoding="UTF-8" standalone="no"?>
<!DOCTYPE svg PUBLIC "-//W3C//DTD SVG 1.1//EN"
 "http://www.w3.org/Graphics/SVG/1.1/DTD/svg11.dtd">
<!-- Generated by graphviz version 2.43.0 (0)
 -->
<!-- Title: %3 Pages: 1 -->
<svg width="199pt" height="109pt"
 viewBox="0.00 0.00 198.76 109.05" xmlns="http://www.w3.org/2000/svg" xmlns:xlink="http://www.w3.org/1999/xlink">
<g id="graph0" class="graph" transform="scale(1 1) rotate(0) translate(4 105.05)">
<title>%3</title>
<polygon fill="white" stroke="transparent" points="-4,4 -4,-105.05 194.76,-105.05 194.76,4 -4,4"/>
<!-- ball_is_on_right -->
<g id="node1" class="node">
<title>ball_is_on_right</title>
<polygon fill="lightgray" stroke="black" points="89,-93.79 0,-93.79 0,-75.79 89,-75.79 89,-93.79"/>
<text text-anchor="middle" x="44.5" y="-82.59" font-family="Times,serif" font-size="9.00">ball_is_on_right</text>
</g>
<!-- 2 -->
<g id="node4" class="node">
<title>2</title>
<ellipse fill="lightblue" stroke="black" cx="19.5" cy="-16.26" rx="16.03" ry="16.03"/>
<text text-anchor="middle" x="19.5" y="-14.06" font-family="Times,serif" font-size="9.00">2</text>
</g>
<!-- ball_is_on_right&#45;&gt;2 -->
<g id="edge2" class="edge">
<title>ball_is_on_right&#45;&gt;2</title>
<path fill="none" stroke="red" stroke-width="0.62" d="M41.43,-75.63C38.24,-67.12 33.07,-53.37 28.55,-41.35"/>
<polygon fill="red" stroke="red" stroke-width="0.62" points="31.76,-39.94 24.97,-31.81 25.21,-42.4 31.76,-39.94"/>
</g>
<!-- 3 -->
<g id="node5" class="node">
<title>3</title>
<ellipse fill="lightblue" stroke="black" cx="70.5" cy="-16.26" rx="16.03" ry="16.03"/>
<text text-anchor="middle" x="70.5" y="-14.06" font-family="Times,serif" font-size="9.00">3</text>
</g>
<!-- ball_is_on_right&#45;&gt;3 -->
<g id="edge1" class="edge">
<title>ball_is_on_right&#45;&gt;3</title>
<path fill="none" stroke="green" stroke-width="1.1" d="M47.69,-75.63C51.04,-67.07 56.46,-53.19 61.18,-41.12"/>
<polygon fill="green" stroke="green" stroke-width="1.1" points="64.53,-42.14 64.91,-31.56 58.01,-39.6 64.53,-42.14"/>
</g>
<!-- 0 -->
<g id="node2" class="node">
<title>0</title>
<ellipse fill="lightblue" stroke="black" cx="123.5" cy="-84.79" rx="16.03" ry="16.03"/>
<text text-anchor="middle" x="123.5" y="-82.59" font-family="Times,serif" font-size="9.00">0</text>
</g>
<!-- 1 -->
<g id="node3" class="node">
<title>1</title>
<ellipse fill="lightblue" stroke="black" cx="174.5" cy="-84.79" rx="16.03" ry="16.03"/>
<text text-anchor="middle" x="174.5" y="-82.59" font-family="Times,serif" font-size="9.00">1</text>
</g>
</g>
</svg>
