<?xml version="1.0" encoding="UTF-8" standalone="no"?>
<!DOCTYPE svg PUBLIC "-//W3C//DTD SVG 1.1//EN"
 "http://www.w3.org/Graphics/SVG/1.1/DTD/svg11.dtd">
<!-- Generated by graphviz version 2.43.0 (0)
 -->
<!-- Title: %3 Pages: 1 -->
<svg width="480pt" height="177pt"
 viewBox="0.00 0.00 480.47 176.94" xmlns="http://www.w3.org/2000/svg" xmlns:xlink="http://www.w3.org/1999/xlink">
<g id="graph0" class="graph" transform="scale(1 1) rotate(0) translate(4 172.94)">
<title>%3</title>
<polygon fill="white" stroke="transparent" points="-4,4 -4,-172.94 476.47,-172.94 476.47,4 -4,4"/>
<!-- ball_left -->
<g id="node1" class="node">
<title>ball_left</title>
<polygon fill="lightgray" stroke="black" points="101.44,-145.41 48.44,-145.41 48.44,-127.41 101.44,-127.41 101.44,-145.41"/>
<text text-anchor="middle" x="74.94" y="-134.21" font-family="Times,serif" font-size="9.00">ball_left</text>
</g>
<!-- RIGHT -->
<g id="node6" class="node">
<title>RIGHT</title>
<ellipse fill="lightblue" stroke="black" cx="33.94" cy="-33.94" rx="33.88" ry="33.88"/>
<text text-anchor="middle" x="33.94" y="-31.74" font-family="Times,serif" font-size="9.00">RIGHT</text>
</g>
<!-- ball_left&#45;&gt;RIGHT -->
<g id="edge4" class="edge">
<title>ball_left&#45;&gt;RIGHT</title>
<path fill="none" stroke="red" stroke-width="0.24" d="M71.59,-127.19C66.92,-115.75 58.15,-94.26 50.24,-74.89"/>
<polygon fill="red" stroke="red" stroke-width="0.24" points="53.48,-73.55 46.46,-65.61 46.99,-76.19 53.48,-73.55"/>
</g>
<!-- 2068 -->
<g id="node8" class="node">
<title>2068</title>
<ellipse fill="white" stroke="black" cx="114.94" cy="-33.94" rx="28.98" ry="28.98"/>
<text text-anchor="middle" x="114.94" y="-31.74" font-family="Times,serif" font-size="9.00">2068</text>
</g>
<!-- ball_left&#45;&gt;2068 -->
<g id="edge5" class="edge">
<title>ball_left&#45;&gt;2068</title>
<path fill="none" stroke="green" stroke-width="0.35" d="M78.21,-127.19C83.11,-114.89 92.64,-90.96 100.76,-70.56"/>
<polygon fill="green" stroke="green" stroke-width="0.35" points="104.04,-71.78 104.49,-61.19 97.54,-69.19 104.04,-71.78"/>
</g>
<!-- ball_right -->
<g id="node2" class="node">
<title>ball_right</title>
<polygon fill="lightgray" stroke="black" points="292.94,-145.41 230.94,-145.41 230.94,-127.41 292.94,-127.41 292.94,-145.41"/>
<text text-anchor="middle" x="261.94" y="-134.21" font-family="Times,serif" font-size="9.00">ball_right</text>
</g>
<!-- FIRE -->
<g id="node5" class="node">
<title>FIRE</title>
<ellipse fill="lightblue" stroke="black" cx="189.94" cy="-33.94" rx="28.07" ry="28.07"/>
<text text-anchor="middle" x="189.94" y="-31.74" font-family="Times,serif" font-size="9.00">FIRE</text>
</g>
<!-- ball_right&#45;&gt;FIRE -->
<g id="edge2" class="edge">
<title>ball_right&#45;&gt;FIRE</title>
<path fill="none" stroke="red" stroke-width="1.27" d="M256.05,-127.19C246.5,-113.87 227.18,-86.9 211.88,-65.55"/>
<polygon fill="red" stroke="red" stroke-width="1.27" points="214.7,-63.48 206.03,-57.39 209.01,-67.56 214.7,-63.48"/>
</g>
<!-- LEFT -->
<g id="node7" class="node">
<title>LEFT</title>
<ellipse fill="lightblue" stroke="black" cx="346.94" cy="-33.94" rx="28.98" ry="28.98"/>
<text text-anchor="middle" x="346.94" y="-31.74" font-family="Times,serif" font-size="9.00">LEFT</text>
</g>
<!-- ball_right&#45;&gt;LEFT -->
<g id="edge3" class="edge">
<title>ball_right&#45;&gt;LEFT</title>
<path fill="none" stroke="red" stroke-width="0.23" d="M268.9,-127.19C280.36,-113.64 303.76,-85.99 321.96,-64.47"/>
<polygon fill="red" stroke="red" stroke-width="0.23" points="324.86,-66.46 328.64,-56.57 319.51,-61.94 324.86,-66.46"/>
</g>
<!-- 2486 -->
<g id="node9" class="node">
<title>2486</title>
<ellipse fill="white" stroke="black" cx="264.94" cy="-33.94" rx="28.98" ry="28.98"/>
<text text-anchor="middle" x="264.94" y="-31.74" font-family="Times,serif" font-size="9.00">2486</text>
</g>
<!-- ball_right&#45;&gt;2486 -->
<g id="edge6" class="edge">
<title>ball_right&#45;&gt;2486</title>
<path fill="none" stroke="green" stroke-width="0.46" stroke-dasharray="1,5" d="M262.19,-127.19C262.54,-115.37 263.21,-92.84 263.8,-72.99"/>
<polygon fill="green" stroke="green" stroke-width="0.46" points="267.31,-73.04 264.11,-62.94 260.31,-72.83 267.31,-73.04"/>
</g>
<!-- ball_out_field -->
<g id="node3" class="node">
<title>ball_out_field</title>
<polygon fill="lightgray" stroke="black" points="388.94,-145.41 310.94,-145.41 310.94,-127.41 388.94,-127.41 388.94,-145.41"/>
<text text-anchor="middle" x="349.94" y="-134.21" font-family="Times,serif" font-size="9.00">ball_out_field</text>
</g>
<!-- ball_out_field&#45;&gt;LEFT -->
<g id="edge1" class="edge">
<title>ball_out_field&#45;&gt;LEFT</title>
<path fill="none" stroke="green" stroke-width="0.77" stroke-dasharray="1,5" d="M349.7,-127.19C349.34,-115.37 348.67,-92.84 348.08,-72.99"/>
<polygon fill="green" stroke="green" stroke-width="0.77" points="351.57,-72.83 347.78,-62.94 344.58,-73.04 351.57,-72.83"/>
</g>
<!-- NOOP -->
<g id="node4" class="node">
<title>NOOP</title>
<ellipse fill="lightblue" stroke="black" cx="439.94" cy="-136.41" rx="32.55" ry="32.55"/>
<text text-anchor="middle" x="439.94" y="-134.21" font-family="Times,serif" font-size="9.00">NOOP</text>
</g>
</g>
</svg>
