<?xml version="1.0" encoding="utf-8" standalone="no"?>
<!DOCTYPE svg PUBLIC "-//W3C//DTD SVG 1.1//EN"
  "http://www.w3.org/Graphics/SVG/1.1/DTD/svg11.dtd">
<svg xmlns:xlink="http://www.w3.org/1999/xlink" width="460.8pt" height="345.6pt" viewBox="0 0 460.8 345.6" xmlns="http://www.w3.org/2000/svg" version="1.1">
 <metadata>
  <rdf:RDF xmlns:dc="http://purl.org/dc/elements/1.1/" xmlns:cc="http://creativecommons.org/ns#" xmlns:rdf="http://www.w3.org/1999/02/22-rdf-syntax-ns#">
   <cc:Work>
    <dc:type rdf:resource="http://purl.org/dc/dcmitype/StillImage"/>
    <dc:date>2023-02-04T20:56:24.364009</dc:date>
    <dc:format>image/svg+xml</dc:format>
    <dc:creator>
     <cc:Agent>
      <dc:title>Matplotlib v3.6.2, https://matplotlib.org/</dc:title>
     </cc:Agent>
    </dc:creator>
   </cc:Work>
  </rdf:RDF>
 </metadata>
 <defs>
  <style type="text/css">*{stroke-linejoin: round; stroke-linecap: butt}</style>
 </defs>
 <g id="figure_1">
  <g id="patch_1">
   <path d="M 0 345.6 
L 460.8 345.6 
L 460.8 0 
L 0 0 
z
" style="fill: #ffffff"/>
  </g>
  <g id="axes_1">
   <g id="patch_2">
    <path d="M 57.6 307.584 
L 414.72 307.584 
L 414.72 41.472 
L 57.6 41.472 
z
" style="fill: #ffffff"/>
   </g>
   <g id="PolyCollection_1">
    <path d="M 73.832727 59.113412 
L 73.832727 307.584 
L 85.027712 307.584 
L 96.222696 307.584 
L 107.41768 307.584 
L 118.612665 307.584 
L 129.807649 307.584 
L 141.002633 307.584 
L 152.197618 307.584 
L 163.392602 307.584 
L 174.587586 307.584 
L 185.782571 307.584 
L 196.977555 307.584 
L 208.172539 307.584 
L 219.367524 307.584 
L 230.562508 307.584 
L 241.757492 307.584 
L 252.952476 307.584 
L 264.147461 307.584 
L 275.342445 307.584 
L 286.537429 307.584 
L 297.732414 307.584 
L 308.927398 307.584 
L 320.122382 307.584 
L 331.317367 307.584 
L 342.512351 307.584 
L 353.707335 307.584 
L 364.90232 307.584 
L 376.097304 307.584 
L 387.292288 307.584 
L 398.487273 307.584 
L 398.487273 297.645176 
L 398.487273 297.645176 
L 387.292288 295.160471 
L 376.097304 292.675765 
L 364.90232 295.160471 
L 353.707335 303.442824 
L 342.512351 297.645176 
L 331.317367 289.362824 
L 320.122382 287.706353 
L 308.927398 286.878118 
L 297.732414 304.271059 
L 286.537429 292.675765 
L 275.342445 297.645176 
L 264.147461 277.767529 
L 252.952476 293.504 
L 241.757492 300.129882 
L 230.562508 257.061647 
L 219.367524 267.828706 
L 208.172539 261.202824 
L 196.977555 260.374588 
L 185.782571 262.031059 
L 174.587586 228.073412 
L 163.392602 223.932235 
L 152.197618 224.760471 
L 141.002633 210.680471 
L 129.807649 218.134588 
L 118.612665 160.158118 
L 107.41768 134.482824 
L 96.222696 72.365176 
L 85.027712 59.113412 
L 73.832727 59.113412 
z
" clip-path="url(#p92dddea60b)" style="fill: #1f77b4"/>
   </g>
   <g id="PolyCollection_2">
    <path d="M 73.832727 59.113412 
L 73.832727 59.113412 
L 85.027712 59.113412 
L 96.222696 72.365176 
L 107.41768 134.482824 
L 118.612665 160.158118 
L 129.807649 218.134588 
L 141.002633 210.680471 
L 152.197618 224.760471 
L 163.392602 223.932235 
L 174.587586 228.073412 
L 185.782571 262.031059 
L 196.977555 260.374588 
L 208.172539 261.202824 
L 219.367524 267.828706 
L 230.562508 257.061647 
L 241.757492 300.129882 
L 252.952476 293.504 
L 264.147461 277.767529 
L 275.342445 297.645176 
L 286.537429 292.675765 
L 297.732414 304.271059 
L 308.927398 286.878118 
L 320.122382 287.706353 
L 331.317367 289.362824 
L 342.512351 297.645176 
L 353.707335 303.442824 
L 364.90232 295.160471 
L 376.097304 292.675765 
L 387.292288 295.160471 
L 398.487273 297.645176 
L 398.487273 291.019294 
L 398.487273 291.019294 
L 387.292288 286.049882 
L 376.097304 272.798118 
L 364.90232 275.282824 
L 353.707335 291.847529 
L 342.512351 275.282824 
L 331.317367 270.313412 
L 320.122382 281.908706 
L 308.927398 254.576941 
L 297.732414 285.221647 
L 286.537429 285.221647 
L 275.342445 267.000471 
L 264.147461 233.871059 
L 252.952476 236.355765 
L 241.757492 257.889882 
L 230.562508 247.122824 
L 219.367524 256.233412 
L 208.172539 258.718118 
L 196.977555 259.546353 
L 185.782571 253.748706 
L 174.587586 209.852235 
L 163.392602 203.226353 
L 152.197618 203.226353 
L 141.002633 185.833412 
L 129.807649 174.238118 
L 118.612665 104.666353 
L 107.41768 93.071059 
L 96.222696 67.395765 
L 85.027712 59.113412 
L 73.832727 59.113412 
z
" clip-path="url(#p92dddea60b)" style="fill: #ff7f0e"/>
   </g>
   <g id="PolyCollection_3">
    <path d="M 73.832727 59.113412 
L 73.832727 59.113412 
L 85.027712 59.113412 
L 96.222696 67.395765 
L 107.41768 93.071059 
L 118.612665 104.666353 
L 129.807649 174.238118 
L 141.002633 185.833412 
L 152.197618 203.226353 
L 163.392602 203.226353 
L 174.587586 209.852235 
L 185.782571 253.748706 
L 196.977555 259.546353 
L 208.172539 258.718118 
L 219.367524 256.233412 
L 230.562508 247.122824 
L 241.757492 257.889882 
L 252.952476 236.355765 
L 264.147461 233.871059 
L 275.342445 267.000471 
L 286.537429 285.221647 
L 297.732414 285.221647 
L 308.927398 254.576941 
L 320.122382 281.908706 
L 331.317367 270.313412 
L 342.512351 275.282824 
L 353.707335 291.847529 
L 364.90232 275.282824 
L 376.097304 272.798118 
L 387.292288 286.049882 
L 398.487273 291.019294 
L 398.487273 283.565176 
L 398.487273 283.565176 
L 387.292288 275.282824 
L 376.097304 261.202824 
L 364.90232 258.718118 
L 353.707335 257.889882 
L 342.512351 252.920471 
L 331.317367 252.920471 
L 320.122382 262.031059 
L 308.927398 244.638118 
L 297.732414 258.718118 
L 286.537429 245.466353 
L 275.342445 233.871059 
L 264.147461 209.024 
L 252.952476 216.478118 
L 241.757492 201.569882 
L 230.562508 234.699294 
L 219.367524 238.012235 
L 208.172539 247.122824 
L 196.977555 242.981647 
L 185.782571 238.012235 
L 174.587586 185.005176 
L 163.392602 191.631059 
L 152.197618 187.489882 
L 141.002633 174.238118 
L 129.807649 149.391059 
L 118.612665 77.334588 
L 107.41768 59.113412 
L 96.222696 59.113412 
L 85.027712 59.113412 
L 73.832727 59.113412 
z
" clip-path="url(#p92dddea60b)" style="fill: #2ca02c"/>
   </g>
   <g id="PolyCollection_4">
    <path d="M 73.832727 59.113412 
L 73.832727 59.113412 
L 85.027712 59.113412 
L 96.222696 59.113412 
L 107.41768 59.113412 
L 118.612665 77.334588 
L 129.807649 149.391059 
L 141.002633 174.238118 
L 152.197618 187.489882 
L 163.392602 191.631059 
L 174.587586 185.005176 
L 185.782571 238.012235 
L 196.977555 242.981647 
L 208.172539 247.122824 
L 219.367524 238.012235 
L 230.562508 234.699294 
L 241.757492 201.569882 
L 252.952476 216.478118 
L 264.147461 209.024 
L 275.342445 233.871059 
L 286.537429 245.466353 
L 297.732414 258.718118 
L 308.927398 244.638118 
L 320.122382 262.031059 
L 331.317367 252.920471 
L 342.512351 252.920471 
L 353.707335 257.889882 
L 364.90232 258.718118 
L 376.097304 261.202824 
L 387.292288 275.282824 
L 398.487273 283.565176 
L 398.487273 269.485176 
L 398.487273 269.485176 
L 387.292288 267.828706 
L 376.097304 254.576941 
L 364.90232 245.466353 
L 353.707335 249.607529 
L 342.512351 242.981647 
L 331.317367 241.325176 
L 320.122382 250.435765 
L 308.927398 219.791059 
L 297.732414 241.325176 
L 286.537429 224.760471 
L 275.342445 224.760471 
L 264.147461 203.226353 
L 252.952476 208.195765 
L 241.757492 197.428706 
L 230.562508 211.508706 
L 219.367524 216.478118 
L 208.172539 228.901647 
L 196.977555 233.042824 
L 185.782571 225.588706 
L 174.587586 180.035765 
L 163.392602 170.925176 
L 152.197618 167.612235 
L 141.002633 150.219294 
L 129.807649 127.028706 
L 118.612665 64.082824 
L 107.41768 59.113412 
L 96.222696 59.113412 
L 85.027712 59.113412 
L 73.832727 59.113412 
z
" clip-path="url(#p92dddea60b)" style="fill: #d62728"/>
   </g>
   <g id="PolyCollection_5">
    <path d="M 73.832727 59.113412 
L 73.832727 59.113412 
L 85.027712 59.113412 
L 96.222696 59.113412 
L 107.41768 59.113412 
L 118.612665 64.082824 
L 129.807649 127.028706 
L 141.002633 150.219294 
L 152.197618 167.612235 
L 163.392602 170.925176 
L 174.587586 180.035765 
L 185.782571 225.588706 
L 196.977555 233.042824 
L 208.172539 228.901647 
L 219.367524 216.478118 
L 230.562508 211.508706 
L 241.757492 197.428706 
L 252.952476 208.195765 
L 264.147461 203.226353 
L 275.342445 224.760471 
L 286.537429 224.760471 
L 297.732414 241.325176 
L 308.927398 219.791059 
L 320.122382 250.435765 
L 331.317367 241.325176 
L 342.512351 242.981647 
L 353.707335 249.607529 
L 364.90232 245.466353 
L 376.097304 254.576941 
L 387.292288 267.828706 
L 398.487273 269.485176 
L 398.487273 267.828706 
L 398.487273 267.828706 
L 387.292288 266.172235 
L 376.097304 252.920471 
L 364.90232 243.809882 
L 353.707335 247.951059 
L 342.512351 241.325176 
L 331.317367 239.668706 
L 320.122382 248.779294 
L 308.927398 218.134588 
L 297.732414 239.668706 
L 286.537429 223.104 
L 275.342445 223.104 
L 264.147461 201.569882 
L 252.952476 205.711059 
L 241.757492 195.772235 
L 230.562508 209.852235 
L 219.367524 214.821647 
L 208.172539 227.245176 
L 196.977555 230.558118 
L 185.782571 222.275765 
L 174.587586 177.551059 
L 163.392602 169.268706 
L 152.197618 165.955765 
L 141.002633 148.562824 
L 129.807649 122.887529 
L 118.612665 61.598118 
L 107.41768 59.113412 
L 96.222696 59.113412 
L 85.027712 59.113412 
L 73.832727 59.113412 
z
" clip-path="url(#p92dddea60b)" style="fill: #9467bd"/>
   </g>
   <g id="PolyCollection_6">
    <path d="M 73.832727 59.113412 
L 73.832727 59.113412 
L 85.027712 59.113412 
L 96.222696 59.113412 
L 107.41768 59.113412 
L 118.612665 61.598118 
L 129.807649 122.887529 
L 141.002633 148.562824 
L 152.197618 165.955765 
L 163.392602 169.268706 
L 174.587586 177.551059 
L 185.782571 222.275765 
L 196.977555 230.558118 
L 208.172539 227.245176 
L 219.367524 214.821647 
L 230.562508 209.852235 
L 241.757492 195.772235 
L 252.952476 205.711059 
L 264.147461 201.569882 
L 275.342445 223.104 
L 286.537429 223.104 
L 297.732414 239.668706 
L 308.927398 218.134588 
L 320.122382 248.779294 
L 331.317367 239.668706 
L 342.512351 241.325176 
L 353.707335 247.951059 
L 364.90232 243.809882 
L 376.097304 252.920471 
L 387.292288 266.172235 
L 398.487273 267.828706 
L 398.487273 266.172235 
L 398.487273 266.172235 
L 387.292288 264.515765 
L 376.097304 251.264 
L 364.90232 242.153412 
L 353.707335 246.294588 
L 342.512351 239.668706 
L 331.317367 238.012235 
L 320.122382 247.122824 
L 308.927398 216.478118 
L 297.732414 238.012235 
L 286.537429 221.447529 
L 275.342445 221.447529 
L 264.147461 199.913412 
L 252.952476 204.054588 
L 241.757492 194.115765 
L 230.562508 208.195765 
L 219.367524 213.165176 
L 208.172539 224.760471 
L 196.977555 228.901647 
L 185.782571 220.619294 
L 174.587586 175.894588 
L 163.392602 168.440471 
L 152.197618 163.471059 
L 141.002633 144.421647 
L 129.807649 116.261647 
L 118.612665 60.769882 
L 107.41768 59.113412 
L 96.222696 59.113412 
L 85.027712 59.113412 
L 73.832727 59.113412 
z
" clip-path="url(#p92dddea60b)" style="fill: #8c564b"/>
   </g>
   <g id="PolyCollection_7">
    <path d="M 73.832727 59.113412 
L 73.832727 59.113412 
L 85.027712 59.113412 
L 96.222696 59.113412 
L 107.41768 59.113412 
L 118.612665 60.769882 
L 129.807649 116.261647 
L 141.002633 144.421647 
L 152.197618 163.471059 
L 163.392602 168.440471 
L 174.587586 175.894588 
L 185.782571 220.619294 
L 196.977555 228.901647 
L 208.172539 224.760471 
L 219.367524 213.165176 
L 230.562508 208.195765 
L 241.757492 194.115765 
L 252.952476 204.054588 
L 264.147461 199.913412 
L 275.342445 221.447529 
L 286.537429 221.447529 
L 297.732414 238.012235 
L 308.927398 216.478118 
L 320.122382 247.122824 
L 331.317367 238.012235 
L 342.512351 239.668706 
L 353.707335 246.294588 
L 364.90232 242.153412 
L 376.097304 251.264 
L 387.292288 264.515765 
L 398.487273 266.172235 
L 398.487273 264.515765 
L 398.487273 264.515765 
L 387.292288 262.859294 
L 376.097304 248.779294 
L 364.90232 240.496941 
L 353.707335 244.638118 
L 342.512351 238.012235 
L 331.317367 235.527529 
L 320.122382 243.809882 
L 308.927398 213.993412 
L 297.732414 236.355765 
L 286.537429 220.619294 
L 275.342445 217.306353 
L 264.147461 195.772235 
L 252.952476 197.428706 
L 241.757492 188.318118 
L 230.562508 204.054588 
L 219.367524 212.336941 
L 208.172539 218.134588 
L 196.977555 221.447529 
L 185.782571 213.165176 
L 174.587586 165.127529 
L 163.392602 156.016941 
L 152.197618 145.249882 
L 141.002633 120.402824 
L 129.807649 88.929882 
L 118.612665 59.113412 
L 107.41768 59.113412 
L 96.222696 59.113412 
L 85.027712 59.113412 
L 73.832727 59.113412 
z
" clip-path="url(#p92dddea60b)" style="fill: #e377c2"/>
   </g>
   <g id="PolyCollection_8">
    <path d="M 73.832727 59.113412 
L 73.832727 59.113412 
L 85.027712 59.113412 
L 96.222696 59.113412 
L 107.41768 59.113412 
L 118.612665 59.113412 
L 129.807649 88.929882 
L 141.002633 120.402824 
L 152.197618 145.249882 
L 163.392602 156.016941 
L 174.587586 165.127529 
L 185.782571 213.165176 
L 196.977555 221.447529 
L 208.172539 218.134588 
L 219.367524 212.336941 
L 230.562508 204.054588 
L 241.757492 188.318118 
L 252.952476 197.428706 
L 264.147461 195.772235 
L 275.342445 217.306353 
L 286.537429 220.619294 
L 297.732414 236.355765 
L 308.927398 213.993412 
L 320.122382 243.809882 
L 331.317367 235.527529 
L 342.512351 238.012235 
L 353.707335 244.638118 
L 364.90232 240.496941 
L 376.097304 248.779294 
L 387.292288 262.859294 
L 398.487273 264.515765 
L 398.487273 262.859294 
L 398.487273 262.859294 
L 387.292288 261.202824 
L 376.097304 247.122824 
L 364.90232 238.840471 
L 353.707335 242.981647 
L 342.512351 235.527529 
L 331.317367 233.871059 
L 320.122382 242.153412 
L 308.927398 211.508706 
L 297.732414 233.042824 
L 286.537429 218.134588 
L 275.342445 213.993412 
L 264.147461 192.459294 
L 252.952476 193.287529 
L 241.757492 183.348706 
L 230.562508 199.913412 
L 219.367524 206.539294 
L 208.172539 211.508706 
L 196.977555 213.993412 
L 185.782571 202.398118 
L 174.587586 151.875765 
L 163.392602 137.795765 
L 152.197618 125.372235 
L 141.002633 96.384 
L 129.807649 65.739294 
L 118.612665 58.285176 
L 107.41768 59.113412 
L 96.222696 59.113412 
L 85.027712 59.113412 
L 73.832727 59.113412 
z
" clip-path="url(#p92dddea60b)" style="fill: #7f7f7f"/>
   </g>
   <g id="PolyCollection_9">
    <path d="M 73.832727 59.113412 
L 73.832727 59.113412 
L 85.027712 59.113412 
L 96.222696 59.113412 
L 107.41768 59.113412 
L 118.612665 58.285176 
L 129.807649 65.739294 
L 141.002633 96.384 
L 152.197618 125.372235 
L 163.392602 137.795765 
L 174.587586 151.875765 
L 185.782571 202.398118 
L 196.977555 213.993412 
L 208.172539 211.508706 
L 219.367524 206.539294 
L 230.562508 199.913412 
L 241.757492 183.348706 
L 252.952476 193.287529 
L 264.147461 192.459294 
L 275.342445 213.993412 
L 286.537429 218.134588 
L 297.732414 233.042824 
L 308.927398 211.508706 
L 320.122382 242.153412 
L 331.317367 233.871059 
L 342.512351 235.527529 
L 353.707335 242.981647 
L 364.90232 238.840471 
L 376.097304 247.122824 
L 387.292288 261.202824 
L 398.487273 262.859294 
L 398.487273 250.435765 
L 398.487273 250.435765 
L 387.292288 247.122824 
L 376.097304 234.699294 
L 364.90232 226.416941 
L 353.707335 228.901647 
L 342.512351 219.791059 
L 331.317367 220.619294 
L 320.122382 231.386353 
L 308.927398 201.569882 
L 297.732414 222.275765 
L 286.537429 208.195765 
L 275.342445 204.882824 
L 264.147461 185.833412 
L 252.952476 188.318118 
L 241.757492 177.551059 
L 230.562508 194.944 
L 219.367524 202.398118 
L 208.172539 199.913412 
L 196.977555 200.741647 
L 185.782571 188.318118 
L 174.587586 140.280471 
L 163.392602 119.574588 
L 152.197618 110.464 
L 141.002633 83.132235 
L 129.807649 61.598118 
L 118.612665 58.285176 
L 107.41768 59.113412 
L 96.222696 59.113412 
L 85.027712 59.113412 
L 73.832727 59.113412 
z
" clip-path="url(#p92dddea60b)" style="fill: #bcbd22"/>
   </g>
   <g id="PolyCollection_10">
    <path d="M 73.832727 59.113412 
L 73.832727 59.113412 
L 85.027712 59.113412 
L 96.222696 59.113412 
L 107.41768 59.113412 
L 118.612665 58.285176 
L 129.807649 61.598118 
L 141.002633 83.132235 
L 152.197618 110.464 
L 163.392602 119.574588 
L 174.587586 140.280471 
L 185.782571 188.318118 
L 196.977555 200.741647 
L 208.172539 199.913412 
L 219.367524 202.398118 
L 230.562508 194.944 
L 241.757492 177.551059 
L 252.952476 188.318118 
L 264.147461 185.833412 
L 275.342445 204.882824 
L 286.537429 208.195765 
L 297.732414 222.275765 
L 308.927398 201.569882 
L 320.122382 231.386353 
L 331.317367 220.619294 
L 342.512351 219.791059 
L 353.707335 228.901647 
L 364.90232 226.416941 
L 376.097304 234.699294 
L 387.292288 247.122824 
L 398.487273 250.435765 
L 398.487273 248.779294 
L 398.487273 248.779294 
L 387.292288 245.466353 
L 376.097304 233.042824 
L 364.90232 224.760471 
L 353.707335 227.245176 
L 342.512351 218.134588 
L 331.317367 218.962824 
L 320.122382 229.729882 
L 308.927398 199.913412 
L 297.732414 220.619294 
L 286.537429 206.539294 
L 275.342445 203.226353 
L 264.147461 184.176941 
L 252.952476 186.661647 
L 241.757492 175.894588 
L 230.562508 193.287529 
L 219.367524 200.741647 
L 208.172539 198.256941 
L 196.977555 199.085176 
L 185.782571 185.833412 
L 174.587586 138.624 
L 163.392602 117.089882 
L 152.197618 107.979294 
L 141.002633 76.506353 
L 129.807649 60.769882 
L 118.612665 58.285176 
L 107.41768 59.113412 
L 96.222696 59.113412 
L 85.027712 59.113412 
L 73.832727 59.113412 
z
" clip-path="url(#p92dddea60b)" style="fill: #17becf"/>
   </g>
   <g id="PolyCollection_11">
    <path d="M 73.832727 59.113412 
L 73.832727 59.113412 
L 85.027712 59.113412 
L 96.222696 59.113412 
L 107.41768 59.113412 
L 118.612665 58.285176 
L 129.807649 60.769882 
L 141.002633 76.506353 
L 152.197618 107.979294 
L 163.392602 117.089882 
L 174.587586 138.624 
L 185.782571 185.833412 
L 196.977555 199.085176 
L 208.172539 198.256941 
L 219.367524 200.741647 
L 230.562508 193.287529 
L 241.757492 175.894588 
L 252.952476 186.661647 
L 264.147461 184.176941 
L 275.342445 203.226353 
L 286.537429 206.539294 
L 297.732414 220.619294 
L 308.927398 199.913412 
L 320.122382 229.729882 
L 331.317367 218.962824 
L 342.512351 218.134588 
L 353.707335 227.245176 
L 364.90232 224.760471 
L 376.097304 233.042824 
L 387.292288 245.466353 
L 398.487273 248.779294 
L 398.487273 247.122824 
L 398.487273 247.122824 
L 387.292288 243.809882 
L 376.097304 230.558118 
L 364.90232 223.104 
L 353.707335 224.760471 
L 342.512351 216.478118 
L 331.317367 217.306353 
L 320.122382 227.245176 
L 308.927398 198.256941 
L 297.732414 217.306353 
L 286.537429 202.398118 
L 275.342445 198.256941 
L 264.147461 178.379294 
L 252.952476 179.207529 
L 241.757492 170.096941 
L 230.562508 186.661647 
L 219.367524 192.459294 
L 208.172539 189.974588 
L 196.977555 189.146353 
L 185.782571 177.551059 
L 174.587586 129.513412 
L 163.392602 112.120471 
L 152.197618 100.525176 
L 141.002633 69.880471 
L 129.807649 58.285176 
L 118.612665 58.285176 
L 107.41768 59.113412 
L 96.222696 59.113412 
L 85.027712 59.113412 
L 73.832727 59.113412 
z
" clip-path="url(#p92dddea60b)" style="fill: #1f77b4"/>
   </g>
   <g id="PolyCollection_12">
    <path d="M 73.832727 59.113412 
L 73.832727 59.113412 
L 85.027712 59.113412 
L 96.222696 59.113412 
L 107.41768 59.113412 
L 118.612665 58.285176 
L 129.807649 58.285176 
L 141.002633 69.880471 
L 152.197618 100.525176 
L 163.392602 112.120471 
L 174.587586 129.513412 
L 185.782571 177.551059 
L 196.977555 189.146353 
L 208.172539 189.974588 
L 219.367524 192.459294 
L 230.562508 186.661647 
L 241.757492 170.096941 
L 252.952476 179.207529 
L 264.147461 178.379294 
L 275.342445 198.256941 
L 286.537429 202.398118 
L 297.732414 217.306353 
L 308.927398 198.256941 
L 320.122382 227.245176 
L 331.317367 217.306353 
L 342.512351 216.478118 
L 353.707335 224.760471 
L 364.90232 223.104 
L 376.097304 230.558118 
L 387.292288 243.809882 
L 398.487273 247.122824 
L 398.487273 245.466353 
L 398.487273 245.466353 
L 387.292288 242.153412 
L 376.097304 228.901647 
L 364.90232 221.447529 
L 353.707335 223.104 
L 342.512351 213.993412 
L 331.317367 215.649882 
L 320.122382 224.760471 
L 308.927398 194.944 
L 297.732414 213.165176 
L 286.537429 196.600471 
L 275.342445 191.631059 
L 264.147461 170.925176 
L 252.952476 168.440471 
L 241.757492 164.299294 
L 230.562508 178.379294 
L 219.367524 182.520471 
L 208.172539 181.692235 
L 196.977555 180.864 
L 185.782571 175.894588 
L 174.587586 126.200471 
L 163.392602 110.464 
L 152.197618 98.040471 
L 141.002633 69.052235 
L 129.807649 58.285176 
L 118.612665 58.285176 
L 107.41768 59.113412 
L 96.222696 59.113412 
L 85.027712 59.113412 
L 73.832727 59.113412 
z
" clip-path="url(#p92dddea60b)" style="fill: #ff7f0e"/>
   </g>
   <g id="PolyCollection_13">
    <path d="M 73.832727 59.113412 
L 73.832727 59.113412 
L 85.027712 59.113412 
L 96.222696 59.113412 
L 107.41768 59.113412 
L 118.612665 58.285176 
L 129.807649 58.285176 
L 141.002633 69.052235 
L 152.197618 98.040471 
L 163.392602 110.464 
L 174.587586 126.200471 
L 185.782571 175.894588 
L 196.977555 180.864 
L 208.172539 181.692235 
L 219.367524 182.520471 
L 230.562508 178.379294 
L 241.757492 164.299294 
L 252.952476 168.440471 
L 264.147461 170.925176 
L 275.342445 191.631059 
L 286.537429 196.600471 
L 297.732414 213.165176 
L 308.927398 194.944 
L 320.122382 224.760471 
L 331.317367 215.649882 
L 342.512351 213.993412 
L 353.707335 223.104 
L 364.90232 221.447529 
L 376.097304 228.901647 
L 387.292288 242.153412 
L 398.487273 245.466353 
L 398.487273 235.527529 
L 398.487273 235.527529 
L 387.292288 238.840471 
L 376.097304 228.073412 
L 364.90232 217.306353 
L 353.707335 219.791059 
L 342.512351 211.508706 
L 331.317367 213.993412 
L 320.122382 220.619294 
L 308.927398 192.459294 
L 297.732414 209.852235 
L 286.537429 189.974588 
L 275.342445 183.348706 
L 264.147461 160.158118 
L 252.952476 164.299294 
L 241.757492 160.986353 
L 230.562508 175.066353 
L 219.367524 178.379294 
L 208.172539 176.722824 
L 196.977555 173.409882 
L 185.782571 165.955765 
L 174.587586 120.402824 
L 163.392602 103.009882 
L 152.197618 88.101647 
L 141.002633 65.739294 
L 129.807649 58.285176 
L 118.612665 58.285176 
L 107.41768 59.113412 
L 96.222696 59.113412 
L 85.027712 59.113412 
L 73.832727 59.113412 
z
" clip-path="url(#p92dddea60b)" style="fill: #2ca02c"/>
   </g>
   <g id="PolyCollection_14">
    <path d="M 73.832727 59.113412 
L 73.832727 59.113412 
L 85.027712 59.113412 
L 96.222696 59.113412 
L 107.41768 59.113412 
L 118.612665 58.285176 
L 129.807649 58.285176 
L 141.002633 65.739294 
L 152.197618 88.101647 
L 163.392602 103.009882 
L 174.587586 120.402824 
L 185.782571 165.955765 
L 196.977555 173.409882 
L 208.172539 176.722824 
L 219.367524 178.379294 
L 230.562508 175.066353 
L 241.757492 160.986353 
L 252.952476 164.299294 
L 264.147461 160.158118 
L 275.342445 183.348706 
L 286.537429 189.974588 
L 297.732414 209.852235 
L 308.927398 192.459294 
L 320.122382 220.619294 
L 331.317367 213.993412 
L 342.512351 211.508706 
L 353.707335 219.791059 
L 364.90232 217.306353 
L 376.097304 228.073412 
L 387.292288 238.840471 
L 398.487273 235.527529 
L 398.487273 233.871059 
L 398.487273 233.871059 
L 387.292288 237.184 
L 376.097304 225.588706 
L 364.90232 215.649882 
L 353.707335 218.134588 
L 342.512351 209.852235 
L 331.317367 211.508706 
L 320.122382 218.962824 
L 308.927398 189.974588 
L 297.732414 206.539294 
L 286.537429 187.489882 
L 275.342445 180.035765 
L 264.147461 156.016941 
L 252.952476 160.158118 
L 241.757492 155.188706 
L 230.562508 170.925176 
L 219.367524 175.066353 
L 208.172539 172.581647 
L 196.977555 167.612235 
L 185.782571 165.127529 
L 174.587586 113.776941 
L 163.392602 100.525176 
L 152.197618 82.304 
L 141.002633 64.082824 
L 129.807649 58.285176 
L 118.612665 58.285176 
L 107.41768 59.113412 
L 96.222696 59.113412 
L 85.027712 59.113412 
L 73.832727 59.113412 
z
" clip-path="url(#p92dddea60b)" style="fill: #d62728"/>
   </g>
   <g id="PolyCollection_15">
    <path d="M 73.832727 59.113412 
L 73.832727 59.113412 
L 85.027712 59.113412 
L 96.222696 59.113412 
L 107.41768 59.113412 
L 118.612665 58.285176 
L 129.807649 58.285176 
L 141.002633 64.082824 
L 152.197618 82.304 
L 163.392602 100.525176 
L 174.587586 113.776941 
L 185.782571 165.127529 
L 196.977555 167.612235 
L 208.172539 172.581647 
L 219.367524 175.066353 
L 230.562508 170.925176 
L 241.757492 155.188706 
L 252.952476 160.158118 
L 264.147461 156.016941 
L 275.342445 180.035765 
L 286.537429 187.489882 
L 297.732414 206.539294 
L 308.927398 189.974588 
L 320.122382 218.962824 
L 331.317367 211.508706 
L 342.512351 209.852235 
L 353.707335 218.134588 
L 364.90232 215.649882 
L 376.097304 225.588706 
L 387.292288 237.184 
L 398.487273 233.871059 
L 398.487273 232.214588 
L 398.487273 232.214588 
L 387.292288 235.527529 
L 376.097304 223.104 
L 364.90232 213.165176 
L 353.707335 216.478118 
L 342.512351 207.367529 
L 331.317367 209.852235 
L 320.122382 217.306353 
L 308.927398 187.489882 
L 297.732414 204.882824 
L 286.537429 184.176941 
L 275.342445 176.722824 
L 264.147461 151.047529 
L 252.952476 153.532235 
L 241.757492 147.734588 
L 230.562508 163.471059 
L 219.367524 173.409882 
L 208.172539 163.471059 
L 196.977555 158.501647 
L 185.782571 160.986353 
L 174.587586 107.979294 
L 163.392602 91.414588 
L 152.197618 67.395765 
L 141.002633 60.769882 
L 129.807649 58.285176 
L 118.612665 58.285176 
L 107.41768 59.113412 
L 96.222696 59.113412 
L 85.027712 59.113412 
L 73.832727 59.113412 
z
" clip-path="url(#p92dddea60b)" style="fill: #9467bd"/>
   </g>
   <g id="PolyCollection_16">
    <path d="M 73.832727 59.113412 
L 73.832727 59.113412 
L 85.027712 59.113412 
L 96.222696 59.113412 
L 107.41768 59.113412 
L 118.612665 58.285176 
L 129.807649 58.285176 
L 141.002633 60.769882 
L 152.197618 67.395765 
L 163.392602 91.414588 
L 174.587586 107.979294 
L 185.782571 160.986353 
L 196.977555 158.501647 
L 208.172539 163.471059 
L 219.367524 173.409882 
L 230.562508 163.471059 
L 241.757492 147.734588 
L 252.952476 153.532235 
L 264.147461 151.047529 
L 275.342445 176.722824 
L 286.537429 184.176941 
L 297.732414 204.882824 
L 308.927398 187.489882 
L 320.122382 217.306353 
L 331.317367 209.852235 
L 342.512351 207.367529 
L 353.707335 216.478118 
L 364.90232 213.165176 
L 376.097304 223.104 
L 387.292288 235.527529 
L 398.487273 232.214588 
L 398.487273 226.416941 
L 398.487273 226.416941 
L 387.292288 229.729882 
L 376.097304 218.134588 
L 364.90232 209.852235 
L 353.707335 212.336941 
L 342.512351 204.054588 
L 331.317367 207.367529 
L 320.122382 213.993412 
L 308.927398 183.348706 
L 297.732414 200.741647 
L 286.537429 179.207529 
L 275.342445 170.925176 
L 264.147461 144.421647 
L 252.952476 146.078118 
L 241.757492 139.452235 
L 230.562508 154.360471 
L 219.367524 165.127529 
L 208.172539 159.329882 
L 196.977555 155.188706 
L 185.782571 147.734588 
L 174.587586 95.555765 
L 163.392602 80.647529 
L 152.197618 59.113412 
L 141.002633 57.456941 
L 129.807649 58.285176 
L 118.612665 58.285176 
L 107.41768 59.113412 
L 96.222696 59.113412 
L 85.027712 59.113412 
L 73.832727 59.113412 
z
" clip-path="url(#p92dddea60b)" style="fill: #8c564b"/>
   </g>
   <g id="PolyCollection_17">
    <path d="M 73.832727 59.113412 
L 73.832727 59.113412 
L 85.027712 59.113412 
L 96.222696 59.113412 
L 107.41768 59.113412 
L 118.612665 58.285176 
L 129.807649 58.285176 
L 141.002633 57.456941 
L 152.197618 59.113412 
L 163.392602 80.647529 
L 174.587586 95.555765 
L 185.782571 147.734588 
L 196.977555 155.188706 
L 208.172539 159.329882 
L 219.367524 165.127529 
L 230.562508 154.360471 
L 241.757492 139.452235 
L 252.952476 146.078118 
L 264.147461 144.421647 
L 275.342445 170.925176 
L 286.537429 179.207529 
L 297.732414 200.741647 
L 308.927398 183.348706 
L 320.122382 213.993412 
L 331.317367 207.367529 
L 342.512351 204.054588 
L 353.707335 212.336941 
L 364.90232 209.852235 
L 376.097304 218.134588 
L 387.292288 229.729882 
L 398.487273 226.416941 
L 398.487273 215.649882 
L 398.487273 215.649882 
L 387.292288 218.134588 
L 376.097304 204.882824 
L 364.90232 197.428706 
L 353.707335 209.024 
L 342.512351 197.428706 
L 331.317367 195.772235 
L 320.122382 192.459294 
L 308.927398 165.955765 
L 297.732414 175.066353 
L 286.537429 167.612235 
L 275.342445 147.734588 
L 264.147461 117.089882 
L 252.952476 128.685176 
L 241.757492 111.292235 
L 230.562508 125.372235 
L 219.367524 136.967529 
L 208.172539 140.280471 
L 196.977555 137.795765 
L 185.782571 138.624 
L 174.587586 74.849882 
L 163.392602 63.254588 
L 152.197618 56.628706 
L 141.002633 57.456941 
L 129.807649 58.285176 
L 118.612665 58.285176 
L 107.41768 59.113412 
L 96.222696 59.113412 
L 85.027712 59.113412 
L 73.832727 59.113412 
z
" clip-path="url(#p92dddea60b)" style="fill: #e377c2"/>
   </g>
   <g id="PolyCollection_18">
    <path d="M 73.832727 59.113412 
L 73.832727 59.113412 
L 85.027712 59.113412 
L 96.222696 59.113412 
L 107.41768 59.113412 
L 118.612665 58.285176 
L 129.807649 58.285176 
L 141.002633 57.456941 
L 152.197618 56.628706 
L 163.392602 63.254588 
L 174.587586 74.849882 
L 185.782571 138.624 
L 196.977555 137.795765 
L 208.172539 140.280471 
L 219.367524 136.967529 
L 230.562508 125.372235 
L 241.757492 111.292235 
L 252.952476 128.685176 
L 264.147461 117.089882 
L 275.342445 147.734588 
L 286.537429 167.612235 
L 297.732414 175.066353 
L 308.927398 165.955765 
L 320.122382 192.459294 
L 331.317367 195.772235 
L 342.512351 197.428706 
L 353.707335 209.024 
L 364.90232 197.428706 
L 376.097304 204.882824 
L 387.292288 218.134588 
L 398.487273 215.649882 
L 398.487273 213.993412 
L 398.487273 213.993412 
L 387.292288 216.478118 
L 376.097304 203.226353 
L 364.90232 195.772235 
L 353.707335 207.367529 
L 342.512351 195.772235 
L 331.317367 194.115765 
L 320.122382 190.802824 
L 308.927398 163.471059 
L 297.732414 173.409882 
L 286.537429 165.955765 
L 275.342445 146.078118 
L 264.147461 115.433412 
L 252.952476 126.200471 
L 241.757492 109.635765 
L 230.562508 123.715765 
L 219.367524 135.311059 
L 208.172539 138.624 
L 196.977555 135.311059 
L 185.782571 136.967529 
L 174.587586 71.536941 
L 163.392602 60.769882 
L 152.197618 56.628706 
L 141.002633 57.456941 
L 129.807649 58.285176 
L 118.612665 58.285176 
L 107.41768 59.113412 
L 96.222696 59.113412 
L 85.027712 59.113412 
L 73.832727 59.113412 
z
" clip-path="url(#p92dddea60b)" style="fill: #7f7f7f"/>
   </g>
   <g id="PolyCollection_19">
    <path d="M 73.832727 59.113412 
L 73.832727 59.113412 
L 85.027712 59.113412 
L 96.222696 59.113412 
L 107.41768 59.113412 
L 118.612665 58.285176 
L 129.807649 58.285176 
L 141.002633 57.456941 
L 152.197618 56.628706 
L 163.392602 60.769882 
L 174.587586 71.536941 
L 185.782571 136.967529 
L 196.977555 135.311059 
L 208.172539 138.624 
L 219.367524 135.311059 
L 230.562508 123.715765 
L 241.757492 109.635765 
L 252.952476 126.200471 
L 264.147461 115.433412 
L 275.342445 146.078118 
L 286.537429 165.955765 
L 297.732414 173.409882 
L 308.927398 163.471059 
L 320.122382 190.802824 
L 331.317367 194.115765 
L 342.512351 195.772235 
L 353.707335 207.367529 
L 364.90232 195.772235 
L 376.097304 203.226353 
L 387.292288 216.478118 
L 398.487273 213.993412 
L 398.487273 210.680471 
L 398.487273 210.680471 
L 387.292288 211.508706 
L 376.097304 197.428706 
L 364.90232 188.318118 
L 353.707335 186.661647 
L 342.512351 184.176941 
L 331.317367 181.692235 
L 320.122382 169.268706 
L 308.927398 146.906353 
L 297.732414 164.299294 
L 286.537429 163.471059 
L 275.342445 142.765176 
L 264.147461 111.292235 
L 252.952476 122.887529 
L 241.757492 107.979294 
L 230.562508 117.089882 
L 219.367524 130.341647 
L 208.172539 133.654588 
L 196.977555 127.028706 
L 185.782571 129.513412 
L 174.587586 64.911059 
L 163.392602 57.456941 
L 152.197618 56.628706 
L 141.002633 57.456941 
L 129.807649 58.285176 
L 118.612665 58.285176 
L 107.41768 59.113412 
L 96.222696 59.113412 
L 85.027712 59.113412 
L 73.832727 59.113412 
z
" clip-path="url(#p92dddea60b)" style="fill: #bcbd22"/>
   </g>
   <g id="PolyCollection_20">
    <path d="M 73.832727 59.113412 
L 73.832727 59.113412 
L 85.027712 59.113412 
L 96.222696 59.113412 
L 107.41768 59.113412 
L 118.612665 58.285176 
L 129.807649 58.285176 
L 141.002633 57.456941 
L 152.197618 56.628706 
L 163.392602 57.456941 
L 174.587586 64.911059 
L 185.782571 129.513412 
L 196.977555 127.028706 
L 208.172539 133.654588 
L 219.367524 130.341647 
L 230.562508 117.089882 
L 241.757492 107.979294 
L 252.952476 122.887529 
L 264.147461 111.292235 
L 275.342445 142.765176 
L 286.537429 163.471059 
L 297.732414 164.299294 
L 308.927398 146.906353 
L 320.122382 169.268706 
L 331.317367 181.692235 
L 342.512351 184.176941 
L 353.707335 186.661647 
L 364.90232 188.318118 
L 376.097304 197.428706 
L 387.292288 211.508706 
L 398.487273 210.680471 
L 398.487273 209.024 
L 398.487273 209.024 
L 387.292288 209.852235 
L 376.097304 195.772235 
L 364.90232 186.661647 
L 353.707335 185.005176 
L 342.512351 182.520471 
L 331.317367 180.035765 
L 320.122382 167.612235 
L 308.927398 145.249882 
L 297.732414 162.642824 
L 286.537429 161.814588 
L 275.342445 141.108706 
L 264.147461 109.635765 
L 252.952476 120.402824 
L 241.757492 106.322824 
L 230.562508 115.433412 
L 219.367524 128.685176 
L 208.172539 131.169882 
L 196.977555 125.372235 
L 185.782571 126.200471 
L 174.587586 62.426353 
L 163.392602 56.628706 
L 152.197618 56.628706 
L 141.002633 57.456941 
L 129.807649 58.285176 
L 118.612665 58.285176 
L 107.41768 59.113412 
L 96.222696 59.113412 
L 85.027712 59.113412 
L 73.832727 59.113412 
z
" clip-path="url(#p92dddea60b)" style="fill: #17becf"/>
   </g>
   <g id="PolyCollection_21">
    <path d="M 73.832727 59.113412 
L 73.832727 59.113412 
L 85.027712 59.113412 
L 96.222696 59.113412 
L 107.41768 59.113412 
L 118.612665 58.285176 
L 129.807649 58.285176 
L 141.002633 57.456941 
L 152.197618 56.628706 
L 163.392602 56.628706 
L 174.587586 62.426353 
L 185.782571 126.200471 
L 196.977555 125.372235 
L 208.172539 131.169882 
L 219.367524 128.685176 
L 230.562508 115.433412 
L 241.757492 106.322824 
L 252.952476 120.402824 
L 264.147461 109.635765 
L 275.342445 141.108706 
L 286.537429 161.814588 
L 297.732414 162.642824 
L 308.927398 145.249882 
L 320.122382 167.612235 
L 331.317367 180.035765 
L 342.512351 182.520471 
L 353.707335 185.005176 
L 364.90232 186.661647 
L 376.097304 195.772235 
L 387.292288 209.852235 
L 398.487273 209.024 
L 398.487273 207.367529 
L 398.487273 207.367529 
L 387.292288 208.195765 
L 376.097304 194.115765 
L 364.90232 184.176941 
L 353.707335 183.348706 
L 342.512351 180.035765 
L 331.317367 178.379294 
L 320.122382 165.955765 
L 308.927398 143.593412 
L 297.732414 160.986353 
L 286.537429 160.158118 
L 275.342445 139.452235 
L 264.147461 107.979294 
L 252.952476 118.746353 
L 241.757492 104.666353 
L 230.562508 113.776941 
L 219.367524 126.200471 
L 208.172539 129.513412 
L 196.977555 123.715765 
L 185.782571 123.715765 
L 174.587586 61.598118 
L 163.392602 56.628706 
L 152.197618 56.628706 
L 141.002633 57.456941 
L 129.807649 58.285176 
L 118.612665 58.285176 
L 107.41768 59.113412 
L 96.222696 59.113412 
L 85.027712 59.113412 
L 73.832727 59.113412 
z
" clip-path="url(#p92dddea60b)" style="fill: #1f77b4"/>
   </g>
   <g id="PolyCollection_22">
    <path d="M 73.832727 59.113412 
L 73.832727 59.113412 
L 85.027712 59.113412 
L 96.222696 59.113412 
L 107.41768 59.113412 
L 118.612665 58.285176 
L 129.807649 58.285176 
L 141.002633 57.456941 
L 152.197618 56.628706 
L 163.392602 56.628706 
L 174.587586 61.598118 
L 185.782571 123.715765 
L 196.977555 123.715765 
L 208.172539 129.513412 
L 219.367524 126.200471 
L 230.562508 113.776941 
L 241.757492 104.666353 
L 252.952476 118.746353 
L 264.147461 107.979294 
L 275.342445 139.452235 
L 286.537429 160.158118 
L 297.732414 160.986353 
L 308.927398 143.593412 
L 320.122382 165.955765 
L 331.317367 178.379294 
L 342.512351 180.035765 
L 353.707335 183.348706 
L 364.90232 184.176941 
L 376.097304 194.115765 
L 387.292288 208.195765 
L 398.487273 207.367529 
L 398.487273 197.428706 
L 398.487273 197.428706 
L 387.292288 197.428706 
L 376.097304 186.661647 
L 364.90232 173.409882 
L 353.707335 175.066353 
L 342.512351 167.612235 
L 331.317367 162.642824 
L 320.122382 145.249882 
L 308.927398 126.200471 
L 297.732414 143.593412 
L 286.537429 155.188706 
L 275.342445 136.967529 
L 264.147461 91.414588 
L 252.952476 89.758118 
L 241.757492 89.758118 
L 230.562508 95.555765 
L 219.367524 103.009882 
L 208.172539 113.776941 
L 196.977555 103.009882 
L 185.782571 81.475765 
L 174.587586 58.285176 
L 163.392602 56.628706 
L 152.197618 56.628706 
L 141.002633 57.456941 
L 129.807649 58.285176 
L 118.612665 58.285176 
L 107.41768 59.113412 
L 96.222696 59.113412 
L 85.027712 59.113412 
L 73.832727 59.113412 
z
" clip-path="url(#p92dddea60b)" style="fill: #ff7f0e"/>
   </g>
   <g id="PolyCollection_23">
    <path d="M 73.832727 59.113412 
L 73.832727 59.113412 
L 85.027712 59.113412 
L 96.222696 59.113412 
L 107.41768 59.113412 
L 118.612665 58.285176 
L 129.807649 58.285176 
L 141.002633 57.456941 
L 152.197618 56.628706 
L 163.392602 56.628706 
L 174.587586 58.285176 
L 185.782571 81.475765 
L 196.977555 103.009882 
L 208.172539 113.776941 
L 219.367524 103.009882 
L 230.562508 95.555765 
L 241.757492 89.758118 
L 252.952476 89.758118 
L 264.147461 91.414588 
L 275.342445 136.967529 
L 286.537429 155.188706 
L 297.732414 143.593412 
L 308.927398 126.200471 
L 320.122382 145.249882 
L 331.317367 162.642824 
L 342.512351 167.612235 
L 353.707335 175.066353 
L 364.90232 173.409882 
L 376.097304 186.661647 
L 387.292288 197.428706 
L 398.487273 197.428706 
L 398.487273 189.146353 
L 398.487273 189.146353 
L 387.292288 189.974588 
L 376.097304 176.722824 
L 364.90232 165.955765 
L 353.707335 165.127529 
L 342.512351 153.532235 
L 331.317367 145.249882 
L 320.122382 126.200471 
L 308.927398 106.322824 
L 297.732414 125.372235 
L 286.537429 134.482824 
L 275.342445 112.948706 
L 264.147461 76.506353 
L 252.952476 70.708706 
L 241.757492 69.880471 
L 230.562508 70.708706 
L 219.367524 76.506353 
L 208.172539 80.647529 
L 196.977555 71.536941 
L 185.782571 57.456941 
L 174.587586 58.285176 
L 163.392602 56.628706 
L 152.197618 56.628706 
L 141.002633 57.456941 
L 129.807649 58.285176 
L 118.612665 58.285176 
L 107.41768 59.113412 
L 96.222696 59.113412 
L 85.027712 59.113412 
L 73.832727 59.113412 
z
" clip-path="url(#p92dddea60b)" style="fill: #2ca02c"/>
   </g>
   <g id="PolyCollection_24">
    <path d="M 73.832727 59.113412 
L 73.832727 59.113412 
L 85.027712 59.113412 
L 96.222696 59.113412 
L 107.41768 59.113412 
L 118.612665 58.285176 
L 129.807649 58.285176 
L 141.002633 57.456941 
L 152.197618 56.628706 
L 163.392602 56.628706 
L 174.587586 58.285176 
L 185.782571 57.456941 
L 196.977555 71.536941 
L 208.172539 80.647529 
L 219.367524 76.506353 
L 230.562508 70.708706 
L 241.757492 69.880471 
L 252.952476 70.708706 
L 264.147461 76.506353 
L 275.342445 112.948706 
L 286.537429 134.482824 
L 297.732414 125.372235 
L 308.927398 106.322824 
L 320.122382 126.200471 
L 331.317367 145.249882 
L 342.512351 153.532235 
L 353.707335 165.127529 
L 364.90232 165.955765 
L 376.097304 176.722824 
L 387.292288 189.974588 
L 398.487273 189.146353 
L 398.487273 186.661647 
L 398.487273 186.661647 
L 387.292288 186.661647 
L 376.097304 174.238118 
L 364.90232 164.299294 
L 353.707335 162.642824 
L 342.512351 151.875765 
L 331.317367 142.765176 
L 320.122382 122.887529 
L 308.927398 103.838118 
L 297.732414 121.231059 
L 286.537429 127.856941 
L 275.342445 107.979294 
L 264.147461 70.708706 
L 252.952476 64.082824 
L 241.757492 62.426353 
L 230.562508 64.082824 
L 219.367524 68.224 
L 208.172539 71.536941 
L 196.977555 61.598118 
L 185.782571 57.456941 
L 174.587586 58.285176 
L 163.392602 56.628706 
L 152.197618 56.628706 
L 141.002633 57.456941 
L 129.807649 58.285176 
L 118.612665 58.285176 
L 107.41768 59.113412 
L 96.222696 59.113412 
L 85.027712 59.113412 
L 73.832727 59.113412 
z
" clip-path="url(#p92dddea60b)" style="fill: #d62728"/>
   </g>
   <g id="PolyCollection_25">
    <path d="M 73.832727 59.113412 
L 73.832727 59.113412 
L 85.027712 59.113412 
L 96.222696 59.113412 
L 107.41768 59.113412 
L 118.612665 58.285176 
L 129.807649 58.285176 
L 141.002633 57.456941 
L 152.197618 56.628706 
L 163.392602 56.628706 
L 174.587586 58.285176 
L 185.782571 57.456941 
L 196.977555 61.598118 
L 208.172539 71.536941 
L 219.367524 68.224 
L 230.562508 64.082824 
L 241.757492 62.426353 
L 252.952476 64.082824 
L 264.147461 70.708706 
L 275.342445 107.979294 
L 286.537429 127.856941 
L 297.732414 121.231059 
L 308.927398 103.838118 
L 320.122382 122.887529 
L 331.317367 142.765176 
L 342.512351 151.875765 
L 353.707335 162.642824 
L 364.90232 164.299294 
L 376.097304 174.238118 
L 387.292288 186.661647 
L 398.487273 186.661647 
L 398.487273 172.581647 
L 398.487273 172.581647 
L 387.292288 168.440471 
L 376.097304 160.158118 
L 364.90232 145.249882 
L 353.707335 132.826353 
L 342.512351 131.998118 
L 331.317367 122.887529 
L 320.122382 107.979294 
L 308.927398 94.727529 
L 297.732414 90.586353 
L 286.537429 93.899294 
L 275.342445 80.647529 
L 264.147461 64.911059 
L 252.952476 58.285176 
L 241.757492 56.628706 
L 230.562508 59.113412 
L 219.367524 59.113412 
L 208.172539 59.113412 
L 196.977555 58.285176 
L 185.782571 57.456941 
L 174.587586 58.285176 
L 163.392602 56.628706 
L 152.197618 56.628706 
L 141.002633 57.456941 
L 129.807649 58.285176 
L 118.612665 58.285176 
L 107.41768 59.113412 
L 96.222696 59.113412 
L 85.027712 59.113412 
L 73.832727 59.113412 
z
" clip-path="url(#p92dddea60b)" style="fill: #9467bd"/>
   </g>
   <g id="PolyCollection_26">
    <path d="M 73.832727 59.113412 
L 73.832727 59.113412 
L 85.027712 59.113412 
L 96.222696 59.113412 
L 107.41768 59.113412 
L 118.612665 58.285176 
L 129.807649 58.285176 
L 141.002633 57.456941 
L 152.197618 56.628706 
L 163.392602 56.628706 
L 174.587586 58.285176 
L 185.782571 57.456941 
L 196.977555 58.285176 
L 208.172539 59.113412 
L 219.367524 59.113412 
L 230.562508 59.113412 
L 241.757492 56.628706 
L 252.952476 58.285176 
L 264.147461 64.911059 
L 275.342445 80.647529 
L 286.537429 93.899294 
L 297.732414 90.586353 
L 308.927398 94.727529 
L 320.122382 107.979294 
L 331.317367 122.887529 
L 342.512351 131.998118 
L 353.707335 132.826353 
L 364.90232 145.249882 
L 376.097304 160.158118 
L 387.292288 168.440471 
L 398.487273 172.581647 
L 398.487273 164.299294 
L 398.487273 164.299294 
L 387.292288 154.360471 
L 376.097304 146.906353 
L 364.90232 133.654588 
L 353.707335 117.918118 
L 342.512351 116.261647 
L 331.317367 108.807529 
L 320.122382 88.929882 
L 308.927398 75.678118 
L 297.732414 73.193412 
L 286.537429 75.678118 
L 275.342445 66.567529 
L 264.147461 59.113412 
L 252.952476 57.456941 
L 241.757492 56.628706 
L 230.562508 59.113412 
L 219.367524 59.113412 
L 208.172539 59.113412 
L 196.977555 58.285176 
L 185.782571 57.456941 
L 174.587586 58.285176 
L 163.392602 56.628706 
L 152.197618 56.628706 
L 141.002633 57.456941 
L 129.807649 58.285176 
L 118.612665 58.285176 
L 107.41768 59.113412 
L 96.222696 59.113412 
L 85.027712 59.113412 
L 73.832727 59.113412 
z
" clip-path="url(#p92dddea60b)" style="fill: #8c564b"/>
   </g>
   <g id="PolyCollection_27">
    <path d="M 73.832727 59.113412 
L 73.832727 59.113412 
L 85.027712 59.113412 
L 96.222696 59.113412 
L 107.41768 59.113412 
L 118.612665 58.285176 
L 129.807649 58.285176 
L 141.002633 57.456941 
L 152.197618 56.628706 
L 163.392602 56.628706 
L 174.587586 58.285176 
L 185.782571 57.456941 
L 196.977555 58.285176 
L 208.172539 59.113412 
L 219.367524 59.113412 
L 230.562508 59.113412 
L 241.757492 56.628706 
L 252.952476 57.456941 
L 264.147461 59.113412 
L 275.342445 66.567529 
L 286.537429 75.678118 
L 297.732414 73.193412 
L 308.927398 75.678118 
L 320.122382 88.929882 
L 331.317367 108.807529 
L 342.512351 116.261647 
L 353.707335 117.918118 
L 364.90232 133.654588 
L 376.097304 146.906353 
L 387.292288 154.360471 
L 398.487273 164.299294 
L 398.487273 149.391059 
L 398.487273 149.391059 
L 387.292288 139.452235 
L 376.097304 135.311059 
L 364.90232 125.372235 
L 353.707335 103.838118 
L 342.512351 96.384 
L 331.317367 83.960471 
L 320.122382 64.911059 
L 308.927398 59.941647 
L 297.732414 59.113412 
L 286.537429 57.456941 
L 275.342445 56.628706 
L 264.147461 59.113412 
L 252.952476 57.456941 
L 241.757492 56.628706 
L 230.562508 59.113412 
L 219.367524 59.113412 
L 208.172539 59.113412 
L 196.977555 58.285176 
L 185.782571 57.456941 
L 174.587586 58.285176 
L 163.392602 56.628706 
L 152.197618 56.628706 
L 141.002633 57.456941 
L 129.807649 58.285176 
L 118.612665 58.285176 
L 107.41768 59.113412 
L 96.222696 59.113412 
L 85.027712 59.113412 
L 73.832727 59.113412 
z
" clip-path="url(#p92dddea60b)" style="fill: #e377c2"/>
   </g>
   <g id="PolyCollection_28">
    <path d="M 73.832727 59.113412 
L 73.832727 59.113412 
L 85.027712 59.113412 
L 96.222696 59.113412 
L 107.41768 59.113412 
L 118.612665 58.285176 
L 129.807649 58.285176 
L 141.002633 57.456941 
L 152.197618 56.628706 
L 163.392602 56.628706 
L 174.587586 58.285176 
L 185.782571 57.456941 
L 196.977555 58.285176 
L 208.172539 59.113412 
L 219.367524 59.113412 
L 230.562508 59.113412 
L 241.757492 56.628706 
L 252.952476 57.456941 
L 264.147461 59.113412 
L 275.342445 56.628706 
L 286.537429 57.456941 
L 297.732414 59.113412 
L 308.927398 59.941647 
L 320.122382 64.911059 
L 331.317367 83.960471 
L 342.512351 96.384 
L 353.707335 103.838118 
L 364.90232 125.372235 
L 376.097304 135.311059 
L 387.292288 139.452235 
L 398.487273 149.391059 
L 398.487273 147.734588 
L 398.487273 147.734588 
L 387.292288 137.795765 
L 376.097304 133.654588 
L 364.90232 123.715765 
L 353.707335 102.181647 
L 342.512351 94.727529 
L 331.317367 81.475765 
L 320.122382 63.254588 
L 308.927398 58.285176 
L 297.732414 58.285176 
L 286.537429 57.456941 
L 275.342445 56.628706 
L 264.147461 59.113412 
L 252.952476 57.456941 
L 241.757492 56.628706 
L 230.562508 59.113412 
L 219.367524 59.113412 
L 208.172539 59.113412 
L 196.977555 58.285176 
L 185.782571 57.456941 
L 174.587586 58.285176 
L 163.392602 56.628706 
L 152.197618 56.628706 
L 141.002633 57.456941 
L 129.807649 58.285176 
L 118.612665 58.285176 
L 107.41768 59.113412 
L 96.222696 59.113412 
L 85.027712 59.113412 
L 73.832727 59.113412 
z
" clip-path="url(#p92dddea60b)" style="fill: #7f7f7f"/>
   </g>
   <g id="PolyCollection_29">
    <path d="M 73.832727 59.113412 
L 73.832727 59.113412 
L 85.027712 59.113412 
L 96.222696 59.113412 
L 107.41768 59.113412 
L 118.612665 58.285176 
L 129.807649 58.285176 
L 141.002633 57.456941 
L 152.197618 56.628706 
L 163.392602 56.628706 
L 174.587586 58.285176 
L 185.782571 57.456941 
L 196.977555 58.285176 
L 208.172539 59.113412 
L 219.367524 59.113412 
L 230.562508 59.113412 
L 241.757492 56.628706 
L 252.952476 57.456941 
L 264.147461 59.113412 
L 275.342445 56.628706 
L 286.537429 57.456941 
L 297.732414 58.285176 
L 308.927398 58.285176 
L 320.122382 63.254588 
L 331.317367 81.475765 
L 342.512351 94.727529 
L 353.707335 102.181647 
L 364.90232 123.715765 
L 376.097304 133.654588 
L 387.292288 137.795765 
L 398.487273 147.734588 
L 398.487273 145.249882 
L 398.487273 145.249882 
L 387.292288 136.139294 
L 376.097304 131.998118 
L 364.90232 122.059294 
L 353.707335 100.525176 
L 342.512351 93.071059 
L 331.317367 78.991059 
L 320.122382 61.598118 
L 308.927398 58.285176 
L 297.732414 58.285176 
L 286.537429 57.456941 
L 275.342445 56.628706 
L 264.147461 59.113412 
L 252.952476 57.456941 
L 241.757492 56.628706 
L 230.562508 59.113412 
L 219.367524 59.113412 
L 208.172539 59.113412 
L 196.977555 58.285176 
L 185.782571 57.456941 
L 174.587586 58.285176 
L 163.392602 56.628706 
L 152.197618 56.628706 
L 141.002633 57.456941 
L 129.807649 58.285176 
L 118.612665 58.285176 
L 107.41768 59.113412 
L 96.222696 59.113412 
L 85.027712 59.113412 
L 73.832727 59.113412 
z
" clip-path="url(#p92dddea60b)" style="fill: #bcbd22"/>
   </g>
   <g id="PolyCollection_30">
    <path d="M 73.832727 59.113412 
L 73.832727 59.113412 
L 85.027712 59.113412 
L 96.222696 59.113412 
L 107.41768 59.113412 
L 118.612665 58.285176 
L 129.807649 58.285176 
L 141.002633 57.456941 
L 152.197618 56.628706 
L 163.392602 56.628706 
L 174.587586 58.285176 
L 185.782571 57.456941 
L 196.977555 58.285176 
L 208.172539 59.113412 
L 219.367524 59.113412 
L 230.562508 59.113412 
L 241.757492 56.628706 
L 252.952476 57.456941 
L 264.147461 59.113412 
L 275.342445 56.628706 
L 286.537429 57.456941 
L 297.732414 58.285176 
L 308.927398 58.285176 
L 320.122382 61.598118 
L 331.317367 78.991059 
L 342.512351 93.071059 
L 353.707335 100.525176 
L 364.90232 122.059294 
L 376.097304 131.998118 
L 387.292288 136.139294 
L 398.487273 145.249882 
L 398.487273 130.341647 
L 398.487273 130.341647 
L 387.292288 121.231059 
L 376.097304 117.918118 
L 364.90232 105.494588 
L 353.707335 83.960471 
L 342.512351 78.162824 
L 331.317367 64.082824 
L 320.122382 55.800471 
L 308.927398 58.285176 
L 297.732414 58.285176 
L 286.537429 57.456941 
L 275.342445 56.628706 
L 264.147461 59.113412 
L 252.952476 57.456941 
L 241.757492 56.628706 
L 230.562508 59.113412 
L 219.367524 59.113412 
L 208.172539 59.113412 
L 196.977555 58.285176 
L 185.782571 57.456941 
L 174.587586 58.285176 
L 163.392602 56.628706 
L 152.197618 56.628706 
L 141.002633 57.456941 
L 129.807649 58.285176 
L 118.612665 58.285176 
L 107.41768 59.113412 
L 96.222696 59.113412 
L 85.027712 59.113412 
L 73.832727 59.113412 
z
" clip-path="url(#p92dddea60b)" style="fill: #17becf"/>
   </g>
   <g id="PolyCollection_31">
    <path d="M 73.832727 59.113412 
L 73.832727 59.113412 
L 85.027712 59.113412 
L 96.222696 59.113412 
L 107.41768 59.113412 
L 118.612665 58.285176 
L 129.807649 58.285176 
L 141.002633 57.456941 
L 152.197618 56.628706 
L 163.392602 56.628706 
L 174.587586 58.285176 
L 185.782571 57.456941 
L 196.977555 58.285176 
L 208.172539 59.113412 
L 219.367524 59.113412 
L 230.562508 59.113412 
L 241.757492 56.628706 
L 252.952476 57.456941 
L 264.147461 59.113412 
L 275.342445 56.628706 
L 286.537429 57.456941 
L 297.732414 58.285176 
L 308.927398 58.285176 
L 320.122382 55.800471 
L 331.317367 64.082824 
L 342.512351 78.162824 
L 353.707335 83.960471 
L 364.90232 105.494588 
L 376.097304 117.918118 
L 387.292288 121.231059 
L 398.487273 130.341647 
L 398.487273 120.402824 
L 398.487273 120.402824 
L 387.292288 110.464 
L 376.097304 106.322824 
L 364.90232 94.727529 
L 353.707335 77.334588 
L 342.512351 64.911059 
L 331.317367 59.941647 
L 320.122382 55.800471 
L 308.927398 58.285176 
L 297.732414 58.285176 
L 286.537429 57.456941 
L 275.342445 56.628706 
L 264.147461 59.113412 
L 252.952476 57.456941 
L 241.757492 56.628706 
L 230.562508 59.113412 
L 219.367524 59.113412 
L 208.172539 59.113412 
L 196.977555 58.285176 
L 185.782571 57.456941 
L 174.587586 58.285176 
L 163.392602 56.628706 
L 152.197618 56.628706 
L 141.002633 57.456941 
L 129.807649 58.285176 
L 118.612665 58.285176 
L 107.41768 59.113412 
L 96.222696 59.113412 
L 85.027712 59.113412 
L 73.832727 59.113412 
z
" clip-path="url(#p92dddea60b)" style="fill: #1f77b4"/>
   </g>
   <g id="PolyCollection_32">
    <path d="M 73.832727 59.113412 
L 73.832727 59.113412 
L 85.027712 59.113412 
L 96.222696 59.113412 
L 107.41768 59.113412 
L 118.612665 58.285176 
L 129.807649 58.285176 
L 141.002633 57.456941 
L 152.197618 56.628706 
L 163.392602 56.628706 
L 174.587586 58.285176 
L 185.782571 57.456941 
L 196.977555 58.285176 
L 208.172539 59.113412 
L 219.367524 59.113412 
L 230.562508 59.113412 
L 241.757492 56.628706 
L 252.952476 57.456941 
L 264.147461 59.113412 
L 275.342445 56.628706 
L 286.537429 57.456941 
L 297.732414 58.285176 
L 308.927398 58.285176 
L 320.122382 55.800471 
L 331.317367 59.941647 
L 342.512351 64.911059 
L 353.707335 77.334588 
L 364.90232 94.727529 
L 376.097304 106.322824 
L 387.292288 110.464 
L 398.487273 120.402824 
L 398.487273 103.009882 
L 398.487273 103.009882 
L 387.292288 101.353412 
L 376.097304 96.384 
L 364.90232 83.132235 
L 353.707335 66.567529 
L 342.512351 60.769882 
L 331.317367 59.941647 
L 320.122382 55.800471 
L 308.927398 58.285176 
L 297.732414 58.285176 
L 286.537429 57.456941 
L 275.342445 56.628706 
L 264.147461 59.113412 
L 252.952476 57.456941 
L 241.757492 56.628706 
L 230.562508 59.113412 
L 219.367524 59.113412 
L 208.172539 59.113412 
L 196.977555 58.285176 
L 185.782571 57.456941 
L 174.587586 58.285176 
L 163.392602 56.628706 
L 152.197618 56.628706 
L 141.002633 57.456941 
L 129.807649 58.285176 
L 118.612665 58.285176 
L 107.41768 59.113412 
L 96.222696 59.113412 
L 85.027712 59.113412 
L 73.832727 59.113412 
z
" clip-path="url(#p92dddea60b)" style="fill: #ff7f0e"/>
   </g>
   <g id="PolyCollection_33">
    <path d="M 73.832727 59.113412 
L 73.832727 59.113412 
L 85.027712 59.113412 
L 96.222696 59.113412 
L 107.41768 59.113412 
L 118.612665 58.285176 
L 129.807649 58.285176 
L 141.002633 57.456941 
L 152.197618 56.628706 
L 163.392602 56.628706 
L 174.587586 58.285176 
L 185.782571 57.456941 
L 196.977555 58.285176 
L 208.172539 59.113412 
L 219.367524 59.113412 
L 230.562508 59.113412 
L 241.757492 56.628706 
L 252.952476 57.456941 
L 264.147461 59.113412 
L 275.342445 56.628706 
L 286.537429 57.456941 
L 297.732414 58.285176 
L 308.927398 58.285176 
L 320.122382 55.800471 
L 331.317367 59.941647 
L 342.512351 60.769882 
L 353.707335 66.567529 
L 364.90232 83.132235 
L 376.097304 96.384 
L 387.292288 101.353412 
L 398.487273 103.009882 
L 398.487273 101.353412 
L 398.487273 101.353412 
L 387.292288 99.696941 
L 376.097304 95.555765 
L 364.90232 78.162824 
L 353.707335 64.082824 
L 342.512351 59.941647 
L 331.317367 59.941647 
L 320.122382 55.800471 
L 308.927398 58.285176 
L 297.732414 58.285176 
L 286.537429 57.456941 
L 275.342445 56.628706 
L 264.147461 59.113412 
L 252.952476 57.456941 
L 241.757492 56.628706 
L 230.562508 59.113412 
L 219.367524 59.113412 
L 208.172539 59.113412 
L 196.977555 58.285176 
L 185.782571 57.456941 
L 174.587586 58.285176 
L 163.392602 56.628706 
L 152.197618 56.628706 
L 141.002633 57.456941 
L 129.807649 58.285176 
L 118.612665 58.285176 
L 107.41768 59.113412 
L 96.222696 59.113412 
L 85.027712 59.113412 
L 73.832727 59.113412 
z
" clip-path="url(#p92dddea60b)" style="fill: #2ca02c"/>
   </g>
   <g id="PolyCollection_34">
    <path d="M 73.832727 59.113412 
L 73.832727 59.113412 
L 85.027712 59.113412 
L 96.222696 59.113412 
L 107.41768 59.113412 
L 118.612665 58.285176 
L 129.807649 58.285176 
L 141.002633 57.456941 
L 152.197618 56.628706 
L 163.392602 56.628706 
L 174.587586 58.285176 
L 185.782571 57.456941 
L 196.977555 58.285176 
L 208.172539 59.113412 
L 219.367524 59.113412 
L 230.562508 59.113412 
L 241.757492 56.628706 
L 252.952476 57.456941 
L 264.147461 59.113412 
L 275.342445 56.628706 
L 286.537429 57.456941 
L 297.732414 58.285176 
L 308.927398 58.285176 
L 320.122382 55.800471 
L 331.317367 59.941647 
L 342.512351 59.941647 
L 353.707335 64.082824 
L 364.90232 78.162824 
L 376.097304 95.555765 
L 387.292288 99.696941 
L 398.487273 101.353412 
L 398.487273 92.242824 
L 398.487273 92.242824 
L 387.292288 91.414588 
L 376.097304 86.445176 
L 364.90232 70.708706 
L 353.707335 57.456941 
L 342.512351 59.113412 
L 331.317367 59.941647 
L 320.122382 55.800471 
L 308.927398 58.285176 
L 297.732414 58.285176 
L 286.537429 57.456941 
L 275.342445 56.628706 
L 264.147461 59.113412 
L 252.952476 57.456941 
L 241.757492 56.628706 
L 230.562508 59.113412 
L 219.367524 59.113412 
L 208.172539 59.113412 
L 196.977555 58.285176 
L 185.782571 57.456941 
L 174.587586 58.285176 
L 163.392602 56.628706 
L 152.197618 56.628706 
L 141.002633 57.456941 
L 129.807649 58.285176 
L 118.612665 58.285176 
L 107.41768 59.113412 
L 96.222696 59.113412 
L 85.027712 59.113412 
L 73.832727 59.113412 
z
" clip-path="url(#p92dddea60b)" style="fill: #d62728"/>
   </g>
   <g id="PolyCollection_35">
    <path d="M 73.832727 59.113412 
L 73.832727 59.113412 
L 85.027712 59.113412 
L 96.222696 59.113412 
L 107.41768 59.113412 
L 118.612665 58.285176 
L 129.807649 58.285176 
L 141.002633 57.456941 
L 152.197618 56.628706 
L 163.392602 56.628706 
L 174.587586 58.285176 
L 185.782571 57.456941 
L 196.977555 58.285176 
L 208.172539 59.113412 
L 219.367524 59.113412 
L 230.562508 59.113412 
L 241.757492 56.628706 
L 252.952476 57.456941 
L 264.147461 59.113412 
L 275.342445 56.628706 
L 286.537429 57.456941 
L 297.732414 58.285176 
L 308.927398 58.285176 
L 320.122382 55.800471 
L 331.317367 59.941647 
L 342.512351 59.113412 
L 353.707335 57.456941 
L 364.90232 70.708706 
L 376.097304 86.445176 
L 387.292288 91.414588 
L 398.487273 92.242824 
L 398.487273 85.616941 
L 398.487273 85.616941 
L 387.292288 81.475765 
L 376.097304 78.162824 
L 364.90232 66.567529 
L 353.707335 55.800471 
L 342.512351 59.113412 
L 331.317367 59.941647 
L 320.122382 55.800471 
L 308.927398 58.285176 
L 297.732414 58.285176 
L 286.537429 57.456941 
L 275.342445 56.628706 
L 264.147461 59.113412 
L 252.952476 57.456941 
L 241.757492 56.628706 
L 230.562508 59.113412 
L 219.367524 59.113412 
L 208.172539 59.113412 
L 196.977555 58.285176 
L 185.782571 57.456941 
L 174.587586 58.285176 
L 163.392602 56.628706 
L 152.197618 56.628706 
L 141.002633 57.456941 
L 129.807649 58.285176 
L 118.612665 58.285176 
L 107.41768 59.113412 
L 96.222696 59.113412 
L 85.027712 59.113412 
L 73.832727 59.113412 
z
" clip-path="url(#p92dddea60b)" style="fill: #9467bd"/>
   </g>
   <g id="PolyCollection_36">
    <path d="M 73.832727 59.113412 
L 73.832727 59.113412 
L 85.027712 59.113412 
L 96.222696 59.113412 
L 107.41768 59.113412 
L 118.612665 58.285176 
L 129.807649 58.285176 
L 141.002633 57.456941 
L 152.197618 56.628706 
L 163.392602 56.628706 
L 174.587586 58.285176 
L 185.782571 57.456941 
L 196.977555 58.285176 
L 208.172539 59.113412 
L 219.367524 59.113412 
L 230.562508 59.113412 
L 241.757492 56.628706 
L 252.952476 57.456941 
L 264.147461 59.113412 
L 275.342445 56.628706 
L 286.537429 57.456941 
L 297.732414 58.285176 
L 308.927398 58.285176 
L 320.122382 55.800471 
L 331.317367 59.941647 
L 342.512351 59.113412 
L 353.707335 55.800471 
L 364.90232 66.567529 
L 376.097304 78.162824 
L 387.292288 81.475765 
L 398.487273 85.616941 
L 398.487273 83.960471 
L 398.487273 83.960471 
L 387.292288 79.819294 
L 376.097304 76.506353 
L 364.90232 64.911059 
L 353.707335 54.972235 
L 342.512351 59.113412 
L 331.317367 59.941647 
L 320.122382 55.800471 
L 308.927398 58.285176 
L 297.732414 58.285176 
L 286.537429 57.456941 
L 275.342445 56.628706 
L 264.147461 59.113412 
L 252.952476 57.456941 
L 241.757492 56.628706 
L 230.562508 59.113412 
L 219.367524 59.113412 
L 208.172539 59.113412 
L 196.977555 58.285176 
L 185.782571 57.456941 
L 174.587586 58.285176 
L 163.392602 56.628706 
L 152.197618 56.628706 
L 141.002633 57.456941 
L 129.807649 58.285176 
L 118.612665 58.285176 
L 107.41768 59.113412 
L 96.222696 59.113412 
L 85.027712 59.113412 
L 73.832727 59.113412 
z
" clip-path="url(#p92dddea60b)" style="fill: #8c564b"/>
   </g>
   <g id="PolyCollection_37">
    <path d="M 73.832727 59.113412 
L 73.832727 59.113412 
L 85.027712 59.113412 
L 96.222696 59.113412 
L 107.41768 59.113412 
L 118.612665 58.285176 
L 129.807649 58.285176 
L 141.002633 57.456941 
L 152.197618 56.628706 
L 163.392602 56.628706 
L 174.587586 58.285176 
L 185.782571 57.456941 
L 196.977555 58.285176 
L 208.172539 59.113412 
L 219.367524 59.113412 
L 230.562508 59.113412 
L 241.757492 56.628706 
L 252.952476 57.456941 
L 264.147461 59.113412 
L 275.342445 56.628706 
L 286.537429 57.456941 
L 297.732414 58.285176 
L 308.927398 58.285176 
L 320.122382 55.800471 
L 331.317367 59.941647 
L 342.512351 59.113412 
L 353.707335 54.972235 
L 364.90232 64.911059 
L 376.097304 76.506353 
L 387.292288 79.819294 
L 398.487273 83.960471 
L 398.487273 74.849882 
L 398.487273 74.849882 
L 387.292288 70.708706 
L 376.097304 66.567529 
L 364.90232 59.941647 
L 353.707335 54.972235 
L 342.512351 59.113412 
L 331.317367 59.941647 
L 320.122382 55.800471 
L 308.927398 58.285176 
L 297.732414 58.285176 
L 286.537429 57.456941 
L 275.342445 56.628706 
L 264.147461 59.113412 
L 252.952476 57.456941 
L 241.757492 56.628706 
L 230.562508 59.113412 
L 219.367524 59.113412 
L 208.172539 59.113412 
L 196.977555 58.285176 
L 185.782571 57.456941 
L 174.587586 58.285176 
L 163.392602 56.628706 
L 152.197618 56.628706 
L 141.002633 57.456941 
L 129.807649 58.285176 
L 118.612665 58.285176 
L 107.41768 59.113412 
L 96.222696 59.113412 
L 85.027712 59.113412 
L 73.832727 59.113412 
z
" clip-path="url(#p92dddea60b)" style="fill: #e377c2"/>
   </g>
   <g id="PolyCollection_38">
    <path d="M 73.832727 59.113412 
L 73.832727 59.113412 
L 85.027712 59.113412 
L 96.222696 59.113412 
L 107.41768 59.113412 
L 118.612665 58.285176 
L 129.807649 58.285176 
L 141.002633 57.456941 
L 152.197618 56.628706 
L 163.392602 56.628706 
L 174.587586 58.285176 
L 185.782571 57.456941 
L 196.977555 58.285176 
L 208.172539 59.113412 
L 219.367524 59.113412 
L 230.562508 59.113412 
L 241.757492 56.628706 
L 252.952476 57.456941 
L 264.147461 59.113412 
L 275.342445 56.628706 
L 286.537429 57.456941 
L 297.732414 58.285176 
L 308.927398 58.285176 
L 320.122382 55.800471 
L 331.317367 59.941647 
L 342.512351 59.113412 
L 353.707335 54.972235 
L 364.90232 59.941647 
L 376.097304 66.567529 
L 387.292288 70.708706 
L 398.487273 74.849882 
L 398.487273 73.193412 
L 398.487273 73.193412 
L 387.292288 69.052235 
L 376.097304 64.082824 
L 364.90232 59.113412 
L 353.707335 54.972235 
L 342.512351 59.113412 
L 331.317367 59.941647 
L 320.122382 55.800471 
L 308.927398 58.285176 
L 297.732414 58.285176 
L 286.537429 57.456941 
L 275.342445 56.628706 
L 264.147461 59.113412 
L 252.952476 57.456941 
L 241.757492 56.628706 
L 230.562508 59.113412 
L 219.367524 59.113412 
L 208.172539 59.113412 
L 196.977555 58.285176 
L 185.782571 57.456941 
L 174.587586 58.285176 
L 163.392602 56.628706 
L 152.197618 56.628706 
L 141.002633 57.456941 
L 129.807649 58.285176 
L 118.612665 58.285176 
L 107.41768 59.113412 
L 96.222696 59.113412 
L 85.027712 59.113412 
L 73.832727 59.113412 
z
" clip-path="url(#p92dddea60b)" style="fill: #7f7f7f"/>
   </g>
   <g id="PolyCollection_39">
    <path d="M 73.832727 59.113412 
L 73.832727 59.113412 
L 85.027712 59.113412 
L 96.222696 59.113412 
L 107.41768 59.113412 
L 118.612665 58.285176 
L 129.807649 58.285176 
L 141.002633 57.456941 
L 152.197618 56.628706 
L 163.392602 56.628706 
L 174.587586 58.285176 
L 185.782571 57.456941 
L 196.977555 58.285176 
L 208.172539 59.113412 
L 219.367524 59.113412 
L 230.562508 59.113412 
L 241.757492 56.628706 
L 252.952476 57.456941 
L 264.147461 59.113412 
L 275.342445 56.628706 
L 286.537429 57.456941 
L 297.732414 58.285176 
L 308.927398 58.285176 
L 320.122382 55.800471 
L 331.317367 59.941647 
L 342.512351 59.113412 
L 353.707335 54.972235 
L 364.90232 59.113412 
L 376.097304 64.082824 
L 387.292288 69.052235 
L 398.487273 73.193412 
L 398.487273 58.285176 
L 398.487273 58.285176 
L 387.292288 54.144 
L 376.097304 58.285176 
L 364.90232 57.456941 
L 353.707335 54.972235 
L 342.512351 59.113412 
L 331.317367 59.941647 
L 320.122382 55.800471 
L 308.927398 58.285176 
L 297.732414 58.285176 
L 286.537429 57.456941 
L 275.342445 56.628706 
L 264.147461 59.113412 
L 252.952476 57.456941 
L 241.757492 56.628706 
L 230.562508 59.113412 
L 219.367524 59.113412 
L 208.172539 59.113412 
L 196.977555 58.285176 
L 185.782571 57.456941 
L 174.587586 58.285176 
L 163.392602 56.628706 
L 152.197618 56.628706 
L 141.002633 57.456941 
L 129.807649 58.285176 
L 118.612665 58.285176 
L 107.41768 59.113412 
L 96.222696 59.113412 
L 85.027712 59.113412 
L 73.832727 59.113412 
z
" clip-path="url(#p92dddea60b)" style="fill: #bcbd22"/>
   </g>
   <g id="matplotlib.axis_1">
    <g id="xtick_1">
     <g id="line2d_1">
      <defs>
       <path id="m96b5c93b7f" d="M 0 0 
L 0 3.5 
" style="stroke: #000000; stroke-width: 0.8"/>
      </defs>
      <g>
       <use xlink:href="#m96b5c93b7f" x="73.832727" y="307.584" style="stroke: #000000; stroke-width: 0.8"/>
      </g>
     </g>
     <g id="text_1">
      <!-- 0 -->
      <g transform="translate(70.651477 322.182437) scale(0.1 -0.1)">
       <defs>
        <path id="DejaVuSans-30" d="M 2034 4250 
Q 1547 4250 1301 3770 
Q 1056 3291 1056 2328 
Q 1056 1369 1301 889 
Q 1547 409 2034 409 
Q 2525 409 2770 889 
Q 3016 1369 3016 2328 
Q 3016 3291 2770 3770 
Q 2525 4250 2034 4250 
z
M 2034 4750 
Q 2819 4750 3233 4129 
Q 3647 3509 3647 2328 
Q 3647 1150 3233 529 
Q 2819 -91 2034 -91 
Q 1250 -91 836 529 
Q 422 1150 422 2328 
Q 422 3509 836 4129 
Q 1250 4750 2034 4750 
z
" transform="scale(0.015625)"/>
       </defs>
       <use xlink:href="#DejaVuSans-30"/>
      </g>
     </g>
    </g>
    <g id="xtick_2">
     <g id="line2d_2">
      <g>
       <use xlink:href="#m96b5c93b7f" x="129.807649" y="307.584" style="stroke: #000000; stroke-width: 0.8"/>
      </g>
     </g>
     <g id="text_2">
      <!-- 5 -->
      <g transform="translate(126.626399 322.182437) scale(0.1 -0.1)">
       <defs>
        <path id="DejaVuSans-35" d="M 691 4666 
L 3169 4666 
L 3169 4134 
L 1269 4134 
L 1269 2991 
Q 1406 3038 1543 3061 
Q 1681 3084 1819 3084 
Q 2600 3084 3056 2656 
Q 3513 2228 3513 1497 
Q 3513 744 3044 326 
Q 2575 -91 1722 -91 
Q 1428 -91 1123 -41 
Q 819 9 494 109 
L 494 744 
Q 775 591 1075 516 
Q 1375 441 1709 441 
Q 2250 441 2565 725 
Q 2881 1009 2881 1497 
Q 2881 1984 2565 2268 
Q 2250 2553 1709 2553 
Q 1456 2553 1204 2497 
Q 953 2441 691 2322 
L 691 4666 
z
" transform="scale(0.015625)"/>
       </defs>
       <use xlink:href="#DejaVuSans-35"/>
      </g>
     </g>
    </g>
    <g id="xtick_3">
     <g id="line2d_3">
      <g>
       <use xlink:href="#m96b5c93b7f" x="185.782571" y="307.584" style="stroke: #000000; stroke-width: 0.8"/>
      </g>
     </g>
     <g id="text_3">
      <!-- 10 -->
      <g transform="translate(179.420071 322.182437) scale(0.1 -0.1)">
       <defs>
        <path id="DejaVuSans-31" d="M 794 531 
L 1825 531 
L 1825 4091 
L 703 3866 
L 703 4441 
L 1819 4666 
L 2450 4666 
L 2450 531 
L 3481 531 
L 3481 0 
L 794 0 
L 794 531 
z
" transform="scale(0.015625)"/>
       </defs>
       <use xlink:href="#DejaVuSans-31"/>
       <use xlink:href="#DejaVuSans-30" x="63.623047"/>
      </g>
     </g>
    </g>
    <g id="xtick_4">
     <g id="line2d_4">
      <g>
       <use xlink:href="#m96b5c93b7f" x="241.757492" y="307.584" style="stroke: #000000; stroke-width: 0.8"/>
      </g>
     </g>
     <g id="text_4">
      <!-- 15 -->
      <g transform="translate(235.394992 322.182437) scale(0.1 -0.1)">
       <use xlink:href="#DejaVuSans-31"/>
       <use xlink:href="#DejaVuSans-35" x="63.623047"/>
      </g>
     </g>
    </g>
    <g id="xtick_5">
     <g id="line2d_5">
      <g>
       <use xlink:href="#m96b5c93b7f" x="297.732414" y="307.584" style="stroke: #000000; stroke-width: 0.8"/>
      </g>
     </g>
     <g id="text_5">
      <!-- 20 -->
      <g transform="translate(291.369914 322.182437) scale(0.1 -0.1)">
       <defs>
        <path id="DejaVuSans-32" d="M 1228 531 
L 3431 531 
L 3431 0 
L 469 0 
L 469 531 
Q 828 903 1448 1529 
Q 2069 2156 2228 2338 
Q 2531 2678 2651 2914 
Q 2772 3150 2772 3378 
Q 2772 3750 2511 3984 
Q 2250 4219 1831 4219 
Q 1534 4219 1204 4116 
Q 875 4013 500 3803 
L 500 4441 
Q 881 4594 1212 4672 
Q 1544 4750 1819 4750 
Q 2544 4750 2975 4387 
Q 3406 4025 3406 3419 
Q 3406 3131 3298 2873 
Q 3191 2616 2906 2266 
Q 2828 2175 2409 1742 
Q 1991 1309 1228 531 
z
" transform="scale(0.015625)"/>
       </defs>
       <use xlink:href="#DejaVuSans-32"/>
       <use xlink:href="#DejaVuSans-30" x="63.623047"/>
      </g>
     </g>
    </g>
    <g id="xtick_6">
     <g id="line2d_6">
      <g>
       <use xlink:href="#m96b5c93b7f" x="353.707335" y="307.584" style="stroke: #000000; stroke-width: 0.8"/>
      </g>
     </g>
     <g id="text_6">
      <!-- 25 -->
      <g transform="translate(347.344835 322.182437) scale(0.1 -0.1)">
       <use xlink:href="#DejaVuSans-32"/>
       <use xlink:href="#DejaVuSans-35" x="63.623047"/>
      </g>
     </g>
    </g>
    <g id="xtick_7">
     <g id="line2d_7">
      <g>
       <use xlink:href="#m96b5c93b7f" x="409.682257" y="307.584" style="stroke: #000000; stroke-width: 0.8"/>
      </g>
     </g>
     <g id="text_7">
      <!-- 30 -->
      <g transform="translate(403.319757 322.182437) scale(0.1 -0.1)">
       <defs>
        <path id="DejaVuSans-33" d="M 2597 2516 
Q 3050 2419 3304 2112 
Q 3559 1806 3559 1356 
Q 3559 666 3084 287 
Q 2609 -91 1734 -91 
Q 1441 -91 1130 -33 
Q 819 25 488 141 
L 488 750 
Q 750 597 1062 519 
Q 1375 441 1716 441 
Q 2309 441 2620 675 
Q 2931 909 2931 1356 
Q 2931 1769 2642 2001 
Q 2353 2234 1838 2234 
L 1294 2234 
L 1294 2753 
L 1863 2753 
Q 2328 2753 2575 2939 
Q 2822 3125 2822 3475 
Q 2822 3834 2567 4026 
Q 2313 4219 1838 4219 
Q 1578 4219 1281 4162 
Q 984 4106 628 3988 
L 628 4550 
Q 988 4650 1302 4700 
Q 1616 4750 1894 4750 
Q 2613 4750 3031 4423 
Q 3450 4097 3450 3541 
Q 3450 3153 3228 2886 
Q 3006 2619 2597 2516 
z
" transform="scale(0.015625)"/>
       </defs>
       <use xlink:href="#DejaVuSans-33"/>
       <use xlink:href="#DejaVuSans-30" x="63.623047"/>
      </g>
     </g>
    </g>
    <g id="text_8">
     <!-- Generations -->
     <g transform="translate(205.662344 335.860562) scale(0.1 -0.1)">
      <defs>
       <path id="DejaVuSans-47" d="M 3809 666 
L 3809 1919 
L 2778 1919 
L 2778 2438 
L 4434 2438 
L 4434 434 
Q 4069 175 3628 42 
Q 3188 -91 2688 -91 
Q 1594 -91 976 548 
Q 359 1188 359 2328 
Q 359 3472 976 4111 
Q 1594 4750 2688 4750 
Q 3144 4750 3555 4637 
Q 3966 4525 4313 4306 
L 4313 3634 
Q 3963 3931 3569 4081 
Q 3175 4231 2741 4231 
Q 1884 4231 1454 3753 
Q 1025 3275 1025 2328 
Q 1025 1384 1454 906 
Q 1884 428 2741 428 
Q 3075 428 3337 486 
Q 3600 544 3809 666 
z
" transform="scale(0.015625)"/>
       <path id="DejaVuSans-65" d="M 3597 1894 
L 3597 1613 
L 953 1613 
Q 991 1019 1311 708 
Q 1631 397 2203 397 
Q 2534 397 2845 478 
Q 3156 559 3463 722 
L 3463 178 
Q 3153 47 2828 -22 
Q 2503 -91 2169 -91 
Q 1331 -91 842 396 
Q 353 884 353 1716 
Q 353 2575 817 3079 
Q 1281 3584 2069 3584 
Q 2775 3584 3186 3129 
Q 3597 2675 3597 1894 
z
M 3022 2063 
Q 3016 2534 2758 2815 
Q 2500 3097 2075 3097 
Q 1594 3097 1305 2825 
Q 1016 2553 972 2059 
L 3022 2063 
z
" transform="scale(0.015625)"/>
       <path id="DejaVuSans-6e" d="M 3513 2113 
L 3513 0 
L 2938 0 
L 2938 2094 
Q 2938 2591 2744 2837 
Q 2550 3084 2163 3084 
Q 1697 3084 1428 2787 
Q 1159 2491 1159 1978 
L 1159 0 
L 581 0 
L 581 3500 
L 1159 3500 
L 1159 2956 
Q 1366 3272 1645 3428 
Q 1925 3584 2291 3584 
Q 2894 3584 3203 3211 
Q 3513 2838 3513 2113 
z
" transform="scale(0.015625)"/>
       <path id="DejaVuSans-72" d="M 2631 2963 
Q 2534 3019 2420 3045 
Q 2306 3072 2169 3072 
Q 1681 3072 1420 2755 
Q 1159 2438 1159 1844 
L 1159 0 
L 581 0 
L 581 3500 
L 1159 3500 
L 1159 2956 
Q 1341 3275 1631 3429 
Q 1922 3584 2338 3584 
Q 2397 3584 2469 3576 
Q 2541 3569 2628 3553 
L 2631 2963 
z
" transform="scale(0.015625)"/>
       <path id="DejaVuSans-61" d="M 2194 1759 
Q 1497 1759 1228 1600 
Q 959 1441 959 1056 
Q 959 750 1161 570 
Q 1363 391 1709 391 
Q 2188 391 2477 730 
Q 2766 1069 2766 1631 
L 2766 1759 
L 2194 1759 
z
M 3341 1997 
L 3341 0 
L 2766 0 
L 2766 531 
Q 2569 213 2275 61 
Q 1981 -91 1556 -91 
Q 1019 -91 701 211 
Q 384 513 384 1019 
Q 384 1609 779 1909 
Q 1175 2209 1959 2209 
L 2766 2209 
L 2766 2266 
Q 2766 2663 2505 2880 
Q 2244 3097 1772 3097 
Q 1472 3097 1187 3025 
Q 903 2953 641 2809 
L 641 3341 
Q 956 3463 1253 3523 
Q 1550 3584 1831 3584 
Q 2591 3584 2966 3190 
Q 3341 2797 3341 1997 
z
" transform="scale(0.015625)"/>
       <path id="DejaVuSans-74" d="M 1172 4494 
L 1172 3500 
L 2356 3500 
L 2356 3053 
L 1172 3053 
L 1172 1153 
Q 1172 725 1289 603 
Q 1406 481 1766 481 
L 2356 481 
L 2356 0 
L 1766 0 
Q 1100 0 847 248 
Q 594 497 594 1153 
L 594 3053 
L 172 3053 
L 172 3500 
L 594 3500 
L 594 4494 
L 1172 4494 
z
" transform="scale(0.015625)"/>
       <path id="DejaVuSans-69" d="M 603 3500 
L 1178 3500 
L 1178 0 
L 603 0 
L 603 3500 
z
M 603 4863 
L 1178 4863 
L 1178 4134 
L 603 4134 
L 603 4863 
z
" transform="scale(0.015625)"/>
       <path id="DejaVuSans-6f" d="M 1959 3097 
Q 1497 3097 1228 2736 
Q 959 2375 959 1747 
Q 959 1119 1226 758 
Q 1494 397 1959 397 
Q 2419 397 2687 759 
Q 2956 1122 2956 1747 
Q 2956 2369 2687 2733 
Q 2419 3097 1959 3097 
z
M 1959 3584 
Q 2709 3584 3137 3096 
Q 3566 2609 3566 1747 
Q 3566 888 3137 398 
Q 2709 -91 1959 -91 
Q 1206 -91 779 398 
Q 353 888 353 1747 
Q 353 2609 779 3096 
Q 1206 3584 1959 3584 
z
" transform="scale(0.015625)"/>
       <path id="DejaVuSans-73" d="M 2834 3397 
L 2834 2853 
Q 2591 2978 2328 3040 
Q 2066 3103 1784 3103 
Q 1356 3103 1142 2972 
Q 928 2841 928 2578 
Q 928 2378 1081 2264 
Q 1234 2150 1697 2047 
L 1894 2003 
Q 2506 1872 2764 1633 
Q 3022 1394 3022 966 
Q 3022 478 2636 193 
Q 2250 -91 1575 -91 
Q 1294 -91 989 -36 
Q 684 19 347 128 
L 347 722 
Q 666 556 975 473 
Q 1284 391 1588 391 
Q 1994 391 2212 530 
Q 2431 669 2431 922 
Q 2431 1156 2273 1281 
Q 2116 1406 1581 1522 
L 1381 1569 
Q 847 1681 609 1914 
Q 372 2147 372 2553 
Q 372 3047 722 3315 
Q 1072 3584 1716 3584 
Q 2034 3584 2315 3537 
Q 2597 3491 2834 3397 
z
" transform="scale(0.015625)"/>
      </defs>
      <use xlink:href="#DejaVuSans-47"/>
      <use xlink:href="#DejaVuSans-65" x="77.490234"/>
      <use xlink:href="#DejaVuSans-6e" x="139.013672"/>
      <use xlink:href="#DejaVuSans-65" x="202.392578"/>
      <use xlink:href="#DejaVuSans-72" x="263.916016"/>
      <use xlink:href="#DejaVuSans-61" x="305.029297"/>
      <use xlink:href="#DejaVuSans-74" x="366.308594"/>
      <use xlink:href="#DejaVuSans-69" x="405.517578"/>
      <use xlink:href="#DejaVuSans-6f" x="433.300781"/>
      <use xlink:href="#DejaVuSans-6e" x="494.482422"/>
      <use xlink:href="#DejaVuSans-73" x="557.861328"/>
     </g>
    </g>
   </g>
   <g id="matplotlib.axis_2">
    <g id="ytick_1">
     <g id="line2d_8">
      <defs>
       <path id="mb0ff13c818" d="M 0 0 
L -3.5 0 
" style="stroke: #000000; stroke-width: 0.8"/>
      </defs>
      <g>
       <use xlink:href="#mb0ff13c818" x="57.6" y="307.584" style="stroke: #000000; stroke-width: 0.8"/>
      </g>
     </g>
     <g id="text_9">
      <!-- 0 -->
      <g transform="translate(44.2375 311.383219) scale(0.1 -0.1)">
       <use xlink:href="#DejaVuSans-30"/>
      </g>
     </g>
    </g>
    <g id="ytick_2">
     <g id="line2d_9">
      <g>
       <use xlink:href="#mb0ff13c818" x="57.6" y="266.172235" style="stroke: #000000; stroke-width: 0.8"/>
      </g>
     </g>
     <g id="text_10">
      <!-- 50 -->
      <g transform="translate(37.875 269.971454) scale(0.1 -0.1)">
       <use xlink:href="#DejaVuSans-35"/>
       <use xlink:href="#DejaVuSans-30" x="63.623047"/>
      </g>
     </g>
    </g>
    <g id="ytick_3">
     <g id="line2d_10">
      <g>
       <use xlink:href="#mb0ff13c818" x="57.6" y="224.760471" style="stroke: #000000; stroke-width: 0.8"/>
      </g>
     </g>
     <g id="text_11">
      <!-- 100 -->
      <g transform="translate(31.5125 228.559689) scale(0.1 -0.1)">
       <use xlink:href="#DejaVuSans-31"/>
       <use xlink:href="#DejaVuSans-30" x="63.623047"/>
       <use xlink:href="#DejaVuSans-30" x="127.246094"/>
      </g>
     </g>
    </g>
    <g id="ytick_4">
     <g id="line2d_11">
      <g>
       <use xlink:href="#mb0ff13c818" x="57.6" y="183.348706" style="stroke: #000000; stroke-width: 0.8"/>
      </g>
     </g>
     <g id="text_12">
      <!-- 150 -->
      <g transform="translate(31.5125 187.147925) scale(0.1 -0.1)">
       <use xlink:href="#DejaVuSans-31"/>
       <use xlink:href="#DejaVuSans-35" x="63.623047"/>
       <use xlink:href="#DejaVuSans-30" x="127.246094"/>
      </g>
     </g>
    </g>
    <g id="ytick_5">
     <g id="line2d_12">
      <g>
       <use xlink:href="#mb0ff13c818" x="57.6" y="141.936941" style="stroke: #000000; stroke-width: 0.8"/>
      </g>
     </g>
     <g id="text_13">
      <!-- 200 -->
      <g transform="translate(31.5125 145.73616) scale(0.1 -0.1)">
       <use xlink:href="#DejaVuSans-32"/>
       <use xlink:href="#DejaVuSans-30" x="63.623047"/>
       <use xlink:href="#DejaVuSans-30" x="127.246094"/>
      </g>
     </g>
    </g>
    <g id="ytick_6">
     <g id="line2d_13">
      <g>
       <use xlink:href="#mb0ff13c818" x="57.6" y="100.525176" style="stroke: #000000; stroke-width: 0.8"/>
      </g>
     </g>
     <g id="text_14">
      <!-- 250 -->
      <g transform="translate(31.5125 104.324395) scale(0.1 -0.1)">
       <use xlink:href="#DejaVuSans-32"/>
       <use xlink:href="#DejaVuSans-35" x="63.623047"/>
       <use xlink:href="#DejaVuSans-30" x="127.246094"/>
      </g>
     </g>
    </g>
    <g id="ytick_7">
     <g id="line2d_14">
      <g>
       <use xlink:href="#mb0ff13c818" x="57.6" y="59.113412" style="stroke: #000000; stroke-width: 0.8"/>
      </g>
     </g>
     <g id="text_15">
      <!-- 300 -->
      <g transform="translate(31.5125 62.912631) scale(0.1 -0.1)">
       <use xlink:href="#DejaVuSans-33"/>
       <use xlink:href="#DejaVuSans-30" x="63.623047"/>
       <use xlink:href="#DejaVuSans-30" x="127.246094"/>
      </g>
     </g>
    </g>
    <g id="text_16">
     <!-- Size per Species -->
     <g transform="translate(25.432812 215.520969) rotate(-90) scale(0.1 -0.1)">
      <defs>
       <path id="DejaVuSans-53" d="M 3425 4513 
L 3425 3897 
Q 3066 4069 2747 4153 
Q 2428 4238 2131 4238 
Q 1616 4238 1336 4038 
Q 1056 3838 1056 3469 
Q 1056 3159 1242 3001 
Q 1428 2844 1947 2747 
L 2328 2669 
Q 3034 2534 3370 2195 
Q 3706 1856 3706 1288 
Q 3706 609 3251 259 
Q 2797 -91 1919 -91 
Q 1588 -91 1214 -16 
Q 841 59 441 206 
L 441 856 
Q 825 641 1194 531 
Q 1563 422 1919 422 
Q 2459 422 2753 634 
Q 3047 847 3047 1241 
Q 3047 1584 2836 1778 
Q 2625 1972 2144 2069 
L 1759 2144 
Q 1053 2284 737 2584 
Q 422 2884 422 3419 
Q 422 4038 858 4394 
Q 1294 4750 2059 4750 
Q 2388 4750 2728 4690 
Q 3069 4631 3425 4513 
z
" transform="scale(0.015625)"/>
       <path id="DejaVuSans-7a" d="M 353 3500 
L 3084 3500 
L 3084 2975 
L 922 459 
L 3084 459 
L 3084 0 
L 275 0 
L 275 525 
L 2438 3041 
L 353 3041 
L 353 3500 
z
" transform="scale(0.015625)"/>
       <path id="DejaVuSans-20" transform="scale(0.015625)"/>
       <path id="DejaVuSans-70" d="M 1159 525 
L 1159 -1331 
L 581 -1331 
L 581 3500 
L 1159 3500 
L 1159 2969 
Q 1341 3281 1617 3432 
Q 1894 3584 2278 3584 
Q 2916 3584 3314 3078 
Q 3713 2572 3713 1747 
Q 3713 922 3314 415 
Q 2916 -91 2278 -91 
Q 1894 -91 1617 61 
Q 1341 213 1159 525 
z
M 3116 1747 
Q 3116 2381 2855 2742 
Q 2594 3103 2138 3103 
Q 1681 3103 1420 2742 
Q 1159 2381 1159 1747 
Q 1159 1113 1420 752 
Q 1681 391 2138 391 
Q 2594 391 2855 752 
Q 3116 1113 3116 1747 
z
" transform="scale(0.015625)"/>
       <path id="DejaVuSans-63" d="M 3122 3366 
L 3122 2828 
Q 2878 2963 2633 3030 
Q 2388 3097 2138 3097 
Q 1578 3097 1268 2742 
Q 959 2388 959 1747 
Q 959 1106 1268 751 
Q 1578 397 2138 397 
Q 2388 397 2633 464 
Q 2878 531 3122 666 
L 3122 134 
Q 2881 22 2623 -34 
Q 2366 -91 2075 -91 
Q 1284 -91 818 406 
Q 353 903 353 1747 
Q 353 2603 823 3093 
Q 1294 3584 2113 3584 
Q 2378 3584 2631 3529 
Q 2884 3475 3122 3366 
z
" transform="scale(0.015625)"/>
      </defs>
      <use xlink:href="#DejaVuSans-53"/>
      <use xlink:href="#DejaVuSans-69" x="63.476562"/>
      <use xlink:href="#DejaVuSans-7a" x="91.259766"/>
      <use xlink:href="#DejaVuSans-65" x="143.75"/>
      <use xlink:href="#DejaVuSans-20" x="205.273438"/>
      <use xlink:href="#DejaVuSans-70" x="237.060547"/>
      <use xlink:href="#DejaVuSans-65" x="300.537109"/>
      <use xlink:href="#DejaVuSans-72" x="362.060547"/>
      <use xlink:href="#DejaVuSans-20" x="403.173828"/>
      <use xlink:href="#DejaVuSans-53" x="434.960938"/>
      <use xlink:href="#DejaVuSans-70" x="498.4375"/>
      <use xlink:href="#DejaVuSans-65" x="561.914062"/>
      <use xlink:href="#DejaVuSans-63" x="623.4375"/>
      <use xlink:href="#DejaVuSans-69" x="678.417969"/>
      <use xlink:href="#DejaVuSans-65" x="706.201172"/>
      <use xlink:href="#DejaVuSans-73" x="767.724609"/>
     </g>
    </g>
   </g>
   <g id="patch_3">
    <path d="M 57.6 307.584 
L 57.6 41.472 
" style="fill: none; stroke: #000000; stroke-width: 0.8; stroke-linejoin: miter; stroke-linecap: square"/>
   </g>
   <g id="patch_4">
    <path d="M 414.72 307.584 
L 414.72 41.472 
" style="fill: none; stroke: #000000; stroke-width: 0.8; stroke-linejoin: miter; stroke-linecap: square"/>
   </g>
   <g id="patch_5">
    <path d="M 57.6 307.584 
L 414.72 307.584 
" style="fill: none; stroke: #000000; stroke-width: 0.8; stroke-linejoin: miter; stroke-linecap: square"/>
   </g>
   <g id="patch_6">
    <path d="M 57.6 41.472 
L 414.72 41.472 
" style="fill: none; stroke: #000000; stroke-width: 0.8; stroke-linejoin: miter; stroke-linecap: square"/>
   </g>
   <g id="text_17">
    <!-- Speciation -->
    <g transform="translate(204.714375 35.472) scale(0.12 -0.12)">
     <use xlink:href="#DejaVuSans-53"/>
     <use xlink:href="#DejaVuSans-70" x="63.476562"/>
     <use xlink:href="#DejaVuSans-65" x="126.953125"/>
     <use xlink:href="#DejaVuSans-63" x="188.476562"/>
     <use xlink:href="#DejaVuSans-69" x="243.457031"/>
     <use xlink:href="#DejaVuSans-61" x="271.240234"/>
     <use xlink:href="#DejaVuSans-74" x="332.519531"/>
     <use xlink:href="#DejaVuSans-69" x="371.728516"/>
     <use xlink:href="#DejaVuSans-6f" x="399.511719"/>
     <use xlink:href="#DejaVuSans-6e" x="460.693359"/>
    </g>
   </g>
  </g>
 </g>
 <defs>
  <clipPath id="p92dddea60b">
   <rect x="57.6" y="41.472" width="357.12" height="266.112"/>
  </clipPath>
 </defs>
</svg>
