<?xml version="1.0" encoding="UTF-8" standalone="no"?>
<!DOCTYPE svg PUBLIC "-//W3C//DTD SVG 1.1//EN"
 "http://www.w3.org/Graphics/SVG/1.1/DTD/svg11.dtd">
<!-- Generated by graphviz version 2.43.0 (0)
 -->
<!-- Title: %3 Pages: 1 -->
<svg width="316pt" height="262pt"
 viewBox="0.00 0.00 315.78 262.43" xmlns="http://www.w3.org/2000/svg" xmlns:xlink="http://www.w3.org/1999/xlink">
<g id="graph0" class="graph" transform="scale(1 1) rotate(0) translate(4 258.43)">
<title>%3</title>
<polygon fill="white" stroke="transparent" points="-4,4 -4,-258.43 311.78,-258.43 311.78,4 -4,4"/>
<!-- ball_left -->
<g id="node1" class="node">
<title>ball_left</title>
<polygon fill="lightgray" stroke="black" points="53,-230.91 0,-230.91 0,-212.91 53,-212.91 53,-230.91"/>
<text text-anchor="middle" x="26.5" y="-219.71" font-family="Times,serif" font-size="9.00">ball_left</text>
</g>
<!-- RIGHT -->
<g id="node6" class="node">
<title>RIGHT</title>
<ellipse fill="lightblue" stroke="black" cx="51.5" cy="-33.94" rx="33.88" ry="33.88"/>
<text text-anchor="middle" x="51.5" y="-31.74" font-family="Times,serif" font-size="9.00">RIGHT</text>
</g>
<!-- ball_left&#45;&gt;RIGHT -->
<g id="edge2" class="edge">
<title>ball_left&#45;&gt;RIGHT</title>
<path fill="none" stroke="green" stroke-width="0.52" d="M24.51,-212.84C20.12,-193.68 10.64,-144.03 19.5,-103.88 21.81,-93.43 25.86,-82.69 30.33,-72.88"/>
<polygon fill="green" stroke="green" stroke-width="0.52" points="33.51,-74.34 34.69,-63.81 27.2,-71.3 33.51,-74.34"/>
</g>
<!-- 891 -->
<g id="node8" class="node">
<title>891</title>
<ellipse fill="white" stroke="black" cx="53.5" cy="-128.63" rx="25" ry="25"/>
<text text-anchor="middle" x="53.5" y="-126.43" font-family="Times,serif" font-size="9.00">891</text>
</g>
<!-- ball_left&#45;&gt;891 -->
<g id="edge3" class="edge">
<title>ball_left&#45;&gt;891</title>
<path fill="none" stroke="green" stroke-width="0.22" stroke-dasharray="1,5" d="M28.9,-212.81C32.23,-201.54 38.46,-180.49 43.81,-162.38"/>
<polygon fill="green" stroke="green" stroke-width="0.22" points="47.19,-163.29 46.67,-152.71 40.48,-161.3 47.19,-163.29"/>
</g>
<!-- ball_right -->
<g id="node2" class="node">
<title>ball_right</title>
<polygon fill="lightgray" stroke="black" points="161.5,-137.63 99.5,-137.63 99.5,-119.63 161.5,-119.63 161.5,-137.63"/>
<text text-anchor="middle" x="130.5" y="-126.43" font-family="Times,serif" font-size="9.00">ball_right</text>
</g>
<!-- ball_right&#45;&gt;RIGHT -->
<g id="edge5" class="edge">
<title>ball_right&#45;&gt;RIGHT</title>
<path fill="none" stroke="red" stroke-width="0.24" d="M123.49,-119.41C113.71,-107.93 95.4,-86.45 79.7,-68.03"/>
<polygon fill="red" stroke="red" stroke-width="0.24" points="82.31,-65.69 73.16,-60.35 76.98,-70.23 82.31,-65.69"/>
</g>
<!-- LEFT -->
<g id="node7" class="node">
<title>LEFT</title>
<ellipse fill="lightblue" stroke="black" cx="132.5" cy="-33.94" rx="28.98" ry="28.98"/>
<text text-anchor="middle" x="132.5" y="-31.74" font-family="Times,serif" font-size="9.00">LEFT</text>
</g>
<!-- ball_right&#45;&gt;LEFT -->
<g id="edge1" class="edge">
<title>ball_right&#45;&gt;LEFT</title>
<path fill="none" stroke="green" stroke-width="0.41" d="M130.68,-119.41C130.9,-109.06 131.3,-90.58 131.67,-73.54"/>
<polygon fill="green" stroke="green" stroke-width="0.41" points="135.17,-73.27 131.89,-63.2 128.18,-73.12 135.17,-73.27"/>
</g>
<!-- ball_out_field -->
<g id="node3" class="node">
<title>ball_out_field</title>
<polygon fill="lightgray" stroke="black" points="149.5,-230.91 71.5,-230.91 71.5,-212.91 149.5,-212.91 149.5,-230.91"/>
<text text-anchor="middle" x="110.5" y="-219.71" font-family="Times,serif" font-size="9.00">ball_out_field</text>
</g>
<!-- NOOP -->
<g id="node4" class="node">
<title>NOOP</title>
<ellipse fill="lightblue" stroke="black" cx="200.5" cy="-221.91" rx="32.55" ry="32.55"/>
<text text-anchor="middle" x="200.5" y="-219.71" font-family="Times,serif" font-size="9.00">NOOP</text>
</g>
<!-- FIRE -->
<g id="node5" class="node">
<title>FIRE</title>
<ellipse fill="lightblue" stroke="black" cx="279.5" cy="-221.91" rx="28.07" ry="28.07"/>
<text text-anchor="middle" x="279.5" y="-219.71" font-family="Times,serif" font-size="9.00">FIRE</text>
</g>
<!-- 891&#45;&gt;RIGHT -->
<g id="edge4" class="edge">
<title>891&#45;&gt;RIGHT</title>
<path fill="none" stroke="green" stroke-width="0.23" stroke-dasharray="1,5" d="M52.98,-103.76C52.82,-95.97 52.62,-87.07 52.44,-78.31"/>
<polygon fill="green" stroke="green" stroke-width="0.23" points="55.93,-78.08 52.22,-68.16 48.93,-78.23 55.93,-78.08"/>
</g>
</g>
</svg>
