<?xml version="1.0" encoding="UTF-8" standalone="no"?>
<!DOCTYPE svg PUBLIC "-//W3C//DTD SVG 1.1//EN"
 "http://www.w3.org/Graphics/SVG/1.1/DTD/svg11.dtd">
<!-- Generated by graphviz version 2.43.0 (0)
 -->
<!-- Title: %3 Pages: 1 -->
<svg width="320pt" height="271pt"
 viewBox="0.00 0.00 319.99 270.92" xmlns="http://www.w3.org/2000/svg" xmlns:xlink="http://www.w3.org/1999/xlink">
<g id="graph0" class="graph" transform="scale(1 1) rotate(0) translate(4 266.92)">
<title>%3</title>
<polygon fill="white" stroke="transparent" points="-4,4 -4,-266.92 315.99,-266.92 315.99,4 -4,4"/>
<!-- ball_direction -->
<g id="node1" class="node">
<title>ball_direction</title>
<polygon fill="lightgray" stroke="black" points="166,-141.87 86,-141.87 86,-123.87 166,-123.87 166,-141.87"/>
<text text-anchor="middle" x="126" y="-130.67" font-family="Times,serif" font-size="9.00">ball_direction</text>
</g>
<!-- RIGHT -->
<g id="node5" class="node">
<title>RIGHT</title>
<ellipse fill="lightblue" stroke="black" cx="42" cy="-33.94" rx="33.88" ry="33.88"/>
<text text-anchor="middle" x="42" y="-31.74" font-family="Times,serif" font-size="9.00">RIGHT</text>
</g>
<!-- ball_direction&#45;&gt;RIGHT -->
<g id="edge2" class="edge">
<title>ball_direction&#45;&gt;RIGHT</title>
<path fill="none" stroke="green" stroke-width="0.45" stroke-dasharray="1,5" d="M118.84,-123.61C108.19,-111.32 87.59,-87.55 70.4,-67.72"/>
<polygon fill="green" stroke="green" stroke-width="0.45" points="72.96,-65.33 63.77,-60.06 67.67,-69.91 72.96,-65.33"/>
</g>
<!-- LEFT -->
<g id="node6" class="node">
<title>LEFT</title>
<ellipse fill="lightblue" stroke="black" cx="126" cy="-33.94" rx="28.98" ry="28.98"/>
<text text-anchor="middle" x="126" y="-31.74" font-family="Times,serif" font-size="9.00">LEFT</text>
</g>
<!-- ball_direction&#45;&gt;LEFT -->
<g id="edge1" class="edge">
<title>ball_direction&#45;&gt;LEFT</title>
<path fill="none" stroke="red" stroke-width="0.45" d="M126,-123.61C126,-112.41 126,-91.66 126,-73.05"/>
<polygon fill="red" stroke="red" stroke-width="0.45" points="129.5,-73.01 126,-63.01 122.5,-73.01 129.5,-73.01"/>
</g>
<!-- ball_out_field -->
<g id="node2" class="node">
<title>ball_out_field</title>
<polygon fill="lightgray" stroke="black" points="78,-239.39 0,-239.39 0,-221.39 78,-221.39 78,-239.39"/>
<text text-anchor="middle" x="39" y="-228.19" font-family="Times,serif" font-size="9.00">ball_out_field</text>
</g>
<!-- 1599 -->
<g id="node8" class="node">
<title>1599</title>
<ellipse fill="white" stroke="black" cx="39" cy="-132.87" rx="28.98" ry="28.98"/>
<text text-anchor="middle" x="39" y="-130.67" font-family="Times,serif" font-size="9.00">1599</text>
</g>
<!-- ball_out_field&#45;&gt;1599 -->
<g id="edge3" class="edge">
<title>ball_out_field&#45;&gt;1599</title>
<path fill="none" stroke="red" stroke-width="0.23" d="M39,-221.25C39,-210.34 39,-190.23 39,-172.06"/>
<polygon fill="red" stroke="red" stroke-width="0.23" points="42.5,-171.95 39,-161.95 35.5,-171.95 42.5,-171.95"/>
</g>
<!-- NOOP -->
<g id="node3" class="node">
<title>NOOP</title>
<ellipse fill="lightblue" stroke="black" cx="129" cy="-230.39" rx="32.55" ry="32.55"/>
<text text-anchor="middle" x="129" y="-228.19" font-family="Times,serif" font-size="9.00">NOOP</text>
</g>
<!-- FIRE -->
<g id="node4" class="node">
<title>FIRE</title>
<ellipse fill="lightblue" stroke="black" cx="208" cy="-230.39" rx="28.07" ry="28.07"/>
<text text-anchor="middle" x="208" y="-228.19" font-family="Times,serif" font-size="9.00">FIRE</text>
</g>
<!-- 1543 -->
<g id="node7" class="node">
<title>1543</title>
<ellipse fill="white" stroke="black" cx="283" cy="-230.39" rx="28.98" ry="28.98"/>
<text text-anchor="middle" x="283" y="-228.19" font-family="Times,serif" font-size="9.00">1543</text>
</g>
<!-- 1599&#45;&gt;RIGHT -->
<g id="edge4" class="edge">
<title>1599&#45;&gt;RIGHT</title>
<path fill="none" stroke="green" stroke-width="0.13" d="M39.87,-103.84C40.12,-95.8 40.39,-86.84 40.66,-78.12"/>
<polygon fill="green" stroke="green" stroke-width="0.13" points="44.16,-78.16 40.98,-68.05 37.17,-77.94 44.16,-78.16"/>
</g>
</g>
</svg>
