<?xml version="1.0" encoding="UTF-8" standalone="no"?>
<!DOCTYPE svg PUBLIC "-//W3C//DTD SVG 1.1//EN"
 "http://www.w3.org/Graphics/SVG/1.1/DTD/svg11.dtd">
<!-- Generated by graphviz version 2.43.0 (0)
 -->
<!-- Title: %3 Pages: 1 -->
<svg width="529pt" height="381pt"
 viewBox="0.00 0.00 529.40 381.23" xmlns="http://www.w3.org/2000/svg" xmlns:xlink="http://www.w3.org/1999/xlink">
<g id="graph0" class="graph" transform="scale(1 1) rotate(0) translate(4 377.23)">
<title>%3</title>
<polygon fill="white" stroke="transparent" points="-4,4 -4,-377.23 525.4,-377.23 525.4,4 -4,4"/>
<!-- ball_direction -->
<g id="node1" class="node">
<title>ball_direction</title>
<polygon fill="lightgray" stroke="black" points="207.52,-314.35 127.52,-314.35 127.52,-296.35 207.52,-296.35 207.52,-314.35"/>
<text text-anchor="middle" x="167.52" y="-303.15" font-family="Times,serif" font-size="9.00">ball_direction</text>
</g>
<!-- LEFT -->
<g id="node5" class="node">
<title>LEFT</title>
<ellipse fill="lightblue" stroke="black" cx="109.52" cy="-32.53" rx="28.98" ry="28.98"/>
<text text-anchor="middle" x="109.52" y="-30.33" font-family="Times,serif" font-size="9.00">LEFT</text>
</g>
<!-- ball_direction&#45;&gt;LEFT -->
<g id="edge2" class="edge">
<title>ball_direction&#45;&gt;LEFT</title>
<path fill="none" stroke="red" stroke-width="0.17" d="M143.28,-296.26C107.7,-282.91 42.63,-252.55 15.52,-201.46 -5.4,-162.04 -4.85,-140.76 15.52,-101.05 27.74,-77.22 52.71,-59.9 73.85,-48.78"/>
<polygon fill="red" stroke="red" stroke-width="0.17" points="75.54,-51.84 82.92,-44.24 72.42,-45.58 75.54,-51.84"/>
</g>
<!-- RIGHTFIRE -->
<g id="node6" class="node">
<title>RIGHTFIRE</title>
<ellipse fill="lightblue" stroke="black" cx="74.52" cy="-151.26" rx="50.41" ry="50.41"/>
<text text-anchor="middle" x="74.52" y="-149.06" font-family="Times,serif" font-size="9.00">RIGHTFIRE</text>
</g>
<!-- ball_direction&#45;&gt;RIGHTFIRE -->
<g id="edge1" class="edge">
<title>ball_direction&#45;&gt;RIGHTFIRE</title>
<path fill="none" stroke="green" stroke-width="0.87" d="M162.52,-296.17C151.95,-278.89 126.63,-237.48 105.84,-203.49"/>
<polygon fill="green" stroke="green" stroke-width="0.87" points="108.6,-201.28 100.4,-194.58 102.63,-204.94 108.6,-201.28"/>
</g>
<!-- 528 -->
<g id="node8" class="node">
<title>528</title>
<ellipse fill="white" stroke="black" cx="167.52" cy="-151.26" rx="25" ry="25"/>
<text text-anchor="middle" x="167.52" y="-149.06" font-family="Times,serif" font-size="9.00">528</text>
</g>
<!-- ball_direction&#45;&gt;528 -->
<g id="edge3" class="edge">
<title>ball_direction&#45;&gt;528</title>
<path fill="none" stroke="green" stroke-width="0.44" d="M167.52,-296.17C167.52,-275.78 167.52,-221.78 167.52,-186.04"/>
<polygon fill="green" stroke="green" stroke-width="0.44" points="171.02,-186.04 167.52,-176.04 164.02,-186.04 171.02,-186.04"/>
</g>
<!-- 679 -->
<g id="node9" class="node">
<title>679</title>
<ellipse fill="white" stroke="black" cx="301.52" cy="-151.26" rx="25" ry="25"/>
<text text-anchor="middle" x="301.52" y="-149.06" font-family="Times,serif" font-size="9.00">679</text>
</g>
<!-- ball_direction&#45;&gt;679 -->
<g id="edge4" class="edge">
<title>ball_direction&#45;&gt;679</title>
<path fill="none" stroke="green" stroke-width="0.71" d="M172.2,-296.27C180.16,-282.98 197.33,-256.14 216.52,-237.46 236.66,-217.85 248.79,-221.49 268.52,-201.46 274.3,-195.59 279.7,-188.57 284.39,-181.7"/>
<polygon fill="green" stroke="green" stroke-width="0.71" points="287.41,-183.47 289.92,-173.17 281.54,-179.66 287.41,-183.47"/>
</g>
<!-- 798 -->
<g id="node10" class="node">
<title>798</title>
<ellipse fill="white" stroke="black" cx="234.52" cy="-151.26" rx="25" ry="25"/>
<text text-anchor="middle" x="234.52" y="-149.06" font-family="Times,serif" font-size="9.00">798</text>
</g>
<!-- ball_direction&#45;&gt;798 -->
<g id="edge6" class="edge">
<title>ball_direction&#45;&gt;798</title>
<path fill="none" stroke="green" stroke-width="0.11" d="M171.12,-296.17C180.29,-275.36 204.89,-219.51 220.61,-183.82"/>
<polygon fill="green" stroke="green" stroke-width="0.11" points="223.96,-184.9 224.79,-174.34 217.56,-182.08 223.96,-184.9"/>
</g>
<!-- NOOP -->
<g id="node2" class="node">
<title>NOOP</title>
<ellipse fill="lightblue" stroke="black" cx="301.52" cy="-32.53" rx="32.55" ry="32.55"/>
<text text-anchor="middle" x="301.52" y="-30.33" font-family="Times,serif" font-size="9.00">NOOP</text>
</g>
<!-- FIRE -->
<g id="node3" class="node">
<title>FIRE</title>
<ellipse fill="lightblue" stroke="black" cx="253.52" cy="-305.35" rx="28.07" ry="28.07"/>
<text text-anchor="middle" x="253.52" y="-303.15" font-family="Times,serif" font-size="9.00">FIRE</text>
</g>
<!-- RIGHT -->
<g id="node4" class="node">
<title>RIGHT</title>
<ellipse fill="lightblue" stroke="black" cx="333.52" cy="-305.35" rx="33.88" ry="33.88"/>
<text text-anchor="middle" x="333.52" y="-303.15" font-family="Times,serif" font-size="9.00">RIGHT</text>
</g>
<!-- LEFTRIGHTFIRE -->
<g id="node7" class="node">
<title>LEFTRIGHTFIRE</title>
<ellipse fill="lightblue" stroke="black" cx="453.52" cy="-305.35" rx="67.76" ry="67.76"/>
<text text-anchor="middle" x="453.52" y="-303.15" font-family="Times,serif" font-size="9.00">LEFTRIGHTFIRE</text>
</g>
<!-- 679&#45;&gt;NOOP -->
<g id="edge5" class="edge">
<title>679&#45;&gt;NOOP</title>
<path fill="none" stroke="green" stroke-width="0.14" d="M301.52,-126.35C301.52,-111.77 301.52,-92.72 301.52,-75.67"/>
<polygon fill="green" stroke="green" stroke-width="0.14" points="305.02,-75.37 301.52,-65.37 298.02,-75.37 305.02,-75.37"/>
</g>
<!-- 798&#45;&gt;LEFT -->
<g id="edge7" class="edge">
<title>798&#45;&gt;LEFT</title>
<path fill="none" stroke="red" stroke-width="0.46" d="M222.81,-129.45C217.06,-120.2 209.63,-109.52 201.52,-101.05 184,-82.78 161.05,-65.93 142.46,-53.63"/>
<polygon fill="red" stroke="red" stroke-width="0.46" points="144.28,-50.64 133.99,-48.14 140.48,-56.51 144.28,-50.64"/>
</g>
</g>
</svg>
