<?xml version="1.0" encoding="UTF-8" standalone="no"?>
<!DOCTYPE svg PUBLIC "-//W3C//DTD SVG 1.1//EN"
 "http://www.w3.org/Graphics/SVG/1.1/DTD/svg11.dtd">
<!-- Generated by graphviz version 2.43.0 (0)
 -->
<!-- Title: %3 Pages: 1 -->
<svg width="539pt" height="262pt"
 viewBox="0.00 0.00 539.28 262.43" xmlns="http://www.w3.org/2000/svg" xmlns:xlink="http://www.w3.org/1999/xlink">
<g id="graph0" class="graph" transform="scale(1 1) rotate(0) translate(4 258.43)">
<title>%3</title>
<polygon fill="white" stroke="transparent" points="-4,4 -4,-258.43 535.28,-258.43 535.28,4 -4,4"/>
<!-- ball_direction -->
<g id="node1" class="node">
<title>ball_direction</title>
<polygon fill="lightgray" stroke="black" points="140.99,-230.91 60.99,-230.91 60.99,-212.91 140.99,-212.91 140.99,-230.91"/>
<text text-anchor="middle" x="100.99" y="-219.71" font-family="Times,serif" font-size="9.00">ball_direction</text>
</g>
<!-- LEFT -->
<g id="node7" class="node">
<title>LEFT</title>
<ellipse fill="lightblue" stroke="black" cx="28.99" cy="-119.44" rx="28.98" ry="28.98"/>
<text text-anchor="middle" x="28.99" y="-117.24" font-family="Times,serif" font-size="9.00">LEFT</text>
</g>
<!-- ball_direction&#45;&gt;LEFT -->
<g id="edge1" class="edge">
<title>ball_direction&#45;&gt;LEFT</title>
<path fill="none" stroke="green" stroke-width="0.97" d="M95.1,-212.68C85.67,-199.53 66.71,-173.07 51.5,-151.85"/>
<polygon fill="green" stroke="green" stroke-width="0.97" points="54.34,-149.8 45.67,-143.71 48.65,-153.88 54.34,-149.8"/>
</g>
<!-- 302 -->
<g id="node8" class="node">
<title>302</title>
<ellipse fill="white" stroke="black" cx="100.99" cy="-119.44" rx="25" ry="25"/>
<text text-anchor="middle" x="100.99" y="-117.24" font-family="Times,serif" font-size="9.00">302</text>
</g>
<!-- ball_direction&#45;&gt;302 -->
<g id="edge3" class="edge">
<title>ball_direction&#45;&gt;302</title>
<path fill="none" stroke="red" stroke-width="0.18" d="M100.99,-212.68C100.99,-200.1 100.99,-175.33 100.99,-154.62"/>
<polygon fill="red" stroke="red" stroke-width="0.18" points="104.49,-154.55 100.99,-144.55 97.49,-154.55 104.49,-154.55"/>
</g>
<!-- 616 -->
<g id="node10" class="node">
<title>616</title>
<ellipse fill="white" stroke="black" cx="167.99" cy="-119.44" rx="25" ry="25"/>
<text text-anchor="middle" x="167.99" y="-117.24" font-family="Times,serif" font-size="9.00">616</text>
</g>
<!-- ball_direction&#45;&gt;616 -->
<g id="edge4" class="edge">
<title>ball_direction&#45;&gt;616</title>
<path fill="none" stroke="green" stroke-width="0.62" stroke-dasharray="1,5" d="M106.47,-212.68C115.65,-198.93 134.53,-170.62 148.96,-148.97"/>
<polygon fill="green" stroke="green" stroke-width="0.62" points="152,-150.72 154.64,-140.46 146.18,-146.84 152,-150.72"/>
</g>
<!-- ball_is_on_game -->
<g id="node2" class="node">
<title>ball_is_on_game</title>
<polygon fill="lightgray" stroke="black" points="328.49,-230.91 237.49,-230.91 237.49,-212.91 328.49,-212.91 328.49,-230.91"/>
<text text-anchor="middle" x="282.99" y="-219.71" font-family="Times,serif" font-size="9.00">ball_is_on_game</text>
</g>
<!-- RIGHT -->
<g id="node6" class="node">
<title>RIGHT</title>
<ellipse fill="lightblue" stroke="black" cx="244.99" cy="-119.44" rx="33.88" ry="33.88"/>
<text text-anchor="middle" x="244.99" y="-117.24" font-family="Times,serif" font-size="9.00">RIGHT</text>
</g>
<!-- ball_is_on_game&#45;&gt;RIGHT -->
<g id="edge2" class="edge">
<title>ball_is_on_game&#45;&gt;RIGHT</title>
<path fill="none" stroke="green" stroke-width="0.46" d="M279.88,-212.68C275.61,-201.38 267.61,-180.25 260.36,-161.06"/>
<polygon fill="green" stroke="green" stroke-width="0.46" points="263.57,-159.67 256.76,-151.56 257.03,-162.15 263.57,-159.67"/>
</g>
<!-- 728 -->
<g id="node11" class="node">
<title>728</title>
<ellipse fill="white" stroke="black" cx="321.99" cy="-119.44" rx="25" ry="25"/>
<text text-anchor="middle" x="321.99" y="-117.24" font-family="Times,serif" font-size="9.00">728</text>
</g>
<!-- ball_is_on_game&#45;&gt;728 -->
<g id="edge5" class="edge">
<title>ball_is_on_game&#45;&gt;728</title>
<path fill="none" stroke="red" stroke-width="0.28" stroke-dasharray="1,5" d="M286.18,-212.68C291.24,-199.66 301.36,-173.58 309.56,-152.47"/>
<polygon fill="red" stroke="red" stroke-width="0.28" points="312.92,-153.47 313.28,-142.89 306.4,-150.94 312.92,-153.47"/>
</g>
<!-- &#45;3 -->
<g id="node3" class="node">
<title>&#45;3</title>
<polygon fill="lightgray" stroke="black" points="372.99,-230.91 346.99,-230.91 346.99,-212.91 372.99,-212.91 372.99,-230.91"/>
<text text-anchor="middle" x="359.99" y="-219.71" font-family="Times,serif" font-size="9.00">&#45;3</text>
</g>
<!-- NOOP -->
<g id="node4" class="node">
<title>NOOP</title>
<ellipse fill="lightblue" stroke="black" cx="423.99" cy="-221.91" rx="32.55" ry="32.55"/>
<text text-anchor="middle" x="423.99" y="-219.71" font-family="Times,serif" font-size="9.00">NOOP</text>
</g>
<!-- FIRE -->
<g id="node5" class="node">
<title>FIRE</title>
<ellipse fill="lightblue" stroke="black" cx="502.99" cy="-221.91" rx="28.07" ry="28.07"/>
<text text-anchor="middle" x="502.99" y="-219.71" font-family="Times,serif" font-size="9.00">FIRE</text>
</g>
<!-- 563 -->
<g id="node9" class="node">
<title>563</title>
<ellipse fill="white" stroke="black" cx="321.99" cy="-24.75" rx="25" ry="25"/>
<text text-anchor="middle" x="321.99" y="-22.55" font-family="Times,serif" font-size="9.00">563</text>
</g>
<!-- 728&#45;&gt;563 -->
<g id="edge6" class="edge">
<title>728&#45;&gt;563</title>
<path fill="none" stroke="green" stroke-width="0.4" d="M321.99,-94.57C321.99,-83.97 321.99,-71.31 321.99,-59.75"/>
<polygon fill="green" stroke="green" stroke-width="0.4" points="325.49,-59.54 321.99,-49.54 318.49,-59.54 325.49,-59.54"/>
</g>
</g>
</svg>
