<?xml version="1.0" encoding="UTF-8" standalone="no"?>
<!DOCTYPE svg PUBLIC "-//W3C//DTD SVG 1.1//EN"
 "http://www.w3.org/Graphics/SVG/1.1/DTD/svg11.dtd">
<!-- Generated by graphviz version 2.43.0 (0)
 -->
<!-- Title: %3 Pages: 1 -->
<svg width="243pt" height="357pt"
 viewBox="0.00 0.00 242.53 357.06" xmlns="http://www.w3.org/2000/svg" xmlns:xlink="http://www.w3.org/1999/xlink">
<g id="graph0" class="graph" transform="scale(1 1) rotate(0) translate(4 353.06)">
<title>%3</title>
<polygon fill="white" stroke="transparent" points="-4,4 -4,-353.06 238.53,-353.06 238.53,4 -4,4"/>
<!-- ball_is_upper -->
<g id="node1" class="node">
<title>ball_is_upper</title>
<polygon fill="lightgray" stroke="black" points="82.26,-341.8 4.26,-341.8 4.26,-323.8 82.26,-323.8 82.26,-341.8"/>
<text text-anchor="middle" x="43.26" y="-330.6" font-family="Times,serif" font-size="9.00">ball_is_upper</text>
</g>
<!-- 3 -->
<g id="node5" class="node">
<title>3</title>
<ellipse fill="lightblue" stroke="black" cx="16.26" cy="-260.03" rx="16.03" ry="16.03"/>
<text text-anchor="middle" x="16.26" y="-257.83" font-family="Times,serif" font-size="9.00">3</text>
</g>
<!-- ball_is_upper&#45;&gt;3 -->
<g id="edge2" class="edge">
<title>ball_is_upper&#45;&gt;3</title>
<path fill="none" stroke="green" stroke-width="1.17" d="M40.17,-323.68C36.59,-314.31 30.54,-298.45 25.43,-285.04"/>
<polygon fill="green" stroke="green" stroke-width="1.17" points="28.58,-283.5 21.75,-275.41 22.04,-286 28.58,-283.5"/>
</g>
<!-- 81 -->
<g id="node8" class="node">
<title>81</title>
<ellipse fill="white" stroke="black" cx="71.26" cy="-260.03" rx="20.51" ry="20.51"/>
<text text-anchor="middle" x="71.26" y="-257.83" font-family="Times,serif" font-size="9.00">81</text>
</g>
<!-- ball_is_upper&#45;&gt;81 -->
<g id="edge1" class="edge">
<title>ball_is_upper&#45;&gt;81</title>
<path fill="none" stroke="green" stroke-width="0.74" d="M46.48,-323.68C49.83,-315.2 55.28,-301.42 60.22,-288.94"/>
<polygon fill="green" stroke="green" stroke-width="0.74" points="63.6,-289.92 64.02,-279.33 57.09,-287.34 63.6,-289.92"/>
</g>
<!-- 0 -->
<g id="node2" class="node">
<title>0</title>
<ellipse fill="lightblue" stroke="black" cx="116.26" cy="-332.8" rx="16.03" ry="16.03"/>
<text text-anchor="middle" x="116.26" y="-330.6" font-family="Times,serif" font-size="9.00">0</text>
</g>
<!-- 1 -->
<g id="node3" class="node">
<title>1</title>
<ellipse fill="lightblue" stroke="black" cx="167.26" cy="-332.8" rx="16.03" ry="16.03"/>
<text text-anchor="middle" x="167.26" y="-330.6" font-family="Times,serif" font-size="9.00">1</text>
</g>
<!-- 2 -->
<g id="node4" class="node">
<title>2</title>
<ellipse fill="lightblue" stroke="black" cx="71.26" cy="-187.26" rx="16.03" ry="16.03"/>
<text text-anchor="middle" x="71.26" y="-185.06" font-family="Times,serif" font-size="9.00">2</text>
</g>
<!-- 918 -->
<g id="node10" class="node">
<title>918</title>
<ellipse fill="white" stroke="black" cx="71.26" cy="-110.25" rx="25" ry="25"/>
<text text-anchor="middle" x="71.26" y="-108.05" font-family="Times,serif" font-size="9.00">918</text>
</g>
<!-- 2&#45;&gt;918 -->
<g id="edge6" class="edge">
<title>2&#45;&gt;918</title>
<path fill="none" stroke="red" stroke-width="0.18" d="M71.26,-170.72C71.26,-163.31 71.26,-154.15 71.26,-145.25"/>
<polygon fill="red" stroke="red" stroke-width="0.18" points="74.76,-145.04 71.26,-135.04 67.76,-145.04 74.76,-145.04"/>
</g>
<!-- 4 -->
<g id="node6" class="node">
<title>4</title>
<ellipse fill="lightblue" stroke="black" cx="218.26" cy="-332.8" rx="16.03" ry="16.03"/>
<text text-anchor="middle" x="218.26" y="-330.6" font-family="Times,serif" font-size="9.00">4</text>
</g>
<!-- 5 -->
<g id="node7" class="node">
<title>5</title>
<ellipse fill="lightblue" stroke="black" cx="130.26" cy="-110.25" rx="16.03" ry="16.03"/>
<text text-anchor="middle" x="130.26" y="-108.05" font-family="Times,serif" font-size="9.00">5</text>
</g>
<!-- 743 -->
<g id="node9" class="node">
<title>743</title>
<ellipse fill="white" stroke="black" cx="100.26" cy="-24.75" rx="25" ry="25"/>
<text text-anchor="middle" x="100.26" y="-22.55" font-family="Times,serif" font-size="9.00">743</text>
</g>
<!-- 5&#45;&gt;743 -->
<g id="edge4" class="edge">
<title>5&#45;&gt;743</title>
<path fill="none" stroke="green" stroke-width="0.17" stroke-dasharray="1,5" d="M125.04,-94.7C121.37,-84.5 116.33,-70.46 111.75,-57.71"/>
<polygon fill="green" stroke="green" stroke-width="0.17" points="115.04,-56.52 108.36,-48.3 108.45,-58.89 115.04,-56.52"/>
</g>
<!-- 81&#45;&gt;2 -->
<g id="edge3" class="edge">
<title>81&#45;&gt;2</title>
<path fill="none" stroke="red" stroke-width="0.43" d="M71.26,-239.31C71.26,-231.38 71.26,-222.12 71.26,-213.69"/>
<polygon fill="red" stroke="red" stroke-width="0.43" points="74.76,-213.61 71.26,-203.61 67.76,-213.61 74.76,-213.61"/>
</g>
<!-- 918&#45;&gt;743 -->
<g id="edge5" class="edge">
<title>918&#45;&gt;743</title>
<path fill="none" stroke="green" stroke-width="0.42" stroke-dasharray="1,5" d="M79.19,-86.43C82.25,-77.61 85.81,-67.37 89.12,-57.84"/>
<polygon fill="green" stroke="green" stroke-width="0.42" points="92.47,-58.84 92.45,-48.25 85.86,-56.55 92.47,-58.84"/>
</g>
</g>
</svg>
