<?xml version="1.0" encoding="UTF-8" standalone="no"?>
<!DOCTYPE svg PUBLIC "-//W3C//DTD SVG 1.1//EN"
 "http://www.w3.org/Graphics/SVG/1.1/DTD/svg11.dtd">
<!-- Generated by graphviz version 2.43.0 (0)
 -->
<!-- Title: %3 Pages: 1 -->
<svg width="2395pt" height="421pt"
 viewBox="0.00 0.00 2394.95 420.83" xmlns="http://www.w3.org/2000/svg" xmlns:xlink="http://www.w3.org/1999/xlink">
<g id="graph0" class="graph" transform="scale(1 1) rotate(0) translate(4 416.83)">
<title>%3</title>
<polygon fill="white" stroke="transparent" points="-4,4 -4,-416.83 2390.95,-416.83 2390.95,4 -4,4"/>
<!-- player_x -->
<g id="node1" class="node">
<title>player_x</title>
<polygon fill="lightgray" stroke="black" points="74.96,-348.29 18.96,-348.29 18.96,-330.29 74.96,-330.29 74.96,-348.29"/>
<text text-anchor="middle" x="46.96" y="-337.09" font-family="Times,serif" font-size="9.00">player_x</text>
</g>
<!-- LEFTFIRE -->
<g id="node16" class="node">
<title>LEFTFIRE</title>
<ellipse fill="lightblue" stroke="black" cx="45.96" cy="-45.96" rx="45.92" ry="45.92"/>
<text text-anchor="middle" x="45.96" y="-43.76" font-family="Times,serif" font-size="9.00">LEFTFIRE</text>
</g>
<!-- player_x&#45;&gt;LEFTFIRE -->
<g id="edge3" class="edge">
<title>player_x&#45;&gt;LEFTFIRE</title>
<path fill="none" stroke="green" stroke-width="0.46" d="M45.95,-330.13C43.77,-312.09 38.69,-267.37 36.96,-229.75 34.88,-184.54 34.46,-173.11 36.96,-127.92 37.43,-119.5 38.17,-110.61 39.02,-101.92"/>
<polygon fill="green" stroke="green" stroke-width="0.46" points="42.52,-102.16 40.08,-91.85 35.56,-101.44 42.52,-102.16"/>
</g>
<!-- 2034 -->
<g id="node28" class="node">
<title>2034</title>
<ellipse fill="white" stroke="black" cx="74.96" cy="-178.84" rx="28.98" ry="28.98"/>
<text text-anchor="middle" x="74.96" y="-176.64" font-family="Times,serif" font-size="9.00">2034</text>
</g>
<!-- player_x&#45;&gt;2034 -->
<g id="edge5" class="edge">
<title>player_x&#45;&gt;2034</title>
<path fill="none" stroke="green" stroke-width="0.25" d="M48.39,-330.21C51.99,-309.8 61.66,-255.13 68.28,-217.65"/>
<polygon fill="green" stroke="green" stroke-width="0.25" points="71.77,-218.04 70.06,-207.58 64.87,-216.82 71.77,-218.04"/>
</g>
<!-- player_y -->
<g id="node2" class="node">
<title>player_y</title>
<polygon fill="lightgray" stroke="black" points="247.96,-348.29 191.96,-348.29 191.96,-330.29 247.96,-330.29 247.96,-348.29"/>
<text text-anchor="middle" x="219.96" y="-337.09" font-family="Times,serif" font-size="9.00">player_y</text>
</g>
<!-- DOWNFIRE -->
<g id="node17" class="node">
<title>DOWNFIRE</title>
<ellipse fill="lightblue" stroke="black" cx="172.96" cy="-178.84" rx="50.82" ry="50.82"/>
<text text-anchor="middle" x="172.96" y="-176.64" font-family="Times,serif" font-size="9.00">DOWNFIRE</text>
</g>
<!-- player_y&#45;&gt;DOWNFIRE -->
<g id="edge1" class="edge">
<title>player_y&#45;&gt;DOWNFIRE</title>
<path fill="none" stroke="green" stroke-width="0.52" d="M217.57,-330.21C212.52,-313.21 200.42,-272.4 190.09,-237.59"/>
<polygon fill="green" stroke="green" stroke-width="0.52" points="193.43,-236.54 187.23,-227.95 186.72,-238.53 193.43,-236.54"/>
</g>
<!-- 576 -->
<g id="node24" class="node">
<title>576</title>
<ellipse fill="white" stroke="black" cx="266.96" cy="-178.84" rx="25" ry="25"/>
<text text-anchor="middle" x="266.96" y="-176.64" font-family="Times,serif" font-size="9.00">576</text>
</g>
<!-- player_y&#45;&gt;576 -->
<g id="edge2" class="edge">
<title>player_y&#45;&gt;576</title>
<path fill="none" stroke="red" stroke-width="0.21" d="M222.36,-330.21C228.68,-308.88 246.11,-250.12 257.22,-212.68"/>
<polygon fill="red" stroke="red" stroke-width="0.21" points="260.68,-213.32 260.17,-202.74 253.97,-211.33 260.68,-213.32"/>
</g>
<!-- ball_x -->
<g id="node3" class="node">
<title>ball_x</title>
<polygon fill="lightgray" stroke="black" points="309.96,-348.29 265.96,-348.29 265.96,-330.29 309.96,-330.29 309.96,-348.29"/>
<text text-anchor="middle" x="287.96" y="-337.09" font-family="Times,serif" font-size="9.00">ball_x</text>
</g>
<!-- ball_y -->
<g id="node4" class="node">
<title>ball_y</title>
<polygon fill="lightgray" stroke="black" points="371.96,-348.29 327.96,-348.29 327.96,-330.29 371.96,-330.29 371.96,-348.29"/>
<text text-anchor="middle" x="349.96" y="-337.09" font-family="Times,serif" font-size="9.00">ball_y</text>
</g>
<!-- NOOP -->
<g id="node5" class="node">
<title>NOOP</title>
<ellipse fill="lightblue" stroke="black" cx="422.96" cy="-339.29" rx="32.55" ry="32.55"/>
<text text-anchor="middle" x="422.96" y="-337.09" font-family="Times,serif" font-size="9.00">NOOP</text>
</g>
<!-- FIRE -->
<g id="node6" class="node">
<title>FIRE</title>
<ellipse fill="lightblue" stroke="black" cx="501.96" cy="-339.29" rx="28.07" ry="28.07"/>
<text text-anchor="middle" x="501.96" y="-337.09" font-family="Times,serif" font-size="9.00">FIRE</text>
</g>
<!-- RIGHT -->
<g id="node7" class="node">
<title>RIGHT</title>
<ellipse fill="lightblue" stroke="black" cx="581.96" cy="-339.29" rx="33.88" ry="33.88"/>
<text text-anchor="middle" x="581.96" y="-337.09" font-family="Times,serif" font-size="9.00">RIGHT</text>
</g>
<!-- LEFT -->
<g id="node8" class="node">
<title>LEFT</title>
<ellipse fill="lightblue" stroke="black" cx="662.96" cy="-339.29" rx="28.98" ry="28.98"/>
<text text-anchor="middle" x="662.96" y="-337.09" font-family="Times,serif" font-size="9.00">LEFT</text>
</g>
<!-- RIGHTFIRE -->
<g id="node9" class="node">
<title>RIGHTFIRE</title>
<ellipse fill="lightblue" stroke="black" cx="759.96" cy="-339.29" rx="50.41" ry="50.41"/>
<text text-anchor="middle" x="759.96" y="-337.09" font-family="Times,serif" font-size="9.00">RIGHTFIRE</text>
</g>
<!-- LEFTRIGHTFIRE -->
<g id="node10" class="node">
<title>LEFTRIGHTFIRE</title>
<ellipse fill="lightblue" stroke="black" cx="895.96" cy="-339.29" rx="67.76" ry="67.76"/>
<text text-anchor="middle" x="895.96" y="-337.09" font-family="Times,serif" font-size="9.00">LEFTRIGHTFIRE</text>
</g>
<!-- UPRIGHT -->
<g id="node11" class="node">
<title>UPRIGHT</title>
<ellipse fill="lightblue" stroke="black" cx="1025.96" cy="-339.29" rx="43.68" ry="43.68"/>
<text text-anchor="middle" x="1025.96" y="-337.09" font-family="Times,serif" font-size="9.00">UPRIGHT</text>
</g>
<!-- UPLEFT -->
<g id="node12" class="node">
<title>UPLEFT</title>
<ellipse fill="lightblue" stroke="black" cx="1126.96" cy="-339.29" rx="38.78" ry="38.78"/>
<text text-anchor="middle" x="1126.96" y="-337.09" font-family="Times,serif" font-size="9.00">UPLEFT</text>
</g>
<!-- DOWNRIGHT -->
<g id="node13" class="node">
<title>DOWNRIGHT</title>
<ellipse fill="lightblue" stroke="black" cx="1239.96" cy="-339.29" rx="56.64" ry="56.64"/>
<text text-anchor="middle" x="1239.96" y="-337.09" font-family="Times,serif" font-size="9.00">DOWNRIGHT</text>
</g>
<!-- DOWNLEFT -->
<g id="node14" class="node">
<title>DOWNLEFT</title>
<ellipse fill="lightblue" stroke="black" cx="1366.96" cy="-339.29" rx="52.15" ry="52.15"/>
<text text-anchor="middle" x="1366.96" y="-337.09" font-family="Times,serif" font-size="9.00">DOWNLEFT</text>
</g>
<!-- UPFIRE -->
<g id="node15" class="node">
<title>UPFIRE</title>
<ellipse fill="lightblue" stroke="black" cx="1474.96" cy="-339.29" rx="37.45" ry="37.45"/>
<text text-anchor="middle" x="1474.96" y="-337.09" font-family="Times,serif" font-size="9.00">UPFIRE</text>
</g>
<!-- UPRIGHTFIRE -->
<g id="node18" class="node">
<title>UPRIGHTFIRE</title>
<ellipse fill="lightblue" stroke="black" cx="1590.96" cy="-339.29" rx="60.21" ry="60.21"/>
<text text-anchor="middle" x="1590.96" y="-337.09" font-family="Times,serif" font-size="9.00">UPRIGHTFIRE</text>
</g>
<!-- UPLEFTFIRE -->
<g id="node19" class="node">
<title>UPLEFTFIRE</title>
<ellipse fill="lightblue" stroke="black" cx="1723.96" cy="-339.29" rx="55.31" ry="55.31"/>
<text text-anchor="middle" x="1723.96" y="-337.09" font-family="Times,serif" font-size="9.00">UPLEFTFIRE</text>
</g>
<!-- DOWNRIGHTFIRE -->
<g id="node20" class="node">
<title>DOWNRIGHTFIRE</title>
<ellipse fill="lightblue" stroke="black" cx="1870.96" cy="-339.29" rx="73.58" ry="73.58"/>
<text text-anchor="middle" x="1870.96" y="-337.09" font-family="Times,serif" font-size="9.00">DOWNRIGHTFIRE</text>
</g>
<!-- DOWNLEFTFIRE -->
<g id="node21" class="node">
<title>DOWNLEFTFIRE</title>
<ellipse fill="lightblue" stroke="black" cx="2030.96" cy="-339.29" rx="68.68" ry="68.68"/>
<text text-anchor="middle" x="2030.96" y="-337.09" font-family="Times,serif" font-size="9.00">DOWNLEFTFIRE</text>
</g>
<!-- 216 -->
<g id="node22" class="node">
<title>216</title>
<ellipse fill="white" stroke="black" cx="2146.96" cy="-178.84" rx="25" ry="25"/>
<text text-anchor="middle" x="2146.96" y="-176.64" font-family="Times,serif" font-size="9.00">216</text>
</g>
<!-- 347 -->
<g id="node23" class="node">
<title>347</title>
<ellipse fill="white" stroke="black" cx="2218.96" cy="-339.29" rx="25" ry="25"/>
<text text-anchor="middle" x="2218.96" y="-337.09" font-family="Times,serif" font-size="9.00">347</text>
</g>
<!-- 979 -->
<g id="node25" class="node">
<title>979</title>
<ellipse fill="white" stroke="black" cx="2285.96" cy="-339.29" rx="25" ry="25"/>
<text text-anchor="middle" x="2285.96" y="-337.09" font-family="Times,serif" font-size="9.00">979</text>
</g>
<!-- 1086 -->
<g id="node26" class="node">
<title>1086</title>
<ellipse fill="white" stroke="black" cx="2357.96" cy="-339.29" rx="28.98" ry="28.98"/>
<text text-anchor="middle" x="2357.96" y="-337.09" font-family="Times,serif" font-size="9.00">1086</text>
</g>
<!-- 1123 -->
<g id="node27" class="node">
<title>1123</title>
<ellipse fill="white" stroke="black" cx="2146.96" cy="-339.29" rx="28.98" ry="28.98"/>
<text text-anchor="middle" x="2146.96" y="-337.09" font-family="Times,serif" font-size="9.00">1123</text>
</g>
<!-- 1123&#45;&gt;216 -->
<g id="edge4" class="edge">
<title>1123&#45;&gt;216</title>
<path fill="none" stroke="red" stroke-width="0.16" d="M2146.96,-309.96C2146.96,-283.12 2146.96,-242.77 2146.96,-214.13"/>
<polygon fill="red" stroke="red" stroke-width="0.16" points="2150.46,-213.78 2146.96,-203.78 2143.46,-213.78 2150.46,-213.78"/>
</g>
<!-- 2034&#45;&gt;LEFTFIRE -->
<g id="edge6" class="edge">
<title>2034&#45;&gt;LEFTFIRE</title>
<path fill="none" stroke="green" stroke-width="0.39" d="M68.88,-150.4C65.7,-136.05 61.7,-117.97 57.93,-100.96"/>
<polygon fill="green" stroke="green" stroke-width="0.39" points="61.32,-100.11 55.74,-91.1 54.49,-101.62 61.32,-100.11"/>
</g>
</g>
</svg>
