<?xml version="1.0" encoding="UTF-8" standalone="no"?>
<!DOCTYPE svg PUBLIC "-//W3C//DTD SVG 1.1//EN"
 "http://www.w3.org/Graphics/SVG/1.1/DTD/svg11.dtd">
<!-- Generated by graphviz version 2.43.0 (0)
 -->
<!-- Title: %3 Pages: 1 -->
<svg width="1191pt" height="425pt"
 viewBox="0.00 0.00 1190.98 424.94" xmlns="http://www.w3.org/2000/svg" xmlns:xlink="http://www.w3.org/1999/xlink">
<g id="graph0" class="graph" transform="scale(1 1) rotate(0) translate(4 420.94)">
<title>%3</title>
<polygon fill="white" stroke="transparent" points="-4,4 -4,-420.94 1186.98,-420.94 1186.98,4 -4,4"/>
<!-- &#45;1 -->
<g id="node1" class="node">
<title>&#45;1</title>
<polygon fill="lightgray" stroke="black" points="58.99,-302.97 32.99,-302.97 32.99,-284.97 58.99,-284.97 58.99,-302.97"/>
<text text-anchor="middle" x="45.99" y="-291.77" font-family="Times,serif" font-size="9.00">&#45;1</text>
</g>
<!-- 17 -->
<g id="node22" class="node">
<title>17</title>
<ellipse fill="lightblue" stroke="black" cx="95.99" cy="-199.99" rx="20.51" ry="20.51"/>
<text text-anchor="middle" x="95.99" y="-197.79" font-family="Times,serif" font-size="9.00">17</text>
</g>
<!-- &#45;1&#45;&gt;17 -->
<g id="edge2" class="edge">
<title>&#45;1&#45;&gt;17</title>
<path fill="none" stroke="green" stroke-width="4.18" d="M50.43,-284.81C57.37,-272.03 71.1,-246.78 81.68,-227.31"/>
<polygon fill="green" stroke="green" stroke-width="4.18" points="85.02,-228.83 86.58,-218.3 78.59,-225.34 85.02,-228.83"/>
</g>
<!-- 5073 -->
<g id="node29" class="node">
<title>5073</title>
<ellipse fill="white" stroke="black" cx="28.99" cy="-199.99" rx="28.98" ry="28.98"/>
<text text-anchor="middle" x="28.99" y="-197.79" font-family="Times,serif" font-size="9.00">5073</text>
</g>
<!-- &#45;1&#45;&gt;5073 -->
<g id="edge11" class="edge">
<title>&#45;1&#45;&gt;5073</title>
<path fill="none" stroke="red" stroke-width="0.16" d="M44.48,-284.81C42.57,-274.47 39.15,-255.94 36,-238.93"/>
<polygon fill="red" stroke="red" stroke-width="0.16" points="39.36,-237.82 34.1,-228.62 32.47,-239.09 39.36,-237.82"/>
</g>
<!-- &#45;2 -->
<g id="node2" class="node">
<title>&#45;2</title>
<polygon fill="lightgray" stroke="black" points="235.99,-208.99 209.99,-208.99 209.99,-190.99 235.99,-190.99 235.99,-208.99"/>
<text text-anchor="middle" x="222.99" y="-197.79" font-family="Times,serif" font-size="9.00">&#45;2</text>
</g>
<!-- 1 -->
<g id="node6" class="node">
<title>1</title>
<ellipse fill="lightblue" stroke="black" cx="223.99" cy="-106" rx="16.03" ry="16.03"/>
<text text-anchor="middle" x="223.99" y="-103.8" font-family="Times,serif" font-size="9.00">1</text>
</g>
<!-- &#45;2&#45;&gt;1 -->
<g id="edge4" class="edge">
<title>&#45;2&#45;&gt;1</title>
<path fill="none" stroke="green" stroke-width="0.15" stroke-dasharray="1,5" d="M223.08,-190.82C223.22,-177.91 223.5,-152.24 223.71,-132.7"/>
<polygon fill="green" stroke="green" stroke-width="0.15" points="227.21,-132.62 223.82,-122.58 220.21,-132.55 227.21,-132.62"/>
</g>
<!-- 4859 -->
<g id="node25" class="node">
<title>4859</title>
<ellipse fill="white" stroke="black" cx="160.99" cy="-106" rx="28.98" ry="28.98"/>
<text text-anchor="middle" x="160.99" y="-103.8" font-family="Times,serif" font-size="9.00">4859</text>
</g>
<!-- &#45;2&#45;&gt;4859 -->
<g id="edge5" class="edge">
<title>&#45;2&#45;&gt;4859</title>
<path fill="none" stroke="red" stroke-width="0.7" d="M217.49,-190.82C209.71,-179.28 195.06,-157.55 182.63,-139.11"/>
<polygon fill="red" stroke="red" stroke-width="0.7" points="185.42,-136.98 176.93,-130.65 179.61,-140.9 185.42,-136.98"/>
</g>
<!-- &#45;3 -->
<g id="node3" class="node">
<title>&#45;3</title>
<polygon fill="lightgray" stroke="black" points="446.99,-396.95 420.99,-396.95 420.99,-378.95 446.99,-378.95 446.99,-396.95"/>
<text text-anchor="middle" x="433.99" y="-385.75" font-family="Times,serif" font-size="9.00">&#45;3</text>
</g>
<!-- 3 -->
<g id="node8" class="node">
<title>3</title>
<ellipse fill="lightblue" stroke="black" cx="433.99" cy="-293.97" rx="16.03" ry="16.03"/>
<text text-anchor="middle" x="433.99" y="-291.77" font-family="Times,serif" font-size="9.00">3</text>
</g>
<!-- &#45;3&#45;&gt;3 -->
<g id="edge1" class="edge">
<title>&#45;3&#45;&gt;3</title>
<path fill="none" stroke="green" stroke-width="3.9" d="M433.99,-378.79C433.99,-365.88 433.99,-340.21 433.99,-320.66"/>
<polygon fill="green" stroke="green" stroke-width="3.9" points="437.49,-320.55 433.99,-310.55 430.49,-320.55 437.49,-320.55"/>
</g>
<!-- &#45;4 -->
<g id="node4" class="node">
<title>&#45;4</title>
<polygon fill="lightgray" stroke="black" points="490.99,-396.95 464.99,-396.95 464.99,-378.95 490.99,-378.95 490.99,-396.95"/>
<text text-anchor="middle" x="477.99" y="-385.75" font-family="Times,serif" font-size="9.00">&#45;4</text>
</g>
<!-- 0 -->
<g id="node5" class="node">
<title>0</title>
<ellipse fill="lightblue" stroke="black" cx="524.99" cy="-387.95" rx="16.03" ry="16.03"/>
<text text-anchor="middle" x="524.99" y="-385.75" font-family="Times,serif" font-size="9.00">0</text>
</g>
<!-- 2 -->
<g id="node7" class="node">
<title>2</title>
<ellipse fill="lightblue" stroke="black" cx="575.99" cy="-387.95" rx="16.03" ry="16.03"/>
<text text-anchor="middle" x="575.99" y="-385.75" font-family="Times,serif" font-size="9.00">2</text>
</g>
<!-- 4 -->
<g id="node9" class="node">
<title>4</title>
<ellipse fill="lightblue" stroke="black" cx="626.99" cy="-387.95" rx="16.03" ry="16.03"/>
<text text-anchor="middle" x="626.99" y="-385.75" font-family="Times,serif" font-size="9.00">4</text>
</g>
<!-- 5 -->
<g id="node10" class="node">
<title>5</title>
<ellipse fill="lightblue" stroke="black" cx="677.99" cy="-387.95" rx="16.03" ry="16.03"/>
<text text-anchor="middle" x="677.99" y="-385.75" font-family="Times,serif" font-size="9.00">5</text>
</g>
<!-- 6 -->
<g id="node11" class="node">
<title>6</title>
<ellipse fill="lightblue" stroke="black" cx="740.99" cy="-293.97" rx="16.03" ry="16.03"/>
<text text-anchor="middle" x="740.99" y="-291.77" font-family="Times,serif" font-size="9.00">6</text>
</g>
<!-- 7 -->
<g id="node12" class="node">
<title>7</title>
<ellipse fill="lightblue" stroke="black" cx="269.99" cy="-199.99" rx="16.03" ry="16.03"/>
<text text-anchor="middle" x="269.99" y="-197.79" font-family="Times,serif" font-size="9.00">7</text>
</g>
<!-- 4142 -->
<g id="node23" class="node">
<title>4142</title>
<ellipse fill="white" stroke="black" cx="313.99" cy="-106" rx="28.98" ry="28.98"/>
<text text-anchor="middle" x="313.99" y="-103.8" font-family="Times,serif" font-size="9.00">4142</text>
</g>
<!-- 7&#45;&gt;4142 -->
<g id="edge8" class="edge">
<title>7&#45;&gt;4142</title>
<path fill="none" stroke="red" stroke-width="0.11" d="M276.67,-185.02C282.17,-173.53 290.19,-156.75 297.4,-141.7"/>
<polygon fill="red" stroke="red" stroke-width="0.11" points="300.59,-143.14 301.74,-132.61 294.27,-140.12 300.59,-143.14"/>
</g>
<!-- 8 -->
<g id="node13" class="node">
<title>8</title>
<ellipse fill="lightblue" stroke="black" cx="803.99" cy="-387.95" rx="16.03" ry="16.03"/>
<text text-anchor="middle" x="803.99" y="-385.75" font-family="Times,serif" font-size="9.00">8</text>
</g>
<!-- 9 -->
<g id="node14" class="node">
<title>9</title>
<ellipse fill="lightblue" stroke="black" cx="854.99" cy="-387.95" rx="16.03" ry="16.03"/>
<text text-anchor="middle" x="854.99" y="-385.75" font-family="Times,serif" font-size="9.00">9</text>
</g>
<!-- 10 -->
<g id="node15" class="node">
<title>10</title>
<ellipse fill="lightblue" stroke="black" cx="909.99" cy="-387.95" rx="20.51" ry="20.51"/>
<text text-anchor="middle" x="909.99" y="-385.75" font-family="Times,serif" font-size="9.00">10</text>
</g>
<!-- 11 -->
<g id="node16" class="node">
<title>11</title>
<ellipse fill="lightblue" stroke="black" cx="172.99" cy="-20.51" rx="20.51" ry="20.51"/>
<text text-anchor="middle" x="172.99" y="-18.31" font-family="Times,serif" font-size="9.00">11</text>
</g>
<!-- 12 -->
<g id="node17" class="node">
<title>12</title>
<ellipse fill="lightblue" stroke="black" cx="968.99" cy="-387.95" rx="20.51" ry="20.51"/>
<text text-anchor="middle" x="968.99" y="-385.75" font-family="Times,serif" font-size="9.00">12</text>
</g>
<!-- 13 -->
<g id="node18" class="node">
<title>13</title>
<ellipse fill="lightblue" stroke="black" cx="1027.99" cy="-387.95" rx="20.51" ry="20.51"/>
<text text-anchor="middle" x="1027.99" y="-385.75" font-family="Times,serif" font-size="9.00">13</text>
</g>
<!-- 14 -->
<g id="node19" class="node">
<title>14</title>
<ellipse fill="lightblue" stroke="black" cx="341.99" cy="-387.95" rx="20.51" ry="20.51"/>
<text text-anchor="middle" x="341.99" y="-385.75" font-family="Times,serif" font-size="9.00">14</text>
</g>
<!-- 14&#45;&gt;4142 -->
<g id="edge3" class="edge">
<title>14&#45;&gt;4142</title>
<path fill="none" stroke="red" stroke-width="0.57" stroke-dasharray="1,5" d="M338.97,-367.38C337.08,-354.73 334.7,-337.9 332.99,-322.96 325.89,-260.78 320,-188.26 316.74,-145.07"/>
<polygon fill="red" stroke="red" stroke-width="0.57" points="320.22,-144.72 315.99,-135.01 313.24,-145.24 320.22,-144.72"/>
</g>
<!-- 4927 -->
<g id="node26" class="node">
<title>4927</title>
<ellipse fill="white" stroke="black" cx="370.99" cy="-293.97" rx="28.98" ry="28.98"/>
<text text-anchor="middle" x="370.99" y="-291.77" font-family="Times,serif" font-size="9.00">4927</text>
</g>
<!-- 14&#45;&gt;4927 -->
<g id="edge6" class="edge">
<title>14&#45;&gt;4927</title>
<path fill="none" stroke="green" stroke-width="0.91" stroke-dasharray="1,5" d="M348,-367.89C351.3,-357.43 355.5,-344.09 359.41,-331.7"/>
<polygon fill="green" stroke="green" stroke-width="0.91" points="362.79,-332.62 362.46,-322.03 356.12,-330.51 362.79,-332.62"/>
</g>
<!-- 15 -->
<g id="node20" class="node">
<title>15</title>
<ellipse fill="lightblue" stroke="black" cx="1086.99" cy="-387.95" rx="20.51" ry="20.51"/>
<text text-anchor="middle" x="1086.99" y="-385.75" font-family="Times,serif" font-size="9.00">15</text>
</g>
<!-- 16 -->
<g id="node21" class="node">
<title>16</title>
<ellipse fill="lightblue" stroke="black" cx="113.99" cy="-293.97" rx="20.51" ry="20.51"/>
<text text-anchor="middle" x="113.99" y="-291.77" font-family="Times,serif" font-size="9.00">16</text>
</g>
<!-- 5284 -->
<g id="node31" class="node">
<title>5284</title>
<ellipse fill="white" stroke="black" cx="162.99" cy="-199.99" rx="28.98" ry="28.98"/>
<text text-anchor="middle" x="162.99" y="-197.79" font-family="Times,serif" font-size="9.00">5284</text>
</g>
<!-- 16&#45;&gt;5284 -->
<g id="edge19" class="edge">
<title>16&#45;&gt;5284</title>
<path fill="none" stroke="red" stroke-width="0.24" d="M123.44,-275.23C129.49,-263.87 137.55,-248.74 144.82,-235.1"/>
<polygon fill="red" stroke="red" stroke-width="0.24" points="148.07,-236.44 149.68,-225.97 141.89,-233.15 148.07,-236.44"/>
</g>
<!-- 17&#45;&gt;4859 -->
<g id="edge18" class="edge">
<title>17&#45;&gt;4859</title>
<path fill="none" stroke="red" stroke-width="0.19" d="M107.61,-182.54C116.22,-170.36 128.22,-153.38 138.66,-138.61"/>
<polygon fill="red" stroke="red" stroke-width="0.19" points="141.68,-140.4 144.59,-130.22 135.96,-136.36 141.68,-140.4"/>
</g>
<!-- 4142&#45;&gt;11 -->
<g id="edge9" class="edge">
<title>4142&#45;&gt;11</title>
<path fill="none" stroke="green" stroke-width="0.17" d="M289.43,-90.46C264.27,-75.56 225.29,-52.48 199.46,-37.18"/>
<polygon fill="green" stroke="green" stroke-width="0.17" points="200.98,-34.01 190.59,-31.93 197.41,-40.04 200.98,-34.01"/>
</g>
<!-- 4649 -->
<g id="node24" class="node">
<title>4649</title>
<ellipse fill="white" stroke="black" cx="1153.99" cy="-387.95" rx="28.98" ry="28.98"/>
<text text-anchor="middle" x="1153.99" y="-385.75" font-family="Times,serif" font-size="9.00">4649</text>
</g>
<!-- 4927&#45;&gt;4142 -->
<g id="edge7" class="edge">
<title>4927&#45;&gt;4142</title>
<path fill="none" stroke="red" stroke-width="0.54" stroke-dasharray="1,5" d="M362.7,-265.93C352.82,-233.7 336.27,-179.7 325.24,-143.72"/>
<polygon fill="red" stroke="red" stroke-width="0.54" points="328.57,-142.61 322.29,-134.08 321.87,-144.66 328.57,-142.61"/>
</g>
<!-- 5325 -->
<g id="node32" class="node">
<title>5325</title>
<ellipse fill="white" stroke="black" cx="408.99" cy="-199.99" rx="28.98" ry="28.98"/>
<text text-anchor="middle" x="408.99" y="-197.79" font-family="Times,serif" font-size="9.00">5325</text>
</g>
<!-- 4927&#45;&gt;5325 -->
<g id="edge14" class="edge">
<title>4927&#45;&gt;5325</title>
<path fill="none" stroke="green" stroke-width="0.77" d="M381.78,-266.86C385.67,-257.44 390.13,-246.64 394.3,-236.55"/>
<polygon fill="green" stroke="green" stroke-width="0.77" points="397.59,-237.74 398.18,-227.16 391.12,-235.07 397.59,-237.74"/>
</g>
<!-- 4981 -->
<g id="node27" class="node">
<title>4981</title>
<ellipse fill="white" stroke="black" cx="191.99" cy="-387.95" rx="28.98" ry="28.98"/>
<text text-anchor="middle" x="191.99" y="-385.75" font-family="Times,serif" font-size="9.00">4981</text>
</g>
<!-- 4981&#45;&gt;5284 -->
<g id="edge12" class="edge">
<title>4981&#45;&gt;5284</title>
<path fill="none" stroke="red" stroke-width="0.45" stroke-dasharray="1,5" d="M187.66,-359.23C185.9,-347.98 183.85,-334.85 181.99,-322.96 177.62,-294.92 172.68,-263.26 168.94,-239.22"/>
<polygon fill="red" stroke="red" stroke-width="0.45" points="172.36,-238.43 167.36,-229.09 165.44,-239.51 172.36,-238.43"/>
</g>
<!-- 5499 -->
<g id="node33" class="node">
<title>5499</title>
<ellipse fill="white" stroke="black" cx="219.99" cy="-293.97" rx="28.98" ry="28.98"/>
<text text-anchor="middle" x="219.99" y="-291.77" font-family="Times,serif" font-size="9.00">5499</text>
</g>
<!-- 4981&#45;&gt;5499 -->
<g id="edge20" class="edge">
<title>4981&#45;&gt;5499</title>
<path fill="none" stroke="green" stroke-width="0.25" d="M200.24,-359.85C202.95,-350.96 206,-340.93 208.88,-331.47"/>
<polygon fill="green" stroke="green" stroke-width="0.25" points="212.24,-332.46 211.8,-321.88 205.54,-330.42 212.24,-332.46"/>
</g>
<!-- 5014 -->
<g id="node28" class="node">
<title>5014</title>
<ellipse fill="white" stroke="black" cx="740.99" cy="-387.95" rx="28.98" ry="28.98"/>
<text text-anchor="middle" x="740.99" y="-385.75" font-family="Times,serif" font-size="9.00">5014</text>
</g>
<!-- 5014&#45;&gt;6 -->
<g id="edge16" class="edge">
<title>5014&#45;&gt;6</title>
<path fill="none" stroke="red" stroke-width="0.25" d="M740.99,-358.85C740.99,-346.64 740.99,-332.43 740.99,-320.51"/>
<polygon fill="red" stroke="red" stroke-width="0.25" points="744.49,-320.34 740.99,-310.34 737.49,-320.34 744.49,-320.34"/>
</g>
<!-- 5225 -->
<g id="node30" class="node">
<title>5225</title>
<ellipse fill="white" stroke="black" cx="57.99" cy="-106" rx="28.98" ry="28.98"/>
<text text-anchor="middle" x="57.99" y="-103.8" font-family="Times,serif" font-size="9.00">5225</text>
</g>
<!-- 5073&#45;&gt;5225 -->
<g id="edge10" class="edge">
<title>5073&#45;&gt;5225</title>
<path fill="none" stroke="red" stroke-width="0.38" d="M37.54,-171.89C40.34,-163 43.5,-152.97 46.48,-143.5"/>
<polygon fill="red" stroke="red" stroke-width="0.38" points="49.84,-144.5 49.51,-133.91 43.16,-142.4 49.84,-144.5"/>
</g>
<!-- 5225&#45;&gt;11 -->
<g id="edge17" class="edge">
<title>5225&#45;&gt;11</title>
<path fill="none" stroke="green" stroke-width="0.28" d="M80.99,-88.31C100.51,-74.13 128.47,-53.83 148.43,-39.34"/>
<polygon fill="green" stroke="green" stroke-width="0.28" points="150.68,-42.03 156.71,-33.33 146.56,-36.37 150.68,-42.03"/>
</g>
<!-- 5284&#45;&gt;4859 -->
<g id="edge13" class="edge">
<title>5284&#45;&gt;4859</title>
<path fill="none" stroke="red" stroke-width="0.46" d="M162.38,-170.89C162.21,-162.85 162.01,-153.95 161.83,-145.41"/>
<polygon fill="red" stroke="red" stroke-width="0.46" points="165.32,-145.17 161.61,-135.25 158.32,-145.32 165.32,-145.17"/>
</g>
<!-- 5325&#45;&gt;4142 -->
<g id="edge15" class="edge">
<title>5325&#45;&gt;4142</title>
<path fill="none" stroke="red" stroke-width="0.17" d="M388.38,-179.03C374.81,-165.89 356.87,-148.52 342.02,-134.14"/>
<polygon fill="red" stroke="red" stroke-width="0.17" points="344.18,-131.37 334.56,-126.92 339.31,-136.39 344.18,-131.37"/>
</g>
<!-- 5499&#45;&gt;5284 -->
<g id="edge21" class="edge">
<title>5499&#45;&gt;5284</title>
<path fill="none" stroke="red" stroke-width="0.29" d="M205.02,-268.8C198.34,-258.03 190.37,-245.17 183.18,-233.57"/>
<polygon fill="red" stroke="red" stroke-width="0.29" points="186.11,-231.65 177.87,-224.99 180.16,-235.34 186.11,-231.65"/>
</g>
</g>
</svg>
