<?xml version="1.0" encoding="utf-8" standalone="no"?>
<!DOCTYPE svg PUBLIC "-//W3C//DTD SVG 1.1//EN"
  "http://www.w3.org/Graphics/SVG/1.1/DTD/svg11.dtd">
<svg xmlns:xlink="http://www.w3.org/1999/xlink" width="460.8pt" height="345.6pt" viewBox="0 0 460.8 345.6" xmlns="http://www.w3.org/2000/svg" version="1.1">
 <metadata>
  <rdf:RDF xmlns:dc="http://purl.org/dc/elements/1.1/" xmlns:cc="http://creativecommons.org/ns#" xmlns:rdf="http://www.w3.org/1999/02/22-rdf-syntax-ns#">
   <cc:Work>
    <dc:type rdf:resource="http://purl.org/dc/dcmitype/StillImage"/>
    <dc:date>2023-02-02T18:05:30.063508</dc:date>
    <dc:format>image/svg+xml</dc:format>
    <dc:creator>
     <cc:Agent>
      <dc:title>Matplotlib v3.5.2, https://matplotlib.org/</dc:title>
     </cc:Agent>
    </dc:creator>
   </cc:Work>
  </rdf:RDF>
 </metadata>
 <defs>
  <style type="text/css">*{stroke-linejoin: round; stroke-linecap: butt}</style>
 </defs>
 <g id="figure_1">
  <g id="patch_1">
   <path d="M 0 345.6 
L 460.8 345.6 
L 460.8 0 
L 0 0 
z
" style="fill: #ffffff"/>
  </g>
  <g id="axes_1">
   <g id="patch_2">
    <path d="M 57.6 307.584 
L 414.72 307.584 
L 414.72 41.472 
L 57.6 41.472 
z
" style="fill: #ffffff"/>
   </g>
   <g id="matplotlib.axis_1">
    <g id="xtick_1">
     <g id="line2d_1">
      <path d="M 73.832727 307.584 
L 73.832727 41.472 
" clip-path="url(#pf0f432c116)" style="fill: none; stroke: #b0b0b0; stroke-width: 0.8; stroke-linecap: square"/>
     </g>
     <g id="line2d_2">
      <defs>
       <path id="m3f3ad771b3" d="M 0 0 
L 0 3.5 
" style="stroke: #000000; stroke-width: 0.8"/>
      </defs>
      <g>
       <use xlink:href="#m3f3ad771b3" x="73.832727" y="307.584" style="stroke: #000000; stroke-width: 0.8"/>
      </g>
     </g>
     <g id="text_1">
      <!-- 0 -->
      <g transform="translate(70.651477 322.182437)scale(0.1 -0.1)">
       <defs>
        <path id="DejaVuSans-30" d="M 2034 4250 
Q 1547 4250 1301 3770 
Q 1056 3291 1056 2328 
Q 1056 1369 1301 889 
Q 1547 409 2034 409 
Q 2525 409 2770 889 
Q 3016 1369 3016 2328 
Q 3016 3291 2770 3770 
Q 2525 4250 2034 4250 
z
M 2034 4750 
Q 2819 4750 3233 4129 
Q 3647 3509 3647 2328 
Q 3647 1150 3233 529 
Q 2819 -91 2034 -91 
Q 1250 -91 836 529 
Q 422 1150 422 2328 
Q 422 3509 836 4129 
Q 1250 4750 2034 4750 
z
" transform="scale(0.015625)"/>
       </defs>
       <use xlink:href="#DejaVuSans-30"/>
      </g>
     </g>
    </g>
    <g id="xtick_2">
     <g id="line2d_3">
      <path d="M 128.122785 307.584 
L 128.122785 41.472 
" clip-path="url(#pf0f432c116)" style="fill: none; stroke: #b0b0b0; stroke-width: 0.8; stroke-linecap: square"/>
     </g>
     <g id="line2d_4">
      <g>
       <use xlink:href="#m3f3ad771b3" x="128.122785" y="307.584" style="stroke: #000000; stroke-width: 0.8"/>
      </g>
     </g>
     <g id="text_2">
      <!-- 50 -->
      <g transform="translate(121.760285 322.182437)scale(0.1 -0.1)">
       <defs>
        <path id="DejaVuSans-35" d="M 691 4666 
L 3169 4666 
L 3169 4134 
L 1269 4134 
L 1269 2991 
Q 1406 3038 1543 3061 
Q 1681 3084 1819 3084 
Q 2600 3084 3056 2656 
Q 3513 2228 3513 1497 
Q 3513 744 3044 326 
Q 2575 -91 1722 -91 
Q 1428 -91 1123 -41 
Q 819 9 494 109 
L 494 744 
Q 775 591 1075 516 
Q 1375 441 1709 441 
Q 2250 441 2565 725 
Q 2881 1009 2881 1497 
Q 2881 1984 2565 2268 
Q 2250 2553 1709 2553 
Q 1456 2553 1204 2497 
Q 953 2441 691 2322 
L 691 4666 
z
" transform="scale(0.015625)"/>
       </defs>
       <use xlink:href="#DejaVuSans-35"/>
       <use xlink:href="#DejaVuSans-30" x="63.623047"/>
      </g>
     </g>
    </g>
    <g id="xtick_3">
     <g id="line2d_5">
      <path d="M 182.412843 307.584 
L 182.412843 41.472 
" clip-path="url(#pf0f432c116)" style="fill: none; stroke: #b0b0b0; stroke-width: 0.8; stroke-linecap: square"/>
     </g>
     <g id="line2d_6">
      <g>
       <use xlink:href="#m3f3ad771b3" x="182.412843" y="307.584" style="stroke: #000000; stroke-width: 0.8"/>
      </g>
     </g>
     <g id="text_3">
      <!-- 100 -->
      <g transform="translate(172.869093 322.182437)scale(0.1 -0.1)">
       <defs>
        <path id="DejaVuSans-31" d="M 794 531 
L 1825 531 
L 1825 4091 
L 703 3866 
L 703 4441 
L 1819 4666 
L 2450 4666 
L 2450 531 
L 3481 531 
L 3481 0 
L 794 0 
L 794 531 
z
" transform="scale(0.015625)"/>
       </defs>
       <use xlink:href="#DejaVuSans-31"/>
       <use xlink:href="#DejaVuSans-30" x="63.623047"/>
       <use xlink:href="#DejaVuSans-30" x="127.246094"/>
      </g>
     </g>
    </g>
    <g id="xtick_4">
     <g id="line2d_7">
      <path d="M 236.702901 307.584 
L 236.702901 41.472 
" clip-path="url(#pf0f432c116)" style="fill: none; stroke: #b0b0b0; stroke-width: 0.8; stroke-linecap: square"/>
     </g>
     <g id="line2d_8">
      <g>
       <use xlink:href="#m3f3ad771b3" x="236.702901" y="307.584" style="stroke: #000000; stroke-width: 0.8"/>
      </g>
     </g>
     <g id="text_4">
      <!-- 150 -->
      <g transform="translate(227.159151 322.182437)scale(0.1 -0.1)">
       <use xlink:href="#DejaVuSans-31"/>
       <use xlink:href="#DejaVuSans-35" x="63.623047"/>
       <use xlink:href="#DejaVuSans-30" x="127.246094"/>
      </g>
     </g>
    </g>
    <g id="xtick_5">
     <g id="line2d_9">
      <path d="M 290.992958 307.584 
L 290.992958 41.472 
" clip-path="url(#pf0f432c116)" style="fill: none; stroke: #b0b0b0; stroke-width: 0.8; stroke-linecap: square"/>
     </g>
     <g id="line2d_10">
      <g>
       <use xlink:href="#m3f3ad771b3" x="290.992958" y="307.584" style="stroke: #000000; stroke-width: 0.8"/>
      </g>
     </g>
     <g id="text_5">
      <!-- 200 -->
      <g transform="translate(281.449208 322.182437)scale(0.1 -0.1)">
       <defs>
        <path id="DejaVuSans-32" d="M 1228 531 
L 3431 531 
L 3431 0 
L 469 0 
L 469 531 
Q 828 903 1448 1529 
Q 2069 2156 2228 2338 
Q 2531 2678 2651 2914 
Q 2772 3150 2772 3378 
Q 2772 3750 2511 3984 
Q 2250 4219 1831 4219 
Q 1534 4219 1204 4116 
Q 875 4013 500 3803 
L 500 4441 
Q 881 4594 1212 4672 
Q 1544 4750 1819 4750 
Q 2544 4750 2975 4387 
Q 3406 4025 3406 3419 
Q 3406 3131 3298 2873 
Q 3191 2616 2906 2266 
Q 2828 2175 2409 1742 
Q 1991 1309 1228 531 
z
" transform="scale(0.015625)"/>
       </defs>
       <use xlink:href="#DejaVuSans-32"/>
       <use xlink:href="#DejaVuSans-30" x="63.623047"/>
       <use xlink:href="#DejaVuSans-30" x="127.246094"/>
      </g>
     </g>
    </g>
    <g id="xtick_6">
     <g id="line2d_11">
      <path d="M 345.283016 307.584 
L 345.283016 41.472 
" clip-path="url(#pf0f432c116)" style="fill: none; stroke: #b0b0b0; stroke-width: 0.8; stroke-linecap: square"/>
     </g>
     <g id="line2d_12">
      <g>
       <use xlink:href="#m3f3ad771b3" x="345.283016" y="307.584" style="stroke: #000000; stroke-width: 0.8"/>
      </g>
     </g>
     <g id="text_6">
      <!-- 250 -->
      <g transform="translate(335.739266 322.182437)scale(0.1 -0.1)">
       <use xlink:href="#DejaVuSans-32"/>
       <use xlink:href="#DejaVuSans-35" x="63.623047"/>
       <use xlink:href="#DejaVuSans-30" x="127.246094"/>
      </g>
     </g>
    </g>
    <g id="xtick_7">
     <g id="line2d_13">
      <path d="M 399.573074 307.584 
L 399.573074 41.472 
" clip-path="url(#pf0f432c116)" style="fill: none; stroke: #b0b0b0; stroke-width: 0.8; stroke-linecap: square"/>
     </g>
     <g id="line2d_14">
      <g>
       <use xlink:href="#m3f3ad771b3" x="399.573074" y="307.584" style="stroke: #000000; stroke-width: 0.8"/>
      </g>
     </g>
     <g id="text_7">
      <!-- 300 -->
      <g transform="translate(390.029324 322.182437)scale(0.1 -0.1)">
       <defs>
        <path id="DejaVuSans-33" d="M 2597 2516 
Q 3050 2419 3304 2112 
Q 3559 1806 3559 1356 
Q 3559 666 3084 287 
Q 2609 -91 1734 -91 
Q 1441 -91 1130 -33 
Q 819 25 488 141 
L 488 750 
Q 750 597 1062 519 
Q 1375 441 1716 441 
Q 2309 441 2620 675 
Q 2931 909 2931 1356 
Q 2931 1769 2642 2001 
Q 2353 2234 1838 2234 
L 1294 2234 
L 1294 2753 
L 1863 2753 
Q 2328 2753 2575 2939 
Q 2822 3125 2822 3475 
Q 2822 3834 2567 4026 
Q 2313 4219 1838 4219 
Q 1578 4219 1281 4162 
Q 984 4106 628 3988 
L 628 4550 
Q 988 4650 1302 4700 
Q 1616 4750 1894 4750 
Q 2613 4750 3031 4423 
Q 3450 4097 3450 3541 
Q 3450 3153 3228 2886 
Q 3006 2619 2597 2516 
z
" transform="scale(0.015625)"/>
       </defs>
       <use xlink:href="#DejaVuSans-33"/>
       <use xlink:href="#DejaVuSans-30" x="63.623047"/>
       <use xlink:href="#DejaVuSans-30" x="127.246094"/>
      </g>
     </g>
    </g>
    <g id="text_8">
     <!-- Generations -->
     <g transform="translate(205.662344 335.860562)scale(0.1 -0.1)">
      <defs>
       <path id="DejaVuSans-47" d="M 3809 666 
L 3809 1919 
L 2778 1919 
L 2778 2438 
L 4434 2438 
L 4434 434 
Q 4069 175 3628 42 
Q 3188 -91 2688 -91 
Q 1594 -91 976 548 
Q 359 1188 359 2328 
Q 359 3472 976 4111 
Q 1594 4750 2688 4750 
Q 3144 4750 3555 4637 
Q 3966 4525 4313 4306 
L 4313 3634 
Q 3963 3931 3569 4081 
Q 3175 4231 2741 4231 
Q 1884 4231 1454 3753 
Q 1025 3275 1025 2328 
Q 1025 1384 1454 906 
Q 1884 428 2741 428 
Q 3075 428 3337 486 
Q 3600 544 3809 666 
z
" transform="scale(0.015625)"/>
       <path id="DejaVuSans-65" d="M 3597 1894 
L 3597 1613 
L 953 1613 
Q 991 1019 1311 708 
Q 1631 397 2203 397 
Q 2534 397 2845 478 
Q 3156 559 3463 722 
L 3463 178 
Q 3153 47 2828 -22 
Q 2503 -91 2169 -91 
Q 1331 -91 842 396 
Q 353 884 353 1716 
Q 353 2575 817 3079 
Q 1281 3584 2069 3584 
Q 2775 3584 3186 3129 
Q 3597 2675 3597 1894 
z
M 3022 2063 
Q 3016 2534 2758 2815 
Q 2500 3097 2075 3097 
Q 1594 3097 1305 2825 
Q 1016 2553 972 2059 
L 3022 2063 
z
" transform="scale(0.015625)"/>
       <path id="DejaVuSans-6e" d="M 3513 2113 
L 3513 0 
L 2938 0 
L 2938 2094 
Q 2938 2591 2744 2837 
Q 2550 3084 2163 3084 
Q 1697 3084 1428 2787 
Q 1159 2491 1159 1978 
L 1159 0 
L 581 0 
L 581 3500 
L 1159 3500 
L 1159 2956 
Q 1366 3272 1645 3428 
Q 1925 3584 2291 3584 
Q 2894 3584 3203 3211 
Q 3513 2838 3513 2113 
z
" transform="scale(0.015625)"/>
       <path id="DejaVuSans-72" d="M 2631 2963 
Q 2534 3019 2420 3045 
Q 2306 3072 2169 3072 
Q 1681 3072 1420 2755 
Q 1159 2438 1159 1844 
L 1159 0 
L 581 0 
L 581 3500 
L 1159 3500 
L 1159 2956 
Q 1341 3275 1631 3429 
Q 1922 3584 2338 3584 
Q 2397 3584 2469 3576 
Q 2541 3569 2628 3553 
L 2631 2963 
z
" transform="scale(0.015625)"/>
       <path id="DejaVuSans-61" d="M 2194 1759 
Q 1497 1759 1228 1600 
Q 959 1441 959 1056 
Q 959 750 1161 570 
Q 1363 391 1709 391 
Q 2188 391 2477 730 
Q 2766 1069 2766 1631 
L 2766 1759 
L 2194 1759 
z
M 3341 1997 
L 3341 0 
L 2766 0 
L 2766 531 
Q 2569 213 2275 61 
Q 1981 -91 1556 -91 
Q 1019 -91 701 211 
Q 384 513 384 1019 
Q 384 1609 779 1909 
Q 1175 2209 1959 2209 
L 2766 2209 
L 2766 2266 
Q 2766 2663 2505 2880 
Q 2244 3097 1772 3097 
Q 1472 3097 1187 3025 
Q 903 2953 641 2809 
L 641 3341 
Q 956 3463 1253 3523 
Q 1550 3584 1831 3584 
Q 2591 3584 2966 3190 
Q 3341 2797 3341 1997 
z
" transform="scale(0.015625)"/>
       <path id="DejaVuSans-74" d="M 1172 4494 
L 1172 3500 
L 2356 3500 
L 2356 3053 
L 1172 3053 
L 1172 1153 
Q 1172 725 1289 603 
Q 1406 481 1766 481 
L 2356 481 
L 2356 0 
L 1766 0 
Q 1100 0 847 248 
Q 594 497 594 1153 
L 594 3053 
L 172 3053 
L 172 3500 
L 594 3500 
L 594 4494 
L 1172 4494 
z
" transform="scale(0.015625)"/>
       <path id="DejaVuSans-69" d="M 603 3500 
L 1178 3500 
L 1178 0 
L 603 0 
L 603 3500 
z
M 603 4863 
L 1178 4863 
L 1178 4134 
L 603 4134 
L 603 4863 
z
" transform="scale(0.015625)"/>
       <path id="DejaVuSans-6f" d="M 1959 3097 
Q 1497 3097 1228 2736 
Q 959 2375 959 1747 
Q 959 1119 1226 758 
Q 1494 397 1959 397 
Q 2419 397 2687 759 
Q 2956 1122 2956 1747 
Q 2956 2369 2687 2733 
Q 2419 3097 1959 3097 
z
M 1959 3584 
Q 2709 3584 3137 3096 
Q 3566 2609 3566 1747 
Q 3566 888 3137 398 
Q 2709 -91 1959 -91 
Q 1206 -91 779 398 
Q 353 888 353 1747 
Q 353 2609 779 3096 
Q 1206 3584 1959 3584 
z
" transform="scale(0.015625)"/>
       <path id="DejaVuSans-73" d="M 2834 3397 
L 2834 2853 
Q 2591 2978 2328 3040 
Q 2066 3103 1784 3103 
Q 1356 3103 1142 2972 
Q 928 2841 928 2578 
Q 928 2378 1081 2264 
Q 1234 2150 1697 2047 
L 1894 2003 
Q 2506 1872 2764 1633 
Q 3022 1394 3022 966 
Q 3022 478 2636 193 
Q 2250 -91 1575 -91 
Q 1294 -91 989 -36 
Q 684 19 347 128 
L 347 722 
Q 666 556 975 473 
Q 1284 391 1588 391 
Q 1994 391 2212 530 
Q 2431 669 2431 922 
Q 2431 1156 2273 1281 
Q 2116 1406 1581 1522 
L 1381 1569 
Q 847 1681 609 1914 
Q 372 2147 372 2553 
Q 372 3047 722 3315 
Q 1072 3584 1716 3584 
Q 2034 3584 2315 3537 
Q 2597 3491 2834 3397 
z
" transform="scale(0.015625)"/>
      </defs>
      <use xlink:href="#DejaVuSans-47"/>
      <use xlink:href="#DejaVuSans-65" x="77.490234"/>
      <use xlink:href="#DejaVuSans-6e" x="139.013672"/>
      <use xlink:href="#DejaVuSans-65" x="202.392578"/>
      <use xlink:href="#DejaVuSans-72" x="263.916016"/>
      <use xlink:href="#DejaVuSans-61" x="305.029297"/>
      <use xlink:href="#DejaVuSans-74" x="366.308594"/>
      <use xlink:href="#DejaVuSans-69" x="405.517578"/>
      <use xlink:href="#DejaVuSans-6f" x="433.300781"/>
      <use xlink:href="#DejaVuSans-6e" x="494.482422"/>
      <use xlink:href="#DejaVuSans-73" x="557.861328"/>
     </g>
    </g>
   </g>
   <g id="matplotlib.axis_2">
    <g id="ytick_1">
     <g id="line2d_15">
      <path d="M 57.6 296.598176 
L 414.72 296.598176 
" clip-path="url(#pf0f432c116)" style="fill: none; stroke: #b0b0b0; stroke-width: 0.8; stroke-linecap: square"/>
     </g>
     <g id="line2d_16">
      <defs>
       <path id="mff57533905" d="M 0 0 
L -3.5 0 
" style="stroke: #000000; stroke-width: 0.8"/>
      </defs>
      <g>
       <use xlink:href="#mff57533905" x="57.6" y="296.598176" style="stroke: #000000; stroke-width: 0.8"/>
      </g>
     </g>
     <g id="text_9">
      <!-- 0 -->
      <g transform="translate(44.2375 300.397395)scale(0.1 -0.1)">
       <use xlink:href="#DejaVuSans-30"/>
      </g>
     </g>
    </g>
    <g id="ytick_2">
     <g id="line2d_17">
      <path d="M 57.6 251.496785 
L 414.72 251.496785 
" clip-path="url(#pf0f432c116)" style="fill: none; stroke: #b0b0b0; stroke-width: 0.8; stroke-linecap: square"/>
     </g>
     <g id="line2d_18">
      <g>
       <use xlink:href="#mff57533905" x="57.6" y="251.496785" style="stroke: #000000; stroke-width: 0.8"/>
      </g>
     </g>
     <g id="text_10">
      <!-- 200 -->
      <g transform="translate(31.5125 255.296004)scale(0.1 -0.1)">
       <use xlink:href="#DejaVuSans-32"/>
       <use xlink:href="#DejaVuSans-30" x="63.623047"/>
       <use xlink:href="#DejaVuSans-30" x="127.246094"/>
      </g>
     </g>
    </g>
    <g id="ytick_3">
     <g id="line2d_19">
      <path d="M 57.6 206.395394 
L 414.72 206.395394 
" clip-path="url(#pf0f432c116)" style="fill: none; stroke: #b0b0b0; stroke-width: 0.8; stroke-linecap: square"/>
     </g>
     <g id="line2d_20">
      <g>
       <use xlink:href="#mff57533905" x="57.6" y="206.395394" style="stroke: #000000; stroke-width: 0.8"/>
      </g>
     </g>
     <g id="text_11">
      <!-- 400 -->
      <g transform="translate(31.5125 210.194613)scale(0.1 -0.1)">
       <defs>
        <path id="DejaVuSans-34" d="M 2419 4116 
L 825 1625 
L 2419 1625 
L 2419 4116 
z
M 2253 4666 
L 3047 4666 
L 3047 1625 
L 3713 1625 
L 3713 1100 
L 3047 1100 
L 3047 0 
L 2419 0 
L 2419 1100 
L 313 1100 
L 313 1709 
L 2253 4666 
z
" transform="scale(0.015625)"/>
       </defs>
       <use xlink:href="#DejaVuSans-34"/>
       <use xlink:href="#DejaVuSans-30" x="63.623047"/>
       <use xlink:href="#DejaVuSans-30" x="127.246094"/>
      </g>
     </g>
    </g>
    <g id="ytick_4">
     <g id="line2d_21">
      <path d="M 57.6 161.294003 
L 414.72 161.294003 
" clip-path="url(#pf0f432c116)" style="fill: none; stroke: #b0b0b0; stroke-width: 0.8; stroke-linecap: square"/>
     </g>
     <g id="line2d_22">
      <g>
       <use xlink:href="#mff57533905" x="57.6" y="161.294003" style="stroke: #000000; stroke-width: 0.8"/>
      </g>
     </g>
     <g id="text_12">
      <!-- 600 -->
      <g transform="translate(31.5125 165.093222)scale(0.1 -0.1)">
       <defs>
        <path id="DejaVuSans-36" d="M 2113 2584 
Q 1688 2584 1439 2293 
Q 1191 2003 1191 1497 
Q 1191 994 1439 701 
Q 1688 409 2113 409 
Q 2538 409 2786 701 
Q 3034 994 3034 1497 
Q 3034 2003 2786 2293 
Q 2538 2584 2113 2584 
z
M 3366 4563 
L 3366 3988 
Q 3128 4100 2886 4159 
Q 2644 4219 2406 4219 
Q 1781 4219 1451 3797 
Q 1122 3375 1075 2522 
Q 1259 2794 1537 2939 
Q 1816 3084 2150 3084 
Q 2853 3084 3261 2657 
Q 3669 2231 3669 1497 
Q 3669 778 3244 343 
Q 2819 -91 2113 -91 
Q 1303 -91 875 529 
Q 447 1150 447 2328 
Q 447 3434 972 4092 
Q 1497 4750 2381 4750 
Q 2619 4750 2861 4703 
Q 3103 4656 3366 4563 
z
" transform="scale(0.015625)"/>
       </defs>
       <use xlink:href="#DejaVuSans-36"/>
       <use xlink:href="#DejaVuSans-30" x="63.623047"/>
       <use xlink:href="#DejaVuSans-30" x="127.246094"/>
      </g>
     </g>
    </g>
    <g id="ytick_5">
     <g id="line2d_23">
      <path d="M 57.6 116.192612 
L 414.72 116.192612 
" clip-path="url(#pf0f432c116)" style="fill: none; stroke: #b0b0b0; stroke-width: 0.8; stroke-linecap: square"/>
     </g>
     <g id="line2d_24">
      <g>
       <use xlink:href="#mff57533905" x="57.6" y="116.192612" style="stroke: #000000; stroke-width: 0.8"/>
      </g>
     </g>
     <g id="text_13">
      <!-- 800 -->
      <g transform="translate(31.5125 119.991831)scale(0.1 -0.1)">
       <defs>
        <path id="DejaVuSans-38" d="M 2034 2216 
Q 1584 2216 1326 1975 
Q 1069 1734 1069 1313 
Q 1069 891 1326 650 
Q 1584 409 2034 409 
Q 2484 409 2743 651 
Q 3003 894 3003 1313 
Q 3003 1734 2745 1975 
Q 2488 2216 2034 2216 
z
M 1403 2484 
Q 997 2584 770 2862 
Q 544 3141 544 3541 
Q 544 4100 942 4425 
Q 1341 4750 2034 4750 
Q 2731 4750 3128 4425 
Q 3525 4100 3525 3541 
Q 3525 3141 3298 2862 
Q 3072 2584 2669 2484 
Q 3125 2378 3379 2068 
Q 3634 1759 3634 1313 
Q 3634 634 3220 271 
Q 2806 -91 2034 -91 
Q 1263 -91 848 271 
Q 434 634 434 1313 
Q 434 1759 690 2068 
Q 947 2378 1403 2484 
z
M 1172 3481 
Q 1172 3119 1398 2916 
Q 1625 2713 2034 2713 
Q 2441 2713 2670 2916 
Q 2900 3119 2900 3481 
Q 2900 3844 2670 4047 
Q 2441 4250 2034 4250 
Q 1625 4250 1398 4047 
Q 1172 3844 1172 3481 
z
" transform="scale(0.015625)"/>
       </defs>
       <use xlink:href="#DejaVuSans-38"/>
       <use xlink:href="#DejaVuSans-30" x="63.623047"/>
       <use xlink:href="#DejaVuSans-30" x="127.246094"/>
      </g>
     </g>
    </g>
    <g id="ytick_6">
     <g id="line2d_25">
      <path d="M 57.6 71.091221 
L 414.72 71.091221 
" clip-path="url(#pf0f432c116)" style="fill: none; stroke: #b0b0b0; stroke-width: 0.8; stroke-linecap: square"/>
     </g>
     <g id="line2d_26">
      <g>
       <use xlink:href="#mff57533905" x="57.6" y="71.091221" style="stroke: #000000; stroke-width: 0.8"/>
      </g>
     </g>
     <g id="text_14">
      <!-- 1000 -->
      <g transform="translate(25.15 74.89044)scale(0.1 -0.1)">
       <use xlink:href="#DejaVuSans-31"/>
       <use xlink:href="#DejaVuSans-30" x="63.623047"/>
       <use xlink:href="#DejaVuSans-30" x="127.246094"/>
       <use xlink:href="#DejaVuSans-30" x="190.869141"/>
      </g>
     </g>
    </g>
    <g id="text_15">
     <!-- Fitness -->
     <g transform="translate(19.070312 191.845187)rotate(-90)scale(0.1 -0.1)">
      <defs>
       <path id="DejaVuSans-46" d="M 628 4666 
L 3309 4666 
L 3309 4134 
L 1259 4134 
L 1259 2759 
L 3109 2759 
L 3109 2228 
L 1259 2228 
L 1259 0 
L 628 0 
L 628 4666 
z
" transform="scale(0.015625)"/>
      </defs>
      <use xlink:href="#DejaVuSans-46"/>
      <use xlink:href="#DejaVuSans-69" x="50.269531"/>
      <use xlink:href="#DejaVuSans-74" x="78.052734"/>
      <use xlink:href="#DejaVuSans-6e" x="117.261719"/>
      <use xlink:href="#DejaVuSans-65" x="180.640625"/>
      <use xlink:href="#DejaVuSans-73" x="242.164062"/>
      <use xlink:href="#DejaVuSans-73" x="294.263672"/>
     </g>
    </g>
   </g>
   <g id="line2d_27">
    <path d="M 73.832727 295.488 
L 74.918528 295.085905 
L 76.00433 294.867562 
L 78.175932 294.220894 
L 80.347534 293.683762 
L 81.433335 292.98968 
L 82.519137 292.518941 
L 83.604938 292.361271 
L 84.690739 291.91235 
L 85.77654 291.24951 
L 86.862341 290.936641 
L 87.948142 290.357291 
L 89.033943 290.39975 
L 90.119745 289.563128 
L 91.205546 289.393397 
L 92.291347 288.204821 
L 93.377148 288.101483 
L 94.462949 287.256912 
L 95.54875 286.683119 
L 96.634552 284.532078 
L 97.720353 284.862052 
L 98.806154 283.040657 
L 99.891955 282.186345 
L 100.977756 282.258462 
L 103.149358 279.673406 
L 104.23516 280.147517 
L 105.320961 280.212415 
L 106.406762 278.7187 
L 107.492563 277.702316 
L 108.578364 276.058163 
L 109.664165 276.188311 
L 110.749967 275.56176 
L 111.835768 274.342707 
L 112.921569 273.374861 
L 114.00737 272.745099 
L 115.093171 271.585407 
L 116.178972 270.671458 
L 117.264773 270.080678 
L 118.350575 270.479492 
L 119.436376 269.13365 
L 120.522177 269.076611 
L 121.607978 267.873733 
L 122.693779 267.273507 
L 124.865382 266.478364 
L 125.951183 266.274371 
L 127.036984 264.439702 
L 128.122785 264.58959 
L 129.208586 263.948639 
L 130.294387 263.554127 
L 131.380189 261.67688 
L 132.46599 261.474328 
L 133.551791 260.917126 
L 134.637592 261.795654 
L 135.723393 260.388509 
L 136.809194 257.67536 
L 137.894995 257.979527 
L 138.980797 258.575681 
L 140.066598 257.707171 
L 141.152399 257.654881 
L 142.2382 257.383847 
L 143.324001 257.614811 
L 145.495604 253.555321 
L 146.581405 255.143521 
L 147.667206 252.586274 
L 148.753007 252.232812 
L 149.838808 251.677399 
L 150.924609 250.974788 
L 152.01041 252.119522 
L 153.096212 249.594032 
L 154.182013 249.805873 
L 155.267814 248.85263 
L 156.353615 247.286439 
L 157.439416 247.72159 
L 158.525217 246.44917 
L 159.611019 246.096335 
L 160.69682 246.428876 
L 162.868422 243.026275 
L 163.954223 242.815022 
L 165.040024 242.000297 
L 166.125825 241.769539 
L 167.211627 240.048773 
L 168.297428 240.081869 
L 169.383229 239.74106 
L 170.46903 241.013282 
L 171.554831 240.459446 
L 172.640632 238.78898 
L 173.726434 237.801958 
L 174.812235 237.289465 
L 175.898036 234.730398 
L 176.983837 236.402144 
L 178.069638 234.764711 
L 180.24124 234.254448 
L 181.327042 229.917774 
L 182.412843 230.958718 
L 183.498644 229.544295 
L 184.584445 230.883207 
L 185.670246 228.476893 
L 186.756047 229.031943 
L 187.841849 226.93341 
L 188.92765 226.966169 
L 190.013451 225.058531 
L 191.099252 224.588368 
L 192.185053 225.243012 
L 193.270854 225.657659 
L 194.356656 222.704347 
L 195.442457 220.982272 
L 197.614059 223.970221 
L 198.69986 219.990857 
L 199.785661 220.695461 
L 200.871462 220.462149 
L 201.957264 218.79369 
L 203.043065 218.632953 
L 204.128866 217.521747 
L 205.214667 215.682151 
L 206.300468 215.631919 
L 207.386269 210.91684 
L 208.472071 214.193975 
L 209.557872 212.316611 
L 210.643673 211.625901 
L 212.815275 208.497215 
L 213.901076 208.886745 
L 214.986877 208.275883 
L 216.072679 207.499864 
L 217.15848 208.098382 
L 218.244281 207.521723 
L 219.330082 206.752265 
L 220.415883 204.710953 
L 221.501684 205.059319 
L 222.587486 205.245146 
L 223.673287 203.868004 
L 224.759088 203.764824 
L 225.844889 201.664981 
L 226.93069 201.404587 
L 228.016491 200.436456 
L 229.102292 199.274498 
L 230.188094 199.955688 
L 231.273895 198.803372 
L 232.359696 196.648538 
L 233.445497 196.76414 
L 234.531298 196.673013 
L 235.617099 194.981105 
L 236.702901 195.9615 
L 237.788702 192.438503 
L 238.874503 192.304177 
L 239.960304 194.810279 
L 241.046105 193.613072 
L 242.131906 190.891846 
L 243.217708 190.305125 
L 244.303509 190.128862 
L 245.38931 187.104766 
L 246.475111 187.683569 
L 247.560912 188.423117 
L 248.646713 187.559076 
L 249.732514 188.79663 
L 250.818316 185.570947 
L 251.904117 185.173148 
L 252.989918 183.090492 
L 254.075719 184.394731 
L 255.16152 184.129788 
L 256.247321 181.744287 
L 257.333123 181.795683 
L 258.418924 182.54844 
L 259.504725 179.960621 
L 260.590526 179.687774 
L 261.676327 176.89824 
L 262.762128 178.381557 
L 263.847929 176.089305 
L 264.933731 177.046377 
L 266.019532 175.569268 
L 267.105333 174.974382 
L 268.191134 174.751452 
L 269.276935 174.277567 
L 270.362736 173.099386 
L 271.448538 171.635863 
L 272.534339 171.832183 
L 273.62014 170.20537 
L 274.705941 170.633098 
L 275.791742 168.117374 
L 276.877543 168.493806 
L 277.963344 170.171927 
L 279.049146 167.529427 
L 280.134947 166.720816 
L 281.220748 166.124359 
L 282.306549 166.180311 
L 283.39235 164.989557 
L 284.478151 164.82948 
L 285.563953 163.180339 
L 286.649754 164.495531 
L 287.735555 160.768534 
L 288.821356 161.790959 
L 289.907157 160.014599 
L 290.992958 160.970502 
L 292.07876 160.147867 
L 293.164561 157.973858 
L 294.250362 159.490109 
L 295.336163 157.687267 
L 296.421964 159.152817 
L 297.507765 155.176168 
L 298.593566 155.947124 
L 299.679368 154.769974 
L 300.765169 154.461613 
L 301.85097 153.368003 
L 302.936771 152.83361 
L 304.022572 150.622628 
L 305.108373 149.718185 
L 306.194175 149.40371 
L 307.279976 148.783521 
L 308.365777 148.354728 
L 309.451578 148.213624 
L 310.537379 147.457138 
L 311.62318 148.067888 
L 312.708981 146.269149 
L 313.794783 143.997658 
L 314.880584 146.488098 
L 315.966385 143.98526 
L 317.052186 143.578943 
L 318.137987 142.925798 
L 319.223788 142.863063 
L 320.30959 143.247859 
L 322.481192 140.809597 
L 323.566993 138.592788 
L 325.738595 138.717273 
L 326.824396 137.612189 
L 328.995999 134.721844 
L 330.0818 134.524007 
L 331.167601 135.609699 
L 332.253402 134.351648 
L 333.339203 133.943433 
L 335.510806 129.134953 
L 336.596607 131.531829 
L 337.682408 130.262591 
L 338.768209 127.791348 
L 339.85401 126.483928 
L 340.939811 127.707924 
L 342.025613 124.689626 
L 343.111414 125.907523 
L 344.197215 124.990359 
L 345.283016 123.071959 
L 346.368817 123.22847 
L 347.454618 122.232067 
L 348.54042 122.113064 
L 349.626221 121.171716 
L 350.712022 121.177533 
L 351.797823 118.659988 
L 352.883624 119.90616 
L 356.141028 118.186196 
L 357.226829 116.391899 
L 358.31263 115.804527 
L 359.398431 114.527403 
L 360.484232 112.372818 
L 361.570033 111.856085 
L 362.655835 113.219689 
L 363.741636 112.625132 
L 364.827437 109.912163 
L 365.913238 109.759925 
L 366.999039 108.104521 
L 368.08484 107.265573 
L 369.170642 107.457337 
L 370.256443 106.379013 
L 371.342244 106.580915 
L 372.428045 106.090863 
L 373.513846 105.771029 
L 374.599647 103.991424 
L 375.685448 101.095967 
L 376.77125 102.60735 
L 378.942852 99.356968 
L 380.028653 99.547299 
L 381.114454 98.75479 
L 382.200255 96.397572 
L 383.286057 96.008557 
L 384.371858 96.31168 
L 385.457659 95.149147 
L 386.54346 95.305564 
L 387.629261 94.64255 
L 388.715062 93.057641 
L 389.800863 93.4089 
L 391.972466 91.002931 
L 393.058267 89.223231 
L 394.144068 89.336032 
L 395.229869 88.781578 
L 396.31567 88.358921 
L 397.401472 84.754988 
L 398.487273 86.795277 
L 398.487273 86.795277 
" clip-path="url(#pf0f432c116)" style="fill: none; stroke: #0000ff; stroke-width: 1.5; stroke-linecap: square"/>
   </g>
   <g id="line2d_28">
    <path d="M 73.832727 294.909022 
L 74.918528 294.450576 
L 76.00433 294.172817 
L 77.090131 293.330797 
L 78.175932 293.283883 
L 79.261733 292.815868 
L 80.347534 292.624036 
L 81.433335 291.309539 
L 82.519137 290.42217 
L 83.604938 290.548728 
L 85.77654 288.704987 
L 86.862341 288.695447 
L 87.948142 287.851987 
L 89.033943 288.631508 
L 90.119745 286.703679 
L 91.205546 286.961655 
L 92.291347 282.992106 
L 93.377148 284.235789 
L 94.462949 283.057884 
L 95.54875 282.448045 
L 96.634552 277.817658 
L 97.720353 278.828777 
L 98.806154 274.895773 
L 99.891955 274.461362 
L 100.977756 274.739764 
L 102.063557 273.124801 
L 103.149358 272.13462 
L 104.23516 273.696773 
L 105.320961 273.318204 
L 108.578364 268.240443 
L 109.664165 268.213701 
L 110.749967 267.858864 
L 111.835768 264.364135 
L 112.921569 265.19432 
L 114.00737 264.390736 
L 116.178972 261.691435 
L 117.264773 261.19908 
L 118.350575 261.892213 
L 119.436376 260.582863 
L 120.522177 260.804063 
L 121.607978 258.560541 
L 124.865382 258.17003 
L 125.951183 257.220565 
L 127.036984 255.62925 
L 128.122785 256.605874 
L 129.208586 255.50832 
L 130.294387 255.351749 
L 131.380189 253.130251 
L 132.46599 253.582303 
L 133.551791 251.911044 
L 134.637592 254.016333 
L 135.723393 252.570241 
L 136.809194 247.951752 
L 138.980797 250.111782 
L 140.066598 250.400477 
L 141.152399 249.69617 
L 142.2382 250.385897 
L 143.324001 251.448396 
L 145.495604 244.890601 
L 146.581405 247.395681 
L 147.667206 244.179929 
L 148.753007 243.658575 
L 149.838808 243.557851 
L 150.924609 242.437027 
L 152.01041 244.920536 
L 153.096212 240.873659 
L 154.182013 241.916895 
L 155.267814 240.646383 
L 156.353615 239.185696 
L 157.439416 238.991055 
L 158.525217 237.508134 
L 159.611019 237.6705 
L 160.69682 239.92599 
L 161.782621 235.952479 
L 162.868422 232.906203 
L 163.954223 234.353856 
L 165.040024 233.318563 
L 166.125825 233.754196 
L 167.211627 231.026728 
L 168.297428 232.283005 
L 169.383229 231.796434 
L 170.46903 233.726295 
L 171.554831 233.387972 
L 172.640632 231.125655 
L 173.726434 230.557906 
L 174.812235 228.758086 
L 175.898036 224.117585 
L 176.983837 228.203451 
L 178.069638 225.720572 
L 179.155439 225.959674 
L 180.24124 224.623577 
L 181.327042 220.010393 
L 182.412843 221.888244 
L 183.498644 221.043202 
L 184.584445 222.653677 
L 185.670246 218.916044 
L 186.756047 220.25211 
L 187.841849 217.650256 
L 188.92765 218.349835 
L 190.013451 215.250858 
L 191.099252 215.321343 
L 192.185053 216.308231 
L 193.270854 216.408973 
L 194.356656 213.640843 
L 195.442457 210.102428 
L 197.614059 217.135361 
L 198.69986 210.598975 
L 199.785661 212.366534 
L 200.871462 212.225233 
L 201.957264 210.443242 
L 203.043065 210.750162 
L 205.214667 205.967452 
L 206.300468 208.093605 
L 207.386269 199.110749 
L 208.472071 204.957001 
L 209.557872 202.559027 
L 210.643673 203.054539 
L 211.729474 198.828588 
L 212.815275 198.688566 
L 213.901076 200.18341 
L 214.986877 199.224358 
L 216.072679 197.277459 
L 217.15848 199.36512 
L 218.244281 199.34686 
L 219.330082 197.754571 
L 220.415883 194.815007 
L 221.501684 195.658419 
L 222.587486 197.057687 
L 223.673287 195.286267 
L 224.759088 195.876628 
L 225.844889 191.768272 
L 226.93069 192.779166 
L 228.016491 192.621235 
L 229.102292 189.280603 
L 230.188094 191.248985 
L 231.273895 190.059114 
L 232.359696 187.386907 
L 233.445497 187.441872 
L 235.617099 185.345206 
L 236.702901 185.79735 
L 237.788702 182.9272 
L 238.874503 183.688695 
L 239.960304 186.821832 
L 241.046105 185.807703 
L 242.131906 180.870825 
L 243.217708 180.32924 
L 244.303509 181.504023 
L 245.38931 176.230364 
L 246.475111 178.779683 
L 247.560912 179.765454 
L 248.646713 178.804344 
L 249.732514 181.359325 
L 250.818316 175.892204 
L 251.904117 176.497691 
L 252.989918 173.423569 
L 254.075719 176.356147 
L 255.16152 174.792413 
L 256.247321 171.633211 
L 257.333123 172.64799 
L 258.418924 174.534181 
L 259.504725 169.882358 
L 260.590526 170.308533 
L 261.676327 166.877212 
L 262.762128 168.558777 
L 263.847929 165.367398 
L 264.933731 167.731076 
L 266.019532 164.863743 
L 267.105333 165.74447 
L 268.191134 166.217108 
L 269.276935 165.915678 
L 270.362736 164.714195 
L 271.448538 161.926337 
L 272.534339 163.930345 
L 273.62014 160.255619 
L 274.705941 162.635634 
L 275.791742 158.353222 
L 276.877543 159.469266 
L 277.963344 162.365513 
L 279.049146 158.69335 
L 280.134947 157.079382 
L 281.220748 156.108515 
L 282.306549 157.096676 
L 283.39235 156.159903 
L 284.478151 156.825375 
L 285.563953 153.284451 
L 286.649754 157.002167 
L 287.735555 147.46635 
L 288.821356 152.531909 
L 289.907157 149.915392 
L 290.992958 152.482038 
L 293.164561 148.1238 
L 294.250362 151.430679 
L 295.336163 149.009044 
L 296.421964 150.942672 
L 297.507765 145.608889 
L 298.593566 146.610588 
L 299.679368 145.715683 
L 300.765169 145.784374 
L 301.85097 144.551812 
L 302.936771 143.894194 
L 304.022572 140.902192 
L 306.194175 140.77075 
L 307.279976 139.093036 
L 308.365777 139.321164 
L 309.451578 138.304384 
L 310.537379 138.442658 
L 311.62318 139.143838 
L 312.708981 137.113632 
L 313.794783 133.95129 
L 314.880584 137.94513 
L 315.966385 136.313582 
L 317.052186 130.224182 
L 318.137987 134.252587 
L 319.223788 134.299034 
L 320.30959 133.588083 
L 321.395391 133.961288 
L 322.481192 132.206786 
L 323.566993 128.745599 
L 324.652794 128.756524 
L 325.738595 129.589346 
L 327.910198 126.623636 
L 328.995999 124.581053 
L 330.0818 124.505706 
L 331.167601 127.851037 
L 332.253402 125.5967 
L 333.339203 125.715674 
L 334.425005 121.752519 
L 335.510806 119.747871 
L 336.596607 123.496612 
L 337.682408 121.283735 
L 339.85401 115.818757 
L 340.939811 116.904377 
L 342.025613 114.868082 
L 343.111414 117.066237 
L 344.197215 115.769389 
L 345.283016 113.458346 
L 346.368817 113.159041 
L 347.454618 113.2847 
L 348.54042 113.147616 
L 349.626221 112.17205 
L 350.712022 112.933723 
L 351.797823 108.659964 
L 352.883624 111.202061 
L 355.055227 110.406482 
L 356.141028 109.473217 
L 357.226829 107.102667 
L 358.31263 106.521386 
L 359.398431 105.44082 
L 360.484232 103.077152 
L 361.570033 101.834613 
L 362.655835 104.358271 
L 363.741636 103.846839 
L 364.827437 98.883552 
L 365.913238 100.261808 
L 366.999039 98.802098 
L 368.08484 98.145461 
L 369.170642 97.721154 
L 370.256443 97.009361 
L 371.342244 96.642393 
L 372.428045 98.401356 
L 373.513846 97.581142 
L 374.599647 96.090011 
L 375.685448 90.789964 
L 376.77125 93.621542 
L 377.857051 91.952413 
L 378.942852 88.695092 
L 380.028653 90.380429 
L 381.114454 90.089318 
L 382.200255 86.041734 
L 383.286057 86.013299 
L 384.371858 87.477761 
L 385.457659 86.633773 
L 386.54346 86.129222 
L 387.629261 86.160552 
L 388.715062 83.576159 
L 389.800863 84.59918 
L 390.886665 83.594319 
L 391.972466 81.804668 
L 393.058267 79.464307 
L 394.144068 80.070978 
L 395.229869 79.290472 
L 396.31567 79.315338 
L 397.401472 74.501176 
L 398.487273 78.162643 
L 398.487273 78.162643 
" clip-path="url(#pf0f432c116)" style="fill: none; stroke-dasharray: 9.6,2.4,1.5,2.4; stroke-dashoffset: 0; stroke: #008000; stroke-width: 1.5"/>
   </g>
   <g id="line2d_29">
    <path d="M 73.832727 292.811801 
L 74.918528 292.767963 
L 76.00433 291.1907 
L 77.090131 287.816687 
L 78.175932 287.094073 
L 79.261733 288.022079 
L 80.347534 287.814951 
L 81.433335 283.04187 
L 82.519137 279.473922 
L 83.604938 280.832128 
L 84.690739 280.290843 
L 85.77654 277.769292 
L 86.862341 281.171967 
L 87.948142 279.642691 
L 89.033943 284.213357 
L 90.119745 279.00286 
L 91.205546 279.394047 
L 92.291347 258.543111 
L 93.377148 268.143302 
L 94.462949 267.732384 
L 95.54875 272.257542 
L 96.634552 260.987809 
L 97.720353 264.682312 
L 98.806154 254.556892 
L 99.891955 247.544866 
L 100.977756 249.49266 
L 102.063557 245.064853 
L 103.149358 249.309052 
L 104.23516 258.221199 
L 105.320961 254.322703 
L 106.406762 251.311463 
L 107.492563 245.600071 
L 108.578364 247.815993 
L 109.664165 245.624381 
L 110.749967 248.681285 
L 111.835768 209.030488 
L 112.921569 249.226246 
L 114.00737 245.57858 
L 115.093171 238.447509 
L 116.178972 235.906993 
L 117.264773 237.093701 
L 118.350575 244.364225 
L 119.436376 243.278409 
L 120.522177 238.585677 
L 121.607978 234.41991 
L 122.693779 243.548634 
L 123.77958 232.502988 
L 124.865382 237.629347 
L 125.951183 227.379605 
L 127.036984 228.439556 
L 128.122785 236.073868 
L 129.208586 230.389244 
L 131.380189 236.25389 
L 132.46599 233.02975 
L 133.551791 233.389298 
L 134.637592 227.873443 
L 135.723393 239.560476 
L 136.809194 225.355861 
L 137.894995 229.924902 
L 138.980797 219.911401 
L 140.066598 229.2901 
L 141.152399 222.454263 
L 143.324001 239.311201 
L 144.409802 231.437558 
L 145.495604 222.480918 
L 146.581405 226.423591 
L 147.667206 225.629807 
L 148.753007 226.441 
L 149.838808 222.567219 
L 150.924609 224.306374 
L 152.01041 226.499452 
L 153.096212 221.858541 
L 154.182013 225.072038 
L 155.267814 215.843008 
L 156.353615 224.754524 
L 157.439416 210.092332 
L 158.525217 217.774543 
L 159.611019 222.23507 
L 160.69682 227.610975 
L 161.782621 208.358206 
L 163.954223 217.20313 
L 165.040024 216.566569 
L 166.125825 210.080606 
L 167.211627 202.297797 
L 168.297428 218.295193 
L 169.383229 213.735758 
L 170.46903 212.635059 
L 171.554831 215.546286 
L 172.640632 213.781897 
L 173.726434 221.958599 
L 174.812235 210.279165 
L 175.898036 190.212631 
L 176.983837 200.184188 
L 179.155439 208.307896 
L 180.24124 178.433704 
L 181.327042 202.730545 
L 182.412843 197.212209 
L 183.498644 207.141213 
L 184.584445 198.601152 
L 185.670246 199.190988 
L 186.756047 206.134392 
L 187.841849 195.311885 
L 188.92765 201.949073 
L 190.013451 197.417105 
L 191.099252 195.51757 
L 192.185053 188.163157 
L 193.270854 185.834301 
L 194.356656 192.939777 
L 195.442457 192.961764 
L 196.528258 196.219325 
L 197.614059 201.043663 
L 198.69986 185.760177 
L 199.785661 196.745636 
L 200.871462 193.272513 
L 201.957264 188.21013 
L 203.043065 188.945125 
L 204.128866 192.590941 
L 205.214667 186.828336 
L 206.300468 191.930904 
L 207.386269 181.067468 
L 208.472071 175.250967 
L 209.557872 186.38314 
L 210.643673 190.348003 
L 211.729474 174.848324 
L 213.901076 182.097268 
L 214.986877 176.308279 
L 216.072679 176.709433 
L 217.15848 183.370345 
L 218.244281 184.411465 
L 219.330082 171.711252 
L 220.415883 167.431152 
L 221.501684 179.713185 
L 222.587486 178.316012 
L 223.673287 177.604628 
L 224.759088 174.912819 
L 225.844889 168.527635 
L 226.93069 175.101568 
L 228.016491 182.710444 
L 229.102292 167.14893 
L 230.188094 167.038229 
L 231.273895 173.143604 
L 232.359696 172.852948 
L 233.445497 167.733061 
L 234.531298 137.488609 
L 235.617099 163.121804 
L 236.702901 145.725995 
L 237.788702 161.698021 
L 238.874503 163.630593 
L 239.960304 160.504661 
L 241.046105 172.301426 
L 242.131906 160.687389 
L 243.217708 150.759333 
L 244.303509 163.880974 
L 245.38931 154.677155 
L 246.475111 167.294698 
L 247.560912 161.011555 
L 248.646713 156.820148 
L 249.732514 166.262801 
L 250.818316 149.031589 
L 251.904117 152.33168 
L 252.989918 156.411868 
L 254.075719 162.731745 
L 255.16152 150.891502 
L 256.247321 149.614276 
L 257.333123 154.237552 
L 258.418924 158.128381 
L 259.504725 150.637311 
L 260.590526 148.410114 
L 261.676327 137.675397 
L 262.762128 143.718622 
L 263.847929 142.400512 
L 264.933731 142.700706 
L 266.019532 140.037672 
L 267.105333 135.694318 
L 268.191134 142.667376 
L 269.276935 146.853845 
L 270.362736 149.628776 
L 271.448538 137.37669 
L 272.534339 142.343526 
L 273.62014 136.568428 
L 274.705941 148.393133 
L 275.791742 139.477987 
L 276.877543 134.516991 
L 277.963344 141.420909 
L 279.049146 136.659082 
L 280.134947 130.437525 
L 281.220748 136.292836 
L 283.39235 140.472517 
L 284.478151 144.685664 
L 285.563953 139.538174 
L 286.649754 136.843299 
L 287.735555 66.892935 
L 288.821356 133.5221 
L 289.907157 125.770749 
L 290.992958 133.905642 
L 293.164561 123.545807 
L 294.250362 132.685943 
L 295.336163 131.165304 
L 296.421964 126.277351 
L 297.507765 129.658985 
L 298.593566 122.386408 
L 299.679368 128.221063 
L 300.765169 125.510875 
L 301.85097 129.216631 
L 304.022572 123.899921 
L 305.108373 126.232362 
L 306.194175 126.540156 
L 307.279976 124.138124 
L 308.365777 118.313415 
L 309.451578 113.984358 
L 310.537379 115.079397 
L 311.62318 120.683944 
L 312.708981 115.1597 
L 313.794783 112.176874 
L 314.880584 113.447899 
L 315.966385 118.192543 
L 317.052186 65.705754 
L 318.137987 118.334206 
L 319.223788 112.307353 
L 320.30959 109.035337 
L 321.395391 111.344212 
L 322.481192 116.467821 
L 323.566993 103.58648 
L 324.652794 103.448831 
L 325.738595 109.127389 
L 326.824396 108.589081 
L 327.910198 105.219849 
L 328.995999 104.998785 
L 330.0818 94.99577 
L 331.167601 109.587581 
L 332.253402 107.873525 
L 333.339203 110.146274 
L 334.425005 94.40979 
L 335.510806 101.917886 
L 336.596607 110.817857 
L 337.682408 93.559809 
L 338.768209 103.411103 
L 339.85401 81.532328 
L 340.939811 69.520745 
L 342.025613 93.633595 
L 343.111414 99.314228 
L 344.197215 89.26663 
L 345.283016 94.54859 
L 346.368817 85.178934 
L 347.454618 88.479949 
L 348.54042 84.601388 
L 349.626221 84.512944 
L 350.712022 88.128452 
L 351.797823 89.764009 
L 352.883624 89.151599 
L 353.969425 88.013736 
L 355.055227 90.804813 
L 356.141028 91.379157 
L 357.226829 87.293332 
L 358.31263 87.915979 
L 359.398431 89.140955 
L 360.484232 81.620005 
L 361.570033 78.024297 
L 362.655835 82.321557 
L 363.741636 85.451323 
L 364.827437 76.636978 
L 365.913238 77.266188 
L 366.999039 82.670417 
L 368.08484 85.288958 
L 369.170642 72.304967 
L 370.256443 74.48465 
L 371.342244 71.949951 
L 372.428045 79.834644 
L 373.513846 74.905062 
L 374.599647 79.545792 
L 375.685448 75.942642 
L 376.77125 67.06193 
L 377.857051 70.146369 
L 378.942852 65.337862 
L 380.028653 73.11722 
L 381.114454 73.233943 
L 382.200255 67.866765 
L 383.286057 71.895063 
L 384.371858 68.562341 
L 385.457659 66.873903 
L 386.54346 70.835 
L 387.629261 67.812237 
L 388.715062 70.448661 
L 389.800863 72.053256 
L 390.886665 70.315071 
L 391.972466 60.199167 
L 393.058267 58.161374 
L 394.144068 63.626399 
L 395.229869 53.568 
L 396.31567 56.624228 
L 397.401472 58.10856 
L 398.487273 61.308098 
L 398.487273 61.308098 
" clip-path="url(#pf0f432c116)" style="fill: none; stroke: #ff0000; stroke-width: 1.5; stroke-linecap: square"/>
   </g>
   <g id="patch_3">
    <path d="M 57.6 307.584 
L 57.6 41.472 
" style="fill: none; stroke: #000000; stroke-width: 0.8; stroke-linejoin: miter; stroke-linecap: square"/>
   </g>
   <g id="patch_4">
    <path d="M 414.72 307.584 
L 414.72 41.472 
" style="fill: none; stroke: #000000; stroke-width: 0.8; stroke-linejoin: miter; stroke-linecap: square"/>
   </g>
   <g id="patch_5">
    <path d="M 57.6 307.584 
L 414.72 307.584 
" style="fill: none; stroke: #000000; stroke-width: 0.8; stroke-linejoin: miter; stroke-linecap: square"/>
   </g>
   <g id="patch_6">
    <path d="M 57.6 41.472 
L 414.72 41.472 
" style="fill: none; stroke: #000000; stroke-width: 0.8; stroke-linejoin: miter; stroke-linecap: square"/>
   </g>
   <g id="text_16">
    <!-- Population's average and best fitness -->
    <g transform="translate(123.529687 35.472)scale(0.12 -0.12)">
     <defs>
      <path id="DejaVuSans-50" d="M 1259 4147 
L 1259 2394 
L 2053 2394 
Q 2494 2394 2734 2622 
Q 2975 2850 2975 3272 
Q 2975 3691 2734 3919 
Q 2494 4147 2053 4147 
L 1259 4147 
z
M 628 4666 
L 2053 4666 
Q 2838 4666 3239 4311 
Q 3641 3956 3641 3272 
Q 3641 2581 3239 2228 
Q 2838 1875 2053 1875 
L 1259 1875 
L 1259 0 
L 628 0 
L 628 4666 
z
" transform="scale(0.015625)"/>
      <path id="DejaVuSans-70" d="M 1159 525 
L 1159 -1331 
L 581 -1331 
L 581 3500 
L 1159 3500 
L 1159 2969 
Q 1341 3281 1617 3432 
Q 1894 3584 2278 3584 
Q 2916 3584 3314 3078 
Q 3713 2572 3713 1747 
Q 3713 922 3314 415 
Q 2916 -91 2278 -91 
Q 1894 -91 1617 61 
Q 1341 213 1159 525 
z
M 3116 1747 
Q 3116 2381 2855 2742 
Q 2594 3103 2138 3103 
Q 1681 3103 1420 2742 
Q 1159 2381 1159 1747 
Q 1159 1113 1420 752 
Q 1681 391 2138 391 
Q 2594 391 2855 752 
Q 3116 1113 3116 1747 
z
" transform="scale(0.015625)"/>
      <path id="DejaVuSans-75" d="M 544 1381 
L 544 3500 
L 1119 3500 
L 1119 1403 
Q 1119 906 1312 657 
Q 1506 409 1894 409 
Q 2359 409 2629 706 
Q 2900 1003 2900 1516 
L 2900 3500 
L 3475 3500 
L 3475 0 
L 2900 0 
L 2900 538 
Q 2691 219 2414 64 
Q 2138 -91 1772 -91 
Q 1169 -91 856 284 
Q 544 659 544 1381 
z
M 1991 3584 
L 1991 3584 
z
" transform="scale(0.015625)"/>
      <path id="DejaVuSans-6c" d="M 603 4863 
L 1178 4863 
L 1178 0 
L 603 0 
L 603 4863 
z
" transform="scale(0.015625)"/>
      <path id="DejaVuSans-27" d="M 1147 4666 
L 1147 2931 
L 616 2931 
L 616 4666 
L 1147 4666 
z
" transform="scale(0.015625)"/>
      <path id="DejaVuSans-20" transform="scale(0.015625)"/>
      <path id="DejaVuSans-76" d="M 191 3500 
L 800 3500 
L 1894 563 
L 2988 3500 
L 3597 3500 
L 2284 0 
L 1503 0 
L 191 3500 
z
" transform="scale(0.015625)"/>
      <path id="DejaVuSans-67" d="M 2906 1791 
Q 2906 2416 2648 2759 
Q 2391 3103 1925 3103 
Q 1463 3103 1205 2759 
Q 947 2416 947 1791 
Q 947 1169 1205 825 
Q 1463 481 1925 481 
Q 2391 481 2648 825 
Q 2906 1169 2906 1791 
z
M 3481 434 
Q 3481 -459 3084 -895 
Q 2688 -1331 1869 -1331 
Q 1566 -1331 1297 -1286 
Q 1028 -1241 775 -1147 
L 775 -588 
Q 1028 -725 1275 -790 
Q 1522 -856 1778 -856 
Q 2344 -856 2625 -561 
Q 2906 -266 2906 331 
L 2906 616 
Q 2728 306 2450 153 
Q 2172 0 1784 0 
Q 1141 0 747 490 
Q 353 981 353 1791 
Q 353 2603 747 3093 
Q 1141 3584 1784 3584 
Q 2172 3584 2450 3431 
Q 2728 3278 2906 2969 
L 2906 3500 
L 3481 3500 
L 3481 434 
z
" transform="scale(0.015625)"/>
      <path id="DejaVuSans-64" d="M 2906 2969 
L 2906 4863 
L 3481 4863 
L 3481 0 
L 2906 0 
L 2906 525 
Q 2725 213 2448 61 
Q 2172 -91 1784 -91 
Q 1150 -91 751 415 
Q 353 922 353 1747 
Q 353 2572 751 3078 
Q 1150 3584 1784 3584 
Q 2172 3584 2448 3432 
Q 2725 3281 2906 2969 
z
M 947 1747 
Q 947 1113 1208 752 
Q 1469 391 1925 391 
Q 2381 391 2643 752 
Q 2906 1113 2906 1747 
Q 2906 2381 2643 2742 
Q 2381 3103 1925 3103 
Q 1469 3103 1208 2742 
Q 947 2381 947 1747 
z
" transform="scale(0.015625)"/>
      <path id="DejaVuSans-62" d="M 3116 1747 
Q 3116 2381 2855 2742 
Q 2594 3103 2138 3103 
Q 1681 3103 1420 2742 
Q 1159 2381 1159 1747 
Q 1159 1113 1420 752 
Q 1681 391 2138 391 
Q 2594 391 2855 752 
Q 3116 1113 3116 1747 
z
M 1159 2969 
Q 1341 3281 1617 3432 
Q 1894 3584 2278 3584 
Q 2916 3584 3314 3078 
Q 3713 2572 3713 1747 
Q 3713 922 3314 415 
Q 2916 -91 2278 -91 
Q 1894 -91 1617 61 
Q 1341 213 1159 525 
L 1159 0 
L 581 0 
L 581 4863 
L 1159 4863 
L 1159 2969 
z
" transform="scale(0.015625)"/>
      <path id="DejaVuSans-66" d="M 2375 4863 
L 2375 4384 
L 1825 4384 
Q 1516 4384 1395 4259 
Q 1275 4134 1275 3809 
L 1275 3500 
L 2222 3500 
L 2222 3053 
L 1275 3053 
L 1275 0 
L 697 0 
L 697 3053 
L 147 3053 
L 147 3500 
L 697 3500 
L 697 3744 
Q 697 4328 969 4595 
Q 1241 4863 1831 4863 
L 2375 4863 
z
" transform="scale(0.015625)"/>
     </defs>
     <use xlink:href="#DejaVuSans-50"/>
     <use xlink:href="#DejaVuSans-6f" x="56.677734"/>
     <use xlink:href="#DejaVuSans-70" x="117.859375"/>
     <use xlink:href="#DejaVuSans-75" x="181.335938"/>
     <use xlink:href="#DejaVuSans-6c" x="244.714844"/>
     <use xlink:href="#DejaVuSans-61" x="272.498047"/>
     <use xlink:href="#DejaVuSans-74" x="333.777344"/>
     <use xlink:href="#DejaVuSans-69" x="372.986328"/>
     <use xlink:href="#DejaVuSans-6f" x="400.769531"/>
     <use xlink:href="#DejaVuSans-6e" x="461.951172"/>
     <use xlink:href="#DejaVuSans-27" x="525.330078"/>
     <use xlink:href="#DejaVuSans-73" x="552.820312"/>
     <use xlink:href="#DejaVuSans-20" x="604.919922"/>
     <use xlink:href="#DejaVuSans-61" x="636.707031"/>
     <use xlink:href="#DejaVuSans-76" x="697.986328"/>
     <use xlink:href="#DejaVuSans-65" x="757.166016"/>
     <use xlink:href="#DejaVuSans-72" x="818.689453"/>
     <use xlink:href="#DejaVuSans-61" x="859.802734"/>
     <use xlink:href="#DejaVuSans-67" x="921.082031"/>
     <use xlink:href="#DejaVuSans-65" x="984.558594"/>
     <use xlink:href="#DejaVuSans-20" x="1046.082031"/>
     <use xlink:href="#DejaVuSans-61" x="1077.869141"/>
     <use xlink:href="#DejaVuSans-6e" x="1139.148438"/>
     <use xlink:href="#DejaVuSans-64" x="1202.527344"/>
     <use xlink:href="#DejaVuSans-20" x="1266.003906"/>
     <use xlink:href="#DejaVuSans-62" x="1297.791016"/>
     <use xlink:href="#DejaVuSans-65" x="1361.267578"/>
     <use xlink:href="#DejaVuSans-73" x="1422.791016"/>
     <use xlink:href="#DejaVuSans-74" x="1474.890625"/>
     <use xlink:href="#DejaVuSans-20" x="1514.099609"/>
     <use xlink:href="#DejaVuSans-66" x="1545.886719"/>
     <use xlink:href="#DejaVuSans-69" x="1581.091797"/>
     <use xlink:href="#DejaVuSans-74" x="1608.875"/>
     <use xlink:href="#DejaVuSans-6e" x="1648.083984"/>
     <use xlink:href="#DejaVuSans-65" x="1711.462891"/>
     <use xlink:href="#DejaVuSans-73" x="1772.986328"/>
     <use xlink:href="#DejaVuSans-73" x="1825.085938"/>
    </g>
   </g>
   <g id="legend_1">
    <g id="patch_7">
     <path d="M 64.6 93.506375 
L 137.540625 93.506375 
Q 139.540625 93.506375 139.540625 91.506375 
L 139.540625 48.472 
Q 139.540625 46.472 137.540625 46.472 
L 64.6 46.472 
Q 62.6 46.472 62.6 48.472 
L 62.6 91.506375 
Q 62.6 93.506375 64.6 93.506375 
z
" style="fill: #ffffff; opacity: 0.8; stroke: #cccccc; stroke-linejoin: miter"/>
    </g>
    <g id="line2d_30">
     <path d="M 66.6 54.570438 
L 76.6 54.570438 
L 86.6 54.570438 
" style="fill: none; stroke: #0000ff; stroke-width: 1.5; stroke-linecap: square"/>
    </g>
    <g id="text_17">
     <!-- average -->
     <g transform="translate(94.6 58.070438)scale(0.1 -0.1)">
      <use xlink:href="#DejaVuSans-61"/>
      <use xlink:href="#DejaVuSans-76" x="61.279297"/>
      <use xlink:href="#DejaVuSans-65" x="120.458984"/>
      <use xlink:href="#DejaVuSans-72" x="181.982422"/>
      <use xlink:href="#DejaVuSans-61" x="223.095703"/>
      <use xlink:href="#DejaVuSans-67" x="284.375"/>
      <use xlink:href="#DejaVuSans-65" x="347.851562"/>
     </g>
    </g>
    <g id="line2d_31">
     <path d="M 66.6 69.248563 
L 76.6 69.248563 
L 86.6 69.248563 
" style="fill: none; stroke-dasharray: 9.6,2.4,1.5,2.4; stroke-dashoffset: 0; stroke: #008000; stroke-width: 1.5"/>
    </g>
    <g id="text_18">
     <!-- +1 sd -->
     <g transform="translate(94.6 72.748563)scale(0.1 -0.1)">
      <defs>
       <path id="DejaVuSans-2b" d="M 2944 4013 
L 2944 2272 
L 4684 2272 
L 4684 1741 
L 2944 1741 
L 2944 0 
L 2419 0 
L 2419 1741 
L 678 1741 
L 678 2272 
L 2419 2272 
L 2419 4013 
L 2944 4013 
z
" transform="scale(0.015625)"/>
      </defs>
      <use xlink:href="#DejaVuSans-2b"/>
      <use xlink:href="#DejaVuSans-31" x="83.789062"/>
      <use xlink:href="#DejaVuSans-20" x="147.412109"/>
      <use xlink:href="#DejaVuSans-73" x="179.199219"/>
      <use xlink:href="#DejaVuSans-64" x="231.298828"/>
     </g>
    </g>
    <g id="line2d_32">
     <path d="M 66.6 83.926688 
L 76.6 83.926688 
L 86.6 83.926688 
" style="fill: none; stroke: #ff0000; stroke-width: 1.5; stroke-linecap: square"/>
    </g>
    <g id="text_19">
     <!-- best -->
     <g transform="translate(94.6 87.426688)scale(0.1 -0.1)">
      <use xlink:href="#DejaVuSans-62"/>
      <use xlink:href="#DejaVuSans-65" x="63.476562"/>
      <use xlink:href="#DejaVuSans-73" x="125"/>
      <use xlink:href="#DejaVuSans-74" x="177.099609"/>
     </g>
    </g>
   </g>
  </g>
 </g>
 <defs>
  <clipPath id="pf0f432c116">
   <rect x="57.6" y="41.472" width="357.12" height="266.112"/>
  </clipPath>
 </defs>
</svg>
