<?xml version="1.0" encoding="utf-8" standalone="no"?>
<!DOCTYPE svg PUBLIC "-//W3C//DTD SVG 1.1//EN"
  "http://www.w3.org/Graphics/SVG/1.1/DTD/svg11.dtd">
<svg xmlns:xlink="http://www.w3.org/1999/xlink" width="460.8pt" height="345.6pt" viewBox="0 0 460.8 345.6" xmlns="http://www.w3.org/2000/svg" version="1.1">
 <metadata>
  <rdf:RDF xmlns:dc="http://purl.org/dc/elements/1.1/" xmlns:cc="http://creativecommons.org/ns#" xmlns:rdf="http://www.w3.org/1999/02/22-rdf-syntax-ns#">
   <cc:Work>
    <dc:type rdf:resource="http://purl.org/dc/dcmitype/StillImage"/>
    <dc:date>2023-01-30T20:05:27.805523</dc:date>
    <dc:format>image/svg+xml</dc:format>
    <dc:creator>
     <cc:Agent>
      <dc:title>Matplotlib v3.6.2, https://matplotlib.org/</dc:title>
     </cc:Agent>
    </dc:creator>
   </cc:Work>
  </rdf:RDF>
 </metadata>
 <defs>
  <style type="text/css">*{stroke-linejoin: round; stroke-linecap: butt}</style>
 </defs>
 <g id="figure_1">
  <g id="patch_1">
   <path d="M 0 345.6 
L 460.8 345.6 
L 460.8 0 
L 0 0 
z
" style="fill: #ffffff"/>
  </g>
  <g id="axes_1">
   <g id="patch_2">
    <path d="M 57.6 307.584 
L 414.72 307.584 
L 414.72 41.472 
L 57.6 41.472 
z
" style="fill: #ffffff"/>
   </g>
   <g id="matplotlib.axis_1">
    <g id="xtick_1">
     <g id="line2d_1">
      <path d="M 73.832727 307.584 
L 73.832727 41.472 
" clip-path="url(#p99beb43d54)" style="fill: none; stroke: #b0b0b0; stroke-width: 0.8; stroke-linecap: square"/>
     </g>
     <g id="line2d_2">
      <defs>
       <path id="m909bcc90c0" d="M 0 0 
L 0 3.5 
" style="stroke: #000000; stroke-width: 0.8"/>
      </defs>
      <g>
       <use xlink:href="#m909bcc90c0" x="73.832727" y="307.584" style="stroke: #000000; stroke-width: 0.8"/>
      </g>
     </g>
     <g id="text_1">
      <!-- 0 -->
      <g transform="translate(70.651477 322.182437) scale(0.1 -0.1)">
       <defs>
        <path id="DejaVuSans-30" d="M 2034 4250 
Q 1547 4250 1301 3770 
Q 1056 3291 1056 2328 
Q 1056 1369 1301 889 
Q 1547 409 2034 409 
Q 2525 409 2770 889 
Q 3016 1369 3016 2328 
Q 3016 3291 2770 3770 
Q 2525 4250 2034 4250 
z
M 2034 4750 
Q 2819 4750 3233 4129 
Q 3647 3509 3647 2328 
Q 3647 1150 3233 529 
Q 2819 -91 2034 -91 
Q 1250 -91 836 529 
Q 422 1150 422 2328 
Q 422 3509 836 4129 
Q 1250 4750 2034 4750 
z
" transform="scale(0.015625)"/>
       </defs>
       <use xlink:href="#DejaVuSans-30"/>
      </g>
     </g>
    </g>
    <g id="xtick_2">
     <g id="line2d_3">
      <path d="M 128.122785 307.584 
L 128.122785 41.472 
" clip-path="url(#p99beb43d54)" style="fill: none; stroke: #b0b0b0; stroke-width: 0.8; stroke-linecap: square"/>
     </g>
     <g id="line2d_4">
      <g>
       <use xlink:href="#m909bcc90c0" x="128.122785" y="307.584" style="stroke: #000000; stroke-width: 0.8"/>
      </g>
     </g>
     <g id="text_2">
      <!-- 50 -->
      <g transform="translate(121.760285 322.182437) scale(0.1 -0.1)">
       <defs>
        <path id="DejaVuSans-35" d="M 691 4666 
L 3169 4666 
L 3169 4134 
L 1269 4134 
L 1269 2991 
Q 1406 3038 1543 3061 
Q 1681 3084 1819 3084 
Q 2600 3084 3056 2656 
Q 3513 2228 3513 1497 
Q 3513 744 3044 326 
Q 2575 -91 1722 -91 
Q 1428 -91 1123 -41 
Q 819 9 494 109 
L 494 744 
Q 775 591 1075 516 
Q 1375 441 1709 441 
Q 2250 441 2565 725 
Q 2881 1009 2881 1497 
Q 2881 1984 2565 2268 
Q 2250 2553 1709 2553 
Q 1456 2553 1204 2497 
Q 953 2441 691 2322 
L 691 4666 
z
" transform="scale(0.015625)"/>
       </defs>
       <use xlink:href="#DejaVuSans-35"/>
       <use xlink:href="#DejaVuSans-30" x="63.623047"/>
      </g>
     </g>
    </g>
    <g id="xtick_3">
     <g id="line2d_5">
      <path d="M 182.412843 307.584 
L 182.412843 41.472 
" clip-path="url(#p99beb43d54)" style="fill: none; stroke: #b0b0b0; stroke-width: 0.8; stroke-linecap: square"/>
     </g>
     <g id="line2d_6">
      <g>
       <use xlink:href="#m909bcc90c0" x="182.412843" y="307.584" style="stroke: #000000; stroke-width: 0.8"/>
      </g>
     </g>
     <g id="text_3">
      <!-- 100 -->
      <g transform="translate(172.869093 322.182437) scale(0.1 -0.1)">
       <defs>
        <path id="DejaVuSans-31" d="M 794 531 
L 1825 531 
L 1825 4091 
L 703 3866 
L 703 4441 
L 1819 4666 
L 2450 4666 
L 2450 531 
L 3481 531 
L 3481 0 
L 794 0 
L 794 531 
z
" transform="scale(0.015625)"/>
       </defs>
       <use xlink:href="#DejaVuSans-31"/>
       <use xlink:href="#DejaVuSans-30" x="63.623047"/>
       <use xlink:href="#DejaVuSans-30" x="127.246094"/>
      </g>
     </g>
    </g>
    <g id="xtick_4">
     <g id="line2d_7">
      <path d="M 236.702901 307.584 
L 236.702901 41.472 
" clip-path="url(#p99beb43d54)" style="fill: none; stroke: #b0b0b0; stroke-width: 0.8; stroke-linecap: square"/>
     </g>
     <g id="line2d_8">
      <g>
       <use xlink:href="#m909bcc90c0" x="236.702901" y="307.584" style="stroke: #000000; stroke-width: 0.8"/>
      </g>
     </g>
     <g id="text_4">
      <!-- 150 -->
      <g transform="translate(227.159151 322.182437) scale(0.1 -0.1)">
       <use xlink:href="#DejaVuSans-31"/>
       <use xlink:href="#DejaVuSans-35" x="63.623047"/>
       <use xlink:href="#DejaVuSans-30" x="127.246094"/>
      </g>
     </g>
    </g>
    <g id="xtick_5">
     <g id="line2d_9">
      <path d="M 290.992958 307.584 
L 290.992958 41.472 
" clip-path="url(#p99beb43d54)" style="fill: none; stroke: #b0b0b0; stroke-width: 0.8; stroke-linecap: square"/>
     </g>
     <g id="line2d_10">
      <g>
       <use xlink:href="#m909bcc90c0" x="290.992958" y="307.584" style="stroke: #000000; stroke-width: 0.8"/>
      </g>
     </g>
     <g id="text_5">
      <!-- 200 -->
      <g transform="translate(281.449208 322.182437) scale(0.1 -0.1)">
       <defs>
        <path id="DejaVuSans-32" d="M 1228 531 
L 3431 531 
L 3431 0 
L 469 0 
L 469 531 
Q 828 903 1448 1529 
Q 2069 2156 2228 2338 
Q 2531 2678 2651 2914 
Q 2772 3150 2772 3378 
Q 2772 3750 2511 3984 
Q 2250 4219 1831 4219 
Q 1534 4219 1204 4116 
Q 875 4013 500 3803 
L 500 4441 
Q 881 4594 1212 4672 
Q 1544 4750 1819 4750 
Q 2544 4750 2975 4387 
Q 3406 4025 3406 3419 
Q 3406 3131 3298 2873 
Q 3191 2616 2906 2266 
Q 2828 2175 2409 1742 
Q 1991 1309 1228 531 
z
" transform="scale(0.015625)"/>
       </defs>
       <use xlink:href="#DejaVuSans-32"/>
       <use xlink:href="#DejaVuSans-30" x="63.623047"/>
       <use xlink:href="#DejaVuSans-30" x="127.246094"/>
      </g>
     </g>
    </g>
    <g id="xtick_6">
     <g id="line2d_11">
      <path d="M 345.283016 307.584 
L 345.283016 41.472 
" clip-path="url(#p99beb43d54)" style="fill: none; stroke: #b0b0b0; stroke-width: 0.8; stroke-linecap: square"/>
     </g>
     <g id="line2d_12">
      <g>
       <use xlink:href="#m909bcc90c0" x="345.283016" y="307.584" style="stroke: #000000; stroke-width: 0.8"/>
      </g>
     </g>
     <g id="text_6">
      <!-- 250 -->
      <g transform="translate(335.739266 322.182437) scale(0.1 -0.1)">
       <use xlink:href="#DejaVuSans-32"/>
       <use xlink:href="#DejaVuSans-35" x="63.623047"/>
       <use xlink:href="#DejaVuSans-30" x="127.246094"/>
      </g>
     </g>
    </g>
    <g id="xtick_7">
     <g id="line2d_13">
      <path d="M 399.573074 307.584 
L 399.573074 41.472 
" clip-path="url(#p99beb43d54)" style="fill: none; stroke: #b0b0b0; stroke-width: 0.8; stroke-linecap: square"/>
     </g>
     <g id="line2d_14">
      <g>
       <use xlink:href="#m909bcc90c0" x="399.573074" y="307.584" style="stroke: #000000; stroke-width: 0.8"/>
      </g>
     </g>
     <g id="text_7">
      <!-- 300 -->
      <g transform="translate(390.029324 322.182437) scale(0.1 -0.1)">
       <defs>
        <path id="DejaVuSans-33" d="M 2597 2516 
Q 3050 2419 3304 2112 
Q 3559 1806 3559 1356 
Q 3559 666 3084 287 
Q 2609 -91 1734 -91 
Q 1441 -91 1130 -33 
Q 819 25 488 141 
L 488 750 
Q 750 597 1062 519 
Q 1375 441 1716 441 
Q 2309 441 2620 675 
Q 2931 909 2931 1356 
Q 2931 1769 2642 2001 
Q 2353 2234 1838 2234 
L 1294 2234 
L 1294 2753 
L 1863 2753 
Q 2328 2753 2575 2939 
Q 2822 3125 2822 3475 
Q 2822 3834 2567 4026 
Q 2313 4219 1838 4219 
Q 1578 4219 1281 4162 
Q 984 4106 628 3988 
L 628 4550 
Q 988 4650 1302 4700 
Q 1616 4750 1894 4750 
Q 2613 4750 3031 4423 
Q 3450 4097 3450 3541 
Q 3450 3153 3228 2886 
Q 3006 2619 2597 2516 
z
" transform="scale(0.015625)"/>
       </defs>
       <use xlink:href="#DejaVuSans-33"/>
       <use xlink:href="#DejaVuSans-30" x="63.623047"/>
       <use xlink:href="#DejaVuSans-30" x="127.246094"/>
      </g>
     </g>
    </g>
    <g id="text_8">
     <!-- Generations -->
     <g transform="translate(205.662344 335.860562) scale(0.1 -0.1)">
      <defs>
       <path id="DejaVuSans-47" d="M 3809 666 
L 3809 1919 
L 2778 1919 
L 2778 2438 
L 4434 2438 
L 4434 434 
Q 4069 175 3628 42 
Q 3188 -91 2688 -91 
Q 1594 -91 976 548 
Q 359 1188 359 2328 
Q 359 3472 976 4111 
Q 1594 4750 2688 4750 
Q 3144 4750 3555 4637 
Q 3966 4525 4313 4306 
L 4313 3634 
Q 3963 3931 3569 4081 
Q 3175 4231 2741 4231 
Q 1884 4231 1454 3753 
Q 1025 3275 1025 2328 
Q 1025 1384 1454 906 
Q 1884 428 2741 428 
Q 3075 428 3337 486 
Q 3600 544 3809 666 
z
" transform="scale(0.015625)"/>
       <path id="DejaVuSans-65" d="M 3597 1894 
L 3597 1613 
L 953 1613 
Q 991 1019 1311 708 
Q 1631 397 2203 397 
Q 2534 397 2845 478 
Q 3156 559 3463 722 
L 3463 178 
Q 3153 47 2828 -22 
Q 2503 -91 2169 -91 
Q 1331 -91 842 396 
Q 353 884 353 1716 
Q 353 2575 817 3079 
Q 1281 3584 2069 3584 
Q 2775 3584 3186 3129 
Q 3597 2675 3597 1894 
z
M 3022 2063 
Q 3016 2534 2758 2815 
Q 2500 3097 2075 3097 
Q 1594 3097 1305 2825 
Q 1016 2553 972 2059 
L 3022 2063 
z
" transform="scale(0.015625)"/>
       <path id="DejaVuSans-6e" d="M 3513 2113 
L 3513 0 
L 2938 0 
L 2938 2094 
Q 2938 2591 2744 2837 
Q 2550 3084 2163 3084 
Q 1697 3084 1428 2787 
Q 1159 2491 1159 1978 
L 1159 0 
L 581 0 
L 581 3500 
L 1159 3500 
L 1159 2956 
Q 1366 3272 1645 3428 
Q 1925 3584 2291 3584 
Q 2894 3584 3203 3211 
Q 3513 2838 3513 2113 
z
" transform="scale(0.015625)"/>
       <path id="DejaVuSans-72" d="M 2631 2963 
Q 2534 3019 2420 3045 
Q 2306 3072 2169 3072 
Q 1681 3072 1420 2755 
Q 1159 2438 1159 1844 
L 1159 0 
L 581 0 
L 581 3500 
L 1159 3500 
L 1159 2956 
Q 1341 3275 1631 3429 
Q 1922 3584 2338 3584 
Q 2397 3584 2469 3576 
Q 2541 3569 2628 3553 
L 2631 2963 
z
" transform="scale(0.015625)"/>
       <path id="DejaVuSans-61" d="M 2194 1759 
Q 1497 1759 1228 1600 
Q 959 1441 959 1056 
Q 959 750 1161 570 
Q 1363 391 1709 391 
Q 2188 391 2477 730 
Q 2766 1069 2766 1631 
L 2766 1759 
L 2194 1759 
z
M 3341 1997 
L 3341 0 
L 2766 0 
L 2766 531 
Q 2569 213 2275 61 
Q 1981 -91 1556 -91 
Q 1019 -91 701 211 
Q 384 513 384 1019 
Q 384 1609 779 1909 
Q 1175 2209 1959 2209 
L 2766 2209 
L 2766 2266 
Q 2766 2663 2505 2880 
Q 2244 3097 1772 3097 
Q 1472 3097 1187 3025 
Q 903 2953 641 2809 
L 641 3341 
Q 956 3463 1253 3523 
Q 1550 3584 1831 3584 
Q 2591 3584 2966 3190 
Q 3341 2797 3341 1997 
z
" transform="scale(0.015625)"/>
       <path id="DejaVuSans-74" d="M 1172 4494 
L 1172 3500 
L 2356 3500 
L 2356 3053 
L 1172 3053 
L 1172 1153 
Q 1172 725 1289 603 
Q 1406 481 1766 481 
L 2356 481 
L 2356 0 
L 1766 0 
Q 1100 0 847 248 
Q 594 497 594 1153 
L 594 3053 
L 172 3053 
L 172 3500 
L 594 3500 
L 594 4494 
L 1172 4494 
z
" transform="scale(0.015625)"/>
       <path id="DejaVuSans-69" d="M 603 3500 
L 1178 3500 
L 1178 0 
L 603 0 
L 603 3500 
z
M 603 4863 
L 1178 4863 
L 1178 4134 
L 603 4134 
L 603 4863 
z
" transform="scale(0.015625)"/>
       <path id="DejaVuSans-6f" d="M 1959 3097 
Q 1497 3097 1228 2736 
Q 959 2375 959 1747 
Q 959 1119 1226 758 
Q 1494 397 1959 397 
Q 2419 397 2687 759 
Q 2956 1122 2956 1747 
Q 2956 2369 2687 2733 
Q 2419 3097 1959 3097 
z
M 1959 3584 
Q 2709 3584 3137 3096 
Q 3566 2609 3566 1747 
Q 3566 888 3137 398 
Q 2709 -91 1959 -91 
Q 1206 -91 779 398 
Q 353 888 353 1747 
Q 353 2609 779 3096 
Q 1206 3584 1959 3584 
z
" transform="scale(0.015625)"/>
       <path id="DejaVuSans-73" d="M 2834 3397 
L 2834 2853 
Q 2591 2978 2328 3040 
Q 2066 3103 1784 3103 
Q 1356 3103 1142 2972 
Q 928 2841 928 2578 
Q 928 2378 1081 2264 
Q 1234 2150 1697 2047 
L 1894 2003 
Q 2506 1872 2764 1633 
Q 3022 1394 3022 966 
Q 3022 478 2636 193 
Q 2250 -91 1575 -91 
Q 1294 -91 989 -36 
Q 684 19 347 128 
L 347 722 
Q 666 556 975 473 
Q 1284 391 1588 391 
Q 1994 391 2212 530 
Q 2431 669 2431 922 
Q 2431 1156 2273 1281 
Q 2116 1406 1581 1522 
L 1381 1569 
Q 847 1681 609 1914 
Q 372 2147 372 2553 
Q 372 3047 722 3315 
Q 1072 3584 1716 3584 
Q 2034 3584 2315 3537 
Q 2597 3491 2834 3397 
z
" transform="scale(0.015625)"/>
      </defs>
      <use xlink:href="#DejaVuSans-47"/>
      <use xlink:href="#DejaVuSans-65" x="77.490234"/>
      <use xlink:href="#DejaVuSans-6e" x="139.013672"/>
      <use xlink:href="#DejaVuSans-65" x="202.392578"/>
      <use xlink:href="#DejaVuSans-72" x="263.916016"/>
      <use xlink:href="#DejaVuSans-61" x="305.029297"/>
      <use xlink:href="#DejaVuSans-74" x="366.308594"/>
      <use xlink:href="#DejaVuSans-69" x="405.517578"/>
      <use xlink:href="#DejaVuSans-6f" x="433.300781"/>
      <use xlink:href="#DejaVuSans-6e" x="494.482422"/>
      <use xlink:href="#DejaVuSans-73" x="557.861328"/>
     </g>
    </g>
   </g>
   <g id="matplotlib.axis_2">
    <g id="ytick_1">
     <g id="line2d_15">
      <path d="M 57.6 297.09106 
L 414.72 297.09106 
" clip-path="url(#p99beb43d54)" style="fill: none; stroke: #b0b0b0; stroke-width: 0.8; stroke-linecap: square"/>
     </g>
     <g id="line2d_16">
      <defs>
       <path id="m7a11029bcb" d="M 0 0 
L -3.5 0 
" style="stroke: #000000; stroke-width: 0.8"/>
      </defs>
      <g>
       <use xlink:href="#m7a11029bcb" x="57.6" y="297.09106" style="stroke: #000000; stroke-width: 0.8"/>
      </g>
     </g>
     <g id="text_9">
      <!-- 0 -->
      <g transform="translate(44.2375 300.890279) scale(0.1 -0.1)">
       <use xlink:href="#DejaVuSans-30"/>
      </g>
     </g>
    </g>
    <g id="ytick_2">
     <g id="line2d_17">
      <path d="M 57.6 263.713448 
L 414.72 263.713448 
" clip-path="url(#p99beb43d54)" style="fill: none; stroke: #b0b0b0; stroke-width: 0.8; stroke-linecap: square"/>
     </g>
     <g id="line2d_18">
      <g>
       <use xlink:href="#m7a11029bcb" x="57.6" y="263.713448" style="stroke: #000000; stroke-width: 0.8"/>
      </g>
     </g>
     <g id="text_10">
      <!-- 50 -->
      <g transform="translate(37.875 267.512666) scale(0.1 -0.1)">
       <use xlink:href="#DejaVuSans-35"/>
       <use xlink:href="#DejaVuSans-30" x="63.623047"/>
      </g>
     </g>
    </g>
    <g id="ytick_3">
     <g id="line2d_19">
      <path d="M 57.6 230.335835 
L 414.72 230.335835 
" clip-path="url(#p99beb43d54)" style="fill: none; stroke: #b0b0b0; stroke-width: 0.8; stroke-linecap: square"/>
     </g>
     <g id="line2d_20">
      <g>
       <use xlink:href="#m7a11029bcb" x="57.6" y="230.335835" style="stroke: #000000; stroke-width: 0.8"/>
      </g>
     </g>
     <g id="text_11">
      <!-- 100 -->
      <g transform="translate(31.5125 234.135054) scale(0.1 -0.1)">
       <use xlink:href="#DejaVuSans-31"/>
       <use xlink:href="#DejaVuSans-30" x="63.623047"/>
       <use xlink:href="#DejaVuSans-30" x="127.246094"/>
      </g>
     </g>
    </g>
    <g id="ytick_4">
     <g id="line2d_21">
      <path d="M 57.6 196.958223 
L 414.72 196.958223 
" clip-path="url(#p99beb43d54)" style="fill: none; stroke: #b0b0b0; stroke-width: 0.8; stroke-linecap: square"/>
     </g>
     <g id="line2d_22">
      <g>
       <use xlink:href="#m7a11029bcb" x="57.6" y="196.958223" style="stroke: #000000; stroke-width: 0.8"/>
      </g>
     </g>
     <g id="text_12">
      <!-- 150 -->
      <g transform="translate(31.5125 200.757442) scale(0.1 -0.1)">
       <use xlink:href="#DejaVuSans-31"/>
       <use xlink:href="#DejaVuSans-35" x="63.623047"/>
       <use xlink:href="#DejaVuSans-30" x="127.246094"/>
      </g>
     </g>
    </g>
    <g id="ytick_5">
     <g id="line2d_23">
      <path d="M 57.6 163.58061 
L 414.72 163.58061 
" clip-path="url(#p99beb43d54)" style="fill: none; stroke: #b0b0b0; stroke-width: 0.8; stroke-linecap: square"/>
     </g>
     <g id="line2d_24">
      <g>
       <use xlink:href="#m7a11029bcb" x="57.6" y="163.58061" style="stroke: #000000; stroke-width: 0.8"/>
      </g>
     </g>
     <g id="text_13">
      <!-- 200 -->
      <g transform="translate(31.5125 167.379829) scale(0.1 -0.1)">
       <use xlink:href="#DejaVuSans-32"/>
       <use xlink:href="#DejaVuSans-30" x="63.623047"/>
       <use xlink:href="#DejaVuSans-30" x="127.246094"/>
      </g>
     </g>
    </g>
    <g id="ytick_6">
     <g id="line2d_25">
      <path d="M 57.6 130.202998 
L 414.72 130.202998 
" clip-path="url(#p99beb43d54)" style="fill: none; stroke: #b0b0b0; stroke-width: 0.8; stroke-linecap: square"/>
     </g>
     <g id="line2d_26">
      <g>
       <use xlink:href="#m7a11029bcb" x="57.6" y="130.202998" style="stroke: #000000; stroke-width: 0.8"/>
      </g>
     </g>
     <g id="text_14">
      <!-- 250 -->
      <g transform="translate(31.5125 134.002217) scale(0.1 -0.1)">
       <use xlink:href="#DejaVuSans-32"/>
       <use xlink:href="#DejaVuSans-35" x="63.623047"/>
       <use xlink:href="#DejaVuSans-30" x="127.246094"/>
      </g>
     </g>
    </g>
    <g id="ytick_7">
     <g id="line2d_27">
      <path d="M 57.6 96.825386 
L 414.72 96.825386 
" clip-path="url(#p99beb43d54)" style="fill: none; stroke: #b0b0b0; stroke-width: 0.8; stroke-linecap: square"/>
     </g>
     <g id="line2d_28">
      <g>
       <use xlink:href="#m7a11029bcb" x="57.6" y="96.825386" style="stroke: #000000; stroke-width: 0.8"/>
      </g>
     </g>
     <g id="text_15">
      <!-- 300 -->
      <g transform="translate(31.5125 100.624604) scale(0.1 -0.1)">
       <use xlink:href="#DejaVuSans-33"/>
       <use xlink:href="#DejaVuSans-30" x="63.623047"/>
       <use xlink:href="#DejaVuSans-30" x="127.246094"/>
      </g>
     </g>
    </g>
    <g id="ytick_8">
     <g id="line2d_29">
      <path d="M 57.6 63.447773 
L 414.72 63.447773 
" clip-path="url(#p99beb43d54)" style="fill: none; stroke: #b0b0b0; stroke-width: 0.8; stroke-linecap: square"/>
     </g>
     <g id="line2d_30">
      <g>
       <use xlink:href="#m7a11029bcb" x="57.6" y="63.447773" style="stroke: #000000; stroke-width: 0.8"/>
      </g>
     </g>
     <g id="text_16">
      <!-- 350 -->
      <g transform="translate(31.5125 67.246992) scale(0.1 -0.1)">
       <use xlink:href="#DejaVuSans-33"/>
       <use xlink:href="#DejaVuSans-35" x="63.623047"/>
       <use xlink:href="#DejaVuSans-30" x="127.246094"/>
      </g>
     </g>
    </g>
    <g id="text_17">
     <!-- Fitness -->
     <g transform="translate(25.432812 191.845187) rotate(-90) scale(0.1 -0.1)">
      <defs>
       <path id="DejaVuSans-46" d="M 628 4666 
L 3309 4666 
L 3309 4134 
L 1259 4134 
L 1259 2759 
L 3109 2759 
L 3109 2228 
L 1259 2228 
L 1259 0 
L 628 0 
L 628 4666 
z
" transform="scale(0.015625)"/>
      </defs>
      <use xlink:href="#DejaVuSans-46"/>
      <use xlink:href="#DejaVuSans-69" x="50.269531"/>
      <use xlink:href="#DejaVuSans-74" x="78.052734"/>
      <use xlink:href="#DejaVuSans-6e" x="117.261719"/>
      <use xlink:href="#DejaVuSans-65" x="180.640625"/>
      <use xlink:href="#DejaVuSans-73" x="242.164062"/>
      <use xlink:href="#DejaVuSans-73" x="294.263672"/>
     </g>
    </g>
   </g>
   <g id="line2d_31">
    <path d="M 73.832727 295.488 
L 74.918528 294.761169 
L 76.00433 294.921782 
L 77.090131 294.385604 
L 79.261733 294.562239 
L 80.347534 294.111774 
L 81.433335 293.891349 
L 82.519137 294.026995 
L 83.604938 293.112983 
L 84.690739 292.568527 
L 85.77654 293.088817 
L 86.862341 292.337287 
L 87.948142 291.858919 
L 89.033943 291.520737 
L 91.205546 291.666797 
L 92.291347 290.78643 
L 93.377148 288.343989 
L 94.462949 289.777892 
L 95.54875 287.801403 
L 96.634552 289.666143 
L 97.720353 287.40995 
L 98.806154 287.677505 
L 99.891955 286.85962 
L 100.977756 284.970981 
L 102.063557 286.839594 
L 103.149358 282.043231 
L 104.23516 285.198216 
L 105.320961 283.126802 
L 106.406762 284.406766 
L 107.492563 284.14295 
L 108.578364 285.214771 
L 109.664165 287.118497 
L 110.749967 286.594869 
L 111.835768 285.285265 
L 112.921569 286.509689 
L 114.00737 285.501018 
L 115.093171 285.197549 
L 116.178972 282.014793 
L 117.264773 281.256988 
L 118.350575 281.534155 
L 119.436376 282.111989 
L 120.522177 278.313349 
L 121.607978 283.830936 
L 122.693779 279.710002 
L 123.77958 281.127349 
L 124.865382 281.672606 
L 125.951183 280.523214 
L 127.036984 280.903586 
L 128.122785 282.564322 
L 129.208586 277.247135 
L 130.294387 276.928846 
L 132.46599 281.399844 
L 133.551791 277.064359 
L 134.637592 280.171681 
L 135.723393 280.283429 
L 136.809194 278.109212 
L 137.894995 277.402942 
L 138.980797 280.077556 
L 140.066598 274.399757 
L 141.152399 277.087857 
L 142.2382 278.945521 
L 143.324001 274.195754 
L 144.409802 275.918973 
L 145.495604 277.146067 
L 146.581405 273.428869 
L 147.667206 276.785856 
L 148.753007 273.750496 
L 149.838808 276.467968 
L 150.924609 275.095347 
L 152.01041 277.440992 
L 153.096212 276.85408 
L 154.182013 278.65527 
L 155.267814 274.364511 
L 156.353615 277.756744 
L 157.439416 275.299084 
L 158.525217 278.527901 
L 159.611019 274.387475 
L 160.69682 276.562627 
L 161.782621 273.535277 
L 162.868422 272.020067 
L 163.954223 280.044179 
L 165.040024 278.255139 
L 166.125825 274.869581 
L 167.211627 276.712425 
L 168.297428 272.021936 
L 169.383229 278.368756 
L 171.554831 274.199225 
L 172.640632 278.02737 
L 173.726434 276.905482 
L 174.812235 276.742732 
L 175.898036 279.197188 
L 176.983837 279.447788 
L 178.069638 275.405091 
L 179.155439 277.365692 
L 180.24124 276.097209 
L 181.327042 276.682786 
L 182.412843 278.296126 
L 183.498644 278.931903 
L 184.584445 277.74593 
L 185.670246 275.587466 
L 186.756047 276.556886 
L 187.841849 277.285452 
L 188.92765 276.585324 
L 190.013451 282.583815 
L 191.099252 281.669401 
L 192.185053 279.86888 
L 193.270854 277.004813 
L 194.356656 278.453936 
L 195.442457 274.444083 
L 196.528258 275.05209 
L 197.614059 278.005741 
L 198.69986 275.653421 
L 199.785661 274.567714 
L 200.871462 276.582653 
L 201.957264 273.943285 
L 203.043065 273.346093 
L 204.128866 280.380625 
L 205.214667 277.379978 
L 206.300468 274.851023 
L 207.386269 276.403153 
L 208.472071 277.693594 
L 209.557872 278.192522 
L 210.643673 277.495731 
L 211.729474 275.418309 
L 212.815275 277.899405 
L 213.901076 275.503364 
L 214.986877 278.35447 
L 216.072679 279.786487 
L 217.15848 274.163177 
L 218.244281 277.395032 
L 219.330082 275.758627 
L 220.415883 277.87143 
L 221.501684 279.540978 
L 222.587486 271.81139 
L 223.673287 276.316834 
L 224.759088 272.794962 
L 225.844889 278.003739 
L 226.93069 278.944854 
L 229.102292 271.521272 
L 230.188094 279.837734 
L 231.273895 277.074506 
L 232.359696 275.909227 
L 234.531298 279.214143 
L 235.617099 280.031931 
L 236.702901 276.369704 
L 237.788702 277.431051 
L 238.874503 277.587959 
L 239.960304 280.777273 
L 242.131906 275.439804 
L 244.303509 278.254071 
L 245.38931 278.044993 
L 246.475111 284.43308 
L 247.560912 277.806544 
L 248.646713 281.91693 
L 249.732514 280.970797 
L 250.818316 283.22106 
L 251.904117 282.778608 
L 254.075719 282.534549 
L 255.16152 280.26594 
L 256.247321 278.540774 
L 257.333123 281.87968 
L 258.418924 282.493108 
L 259.504725 278.128126 
L 260.590526 283.080554 
L 262.762128 277.011898 
L 263.847929 276.539796 
L 264.933731 275.455558 
L 266.019532 277.029379 
L 267.105333 279.34405 
L 268.191134 275.71752 
L 269.276935 278.421408 
L 270.362736 276.068848 
L 271.448538 278.482106 
L 272.534339 277.148432 
L 273.62014 280.149251 
L 274.705941 274.758901 
L 275.791742 276.340198 
L 276.877543 275.102289 
L 277.963344 279.823753 
L 279.049146 279.737668 
L 280.134947 278.825762 
L 281.220748 273.477556 
L 282.306549 273.725806 
L 283.39235 275.939801 
L 284.478151 273.580404 
L 285.563953 275.402154 
L 286.649754 275.167977 
L 287.735555 275.298416 
L 288.821356 278.119759 
L 289.907157 274.913239 
L 290.992958 274.387001 
L 292.07876 272.764655 
L 293.164561 278.623227 
L 294.250362 276.928445 
L 295.336163 281.319204 
L 296.421964 276.23566 
L 297.507765 278.584219 
L 298.593566 279.913205 
L 299.679368 276.813092 
L 300.765169 274.704562 
L 302.936771 275.458798 
L 304.022572 276.942086 
L 306.194175 277.08108 
L 307.279976 278.221044 
L 308.365777 276.569836 
L 309.451578 278.085253 
L 310.537379 274.893346 
L 311.62318 276.501078 
L 312.708981 274.79121 
L 313.794783 273.349831 
L 314.880584 272.0983 
L 315.966385 276.56667 
L 317.052186 274.570918 
L 318.137987 274.415322 
L 319.223788 279.359804 
L 320.30959 278.669155 
L 321.395391 278.818199 
L 322.481192 274.919694 
L 323.566993 278.352334 
L 324.652794 276.521906 
L 325.738595 278.198397 
L 326.824396 277.5227 
L 327.910198 273.404323 
L 328.995999 276.333256 
L 330.0818 276.453549 
L 331.167601 277.15528 
L 332.253402 277.078383 
L 333.339203 273.297912 
L 334.425005 277.393245 
L 335.510806 275.141275 
L 336.596607 277.13325 
L 337.682408 278.566816 
L 338.768209 280.373304 
L 339.85401 280.056581 
L 342.025613 277.734849 
L 343.111414 277.263957 
L 344.197215 277.543916 
L 345.283016 277.122703 
L 346.368817 275.863299 
L 347.454618 274.022041 
L 348.54042 274.274658 
L 349.626221 277.255453 
L 350.712022 279.62115 
L 351.797823 280.201327 
L 352.883624 280.256994 
L 353.969425 281.695552 
L 355.055227 276.365479 
L 356.141028 281.693033 
L 357.226829 280.032066 
L 358.31263 276.786524 
L 359.398431 273.909019 
L 360.484232 271.359146 
L 361.570033 273.861443 
L 362.655835 278.1757 
L 363.741636 277.241757 
L 364.827437 274.3816 
L 365.913238 277.092781 
L 366.999039 273.532678 
L 368.08484 277.550204 
L 369.170642 275.503478 
L 370.256443 279.262075 
L 371.342244 276.70494 
L 372.428045 273.581472 
L 373.513846 274.684865 
L 374.599647 279.310405 
L 375.685448 278.263659 
L 376.77125 276.482171 
L 377.857051 276.238616 
L 378.942852 278.965414 
L 380.028653 279.554326 
L 381.114454 277.882952 
L 382.200255 278.441538 
L 383.286057 272.129497 
L 384.371858 276.936798 
L 385.457659 276.316834 
L 386.54346 275.044296 
L 387.629261 276.356094 
L 388.715062 278.772752 
L 389.800863 275.905488 
L 390.886665 279.543741 
L 391.972466 275.173932 
L 393.058267 273.603368 
L 394.144068 267.471564 
L 395.229869 277.73601 
L 396.31567 272.731087 
L 397.401472 272.362093 
L 398.487273 270.302989 
L 398.487273 270.302989 
" clip-path="url(#p99beb43d54)" style="fill: none; stroke: #0000ff; stroke-width: 1.5; stroke-linecap: square"/>
   </g>
   <g id="line2d_32">
    <path d="M 73.832727 294.162615 
L 74.918528 293.045458 
L 76.00433 293.130655 
L 77.090131 291.766907 
L 78.175932 292.306415 
L 79.261733 291.935212 
L 80.347534 289.307481 
L 81.433335 287.736145 
L 82.519137 288.617489 
L 83.604938 283.483934 
L 84.690739 283.56626 
L 85.77654 286.516994 
L 86.862341 286.620373 
L 87.948142 282.003844 
L 89.033943 284.804097 
L 90.119745 281.844446 
L 91.205546 284.577737 
L 92.291347 280.406098 
L 93.377148 274.530705 
L 94.462949 278.969235 
L 95.54875 273.931685 
L 96.634552 279.829433 
L 97.720353 274.794601 
L 98.806154 275.282621 
L 99.891955 274.825396 
L 100.977756 268.210945 
L 102.063557 272.265296 
L 103.149358 264.768982 
L 104.23516 270.619874 
L 105.320961 267.05855 
L 106.406762 269.879386 
L 107.492563 266.949722 
L 108.578364 268.269462 
L 109.664165 272.104855 
L 110.749967 272.9211 
L 111.835768 269.277331 
L 112.921569 272.31303 
L 114.00737 273.131799 
L 115.093171 269.525901 
L 116.178972 265.348428 
L 117.264773 262.45573 
L 118.350575 261.833564 
L 119.436376 265.324994 
L 120.522177 256.709321 
L 121.607978 267.641635 
L 122.693779 259.040168 
L 123.77958 260.861042 
L 125.951183 261.036856 
L 127.036984 262.984885 
L 128.122785 266.260452 
L 129.208586 255.704218 
L 130.294387 257.201884 
L 131.380189 262.889961 
L 132.46599 265.87568 
L 133.551791 257.332387 
L 134.637592 262.93446 
L 135.723393 262.4869 
L 136.809194 260.142699 
L 137.894995 256.705775 
L 138.980797 264.544446 
L 140.066598 252.629595 
L 141.152399 255.551288 
L 142.2382 259.994464 
L 143.324001 254.838974 
L 144.409802 256.896217 
L 145.495604 256.837606 
L 146.581405 252.098311 
L 147.667206 254.813647 
L 148.753007 250.730773 
L 149.838808 257.26623 
L 150.924609 252.163455 
L 152.01041 258.1944 
L 153.096212 256.150586 
L 154.182013 261.700381 
L 155.267814 249.420874 
L 156.353615 259.307544 
L 157.439416 252.009002 
L 158.525217 260.999742 
L 159.611019 253.826811 
L 160.69682 256.48203 
L 161.782621 251.183158 
L 162.868422 247.065552 
L 163.954223 262.129096 
L 165.040024 259.411591 
L 166.125825 252.156526 
L 167.211627 259.23386 
L 168.297428 249.132105 
L 169.383229 259.553441 
L 170.46903 254.077592 
L 171.554831 251.985728 
L 172.640632 259.513494 
L 173.726434 256.176385 
L 174.812235 257.996751 
L 175.898036 261.559103 
L 176.983837 261.70189 
L 178.069638 255.658122 
L 179.155439 258.014963 
L 180.24124 255.764252 
L 181.327042 256.874628 
L 182.412843 258.182149 
L 183.498644 261.387634 
L 184.584445 257.734953 
L 185.670246 252.726167 
L 186.756047 256.465351 
L 187.841849 254.901897 
L 188.92765 253.842611 
L 190.013451 264.494045 
L 191.099252 264.59708 
L 192.185053 259.718749 
L 193.270854 256.477682 
L 194.356656 261.21018 
L 195.442457 252.381349 
L 196.528258 255.866438 
L 197.614059 258.13507 
L 198.69986 253.607682 
L 199.785661 254.543528 
L 200.871462 253.710611 
L 201.957264 249.229156 
L 203.043065 250.37573 
L 204.128866 263.824631 
L 205.214667 255.937901 
L 206.300468 253.973157 
L 207.386269 254.048449 
L 208.472071 256.059358 
L 209.557872 259.551569 
L 210.643673 256.31898 
L 211.729474 253.54759 
L 212.815275 256.174868 
L 213.901076 253.823571 
L 214.986877 257.028506 
L 216.072679 261.813373 
L 217.15848 252.323369 
L 218.244281 258.700586 
L 220.415883 255.310279 
L 221.501684 259.843014 
L 222.587486 247.993198 
L 223.673287 252.800788 
L 224.759088 249.148071 
L 225.844889 257.094329 
L 226.93069 259.821409 
L 228.016491 251.846536 
L 229.102292 248.360916 
L 230.188094 261.36214 
L 231.273895 256.731449 
L 232.359696 255.850146 
L 233.445497 255.477162 
L 234.531298 260.413714 
L 235.617099 262.615174 
L 236.702901 256.335031 
L 237.788702 258.184229 
L 238.874503 256.938867 
L 239.960304 263.151953 
L 241.046105 259.703311 
L 242.131906 251.678115 
L 243.217708 255.464863 
L 244.303509 256.731569 
L 245.38931 257.533587 
L 246.475111 268.69763 
L 247.560912 254.769551 
L 248.646713 262.488926 
L 249.732514 261.464335 
L 250.818316 265.33042 
L 251.904117 263.203501 
L 252.989918 264.14047 
L 254.075719 264.065226 
L 255.16152 261.299889 
L 256.247321 257.864286 
L 257.333123 262.93947 
L 258.418924 263.642039 
L 259.504725 248.272879 
L 260.590526 266.098944 
L 261.676327 262.780351 
L 262.762128 254.732208 
L 263.847929 255.580947 
L 264.933731 254.432822 
L 266.019532 256.010971 
L 267.105333 260.778358 
L 268.191134 254.275345 
L 269.276935 255.313914 
L 270.362736 255.033401 
L 271.448538 259.440091 
L 272.534339 257.845193 
L 273.62014 261.680593 
L 274.705941 248.576475 
L 275.791742 254.103883 
L 276.877543 254.596746 
L 277.963344 260.945206 
L 279.049146 261.385607 
L 280.134947 262.639211 
L 281.220748 252.700122 
L 282.306549 251.227032 
L 283.39235 255.605252 
L 284.478151 252.853378 
L 285.563953 253.663882 
L 286.649754 254.009878 
L 287.735555 254.156448 
L 288.821356 258.811279 
L 289.907157 256.332607 
L 292.07876 248.53973 
L 293.164561 257.175287 
L 294.250362 257.13212 
L 295.336163 261.824511 
L 296.421964 254.207395 
L 297.507765 257.412423 
L 298.593566 261.248716 
L 299.679368 256.086987 
L 300.765169 253.843965 
L 301.85097 252.968844 
L 302.936771 245.381424 
L 304.022572 253.6868 
L 305.108373 257.681492 
L 306.194175 252.86962 
L 307.279976 257.853426 
L 308.365777 255.425846 
L 309.451578 256.478837 
L 310.537379 253.627067 
L 311.62318 254.811947 
L 312.708981 251.946714 
L 313.794783 251.636024 
L 314.880584 247.231575 
L 315.966385 253.804057 
L 317.052186 249.607537 
L 318.137987 251.737065 
L 319.223788 259.873523 
L 320.30959 258.006753 
L 321.395391 258.738508 
L 322.481192 255.126611 
L 323.566993 260.634527 
L 324.652794 253.371408 
L 325.738595 250.923962 
L 326.824396 256.740089 
L 327.910198 250.658732 
L 328.995999 256.826028 
L 330.0818 250.839965 
L 331.167601 257.08061 
L 332.253402 258.159941 
L 333.339203 250.661581 
L 334.425005 256.342118 
L 335.510806 252.554266 
L 336.596607 256.93062 
L 337.682408 257.436908 
L 338.768209 260.249305 
L 339.85401 259.472978 
L 340.939811 259.10728 
L 342.025613 256.200683 
L 343.111414 255.589603 
L 344.197215 257.051984 
L 345.283016 255.17643 
L 346.368817 255.338388 
L 347.454618 249.292417 
L 348.54042 250.402273 
L 350.712022 262.7091 
L 351.797823 259.291775 
L 352.883624 259.329992 
L 353.969425 264.331714 
L 355.055227 254.538397 
L 356.141028 263.836018 
L 357.226829 261.975331 
L 358.31263 256.211025 
L 360.484232 246.563834 
L 361.570033 250.788372 
L 362.655835 256.91343 
L 363.741636 256.34488 
L 364.827437 252.789177 
L 365.913238 256.491348 
L 366.999039 239.004567 
L 368.08484 258.106911 
L 369.170642 253.285261 
L 370.256443 260.501693 
L 371.342244 252.167351 
L 372.428045 241.915651 
L 373.513846 252.051244 
L 374.599647 260.511118 
L 375.685448 258.054375 
L 376.77125 256.589667 
L 377.857051 253.731943 
L 378.942852 259.606646 
L 380.028653 260.248088 
L 381.114454 257.177188 
L 382.200255 257.548404 
L 383.286057 245.382463 
L 384.371858 253.940082 
L 385.457659 252.383886 
L 386.54346 250.038957 
L 387.629261 254.31928 
L 388.715062 259.367399 
L 389.800863 253.69584 
L 390.886665 259.203518 
L 393.058267 247.734426 
L 394.144068 240.753434 
L 395.229869 258.224267 
L 396.31567 250.06207 
L 397.401472 248.59246 
L 398.487273 246.482969 
L 398.487273 246.482969 
" clip-path="url(#p99beb43d54)" style="fill: none; stroke-dasharray: 9.6,2.4,1.5,2.4; stroke-dashoffset: 0; stroke: #008000; stroke-width: 1.5"/>
   </g>
   <g id="line2d_33">
    <path d="M 73.832727 289.067082 
L 74.918528 284.220653 
L 76.00433 284.007036 
L 77.090131 278.372895 
L 78.175932 283.486345 
L 79.261733 279.534436 
L 80.347534 250.642775 
L 81.433335 252.325006 
L 82.519137 245.689537 
L 83.604938 204.84869 
L 84.690739 211.590968 
L 85.77654 250.108733 
L 86.862341 258.226168 
L 87.948142 240.936565 
L 89.033943 257.331648 
L 90.119745 221.043508 
L 91.205546 253.593356 
L 92.291347 234.621521 
L 93.377148 204.688478 
L 94.462949 226.450681 
L 95.54875 229.24105 
L 96.634552 240.148853 
L 97.720353 227.772435 
L 98.806154 234.714978 
L 99.891955 243.68688 
L 100.977756 219.28117 
L 102.063557 206.477518 
L 103.149358 220.923349 
L 104.23516 228.253072 
L 105.320961 206.050284 
L 106.406762 234.194287 
L 107.492563 209.214482 
L 108.578364 214.381336 
L 109.664165 209.267886 
L 110.749967 228.239721 
L 111.835768 205.850019 
L 112.921569 207.639059 
L 114.00737 250.482562 
L 115.093171 216.383993 
L 116.178972 214.955431 
L 117.264773 192.352112 
L 118.350575 206.677784 
L 119.436376 235.622849 
L 120.522177 210.736501 
L 121.607978 195.930192 
L 122.693779 192.245304 
L 123.77958 184.768719 
L 124.865382 195.462906 
L 125.951183 192.565729 
L 127.036984 223.393292 
L 128.122785 214.688411 
L 129.208586 211.377351 
L 130.294387 228.239721 
L 131.380189 229.401262 
L 132.46599 221.283827 
L 133.551791 204.154436 
L 134.637592 226.504085 
L 135.723393 205.476189 
L 136.809194 216.063568 
L 137.894995 209.267886 
L 138.980797 229.828495 
L 140.066598 180.336172 
L 141.152399 202.472204 
L 142.2382 218.066225 
L 143.324001 202.739225 
L 144.409802 211.377351 
L 145.495604 185.396218 
L 146.581405 204.528265 
L 147.667206 207.919431 
L 148.753007 196.464234 
L 149.838808 211.590968 
L 150.924609 191.871475 
L 152.01041 216.330589 
L 153.096212 194.835407 
L 154.182013 209.214482 
L 156.353615 181.604521 
L 157.439416 202.739225 
L 158.525217 197.932849 
L 160.69682 216.85128 
L 161.782621 218.333246 
L 162.868422 197.785988 
L 163.954223 197.986253 
L 165.040024 202.4188 
L 166.125825 196.304022 
L 167.211627 210.429427 
L 168.297428 202.579013 
L 169.383229 203.046299 
L 170.46903 202.044971 
L 171.554831 192.405516 
L 172.640632 218.012821 
L 173.726434 197.105084 
L 174.812235 209.05427 
L 175.898036 218.800532 
L 176.983837 210.162406 
L 178.069638 208.8006 
L 179.155439 225.262438 
L 180.24124 215.689739 
L 181.327042 220.709732 
L 182.412843 204.528265 
L 183.498644 216.958088 
L 184.584445 216.958088 
L 185.670246 148.841057 
L 186.756047 205.99688 
L 187.841849 194.461577 
L 188.92765 198.19987 
L 190.013451 217.759151 
L 191.099252 211.590968 
L 192.185053 199.468219 
L 193.270854 191.564401 
L 194.356656 226.290469 
L 195.442457 205.890072 
L 196.528258 214.648357 
L 197.614059 206.837996 
L 198.69986 193.033016 
L 199.785661 216.383993 
L 200.871462 195.729927 
L 201.957264 180.229363 
L 203.043065 206.37071 
L 204.128866 227.184989 
L 205.214667 184.39489 
L 206.300468 219.601595 
L 207.386269 184.02106 
L 208.472071 196.677851 
L 209.557872 217.171705 
L 210.643673 211.644372 
L 211.729474 195.51631 
L 212.815275 181.804787 
L 213.901076 185.075793 
L 214.986877 216.424046 
L 216.072679 214.594953 
L 217.15848 222.018134 
L 218.244281 209.534907 
L 219.330082 209.161078 
L 220.415883 185.663239 
L 221.501684 222.765793 
L 222.587486 190.296051 
L 223.673287 185.770047 
L 224.759088 208.586983 
L 225.844889 204.528265 
L 226.93069 199.308007 
L 228.016491 179.014418 
L 230.188094 221.444039 
L 231.273895 203.420129 
L 232.359696 219.588244 
L 233.445497 182.552445 
L 234.531298 192.352112 
L 235.617099 206.050284 
L 236.702901 194.247961 
L 237.788702 219.815212 
L 238.874503 216.010164 
L 239.960304 225.809831 
L 241.046105 220.17569 
L 242.131906 182.712658 
L 243.217708 197.251946 
L 244.303509 197.30535 
L 245.38931 210.696448 
L 246.475111 231.510727 
L 247.560912 202.098375 
L 248.646713 204.474861 
L 249.732514 218.533511 
L 250.818316 193.300036 
L 251.904117 201.858056 
L 252.989918 218.760479 
L 254.075719 198.253274 
L 255.16152 227.358552 
L 256.247321 183.807444 
L 257.333123 218.333246 
L 258.418924 204.581669 
L 259.504725 53.568 
L 260.590526 217.959417 
L 261.676327 216.59761 
L 262.762128 214.741815 
L 263.847929 218.066225 
L 264.933731 222.699037 
L 266.019532 203.580341 
L 267.105333 199.254603 
L 268.191134 185.449622 
L 269.276935 100.363413 
L 270.362736 210.97682 
L 271.448538 208.373366 
L 272.534339 216.704418 
L 273.62014 220.389307 
L 274.705941 146.851751 
L 275.791742 189.922222 
L 276.877543 218.279842 
L 277.963344 218.38665 
L 279.049146 219.654999 
L 280.134947 227.398605 
L 281.220748 215.31591 
L 282.306549 201.991567 
L 283.39235 202.311992 
L 284.478151 199.73524 
L 285.563953 207.545601 
L 286.649754 198.413487 
L 287.735555 185.075793 
L 289.907157 222.712389 
L 290.992958 210.33597 
L 292.07876 190.830093 
L 293.164561 194.982268 
L 294.250362 219.761808 
L 295.336163 195.783331 
L 296.421964 211.217139 
L 297.507765 209.94879 
L 298.593566 217.331917 
L 299.679368 214.381336 
L 300.765169 210.643044 
L 301.85097 199.842049 
L 302.936771 105.116385 
L 304.022572 181.604521 
L 305.108373 216.85128 
L 306.194175 193.033016 
L 307.279976 215.849951 
L 308.365777 217.385322 
L 309.451578 181.764734 
L 310.537379 205.369381 
L 311.62318 206.904751 
L 312.708981 217.011492 
L 313.794783 202.4188 
L 314.880584 208.213154 
L 315.966385 187.612491 
L 317.052186 193.406845 
L 318.137987 201.938163 
L 319.223788 214.635006 
L 320.30959 207.372038 
L 321.395391 214.007507 
L 322.481192 209.000865 
L 323.566993 218.693724 
L 324.652794 183.179944 
L 325.738595 95.463579 
L 326.824396 183.927603 
L 327.910198 208.693791 
L 328.995999 202.4188 
L 330.0818 107.012233 
L 331.167601 202.365396 
L 332.253402 229.828495 
L 333.339203 208.106345 
L 334.425005 208.947461 
L 335.510806 183.553774 
L 336.596607 220.549519 
L 337.682408 191.617805 
L 339.85401 215.809898 
L 342.025613 220.335903 
L 343.111414 185.503026 
L 344.197215 208.052941 
L 345.283016 195.823384 
L 346.368817 208.413419 
L 347.454618 195.663171 
L 348.54042 198.306678 
L 349.626221 215.06224 
L 350.712022 219.28117 
L 351.797823 205.476189 
L 352.883624 199.948857 
L 353.969425 222.445368 
L 355.055227 191.243976 
L 356.141028 222.752442 
L 357.226829 207.639059 
L 358.31263 205.796615 
L 359.398431 214.221124 
L 360.484232 183.487018 
L 361.570033 199.788644 
L 362.655835 195.623118 
L 363.741636 194.461577 
L 364.827437 209.214482 
L 365.913238 194.514982 
L 366.999039 64.208783 
L 368.08484 222.124943 
L 369.170642 210.696448 
L 370.256443 205.689806 
L 371.342244 199.361411 
L 372.428045 71.124624 
L 373.513846 203.153108 
L 374.599647 194.247961 
L 375.685448 210.683097 
L 376.77125 184.288081 
L 377.857051 203.099703 
L 378.942852 209.895385 
L 380.028653 203.580341 
L 381.114454 191.617805 
L 382.200255 203.900766 
L 383.286057 192.926207 
L 384.371858 199.628432 
L 385.457659 183.713986 
L 386.54346 193.300036 
L 387.629261 206.584326 
L 388.715062 194.568386 
L 389.800863 202.365396 
L 390.886665 189.548393 
L 391.972466 206.263901 
L 393.058267 180.069151 
L 394.144068 186.864833 
L 395.229869 202.832683 
L 396.31567 216.490802 
L 397.401472 198.360083 
L 398.487273 205.582998 
L 398.487273 205.582998 
" clip-path="url(#p99beb43d54)" style="fill: none; stroke: #ff0000; stroke-width: 1.5; stroke-linecap: square"/>
   </g>
   <g id="patch_3">
    <path d="M 57.6 307.584 
L 57.6 41.472 
" style="fill: none; stroke: #000000; stroke-width: 0.8; stroke-linejoin: miter; stroke-linecap: square"/>
   </g>
   <g id="patch_4">
    <path d="M 414.72 307.584 
L 414.72 41.472 
" style="fill: none; stroke: #000000; stroke-width: 0.8; stroke-linejoin: miter; stroke-linecap: square"/>
   </g>
   <g id="patch_5">
    <path d="M 57.6 307.584 
L 414.72 307.584 
" style="fill: none; stroke: #000000; stroke-width: 0.8; stroke-linejoin: miter; stroke-linecap: square"/>
   </g>
   <g id="patch_6">
    <path d="M 57.6 41.472 
L 414.72 41.472 
" style="fill: none; stroke: #000000; stroke-width: 0.8; stroke-linejoin: miter; stroke-linecap: square"/>
   </g>
   <g id="text_18">
    <!-- Population's average and best fitness -->
    <g transform="translate(123.529687 35.472) scale(0.12 -0.12)">
     <defs>
      <path id="DejaVuSans-50" d="M 1259 4147 
L 1259 2394 
L 2053 2394 
Q 2494 2394 2734 2622 
Q 2975 2850 2975 3272 
Q 2975 3691 2734 3919 
Q 2494 4147 2053 4147 
L 1259 4147 
z
M 628 4666 
L 2053 4666 
Q 2838 4666 3239 4311 
Q 3641 3956 3641 3272 
Q 3641 2581 3239 2228 
Q 2838 1875 2053 1875 
L 1259 1875 
L 1259 0 
L 628 0 
L 628 4666 
z
" transform="scale(0.015625)"/>
      <path id="DejaVuSans-70" d="M 1159 525 
L 1159 -1331 
L 581 -1331 
L 581 3500 
L 1159 3500 
L 1159 2969 
Q 1341 3281 1617 3432 
Q 1894 3584 2278 3584 
Q 2916 3584 3314 3078 
Q 3713 2572 3713 1747 
Q 3713 922 3314 415 
Q 2916 -91 2278 -91 
Q 1894 -91 1617 61 
Q 1341 213 1159 525 
z
M 3116 1747 
Q 3116 2381 2855 2742 
Q 2594 3103 2138 3103 
Q 1681 3103 1420 2742 
Q 1159 2381 1159 1747 
Q 1159 1113 1420 752 
Q 1681 391 2138 391 
Q 2594 391 2855 752 
Q 3116 1113 3116 1747 
z
" transform="scale(0.015625)"/>
      <path id="DejaVuSans-75" d="M 544 1381 
L 544 3500 
L 1119 3500 
L 1119 1403 
Q 1119 906 1312 657 
Q 1506 409 1894 409 
Q 2359 409 2629 706 
Q 2900 1003 2900 1516 
L 2900 3500 
L 3475 3500 
L 3475 0 
L 2900 0 
L 2900 538 
Q 2691 219 2414 64 
Q 2138 -91 1772 -91 
Q 1169 -91 856 284 
Q 544 659 544 1381 
z
M 1991 3584 
L 1991 3584 
z
" transform="scale(0.015625)"/>
      <path id="DejaVuSans-6c" d="M 603 4863 
L 1178 4863 
L 1178 0 
L 603 0 
L 603 4863 
z
" transform="scale(0.015625)"/>
      <path id="DejaVuSans-27" d="M 1147 4666 
L 1147 2931 
L 616 2931 
L 616 4666 
L 1147 4666 
z
" transform="scale(0.015625)"/>
      <path id="DejaVuSans-20" transform="scale(0.015625)"/>
      <path id="DejaVuSans-76" d="M 191 3500 
L 800 3500 
L 1894 563 
L 2988 3500 
L 3597 3500 
L 2284 0 
L 1503 0 
L 191 3500 
z
" transform="scale(0.015625)"/>
      <path id="DejaVuSans-67" d="M 2906 1791 
Q 2906 2416 2648 2759 
Q 2391 3103 1925 3103 
Q 1463 3103 1205 2759 
Q 947 2416 947 1791 
Q 947 1169 1205 825 
Q 1463 481 1925 481 
Q 2391 481 2648 825 
Q 2906 1169 2906 1791 
z
M 3481 434 
Q 3481 -459 3084 -895 
Q 2688 -1331 1869 -1331 
Q 1566 -1331 1297 -1286 
Q 1028 -1241 775 -1147 
L 775 -588 
Q 1028 -725 1275 -790 
Q 1522 -856 1778 -856 
Q 2344 -856 2625 -561 
Q 2906 -266 2906 331 
L 2906 616 
Q 2728 306 2450 153 
Q 2172 0 1784 0 
Q 1141 0 747 490 
Q 353 981 353 1791 
Q 353 2603 747 3093 
Q 1141 3584 1784 3584 
Q 2172 3584 2450 3431 
Q 2728 3278 2906 2969 
L 2906 3500 
L 3481 3500 
L 3481 434 
z
" transform="scale(0.015625)"/>
      <path id="DejaVuSans-64" d="M 2906 2969 
L 2906 4863 
L 3481 4863 
L 3481 0 
L 2906 0 
L 2906 525 
Q 2725 213 2448 61 
Q 2172 -91 1784 -91 
Q 1150 -91 751 415 
Q 353 922 353 1747 
Q 353 2572 751 3078 
Q 1150 3584 1784 3584 
Q 2172 3584 2448 3432 
Q 2725 3281 2906 2969 
z
M 947 1747 
Q 947 1113 1208 752 
Q 1469 391 1925 391 
Q 2381 391 2643 752 
Q 2906 1113 2906 1747 
Q 2906 2381 2643 2742 
Q 2381 3103 1925 3103 
Q 1469 3103 1208 2742 
Q 947 2381 947 1747 
z
" transform="scale(0.015625)"/>
      <path id="DejaVuSans-62" d="M 3116 1747 
Q 3116 2381 2855 2742 
Q 2594 3103 2138 3103 
Q 1681 3103 1420 2742 
Q 1159 2381 1159 1747 
Q 1159 1113 1420 752 
Q 1681 391 2138 391 
Q 2594 391 2855 752 
Q 3116 1113 3116 1747 
z
M 1159 2969 
Q 1341 3281 1617 3432 
Q 1894 3584 2278 3584 
Q 2916 3584 3314 3078 
Q 3713 2572 3713 1747 
Q 3713 922 3314 415 
Q 2916 -91 2278 -91 
Q 1894 -91 1617 61 
Q 1341 213 1159 525 
L 1159 0 
L 581 0 
L 581 4863 
L 1159 4863 
L 1159 2969 
z
" transform="scale(0.015625)"/>
      <path id="DejaVuSans-66" d="M 2375 4863 
L 2375 4384 
L 1825 4384 
Q 1516 4384 1395 4259 
Q 1275 4134 1275 3809 
L 1275 3500 
L 2222 3500 
L 2222 3053 
L 1275 3053 
L 1275 0 
L 697 0 
L 697 3053 
L 147 3053 
L 147 3500 
L 697 3500 
L 697 3744 
Q 697 4328 969 4595 
Q 1241 4863 1831 4863 
L 2375 4863 
z
" transform="scale(0.015625)"/>
     </defs>
     <use xlink:href="#DejaVuSans-50"/>
     <use xlink:href="#DejaVuSans-6f" x="56.677734"/>
     <use xlink:href="#DejaVuSans-70" x="117.859375"/>
     <use xlink:href="#DejaVuSans-75" x="181.335938"/>
     <use xlink:href="#DejaVuSans-6c" x="244.714844"/>
     <use xlink:href="#DejaVuSans-61" x="272.498047"/>
     <use xlink:href="#DejaVuSans-74" x="333.777344"/>
     <use xlink:href="#DejaVuSans-69" x="372.986328"/>
     <use xlink:href="#DejaVuSans-6f" x="400.769531"/>
     <use xlink:href="#DejaVuSans-6e" x="461.951172"/>
     <use xlink:href="#DejaVuSans-27" x="525.330078"/>
     <use xlink:href="#DejaVuSans-73" x="552.820312"/>
     <use xlink:href="#DejaVuSans-20" x="604.919922"/>
     <use xlink:href="#DejaVuSans-61" x="636.707031"/>
     <use xlink:href="#DejaVuSans-76" x="697.986328"/>
     <use xlink:href="#DejaVuSans-65" x="757.166016"/>
     <use xlink:href="#DejaVuSans-72" x="818.689453"/>
     <use xlink:href="#DejaVuSans-61" x="859.802734"/>
     <use xlink:href="#DejaVuSans-67" x="921.082031"/>
     <use xlink:href="#DejaVuSans-65" x="984.558594"/>
     <use xlink:href="#DejaVuSans-20" x="1046.082031"/>
     <use xlink:href="#DejaVuSans-61" x="1077.869141"/>
     <use xlink:href="#DejaVuSans-6e" x="1139.148438"/>
     <use xlink:href="#DejaVuSans-64" x="1202.527344"/>
     <use xlink:href="#DejaVuSans-20" x="1266.003906"/>
     <use xlink:href="#DejaVuSans-62" x="1297.791016"/>
     <use xlink:href="#DejaVuSans-65" x="1361.267578"/>
     <use xlink:href="#DejaVuSans-73" x="1422.791016"/>
     <use xlink:href="#DejaVuSans-74" x="1474.890625"/>
     <use xlink:href="#DejaVuSans-20" x="1514.099609"/>
     <use xlink:href="#DejaVuSans-66" x="1545.886719"/>
     <use xlink:href="#DejaVuSans-69" x="1581.091797"/>
     <use xlink:href="#DejaVuSans-74" x="1608.875"/>
     <use xlink:href="#DejaVuSans-6e" x="1648.083984"/>
     <use xlink:href="#DejaVuSans-65" x="1711.462891"/>
     <use xlink:href="#DejaVuSans-73" x="1772.986328"/>
     <use xlink:href="#DejaVuSans-73" x="1825.085938"/>
    </g>
   </g>
   <g id="legend_1">
    <g id="patch_7">
     <path d="M 64.6 93.506375 
L 137.540625 93.506375 
Q 139.540625 93.506375 139.540625 91.506375 
L 139.540625 48.472 
Q 139.540625 46.472 137.540625 46.472 
L 64.6 46.472 
Q 62.6 46.472 62.6 48.472 
L 62.6 91.506375 
Q 62.6 93.506375 64.6 93.506375 
z
" style="fill: #ffffff; opacity: 0.8; stroke: #cccccc; stroke-linejoin: miter"/>
    </g>
    <g id="line2d_34">
     <path d="M 66.6 54.570438 
L 76.6 54.570438 
L 86.6 54.570438 
" style="fill: none; stroke: #0000ff; stroke-width: 1.5; stroke-linecap: square"/>
    </g>
    <g id="text_19">
     <!-- average -->
     <g transform="translate(94.6 58.070438) scale(0.1 -0.1)">
      <use xlink:href="#DejaVuSans-61"/>
      <use xlink:href="#DejaVuSans-76" x="61.279297"/>
      <use xlink:href="#DejaVuSans-65" x="120.458984"/>
      <use xlink:href="#DejaVuSans-72" x="181.982422"/>
      <use xlink:href="#DejaVuSans-61" x="223.095703"/>
      <use xlink:href="#DejaVuSans-67" x="284.375"/>
      <use xlink:href="#DejaVuSans-65" x="347.851562"/>
     </g>
    </g>
    <g id="line2d_35">
     <path d="M 66.6 69.248563 
L 76.6 69.248563 
L 86.6 69.248563 
" style="fill: none; stroke-dasharray: 9.6,2.4,1.5,2.4; stroke-dashoffset: 0; stroke: #008000; stroke-width: 1.5"/>
    </g>
    <g id="text_20">
     <!-- +1 sd -->
     <g transform="translate(94.6 72.748563) scale(0.1 -0.1)">
      <defs>
       <path id="DejaVuSans-2b" d="M 2944 4013 
L 2944 2272 
L 4684 2272 
L 4684 1741 
L 2944 1741 
L 2944 0 
L 2419 0 
L 2419 1741 
L 678 1741 
L 678 2272 
L 2419 2272 
L 2419 4013 
L 2944 4013 
z
" transform="scale(0.015625)"/>
      </defs>
      <use xlink:href="#DejaVuSans-2b"/>
      <use xlink:href="#DejaVuSans-31" x="83.789062"/>
      <use xlink:href="#DejaVuSans-20" x="147.412109"/>
      <use xlink:href="#DejaVuSans-73" x="179.199219"/>
      <use xlink:href="#DejaVuSans-64" x="231.298828"/>
     </g>
    </g>
    <g id="line2d_36">
     <path d="M 66.6 83.926688 
L 76.6 83.926688 
L 86.6 83.926688 
" style="fill: none; stroke: #ff0000; stroke-width: 1.5; stroke-linecap: square"/>
    </g>
    <g id="text_21">
     <!-- best -->
     <g transform="translate(94.6 87.426688) scale(0.1 -0.1)">
      <use xlink:href="#DejaVuSans-62"/>
      <use xlink:href="#DejaVuSans-65" x="63.476562"/>
      <use xlink:href="#DejaVuSans-73" x="125"/>
      <use xlink:href="#DejaVuSans-74" x="177.099609"/>
     </g>
    </g>
   </g>
  </g>
 </g>
 <defs>
  <clipPath id="p99beb43d54">
   <rect x="57.6" y="41.472" width="357.12" height="266.112"/>
  </clipPath>
 </defs>
</svg>
