<?xml version="1.0" encoding="UTF-8" standalone="no"?>
<!DOCTYPE svg PUBLIC "-//W3C//DTD SVG 1.1//EN"
 "http://www.w3.org/Graphics/SVG/1.1/DTD/svg11.dtd">
<!-- Generated by graphviz version 2.43.0 (0)
 -->
<!-- Title: %3 Pages: 1 -->
<svg width="1876pt" height="328pt"
 viewBox="0.00 0.00 1875.98 328.26" xmlns="http://www.w3.org/2000/svg" xmlns:xlink="http://www.w3.org/1999/xlink">
<g id="graph0" class="graph" transform="scale(1 1) rotate(0) translate(4 324.26)">
<title>%3</title>
<polygon fill="white" stroke="transparent" points="-4,4 -4,-324.26 1871.98,-324.26 1871.98,4 -4,4"/>
<!-- ball_direction -->
<g id="node1" class="node">
<title>ball_direction</title>
<polygon fill="lightgray" stroke="black" points="120.99,-260.67 40.99,-260.67 40.99,-242.67 120.99,-242.67 120.99,-260.67"/>
<text text-anchor="middle" x="80.99" y="-249.47" font-family="Times,serif" font-size="9.00">ball_direction</text>
</g>
<!-- LEFT -->
<g id="node6" class="node">
<title>LEFT</title>
<ellipse fill="lightblue" stroke="black" cx="28.99" cy="-73.54" rx="28.98" ry="28.98"/>
<text text-anchor="middle" x="28.99" y="-71.34" font-family="Times,serif" font-size="9.00">LEFT</text>
</g>
<!-- ball_direction&#45;&gt;LEFT -->
<g id="edge1" class="edge">
<title>ball_direction&#45;&gt;LEFT</title>
<path fill="none" stroke="green" stroke-width="2.03" d="M78.62,-242.64C71.89,-219.84 52.33,-153.59 39.87,-111.39"/>
<polygon fill="green" stroke="green" stroke-width="2.03" points="43.21,-110.34 37.02,-101.74 36.5,-112.32 43.21,-110.34"/>
</g>
<!-- DOWNRIGHT -->
<g id="node10" class="node">
<title>DOWNRIGHT</title>
<ellipse fill="lightblue" stroke="black" cx="132.99" cy="-73.54" rx="56.64" ry="56.64"/>
<text text-anchor="middle" x="132.99" y="-71.34" font-family="Times,serif" font-size="9.00">DOWNRIGHT</text>
</g>
<!-- ball_direction&#45;&gt;DOWNRIGHT -->
<g id="edge2" class="edge">
<title>ball_direction&#45;&gt;DOWNRIGHT</title>
<path fill="none" stroke="red" stroke-width="1.67" d="M83.36,-242.64C88.81,-224.18 102.67,-177.23 114.37,-137.62"/>
<polygon fill="red" stroke="red" stroke-width="1.67" points="117.73,-138.58 117.21,-128 111.02,-136.6 117.73,-138.58"/>
</g>
<!-- NOOP -->
<g id="node2" class="node">
<title>NOOP</title>
<ellipse fill="lightblue" stroke="black" cx="171.99" cy="-251.67" rx="32.55" ry="32.55"/>
<text text-anchor="middle" x="171.99" y="-249.47" font-family="Times,serif" font-size="9.00">NOOP</text>
</g>
<!-- FIRE -->
<g id="node3" class="node">
<title>FIRE</title>
<ellipse fill="lightblue" stroke="black" cx="250.99" cy="-251.67" rx="28.07" ry="28.07"/>
<text text-anchor="middle" x="250.99" y="-249.47" font-family="Times,serif" font-size="9.00">FIRE</text>
</g>
<!-- UP -->
<g id="node4" class="node">
<title>UP</title>
<ellipse fill="lightblue" stroke="black" cx="317.99" cy="-251.67" rx="21.43" ry="21.43"/>
<text text-anchor="middle" x="317.99" y="-249.47" font-family="Times,serif" font-size="9.00">UP</text>
</g>
<!-- RIGHT -->
<g id="node5" class="node">
<title>RIGHT</title>
<ellipse fill="lightblue" stroke="black" cx="390.99" cy="-251.67" rx="33.88" ry="33.88"/>
<text text-anchor="middle" x="390.99" y="-249.47" font-family="Times,serif" font-size="9.00">RIGHT</text>
</g>
<!-- DOWN -->
<g id="node7" class="node">
<title>DOWN</title>
<ellipse fill="lightblue" stroke="black" cx="477.99" cy="-251.67" rx="34.8" ry="34.8"/>
<text text-anchor="middle" x="477.99" y="-249.47" font-family="Times,serif" font-size="9.00">DOWN</text>
</g>
<!-- UPRIGHT -->
<g id="node8" class="node">
<title>UPRIGHT</title>
<ellipse fill="lightblue" stroke="black" cx="573.99" cy="-251.67" rx="43.68" ry="43.68"/>
<text text-anchor="middle" x="573.99" y="-249.47" font-family="Times,serif" font-size="9.00">UPRIGHT</text>
</g>
<!-- UPLEFT -->
<g id="node9" class="node">
<title>UPLEFT</title>
<ellipse fill="lightblue" stroke="black" cx="674.99" cy="-251.67" rx="38.78" ry="38.78"/>
<text text-anchor="middle" x="674.99" y="-249.47" font-family="Times,serif" font-size="9.00">UPLEFT</text>
</g>
<!-- DOWNLEFT -->
<g id="node11" class="node">
<title>DOWNLEFT</title>
<ellipse fill="lightblue" stroke="black" cx="783.99" cy="-251.67" rx="52.15" ry="52.15"/>
<text text-anchor="middle" x="783.99" y="-249.47" font-family="Times,serif" font-size="9.00">DOWNLEFT</text>
</g>
<!-- UPFIRE -->
<g id="node12" class="node">
<title>UPFIRE</title>
<ellipse fill="lightblue" stroke="black" cx="891.99" cy="-251.67" rx="37.45" ry="37.45"/>
<text text-anchor="middle" x="891.99" y="-249.47" font-family="Times,serif" font-size="9.00">UPFIRE</text>
</g>
<!-- RIGHTFIRE -->
<g id="node13" class="node">
<title>RIGHTFIRE</title>
<ellipse fill="lightblue" stroke="black" cx="997.99" cy="-251.67" rx="50.41" ry="50.41"/>
<text text-anchor="middle" x="997.99" y="-249.47" font-family="Times,serif" font-size="9.00">RIGHTFIRE</text>
</g>
<!-- LEFTFIRE -->
<g id="node14" class="node">
<title>LEFTFIRE</title>
<ellipse fill="lightblue" stroke="black" cx="1111.99" cy="-251.67" rx="45.92" ry="45.92"/>
<text text-anchor="middle" x="1111.99" y="-249.47" font-family="Times,serif" font-size="9.00">LEFTFIRE</text>
</g>
<!-- DOWNFIRE -->
<g id="node15" class="node">
<title>DOWNFIRE</title>
<ellipse fill="lightblue" stroke="black" cx="1226.99" cy="-251.67" rx="50.82" ry="50.82"/>
<text text-anchor="middle" x="1226.99" y="-249.47" font-family="Times,serif" font-size="9.00">DOWNFIRE</text>
</g>
<!-- UPRIGHTFIRE -->
<g id="node16" class="node">
<title>UPRIGHTFIRE</title>
<ellipse fill="lightblue" stroke="black" cx="1355.99" cy="-251.67" rx="60.21" ry="60.21"/>
<text text-anchor="middle" x="1355.99" y="-249.47" font-family="Times,serif" font-size="9.00">UPRIGHTFIRE</text>
</g>
<!-- UPLEFTFIRE -->
<g id="node17" class="node">
<title>UPLEFTFIRE</title>
<ellipse fill="lightblue" stroke="black" cx="1488.99" cy="-251.67" rx="55.31" ry="55.31"/>
<text text-anchor="middle" x="1488.99" y="-249.47" font-family="Times,serif" font-size="9.00">UPLEFTFIRE</text>
</g>
<!-- DOWNRIGHTFIRE -->
<g id="node18" class="node">
<title>DOWNRIGHTFIRE</title>
<ellipse fill="lightblue" stroke="black" cx="1582.99" cy="-73.54" rx="73.58" ry="73.58"/>
<text text-anchor="middle" x="1582.99" y="-71.34" font-family="Times,serif" font-size="9.00">DOWNRIGHTFIRE</text>
</g>
<!-- DOWNLEFTFIRE -->
<g id="node19" class="node">
<title>DOWNLEFTFIRE</title>
<ellipse fill="lightblue" stroke="black" cx="1689.99" cy="-251.67" rx="68.68" ry="68.68"/>
<text text-anchor="middle" x="1689.99" y="-249.47" font-family="Times,serif" font-size="9.00">DOWNLEFTFIRE</text>
</g>
<!-- 91 -->
<g id="node20" class="node">
<title>91</title>
<ellipse fill="white" stroke="black" cx="1582.99" cy="-251.67" rx="20.51" ry="20.51"/>
<text text-anchor="middle" x="1582.99" y="-249.47" font-family="Times,serif" font-size="9.00">91</text>
</g>
<!-- 91&#45;&gt;DOWNRIGHTFIRE -->
<g id="edge5" class="edge">
<title>91&#45;&gt;DOWNRIGHTFIRE</title>
<path fill="none" stroke="green" stroke-width="0.79" d="M1582.99,-231.15C1582.99,-213.04 1582.99,-184.81 1582.99,-157.28"/>
<polygon fill="green" stroke="green" stroke-width="0.79" points="1586.49,-157.19 1582.99,-147.19 1579.49,-157.19 1586.49,-157.19"/>
</g>
<!-- 846 -->
<g id="node21" class="node">
<title>846</title>
<ellipse fill="white" stroke="black" cx="1800.99" cy="-251.67" rx="25" ry="25"/>
<text text-anchor="middle" x="1800.99" y="-249.47" font-family="Times,serif" font-size="9.00">846</text>
</g>
<!-- 1421 -->
<g id="node22" class="node">
<title>1421</title>
<ellipse fill="white" stroke="black" cx="1762.99" cy="-73.54" rx="28.98" ry="28.98"/>
<text text-anchor="middle" x="1762.99" y="-71.34" font-family="Times,serif" font-size="9.00">1421</text>
</g>
<!-- 846&#45;&gt;1421 -->
<g id="edge3" class="edge">
<title>846&#45;&gt;1421</title>
<path fill="none" stroke="red" stroke-width="0.23" d="M1795.95,-227.28C1789.59,-197.81 1778.58,-146.81 1771.05,-111.91"/>
<polygon fill="red" stroke="red" stroke-width="0.23" points="1774.46,-111.12 1768.93,-102.08 1767.62,-112.6 1774.46,-111.12"/>
</g>
<!-- 1685 -->
<g id="node23" class="node">
<title>1685</title>
<ellipse fill="white" stroke="black" cx="1838.99" cy="-73.54" rx="28.98" ry="28.98"/>
<text text-anchor="middle" x="1838.99" y="-71.34" font-family="Times,serif" font-size="9.00">1685</text>
</g>
<!-- 846&#45;&gt;1685 -->
<g id="edge4" class="edge">
<title>846&#45;&gt;1685</title>
<path fill="none" stroke="red" stroke-width="0.5" d="M1806.04,-227.28C1812.4,-197.81 1823.4,-146.81 1830.93,-111.91"/>
<polygon fill="red" stroke="red" stroke-width="0.5" points="1834.36,-112.6 1833.05,-102.08 1827.52,-111.12 1834.36,-112.6"/>
</g>
</g>
</svg>
