<?xml version="1.0" encoding="UTF-8" standalone="no"?>
<!DOCTYPE svg PUBLIC "-//W3C//DTD SVG 1.1//EN"
 "http://www.w3.org/Graphics/SVG/1.1/DTD/svg11.dtd">
<!-- Generated by graphviz version 2.43.0 (0)
 -->
<!-- Title: %3 Pages: 1 -->
<svg width="1435pt" height="425pt"
 viewBox="0.00 0.00 1434.98 424.94" xmlns="http://www.w3.org/2000/svg" xmlns:xlink="http://www.w3.org/1999/xlink">
<g id="graph0" class="graph" transform="scale(1 1) rotate(0) translate(4 420.94)">
<title>%3</title>
<polygon fill="white" stroke="transparent" points="-4,4 -4,-420.94 1430.98,-420.94 1430.98,4 -4,4"/>
<!-- &#45;1 -->
<g id="node1" class="node">
<title>&#45;1</title>
<polygon fill="lightgray" stroke="black" points="42.99,-396.95 16.99,-396.95 16.99,-378.95 42.99,-378.95 42.99,-396.95"/>
<text text-anchor="middle" x="29.99" y="-385.75" font-family="Times,serif" font-size="9.00">&#45;1</text>
</g>
<!-- 4755 -->
<g id="node31" class="node">
<title>4755</title>
<ellipse fill="white" stroke="black" cx="28.99" cy="-199.99" rx="28.98" ry="28.98"/>
<text text-anchor="middle" x="28.99" y="-197.79" font-family="Times,serif" font-size="9.00">4755</text>
</g>
<!-- &#45;1&#45;&gt;4755 -->
<g id="edge9" class="edge">
<title>&#45;1&#45;&gt;4755</title>
<path fill="none" stroke="green" stroke-width="0.6" stroke-dasharray="1,5" d="M28.29,-378.72C25.87,-366.58 21.56,-343.14 19.99,-322.96 18,-297.27 18.19,-290.68 19.99,-264.98 20.59,-256.46 21.62,-247.36 22.79,-238.77"/>
<polygon fill="green" stroke="green" stroke-width="0.6" points="26.29,-239.01 24.25,-228.62 19.36,-238.02 26.29,-239.01"/>
</g>
<!-- 5384 -->
<g id="node38" class="node">
<title>5384</title>
<ellipse fill="white" stroke="black" cx="57.99" cy="-293.97" rx="28.98" ry="28.98"/>
<text text-anchor="middle" x="57.99" y="-291.77" font-family="Times,serif" font-size="9.00">5384</text>
</g>
<!-- &#45;1&#45;&gt;5384 -->
<g id="edge16" class="edge">
<title>&#45;1&#45;&gt;5384</title>
<path fill="none" stroke="green" stroke-width="0.18" d="M32.48,-378.79C35.7,-368.2 41.53,-349.04 46.81,-331.71"/>
<polygon fill="green" stroke="green" stroke-width="0.18" points="50.26,-332.38 49.83,-321.79 43.57,-330.34 50.26,-332.38"/>
</g>
<!-- &#45;2 -->
<g id="node2" class="node">
<title>&#45;2</title>
<polygon fill="lightgray" stroke="black" points="182.99,-396.95 156.99,-396.95 156.99,-378.95 182.99,-378.95 182.99,-396.95"/>
<text text-anchor="middle" x="169.99" y="-385.75" font-family="Times,serif" font-size="9.00">&#45;2</text>
</g>
<!-- 2 -->
<g id="node7" class="node">
<title>2</title>
<ellipse fill="lightblue" stroke="black" cx="169.99" cy="-293.97" rx="16.03" ry="16.03"/>
<text text-anchor="middle" x="169.99" y="-291.77" font-family="Times,serif" font-size="9.00">2</text>
</g>
<!-- &#45;2&#45;&gt;2 -->
<g id="edge1" class="edge">
<title>&#45;2&#45;&gt;2</title>
<path fill="none" stroke="green" stroke-width="0.54" d="M169.99,-378.79C169.99,-365.88 169.99,-340.21 169.99,-320.66"/>
<polygon fill="green" stroke="green" stroke-width="0.54" points="173.49,-320.55 169.99,-310.55 166.49,-320.55 173.49,-320.55"/>
</g>
<!-- &#45;3 -->
<g id="node3" class="node">
<title>&#45;3</title>
<polygon fill="lightgray" stroke="black" points="308.99,-396.95 282.99,-396.95 282.99,-378.95 308.99,-378.95 308.99,-396.95"/>
<text text-anchor="middle" x="295.99" y="-385.75" font-family="Times,serif" font-size="9.00">&#45;3</text>
</g>
<!-- &#45;4 -->
<g id="node4" class="node">
<title>&#45;4</title>
<polygon fill="lightgray" stroke="black" points="313.99,-208.99 287.99,-208.99 287.99,-190.99 313.99,-190.99 313.99,-208.99"/>
<text text-anchor="middle" x="300.99" y="-197.79" font-family="Times,serif" font-size="9.00">&#45;4</text>
</g>
<!-- 8 -->
<g id="node13" class="node">
<title>8</title>
<ellipse fill="lightblue" stroke="black" cx="328.99" cy="-20.51" rx="16.03" ry="16.03"/>
<text text-anchor="middle" x="328.99" y="-18.31" font-family="Times,serif" font-size="9.00">8</text>
</g>
<!-- &#45;4&#45;&gt;8 -->
<g id="edge7" class="edge">
<title>&#45;4&#45;&gt;8</title>
<path fill="none" stroke="green" stroke-width="0.34" stroke-dasharray="1,5" d="M302.26,-190.7C305.29,-170.99 313.2,-119.77 319.99,-77.01 321.55,-67.21 323.29,-56.43 324.82,-47"/>
<polygon fill="green" stroke="green" stroke-width="0.34" points="328.29,-47.49 326.44,-37.05 321.38,-46.36 328.29,-47.49"/>
</g>
<!-- 5503 -->
<g id="node40" class="node">
<title>5503</title>
<ellipse fill="white" stroke="black" cx="357.99" cy="-106" rx="28.98" ry="28.98"/>
<text text-anchor="middle" x="357.99" y="-103.8" font-family="Times,serif" font-size="9.00">5503</text>
</g>
<!-- &#45;4&#45;&gt;5503 -->
<g id="edge19" class="edge">
<title>&#45;4&#45;&gt;5503</title>
<path fill="none" stroke="green" stroke-width="0.4" stroke-dasharray="1,5" d="M306.05,-190.82C313.12,-179.41 326.37,-158.03 337.72,-139.72"/>
<polygon fill="green" stroke="green" stroke-width="0.4" points="340.81,-141.38 343.1,-131.04 334.86,-137.69 340.81,-141.38"/>
</g>
<!-- 0 -->
<g id="node5" class="node">
<title>0</title>
<ellipse fill="lightblue" stroke="black" cx="646.99" cy="-387.95" rx="16.03" ry="16.03"/>
<text text-anchor="middle" x="646.99" y="-385.75" font-family="Times,serif" font-size="9.00">0</text>
</g>
<!-- 1 -->
<g id="node6" class="node">
<title>1</title>
<ellipse fill="lightblue" stroke="black" cx="28.99" cy="-106" rx="16.03" ry="16.03"/>
<text text-anchor="middle" x="28.99" y="-103.8" font-family="Times,serif" font-size="9.00">1</text>
</g>
<!-- 3 -->
<g id="node8" class="node">
<title>3</title>
<ellipse fill="lightblue" stroke="black" cx="697.99" cy="-387.95" rx="16.03" ry="16.03"/>
<text text-anchor="middle" x="697.99" y="-385.75" font-family="Times,serif" font-size="9.00">3</text>
</g>
<!-- 4 -->
<g id="node9" class="node">
<title>4</title>
<ellipse fill="lightblue" stroke="black" cx="748.99" cy="-387.95" rx="16.03" ry="16.03"/>
<text text-anchor="middle" x="748.99" y="-385.75" font-family="Times,serif" font-size="9.00">4</text>
</g>
<!-- 5 -->
<g id="node10" class="node">
<title>5</title>
<ellipse fill="lightblue" stroke="black" cx="799.99" cy="-387.95" rx="16.03" ry="16.03"/>
<text text-anchor="middle" x="799.99" y="-385.75" font-family="Times,serif" font-size="9.00">5</text>
</g>
<!-- 6 -->
<g id="node11" class="node">
<title>6</title>
<ellipse fill="lightblue" stroke="black" cx="167.99" cy="-199.99" rx="16.03" ry="16.03"/>
<text text-anchor="middle" x="167.99" y="-197.79" font-family="Times,serif" font-size="9.00">6</text>
</g>
<!-- 4222 -->
<g id="node29" class="node">
<title>4222</title>
<ellipse fill="white" stroke="black" cx="91.99" cy="-106" rx="28.98" ry="28.98"/>
<text text-anchor="middle" x="91.99" y="-103.8" font-family="Times,serif" font-size="9.00">4222</text>
</g>
<!-- 6&#45;&gt;4222 -->
<g id="edge3" class="edge">
<title>6&#45;&gt;4222</title>
<path fill="none" stroke="green" stroke-width="0.18" d="M158.06,-186.96C147.61,-174.32 130.78,-153.95 116.72,-136.94"/>
<polygon fill="green" stroke="green" stroke-width="0.18" points="119.15,-134.38 110.08,-128.9 113.76,-138.84 119.15,-134.38"/>
</g>
<!-- 5163 -->
<g id="node35" class="node">
<title>5163</title>
<ellipse fill="white" stroke="black" cx="243.99" cy="-106" rx="28.98" ry="28.98"/>
<text text-anchor="middle" x="243.99" y="-103.8" font-family="Times,serif" font-size="9.00">5163</text>
</g>
<!-- 6&#45;&gt;5163 -->
<g id="edge13" class="edge">
<title>6&#45;&gt;5163</title>
<path fill="none" stroke="red" stroke-width="0.3" stroke-dasharray="1,5" d="M177.93,-186.96C188.37,-174.32 205.2,-153.95 219.26,-136.94"/>
<polygon fill="red" stroke="red" stroke-width="0.3" points="222.23,-138.84 225.9,-128.9 216.83,-134.38 222.23,-138.84"/>
</g>
<!-- 7 -->
<g id="node12" class="node">
<title>7</title>
<ellipse fill="lightblue" stroke="black" cx="850.99" cy="-387.95" rx="16.03" ry="16.03"/>
<text text-anchor="middle" x="850.99" y="-385.75" font-family="Times,serif" font-size="9.00">7</text>
</g>
<!-- 9 -->
<g id="node14" class="node">
<title>9</title>
<ellipse fill="lightblue" stroke="black" cx="595.99" cy="-387.95" rx="16.03" ry="16.03"/>
<text text-anchor="middle" x="595.99" y="-385.75" font-family="Times,serif" font-size="9.00">9</text>
</g>
<!-- 4864 -->
<g id="node32" class="node">
<title>4864</title>
<ellipse fill="white" stroke="black" cx="595.99" cy="-293.97" rx="28.98" ry="28.98"/>
<text text-anchor="middle" x="595.99" y="-291.77" font-family="Times,serif" font-size="9.00">4864</text>
</g>
<!-- 9&#45;&gt;4864 -->
<g id="edge6" class="edge">
<title>9&#45;&gt;4864</title>
<path fill="none" stroke="red" stroke-width="0.25" stroke-dasharray="1,5" d="M595.99,-371.35C595.99,-360.99 595.99,-346.92 595.99,-333.68"/>
<polygon fill="red" stroke="red" stroke-width="0.25" points="599.49,-333.32 595.99,-323.32 592.49,-333.32 599.49,-333.32"/>
</g>
<!-- 10 -->
<g id="node15" class="node">
<title>10</title>
<ellipse fill="lightblue" stroke="black" cx="393.99" cy="-293.97" rx="20.51" ry="20.51"/>
<text text-anchor="middle" x="393.99" y="-291.77" font-family="Times,serif" font-size="9.00">10</text>
</g>
<!-- 3214 -->
<g id="node24" class="node">
<title>3214</title>
<ellipse fill="white" stroke="black" cx="436.99" cy="-199.99" rx="28.98" ry="28.98"/>
<text text-anchor="middle" x="436.99" y="-197.79" font-family="Times,serif" font-size="9.00">3214</text>
</g>
<!-- 10&#45;&gt;3214 -->
<g id="edge28" class="edge">
<title>10&#45;&gt;3214</title>
<path fill="none" stroke="red" stroke-width="0.32" d="M402.49,-274.8C407.69,-263.67 414.51,-249.07 420.72,-235.8"/>
<polygon fill="red" stroke="red" stroke-width="0.32" points="424.03,-236.97 425.1,-226.43 417.69,-234.01 424.03,-236.97"/>
</g>
<!-- 5248 -->
<g id="node37" class="node">
<title>5248</title>
<ellipse fill="white" stroke="black" cx="360.99" cy="-199.99" rx="28.98" ry="28.98"/>
<text text-anchor="middle" x="360.99" y="-197.79" font-family="Times,serif" font-size="9.00">5248</text>
</g>
<!-- 10&#45;&gt;5248 -->
<g id="edge14" class="edge">
<title>10&#45;&gt;5248</title>
<path fill="none" stroke="red" stroke-width="0.3" stroke-dasharray="1,5" d="M387.31,-274.36C383.47,-263.65 378.51,-249.82 373.94,-237.07"/>
<polygon fill="red" stroke="red" stroke-width="0.3" points="377.21,-235.82 370.54,-227.59 370.62,-238.19 377.21,-235.82"/>
</g>
<!-- 11 -->
<g id="node16" class="node">
<title>11</title>
<ellipse fill="lightblue" stroke="black" cx="905.99" cy="-387.95" rx="20.51" ry="20.51"/>
<text text-anchor="middle" x="905.99" y="-385.75" font-family="Times,serif" font-size="9.00">11</text>
</g>
<!-- 4489 -->
<g id="node30" class="node">
<title>4489</title>
<ellipse fill="white" stroke="black" cx="905.99" cy="-293.97" rx="28.98" ry="28.98"/>
<text text-anchor="middle" x="905.99" y="-291.77" font-family="Times,serif" font-size="9.00">4489</text>
</g>
<!-- 11&#45;&gt;4489 -->
<g id="edge22" class="edge">
<title>11&#45;&gt;4489</title>
<path fill="none" stroke="green" stroke-width="0.48" d="M905.99,-367.44C905.99,-357.49 905.99,-345.03 905.99,-333.26"/>
<polygon fill="green" stroke="green" stroke-width="0.48" points="909.49,-333.18 905.99,-323.18 902.49,-333.18 909.49,-333.18"/>
</g>
<!-- 12 -->
<g id="node17" class="node">
<title>12</title>
<ellipse fill="lightblue" stroke="black" cx="129.99" cy="-20.51" rx="20.51" ry="20.51"/>
<text text-anchor="middle" x="129.99" y="-18.31" font-family="Times,serif" font-size="9.00">12</text>
</g>
<!-- 13 -->
<g id="node18" class="node">
<title>13</title>
<ellipse fill="lightblue" stroke="black" cx="964.99" cy="-387.95" rx="20.51" ry="20.51"/>
<text text-anchor="middle" x="964.99" y="-385.75" font-family="Times,serif" font-size="9.00">13</text>
</g>
<!-- 14 -->
<g id="node19" class="node">
<title>14</title>
<ellipse fill="lightblue" stroke="black" cx="452.99" cy="-293.97" rx="20.51" ry="20.51"/>
<text text-anchor="middle" x="452.99" y="-291.77" font-family="Times,serif" font-size="9.00">14</text>
</g>
<!-- 15 -->
<g id="node20" class="node">
<title>15</title>
<ellipse fill="lightblue" stroke="black" cx="1023.99" cy="-387.95" rx="20.51" ry="20.51"/>
<text text-anchor="middle" x="1023.99" y="-385.75" font-family="Times,serif" font-size="9.00">15</text>
</g>
<!-- 16 -->
<g id="node21" class="node">
<title>16</title>
<ellipse fill="lightblue" stroke="black" cx="1082.99" cy="-387.95" rx="20.51" ry="20.51"/>
<text text-anchor="middle" x="1082.99" y="-385.75" font-family="Times,serif" font-size="9.00">16</text>
</g>
<!-- 17 -->
<g id="node22" class="node">
<title>17</title>
<ellipse fill="lightblue" stroke="black" cx="1141.99" cy="-387.95" rx="20.51" ry="20.51"/>
<text text-anchor="middle" x="1141.99" y="-385.75" font-family="Times,serif" font-size="9.00">17</text>
</g>
<!-- 5405 -->
<g id="node39" class="node">
<title>5405</title>
<ellipse fill="white" stroke="black" cx="1169.99" cy="-199.99" rx="28.98" ry="28.98"/>
<text text-anchor="middle" x="1169.99" y="-197.79" font-family="Times,serif" font-size="9.00">5405</text>
</g>
<!-- 17&#45;&gt;5405 -->
<g id="edge18" class="edge">
<title>17&#45;&gt;5405</title>
<path fill="none" stroke="red" stroke-width="0.15" stroke-dasharray="1,5" d="M1136.45,-367.98C1130.25,-343.67 1122.26,-300.42 1131.99,-264.98 1135.17,-253.41 1141.03,-241.82 1147.22,-231.75"/>
<polygon fill="red" stroke="red" stroke-width="0.15" points="1150.18,-233.61 1152.69,-223.32 1144.31,-229.81 1150.18,-233.61"/>
</g>
<!-- 5677 -->
<g id="node41" class="node">
<title>5677</title>
<ellipse fill="white" stroke="black" cx="1169.99" cy="-293.97" rx="28.98" ry="28.98"/>
<text text-anchor="middle" x="1169.99" y="-291.77" font-family="Times,serif" font-size="9.00">5677</text>
</g>
<!-- 17&#45;&gt;5677 -->
<g id="edge25" class="edge">
<title>17&#45;&gt;5677</title>
<path fill="none" stroke="green" stroke-width="0.33" d="M1147.79,-367.89C1150.98,-357.43 1155.04,-344.09 1158.81,-331.7"/>
<polygon fill="green" stroke="green" stroke-width="0.33" points="1162.19,-332.61 1161.75,-322.03 1155.49,-330.57 1162.19,-332.61"/>
</g>
<!-- 2565 -->
<g id="node23" class="node">
<title>2565</title>
<ellipse fill="white" stroke="black" cx="519.99" cy="-293.97" rx="28.98" ry="28.98"/>
<text text-anchor="middle" x="519.99" y="-291.77" font-family="Times,serif" font-size="9.00">2565</text>
</g>
<!-- 3214&#45;&gt;5503 -->
<g id="edge23" class="edge">
<title>3214&#45;&gt;5503</title>
<path fill="none" stroke="red" stroke-width="0.19" d="M418.27,-177.19C407.84,-165.05 394.71,-149.76 383.37,-136.55"/>
<polygon fill="red" stroke="red" stroke-width="0.19" points="385.75,-133.95 376.58,-128.65 380.44,-138.51 385.75,-133.95"/>
</g>
<!-- 3637 -->
<g id="node25" class="node">
<title>3637</title>
<ellipse fill="white" stroke="black" cx="452.99" cy="-387.95" rx="28.98" ry="28.98"/>
<text text-anchor="middle" x="452.99" y="-385.75" font-family="Times,serif" font-size="9.00">3637</text>
</g>
<!-- 3637&#45;&gt;10 -->
<g id="edge27" class="edge">
<title>3637&#45;&gt;10</title>
<path fill="none" stroke="green" stroke-width="0.47" d="M437.49,-362.78C429.11,-349.72 418.77,-333.61 410.28,-320.36"/>
<polygon fill="green" stroke="green" stroke-width="0.47" points="413.08,-318.25 404.74,-311.72 407.19,-322.03 413.08,-318.25"/>
</g>
<!-- 3637&#45;&gt;14 -->
<g id="edge15" class="edge">
<title>3637&#45;&gt;14</title>
<path fill="none" stroke="green" stroke-width="0.41" stroke-dasharray="1,5" d="M452.99,-358.85C452.99,-348.16 452.99,-335.93 452.99,-325.05"/>
<polygon fill="green" stroke="green" stroke-width="0.41" points="456.49,-324.73 452.99,-314.73 449.49,-324.73 456.49,-324.73"/>
</g>
<!-- 3637&#45;&gt;2565 -->
<g id="edge2" class="edge">
<title>3637&#45;&gt;2565</title>
<path fill="none" stroke="green" stroke-width="0.1" d="M469.9,-363.74C478.21,-352.32 488.35,-338.4 497.33,-326.08"/>
<polygon fill="green" stroke="green" stroke-width="0.1" points="500.26,-328 503.32,-317.85 494.61,-323.88 500.26,-328"/>
</g>
<!-- 3827 -->
<g id="node26" class="node">
<title>3827</title>
<ellipse fill="white" stroke="black" cx="1245.99" cy="-293.97" rx="28.98" ry="28.98"/>
<text text-anchor="middle" x="1245.99" y="-291.77" font-family="Times,serif" font-size="9.00">3827</text>
</g>
<!-- 3827&#45;&gt;5405 -->
<g id="edge21" class="edge">
<title>3827&#45;&gt;5405</title>
<path fill="none" stroke="green" stroke-width="0.32" d="M1227.98,-271.17C1218.02,-259.12 1205.5,-243.96 1194.64,-230.82"/>
<polygon fill="green" stroke="green" stroke-width="0.32" points="1197.2,-228.43 1188.14,-222.95 1191.81,-232.89 1197.2,-228.43"/>
</g>
<!-- 3993 -->
<g id="node27" class="node">
<title>3993</title>
<ellipse fill="white" stroke="black" cx="1245.99" cy="-387.95" rx="28.98" ry="28.98"/>
<text text-anchor="middle" x="1245.99" y="-385.75" font-family="Times,serif" font-size="9.00">3993</text>
</g>
<!-- 3993&#45;&gt;3827 -->
<g id="edge8" class="edge">
<title>3993&#45;&gt;3827</title>
<path fill="none" stroke="green" stroke-width="0.89" d="M1245.99,-358.85C1245.99,-350.82 1245.99,-341.91 1245.99,-333.37"/>
<polygon fill="green" stroke="green" stroke-width="0.89" points="1249.49,-333.21 1245.99,-323.21 1242.49,-333.21 1249.49,-333.21"/>
</g>
<!-- 4037 -->
<g id="node28" class="node">
<title>4037</title>
<ellipse fill="white" stroke="black" cx="1321.99" cy="-387.95" rx="28.98" ry="28.98"/>
<text text-anchor="middle" x="1321.99" y="-385.75" font-family="Times,serif" font-size="9.00">4037</text>
</g>
<!-- 4222&#45;&gt;12 -->
<g id="edge24" class="edge">
<title>4222&#45;&gt;12</title>
<path fill="none" stroke="green" stroke-width="0.48" d="M103.81,-79.04C108.19,-69.42 113.16,-58.49 117.59,-48.75"/>
<polygon fill="green" stroke="green" stroke-width="0.48" points="120.84,-50.06 121.8,-39.51 114.47,-47.16 120.84,-50.06"/>
</g>
<!-- 4755&#45;&gt;1 -->
<g id="edge4" class="edge">
<title>4755&#45;&gt;1</title>
<path fill="none" stroke="red" stroke-width="0.32" stroke-dasharray="1,5" d="M28.99,-170.89C28.99,-158.67 28.99,-144.46 28.99,-132.55"/>
<polygon fill="red" stroke="red" stroke-width="0.32" points="32.49,-132.38 28.99,-122.38 25.49,-132.38 32.49,-132.38"/>
</g>
<!-- 4755&#45;&gt;4222 -->
<g id="edge10" class="edge">
<title>4755&#45;&gt;4222</title>
<path fill="none" stroke="green" stroke-width="0.33" d="M45.22,-175.3C52.84,-164.16 62.05,-150.72 70.27,-138.72"/>
<polygon fill="green" stroke="green" stroke-width="0.33" points="73.28,-140.52 76.04,-130.29 67.5,-136.57 73.28,-140.52"/>
</g>
<!-- 4864&#45;&gt;3214 -->
<g id="edge5" class="edge">
<title>4864&#45;&gt;3214</title>
<path fill="none" stroke="green" stroke-width="0.49" d="M573.47,-275.53C568.47,-271.9 563.13,-268.2 557.99,-264.98 530.1,-247.46 496.94,-230.16 472.39,-217.97"/>
<polygon fill="green" stroke="green" stroke-width="0.49" points="473.62,-214.67 463.11,-213.39 470.53,-220.95 473.62,-214.67"/>
</g>
<!-- 4954 -->
<g id="node33" class="node">
<title>4954</title>
<ellipse fill="white" stroke="black" cx="326.99" cy="-293.97" rx="28.98" ry="28.98"/>
<text text-anchor="middle" x="326.99" y="-291.77" font-family="Times,serif" font-size="9.00">4954</text>
</g>
<!-- 4954&#45;&gt;5248 -->
<g id="edge11" class="edge">
<title>4954&#45;&gt;5248</title>
<path fill="none" stroke="red" stroke-width="0.33" d="M336.83,-266.36C340.21,-257.21 344.06,-246.8 347.67,-237.03"/>
<polygon fill="red" stroke="red" stroke-width="0.33" points="351,-238.12 351.18,-227.53 344.43,-235.7 351,-238.12"/>
</g>
<!-- 5008 -->
<g id="node34" class="node">
<title>5008</title>
<ellipse fill="white" stroke="black" cx="1397.99" cy="-387.95" rx="28.98" ry="28.98"/>
<text text-anchor="middle" x="1397.99" y="-385.75" font-family="Times,serif" font-size="9.00">5008</text>
</g>
<!-- 5185 -->
<g id="node36" class="node">
<title>5185</title>
<ellipse fill="white" stroke="black" cx="167.99" cy="-106" rx="28.98" ry="28.98"/>
<text text-anchor="middle" x="167.99" y="-103.8" font-family="Times,serif" font-size="9.00">5185</text>
</g>
<!-- 5185&#45;&gt;12 -->
<g id="edge12" class="edge">
<title>5185&#45;&gt;12</title>
<path fill="none" stroke="red" stroke-width="0.57" d="M156.18,-79.04C151.8,-69.42 146.82,-58.49 142.39,-48.75"/>
<polygon fill="red" stroke="red" stroke-width="0.57" points="145.51,-47.16 138.19,-39.51 139.14,-50.06 145.51,-47.16"/>
</g>
<!-- 5384&#45;&gt;4755 -->
<g id="edge17" class="edge">
<title>5384&#45;&gt;4755</title>
<path fill="none" stroke="red" stroke-width="0.38" d="M49.45,-265.87C46.64,-256.98 43.48,-246.95 40.5,-237.48"/>
<polygon fill="red" stroke="red" stroke-width="0.38" points="43.82,-236.38 37.47,-227.89 37.14,-238.48 43.82,-236.38"/>
</g>
<!-- 5503&#45;&gt;8 -->
<g id="edge20" class="edge">
<title>5503&#45;&gt;8</title>
<path fill="none" stroke="red" stroke-width="0.14" d="M348.66,-78.12C345.03,-67.68 340.91,-55.82 337.38,-45.65"/>
<polygon fill="red" stroke="red" stroke-width="0.14" points="340.67,-44.47 334.09,-36.17 334.06,-46.77 340.67,-44.47"/>
</g>
<!-- 5677&#45;&gt;5405 -->
<g id="edge26" class="edge">
<title>5677&#45;&gt;5405</title>
<path fill="none" stroke="red" stroke-width="0.12" d="M1169.99,-264.87C1169.99,-256.83 1169.99,-247.93 1169.99,-239.39"/>
<polygon fill="red" stroke="red" stroke-width="0.12" points="1173.49,-239.23 1169.99,-229.23 1166.49,-239.23 1173.49,-239.23"/>
</g>
</g>
</svg>
