<?xml version="1.0" encoding="utf-8" standalone="no"?>
<!DOCTYPE svg PUBLIC "-//W3C//DTD SVG 1.1//EN"
  "http://www.w3.org/Graphics/SVG/1.1/DTD/svg11.dtd">
<svg xmlns:xlink="http://www.w3.org/1999/xlink" width="460.8pt" height="345.6pt" viewBox="0 0 460.8 345.6" xmlns="http://www.w3.org/2000/svg" version="1.1">
 <metadata>
  <rdf:RDF xmlns:dc="http://purl.org/dc/elements/1.1/" xmlns:cc="http://creativecommons.org/ns#" xmlns:rdf="http://www.w3.org/1999/02/22-rdf-syntax-ns#">
   <cc:Work>
    <dc:type rdf:resource="http://purl.org/dc/dcmitype/StillImage"/>
    <dc:date>2023-02-02T23:59:16.599130</dc:date>
    <dc:format>image/svg+xml</dc:format>
    <dc:creator>
     <cc:Agent>
      <dc:title>Matplotlib v3.6.2, https://matplotlib.org/</dc:title>
     </cc:Agent>
    </dc:creator>
   </cc:Work>
  </rdf:RDF>
 </metadata>
 <defs>
  <style type="text/css">*{stroke-linejoin: round; stroke-linecap: butt}</style>
 </defs>
 <g id="figure_1">
  <g id="patch_1">
   <path d="M 0 345.6 
L 460.8 345.6 
L 460.8 0 
L 0 0 
z
" style="fill: #ffffff"/>
  </g>
  <g id="axes_1">
   <g id="patch_2">
    <path d="M 57.6 307.584 
L 414.72 307.584 
L 414.72 41.472 
L 57.6 41.472 
z
" style="fill: #ffffff"/>
   </g>
   <g id="matplotlib.axis_1">
    <g id="xtick_1">
     <g id="line2d_1">
      <path d="M 73.832727 307.584 
L 73.832727 41.472 
" clip-path="url(#p16e4e1e504)" style="fill: none; stroke: #b0b0b0; stroke-width: 0.8; stroke-linecap: square"/>
     </g>
     <g id="line2d_2">
      <defs>
       <path id="m552b4b1611" d="M 0 0 
L 0 3.5 
" style="stroke: #000000; stroke-width: 0.8"/>
      </defs>
      <g>
       <use xlink:href="#m552b4b1611" x="73.832727" y="307.584" style="stroke: #000000; stroke-width: 0.8"/>
      </g>
     </g>
     <g id="text_1">
      <!-- 0 -->
      <g transform="translate(70.651477 322.182437) scale(0.1 -0.1)">
       <defs>
        <path id="DejaVuSans-30" d="M 2034 4250 
Q 1547 4250 1301 3770 
Q 1056 3291 1056 2328 
Q 1056 1369 1301 889 
Q 1547 409 2034 409 
Q 2525 409 2770 889 
Q 3016 1369 3016 2328 
Q 3016 3291 2770 3770 
Q 2525 4250 2034 4250 
z
M 2034 4750 
Q 2819 4750 3233 4129 
Q 3647 3509 3647 2328 
Q 3647 1150 3233 529 
Q 2819 -91 2034 -91 
Q 1250 -91 836 529 
Q 422 1150 422 2328 
Q 422 3509 836 4129 
Q 1250 4750 2034 4750 
z
" transform="scale(0.015625)"/>
       </defs>
       <use xlink:href="#DejaVuSans-30"/>
      </g>
     </g>
    </g>
    <g id="xtick_2">
     <g id="line2d_3">
      <path d="M 128.122785 307.584 
L 128.122785 41.472 
" clip-path="url(#p16e4e1e504)" style="fill: none; stroke: #b0b0b0; stroke-width: 0.8; stroke-linecap: square"/>
     </g>
     <g id="line2d_4">
      <g>
       <use xlink:href="#m552b4b1611" x="128.122785" y="307.584" style="stroke: #000000; stroke-width: 0.8"/>
      </g>
     </g>
     <g id="text_2">
      <!-- 50 -->
      <g transform="translate(121.760285 322.182437) scale(0.1 -0.1)">
       <defs>
        <path id="DejaVuSans-35" d="M 691 4666 
L 3169 4666 
L 3169 4134 
L 1269 4134 
L 1269 2991 
Q 1406 3038 1543 3061 
Q 1681 3084 1819 3084 
Q 2600 3084 3056 2656 
Q 3513 2228 3513 1497 
Q 3513 744 3044 326 
Q 2575 -91 1722 -91 
Q 1428 -91 1123 -41 
Q 819 9 494 109 
L 494 744 
Q 775 591 1075 516 
Q 1375 441 1709 441 
Q 2250 441 2565 725 
Q 2881 1009 2881 1497 
Q 2881 1984 2565 2268 
Q 2250 2553 1709 2553 
Q 1456 2553 1204 2497 
Q 953 2441 691 2322 
L 691 4666 
z
" transform="scale(0.015625)"/>
       </defs>
       <use xlink:href="#DejaVuSans-35"/>
       <use xlink:href="#DejaVuSans-30" x="63.623047"/>
      </g>
     </g>
    </g>
    <g id="xtick_3">
     <g id="line2d_5">
      <path d="M 182.412843 307.584 
L 182.412843 41.472 
" clip-path="url(#p16e4e1e504)" style="fill: none; stroke: #b0b0b0; stroke-width: 0.8; stroke-linecap: square"/>
     </g>
     <g id="line2d_6">
      <g>
       <use xlink:href="#m552b4b1611" x="182.412843" y="307.584" style="stroke: #000000; stroke-width: 0.8"/>
      </g>
     </g>
     <g id="text_3">
      <!-- 100 -->
      <g transform="translate(172.869093 322.182437) scale(0.1 -0.1)">
       <defs>
        <path id="DejaVuSans-31" d="M 794 531 
L 1825 531 
L 1825 4091 
L 703 3866 
L 703 4441 
L 1819 4666 
L 2450 4666 
L 2450 531 
L 3481 531 
L 3481 0 
L 794 0 
L 794 531 
z
" transform="scale(0.015625)"/>
       </defs>
       <use xlink:href="#DejaVuSans-31"/>
       <use xlink:href="#DejaVuSans-30" x="63.623047"/>
       <use xlink:href="#DejaVuSans-30" x="127.246094"/>
      </g>
     </g>
    </g>
    <g id="xtick_4">
     <g id="line2d_7">
      <path d="M 236.702901 307.584 
L 236.702901 41.472 
" clip-path="url(#p16e4e1e504)" style="fill: none; stroke: #b0b0b0; stroke-width: 0.8; stroke-linecap: square"/>
     </g>
     <g id="line2d_8">
      <g>
       <use xlink:href="#m552b4b1611" x="236.702901" y="307.584" style="stroke: #000000; stroke-width: 0.8"/>
      </g>
     </g>
     <g id="text_4">
      <!-- 150 -->
      <g transform="translate(227.159151 322.182437) scale(0.1 -0.1)">
       <use xlink:href="#DejaVuSans-31"/>
       <use xlink:href="#DejaVuSans-35" x="63.623047"/>
       <use xlink:href="#DejaVuSans-30" x="127.246094"/>
      </g>
     </g>
    </g>
    <g id="xtick_5">
     <g id="line2d_9">
      <path d="M 290.992958 307.584 
L 290.992958 41.472 
" clip-path="url(#p16e4e1e504)" style="fill: none; stroke: #b0b0b0; stroke-width: 0.8; stroke-linecap: square"/>
     </g>
     <g id="line2d_10">
      <g>
       <use xlink:href="#m552b4b1611" x="290.992958" y="307.584" style="stroke: #000000; stroke-width: 0.8"/>
      </g>
     </g>
     <g id="text_5">
      <!-- 200 -->
      <g transform="translate(281.449208 322.182437) scale(0.1 -0.1)">
       <defs>
        <path id="DejaVuSans-32" d="M 1228 531 
L 3431 531 
L 3431 0 
L 469 0 
L 469 531 
Q 828 903 1448 1529 
Q 2069 2156 2228 2338 
Q 2531 2678 2651 2914 
Q 2772 3150 2772 3378 
Q 2772 3750 2511 3984 
Q 2250 4219 1831 4219 
Q 1534 4219 1204 4116 
Q 875 4013 500 3803 
L 500 4441 
Q 881 4594 1212 4672 
Q 1544 4750 1819 4750 
Q 2544 4750 2975 4387 
Q 3406 4025 3406 3419 
Q 3406 3131 3298 2873 
Q 3191 2616 2906 2266 
Q 2828 2175 2409 1742 
Q 1991 1309 1228 531 
z
" transform="scale(0.015625)"/>
       </defs>
       <use xlink:href="#DejaVuSans-32"/>
       <use xlink:href="#DejaVuSans-30" x="63.623047"/>
       <use xlink:href="#DejaVuSans-30" x="127.246094"/>
      </g>
     </g>
    </g>
    <g id="xtick_6">
     <g id="line2d_11">
      <path d="M 345.283016 307.584 
L 345.283016 41.472 
" clip-path="url(#p16e4e1e504)" style="fill: none; stroke: #b0b0b0; stroke-width: 0.8; stroke-linecap: square"/>
     </g>
     <g id="line2d_12">
      <g>
       <use xlink:href="#m552b4b1611" x="345.283016" y="307.584" style="stroke: #000000; stroke-width: 0.8"/>
      </g>
     </g>
     <g id="text_6">
      <!-- 250 -->
      <g transform="translate(335.739266 322.182437) scale(0.1 -0.1)">
       <use xlink:href="#DejaVuSans-32"/>
       <use xlink:href="#DejaVuSans-35" x="63.623047"/>
       <use xlink:href="#DejaVuSans-30" x="127.246094"/>
      </g>
     </g>
    </g>
    <g id="xtick_7">
     <g id="line2d_13">
      <path d="M 399.573074 307.584 
L 399.573074 41.472 
" clip-path="url(#p16e4e1e504)" style="fill: none; stroke: #b0b0b0; stroke-width: 0.8; stroke-linecap: square"/>
     </g>
     <g id="line2d_14">
      <g>
       <use xlink:href="#m552b4b1611" x="399.573074" y="307.584" style="stroke: #000000; stroke-width: 0.8"/>
      </g>
     </g>
     <g id="text_7">
      <!-- 300 -->
      <g transform="translate(390.029324 322.182437) scale(0.1 -0.1)">
       <defs>
        <path id="DejaVuSans-33" d="M 2597 2516 
Q 3050 2419 3304 2112 
Q 3559 1806 3559 1356 
Q 3559 666 3084 287 
Q 2609 -91 1734 -91 
Q 1441 -91 1130 -33 
Q 819 25 488 141 
L 488 750 
Q 750 597 1062 519 
Q 1375 441 1716 441 
Q 2309 441 2620 675 
Q 2931 909 2931 1356 
Q 2931 1769 2642 2001 
Q 2353 2234 1838 2234 
L 1294 2234 
L 1294 2753 
L 1863 2753 
Q 2328 2753 2575 2939 
Q 2822 3125 2822 3475 
Q 2822 3834 2567 4026 
Q 2313 4219 1838 4219 
Q 1578 4219 1281 4162 
Q 984 4106 628 3988 
L 628 4550 
Q 988 4650 1302 4700 
Q 1616 4750 1894 4750 
Q 2613 4750 3031 4423 
Q 3450 4097 3450 3541 
Q 3450 3153 3228 2886 
Q 3006 2619 2597 2516 
z
" transform="scale(0.015625)"/>
       </defs>
       <use xlink:href="#DejaVuSans-33"/>
       <use xlink:href="#DejaVuSans-30" x="63.623047"/>
       <use xlink:href="#DejaVuSans-30" x="127.246094"/>
      </g>
     </g>
    </g>
    <g id="text_8">
     <!-- Generations -->
     <g transform="translate(205.662344 335.860562) scale(0.1 -0.1)">
      <defs>
       <path id="DejaVuSans-47" d="M 3809 666 
L 3809 1919 
L 2778 1919 
L 2778 2438 
L 4434 2438 
L 4434 434 
Q 4069 175 3628 42 
Q 3188 -91 2688 -91 
Q 1594 -91 976 548 
Q 359 1188 359 2328 
Q 359 3472 976 4111 
Q 1594 4750 2688 4750 
Q 3144 4750 3555 4637 
Q 3966 4525 4313 4306 
L 4313 3634 
Q 3963 3931 3569 4081 
Q 3175 4231 2741 4231 
Q 1884 4231 1454 3753 
Q 1025 3275 1025 2328 
Q 1025 1384 1454 906 
Q 1884 428 2741 428 
Q 3075 428 3337 486 
Q 3600 544 3809 666 
z
" transform="scale(0.015625)"/>
       <path id="DejaVuSans-65" d="M 3597 1894 
L 3597 1613 
L 953 1613 
Q 991 1019 1311 708 
Q 1631 397 2203 397 
Q 2534 397 2845 478 
Q 3156 559 3463 722 
L 3463 178 
Q 3153 47 2828 -22 
Q 2503 -91 2169 -91 
Q 1331 -91 842 396 
Q 353 884 353 1716 
Q 353 2575 817 3079 
Q 1281 3584 2069 3584 
Q 2775 3584 3186 3129 
Q 3597 2675 3597 1894 
z
M 3022 2063 
Q 3016 2534 2758 2815 
Q 2500 3097 2075 3097 
Q 1594 3097 1305 2825 
Q 1016 2553 972 2059 
L 3022 2063 
z
" transform="scale(0.015625)"/>
       <path id="DejaVuSans-6e" d="M 3513 2113 
L 3513 0 
L 2938 0 
L 2938 2094 
Q 2938 2591 2744 2837 
Q 2550 3084 2163 3084 
Q 1697 3084 1428 2787 
Q 1159 2491 1159 1978 
L 1159 0 
L 581 0 
L 581 3500 
L 1159 3500 
L 1159 2956 
Q 1366 3272 1645 3428 
Q 1925 3584 2291 3584 
Q 2894 3584 3203 3211 
Q 3513 2838 3513 2113 
z
" transform="scale(0.015625)"/>
       <path id="DejaVuSans-72" d="M 2631 2963 
Q 2534 3019 2420 3045 
Q 2306 3072 2169 3072 
Q 1681 3072 1420 2755 
Q 1159 2438 1159 1844 
L 1159 0 
L 581 0 
L 581 3500 
L 1159 3500 
L 1159 2956 
Q 1341 3275 1631 3429 
Q 1922 3584 2338 3584 
Q 2397 3584 2469 3576 
Q 2541 3569 2628 3553 
L 2631 2963 
z
" transform="scale(0.015625)"/>
       <path id="DejaVuSans-61" d="M 2194 1759 
Q 1497 1759 1228 1600 
Q 959 1441 959 1056 
Q 959 750 1161 570 
Q 1363 391 1709 391 
Q 2188 391 2477 730 
Q 2766 1069 2766 1631 
L 2766 1759 
L 2194 1759 
z
M 3341 1997 
L 3341 0 
L 2766 0 
L 2766 531 
Q 2569 213 2275 61 
Q 1981 -91 1556 -91 
Q 1019 -91 701 211 
Q 384 513 384 1019 
Q 384 1609 779 1909 
Q 1175 2209 1959 2209 
L 2766 2209 
L 2766 2266 
Q 2766 2663 2505 2880 
Q 2244 3097 1772 3097 
Q 1472 3097 1187 3025 
Q 903 2953 641 2809 
L 641 3341 
Q 956 3463 1253 3523 
Q 1550 3584 1831 3584 
Q 2591 3584 2966 3190 
Q 3341 2797 3341 1997 
z
" transform="scale(0.015625)"/>
       <path id="DejaVuSans-74" d="M 1172 4494 
L 1172 3500 
L 2356 3500 
L 2356 3053 
L 1172 3053 
L 1172 1153 
Q 1172 725 1289 603 
Q 1406 481 1766 481 
L 2356 481 
L 2356 0 
L 1766 0 
Q 1100 0 847 248 
Q 594 497 594 1153 
L 594 3053 
L 172 3053 
L 172 3500 
L 594 3500 
L 594 4494 
L 1172 4494 
z
" transform="scale(0.015625)"/>
       <path id="DejaVuSans-69" d="M 603 3500 
L 1178 3500 
L 1178 0 
L 603 0 
L 603 3500 
z
M 603 4863 
L 1178 4863 
L 1178 4134 
L 603 4134 
L 603 4863 
z
" transform="scale(0.015625)"/>
       <path id="DejaVuSans-6f" d="M 1959 3097 
Q 1497 3097 1228 2736 
Q 959 2375 959 1747 
Q 959 1119 1226 758 
Q 1494 397 1959 397 
Q 2419 397 2687 759 
Q 2956 1122 2956 1747 
Q 2956 2369 2687 2733 
Q 2419 3097 1959 3097 
z
M 1959 3584 
Q 2709 3584 3137 3096 
Q 3566 2609 3566 1747 
Q 3566 888 3137 398 
Q 2709 -91 1959 -91 
Q 1206 -91 779 398 
Q 353 888 353 1747 
Q 353 2609 779 3096 
Q 1206 3584 1959 3584 
z
" transform="scale(0.015625)"/>
       <path id="DejaVuSans-73" d="M 2834 3397 
L 2834 2853 
Q 2591 2978 2328 3040 
Q 2066 3103 1784 3103 
Q 1356 3103 1142 2972 
Q 928 2841 928 2578 
Q 928 2378 1081 2264 
Q 1234 2150 1697 2047 
L 1894 2003 
Q 2506 1872 2764 1633 
Q 3022 1394 3022 966 
Q 3022 478 2636 193 
Q 2250 -91 1575 -91 
Q 1294 -91 989 -36 
Q 684 19 347 128 
L 347 722 
Q 666 556 975 473 
Q 1284 391 1588 391 
Q 1994 391 2212 530 
Q 2431 669 2431 922 
Q 2431 1156 2273 1281 
Q 2116 1406 1581 1522 
L 1381 1569 
Q 847 1681 609 1914 
Q 372 2147 372 2553 
Q 372 3047 722 3315 
Q 1072 3584 1716 3584 
Q 2034 3584 2315 3537 
Q 2597 3491 2834 3397 
z
" transform="scale(0.015625)"/>
      </defs>
      <use xlink:href="#DejaVuSans-47"/>
      <use xlink:href="#DejaVuSans-65" x="77.490234"/>
      <use xlink:href="#DejaVuSans-6e" x="139.013672"/>
      <use xlink:href="#DejaVuSans-65" x="202.392578"/>
      <use xlink:href="#DejaVuSans-72" x="263.916016"/>
      <use xlink:href="#DejaVuSans-61" x="305.029297"/>
      <use xlink:href="#DejaVuSans-74" x="366.308594"/>
      <use xlink:href="#DejaVuSans-69" x="405.517578"/>
      <use xlink:href="#DejaVuSans-6f" x="433.300781"/>
      <use xlink:href="#DejaVuSans-6e" x="494.482422"/>
      <use xlink:href="#DejaVuSans-73" x="557.861328"/>
     </g>
    </g>
   </g>
   <g id="matplotlib.axis_2">
    <g id="ytick_1">
     <g id="line2d_15">
      <path d="M 57.6 263.555092 
L 414.72 263.555092 
" clip-path="url(#p16e4e1e504)" style="fill: none; stroke: #b0b0b0; stroke-width: 0.8; stroke-linecap: square"/>
     </g>
     <g id="line2d_16">
      <defs>
       <path id="ma0a3186e07" d="M 0 0 
L -3.5 0 
" style="stroke: #000000; stroke-width: 0.8"/>
      </defs>
      <g>
       <use xlink:href="#ma0a3186e07" x="57.6" y="263.555092" style="stroke: #000000; stroke-width: 0.8"/>
      </g>
     </g>
     <g id="text_9">
      <!-- 40 -->
      <g transform="translate(37.875 267.354311) scale(0.1 -0.1)">
       <defs>
        <path id="DejaVuSans-34" d="M 2419 4116 
L 825 1625 
L 2419 1625 
L 2419 4116 
z
M 2253 4666 
L 3047 4666 
L 3047 1625 
L 3713 1625 
L 3713 1100 
L 3047 1100 
L 3047 0 
L 2419 0 
L 2419 1100 
L 313 1100 
L 313 1709 
L 2253 4666 
z
" transform="scale(0.015625)"/>
       </defs>
       <use xlink:href="#DejaVuSans-34"/>
       <use xlink:href="#DejaVuSans-30" x="63.623047"/>
      </g>
     </g>
    </g>
    <g id="ytick_2">
     <g id="line2d_17">
      <path d="M 57.6 212.508177 
L 414.72 212.508177 
" clip-path="url(#p16e4e1e504)" style="fill: none; stroke: #b0b0b0; stroke-width: 0.8; stroke-linecap: square"/>
     </g>
     <g id="line2d_18">
      <g>
       <use xlink:href="#ma0a3186e07" x="57.6" y="212.508177" style="stroke: #000000; stroke-width: 0.8"/>
      </g>
     </g>
     <g id="text_10">
      <!-- 60 -->
      <g transform="translate(37.875 216.307396) scale(0.1 -0.1)">
       <defs>
        <path id="DejaVuSans-36" d="M 2113 2584 
Q 1688 2584 1439 2293 
Q 1191 2003 1191 1497 
Q 1191 994 1439 701 
Q 1688 409 2113 409 
Q 2538 409 2786 701 
Q 3034 994 3034 1497 
Q 3034 2003 2786 2293 
Q 2538 2584 2113 2584 
z
M 3366 4563 
L 3366 3988 
Q 3128 4100 2886 4159 
Q 2644 4219 2406 4219 
Q 1781 4219 1451 3797 
Q 1122 3375 1075 2522 
Q 1259 2794 1537 2939 
Q 1816 3084 2150 3084 
Q 2853 3084 3261 2657 
Q 3669 2231 3669 1497 
Q 3669 778 3244 343 
Q 2819 -91 2113 -91 
Q 1303 -91 875 529 
Q 447 1150 447 2328 
Q 447 3434 972 4092 
Q 1497 4750 2381 4750 
Q 2619 4750 2861 4703 
Q 3103 4656 3366 4563 
z
" transform="scale(0.015625)"/>
       </defs>
       <use xlink:href="#DejaVuSans-36"/>
       <use xlink:href="#DejaVuSans-30" x="63.623047"/>
      </g>
     </g>
    </g>
    <g id="ytick_3">
     <g id="line2d_19">
      <path d="M 57.6 161.461262 
L 414.72 161.461262 
" clip-path="url(#p16e4e1e504)" style="fill: none; stroke: #b0b0b0; stroke-width: 0.8; stroke-linecap: square"/>
     </g>
     <g id="line2d_20">
      <g>
       <use xlink:href="#ma0a3186e07" x="57.6" y="161.461262" style="stroke: #000000; stroke-width: 0.8"/>
      </g>
     </g>
     <g id="text_11">
      <!-- 80 -->
      <g transform="translate(37.875 165.260481) scale(0.1 -0.1)">
       <defs>
        <path id="DejaVuSans-38" d="M 2034 2216 
Q 1584 2216 1326 1975 
Q 1069 1734 1069 1313 
Q 1069 891 1326 650 
Q 1584 409 2034 409 
Q 2484 409 2743 651 
Q 3003 894 3003 1313 
Q 3003 1734 2745 1975 
Q 2488 2216 2034 2216 
z
M 1403 2484 
Q 997 2584 770 2862 
Q 544 3141 544 3541 
Q 544 4100 942 4425 
Q 1341 4750 2034 4750 
Q 2731 4750 3128 4425 
Q 3525 4100 3525 3541 
Q 3525 3141 3298 2862 
Q 3072 2584 2669 2484 
Q 3125 2378 3379 2068 
Q 3634 1759 3634 1313 
Q 3634 634 3220 271 
Q 2806 -91 2034 -91 
Q 1263 -91 848 271 
Q 434 634 434 1313 
Q 434 1759 690 2068 
Q 947 2378 1403 2484 
z
M 1172 3481 
Q 1172 3119 1398 2916 
Q 1625 2713 2034 2713 
Q 2441 2713 2670 2916 
Q 2900 3119 2900 3481 
Q 2900 3844 2670 4047 
Q 2441 4250 2034 4250 
Q 1625 4250 1398 4047 
Q 1172 3844 1172 3481 
z
" transform="scale(0.015625)"/>
       </defs>
       <use xlink:href="#DejaVuSans-38"/>
       <use xlink:href="#DejaVuSans-30" x="63.623047"/>
      </g>
     </g>
    </g>
    <g id="ytick_4">
     <g id="line2d_21">
      <path d="M 57.6 110.414347 
L 414.72 110.414347 
" clip-path="url(#p16e4e1e504)" style="fill: none; stroke: #b0b0b0; stroke-width: 0.8; stroke-linecap: square"/>
     </g>
     <g id="line2d_22">
      <g>
       <use xlink:href="#ma0a3186e07" x="57.6" y="110.414347" style="stroke: #000000; stroke-width: 0.8"/>
      </g>
     </g>
     <g id="text_12">
      <!-- 100 -->
      <g transform="translate(31.5125 114.213566) scale(0.1 -0.1)">
       <use xlink:href="#DejaVuSans-31"/>
       <use xlink:href="#DejaVuSans-30" x="63.623047"/>
       <use xlink:href="#DejaVuSans-30" x="127.246094"/>
      </g>
     </g>
    </g>
    <g id="ytick_5">
     <g id="line2d_23">
      <path d="M 57.6 59.367432 
L 414.72 59.367432 
" clip-path="url(#p16e4e1e504)" style="fill: none; stroke: #b0b0b0; stroke-width: 0.8; stroke-linecap: square"/>
     </g>
     <g id="line2d_24">
      <g>
       <use xlink:href="#ma0a3186e07" x="57.6" y="59.367432" style="stroke: #000000; stroke-width: 0.8"/>
      </g>
     </g>
     <g id="text_13">
      <!-- 120 -->
      <g transform="translate(31.5125 63.166651) scale(0.1 -0.1)">
       <use xlink:href="#DejaVuSans-31"/>
       <use xlink:href="#DejaVuSans-32" x="63.623047"/>
       <use xlink:href="#DejaVuSans-30" x="127.246094"/>
      </g>
     </g>
    </g>
    <g id="text_14">
     <!-- Fitness -->
     <g transform="translate(25.432812 191.845187) rotate(-90) scale(0.1 -0.1)">
      <defs>
       <path id="DejaVuSans-46" d="M 628 4666 
L 3309 4666 
L 3309 4134 
L 1259 4134 
L 1259 2759 
L 3109 2759 
L 3109 2228 
L 1259 2228 
L 1259 0 
L 628 0 
L 628 4666 
z
" transform="scale(0.015625)"/>
      </defs>
      <use xlink:href="#DejaVuSans-46"/>
      <use xlink:href="#DejaVuSans-69" x="50.269531"/>
      <use xlink:href="#DejaVuSans-74" x="78.052734"/>
      <use xlink:href="#DejaVuSans-6e" x="117.261719"/>
      <use xlink:href="#DejaVuSans-65" x="180.640625"/>
      <use xlink:href="#DejaVuSans-73" x="242.164062"/>
      <use xlink:href="#DejaVuSans-73" x="294.263672"/>
     </g>
    </g>
   </g>
   <g id="line2d_25">
    <path d="M 73.832727 295.488 
L 74.918528 204.338118 
L 76.00433 186.445153 
L 77.090131 182.857576 
L 78.175932 157.450761 
L 79.261733 200.296479 
L 80.347534 179.716149 
L 81.433335 172.729358 
L 82.519137 162.012569 
L 83.604938 179.208743 
L 84.690739 145.346006 
L 85.77654 166.581267 
L 87.948142 157.527076 
L 89.033943 138.749213 
L 90.119745 147.892226 
L 91.205546 145.051465 
L 92.291347 143.73956 
L 93.377148 150.096432 
L 94.462949 177.757734 
L 95.54875 168.191798 
L 96.634552 143.064719 
L 97.720353 142.425357 
L 98.806154 142.190286 
L 99.891955 145.083114 
L 100.977756 154.589581 
L 102.063557 152.134225 
L 103.149358 143.931241 
L 104.23516 129.084246 
L 105.320961 162.590164 
L 106.406762 145.652543 
L 107.492563 138.895463 
L 108.578364 139.624668 
L 109.664165 139.029461 
L 110.749967 140.371484 
L 111.835768 139.524871 
L 112.921569 154.146749 
L 114.00737 134.395167 
L 115.093171 142.039697 
L 116.178972 144.49582 
L 117.264773 135.78645 
L 118.350575 146.2429 
L 119.436376 124.998961 
L 120.522177 128.636819 
L 121.607978 125.615863 
L 122.693779 134.013846 
L 123.77958 124.104874 
L 124.865382 141.392678 
L 125.951183 133.000565 
L 127.036984 141.29722 
L 128.122785 126.346855 
L 129.208586 132.313729 
L 130.294387 131.503869 
L 131.380189 141.099668 
L 132.46599 134.744072 
L 133.551791 135.91713 
L 134.637592 132.0271 
L 135.723393 122.726863 
L 136.809194 139.432476 
L 137.894995 138.971778 
L 138.980797 168.125947 
L 140.066598 141.174963 
L 141.152399 141.877623 
L 142.2382 132.612864 
L 143.324001 137.040673 
L 144.409802 140.443716 
L 145.495604 137.60321 
L 146.581405 136.642762 
L 147.667206 139.020272 
L 148.753007 134.473524 
L 149.838808 120.764875 
L 150.924609 131.355323 
L 152.01041 128.916812 
L 153.096212 127.187853 
L 154.182013 137.033782 
L 156.353615 125.669973 
L 157.439416 137.916638 
L 158.525217 133.739979 
L 159.611019 134.911251 
L 160.69682 147.25465 
L 161.782621 146.735758 
L 162.868422 141.113196 
L 163.954223 141.189 
L 165.040024 131.684831 
L 166.125825 130.796614 
L 167.211627 138.015414 
L 168.297428 137.278552 
L 169.383229 141.407481 
L 170.46903 149.999443 
L 171.554831 137.350783 
L 172.640632 140.19333 
L 173.726434 137.89188 
L 174.812235 137.561351 
L 175.898036 138.257631 
L 176.983837 127.241962 
L 178.069638 138.716288 
L 179.155439 132.488564 
L 180.24124 137.410763 
L 181.327042 133.515373 
L 182.412843 142.131071 
L 183.498644 120.915718 
L 184.584445 144.352123 
L 185.670246 122.781738 
L 186.756047 127.840998 
L 187.841849 146.470059 
L 188.92765 173.145901 
L 190.013451 161.564121 
L 191.099252 142.060882 
L 192.185053 150.760297 
L 193.270854 148.471098 
L 194.356656 130.471445 
L 195.442457 133.215983 
L 196.528258 167.145591 
L 197.614059 135.598853 
L 199.785661 127.90353 
L 200.871462 131.060272 
L 201.957264 121.940485 
L 203.043065 136.551643 
L 204.128866 115.890915 
L 205.214667 140.954695 
L 206.300468 131.148072 
L 207.386269 130.518153 
L 208.472071 125.820306 
L 209.557872 115.789587 
L 210.643673 121.190351 
L 211.729474 122.02803 
L 212.815275 118.853423 
L 213.901076 121.825374 
L 214.986877 118.769961 
L 216.072679 121.844262 
L 217.15848 118.645917 
L 218.244281 117.083371 
L 219.330082 128.879292 
L 220.415883 119.964204 
L 221.501684 119.886612 
L 222.587486 117.002462 
L 223.673287 123.846066 
L 224.759088 127.964531 
L 225.844889 126.626592 
L 228.016491 149.549209 
L 229.102292 124.411156 
L 230.188094 124.59518 
L 231.273895 130.027082 
L 232.359696 131.289472 
L 233.445497 119.592582 
L 235.617099 124.902227 
L 236.702901 136.196612 
L 237.788702 129.383125 
L 238.874503 123.451729 
L 239.960304 131.438784 
L 241.046105 126.778456 
L 242.131906 116.698477 
L 243.217708 127.866011 
L 244.303509 126.762121 
L 245.38931 117.994558 
L 246.475111 133.054419 
L 247.560912 126.659007 
L 248.646713 119.357001 
L 249.732514 122.281989 
L 250.818316 120.017737 
L 251.904117 118.779976 
L 252.989918 118.275824 
L 254.075719 118.646938 
L 255.16152 121.317665 
L 256.247321 116.864635 
L 257.333123 117.092559 
L 258.418924 115.848291 
L 259.504725 117.212265 
L 260.590526 120.869867 
L 261.676327 121.990372 
L 262.762128 126.022962 
L 263.847929 128.111036 
L 264.933731 128.555655 
L 266.019532 126.736469 
L 267.105333 131.150261 
L 268.191134 127.485749 
L 269.276935 136.465119 
L 270.362736 137.41306 
L 271.448538 127.613073 
L 272.534339 137.112399 
L 273.62014 136.155775 
L 274.705941 135.413436 
L 275.791742 133.259358 
L 276.877543 126.986905 
L 277.963344 139.714 
L 279.049146 134.064638 
L 280.134947 144.31103 
L 281.220748 140.591581 
L 282.306549 128.355275 
L 283.39235 129.464035 
L 284.478151 141.613109 
L 285.563953 136.465119 
L 286.649754 124.587523 
L 287.735555 153.165372 
L 288.821356 122.890468 
L 289.907157 135.466641 
L 290.992958 125.497434 
L 292.07876 127.443342 
L 293.164561 126.981113 
L 294.250362 119.097172 
L 295.336163 139.639216 
L 296.421964 118.478483 
L 297.507765 124.39431 
L 298.593566 125.279464 
L 299.679368 122.96372 
L 300.765169 116.986382 
L 301.85097 125.609992 
L 302.936771 128.776943 
L 304.022572 124.75853 
L 305.108373 129.802731 
L 306.194175 128.605681 
L 307.279976 135.809176 
L 308.365777 140.590149 
L 309.451578 122.568669 
L 310.537379 128.766989 
L 312.708981 137.579473 
L 313.794783 134.819622 
L 314.880584 124.762614 
L 315.966385 142.893457 
L 317.052186 141.700746 
L 318.137987 135.316819 
L 319.223788 138.822466 
L 320.30959 134.501855 
L 321.395391 161.941613 
L 322.481192 144.056816 
L 323.566993 150.876429 
L 325.738595 121.590814 
L 326.824396 119.882018 
L 327.910198 125.142403 
L 328.995999 118.543823 
L 330.0818 122.541818 
L 331.167601 115.736753 
L 332.253402 118.686755 
L 333.339203 144.916701 
L 334.425005 140.93836 
L 335.510806 138.477899 
L 336.596607 125.593147 
L 337.682408 137.832921 
L 338.768209 142.606829 
L 339.85401 135.676955 
L 340.939811 130.20983 
L 342.025613 127.259574 
L 343.111414 153.198808 
L 344.197215 145.947083 
L 345.283016 155.930584 
L 346.368817 147.838116 
L 347.454618 157.554131 
L 348.54042 152.915243 
L 349.626221 147.311312 
L 350.712022 122.217159 
L 351.797823 135.790279 
L 352.883624 118.648469 
L 353.969425 125.219739 
L 355.055227 123.918553 
L 356.141028 121.69597 
L 357.226829 122.626045 
L 358.31263 115.630321 
L 359.398431 118.589255 
L 360.484232 117.018286 
L 361.570033 125.519639 
L 362.655835 119.241635 
L 363.741636 124.097728 
L 364.827437 127.334868 
L 365.913238 115.505511 
L 366.999039 116.9629 
L 368.08484 123.683992 
L 369.170642 115.394229 
L 370.256443 123.743657 
L 371.342244 122.299939 
L 372.428045 126.996937 
L 373.513846 129.500333 
L 374.599647 126.354767 
L 375.685448 131.299426 
L 377.857051 140.277047 
L 378.942852 124.648269 
L 380.028653 135.876548 
L 381.114454 130.30197 
L 382.200255 125.962727 
L 383.286057 122.45172 
L 384.371858 125.484672 
L 385.457659 134.887514 
L 386.54346 121.545637 
L 387.629261 138.315825 
L 388.715062 142.882482 
L 389.800863 136.018969 
L 390.886665 119.54664 
L 391.972466 130.560012 
L 393.058267 124.984668 
L 394.144068 145.35009 
L 395.229869 133.710372 
L 396.31567 124.424683 
L 397.401472 121.903731 
L 398.487273 142.539702 
L 398.487273 142.539702 
" clip-path="url(#p16e4e1e504)" style="fill: none; stroke: #0000ff; stroke-width: 1.5; stroke-linecap: square"/>
   </g>
   <g id="line2d_26">
    <path d="M 73.832727 188.283975 
L 74.918528 94.074647 
L 76.00433 74.546187 
L 77.090131 68.188119 
L 78.175932 65.126071 
L 79.261733 77.939614 
L 80.347534 72.137994 
L 81.433335 67.546078 
L 82.519137 69.063374 
L 83.604938 68.227652 
L 84.690739 66.964921 
L 85.77654 62.836403 
L 86.862341 66.05184 
L 87.948142 67.242212 
L 89.033943 68.016008 
L 90.119745 70.556625 
L 91.205546 68.572061 
L 92.291347 73.461405 
L 93.377148 68.663135 
L 94.462949 67.919841 
L 95.54875 68.292547 
L 96.634552 65.177322 
L 97.720353 64.62055 
L 98.806154 65.802965 
L 99.891955 63.991988 
L 100.977756 65.20228 
L 103.149358 66.630198 
L 104.23516 74.695322 
L 105.320961 63.786751 
L 106.406762 60.752925 
L 107.492563 65.448944 
L 108.578364 66.650121 
L 109.664165 66.817766 
L 110.749967 61.348266 
L 111.835768 67.951804 
L 112.921569 60.878558 
L 114.00737 74.051632 
L 115.093171 66.194886 
L 116.178972 59.593913 
L 117.264773 66.774775 
L 118.350575 62.388585 
L 119.436376 85.332642 
L 120.522177 82.514108 
L 121.607978 77.897407 
L 122.693779 66.411239 
L 123.77958 78.084806 
L 124.865382 65.462507 
L 125.951183 73.418586 
L 127.036984 63.676122 
L 128.122785 77.690098 
L 129.208586 69.90791 
L 130.294387 78.658253 
L 131.380189 68.697606 
L 132.46599 77.930898 
L 133.551791 80.401737 
L 134.637592 69.054708 
L 135.723393 83.989158 
L 136.809194 69.953267 
L 137.894995 67.104389 
L 138.980797 61.563956 
L 140.066598 62.748865 
L 141.152399 60.228839 
L 142.2382 69.445894 
L 143.324001 67.11632 
L 144.409802 65.37542 
L 145.495604 66.469764 
L 146.581405 71.873917 
L 147.667206 68.644678 
L 148.753007 69.157435 
L 149.838808 87.17122 
L 150.924609 68.695074 
L 152.01041 77.430738 
L 153.096212 72.882378 
L 154.182013 64.044631 
L 155.267814 76.817016 
L 156.353615 78.975699 
L 157.439416 67.576566 
L 158.525217 65.349877 
L 159.611019 73.777103 
L 160.69682 62.177788 
L 161.782621 58.240629 
L 162.868422 68.014078 
L 163.954223 67.457293 
L 165.040024 75.588828 
L 166.125825 75.256292 
L 167.211627 66.023991 
L 168.297428 66.274283 
L 169.383229 69.746143 
L 170.46903 67.740174 
L 171.554831 66.097514 
L 172.640632 65.956977 
L 173.726434 69.477527 
L 174.812235 77.826305 
L 175.898036 64.373827 
L 176.983837 72.518961 
L 178.069638 63.559921 
L 179.155439 68.710521 
L 180.24124 60.763463 
L 181.327042 67.53009 
L 182.412843 63.533709 
L 183.498644 86.998211 
L 184.584445 65.718025 
L 185.670246 79.538851 
L 186.756047 70.577317 
L 187.841849 56.742361 
L 188.92765 57.822249 
L 190.013451 53.568 
L 191.099252 60.693323 
L 192.185053 56.796035 
L 193.270854 54.503195 
L 194.356656 65.708195 
L 195.442457 63.162686 
L 196.528258 56.381632 
L 197.614059 64.732406 
L 198.69986 69.804511 
L 199.785661 69.051124 
L 200.871462 66.082386 
L 201.957264 80.042085 
L 203.043065 60.149271 
L 204.128866 114.606077 
L 205.214667 59.445296 
L 206.300468 65.751989 
L 207.386269 65.367929 
L 208.472071 74.209928 
L 209.557872 114.543556 
L 210.643673 86.444934 
L 211.729474 80.333092 
L 212.815275 89.805399 
L 213.901076 79.939812 
L 214.986877 88.767186 
L 216.072679 82.078397 
L 217.15848 88.596761 
L 218.244281 104.448709 
L 219.330082 70.540507 
L 220.415883 90.190015 
L 221.501684 89.052043 
L 222.587486 104.446594 
L 223.673287 77.314183 
L 224.759088 80.294637 
L 225.844889 81.759825 
L 226.93069 64.184391 
L 228.016491 60.819834 
L 229.102292 76.243537 
L 230.188094 77.042631 
L 231.273895 68.958201 
L 232.359696 69.53021 
L 233.445497 89.790014 
L 234.531298 87.022764 
L 235.617099 80.139476 
L 236.702901 83.924162 
L 237.788702 79.337321 
L 238.874503 85.165113 
L 239.960304 78.933295 
L 241.046105 90.472915 
L 242.131906 104.038285 
L 243.217708 75.64971 
L 244.303509 74.149483 
L 245.38931 100.205036 
L 246.475111 71.318955 
L 247.560912 78.819565 
L 248.646713 97.813425 
L 249.732514 86.917191 
L 250.818316 88.560534 
L 251.904117 88.899831 
L 252.989918 100.601802 
L 254.075719 100.456676 
L 255.16152 88.759391 
L 256.247321 104.225299 
L 257.333123 104.44224 
L 258.418924 114.574696 
L 259.504725 104.56335 
L 261.676327 87.18057 
L 262.762128 75.425733 
L 263.847929 79.068819 
L 264.933731 75.277255 
L 266.019532 79.851238 
L 267.105333 71.380735 
L 268.191134 75.331675 
L 270.362736 63.645819 
L 271.448538 76.234863 
L 272.534339 64.511335 
L 273.62014 63.758812 
L 274.705941 63.503968 
L 275.791742 65.642279 
L 276.877543 71.890352 
L 277.963344 65.093292 
L 279.049146 68.138287 
L 280.134947 62.049793 
L 281.220748 62.221493 
L 282.306549 73.550077 
L 283.39235 70.064729 
L 284.478151 62.378943 
L 285.563953 65.663116 
L 286.649754 77.279383 
L 287.735555 58.152948 
L 288.821356 80.237005 
L 289.907157 63.973188 
L 290.992958 76.391966 
L 292.07876 70.336214 
L 293.164561 71.43476 
L 294.250362 89.098064 
L 295.336163 60.667541 
L 296.421964 89.328432 
L 297.507765 74.475823 
L 298.593566 73.523105 
L 299.679368 79.934423 
L 300.765169 104.343444 
L 301.85097 75.91158 
L 302.936771 71.806872 
L 304.022572 75.559713 
L 305.108373 67.856007 
L 306.194175 69.76945 
L 307.279976 63.371625 
L 308.365777 60.300698 
L 309.451578 80.916078 
L 310.537379 70.950082 
L 311.62318 65.376661 
L 312.708981 65.285526 
L 313.794783 64.530749 
L 314.880584 76.637883 
L 315.966385 60.327617 
L 317.052186 64.618594 
L 318.137987 66.60083 
L 319.223788 65.820729 
L 320.30959 70.760781 
L 321.395391 66.460471 
L 322.481192 58.668722 
L 323.566993 60.073524 
L 324.652794 68.029655 
L 325.738595 88.858834 
L 326.824396 88.998051 
L 327.910198 76.104004 
L 328.995999 91.537356 
L 330.0818 80.952601 
L 331.167601 114.536741 
L 332.253402 89.618193 
L 333.339203 61.123467 
L 334.425005 66.644542 
L 335.510806 63.333009 
L 336.596607 75.046391 
L 337.682408 64.716604 
L 338.768209 62.110195 
L 339.85401 65.072877 
L 340.939811 69.156644 
L 342.025613 71.237051 
L 343.111414 58.623076 
L 344.197215 57.625508 
L 345.283016 55.720232 
L 347.454618 56.100633 
L 348.54042 56.670819 
L 349.626221 58.651984 
L 350.712022 81.734192 
L 351.797823 63.178464 
L 352.883624 90.224281 
L 353.969425 75.852404 
L 355.055227 80.676388 
L 356.141028 81.818118 
L 357.226829 79.774591 
L 358.31263 114.546054 
L 359.398431 88.768982 
L 360.484232 104.372543 
L 361.570033 75.045362 
L 362.655835 97.60076 
L 363.741636 74.553954 
L 364.827437 79.48243 
L 365.913238 114.58826 
L 366.999039 104.322748 
L 368.08484 85.432174 
L 369.170642 114.647792 
L 370.256443 79.440058 
L 371.342244 82.002111 
L 372.428045 70.440785 
L 373.513846 70.820856 
L 374.599647 75.596731 
L 375.685448 67.139218 
L 376.77125 66.194602 
L 377.857051 61.452696 
L 378.942852 74.786002 
L 380.028653 65.835677 
L 381.114454 67.390571 
L 382.200255 75.573398 
L 383.286057 80.831513 
L 385.457659 69.730317 
L 386.54346 87.354333 
L 387.629261 63.319262 
L 388.715062 65.055982 
L 389.800863 65.730523 
L 390.886665 88.534386 
L 391.972466 75.046015 
L 393.058267 79.303562 
L 394.144068 57.047284 
L 395.229869 67.47901 
L 396.31567 73.186182 
L 397.401472 80.186489 
L 398.487273 57.764491 
L 398.487273 57.764491 
" clip-path="url(#p16e4e1e504)" style="fill: none; stroke-dasharray: 9.6,2.4,1.5,2.4; stroke-dashoffset: 0; stroke: #008000; stroke-width: 1.5"/>
   </g>
   <g id="line2d_27">
    <path d="M 73.832727 115.110663 
L 81.433335 114.983046 
L 83.604938 115.059616 
L 87.948142 115.034093 
L 92.291347 115.059616 
L 97.720353 114.983046 
L 99.891955 115.034093 
L 102.063557 115.08514 
L 105.320961 115.034093 
L 398.487273 114.983046 
L 398.487273 114.983046 
" clip-path="url(#p16e4e1e504)" style="fill: none; stroke: #ff0000; stroke-width: 1.5; stroke-linecap: square"/>
   </g>
   <g id="patch_3">
    <path d="M 57.6 307.584 
L 57.6 41.472 
" style="fill: none; stroke: #000000; stroke-width: 0.8; stroke-linejoin: miter; stroke-linecap: square"/>
   </g>
   <g id="patch_4">
    <path d="M 414.72 307.584 
L 414.72 41.472 
" style="fill: none; stroke: #000000; stroke-width: 0.8; stroke-linejoin: miter; stroke-linecap: square"/>
   </g>
   <g id="patch_5">
    <path d="M 57.6 307.584 
L 414.72 307.584 
" style="fill: none; stroke: #000000; stroke-width: 0.8; stroke-linejoin: miter; stroke-linecap: square"/>
   </g>
   <g id="patch_6">
    <path d="M 57.6 41.472 
L 414.72 41.472 
" style="fill: none; stroke: #000000; stroke-width: 0.8; stroke-linejoin: miter; stroke-linecap: square"/>
   </g>
   <g id="text_15">
    <!-- Population's average and best fitness -->
    <g transform="translate(123.529687 35.472) scale(0.12 -0.12)">
     <defs>
      <path id="DejaVuSans-50" d="M 1259 4147 
L 1259 2394 
L 2053 2394 
Q 2494 2394 2734 2622 
Q 2975 2850 2975 3272 
Q 2975 3691 2734 3919 
Q 2494 4147 2053 4147 
L 1259 4147 
z
M 628 4666 
L 2053 4666 
Q 2838 4666 3239 4311 
Q 3641 3956 3641 3272 
Q 3641 2581 3239 2228 
Q 2838 1875 2053 1875 
L 1259 1875 
L 1259 0 
L 628 0 
L 628 4666 
z
" transform="scale(0.015625)"/>
      <path id="DejaVuSans-70" d="M 1159 525 
L 1159 -1331 
L 581 -1331 
L 581 3500 
L 1159 3500 
L 1159 2969 
Q 1341 3281 1617 3432 
Q 1894 3584 2278 3584 
Q 2916 3584 3314 3078 
Q 3713 2572 3713 1747 
Q 3713 922 3314 415 
Q 2916 -91 2278 -91 
Q 1894 -91 1617 61 
Q 1341 213 1159 525 
z
M 3116 1747 
Q 3116 2381 2855 2742 
Q 2594 3103 2138 3103 
Q 1681 3103 1420 2742 
Q 1159 2381 1159 1747 
Q 1159 1113 1420 752 
Q 1681 391 2138 391 
Q 2594 391 2855 752 
Q 3116 1113 3116 1747 
z
" transform="scale(0.015625)"/>
      <path id="DejaVuSans-75" d="M 544 1381 
L 544 3500 
L 1119 3500 
L 1119 1403 
Q 1119 906 1312 657 
Q 1506 409 1894 409 
Q 2359 409 2629 706 
Q 2900 1003 2900 1516 
L 2900 3500 
L 3475 3500 
L 3475 0 
L 2900 0 
L 2900 538 
Q 2691 219 2414 64 
Q 2138 -91 1772 -91 
Q 1169 -91 856 284 
Q 544 659 544 1381 
z
M 1991 3584 
L 1991 3584 
z
" transform="scale(0.015625)"/>
      <path id="DejaVuSans-6c" d="M 603 4863 
L 1178 4863 
L 1178 0 
L 603 0 
L 603 4863 
z
" transform="scale(0.015625)"/>
      <path id="DejaVuSans-27" d="M 1147 4666 
L 1147 2931 
L 616 2931 
L 616 4666 
L 1147 4666 
z
" transform="scale(0.015625)"/>
      <path id="DejaVuSans-20" transform="scale(0.015625)"/>
      <path id="DejaVuSans-76" d="M 191 3500 
L 800 3500 
L 1894 563 
L 2988 3500 
L 3597 3500 
L 2284 0 
L 1503 0 
L 191 3500 
z
" transform="scale(0.015625)"/>
      <path id="DejaVuSans-67" d="M 2906 1791 
Q 2906 2416 2648 2759 
Q 2391 3103 1925 3103 
Q 1463 3103 1205 2759 
Q 947 2416 947 1791 
Q 947 1169 1205 825 
Q 1463 481 1925 481 
Q 2391 481 2648 825 
Q 2906 1169 2906 1791 
z
M 3481 434 
Q 3481 -459 3084 -895 
Q 2688 -1331 1869 -1331 
Q 1566 -1331 1297 -1286 
Q 1028 -1241 775 -1147 
L 775 -588 
Q 1028 -725 1275 -790 
Q 1522 -856 1778 -856 
Q 2344 -856 2625 -561 
Q 2906 -266 2906 331 
L 2906 616 
Q 2728 306 2450 153 
Q 2172 0 1784 0 
Q 1141 0 747 490 
Q 353 981 353 1791 
Q 353 2603 747 3093 
Q 1141 3584 1784 3584 
Q 2172 3584 2450 3431 
Q 2728 3278 2906 2969 
L 2906 3500 
L 3481 3500 
L 3481 434 
z
" transform="scale(0.015625)"/>
      <path id="DejaVuSans-64" d="M 2906 2969 
L 2906 4863 
L 3481 4863 
L 3481 0 
L 2906 0 
L 2906 525 
Q 2725 213 2448 61 
Q 2172 -91 1784 -91 
Q 1150 -91 751 415 
Q 353 922 353 1747 
Q 353 2572 751 3078 
Q 1150 3584 1784 3584 
Q 2172 3584 2448 3432 
Q 2725 3281 2906 2969 
z
M 947 1747 
Q 947 1113 1208 752 
Q 1469 391 1925 391 
Q 2381 391 2643 752 
Q 2906 1113 2906 1747 
Q 2906 2381 2643 2742 
Q 2381 3103 1925 3103 
Q 1469 3103 1208 2742 
Q 947 2381 947 1747 
z
" transform="scale(0.015625)"/>
      <path id="DejaVuSans-62" d="M 3116 1747 
Q 3116 2381 2855 2742 
Q 2594 3103 2138 3103 
Q 1681 3103 1420 2742 
Q 1159 2381 1159 1747 
Q 1159 1113 1420 752 
Q 1681 391 2138 391 
Q 2594 391 2855 752 
Q 3116 1113 3116 1747 
z
M 1159 2969 
Q 1341 3281 1617 3432 
Q 1894 3584 2278 3584 
Q 2916 3584 3314 3078 
Q 3713 2572 3713 1747 
Q 3713 922 3314 415 
Q 2916 -91 2278 -91 
Q 1894 -91 1617 61 
Q 1341 213 1159 525 
L 1159 0 
L 581 0 
L 581 4863 
L 1159 4863 
L 1159 2969 
z
" transform="scale(0.015625)"/>
      <path id="DejaVuSans-66" d="M 2375 4863 
L 2375 4384 
L 1825 4384 
Q 1516 4384 1395 4259 
Q 1275 4134 1275 3809 
L 1275 3500 
L 2222 3500 
L 2222 3053 
L 1275 3053 
L 1275 0 
L 697 0 
L 697 3053 
L 147 3053 
L 147 3500 
L 697 3500 
L 697 3744 
Q 697 4328 969 4595 
Q 1241 4863 1831 4863 
L 2375 4863 
z
" transform="scale(0.015625)"/>
     </defs>
     <use xlink:href="#DejaVuSans-50"/>
     <use xlink:href="#DejaVuSans-6f" x="56.677734"/>
     <use xlink:href="#DejaVuSans-70" x="117.859375"/>
     <use xlink:href="#DejaVuSans-75" x="181.335938"/>
     <use xlink:href="#DejaVuSans-6c" x="244.714844"/>
     <use xlink:href="#DejaVuSans-61" x="272.498047"/>
     <use xlink:href="#DejaVuSans-74" x="333.777344"/>
     <use xlink:href="#DejaVuSans-69" x="372.986328"/>
     <use xlink:href="#DejaVuSans-6f" x="400.769531"/>
     <use xlink:href="#DejaVuSans-6e" x="461.951172"/>
     <use xlink:href="#DejaVuSans-27" x="525.330078"/>
     <use xlink:href="#DejaVuSans-73" x="552.820312"/>
     <use xlink:href="#DejaVuSans-20" x="604.919922"/>
     <use xlink:href="#DejaVuSans-61" x="636.707031"/>
     <use xlink:href="#DejaVuSans-76" x="697.986328"/>
     <use xlink:href="#DejaVuSans-65" x="757.166016"/>
     <use xlink:href="#DejaVuSans-72" x="818.689453"/>
     <use xlink:href="#DejaVuSans-61" x="859.802734"/>
     <use xlink:href="#DejaVuSans-67" x="921.082031"/>
     <use xlink:href="#DejaVuSans-65" x="984.558594"/>
     <use xlink:href="#DejaVuSans-20" x="1046.082031"/>
     <use xlink:href="#DejaVuSans-61" x="1077.869141"/>
     <use xlink:href="#DejaVuSans-6e" x="1139.148438"/>
     <use xlink:href="#DejaVuSans-64" x="1202.527344"/>
     <use xlink:href="#DejaVuSans-20" x="1266.003906"/>
     <use xlink:href="#DejaVuSans-62" x="1297.791016"/>
     <use xlink:href="#DejaVuSans-65" x="1361.267578"/>
     <use xlink:href="#DejaVuSans-73" x="1422.791016"/>
     <use xlink:href="#DejaVuSans-74" x="1474.890625"/>
     <use xlink:href="#DejaVuSans-20" x="1514.099609"/>
     <use xlink:href="#DejaVuSans-66" x="1545.886719"/>
     <use xlink:href="#DejaVuSans-69" x="1581.091797"/>
     <use xlink:href="#DejaVuSans-74" x="1608.875"/>
     <use xlink:href="#DejaVuSans-6e" x="1648.083984"/>
     <use xlink:href="#DejaVuSans-65" x="1711.462891"/>
     <use xlink:href="#DejaVuSans-73" x="1772.986328"/>
     <use xlink:href="#DejaVuSans-73" x="1825.085938"/>
    </g>
   </g>
   <g id="legend_1">
    <g id="patch_7">
     <path d="M 334.779375 302.584 
L 407.72 302.584 
Q 409.72 302.584 409.72 300.584 
L 409.72 257.549625 
Q 409.72 255.549625 407.72 255.549625 
L 334.779375 255.549625 
Q 332.779375 255.549625 332.779375 257.549625 
L 332.779375 300.584 
Q 332.779375 302.584 334.779375 302.584 
z
" style="fill: #ffffff; opacity: 0.8; stroke: #cccccc; stroke-linejoin: miter"/>
    </g>
    <g id="line2d_28">
     <path d="M 336.779375 263.648062 
L 346.779375 263.648062 
L 356.779375 263.648062 
" style="fill: none; stroke: #0000ff; stroke-width: 1.5; stroke-linecap: square"/>
    </g>
    <g id="text_16">
     <!-- average -->
     <g transform="translate(364.779375 267.148062) scale(0.1 -0.1)">
      <use xlink:href="#DejaVuSans-61"/>
      <use xlink:href="#DejaVuSans-76" x="61.279297"/>
      <use xlink:href="#DejaVuSans-65" x="120.458984"/>
      <use xlink:href="#DejaVuSans-72" x="181.982422"/>
      <use xlink:href="#DejaVuSans-61" x="223.095703"/>
      <use xlink:href="#DejaVuSans-67" x="284.375"/>
      <use xlink:href="#DejaVuSans-65" x="347.851562"/>
     </g>
    </g>
    <g id="line2d_29">
     <path d="M 336.779375 278.326188 
L 346.779375 278.326188 
L 356.779375 278.326188 
" style="fill: none; stroke-dasharray: 9.6,2.4,1.5,2.4; stroke-dashoffset: 0; stroke: #008000; stroke-width: 1.5"/>
    </g>
    <g id="text_17">
     <!-- +1 sd -->
     <g transform="translate(364.779375 281.826188) scale(0.1 -0.1)">
      <defs>
       <path id="DejaVuSans-2b" d="M 2944 4013 
L 2944 2272 
L 4684 2272 
L 4684 1741 
L 2944 1741 
L 2944 0 
L 2419 0 
L 2419 1741 
L 678 1741 
L 678 2272 
L 2419 2272 
L 2419 4013 
L 2944 4013 
z
" transform="scale(0.015625)"/>
      </defs>
      <use xlink:href="#DejaVuSans-2b"/>
      <use xlink:href="#DejaVuSans-31" x="83.789062"/>
      <use xlink:href="#DejaVuSans-20" x="147.412109"/>
      <use xlink:href="#DejaVuSans-73" x="179.199219"/>
      <use xlink:href="#DejaVuSans-64" x="231.298828"/>
     </g>
    </g>
    <g id="line2d_30">
     <path d="M 336.779375 293.004312 
L 346.779375 293.004312 
L 356.779375 293.004312 
" style="fill: none; stroke: #ff0000; stroke-width: 1.5; stroke-linecap: square"/>
    </g>
    <g id="text_18">
     <!-- best -->
     <g transform="translate(364.779375 296.504312) scale(0.1 -0.1)">
      <use xlink:href="#DejaVuSans-62"/>
      <use xlink:href="#DejaVuSans-65" x="63.476562"/>
      <use xlink:href="#DejaVuSans-73" x="125"/>
      <use xlink:href="#DejaVuSans-74" x="177.099609"/>
     </g>
    </g>
   </g>
  </g>
 </g>
 <defs>
  <clipPath id="p16e4e1e504">
   <rect x="57.6" y="41.472" width="357.12" height="266.112"/>
  </clipPath>
 </defs>
</svg>
