<?xml version="1.0" encoding="UTF-8" standalone="no"?>
<!DOCTYPE svg PUBLIC "-//W3C//DTD SVG 1.1//EN"
 "http://www.w3.org/Graphics/SVG/1.1/DTD/svg11.dtd">
<!-- Generated by graphviz version 2.43.0 (0)
 -->
<!-- Title: %3 Pages: 1 -->
<svg width="933pt" height="126pt"
 viewBox="0.00 0.00 932.77 126.02" xmlns="http://www.w3.org/2000/svg" xmlns:xlink="http://www.w3.org/1999/xlink">
<g id="graph0" class="graph" transform="scale(1 1) rotate(0) translate(4 122.02)">
<title>%3</title>
<polygon fill="white" stroke="transparent" points="-4,4 -4,-122.02 928.77,-122.02 928.77,4 -4,4"/>
<!-- &#45;1 -->
<g id="node1" class="node">
<title>&#45;1</title>
<polygon fill="lightgray" stroke="black" points="541.26,-106.52 515.26,-106.52 515.26,-88.52 541.26,-88.52 541.26,-106.52"/>
<text text-anchor="middle" x="528.26" y="-95.32" font-family="Times,serif" font-size="9.00">&#45;1</text>
</g>
<!-- 2 -->
<g id="node5" class="node">
<title>2</title>
<ellipse fill="lightblue" stroke="black" cx="459.26" cy="-20.51" rx="16.03" ry="16.03"/>
<text text-anchor="middle" x="459.26" y="-18.31" font-family="Times,serif" font-size="9.00">2</text>
</g>
<!-- &#45;1&#45;&gt;2 -->
<g id="edge2" class="edge">
<title>&#45;1&#45;&gt;2</title>
<path fill="none" stroke="green" stroke-width="0.49" d="M520.88,-88.49C510.46,-77.16 491.12,-56.14 476.88,-40.66"/>
<polygon fill="green" stroke="green" stroke-width="0.49" points="479.31,-38.13 469.97,-33.14 474.16,-42.87 479.31,-38.13"/>
</g>
<!-- 5 -->
<g id="node8" class="node">
<title>5</title>
<ellipse fill="lightblue" stroke="black" cx="528.26" cy="-20.51" rx="16.03" ry="16.03"/>
<text text-anchor="middle" x="528.26" y="-18.31" font-family="Times,serif" font-size="9.00">5</text>
</g>
<!-- &#45;1&#45;&gt;5 -->
<g id="edge22" class="edge">
<title>&#45;1&#45;&gt;5</title>
<path fill="none" stroke="green" stroke-width="0.4" d="M528.26,-88.49C528.26,-78.73 528.26,-61.78 528.26,-47.37"/>
<polygon fill="green" stroke="green" stroke-width="0.4" points="531.76,-47.01 528.26,-37.01 524.76,-47.01 531.76,-47.01"/>
</g>
<!-- 6 -->
<g id="node9" class="node">
<title>6</title>
<ellipse fill="lightblue" stroke="black" cx="331.26" cy="-20.51" rx="16.03" ry="16.03"/>
<text text-anchor="middle" x="331.26" y="-18.31" font-family="Times,serif" font-size="9.00">6</text>
</g>
<!-- &#45;1&#45;&gt;6 -->
<g id="edge4" class="edge">
<title>&#45;1&#45;&gt;6</title>
<path fill="none" stroke="green" stroke-width="0.53" d="M514.94,-92.12C488.08,-83.16 425.61,-61.87 374.26,-41.01 367.98,-38.46 361.27,-35.52 355.07,-32.71"/>
<polygon fill="green" stroke="green" stroke-width="0.53" points="356.41,-29.48 345.86,-28.48 353.49,-35.84 356.41,-29.48"/>
</g>
<!-- 7 -->
<g id="node10" class="node">
<title>7</title>
<ellipse fill="lightblue" stroke="black" cx="597.26" cy="-20.51" rx="16.03" ry="16.03"/>
<text text-anchor="middle" x="597.26" y="-18.31" font-family="Times,serif" font-size="9.00">7</text>
</g>
<!-- &#45;1&#45;&gt;7 -->
<g id="edge3" class="edge">
<title>&#45;1&#45;&gt;7</title>
<path fill="none" stroke="green" stroke-width="0.2" d="M535.65,-88.49C546.07,-77.16 565.41,-56.14 579.65,-40.66"/>
<polygon fill="green" stroke="green" stroke-width="0.2" points="582.36,-42.87 586.56,-33.14 577.21,-38.13 582.36,-42.87"/>
</g>
<!-- 8 -->
<g id="node11" class="node">
<title>8</title>
<ellipse fill="lightblue" stroke="black" cx="648.26" cy="-20.51" rx="16.03" ry="16.03"/>
<text text-anchor="middle" x="648.26" y="-18.31" font-family="Times,serif" font-size="9.00">8</text>
</g>
<!-- &#45;1&#45;&gt;8 -->
<g id="edge13" class="edge">
<title>&#45;1&#45;&gt;8</title>
<path fill="none" stroke="red" stroke-width="0.28" d="M536.4,-88.37C540.38,-84.64 545.36,-80.33 550.26,-77.01 579.9,-56.97 591.83,-59.82 622.26,-41.01 623.99,-39.94 625.75,-38.79 627.49,-37.6"/>
<polygon fill="red" stroke="red" stroke-width="0.28" points="629.85,-40.21 635.89,-31.5 625.74,-34.54 629.85,-40.21"/>
</g>
<!-- 15 -->
<g id="node18" class="node">
<title>15</title>
<ellipse fill="lightblue" stroke="black" cx="404.26" cy="-20.51" rx="20.51" ry="20.51"/>
<text text-anchor="middle" x="404.26" y="-18.31" font-family="Times,serif" font-size="9.00">15</text>
</g>
<!-- &#45;1&#45;&gt;15 -->
<g id="edge12" class="edge">
<title>&#45;1&#45;&gt;15</title>
<path fill="none" stroke="red" stroke-width="0.12" d="M515.08,-88.97C496.8,-78.46 462.77,-58.69 434.26,-41.01 432.78,-40.09 431.25,-39.13 429.72,-38.16"/>
<polygon fill="red" stroke="red" stroke-width="0.12" points="431.31,-35.02 421,-32.57 427.53,-40.92 431.31,-35.02"/>
</g>
<!-- 16 -->
<g id="node19" class="node">
<title>16</title>
<ellipse fill="lightblue" stroke="black" cx="721.26" cy="-20.51" rx="20.51" ry="20.51"/>
<text text-anchor="middle" x="721.26" y="-18.31" font-family="Times,serif" font-size="9.00">16</text>
</g>
<!-- &#45;1&#45;&gt;16 -->
<g id="edge19" class="edge">
<title>&#45;1&#45;&gt;16</title>
<path fill="none" stroke="red" stroke-width="0.8" d="M535.71,-88.28C539.68,-84.35 544.85,-79.88 550.26,-77.01 607.4,-46.71 632.03,-66.99 691.26,-41.01 692.87,-40.31 694.48,-39.52 696.08,-38.68"/>
<polygon fill="red" stroke="red" stroke-width="0.8" points="698.14,-41.54 704.99,-33.46 694.6,-35.5 698.14,-41.54"/>
</g>
<!-- &#45;2 -->
<g id="node2" class="node">
<title>&#45;2</title>
<polygon fill="lightgray" stroke="black" points="293.26,-106.52 267.26,-106.52 267.26,-88.52 293.26,-88.52 293.26,-106.52"/>
<text text-anchor="middle" x="280.26" y="-95.32" font-family="Times,serif" font-size="9.00">&#45;2</text>
</g>
<!-- 1 -->
<g id="node4" class="node">
<title>1</title>
<ellipse fill="lightblue" stroke="black" cx="280.26" cy="-20.51" rx="16.03" ry="16.03"/>
<text text-anchor="middle" x="280.26" y="-18.31" font-family="Times,serif" font-size="9.00">1</text>
</g>
<!-- &#45;2&#45;&gt;1 -->
<g id="edge10" class="edge">
<title>&#45;2&#45;&gt;1</title>
<path fill="none" stroke="red" stroke-width="0.17" d="M280.26,-88.49C280.26,-78.73 280.26,-61.78 280.26,-47.37"/>
<polygon fill="red" stroke="red" stroke-width="0.17" points="283.76,-47.01 280.26,-37.01 276.76,-47.01 283.76,-47.01"/>
</g>
<!-- &#45;2&#45;&gt;2 -->
<g id="edge1" class="edge">
<title>&#45;2&#45;&gt;2</title>
<path fill="none" stroke="green" stroke-width="0.22" d="M293.64,-93.24C321.13,-86.16 385.49,-67.93 434.26,-41.01 436,-40.05 437.74,-38.98 439.45,-37.84"/>
<polygon fill="green" stroke="green" stroke-width="0.22" points="441.62,-40.59 447.6,-31.85 437.47,-34.96 441.62,-40.59"/>
</g>
<!-- 4 -->
<g id="node7" class="node">
<title>4</title>
<ellipse fill="lightblue" stroke="black" cx="16.26" cy="-20.51" rx="16.03" ry="16.03"/>
<text text-anchor="middle" x="16.26" y="-18.31" font-family="Times,serif" font-size="9.00">4</text>
</g>
<!-- &#45;2&#45;&gt;4 -->
<g id="edge20" class="edge">
<title>&#45;2&#45;&gt;4</title>
<path fill="none" stroke="green" stroke-width="0.63" d="M267.07,-94.07C232.42,-87.45 136.2,-67.88 59.26,-41.01 52.76,-38.74 45.9,-35.86 39.61,-33.02"/>
<polygon fill="green" stroke="green" stroke-width="0.63" points="40.87,-29.74 30.33,-28.66 37.9,-36.08 40.87,-29.74"/>
</g>
<!-- &#45;2&#45;&gt;5 -->
<g id="edge5" class="edge">
<title>&#45;2&#45;&gt;5</title>
<path fill="none" stroke="red" stroke-width="0.17" d="M293.39,-95.08C328.69,-90.84 428.01,-76.36 502.26,-41.01 504.29,-40.05 506.32,-38.91 508.29,-37.68"/>
<polygon fill="red" stroke="red" stroke-width="0.17" points="510.32,-40.53 516.48,-31.91 506.29,-34.81 510.32,-40.53"/>
</g>
<!-- &#45;2&#45;&gt;6 -->
<g id="edge21" class="edge">
<title>&#45;2&#45;&gt;6</title>
<path fill="none" stroke="red" stroke-width="0.12" d="M285.72,-88.49C293.07,-77.69 306.41,-58.06 316.76,-42.84"/>
<polygon fill="red" stroke="red" stroke-width="0.12" points="319.71,-44.72 322.44,-34.48 313.92,-40.78 319.71,-44.72"/>
</g>
<!-- 11 -->
<g id="node14" class="node">
<title>11</title>
<ellipse fill="lightblue" stroke="black" cx="89.26" cy="-20.51" rx="20.51" ry="20.51"/>
<text text-anchor="middle" x="89.26" y="-18.31" font-family="Times,serif" font-size="9.00">11</text>
</g>
<!-- &#45;2&#45;&gt;11 -->
<g id="edge8" class="edge">
<title>&#45;2&#45;&gt;11</title>
<path fill="none" stroke="red" stroke-width="0.23" d="M267.12,-91.58C241.74,-82.02 184.27,-60.22 136.26,-41.01 130.13,-38.56 123.56,-35.87 117.35,-33.3"/>
<polygon fill="red" stroke="red" stroke-width="0.23" points="118.55,-30.01 107.97,-29.4 115.86,-36.47 118.55,-30.01"/>
</g>
<!-- 13 -->
<g id="node16" class="node">
<title>13</title>
<ellipse fill="lightblue" stroke="black" cx="166.26" cy="-20.51" rx="20.51" ry="20.51"/>
<text text-anchor="middle" x="166.26" y="-18.31" font-family="Times,serif" font-size="9.00">13</text>
</g>
<!-- &#45;2&#45;&gt;13 -->
<g id="edge15" class="edge">
<title>&#45;2&#45;&gt;13</title>
<path fill="none" stroke="red" stroke-width="0.16" d="M267.84,-88.48C251.25,-77.73 220.97,-58.05 195.26,-41.01 194,-40.17 192.71,-39.31 191.4,-38.44"/>
<polygon fill="red" stroke="red" stroke-width="0.16" points="193.06,-35.34 182.8,-32.69 189.16,-41.16 193.06,-35.34"/>
</g>
<!-- &#45;2&#45;&gt;15 -->
<g id="edge18" class="edge">
<title>&#45;2&#45;&gt;15</title>
<path fill="none" stroke="red" stroke-width="0.35" d="M293.45,-88.97C311.73,-78.46 345.75,-58.69 374.26,-41.01 375.75,-40.09 377.28,-39.13 378.81,-38.16"/>
<polygon fill="red" stroke="red" stroke-width="0.35" points="381,-40.92 387.53,-32.57 377.22,-35.02 381,-40.92"/>
</g>
<!-- 17 -->
<g id="node20" class="node">
<title>17</title>
<ellipse fill="lightblue" stroke="black" cx="225.26" cy="-20.51" rx="20.51" ry="20.51"/>
<text text-anchor="middle" x="225.26" y="-18.31" font-family="Times,serif" font-size="9.00">17</text>
</g>
<!-- &#45;2&#45;&gt;17 -->
<g id="edge24" class="edge">
<title>&#45;2&#45;&gt;17</title>
<path fill="none" stroke="green" stroke-width="0.32" d="M274.38,-88.49C266.96,-78.38 253.89,-60.55 243.1,-45.83"/>
<polygon fill="green" stroke="green" stroke-width="0.32" points="245.8,-43.59 237.06,-37.6 240.15,-47.73 245.8,-43.59"/>
</g>
<!-- 0 -->
<g id="node3" class="node">
<title>0</title>
<ellipse fill="lightblue" stroke="black" cx="575.26" cy="-97.52" rx="16.03" ry="16.03"/>
<text text-anchor="middle" x="575.26" y="-95.32" font-family="Times,serif" font-size="9.00">0</text>
</g>
<!-- 0&#45;&gt;0 -->
<g id="edge9" class="edge">
<title>0&#45;&gt;0</title>
<path fill="none" stroke="green" stroke-width="0.33" d="M586.85,-109.04C597.73,-115.02 609.53,-111.17 609.53,-97.52 609.53,-88.13 603.95,-83.38 596.93,-83.27"/>
<polygon fill="green" stroke="green" stroke-width="0.33" points="595.59,-80.01 586.85,-86 597.42,-86.76 595.59,-80.01"/>
</g>
<!-- 2&#45;&gt;2 -->
<g id="edge11" class="edge">
<title>2&#45;&gt;2</title>
<path fill="none" stroke="red" stroke-width="0.3" d="M470.85,-32.03C481.73,-38 493.53,-34.16 493.53,-20.51 493.53,-11.12 487.95,-6.37 480.93,-6.26"/>
<polygon fill="red" stroke="red" stroke-width="0.3" points="479.59,-2.99 470.85,-8.98 481.42,-9.75 479.59,-2.99"/>
</g>
<!-- 3 -->
<g id="node6" class="node">
<title>3</title>
<ellipse fill="lightblue" stroke="black" cx="644.26" cy="-97.52" rx="16.03" ry="16.03"/>
<text text-anchor="middle" x="644.26" y="-95.32" font-family="Times,serif" font-size="9.00">3</text>
</g>
<!-- 3&#45;&gt;3 -->
<g id="edge6" class="edge">
<title>3&#45;&gt;3</title>
<path fill="none" stroke="green" stroke-width="0.16" d="M655.85,-109.04C666.73,-115.02 678.53,-111.17 678.53,-97.52 678.53,-88.13 672.95,-83.38 665.93,-83.27"/>
<polygon fill="green" stroke="green" stroke-width="0.16" points="664.59,-80.01 655.85,-86 666.42,-86.76 664.59,-80.01"/>
</g>
<!-- 4&#45;&gt;4 -->
<g id="edge25" class="edge">
<title>4&#45;&gt;4</title>
<path fill="none" stroke="red" stroke-width="0.15" d="M27.85,-32.03C38.73,-38 50.53,-34.16 50.53,-20.51 50.53,-11.12 44.95,-6.37 37.93,-6.26"/>
<polygon fill="red" stroke="red" stroke-width="0.15" points="36.59,-2.99 27.85,-8.98 38.42,-9.75 36.59,-2.99"/>
</g>
<!-- 5&#45;&gt;5 -->
<g id="edge14" class="edge">
<title>5&#45;&gt;5</title>
<path fill="none" stroke="green" stroke-width="0.26" d="M539.85,-32.03C550.73,-38 562.53,-34.16 562.53,-20.51 562.53,-11.12 556.95,-6.37 549.93,-6.26"/>
<polygon fill="green" stroke="green" stroke-width="0.26" points="548.59,-2.99 539.85,-8.98 550.42,-9.75 548.59,-2.99"/>
</g>
<!-- 6&#45;&gt;6 -->
<g id="edge23" class="edge">
<title>6&#45;&gt;6</title>
<path fill="none" stroke="green" stroke-width="0.29" d="M342.85,-32.03C353.73,-38 365.53,-34.16 365.53,-20.51 365.53,-11.12 359.95,-6.37 352.93,-6.26"/>
<polygon fill="green" stroke="green" stroke-width="0.29" points="351.59,-2.99 342.85,-8.98 353.42,-9.75 351.59,-2.99"/>
</g>
<!-- 8&#45;&gt;8 -->
<g id="edge17" class="edge">
<title>8&#45;&gt;8</title>
<path fill="none" stroke="green" stroke-width="0.2" d="M659.85,-32.03C670.73,-38 682.53,-34.16 682.53,-20.51 682.53,-11.12 676.95,-6.37 669.93,-6.26"/>
<polygon fill="green" stroke="green" stroke-width="0.2" points="668.59,-2.99 659.85,-8.98 670.42,-9.75 668.59,-2.99"/>
</g>
<!-- 9 -->
<g id="node12" class="node">
<title>9</title>
<ellipse fill="lightblue" stroke="black" cx="713.26" cy="-97.52" rx="16.03" ry="16.03"/>
<text text-anchor="middle" x="713.26" y="-95.32" font-family="Times,serif" font-size="9.00">9</text>
</g>
<!-- 10 -->
<g id="node13" class="node">
<title>10</title>
<ellipse fill="lightblue" stroke="black" cx="768.26" cy="-97.52" rx="20.51" ry="20.51"/>
<text text-anchor="middle" x="768.26" y="-95.32" font-family="Times,serif" font-size="9.00">10</text>
</g>
<!-- 11&#45;&gt;11 -->
<g id="edge16" class="edge">
<title>11&#45;&gt;11</title>
<path fill="none" stroke="red" stroke-width="0.35" d="M105.49,-33.36C116.71,-37.26 127.77,-32.97 127.77,-20.51 127.77,-11.93 122.54,-7.23 115.63,-6.39"/>
<polygon fill="red" stroke="red" stroke-width="0.35" points="114.98,-2.95 105.49,-7.65 115.84,-9.89 114.98,-2.95"/>
</g>
<!-- 12 -->
<g id="node15" class="node">
<title>12</title>
<ellipse fill="lightblue" stroke="black" cx="827.26" cy="-97.52" rx="20.51" ry="20.51"/>
<text text-anchor="middle" x="827.26" y="-95.32" font-family="Times,serif" font-size="9.00">12</text>
</g>
<!-- 14 -->
<g id="node17" class="node">
<title>14</title>
<ellipse fill="lightblue" stroke="black" cx="886.26" cy="-97.52" rx="20.51" ry="20.51"/>
<text text-anchor="middle" x="886.26" y="-95.32" font-family="Times,serif" font-size="9.00">14</text>
</g>
<!-- 14&#45;&gt;14 -->
<g id="edge7" class="edge">
<title>14&#45;&gt;14</title>
<path fill="none" stroke="red" stroke-width="0.35" d="M902.49,-110.38C913.71,-114.27 924.77,-109.99 924.77,-97.52 924.77,-88.95 919.54,-84.24 912.63,-83.4"/>
<polygon fill="red" stroke="red" stroke-width="0.35" points="911.98,-79.96 902.49,-84.66 912.84,-86.9 911.98,-79.96"/>
</g>
</g>
</svg>
