<?xml version="1.0" encoding="UTF-8" standalone="no"?>
<!DOCTYPE svg PUBLIC "-//W3C//DTD SVG 1.1//EN"
 "http://www.w3.org/Graphics/SVG/1.1/DTD/svg11.dtd">
<!-- Generated by graphviz version 2.43.0 (0)
 -->
<!-- Title: %3 Pages: 1 -->
<svg width="2049pt" height="445pt"
 viewBox="0.00 0.00 2048.99 444.87" xmlns="http://www.w3.org/2000/svg" xmlns:xlink="http://www.w3.org/1999/xlink">
<g id="graph0" class="graph" transform="scale(1 1) rotate(0) translate(4 440.87)">
<title>%3</title>
<polygon fill="white" stroke="transparent" points="-4,4 -4,-440.87 2044.99,-440.87 2044.99,4 -4,4"/>
<!-- player_x -->
<g id="node1" class="node">
<title>player_x</title>
<polygon fill="lightgray" stroke="black" points="56,-377.98 0,-377.98 0,-359.98 56,-359.98 56,-377.98"/>
<text text-anchor="middle" x="28" y="-366.78" font-family="Times,serif" font-size="9.00">player_x</text>
</g>
<!-- player_y -->
<g id="node2" class="node">
<title>player_y</title>
<polygon fill="lightgray" stroke="black" points="215,-377.98 159,-377.98 159,-359.98 215,-359.98 215,-377.98"/>
<text text-anchor="middle" x="187" y="-366.78" font-family="Times,serif" font-size="9.00">player_y</text>
</g>
<!-- 2670 -->
<g id="node29" class="node">
<title>2670</title>
<ellipse fill="white" stroke="black" cx="103" cy="-219.14" rx="28.98" ry="28.98"/>
<text text-anchor="middle" x="103" y="-216.94" font-family="Times,serif" font-size="9.00">2670</text>
</g>
<!-- player_y&#45;&gt;2670 -->
<g id="edge2" class="edge">
<title>player_y&#45;&gt;2670</title>
<path fill="none" stroke="green" stroke-width="0.53" stroke-dasharray="1,5" d="M182.24,-359.61C170.87,-339.59 141.59,-288.06 121.99,-253.56"/>
<polygon fill="green" stroke="green" stroke-width="0.53" points="124.97,-251.72 116.98,-244.75 118.88,-255.18 124.97,-251.72"/>
</g>
<!-- LEFTFIRE -->
<g id="node32" class="node">
<title>LEFTFIRE</title>
<ellipse fill="none" stroke="black" cx="196" cy="-219.14" rx="45.92" ry="45.92"/>
<text text-anchor="middle" x="196" y="-216.94" font-family="Times,serif" font-size="9.00">LEFTFIRE</text>
</g>
<!-- player_y&#45;&gt;LEFTFIRE -->
<g id="edge1" class="edge">
<title>player_y&#45;&gt;LEFTFIRE</title>
<path fill="none" stroke="red" stroke-width="0.39" d="M187.51,-359.61C188.49,-343.46 190.72,-306.8 192.65,-275.12"/>
<polygon fill="red" stroke="red" stroke-width="0.39" points="196.15,-275.23 193.27,-265.04 189.17,-274.81 196.15,-275.23"/>
</g>
<!-- ball_x -->
<g id="node3" class="node">
<title>ball_x</title>
<polygon fill="lightgray" stroke="black" points="309,-377.98 265,-377.98 265,-359.98 309,-359.98 309,-377.98"/>
<text text-anchor="middle" x="287" y="-366.78" font-family="Times,serif" font-size="9.00">ball_x</text>
</g>
<!-- ball_y -->
<g id="node4" class="node">
<title>ball_y</title>
<polygon fill="lightgray" stroke="black" points="402,-377.98 358,-377.98 358,-359.98 402,-359.98 402,-377.98"/>
<text text-anchor="middle" x="380" y="-366.78" font-family="Times,serif" font-size="9.00">ball_y</text>
</g>
<!-- UPRIGHT -->
<g id="node34" class="node">
<title>UPRIGHT</title>
<ellipse fill="none" stroke="black" cx="380" cy="-219.14" rx="43.68" ry="43.68"/>
<text text-anchor="middle" x="380" y="-216.94" font-family="Times,serif" font-size="9.00">UPRIGHT</text>
</g>
<!-- ball_y&#45;&gt;UPRIGHT -->
<g id="edge6" class="edge">
<title>ball_y&#45;&gt;UPRIGHT</title>
<path fill="none" stroke="red" stroke-width="0.17" d="M380,-359.61C380,-343.13 380,-305.29 380,-273.18"/>
<polygon fill="red" stroke="red" stroke-width="0.17" points="383.5,-272.99 380,-262.99 376.5,-272.99 383.5,-272.99"/>
</g>
<!-- NOOP -->
<g id="node5" class="node">
<title>NOOP</title>
<ellipse fill="lightblue" stroke="black" cx="453" cy="-368.98" rx="32.55" ry="32.55"/>
<text text-anchor="middle" x="453" y="-366.78" font-family="Times,serif" font-size="9.00">NOOP</text>
</g>
<!-- FIRE -->
<g id="node6" class="node">
<title>FIRE</title>
<ellipse fill="lightblue" stroke="black" cx="532" cy="-368.98" rx="28.07" ry="28.07"/>
<text text-anchor="middle" x="532" y="-366.78" font-family="Times,serif" font-size="9.00">FIRE</text>
</g>
<!-- RIGHT -->
<g id="node7" class="node">
<title>RIGHT</title>
<ellipse fill="lightblue" stroke="black" cx="612" cy="-368.98" rx="33.88" ry="33.88"/>
<text text-anchor="middle" x="612" y="-366.78" font-family="Times,serif" font-size="9.00">RIGHT</text>
</g>
<!-- LEFT -->
<g id="node8" class="node">
<title>LEFT</title>
<ellipse fill="lightblue" stroke="black" cx="693" cy="-368.98" rx="28.98" ry="28.98"/>
<text text-anchor="middle" x="693" y="-366.78" font-family="Times,serif" font-size="9.00">LEFT</text>
</g>
<!-- RIGHTFIRE -->
<g id="node9" class="node">
<title>RIGHTFIRE</title>
<ellipse fill="lightblue" stroke="black" cx="790" cy="-368.98" rx="50.41" ry="50.41"/>
<text text-anchor="middle" x="790" y="-366.78" font-family="Times,serif" font-size="9.00">RIGHTFIRE</text>
</g>
<!-- 690 -->
<g id="node24" class="node">
<title>690</title>
<ellipse fill="white" stroke="black" cx="790" cy="-219.14" rx="25" ry="25"/>
<text text-anchor="middle" x="790" y="-216.94" font-family="Times,serif" font-size="9.00">690</text>
</g>
<!-- RIGHTFIRE&#45;&gt;690 -->
<g id="edge5" class="edge">
<title>RIGHTFIRE&#45;&gt;690</title>
<path fill="none" stroke="red" stroke-width="0.61" d="M790,-318.75C790,-297.49 790,-273.15 790,-253.97"/>
<polygon fill="red" stroke="red" stroke-width="0.61" points="793.5,-253.9 790,-243.9 786.5,-253.9 793.5,-253.9"/>
</g>
<!-- LEFTRIGHTFIRE -->
<g id="node10" class="node">
<title>LEFTRIGHTFIRE</title>
<ellipse fill="lightblue" stroke="black" cx="926" cy="-368.98" rx="67.76" ry="67.76"/>
<text text-anchor="middle" x="926" y="-366.78" font-family="Times,serif" font-size="9.00">LEFTRIGHTFIRE</text>
</g>
<!-- 6 -->
<g id="node11" class="node">
<title>6</title>
<ellipse fill="white" stroke="black" cx="1028" cy="-368.98" rx="16.03" ry="16.03"/>
<text text-anchor="middle" x="1028" y="-366.78" font-family="Times,serif" font-size="9.00">6</text>
</g>
<!-- 7 -->
<g id="node12" class="node">
<title>7</title>
<ellipse fill="white" stroke="black" cx="1079" cy="-368.98" rx="16.03" ry="16.03"/>
<text text-anchor="middle" x="1079" y="-366.78" font-family="Times,serif" font-size="9.00">7</text>
</g>
<!-- 8 -->
<g id="node13" class="node">
<title>8</title>
<ellipse fill="white" stroke="black" cx="1130" cy="-368.98" rx="16.03" ry="16.03"/>
<text text-anchor="middle" x="1130" y="-366.78" font-family="Times,serif" font-size="9.00">8</text>
</g>
<!-- 9 -->
<g id="node14" class="node">
<title>9</title>
<ellipse fill="white" stroke="black" cx="1181" cy="-368.98" rx="16.03" ry="16.03"/>
<text text-anchor="middle" x="1181" y="-366.78" font-family="Times,serif" font-size="9.00">9</text>
</g>
<!-- 10 -->
<g id="node15" class="node">
<title>10</title>
<ellipse fill="white" stroke="black" cx="1236" cy="-368.98" rx="20.51" ry="20.51"/>
<text text-anchor="middle" x="1236" y="-366.78" font-family="Times,serif" font-size="9.00">10</text>
</g>
<!-- 11 -->
<g id="node16" class="node">
<title>11</title>
<ellipse fill="white" stroke="black" cx="1295" cy="-368.98" rx="20.51" ry="20.51"/>
<text text-anchor="middle" x="1295" y="-366.78" font-family="Times,serif" font-size="9.00">11</text>
</g>
<!-- 12 -->
<g id="node17" class="node">
<title>12</title>
<ellipse fill="white" stroke="black" cx="1354" cy="-368.98" rx="20.51" ry="20.51"/>
<text text-anchor="middle" x="1354" y="-366.78" font-family="Times,serif" font-size="9.00">12</text>
</g>
<!-- 13 -->
<g id="node18" class="node">
<title>13</title>
<ellipse fill="white" stroke="black" cx="1413" cy="-368.98" rx="20.51" ry="20.51"/>
<text text-anchor="middle" x="1413" y="-366.78" font-family="Times,serif" font-size="9.00">13</text>
</g>
<!-- 14 -->
<g id="node19" class="node">
<title>14</title>
<ellipse fill="white" stroke="black" cx="1472" cy="-368.98" rx="20.51" ry="20.51"/>
<text text-anchor="middle" x="1472" y="-366.78" font-family="Times,serif" font-size="9.00">14</text>
</g>
<!-- 15 -->
<g id="node20" class="node">
<title>15</title>
<ellipse fill="white" stroke="black" cx="1531" cy="-368.98" rx="20.51" ry="20.51"/>
<text text-anchor="middle" x="1531" y="-366.78" font-family="Times,serif" font-size="9.00">15</text>
</g>
<!-- 16 -->
<g id="node21" class="node">
<title>16</title>
<ellipse fill="white" stroke="black" cx="1590" cy="-368.98" rx="20.51" ry="20.51"/>
<text text-anchor="middle" x="1590" y="-366.78" font-family="Times,serif" font-size="9.00">16</text>
</g>
<!-- 17 -->
<g id="node22" class="node">
<title>17</title>
<ellipse fill="white" stroke="black" cx="1649" cy="-368.98" rx="20.51" ry="20.51"/>
<text text-anchor="middle" x="1649" y="-366.78" font-family="Times,serif" font-size="9.00">17</text>
</g>
<!-- 328 -->
<g id="node23" class="node">
<title>328</title>
<ellipse fill="white" stroke="black" cx="1712" cy="-368.98" rx="25" ry="25"/>
<text text-anchor="middle" x="1712" y="-366.78" font-family="Times,serif" font-size="9.00">328</text>
</g>
<!-- 1134 -->
<g id="node25" class="node">
<title>1134</title>
<ellipse fill="white" stroke="black" cx="1784" cy="-368.98" rx="28.98" ry="28.98"/>
<text text-anchor="middle" x="1784" y="-366.78" font-family="Times,serif" font-size="9.00">1134</text>
</g>
<!-- 1474 -->
<g id="node26" class="node">
<title>1474</title>
<ellipse fill="white" stroke="black" cx="1860" cy="-368.98" rx="28.98" ry="28.98"/>
<text text-anchor="middle" x="1860" y="-366.78" font-family="Times,serif" font-size="9.00">1474</text>
</g>
<!-- 1858 -->
<g id="node27" class="node">
<title>1858</title>
<ellipse fill="white" stroke="black" cx="1936" cy="-368.98" rx="28.98" ry="28.98"/>
<text text-anchor="middle" x="1936" y="-366.78" font-family="Times,serif" font-size="9.00">1858</text>
</g>
<!-- 2037 -->
<g id="node28" class="node">
<title>2037</title>
<ellipse fill="white" stroke="black" cx="2012" cy="-368.98" rx="28.98" ry="28.98"/>
<text text-anchor="middle" x="2012" y="-366.78" font-family="Times,serif" font-size="9.00">2037</text>
</g>
<!-- DOWNLEFTFIRE -->
<g id="node33" class="node">
<title>DOWNLEFTFIRE</title>
<ellipse fill="none" stroke="black" cx="196" cy="-68.59" rx="68.68" ry="68.68"/>
<text text-anchor="middle" x="196" y="-66.39" font-family="Times,serif" font-size="9.00">DOWNLEFTFIRE</text>
</g>
<!-- 2670&#45;&gt;DOWNLEFTFIRE -->
<g id="edge3" class="edge">
<title>2670&#45;&gt;DOWNLEFTFIRE</title>
<path fill="none" stroke="green" stroke-width="0.15" stroke-dasharray="1,5" d="M117.94,-194.27C127.92,-178.34 141.56,-156.55 154.65,-135.65"/>
<polygon fill="green" stroke="green" stroke-width="0.15" points="157.67,-137.4 160.01,-127.07 151.74,-133.69 157.67,-137.4"/>
</g>
<!-- 2731 -->
<g id="node30" class="node">
<title>2731</title>
<ellipse fill="white" stroke="black" cx="289" cy="-219.14" rx="28.98" ry="28.98"/>
<text text-anchor="middle" x="289" y="-216.94" font-family="Times,serif" font-size="9.00">2731</text>
</g>
<!-- 2731&#45;&gt;DOWNLEFTFIRE -->
<g id="edge4" class="edge">
<title>2731&#45;&gt;DOWNLEFTFIRE</title>
<path fill="none" stroke="green" stroke-width="0.22" d="M274.06,-194.27C264.08,-178.34 250.44,-156.55 237.35,-135.65"/>
<polygon fill="green" stroke="green" stroke-width="0.22" points="240.26,-133.69 231.99,-127.07 234.33,-137.4 240.26,-133.69"/>
</g>
<!-- 2894 -->
<g id="node31" class="node">
<title>2894</title>
<ellipse fill="white" stroke="black" cx="103" cy="-368.98" rx="28.98" ry="28.98"/>
<text text-anchor="middle" x="103" y="-366.78" font-family="Times,serif" font-size="9.00">2894</text>
</g>
<!-- 2894&#45;&gt;2670 -->
<g id="edge7" class="edge">
<title>2894&#45;&gt;2670</title>
<path fill="none" stroke="green" stroke-width="0.81" d="M103,-339.83C103,-316.71 103,-283.74 103,-258.25"/>
<polygon fill="green" stroke="green" stroke-width="0.81" points="106.5,-258.19 103,-248.19 99.5,-258.19 106.5,-258.19"/>
</g>
</g>
</svg>
