<?xml version="1.0" encoding="UTF-8" standalone="no"?>
<!DOCTYPE svg PUBLIC "-//W3C//DTD SVG 1.1//EN"
 "http://www.w3.org/Graphics/SVG/1.1/DTD/svg11.dtd">
<!-- Generated by graphviz version 2.43.0 (0)
 -->
<!-- Title: %3 Pages: 1 -->
<svg width="518pt" height="271pt"
 viewBox="0.00 0.00 517.53 270.92" xmlns="http://www.w3.org/2000/svg" xmlns:xlink="http://www.w3.org/1999/xlink">
<g id="graph0" class="graph" transform="scale(1 1) rotate(0) translate(4 266.92)">
<title>%3</title>
<polygon fill="white" stroke="transparent" points="-4,4 -4,-266.92 513.53,-266.92 513.53,4 -4,4"/>
<!-- player_x -->
<g id="node1" class="node">
<title>player_x</title>
<polygon fill="lightgray" stroke="black" points="56,-239.39 0,-239.39 0,-221.39 56,-221.39 56,-239.39"/>
<text text-anchor="middle" x="28" y="-228.19" font-family="Times,serif" font-size="9.00">player_x</text>
</g>
<!-- player_y -->
<g id="node2" class="node">
<title>player_y</title>
<polygon fill="lightgray" stroke="black" points="130,-239.39 74,-239.39 74,-221.39 130,-221.39 130,-239.39"/>
<text text-anchor="middle" x="102" y="-228.19" font-family="Times,serif" font-size="9.00">player_y</text>
</g>
<!-- 2472 -->
<g id="node11" class="node">
<title>2472</title>
<ellipse fill="white" stroke="black" cx="102" cy="-132.87" rx="28.98" ry="28.98"/>
<text text-anchor="middle" x="102" y="-130.67" font-family="Times,serif" font-size="9.00">2472</text>
</g>
<!-- player_y&#45;&gt;2472 -->
<g id="edge6" class="edge">
<title>player_y&#45;&gt;2472</title>
<path fill="none" stroke="red" stroke-width="0.12" stroke-dasharray="1,5" d="M102,-221.25C102,-210.34 102,-190.23 102,-172.06"/>
<polygon fill="red" stroke="red" stroke-width="0.12" points="105.5,-171.95 102,-161.95 98.5,-171.95 105.5,-171.95"/>
</g>
<!-- ball_x -->
<g id="node3" class="node">
<title>ball_x</title>
<polygon fill="lightgray" stroke="black" points="236,-239.39 192,-239.39 192,-221.39 236,-221.39 236,-239.39"/>
<text text-anchor="middle" x="214" y="-228.19" font-family="Times,serif" font-size="9.00">ball_x</text>
</g>
<!-- FIRE -->
<g id="node6" class="node">
<title>FIRE</title>
<ellipse fill="lightblue" stroke="black" cx="177" cy="-132.87" rx="28.07" ry="28.07"/>
<text text-anchor="middle" x="177" y="-130.67" font-family="Times,serif" font-size="9.00">FIRE</text>
</g>
<!-- ball_x&#45;&gt;FIRE -->
<g id="edge2" class="edge">
<title>ball_x&#45;&gt;FIRE</title>
<path fill="none" stroke="green" stroke-width="0.41" d="M210.85,-221.25C206.38,-209.72 197.95,-187.95 190.61,-169.02"/>
<polygon fill="green" stroke="green" stroke-width="0.41" points="193.78,-167.51 186.91,-159.45 187.25,-170.04 193.78,-167.51"/>
</g>
<!-- 1516 -->
<g id="node9" class="node">
<title>1516</title>
<ellipse fill="white" stroke="black" cx="252" cy="-132.87" rx="28.98" ry="28.98"/>
<text text-anchor="middle" x="252" y="-130.67" font-family="Times,serif" font-size="9.00">1516</text>
</g>
<!-- ball_x&#45;&gt;1516 -->
<g id="edge3" class="edge">
<title>ball_x&#45;&gt;1516</title>
<path fill="none" stroke="red" stroke-width="0.23" stroke-dasharray="1,5" d="M217.24,-221.25C221.76,-209.88 230.26,-188.52 237.72,-169.78"/>
<polygon fill="red" stroke="red" stroke-width="0.23" points="241.05,-170.86 241.5,-160.27 234.55,-168.27 241.05,-170.86"/>
</g>
<!-- ball_y -->
<g id="node4" class="node">
<title>ball_y</title>
<polygon fill="lightgray" stroke="black" points="426,-239.39 382,-239.39 382,-221.39 426,-221.39 426,-239.39"/>
<text text-anchor="middle" x="404" y="-228.19" font-family="Times,serif" font-size="9.00">ball_y</text>
</g>
<!-- LEFT -->
<g id="node8" class="node">
<title>LEFT</title>
<ellipse fill="lightblue" stroke="black" cx="328" cy="-132.87" rx="28.98" ry="28.98"/>
<text text-anchor="middle" x="328" y="-130.67" font-family="Times,serif" font-size="9.00">LEFT</text>
</g>
<!-- ball_y&#45;&gt;LEFT -->
<g id="edge1" class="edge">
<title>ball_y&#45;&gt;LEFT</title>
<path fill="none" stroke="green" stroke-width="1.22" d="M397.52,-221.25C387.55,-208.72 367.94,-184.07 352.08,-164.14"/>
<polygon fill="green" stroke="green" stroke-width="1.22" points="354.74,-161.86 345.78,-156.22 349.26,-166.22 354.74,-161.86"/>
</g>
<!-- 2011 -->
<g id="node10" class="node">
<title>2011</title>
<ellipse fill="white" stroke="black" cx="404" cy="-132.87" rx="28.98" ry="28.98"/>
<text text-anchor="middle" x="404" y="-130.67" font-family="Times,serif" font-size="9.00">2011</text>
</g>
<!-- ball_y&#45;&gt;2011 -->
<g id="edge4" class="edge">
<title>ball_y&#45;&gt;2011</title>
<path fill="none" stroke="green" stroke-width="0.15" d="M404,-221.25C404,-210.34 404,-190.23 404,-172.06"/>
<polygon fill="green" stroke="green" stroke-width="0.15" points="407.5,-171.95 404,-161.95 400.5,-171.95 407.5,-171.95"/>
</g>
<!-- 2745 -->
<g id="node12" class="node">
<title>2745</title>
<ellipse fill="white" stroke="black" cx="480" cy="-132.87" rx="28.98" ry="28.98"/>
<text text-anchor="middle" x="480" y="-130.67" font-family="Times,serif" font-size="9.00">2745</text>
</g>
<!-- ball_y&#45;&gt;2745 -->
<g id="edge7" class="edge">
<title>ball_y&#45;&gt;2745</title>
<path fill="none" stroke="green" stroke-width="0.24" d="M410.48,-221.25C420.45,-208.72 440.06,-184.07 455.92,-164.14"/>
<polygon fill="green" stroke="green" stroke-width="0.24" points="458.74,-166.22 462.22,-156.22 453.26,-161.86 458.74,-166.22"/>
</g>
<!-- NOOP -->
<g id="node5" class="node">
<title>NOOP</title>
<ellipse fill="lightblue" stroke="black" cx="477" cy="-230.39" rx="32.55" ry="32.55"/>
<text text-anchor="middle" x="477" y="-228.19" font-family="Times,serif" font-size="9.00">NOOP</text>
</g>
<!-- RIGHT -->
<g id="node7" class="node">
<title>RIGHT</title>
<ellipse fill="lightblue" stroke="black" cx="404" cy="-33.94" rx="33.88" ry="33.88"/>
<text text-anchor="middle" x="404" y="-31.74" font-family="Times,serif" font-size="9.00">RIGHT</text>
</g>
<!-- 2011&#45;&gt;RIGHT -->
<g id="edge5" class="edge">
<title>2011&#45;&gt;RIGHT</title>
<path fill="none" stroke="green" stroke-width="0.17" stroke-dasharray="1,5" d="M404,-103.84C404,-95.8 404,-86.84 404,-78.12"/>
<polygon fill="green" stroke="green" stroke-width="0.17" points="407.5,-78.05 404,-68.05 400.5,-78.05 407.5,-78.05"/>
</g>
</g>
</svg>
