<?xml version="1.0" encoding="UTF-8" standalone="no"?>
<!DOCTYPE svg PUBLIC "-//W3C//DTD SVG 1.1//EN"
 "http://www.w3.org/Graphics/SVG/1.1/DTD/svg11.dtd">
<!-- Generated by graphviz version 2.43.0 (0)
 -->
<!-- Title: %3 Pages: 1 -->
<svg width="626pt" height="528pt"
 viewBox="0.00 0.00 626.20 528.18" xmlns="http://www.w3.org/2000/svg" xmlns:xlink="http://www.w3.org/1999/xlink">
<g id="graph0" class="graph" transform="scale(1 1) rotate(0) translate(4 524.18)">
<title>%3</title>
<polygon fill="white" stroke="transparent" points="-4,4 -4,-524.18 622.2,-524.18 622.2,4 -4,4"/>
<!-- player_x -->
<g id="node1" class="node">
<title>player_x</title>
<polygon fill="lightgray" stroke="black" points="56,-358.83 0,-358.83 0,-340.83 56,-340.83 56,-358.83"/>
<text text-anchor="middle" x="28" y="-347.63" font-family="Times,serif" font-size="9.00">player_x</text>
</g>
<!-- 8164 -->
<g id="node11" class="node">
<title>8164</title>
<ellipse fill="white" stroke="black" cx="56" cy="-156.92" rx="28.98" ry="28.98"/>
<text text-anchor="middle" x="56" y="-154.72" font-family="Times,serif" font-size="9.00">8164</text>
</g>
<!-- player_x&#45;&gt;8164 -->
<g id="edge2" class="edge">
<title>player_x&#45;&gt;8164</title>
<path fill="none" stroke="red" stroke-width="0.28" stroke-dasharray="1,5" d="M29.2,-340.63C32.81,-316.01 43.72,-241.64 50.45,-195.73"/>
<polygon fill="red" stroke="red" stroke-width="0.28" points="53.92,-196.23 51.91,-185.83 46.99,-195.22 53.92,-196.23"/>
</g>
<!-- 8718 -->
<g id="node12" class="node">
<title>8718</title>
<ellipse fill="white" stroke="black" cx="85" cy="-250.9" rx="28.98" ry="28.98"/>
<text text-anchor="middle" x="85" y="-248.7" font-family="Times,serif" font-size="9.00">8718</text>
</g>
<!-- player_x&#45;&gt;8718 -->
<g id="edge4" class="edge">
<title>player_x&#45;&gt;8718</title>
<path fill="none" stroke="green" stroke-width="0.38" d="M32.86,-340.57C40.05,-328.34 53.93,-304.74 65.56,-284.96"/>
<polygon fill="green" stroke="green" stroke-width="0.38" points="68.66,-286.59 70.71,-276.19 62.63,-283.04 68.66,-286.59"/>
</g>
<!-- player_y -->
<g id="node2" class="node">
<title>player_y</title>
<polygon fill="lightgray" stroke="black" points="204,-478.98 148,-478.98 148,-460.98 204,-460.98 204,-478.98"/>
<text text-anchor="middle" x="176" y="-467.78" font-family="Times,serif" font-size="9.00">player_y</text>
</g>
<!-- ball_x -->
<g id="node3" class="node">
<title>ball_x</title>
<polygon fill="lightgray" stroke="black" points="130,-478.98 86,-478.98 86,-460.98 130,-460.98 130,-478.98"/>
<text text-anchor="middle" x="108" y="-467.78" font-family="Times,serif" font-size="9.00">ball_x</text>
</g>
<!-- RIGHT -->
<g id="node7" class="node">
<title>RIGHT</title>
<ellipse fill="lightblue" stroke="black" cx="108" cy="-349.83" rx="33.88" ry="33.88"/>
<text text-anchor="middle" x="108" y="-347.63" font-family="Times,serif" font-size="9.00">RIGHT</text>
</g>
<!-- ball_x&#45;&gt;RIGHT -->
<g id="edge1" class="edge">
<title>ball_x&#45;&gt;RIGHT</title>
<path fill="none" stroke="green" stroke-width="0.89" d="M108,-460.86C108,-447.22 108,-418.79 108,-394.25"/>
<polygon fill="green" stroke="green" stroke-width="0.89" points="111.5,-394.02 108,-384.02 104.5,-394.02 111.5,-394.02"/>
</g>
<!-- ball_y -->
<g id="node4" class="node">
<title>ball_y</title>
<polygon fill="lightgray" stroke="black" points="266,-478.98 222,-478.98 222,-460.98 266,-460.98 266,-478.98"/>
<text text-anchor="middle" x="244" y="-467.78" font-family="Times,serif" font-size="9.00">ball_y</text>
</g>
<!-- NOOP -->
<g id="node5" class="node">
<title>NOOP</title>
<ellipse fill="lightblue" stroke="black" cx="317" cy="-469.98" rx="32.55" ry="32.55"/>
<text text-anchor="middle" x="317" y="-467.78" font-family="Times,serif" font-size="9.00">NOOP</text>
</g>
<!-- FIRE -->
<g id="node6" class="node">
<title>FIRE</title>
<ellipse fill="lightblue" stroke="black" cx="396" cy="-469.98" rx="28.07" ry="28.07"/>
<text text-anchor="middle" x="396" y="-467.78" font-family="Times,serif" font-size="9.00">FIRE</text>
</g>
<!-- RIGHT&#45;&gt;8718 -->
<g id="edge6" class="edge">
<title>RIGHT&#45;&gt;8718</title>
<path fill="none" stroke="red" stroke-width="0.11" d="M100.34,-316.55C98.25,-307.75 95.97,-298.14 93.82,-289.09"/>
<polygon fill="red" stroke="red" stroke-width="0.11" points="97.19,-288.1 91.47,-279.18 90.38,-289.72 97.19,-288.1"/>
</g>
<!-- LEFT -->
<g id="node8" class="node">
<title>LEFT</title>
<ellipse fill="lightblue" stroke="black" cx="471" cy="-469.98" rx="28.98" ry="28.98"/>
<text text-anchor="middle" x="471" y="-467.78" font-family="Times,serif" font-size="9.00">LEFT</text>
</g>
<!-- RIGHTFIRE -->
<g id="node9" class="node">
<title>RIGHTFIRE</title>
<ellipse fill="lightblue" stroke="black" cx="568" cy="-469.98" rx="50.41" ry="50.41"/>
<text text-anchor="middle" x="568" y="-467.78" font-family="Times,serif" font-size="9.00">RIGHTFIRE</text>
</g>
<!-- LEFTFIRE -->
<g id="node10" class="node">
<title>LEFTFIRE</title>
<ellipse fill="lightblue" stroke="black" cx="56" cy="-45.96" rx="45.92" ry="45.92"/>
<text text-anchor="middle" x="56" y="-43.76" font-family="Times,serif" font-size="9.00">LEFTFIRE</text>
</g>
<!-- 8164&#45;&gt;LEFTFIRE -->
<g id="edge3" class="edge">
<title>8164&#45;&gt;LEFTFIRE</title>
<path fill="none" stroke="green" stroke-width="1.07" d="M56,-127.86C56,-120.06 56,-111.32 56,-102.53"/>
<polygon fill="green" stroke="green" stroke-width="1.07" points="59.5,-102.26 56,-92.26 52.5,-102.26 59.5,-102.26"/>
</g>
<!-- 8718&#45;&gt;8164 -->
<g id="edge5" class="edge">
<title>8718&#45;&gt;8164</title>
<path fill="none" stroke="green" stroke-width="0.25" d="M76.46,-222.8C73.65,-213.91 70.49,-203.88 67.51,-194.41"/>
<polygon fill="green" stroke="green" stroke-width="0.25" points="70.83,-193.31 64.48,-184.82 64.15,-195.41 70.83,-193.31"/>
</g>
</g>
</svg>
