<?xml version="1.0" encoding="UTF-8" standalone="no"?>
<!DOCTYPE svg PUBLIC "-//W3C//DTD SVG 1.1//EN"
 "http://www.w3.org/Graphics/SVG/1.1/DTD/svg11.dtd">
<!-- Generated by graphviz version 2.43.0 (0)
 -->
<!-- Title: %3 Pages: 1 -->
<svg width="475pt" height="356pt"
 viewBox="0.00 0.00 475.23 356.42" xmlns="http://www.w3.org/2000/svg" xmlns:xlink="http://www.w3.org/1999/xlink">
<g id="graph0" class="graph" transform="scale(1 1) rotate(0) translate(4 352.42)">
<title>%3</title>
<polygon fill="white" stroke="transparent" points="-4,4 -4,-352.42 471.23,-352.42 471.23,4 -4,4"/>
<!-- ball_left -->
<g id="node1" class="node">
<title>ball_left</title>
<polygon fill="lightgray" stroke="black" points="105.44,-324.89 52.44,-324.89 52.44,-306.89 105.44,-306.89 105.44,-324.89"/>
<text text-anchor="middle" x="78.94" y="-313.69" font-family="Times,serif" font-size="9.00">ball_left</text>
</g>
<!-- RIGHT -->
<g id="node6" class="node">
<title>RIGHT</title>
<ellipse fill="lightblue" stroke="black" cx="33.94" cy="-213.42" rx="33.88" ry="33.88"/>
<text text-anchor="middle" x="33.94" y="-211.22" font-family="Times,serif" font-size="9.00">RIGHT</text>
</g>
<!-- ball_left&#45;&gt;RIGHT -->
<g id="edge2" class="edge">
<title>ball_left&#45;&gt;RIGHT</title>
<path fill="none" stroke="green" stroke-width="0.79" d="M75.26,-306.67C70.1,-295.15 60.37,-273.43 51.65,-253.96"/>
<polygon fill="green" stroke="green" stroke-width="0.79" points="54.76,-252.34 47.48,-244.64 48.37,-255.2 54.76,-252.34"/>
</g>
<!-- 766 -->
<g id="node10" class="node">
<title>766</title>
<ellipse fill="white" stroke="black" cx="110.94" cy="-213.42" rx="25" ry="25"/>
<text text-anchor="middle" x="110.94" y="-211.22" font-family="Times,serif" font-size="9.00">766</text>
</g>
<!-- ball_left&#45;&gt;766 -->
<g id="edge8" class="edge">
<title>ball_left&#45;&gt;766</title>
<path fill="none" stroke="green" stroke-width="0.43" stroke-dasharray="1,5" d="M81.56,-306.67C85.68,-293.72 93.91,-267.89 100.61,-246.85"/>
<polygon fill="green" stroke="green" stroke-width="0.43" points="103.96,-247.87 103.66,-237.28 97.29,-245.75 103.96,-247.87"/>
</g>
<!-- ball_right -->
<g id="node2" class="node">
<title>ball_right</title>
<polygon fill="lightgray" stroke="black" points="212.94,-324.89 150.94,-324.89 150.94,-306.89 212.94,-306.89 212.94,-324.89"/>
<text text-anchor="middle" x="181.94" y="-313.69" font-family="Times,serif" font-size="9.00">ball_right</text>
</g>
<!-- 624 -->
<g id="node9" class="node">
<title>624</title>
<ellipse fill="white" stroke="black" cx="199.94" cy="-213.42" rx="25" ry="25"/>
<text text-anchor="middle" x="199.94" y="-211.22" font-family="Times,serif" font-size="9.00">624</text>
</g>
<!-- ball_right&#45;&gt;624 -->
<g id="edge7" class="edge">
<title>ball_right&#45;&gt;624</title>
<path fill="none" stroke="green" stroke-width="0.44" d="M183.41,-306.67C185.68,-294 190.16,-268.99 193.89,-248.21"/>
<polygon fill="green" stroke="green" stroke-width="0.44" points="197.38,-248.58 195.7,-238.12 190.49,-247.34 197.38,-248.58"/>
</g>
<!-- ball_out_field -->
<g id="node3" class="node">
<title>ball_out_field</title>
<polygon fill="lightgray" stroke="black" points="308.94,-324.89 230.94,-324.89 230.94,-306.89 308.94,-306.89 308.94,-324.89"/>
<text text-anchor="middle" x="269.94" y="-313.69" font-family="Times,serif" font-size="9.00">ball_out_field</text>
</g>
<!-- LEFT -->
<g id="node7" class="node">
<title>LEFT</title>
<ellipse fill="lightblue" stroke="black" cx="263.94" cy="-28.99" rx="28.98" ry="28.98"/>
<text text-anchor="middle" x="263.94" y="-26.79" font-family="Times,serif" font-size="9.00">LEFT</text>
</g>
<!-- ball_out_field&#45;&gt;LEFT -->
<g id="edge1" class="edge">
<title>ball_out_field&#45;&gt;LEFT</title>
<path fill="none" stroke="red" stroke-width="0.35" d="M270.43,-306.85C272.08,-278.02 277.11,-177.05 271.94,-93.98 271.42,-85.56 270.51,-76.55 269.49,-68.03"/>
<polygon fill="red" stroke="red" stroke-width="0.35" points="272.94,-67.43 268.2,-57.95 265.99,-68.32 272.94,-67.43"/>
</g>
<!-- 283 -->
<g id="node8" class="node">
<title>283</title>
<ellipse fill="white" stroke="black" cx="237.94" cy="-118.73" rx="25" ry="25"/>
<text text-anchor="middle" x="237.94" y="-116.53" font-family="Times,serif" font-size="9.00">283</text>
</g>
<!-- ball_out_field&#45;&gt;283 -->
<g id="edge3" class="edge">
<title>ball_out_field&#45;&gt;283</title>
<path fill="none" stroke="red" stroke-width="0.73" d="M268.57,-306.5C264.28,-280.39 251.02,-199.51 243.43,-153.2"/>
<polygon fill="red" stroke="red" stroke-width="0.73" points="246.88,-152.62 241.81,-143.32 239.97,-153.76 246.88,-152.62"/>
</g>
<!-- ball_out_field&#45;&gt;624 -->
<g id="edge5" class="edge">
<title>ball_out_field&#45;&gt;624</title>
<path fill="none" stroke="green" stroke-width="0.15" d="M264.21,-306.67C254.58,-292.85 234.73,-264.35 219.62,-242.67"/>
<polygon fill="green" stroke="green" stroke-width="0.15" points="222.48,-240.65 213.89,-234.44 216.73,-244.65 222.48,-240.65"/>
</g>
<!-- NOOP -->
<g id="node4" class="node">
<title>NOOP</title>
<ellipse fill="lightblue" stroke="black" cx="359.94" cy="-315.89" rx="32.55" ry="32.55"/>
<text text-anchor="middle" x="359.94" y="-313.69" font-family="Times,serif" font-size="9.00">NOOP</text>
</g>
<!-- FIRE -->
<g id="node5" class="node">
<title>FIRE</title>
<ellipse fill="lightblue" stroke="black" cx="438.94" cy="-315.89" rx="28.07" ry="28.07"/>
<text text-anchor="middle" x="438.94" y="-313.69" font-family="Times,serif" font-size="9.00">FIRE</text>
</g>
<!-- 283&#45;&gt;LEFT -->
<g id="edge4" class="edge">
<title>283&#45;&gt;LEFT</title>
<path fill="none" stroke="red" stroke-width="0.3" stroke-dasharray="1,5" d="M244.77,-94.68C247.32,-86.09 250.28,-76.11 253.09,-66.6"/>
<polygon fill="red" stroke="red" stroke-width="0.3" points="256.47,-67.52 255.96,-56.94 249.76,-65.53 256.47,-67.52"/>
</g>
<!-- 624&#45;&gt;283 -->
<g id="edge6" class="edge">
<title>624&#45;&gt;283</title>
<path fill="none" stroke="red" stroke-width="0.1" stroke-dasharray="1,5" d="M209.14,-189.98C213.9,-178.37 219.79,-164 225,-151.29"/>
<polygon fill="red" stroke="red" stroke-width="0.1" points="228.27,-152.54 228.83,-141.96 221.8,-149.89 228.27,-152.54"/>
</g>
</g>
</svg>
