<?xml version="1.0" encoding="utf-8" standalone="no"?>
<!DOCTYPE svg PUBLIC "-//W3C//DTD SVG 1.1//EN"
  "http://www.w3.org/Graphics/SVG/1.1/DTD/svg11.dtd">
<svg xmlns:xlink="http://www.w3.org/1999/xlink" width="460.8pt" height="345.6pt" viewBox="0 0 460.8 345.6" xmlns="http://www.w3.org/2000/svg" version="1.1">
 <metadata>
  <rdf:RDF xmlns:dc="http://purl.org/dc/elements/1.1/" xmlns:cc="http://creativecommons.org/ns#" xmlns:rdf="http://www.w3.org/1999/02/22-rdf-syntax-ns#">
   <cc:Work>
    <dc:type rdf:resource="http://purl.org/dc/dcmitype/StillImage"/>
    <dc:date>2023-02-17T19:56:18.049827</dc:date>
    <dc:format>image/svg+xml</dc:format>
    <dc:creator>
     <cc:Agent>
      <dc:title>Matplotlib v3.6.2, https://matplotlib.org/</dc:title>
     </cc:Agent>
    </dc:creator>
   </cc:Work>
  </rdf:RDF>
 </metadata>
 <defs>
  <style type="text/css">*{stroke-linejoin: round; stroke-linecap: butt}</style>
 </defs>
 <g id="figure_1">
  <g id="patch_1">
   <path d="M 0 345.6 
L 460.8 345.6 
L 460.8 0 
L 0 0 
z
" style="fill: #ffffff"/>
  </g>
  <g id="axes_1">
   <g id="patch_2">
    <path d="M 57.6 307.584 
L 414.72 307.584 
L 414.72 41.472 
L 57.6 41.472 
z
" style="fill: #ffffff"/>
   </g>
   <g id="PolyCollection_1">
    <path d="M 73.832727 74.357006 
L 73.832727 307.584 
L 85.027712 307.584 
L 96.222696 307.584 
L 107.41768 307.584 
L 118.612665 307.584 
L 129.807649 307.584 
L 141.002633 307.584 
L 152.197618 307.584 
L 163.392602 307.584 
L 174.587586 307.584 
L 185.782571 307.584 
L 196.977555 307.584 
L 208.172539 307.584 
L 219.367524 307.584 
L 230.562508 307.584 
L 241.757492 307.584 
L 252.952476 307.584 
L 264.147461 307.584 
L 275.342445 307.584 
L 286.537429 307.584 
L 297.732414 307.584 
L 308.927398 307.584 
L 320.122382 307.584 
L 331.317367 307.584 
L 342.512351 307.584 
L 353.707335 307.584 
L 364.90232 307.584 
L 376.097304 307.584 
L 387.292288 307.584 
L 398.487273 307.584 
L 398.487273 307.584 
L 398.487273 307.584 
L 387.292288 301.364613 
L 376.097304 302.91946 
L 364.90232 302.91946 
L 353.707335 302.91946 
L 342.512351 302.91946 
L 331.317367 302.91946 
L 320.122382 302.91946 
L 308.927398 301.364613 
L 297.732414 302.91946 
L 286.537429 302.91946 
L 275.342445 302.91946 
L 264.147461 302.91946 
L 252.952476 302.91946 
L 241.757492 302.91946 
L 230.562508 302.91946 
L 219.367524 302.91946 
L 208.172539 293.59038 
L 196.977555 295.145227 
L 185.782571 285.816147 
L 174.587586 276.487067 
L 163.392602 248.499828 
L 152.197618 236.061055 
L 141.002633 164.53811 
L 129.807649 220.512589 
L 118.612665 203.409276 
L 107.41768 159.873571 
L 96.222696 88.350626 
L 85.027712 74.357006 
L 73.832727 74.357006 
z
" clip-path="url(#p5afe9dbc6a)" style="fill: #1f77b4"/>
   </g>
   <g id="PolyCollection_2">
    <path d="M 73.832727 74.357006 
L 73.832727 74.357006 
L 85.027712 74.357006 
L 96.222696 88.350626 
L 107.41768 159.873571 
L 118.612665 203.409276 
L 129.807649 220.512589 
L 141.002633 164.53811 
L 152.197618 236.061055 
L 163.392602 248.499828 
L 174.587586 276.487067 
L 185.782571 285.816147 
L 196.977555 295.145227 
L 208.172539 293.59038 
L 219.367524 302.91946 
L 230.562508 302.91946 
L 241.757492 302.91946 
L 252.952476 302.91946 
L 264.147461 302.91946 
L 275.342445 302.91946 
L 286.537429 302.91946 
L 297.732414 302.91946 
L 308.927398 301.364613 
L 320.122382 302.91946 
L 331.317367 302.91946 
L 342.512351 302.91946 
L 353.707335 302.91946 
L 364.90232 302.91946 
L 376.097304 302.91946 
L 387.292288 301.364613 
L 398.487273 307.584 
L 398.487273 298.25492 
L 398.487273 298.25492 
L 387.292288 293.59038 
L 376.097304 292.035534 
L 364.90232 295.145227 
L 353.707335 295.145227 
L 342.512351 292.035534 
L 331.317367 292.035534 
L 320.122382 293.59038 
L 308.927398 287.370994 
L 297.732414 292.035534 
L 286.537429 292.035534 
L 275.342445 292.035534 
L 264.147461 292.035534 
L 252.952476 290.480687 
L 241.757492 282.706454 
L 230.562508 282.706454 
L 219.367524 282.706454 
L 208.172539 273.377374 
L 196.977555 264.048294 
L 185.782571 265.603141 
L 174.587586 259.383755 
L 163.392602 245.390135 
L 152.197618 234.506209 
L 141.002633 162.983264 
L 129.807649 209.628663 
L 118.612665 197.18989 
L 107.41768 155.209031 
L 96.222696 85.240933 
L 85.027712 74.357006 
L 73.832727 74.357006 
z
" clip-path="url(#p5afe9dbc6a)" style="fill: #ff7f0e"/>
   </g>
   <g id="PolyCollection_3">
    <path d="M 73.832727 74.357006 
L 73.832727 74.357006 
L 85.027712 74.357006 
L 96.222696 85.240933 
L 107.41768 155.209031 
L 118.612665 197.18989 
L 129.807649 209.628663 
L 141.002633 162.983264 
L 152.197618 234.506209 
L 163.392602 245.390135 
L 174.587586 259.383755 
L 185.782571 265.603141 
L 196.977555 264.048294 
L 208.172539 273.377374 
L 219.367524 282.706454 
L 230.562508 282.706454 
L 241.757492 282.706454 
L 252.952476 290.480687 
L 264.147461 292.035534 
L 275.342445 292.035534 
L 286.537429 292.035534 
L 297.732414 292.035534 
L 308.927398 287.370994 
L 320.122382 293.59038 
L 331.317367 292.035534 
L 342.512351 292.035534 
L 353.707335 295.145227 
L 364.90232 295.145227 
L 376.097304 292.035534 
L 387.292288 293.59038 
L 398.487273 298.25492 
L 398.487273 293.59038 
L 398.487273 293.59038 
L 387.292288 288.92584 
L 376.097304 287.370994 
L 364.90232 290.480687 
L 353.707335 288.92584 
L 342.512351 287.370994 
L 331.317367 290.480687 
L 320.122382 288.92584 
L 308.927398 284.261301 
L 297.732414 281.151607 
L 286.537429 284.261301 
L 275.342445 273.377374 
L 264.147461 279.596761 
L 252.952476 273.377374 
L 241.757492 268.712834 
L 230.562508 274.932221 
L 219.367524 248.499828 
L 208.172539 240.725595 
L 196.977555 234.506209 
L 185.782571 245.390135 
L 174.587586 239.170748 
L 163.392602 164.53811 
L 152.197618 136.550871 
L 141.002633 139.660564 
L 129.807649 116.337865 
L 118.612665 141.215411 
L 107.41768 113.228172 
L 96.222696 77.466699 
L 85.027712 74.357006 
L 73.832727 74.357006 
z
" clip-path="url(#p5afe9dbc6a)" style="fill: #2ca02c"/>
   </g>
   <g id="PolyCollection_4">
    <path d="M 73.832727 74.357006 
L 73.832727 74.357006 
L 85.027712 74.357006 
L 96.222696 77.466699 
L 107.41768 113.228172 
L 118.612665 141.215411 
L 129.807649 116.337865 
L 141.002633 139.660564 
L 152.197618 136.550871 
L 163.392602 164.53811 
L 174.587586 239.170748 
L 185.782571 245.390135 
L 196.977555 234.506209 
L 208.172539 240.725595 
L 219.367524 248.499828 
L 230.562508 274.932221 
L 241.757492 268.712834 
L 252.952476 273.377374 
L 264.147461 279.596761 
L 275.342445 273.377374 
L 286.537429 284.261301 
L 297.732414 281.151607 
L 308.927398 284.261301 
L 320.122382 288.92584 
L 331.317367 290.480687 
L 342.512351 287.370994 
L 353.707335 288.92584 
L 364.90232 290.480687 
L 376.097304 287.370994 
L 387.292288 288.92584 
L 398.487273 293.59038 
L 398.487273 281.151607 
L 398.487273 281.151607 
L 387.292288 274.932221 
L 376.097304 265.603141 
L 364.90232 274.932221 
L 353.707335 281.151607 
L 342.512351 282.706454 
L 331.317367 282.706454 
L 320.122382 267.157988 
L 308.927398 265.603141 
L 297.732414 253.164368 
L 286.537429 262.493448 
L 275.342445 256.274061 
L 264.147461 256.274061 
L 252.952476 236.061055 
L 241.757492 200.299583 
L 230.562508 236.061055 
L 219.367524 175.422037 
L 208.172539 234.506209 
L 196.977555 229.841669 
L 185.782571 237.615902 
L 174.587586 203.409276 
L 163.392602 114.783018 
L 152.197618 110.118479 
L 141.002633 102.344245 
L 129.807649 93.015166 
L 118.612665 82.131239 
L 107.41768 80.576393 
L 96.222696 74.357006 
L 85.027712 74.357006 
L 73.832727 74.357006 
z
" clip-path="url(#p5afe9dbc6a)" style="fill: #d62728"/>
   </g>
   <g id="PolyCollection_5">
    <path d="M 73.832727 74.357006 
L 73.832727 74.357006 
L 85.027712 74.357006 
L 96.222696 74.357006 
L 107.41768 80.576393 
L 118.612665 82.131239 
L 129.807649 93.015166 
L 141.002633 102.344245 
L 152.197618 110.118479 
L 163.392602 114.783018 
L 174.587586 203.409276 
L 185.782571 237.615902 
L 196.977555 229.841669 
L 208.172539 234.506209 
L 219.367524 175.422037 
L 230.562508 236.061055 
L 241.757492 200.299583 
L 252.952476 236.061055 
L 264.147461 256.274061 
L 275.342445 256.274061 
L 286.537429 262.493448 
L 297.732414 253.164368 
L 308.927398 265.603141 
L 320.122382 267.157988 
L 331.317367 282.706454 
L 342.512351 282.706454 
L 353.707335 281.151607 
L 364.90232 274.932221 
L 376.097304 265.603141 
L 387.292288 274.932221 
L 398.487273 281.151607 
L 398.487273 273.377374 
L 398.487273 273.377374 
L 387.292288 271.822528 
L 376.097304 257.828908 
L 364.90232 264.048294 
L 353.707335 268.712834 
L 342.512351 265.603141 
L 331.317367 264.048294 
L 320.122382 257.828908 
L 308.927398 250.054675 
L 297.732414 243.835288 
L 286.537429 246.944982 
L 275.342445 245.390135 
L 264.147461 246.944982 
L 252.952476 223.622282 
L 241.757492 195.635043 
L 230.562508 228.286822 
L 219.367524 170.757497 
L 208.172539 186.305963 
L 196.977555 178.53173 
L 185.782571 208.073816 
L 174.587586 131.886331 
L 163.392602 108.563632 
L 152.197618 105.453939 
L 141.002633 99.234552 
L 129.807649 85.240933 
L 118.612665 75.911853 
L 107.41768 75.911853 
L 96.222696 74.357006 
L 85.027712 74.357006 
L 73.832727 74.357006 
z
" clip-path="url(#p5afe9dbc6a)" style="fill: #9467bd"/>
   </g>
   <g id="PolyCollection_6">
    <path d="M 73.832727 74.357006 
L 73.832727 74.357006 
L 85.027712 74.357006 
L 96.222696 74.357006 
L 107.41768 75.911853 
L 118.612665 75.911853 
L 129.807649 85.240933 
L 141.002633 99.234552 
L 152.197618 105.453939 
L 163.392602 108.563632 
L 174.587586 131.886331 
L 185.782571 208.073816 
L 196.977555 178.53173 
L 208.172539 186.305963 
L 219.367524 170.757497 
L 230.562508 228.286822 
L 241.757492 195.635043 
L 252.952476 223.622282 
L 264.147461 246.944982 
L 275.342445 245.390135 
L 286.537429 246.944982 
L 297.732414 243.835288 
L 308.927398 250.054675 
L 320.122382 257.828908 
L 331.317367 264.048294 
L 342.512351 265.603141 
L 353.707335 268.712834 
L 364.90232 264.048294 
L 376.097304 257.828908 
L 387.292288 271.822528 
L 398.487273 273.377374 
L 398.487273 268.712834 
L 398.487273 268.712834 
L 387.292288 267.157988 
L 376.097304 253.164368 
L 364.90232 259.383755 
L 353.707335 264.048294 
L 342.512351 260.938601 
L 331.317367 259.383755 
L 320.122382 253.164368 
L 308.927398 245.390135 
L 297.732414 239.170748 
L 286.537429 242.280442 
L 275.342445 240.725595 
L 264.147461 242.280442 
L 252.952476 218.957742 
L 241.757492 190.970503 
L 230.562508 223.622282 
L 219.367524 166.092957 
L 208.172539 181.641423 
L 196.977555 173.86719 
L 185.782571 206.518969 
L 174.587586 124.112098 
L 163.392602 103.899092 
L 152.197618 100.789399 
L 141.002633 94.570012 
L 129.807649 80.576393 
L 118.612665 71.247313 
L 107.41768 74.357006 
L 96.222696 74.357006 
L 85.027712 74.357006 
L 73.832727 74.357006 
z
" clip-path="url(#p5afe9dbc6a)" style="fill: #8c564b"/>
   </g>
   <g id="PolyCollection_7">
    <path d="M 73.832727 74.357006 
L 73.832727 74.357006 
L 85.027712 74.357006 
L 96.222696 74.357006 
L 107.41768 74.357006 
L 118.612665 71.247313 
L 129.807649 80.576393 
L 141.002633 94.570012 
L 152.197618 100.789399 
L 163.392602 103.899092 
L 174.587586 124.112098 
L 185.782571 206.518969 
L 196.977555 173.86719 
L 208.172539 181.641423 
L 219.367524 166.092957 
L 230.562508 223.622282 
L 241.757492 190.970503 
L 252.952476 218.957742 
L 264.147461 242.280442 
L 275.342445 240.725595 
L 286.537429 242.280442 
L 297.732414 239.170748 
L 308.927398 245.390135 
L 320.122382 253.164368 
L 331.317367 259.383755 
L 342.512351 260.938601 
L 353.707335 264.048294 
L 364.90232 259.383755 
L 376.097304 253.164368 
L 387.292288 267.157988 
L 398.487273 268.712834 
L 398.487273 264.048294 
L 398.487273 264.048294 
L 387.292288 262.493448 
L 376.097304 248.499828 
L 364.90232 254.719215 
L 353.707335 259.383755 
L 342.512351 256.274061 
L 331.317367 254.719215 
L 320.122382 248.499828 
L 308.927398 240.725595 
L 297.732414 234.506209 
L 286.537429 237.615902 
L 275.342445 236.061055 
L 264.147461 237.615902 
L 252.952476 214.293202 
L 241.757492 186.305963 
L 230.562508 218.957742 
L 219.367524 162.983264 
L 208.172539 176.976883 
L 196.977555 169.20265 
L 185.782571 201.854429 
L 174.587586 121.002405 
L 163.392602 97.679706 
L 152.197618 96.124859 
L 141.002633 89.905472 
L 129.807649 77.466699 
L 118.612665 71.247313 
L 107.41768 74.357006 
L 96.222696 74.357006 
L 85.027712 74.357006 
L 73.832727 74.357006 
z
" clip-path="url(#p5afe9dbc6a)" style="fill: #e377c2"/>
   </g>
   <g id="PolyCollection_8">
    <path d="M 73.832727 74.357006 
L 73.832727 74.357006 
L 85.027712 74.357006 
L 96.222696 74.357006 
L 107.41768 74.357006 
L 118.612665 71.247313 
L 129.807649 77.466699 
L 141.002633 89.905472 
L 152.197618 96.124859 
L 163.392602 97.679706 
L 174.587586 121.002405 
L 185.782571 201.854429 
L 196.977555 169.20265 
L 208.172539 176.976883 
L 219.367524 162.983264 
L 230.562508 218.957742 
L 241.757492 186.305963 
L 252.952476 214.293202 
L 264.147461 237.615902 
L 275.342445 236.061055 
L 286.537429 237.615902 
L 297.732414 234.506209 
L 308.927398 240.725595 
L 320.122382 248.499828 
L 331.317367 254.719215 
L 342.512351 256.274061 
L 353.707335 259.383755 
L 364.90232 254.719215 
L 376.097304 248.499828 
L 387.292288 262.493448 
L 398.487273 264.048294 
L 398.487273 259.383755 
L 398.487273 259.383755 
L 387.292288 257.828908 
L 376.097304 243.835288 
L 364.90232 250.054675 
L 353.707335 254.719215 
L 342.512351 251.609521 
L 331.317367 250.054675 
L 320.122382 243.835288 
L 308.927398 234.506209 
L 297.732414 229.841669 
L 286.537429 232.951362 
L 275.342445 231.396515 
L 264.147461 232.951362 
L 252.952476 208.073816 
L 241.757492 181.641423 
L 230.562508 212.738356 
L 219.367524 155.209031 
L 208.172539 169.20265 
L 196.977555 159.873571 
L 185.782571 194.080196 
L 174.587586 108.563632 
L 163.392602 85.240933 
L 152.197618 71.247313 
L 141.002633 72.80216 
L 129.807649 74.357006 
L 118.612665 71.247313 
L 107.41768 74.357006 
L 96.222696 74.357006 
L 85.027712 74.357006 
L 73.832727 74.357006 
z
" clip-path="url(#p5afe9dbc6a)" style="fill: #7f7f7f"/>
   </g>
   <g id="PolyCollection_9">
    <path d="M 73.832727 74.357006 
L 73.832727 74.357006 
L 85.027712 74.357006 
L 96.222696 74.357006 
L 107.41768 74.357006 
L 118.612665 71.247313 
L 129.807649 74.357006 
L 141.002633 72.80216 
L 152.197618 71.247313 
L 163.392602 85.240933 
L 174.587586 108.563632 
L 185.782571 194.080196 
L 196.977555 159.873571 
L 208.172539 169.20265 
L 219.367524 155.209031 
L 230.562508 212.738356 
L 241.757492 181.641423 
L 252.952476 208.073816 
L 264.147461 232.951362 
L 275.342445 231.396515 
L 286.537429 232.951362 
L 297.732414 229.841669 
L 308.927398 234.506209 
L 320.122382 243.835288 
L 331.317367 250.054675 
L 342.512351 251.609521 
L 353.707335 254.719215 
L 364.90232 250.054675 
L 376.097304 243.835288 
L 387.292288 257.828908 
L 398.487273 259.383755 
L 398.487273 245.390135 
L 398.487273 245.390135 
L 387.292288 245.390135 
L 376.097304 232.951362 
L 364.90232 236.061055 
L 353.707335 243.835288 
L 342.512351 240.725595 
L 331.317367 234.506209 
L 320.122382 225.177129 
L 308.927398 217.402896 
L 297.732414 214.293202 
L 286.537429 211.183509 
L 275.342445 220.512589 
L 264.147461 222.067436 
L 252.952476 200.299583 
L 241.757492 167.647804 
L 230.562508 155.209031 
L 219.367524 133.441178 
L 208.172539 147.434798 
L 196.977555 150.544491 
L 185.782571 189.415656 
L 174.587586 103.899092 
L 163.392602 79.021546 
L 152.197618 71.247313 
L 141.002633 72.80216 
L 129.807649 74.357006 
L 118.612665 71.247313 
L 107.41768 74.357006 
L 96.222696 74.357006 
L 85.027712 74.357006 
L 73.832727 74.357006 
z
" clip-path="url(#p5afe9dbc6a)" style="fill: #bcbd22"/>
   </g>
   <g id="PolyCollection_10">
    <path d="M 73.832727 74.357006 
L 73.832727 74.357006 
L 85.027712 74.357006 
L 96.222696 74.357006 
L 107.41768 74.357006 
L 118.612665 71.247313 
L 129.807649 74.357006 
L 141.002633 72.80216 
L 152.197618 71.247313 
L 163.392602 79.021546 
L 174.587586 103.899092 
L 185.782571 189.415656 
L 196.977555 150.544491 
L 208.172539 147.434798 
L 219.367524 133.441178 
L 230.562508 155.209031 
L 241.757492 167.647804 
L 252.952476 200.299583 
L 264.147461 222.067436 
L 275.342445 220.512589 
L 286.537429 211.183509 
L 297.732414 214.293202 
L 308.927398 217.402896 
L 320.122382 225.177129 
L 331.317367 234.506209 
L 342.512351 240.725595 
L 353.707335 243.835288 
L 364.90232 236.061055 
L 376.097304 232.951362 
L 387.292288 245.390135 
L 398.487273 245.390135 
L 398.487273 234.506209 
L 398.487273 234.506209 
L 387.292288 231.396515 
L 376.097304 220.512589 
L 364.90232 225.177129 
L 353.707335 232.951362 
L 342.512351 218.957742 
L 331.317367 214.293202 
L 320.122382 212.738356 
L 308.927398 203.409276 
L 297.732414 190.970503 
L 286.537429 195.635043 
L 275.342445 201.854429 
L 264.147461 203.409276 
L 252.952476 194.080196 
L 241.757492 156.763877 
L 230.562508 138.105718 
L 219.367524 114.783018 
L 208.172539 121.002405 
L 196.977555 116.337865 
L 185.782571 117.892712 
L 174.587586 88.350626 
L 163.392602 74.357006 
L 152.197618 71.247313 
L 141.002633 72.80216 
L 129.807649 74.357006 
L 118.612665 71.247313 
L 107.41768 74.357006 
L 96.222696 74.357006 
L 85.027712 74.357006 
L 73.832727 74.357006 
z
" clip-path="url(#p5afe9dbc6a)" style="fill: #17becf"/>
   </g>
   <g id="PolyCollection_11">
    <path d="M 73.832727 74.357006 
L 73.832727 74.357006 
L 85.027712 74.357006 
L 96.222696 74.357006 
L 107.41768 74.357006 
L 118.612665 71.247313 
L 129.807649 74.357006 
L 141.002633 72.80216 
L 152.197618 71.247313 
L 163.392602 74.357006 
L 174.587586 88.350626 
L 185.782571 117.892712 
L 196.977555 116.337865 
L 208.172539 121.002405 
L 219.367524 114.783018 
L 230.562508 138.105718 
L 241.757492 156.763877 
L 252.952476 194.080196 
L 264.147461 203.409276 
L 275.342445 201.854429 
L 286.537429 195.635043 
L 297.732414 190.970503 
L 308.927398 203.409276 
L 320.122382 212.738356 
L 331.317367 214.293202 
L 342.512351 218.957742 
L 353.707335 232.951362 
L 364.90232 225.177129 
L 376.097304 220.512589 
L 387.292288 231.396515 
L 398.487273 234.506209 
L 398.487273 229.841669 
L 398.487273 229.841669 
L 387.292288 226.731975 
L 376.097304 215.848049 
L 364.90232 220.512589 
L 353.707335 228.286822 
L 342.512351 214.293202 
L 331.317367 209.628663 
L 320.122382 208.073816 
L 308.927398 198.744736 
L 297.732414 186.305963 
L 286.537429 190.970503 
L 275.342445 197.18989 
L 264.147461 198.744736 
L 252.952476 189.415656 
L 241.757492 152.099337 
L 230.562508 131.886331 
L 219.367524 110.118479 
L 208.172539 110.118479 
L 196.977555 107.008785 
L 185.782571 110.118479 
L 174.587586 80.576393 
L 163.392602 72.80216 
L 152.197618 71.247313 
L 141.002633 72.80216 
L 129.807649 74.357006 
L 118.612665 71.247313 
L 107.41768 74.357006 
L 96.222696 74.357006 
L 85.027712 74.357006 
L 73.832727 74.357006 
z
" clip-path="url(#p5afe9dbc6a)" style="fill: #1f77b4"/>
   </g>
   <g id="PolyCollection_12">
    <path d="M 73.832727 74.357006 
L 73.832727 74.357006 
L 85.027712 74.357006 
L 96.222696 74.357006 
L 107.41768 74.357006 
L 118.612665 71.247313 
L 129.807649 74.357006 
L 141.002633 72.80216 
L 152.197618 71.247313 
L 163.392602 72.80216 
L 174.587586 80.576393 
L 185.782571 110.118479 
L 196.977555 107.008785 
L 208.172539 110.118479 
L 219.367524 110.118479 
L 230.562508 131.886331 
L 241.757492 152.099337 
L 252.952476 189.415656 
L 264.147461 198.744736 
L 275.342445 197.18989 
L 286.537429 190.970503 
L 297.732414 186.305963 
L 308.927398 198.744736 
L 320.122382 208.073816 
L 331.317367 209.628663 
L 342.512351 214.293202 
L 353.707335 228.286822 
L 364.90232 220.512589 
L 376.097304 215.848049 
L 387.292288 226.731975 
L 398.487273 229.841669 
L 398.487273 218.957742 
L 398.487273 218.957742 
L 387.292288 215.848049 
L 376.097304 204.964123 
L 364.90232 208.073816 
L 353.707335 217.402896 
L 342.512351 200.299583 
L 331.317367 195.635043 
L 320.122382 189.415656 
L 308.927398 183.19627 
L 297.732414 173.86719 
L 286.537429 170.757497 
L 275.342445 181.641423 
L 264.147461 181.641423 
L 252.952476 172.312344 
L 241.757492 134.996025 
L 230.562508 111.673325 
L 219.367524 88.350626 
L 208.172539 74.357006 
L 196.977555 71.247313 
L 185.782571 72.80216 
L 174.587586 72.80216 
L 163.392602 72.80216 
L 152.197618 71.247313 
L 141.002633 72.80216 
L 129.807649 74.357006 
L 118.612665 71.247313 
L 107.41768 74.357006 
L 96.222696 74.357006 
L 85.027712 74.357006 
L 73.832727 74.357006 
z
" clip-path="url(#p5afe9dbc6a)" style="fill: #ff7f0e"/>
   </g>
   <g id="PolyCollection_13">
    <path d="M 73.832727 74.357006 
L 73.832727 74.357006 
L 85.027712 74.357006 
L 96.222696 74.357006 
L 107.41768 74.357006 
L 118.612665 71.247313 
L 129.807649 74.357006 
L 141.002633 72.80216 
L 152.197618 71.247313 
L 163.392602 72.80216 
L 174.587586 72.80216 
L 185.782571 72.80216 
L 196.977555 71.247313 
L 208.172539 74.357006 
L 219.367524 88.350626 
L 230.562508 111.673325 
L 241.757492 134.996025 
L 252.952476 172.312344 
L 264.147461 181.641423 
L 275.342445 181.641423 
L 286.537429 170.757497 
L 297.732414 173.86719 
L 308.927398 183.19627 
L 320.122382 189.415656 
L 331.317367 195.635043 
L 342.512351 200.299583 
L 353.707335 217.402896 
L 364.90232 208.073816 
L 376.097304 204.964123 
L 387.292288 215.848049 
L 398.487273 218.957742 
L 398.487273 214.293202 
L 398.487273 214.293202 
L 387.292288 211.183509 
L 376.097304 200.299583 
L 364.90232 203.409276 
L 353.707335 212.738356 
L 342.512351 195.635043 
L 331.317367 190.970503 
L 320.122382 184.751117 
L 308.927398 178.53173 
L 297.732414 169.20265 
L 286.537429 166.092957 
L 275.342445 176.976883 
L 264.147461 176.976883 
L 252.952476 167.647804 
L 241.757492 130.331485 
L 230.562508 107.008785 
L 219.367524 86.795779 
L 208.172539 71.247313 
L 196.977555 71.247313 
L 185.782571 72.80216 
L 174.587586 72.80216 
L 163.392602 72.80216 
L 152.197618 71.247313 
L 141.002633 72.80216 
L 129.807649 74.357006 
L 118.612665 71.247313 
L 107.41768 74.357006 
L 96.222696 74.357006 
L 85.027712 74.357006 
L 73.832727 74.357006 
z
" clip-path="url(#p5afe9dbc6a)" style="fill: #2ca02c"/>
   </g>
   <g id="PolyCollection_14">
    <path d="M 73.832727 74.357006 
L 73.832727 74.357006 
L 85.027712 74.357006 
L 96.222696 74.357006 
L 107.41768 74.357006 
L 118.612665 71.247313 
L 129.807649 74.357006 
L 141.002633 72.80216 
L 152.197618 71.247313 
L 163.392602 72.80216 
L 174.587586 72.80216 
L 185.782571 72.80216 
L 196.977555 71.247313 
L 208.172539 71.247313 
L 219.367524 86.795779 
L 230.562508 107.008785 
L 241.757492 130.331485 
L 252.952476 167.647804 
L 264.147461 176.976883 
L 275.342445 176.976883 
L 286.537429 166.092957 
L 297.732414 169.20265 
L 308.927398 178.53173 
L 320.122382 184.751117 
L 331.317367 190.970503 
L 342.512351 195.635043 
L 353.707335 212.738356 
L 364.90232 203.409276 
L 376.097304 200.299583 
L 387.292288 211.183509 
L 398.487273 214.293202 
L 398.487273 209.628663 
L 398.487273 209.628663 
L 387.292288 206.518969 
L 376.097304 195.635043 
L 364.90232 198.744736 
L 353.707335 208.073816 
L 342.512351 190.970503 
L 331.317367 186.305963 
L 320.122382 178.53173 
L 308.927398 173.86719 
L 297.732414 164.53811 
L 286.537429 161.428417 
L 275.342445 172.312344 
L 264.147461 172.312344 
L 252.952476 162.983264 
L 241.757492 125.666945 
L 230.562508 102.344245 
L 219.367524 85.240933 
L 208.172539 71.247313 
L 196.977555 71.247313 
L 185.782571 72.80216 
L 174.587586 72.80216 
L 163.392602 72.80216 
L 152.197618 71.247313 
L 141.002633 72.80216 
L 129.807649 74.357006 
L 118.612665 71.247313 
L 107.41768 74.357006 
L 96.222696 74.357006 
L 85.027712 74.357006 
L 73.832727 74.357006 
z
" clip-path="url(#p5afe9dbc6a)" style="fill: #d62728"/>
   </g>
   <g id="PolyCollection_15">
    <path d="M 73.832727 74.357006 
L 73.832727 74.357006 
L 85.027712 74.357006 
L 96.222696 74.357006 
L 107.41768 74.357006 
L 118.612665 71.247313 
L 129.807649 74.357006 
L 141.002633 72.80216 
L 152.197618 71.247313 
L 163.392602 72.80216 
L 174.587586 72.80216 
L 185.782571 72.80216 
L 196.977555 71.247313 
L 208.172539 71.247313 
L 219.367524 85.240933 
L 230.562508 102.344245 
L 241.757492 125.666945 
L 252.952476 162.983264 
L 264.147461 172.312344 
L 275.342445 172.312344 
L 286.537429 161.428417 
L 297.732414 164.53811 
L 308.927398 173.86719 
L 320.122382 178.53173 
L 331.317367 186.305963 
L 342.512351 190.970503 
L 353.707335 208.073816 
L 364.90232 198.744736 
L 376.097304 195.635043 
L 387.292288 206.518969 
L 398.487273 209.628663 
L 398.487273 200.299583 
L 398.487273 200.299583 
L 387.292288 194.080196 
L 376.097304 183.19627 
L 364.90232 187.86081 
L 353.707335 194.080196 
L 342.512351 176.976883 
L 331.317367 172.312344 
L 320.122382 164.53811 
L 308.927398 159.873571 
L 297.732414 153.654184 
L 286.537429 145.879951 
L 275.342445 159.873571 
L 264.147461 161.428417 
L 252.952476 153.654184 
L 241.757492 114.783018 
L 230.562508 97.679706 
L 219.367524 82.131239 
L 208.172539 71.247313 
L 196.977555 71.247313 
L 185.782571 72.80216 
L 174.587586 72.80216 
L 163.392602 72.80216 
L 152.197618 71.247313 
L 141.002633 72.80216 
L 129.807649 74.357006 
L 118.612665 71.247313 
L 107.41768 74.357006 
L 96.222696 74.357006 
L 85.027712 74.357006 
L 73.832727 74.357006 
z
" clip-path="url(#p5afe9dbc6a)" style="fill: #9467bd"/>
   </g>
   <g id="PolyCollection_16">
    <path d="M 73.832727 74.357006 
L 73.832727 74.357006 
L 85.027712 74.357006 
L 96.222696 74.357006 
L 107.41768 74.357006 
L 118.612665 71.247313 
L 129.807649 74.357006 
L 141.002633 72.80216 
L 152.197618 71.247313 
L 163.392602 72.80216 
L 174.587586 72.80216 
L 185.782571 72.80216 
L 196.977555 71.247313 
L 208.172539 71.247313 
L 219.367524 82.131239 
L 230.562508 97.679706 
L 241.757492 114.783018 
L 252.952476 153.654184 
L 264.147461 161.428417 
L 275.342445 159.873571 
L 286.537429 145.879951 
L 297.732414 153.654184 
L 308.927398 159.873571 
L 320.122382 164.53811 
L 331.317367 172.312344 
L 342.512351 176.976883 
L 353.707335 194.080196 
L 364.90232 187.86081 
L 376.097304 183.19627 
L 387.292288 194.080196 
L 398.487273 200.299583 
L 398.487273 190.970503 
L 398.487273 190.970503 
L 387.292288 184.751117 
L 376.097304 173.86719 
L 364.90232 175.422037 
L 353.707335 183.19627 
L 342.512351 162.983264 
L 331.317367 158.318724 
L 320.122382 152.099337 
L 308.927398 147.434798 
L 297.732414 138.105718 
L 286.537429 131.886331 
L 275.342445 145.879951 
L 264.147461 144.325104 
L 252.952476 136.550871 
L 241.757492 97.679706 
L 230.562508 77.466699 
L 219.367524 77.466699 
L 208.172539 71.247313 
L 196.977555 71.247313 
L 185.782571 72.80216 
L 174.587586 72.80216 
L 163.392602 72.80216 
L 152.197618 71.247313 
L 141.002633 72.80216 
L 129.807649 74.357006 
L 118.612665 71.247313 
L 107.41768 74.357006 
L 96.222696 74.357006 
L 85.027712 74.357006 
L 73.832727 74.357006 
z
" clip-path="url(#p5afe9dbc6a)" style="fill: #8c564b"/>
   </g>
   <g id="PolyCollection_17">
    <path d="M 73.832727 74.357006 
L 73.832727 74.357006 
L 85.027712 74.357006 
L 96.222696 74.357006 
L 107.41768 74.357006 
L 118.612665 71.247313 
L 129.807649 74.357006 
L 141.002633 72.80216 
L 152.197618 71.247313 
L 163.392602 72.80216 
L 174.587586 72.80216 
L 185.782571 72.80216 
L 196.977555 71.247313 
L 208.172539 71.247313 
L 219.367524 77.466699 
L 230.562508 77.466699 
L 241.757492 97.679706 
L 252.952476 136.550871 
L 264.147461 144.325104 
L 275.342445 145.879951 
L 286.537429 131.886331 
L 297.732414 138.105718 
L 308.927398 147.434798 
L 320.122382 152.099337 
L 331.317367 158.318724 
L 342.512351 162.983264 
L 353.707335 183.19627 
L 364.90232 175.422037 
L 376.097304 173.86719 
L 387.292288 184.751117 
L 398.487273 190.970503 
L 398.487273 186.305963 
L 398.487273 186.305963 
L 387.292288 180.086577 
L 376.097304 169.20265 
L 364.90232 170.757497 
L 353.707335 180.086577 
L 342.512351 158.318724 
L 331.317367 152.099337 
L 320.122382 142.770258 
L 308.927398 141.215411 
L 297.732414 130.331485 
L 286.537429 127.221791 
L 275.342445 139.660564 
L 264.147461 134.996025 
L 252.952476 130.331485 
L 241.757492 93.015166 
L 230.562508 71.247313 
L 219.367524 74.357006 
L 208.172539 71.247313 
L 196.977555 71.247313 
L 185.782571 72.80216 
L 174.587586 72.80216 
L 163.392602 72.80216 
L 152.197618 71.247313 
L 141.002633 72.80216 
L 129.807649 74.357006 
L 118.612665 71.247313 
L 107.41768 74.357006 
L 96.222696 74.357006 
L 85.027712 74.357006 
L 73.832727 74.357006 
z
" clip-path="url(#p5afe9dbc6a)" style="fill: #e377c2"/>
   </g>
   <g id="PolyCollection_18">
    <path d="M 73.832727 74.357006 
L 73.832727 74.357006 
L 85.027712 74.357006 
L 96.222696 74.357006 
L 107.41768 74.357006 
L 118.612665 71.247313 
L 129.807649 74.357006 
L 141.002633 72.80216 
L 152.197618 71.247313 
L 163.392602 72.80216 
L 174.587586 72.80216 
L 185.782571 72.80216 
L 196.977555 71.247313 
L 208.172539 71.247313 
L 219.367524 74.357006 
L 230.562508 71.247313 
L 241.757492 93.015166 
L 252.952476 130.331485 
L 264.147461 134.996025 
L 275.342445 139.660564 
L 286.537429 127.221791 
L 297.732414 130.331485 
L 308.927398 141.215411 
L 320.122382 142.770258 
L 331.317367 152.099337 
L 342.512351 158.318724 
L 353.707335 180.086577 
L 364.90232 170.757497 
L 376.097304 169.20265 
L 387.292288 180.086577 
L 398.487273 186.305963 
L 398.487273 173.86719 
L 398.487273 173.86719 
L 387.292288 166.092957 
L 376.097304 156.763877 
L 364.90232 159.873571 
L 353.707335 166.092957 
L 342.512351 145.879951 
L 331.317367 134.996025 
L 320.122382 122.557252 
L 308.927398 127.221791 
L 297.732414 111.673325 
L 286.537429 108.563632 
L 275.342445 116.337865 
L 264.147461 113.228172 
L 252.952476 86.795779 
L 241.757492 77.466699 
L 230.562508 68.13762 
L 219.367524 74.357006 
L 208.172539 71.247313 
L 196.977555 71.247313 
L 185.782571 72.80216 
L 174.587586 72.80216 
L 163.392602 72.80216 
L 152.197618 71.247313 
L 141.002633 72.80216 
L 129.807649 74.357006 
L 118.612665 71.247313 
L 107.41768 74.357006 
L 96.222696 74.357006 
L 85.027712 74.357006 
L 73.832727 74.357006 
z
" clip-path="url(#p5afe9dbc6a)" style="fill: #7f7f7f"/>
   </g>
   <g id="PolyCollection_19">
    <path d="M 73.832727 74.357006 
L 73.832727 74.357006 
L 85.027712 74.357006 
L 96.222696 74.357006 
L 107.41768 74.357006 
L 118.612665 71.247313 
L 129.807649 74.357006 
L 141.002633 72.80216 
L 152.197618 71.247313 
L 163.392602 72.80216 
L 174.587586 72.80216 
L 185.782571 72.80216 
L 196.977555 71.247313 
L 208.172539 71.247313 
L 219.367524 74.357006 
L 230.562508 68.13762 
L 241.757492 77.466699 
L 252.952476 86.795779 
L 264.147461 113.228172 
L 275.342445 116.337865 
L 286.537429 108.563632 
L 297.732414 111.673325 
L 308.927398 127.221791 
L 320.122382 122.557252 
L 331.317367 134.996025 
L 342.512351 145.879951 
L 353.707335 166.092957 
L 364.90232 159.873571 
L 376.097304 156.763877 
L 387.292288 166.092957 
L 398.487273 173.86719 
L 398.487273 169.20265 
L 398.487273 169.20265 
L 387.292288 161.428417 
L 376.097304 152.099337 
L 364.90232 155.209031 
L 353.707335 161.428417 
L 342.512351 141.215411 
L 331.317367 130.331485 
L 320.122382 117.892712 
L 308.927398 122.557252 
L 297.732414 107.008785 
L 286.537429 105.453939 
L 275.342445 107.008785 
L 264.147461 107.008785 
L 252.952476 83.686086 
L 241.757492 74.357006 
L 230.562508 68.13762 
L 219.367524 74.357006 
L 208.172539 71.247313 
L 196.977555 71.247313 
L 185.782571 72.80216 
L 174.587586 72.80216 
L 163.392602 72.80216 
L 152.197618 71.247313 
L 141.002633 72.80216 
L 129.807649 74.357006 
L 118.612665 71.247313 
L 107.41768 74.357006 
L 96.222696 74.357006 
L 85.027712 74.357006 
L 73.832727 74.357006 
z
" clip-path="url(#p5afe9dbc6a)" style="fill: #bcbd22"/>
   </g>
   <g id="PolyCollection_20">
    <path d="M 73.832727 74.357006 
L 73.832727 74.357006 
L 85.027712 74.357006 
L 96.222696 74.357006 
L 107.41768 74.357006 
L 118.612665 71.247313 
L 129.807649 74.357006 
L 141.002633 72.80216 
L 152.197618 71.247313 
L 163.392602 72.80216 
L 174.587586 72.80216 
L 185.782571 72.80216 
L 196.977555 71.247313 
L 208.172539 71.247313 
L 219.367524 74.357006 
L 230.562508 68.13762 
L 241.757492 74.357006 
L 252.952476 83.686086 
L 264.147461 107.008785 
L 275.342445 107.008785 
L 286.537429 105.453939 
L 297.732414 107.008785 
L 308.927398 122.557252 
L 320.122382 117.892712 
L 331.317367 130.331485 
L 342.512351 141.215411 
L 353.707335 161.428417 
L 364.90232 155.209031 
L 376.097304 152.099337 
L 387.292288 161.428417 
L 398.487273 169.20265 
L 398.487273 161.428417 
L 398.487273 161.428417 
L 387.292288 148.989644 
L 376.097304 142.770258 
L 364.90232 144.325104 
L 353.707335 150.544491 
L 342.512351 136.550871 
L 331.317367 117.892712 
L 320.122382 99.234552 
L 308.927398 103.899092 
L 297.732414 96.124859 
L 286.537429 86.795779 
L 275.342445 86.795779 
L 264.147461 85.240933 
L 252.952476 75.911853 
L 241.757492 74.357006 
L 230.562508 68.13762 
L 219.367524 74.357006 
L 208.172539 71.247313 
L 196.977555 71.247313 
L 185.782571 72.80216 
L 174.587586 72.80216 
L 163.392602 72.80216 
L 152.197618 71.247313 
L 141.002633 72.80216 
L 129.807649 74.357006 
L 118.612665 71.247313 
L 107.41768 74.357006 
L 96.222696 74.357006 
L 85.027712 74.357006 
L 73.832727 74.357006 
z
" clip-path="url(#p5afe9dbc6a)" style="fill: #17becf"/>
   </g>
   <g id="PolyCollection_21">
    <path d="M 73.832727 74.357006 
L 73.832727 74.357006 
L 85.027712 74.357006 
L 96.222696 74.357006 
L 107.41768 74.357006 
L 118.612665 71.247313 
L 129.807649 74.357006 
L 141.002633 72.80216 
L 152.197618 71.247313 
L 163.392602 72.80216 
L 174.587586 72.80216 
L 185.782571 72.80216 
L 196.977555 71.247313 
L 208.172539 71.247313 
L 219.367524 74.357006 
L 230.562508 68.13762 
L 241.757492 74.357006 
L 252.952476 75.911853 
L 264.147461 85.240933 
L 275.342445 86.795779 
L 286.537429 86.795779 
L 297.732414 96.124859 
L 308.927398 103.899092 
L 320.122382 99.234552 
L 331.317367 117.892712 
L 342.512351 136.550871 
L 353.707335 150.544491 
L 364.90232 144.325104 
L 376.097304 142.770258 
L 387.292288 148.989644 
L 398.487273 161.428417 
L 398.487273 156.763877 
L 398.487273 156.763877 
L 387.292288 144.325104 
L 376.097304 138.105718 
L 364.90232 139.660564 
L 353.707335 145.879951 
L 342.512351 131.886331 
L 331.317367 113.228172 
L 320.122382 94.570012 
L 308.927398 99.234552 
L 297.732414 91.460319 
L 286.537429 85.240933 
L 275.342445 83.686086 
L 264.147461 77.466699 
L 252.952476 74.357006 
L 241.757492 74.357006 
L 230.562508 68.13762 
L 219.367524 74.357006 
L 208.172539 71.247313 
L 196.977555 71.247313 
L 185.782571 72.80216 
L 174.587586 72.80216 
L 163.392602 72.80216 
L 152.197618 71.247313 
L 141.002633 72.80216 
L 129.807649 74.357006 
L 118.612665 71.247313 
L 107.41768 74.357006 
L 96.222696 74.357006 
L 85.027712 74.357006 
L 73.832727 74.357006 
z
" clip-path="url(#p5afe9dbc6a)" style="fill: #1f77b4"/>
   </g>
   <g id="PolyCollection_22">
    <path d="M 73.832727 74.357006 
L 73.832727 74.357006 
L 85.027712 74.357006 
L 96.222696 74.357006 
L 107.41768 74.357006 
L 118.612665 71.247313 
L 129.807649 74.357006 
L 141.002633 72.80216 
L 152.197618 71.247313 
L 163.392602 72.80216 
L 174.587586 72.80216 
L 185.782571 72.80216 
L 196.977555 71.247313 
L 208.172539 71.247313 
L 219.367524 74.357006 
L 230.562508 68.13762 
L 241.757492 74.357006 
L 252.952476 74.357006 
L 264.147461 77.466699 
L 275.342445 83.686086 
L 286.537429 85.240933 
L 297.732414 91.460319 
L 308.927398 99.234552 
L 320.122382 94.570012 
L 331.317367 113.228172 
L 342.512351 131.886331 
L 353.707335 145.879951 
L 364.90232 139.660564 
L 376.097304 138.105718 
L 387.292288 144.325104 
L 398.487273 156.763877 
L 398.487273 147.434798 
L 398.487273 147.434798 
L 387.292288 138.105718 
L 376.097304 128.776638 
L 364.90232 128.776638 
L 353.707335 136.550871 
L 342.512351 122.557252 
L 331.317367 105.453939 
L 320.122382 86.795779 
L 308.927398 91.460319 
L 297.732414 82.131239 
L 286.537429 77.466699 
L 275.342445 74.357006 
L 264.147461 71.247313 
L 252.952476 72.80216 
L 241.757492 74.357006 
L 230.562508 68.13762 
L 219.367524 74.357006 
L 208.172539 71.247313 
L 196.977555 71.247313 
L 185.782571 72.80216 
L 174.587586 72.80216 
L 163.392602 72.80216 
L 152.197618 71.247313 
L 141.002633 72.80216 
L 129.807649 74.357006 
L 118.612665 71.247313 
L 107.41768 74.357006 
L 96.222696 74.357006 
L 85.027712 74.357006 
L 73.832727 74.357006 
z
" clip-path="url(#p5afe9dbc6a)" style="fill: #ff7f0e"/>
   </g>
   <g id="PolyCollection_23">
    <path d="M 73.832727 74.357006 
L 73.832727 74.357006 
L 85.027712 74.357006 
L 96.222696 74.357006 
L 107.41768 74.357006 
L 118.612665 71.247313 
L 129.807649 74.357006 
L 141.002633 72.80216 
L 152.197618 71.247313 
L 163.392602 72.80216 
L 174.587586 72.80216 
L 185.782571 72.80216 
L 196.977555 71.247313 
L 208.172539 71.247313 
L 219.367524 74.357006 
L 230.562508 68.13762 
L 241.757492 74.357006 
L 252.952476 72.80216 
L 264.147461 71.247313 
L 275.342445 74.357006 
L 286.537429 77.466699 
L 297.732414 82.131239 
L 308.927398 91.460319 
L 320.122382 86.795779 
L 331.317367 105.453939 
L 342.512351 122.557252 
L 353.707335 136.550871 
L 364.90232 128.776638 
L 376.097304 128.776638 
L 387.292288 138.105718 
L 398.487273 147.434798 
L 398.487273 142.770258 
L 398.487273 142.770258 
L 387.292288 133.441178 
L 376.097304 124.112098 
L 364.90232 124.112098 
L 353.707335 131.886331 
L 342.512351 119.447558 
L 331.317367 99.234552 
L 320.122382 82.131239 
L 308.927398 86.795779 
L 297.732414 77.466699 
L 286.537429 75.911853 
L 275.342445 74.357006 
L 264.147461 71.247313 
L 252.952476 72.80216 
L 241.757492 74.357006 
L 230.562508 68.13762 
L 219.367524 74.357006 
L 208.172539 71.247313 
L 196.977555 71.247313 
L 185.782571 72.80216 
L 174.587586 72.80216 
L 163.392602 72.80216 
L 152.197618 71.247313 
L 141.002633 72.80216 
L 129.807649 74.357006 
L 118.612665 71.247313 
L 107.41768 74.357006 
L 96.222696 74.357006 
L 85.027712 74.357006 
L 73.832727 74.357006 
z
" clip-path="url(#p5afe9dbc6a)" style="fill: #2ca02c"/>
   </g>
   <g id="PolyCollection_24">
    <path d="M 73.832727 74.357006 
L 73.832727 74.357006 
L 85.027712 74.357006 
L 96.222696 74.357006 
L 107.41768 74.357006 
L 118.612665 71.247313 
L 129.807649 74.357006 
L 141.002633 72.80216 
L 152.197618 71.247313 
L 163.392602 72.80216 
L 174.587586 72.80216 
L 185.782571 72.80216 
L 196.977555 71.247313 
L 208.172539 71.247313 
L 219.367524 74.357006 
L 230.562508 68.13762 
L 241.757492 74.357006 
L 252.952476 72.80216 
L 264.147461 71.247313 
L 275.342445 74.357006 
L 286.537429 75.911853 
L 297.732414 77.466699 
L 308.927398 86.795779 
L 320.122382 82.131239 
L 331.317367 99.234552 
L 342.512351 119.447558 
L 353.707335 131.886331 
L 364.90232 124.112098 
L 376.097304 124.112098 
L 387.292288 133.441178 
L 398.487273 142.770258 
L 398.487273 133.441178 
L 398.487273 133.441178 
L 387.292288 124.112098 
L 376.097304 114.783018 
L 364.90232 114.783018 
L 353.707335 119.447558 
L 342.512351 117.892712 
L 331.317367 88.350626 
L 320.122382 71.247313 
L 308.927398 72.80216 
L 297.732414 68.13762 
L 286.537429 74.357006 
L 275.342445 74.357006 
L 264.147461 71.247313 
L 252.952476 72.80216 
L 241.757492 74.357006 
L 230.562508 68.13762 
L 219.367524 74.357006 
L 208.172539 71.247313 
L 196.977555 71.247313 
L 185.782571 72.80216 
L 174.587586 72.80216 
L 163.392602 72.80216 
L 152.197618 71.247313 
L 141.002633 72.80216 
L 129.807649 74.357006 
L 118.612665 71.247313 
L 107.41768 74.357006 
L 96.222696 74.357006 
L 85.027712 74.357006 
L 73.832727 74.357006 
z
" clip-path="url(#p5afe9dbc6a)" style="fill: #d62728"/>
   </g>
   <g id="PolyCollection_25">
    <path d="M 73.832727 74.357006 
L 73.832727 74.357006 
L 85.027712 74.357006 
L 96.222696 74.357006 
L 107.41768 74.357006 
L 118.612665 71.247313 
L 129.807649 74.357006 
L 141.002633 72.80216 
L 152.197618 71.247313 
L 163.392602 72.80216 
L 174.587586 72.80216 
L 185.782571 72.80216 
L 196.977555 71.247313 
L 208.172539 71.247313 
L 219.367524 74.357006 
L 230.562508 68.13762 
L 241.757492 74.357006 
L 252.952476 72.80216 
L 264.147461 71.247313 
L 275.342445 74.357006 
L 286.537429 74.357006 
L 297.732414 68.13762 
L 308.927398 72.80216 
L 320.122382 71.247313 
L 331.317367 88.350626 
L 342.512351 117.892712 
L 353.707335 119.447558 
L 364.90232 114.783018 
L 376.097304 114.783018 
L 387.292288 124.112098 
L 398.487273 133.441178 
L 398.487273 128.776638 
L 398.487273 128.776638 
L 387.292288 119.447558 
L 376.097304 110.118479 
L 364.90232 110.118479 
L 353.707335 114.783018 
L 342.512351 113.228172 
L 331.317367 83.686086 
L 320.122382 65.027926 
L 308.927398 71.247313 
L 297.732414 68.13762 
L 286.537429 74.357006 
L 275.342445 74.357006 
L 264.147461 71.247313 
L 252.952476 72.80216 
L 241.757492 74.357006 
L 230.562508 68.13762 
L 219.367524 74.357006 
L 208.172539 71.247313 
L 196.977555 71.247313 
L 185.782571 72.80216 
L 174.587586 72.80216 
L 163.392602 72.80216 
L 152.197618 71.247313 
L 141.002633 72.80216 
L 129.807649 74.357006 
L 118.612665 71.247313 
L 107.41768 74.357006 
L 96.222696 74.357006 
L 85.027712 74.357006 
L 73.832727 74.357006 
z
" clip-path="url(#p5afe9dbc6a)" style="fill: #9467bd"/>
   </g>
   <g id="PolyCollection_26">
    <path d="M 73.832727 74.357006 
L 73.832727 74.357006 
L 85.027712 74.357006 
L 96.222696 74.357006 
L 107.41768 74.357006 
L 118.612665 71.247313 
L 129.807649 74.357006 
L 141.002633 72.80216 
L 152.197618 71.247313 
L 163.392602 72.80216 
L 174.587586 72.80216 
L 185.782571 72.80216 
L 196.977555 71.247313 
L 208.172539 71.247313 
L 219.367524 74.357006 
L 230.562508 68.13762 
L 241.757492 74.357006 
L 252.952476 72.80216 
L 264.147461 71.247313 
L 275.342445 74.357006 
L 286.537429 74.357006 
L 297.732414 68.13762 
L 308.927398 71.247313 
L 320.122382 65.027926 
L 331.317367 83.686086 
L 342.512351 113.228172 
L 353.707335 114.783018 
L 364.90232 110.118479 
L 376.097304 110.118479 
L 387.292288 119.447558 
L 398.487273 128.776638 
L 398.487273 121.002405 
L 398.487273 121.002405 
L 387.292288 107.008785 
L 376.097304 100.789399 
L 364.90232 99.234552 
L 353.707335 100.789399 
L 342.512351 97.679706 
L 331.317367 74.357006 
L 320.122382 65.027926 
L 308.927398 71.247313 
L 297.732414 68.13762 
L 286.537429 74.357006 
L 275.342445 74.357006 
L 264.147461 71.247313 
L 252.952476 72.80216 
L 241.757492 74.357006 
L 230.562508 68.13762 
L 219.367524 74.357006 
L 208.172539 71.247313 
L 196.977555 71.247313 
L 185.782571 72.80216 
L 174.587586 72.80216 
L 163.392602 72.80216 
L 152.197618 71.247313 
L 141.002633 72.80216 
L 129.807649 74.357006 
L 118.612665 71.247313 
L 107.41768 74.357006 
L 96.222696 74.357006 
L 85.027712 74.357006 
L 73.832727 74.357006 
z
" clip-path="url(#p5afe9dbc6a)" style="fill: #8c564b"/>
   </g>
   <g id="PolyCollection_27">
    <path d="M 73.832727 74.357006 
L 73.832727 74.357006 
L 85.027712 74.357006 
L 96.222696 74.357006 
L 107.41768 74.357006 
L 118.612665 71.247313 
L 129.807649 74.357006 
L 141.002633 72.80216 
L 152.197618 71.247313 
L 163.392602 72.80216 
L 174.587586 72.80216 
L 185.782571 72.80216 
L 196.977555 71.247313 
L 208.172539 71.247313 
L 219.367524 74.357006 
L 230.562508 68.13762 
L 241.757492 74.357006 
L 252.952476 72.80216 
L 264.147461 71.247313 
L 275.342445 74.357006 
L 286.537429 74.357006 
L 297.732414 68.13762 
L 308.927398 71.247313 
L 320.122382 65.027926 
L 331.317367 74.357006 
L 342.512351 97.679706 
L 353.707335 100.789399 
L 364.90232 99.234552 
L 376.097304 100.789399 
L 387.292288 107.008785 
L 398.487273 121.002405 
L 398.487273 108.563632 
L 398.487273 108.563632 
L 387.292288 103.899092 
L 376.097304 94.570012 
L 364.90232 94.570012 
L 353.707335 77.466699 
L 342.512351 72.80216 
L 331.317367 66.582773 
L 320.122382 65.027926 
L 308.927398 71.247313 
L 297.732414 68.13762 
L 286.537429 74.357006 
L 275.342445 74.357006 
L 264.147461 71.247313 
L 252.952476 72.80216 
L 241.757492 74.357006 
L 230.562508 68.13762 
L 219.367524 74.357006 
L 208.172539 71.247313 
L 196.977555 71.247313 
L 185.782571 72.80216 
L 174.587586 72.80216 
L 163.392602 72.80216 
L 152.197618 71.247313 
L 141.002633 72.80216 
L 129.807649 74.357006 
L 118.612665 71.247313 
L 107.41768 74.357006 
L 96.222696 74.357006 
L 85.027712 74.357006 
L 73.832727 74.357006 
z
" clip-path="url(#p5afe9dbc6a)" style="fill: #e377c2"/>
   </g>
   <g id="PolyCollection_28">
    <path d="M 73.832727 74.357006 
L 73.832727 74.357006 
L 85.027712 74.357006 
L 96.222696 74.357006 
L 107.41768 74.357006 
L 118.612665 71.247313 
L 129.807649 74.357006 
L 141.002633 72.80216 
L 152.197618 71.247313 
L 163.392602 72.80216 
L 174.587586 72.80216 
L 185.782571 72.80216 
L 196.977555 71.247313 
L 208.172539 71.247313 
L 219.367524 74.357006 
L 230.562508 68.13762 
L 241.757492 74.357006 
L 252.952476 72.80216 
L 264.147461 71.247313 
L 275.342445 74.357006 
L 286.537429 74.357006 
L 297.732414 68.13762 
L 308.927398 71.247313 
L 320.122382 65.027926 
L 331.317367 66.582773 
L 342.512351 72.80216 
L 353.707335 77.466699 
L 364.90232 94.570012 
L 376.097304 94.570012 
L 387.292288 103.899092 
L 398.487273 108.563632 
L 398.487273 100.789399 
L 398.487273 100.789399 
L 387.292288 94.570012 
L 376.097304 85.240933 
L 364.90232 85.240933 
L 353.707335 65.027926 
L 342.512351 66.582773 
L 331.317367 66.582773 
L 320.122382 65.027926 
L 308.927398 71.247313 
L 297.732414 68.13762 
L 286.537429 74.357006 
L 275.342445 74.357006 
L 264.147461 71.247313 
L 252.952476 72.80216 
L 241.757492 74.357006 
L 230.562508 68.13762 
L 219.367524 74.357006 
L 208.172539 71.247313 
L 196.977555 71.247313 
L 185.782571 72.80216 
L 174.587586 72.80216 
L 163.392602 72.80216 
L 152.197618 71.247313 
L 141.002633 72.80216 
L 129.807649 74.357006 
L 118.612665 71.247313 
L 107.41768 74.357006 
L 96.222696 74.357006 
L 85.027712 74.357006 
L 73.832727 74.357006 
z
" clip-path="url(#p5afe9dbc6a)" style="fill: #7f7f7f"/>
   </g>
   <g id="PolyCollection_29">
    <path d="M 73.832727 74.357006 
L 73.832727 74.357006 
L 85.027712 74.357006 
L 96.222696 74.357006 
L 107.41768 74.357006 
L 118.612665 71.247313 
L 129.807649 74.357006 
L 141.002633 72.80216 
L 152.197618 71.247313 
L 163.392602 72.80216 
L 174.587586 72.80216 
L 185.782571 72.80216 
L 196.977555 71.247313 
L 208.172539 71.247313 
L 219.367524 74.357006 
L 230.562508 68.13762 
L 241.757492 74.357006 
L 252.952476 72.80216 
L 264.147461 71.247313 
L 275.342445 74.357006 
L 286.537429 74.357006 
L 297.732414 68.13762 
L 308.927398 71.247313 
L 320.122382 65.027926 
L 331.317367 66.582773 
L 342.512351 66.582773 
L 353.707335 65.027926 
L 364.90232 85.240933 
L 376.097304 85.240933 
L 387.292288 94.570012 
L 398.487273 100.789399 
L 398.487273 89.905472 
L 398.487273 89.905472 
L 387.292288 83.686086 
L 376.097304 74.357006 
L 364.90232 71.247313 
L 353.707335 65.027926 
L 342.512351 66.582773 
L 331.317367 66.582773 
L 320.122382 65.027926 
L 308.927398 71.247313 
L 297.732414 68.13762 
L 286.537429 74.357006 
L 275.342445 74.357006 
L 264.147461 71.247313 
L 252.952476 72.80216 
L 241.757492 74.357006 
L 230.562508 68.13762 
L 219.367524 74.357006 
L 208.172539 71.247313 
L 196.977555 71.247313 
L 185.782571 72.80216 
L 174.587586 72.80216 
L 163.392602 72.80216 
L 152.197618 71.247313 
L 141.002633 72.80216 
L 129.807649 74.357006 
L 118.612665 71.247313 
L 107.41768 74.357006 
L 96.222696 74.357006 
L 85.027712 74.357006 
L 73.832727 74.357006 
z
" clip-path="url(#p5afe9dbc6a)" style="fill: #bcbd22"/>
   </g>
   <g id="PolyCollection_30">
    <path d="M 73.832727 74.357006 
L 73.832727 74.357006 
L 85.027712 74.357006 
L 96.222696 74.357006 
L 107.41768 74.357006 
L 118.612665 71.247313 
L 129.807649 74.357006 
L 141.002633 72.80216 
L 152.197618 71.247313 
L 163.392602 72.80216 
L 174.587586 72.80216 
L 185.782571 72.80216 
L 196.977555 71.247313 
L 208.172539 71.247313 
L 219.367524 74.357006 
L 230.562508 68.13762 
L 241.757492 74.357006 
L 252.952476 72.80216 
L 264.147461 71.247313 
L 275.342445 74.357006 
L 286.537429 74.357006 
L 297.732414 68.13762 
L 308.927398 71.247313 
L 320.122382 65.027926 
L 331.317367 66.582773 
L 342.512351 66.582773 
L 353.707335 65.027926 
L 364.90232 71.247313 
L 376.097304 74.357006 
L 387.292288 83.686086 
L 398.487273 89.905472 
L 398.487273 85.240933 
L 398.487273 85.240933 
L 387.292288 79.021546 
L 376.097304 72.80216 
L 364.90232 71.247313 
L 353.707335 65.027926 
L 342.512351 66.582773 
L 331.317367 66.582773 
L 320.122382 65.027926 
L 308.927398 71.247313 
L 297.732414 68.13762 
L 286.537429 74.357006 
L 275.342445 74.357006 
L 264.147461 71.247313 
L 252.952476 72.80216 
L 241.757492 74.357006 
L 230.562508 68.13762 
L 219.367524 74.357006 
L 208.172539 71.247313 
L 196.977555 71.247313 
L 185.782571 72.80216 
L 174.587586 72.80216 
L 163.392602 72.80216 
L 152.197618 71.247313 
L 141.002633 72.80216 
L 129.807649 74.357006 
L 118.612665 71.247313 
L 107.41768 74.357006 
L 96.222696 74.357006 
L 85.027712 74.357006 
L 73.832727 74.357006 
z
" clip-path="url(#p5afe9dbc6a)" style="fill: #17becf"/>
   </g>
   <g id="PolyCollection_31">
    <path d="M 73.832727 74.357006 
L 73.832727 74.357006 
L 85.027712 74.357006 
L 96.222696 74.357006 
L 107.41768 74.357006 
L 118.612665 71.247313 
L 129.807649 74.357006 
L 141.002633 72.80216 
L 152.197618 71.247313 
L 163.392602 72.80216 
L 174.587586 72.80216 
L 185.782571 72.80216 
L 196.977555 71.247313 
L 208.172539 71.247313 
L 219.367524 74.357006 
L 230.562508 68.13762 
L 241.757492 74.357006 
L 252.952476 72.80216 
L 264.147461 71.247313 
L 275.342445 74.357006 
L 286.537429 74.357006 
L 297.732414 68.13762 
L 308.927398 71.247313 
L 320.122382 65.027926 
L 331.317367 66.582773 
L 342.512351 66.582773 
L 353.707335 65.027926 
L 364.90232 71.247313 
L 376.097304 72.80216 
L 387.292288 79.021546 
L 398.487273 85.240933 
L 398.487273 80.576393 
L 398.487273 80.576393 
L 387.292288 74.357006 
L 376.097304 71.247313 
L 364.90232 71.247313 
L 353.707335 65.027926 
L 342.512351 66.582773 
L 331.317367 66.582773 
L 320.122382 65.027926 
L 308.927398 71.247313 
L 297.732414 68.13762 
L 286.537429 74.357006 
L 275.342445 74.357006 
L 264.147461 71.247313 
L 252.952476 72.80216 
L 241.757492 74.357006 
L 230.562508 68.13762 
L 219.367524 74.357006 
L 208.172539 71.247313 
L 196.977555 71.247313 
L 185.782571 72.80216 
L 174.587586 72.80216 
L 163.392602 72.80216 
L 152.197618 71.247313 
L 141.002633 72.80216 
L 129.807649 74.357006 
L 118.612665 71.247313 
L 107.41768 74.357006 
L 96.222696 74.357006 
L 85.027712 74.357006 
L 73.832727 74.357006 
z
" clip-path="url(#p5afe9dbc6a)" style="fill: #1f77b4"/>
   </g>
   <g id="PolyCollection_32">
    <path d="M 73.832727 74.357006 
L 73.832727 74.357006 
L 85.027712 74.357006 
L 96.222696 74.357006 
L 107.41768 74.357006 
L 118.612665 71.247313 
L 129.807649 74.357006 
L 141.002633 72.80216 
L 152.197618 71.247313 
L 163.392602 72.80216 
L 174.587586 72.80216 
L 185.782571 72.80216 
L 196.977555 71.247313 
L 208.172539 71.247313 
L 219.367524 74.357006 
L 230.562508 68.13762 
L 241.757492 74.357006 
L 252.952476 72.80216 
L 264.147461 71.247313 
L 275.342445 74.357006 
L 286.537429 74.357006 
L 297.732414 68.13762 
L 308.927398 71.247313 
L 320.122382 65.027926 
L 331.317367 66.582773 
L 342.512351 66.582773 
L 353.707335 65.027926 
L 364.90232 71.247313 
L 376.097304 71.247313 
L 387.292288 74.357006 
L 398.487273 80.576393 
L 398.487273 75.911853 
L 398.487273 75.911853 
L 387.292288 69.692466 
L 376.097304 69.692466 
L 364.90232 71.247313 
L 353.707335 65.027926 
L 342.512351 66.582773 
L 331.317367 66.582773 
L 320.122382 65.027926 
L 308.927398 71.247313 
L 297.732414 68.13762 
L 286.537429 74.357006 
L 275.342445 74.357006 
L 264.147461 71.247313 
L 252.952476 72.80216 
L 241.757492 74.357006 
L 230.562508 68.13762 
L 219.367524 74.357006 
L 208.172539 71.247313 
L 196.977555 71.247313 
L 185.782571 72.80216 
L 174.587586 72.80216 
L 163.392602 72.80216 
L 152.197618 71.247313 
L 141.002633 72.80216 
L 129.807649 74.357006 
L 118.612665 71.247313 
L 107.41768 74.357006 
L 96.222696 74.357006 
L 85.027712 74.357006 
L 73.832727 74.357006 
z
" clip-path="url(#p5afe9dbc6a)" style="fill: #ff7f0e"/>
   </g>
   <g id="PolyCollection_33">
    <path d="M 73.832727 74.357006 
L 73.832727 74.357006 
L 85.027712 74.357006 
L 96.222696 74.357006 
L 107.41768 74.357006 
L 118.612665 71.247313 
L 129.807649 74.357006 
L 141.002633 72.80216 
L 152.197618 71.247313 
L 163.392602 72.80216 
L 174.587586 72.80216 
L 185.782571 72.80216 
L 196.977555 71.247313 
L 208.172539 71.247313 
L 219.367524 74.357006 
L 230.562508 68.13762 
L 241.757492 74.357006 
L 252.952476 72.80216 
L 264.147461 71.247313 
L 275.342445 74.357006 
L 286.537429 74.357006 
L 297.732414 68.13762 
L 308.927398 71.247313 
L 320.122382 65.027926 
L 331.317367 66.582773 
L 342.512351 66.582773 
L 353.707335 65.027926 
L 364.90232 71.247313 
L 376.097304 69.692466 
L 387.292288 69.692466 
L 398.487273 75.911853 
L 398.487273 71.247313 
L 398.487273 71.247313 
L 387.292288 60.363387 
L 376.097304 68.13762 
L 364.90232 71.247313 
L 353.707335 65.027926 
L 342.512351 66.582773 
L 331.317367 66.582773 
L 320.122382 65.027926 
L 308.927398 71.247313 
L 297.732414 68.13762 
L 286.537429 74.357006 
L 275.342445 74.357006 
L 264.147461 71.247313 
L 252.952476 72.80216 
L 241.757492 74.357006 
L 230.562508 68.13762 
L 219.367524 74.357006 
L 208.172539 71.247313 
L 196.977555 71.247313 
L 185.782571 72.80216 
L 174.587586 72.80216 
L 163.392602 72.80216 
L 152.197618 71.247313 
L 141.002633 72.80216 
L 129.807649 74.357006 
L 118.612665 71.247313 
L 107.41768 74.357006 
L 96.222696 74.357006 
L 85.027712 74.357006 
L 73.832727 74.357006 
z
" clip-path="url(#p5afe9dbc6a)" style="fill: #2ca02c"/>
   </g>
   <g id="PolyCollection_34">
    <path d="M 73.832727 74.357006 
L 73.832727 74.357006 
L 85.027712 74.357006 
L 96.222696 74.357006 
L 107.41768 74.357006 
L 118.612665 71.247313 
L 129.807649 74.357006 
L 141.002633 72.80216 
L 152.197618 71.247313 
L 163.392602 72.80216 
L 174.587586 72.80216 
L 185.782571 72.80216 
L 196.977555 71.247313 
L 208.172539 71.247313 
L 219.367524 74.357006 
L 230.562508 68.13762 
L 241.757492 74.357006 
L 252.952476 72.80216 
L 264.147461 71.247313 
L 275.342445 74.357006 
L 286.537429 74.357006 
L 297.732414 68.13762 
L 308.927398 71.247313 
L 320.122382 65.027926 
L 331.317367 66.582773 
L 342.512351 66.582773 
L 353.707335 65.027926 
L 364.90232 71.247313 
L 376.097304 68.13762 
L 387.292288 60.363387 
L 398.487273 71.247313 
L 398.487273 66.582773 
L 398.487273 66.582773 
L 387.292288 58.80854 
L 376.097304 68.13762 
L 364.90232 71.247313 
L 353.707335 65.027926 
L 342.512351 66.582773 
L 331.317367 66.582773 
L 320.122382 65.027926 
L 308.927398 71.247313 
L 297.732414 68.13762 
L 286.537429 74.357006 
L 275.342445 74.357006 
L 264.147461 71.247313 
L 252.952476 72.80216 
L 241.757492 74.357006 
L 230.562508 68.13762 
L 219.367524 74.357006 
L 208.172539 71.247313 
L 196.977555 71.247313 
L 185.782571 72.80216 
L 174.587586 72.80216 
L 163.392602 72.80216 
L 152.197618 71.247313 
L 141.002633 72.80216 
L 129.807649 74.357006 
L 118.612665 71.247313 
L 107.41768 74.357006 
L 96.222696 74.357006 
L 85.027712 74.357006 
L 73.832727 74.357006 
z
" clip-path="url(#p5afe9dbc6a)" style="fill: #d62728"/>
   </g>
   <g id="PolyCollection_35">
    <path d="M 73.832727 74.357006 
L 73.832727 74.357006 
L 85.027712 74.357006 
L 96.222696 74.357006 
L 107.41768 74.357006 
L 118.612665 71.247313 
L 129.807649 74.357006 
L 141.002633 72.80216 
L 152.197618 71.247313 
L 163.392602 72.80216 
L 174.587586 72.80216 
L 185.782571 72.80216 
L 196.977555 71.247313 
L 208.172539 71.247313 
L 219.367524 74.357006 
L 230.562508 68.13762 
L 241.757492 74.357006 
L 252.952476 72.80216 
L 264.147461 71.247313 
L 275.342445 74.357006 
L 286.537429 74.357006 
L 297.732414 68.13762 
L 308.927398 71.247313 
L 320.122382 65.027926 
L 331.317367 66.582773 
L 342.512351 66.582773 
L 353.707335 65.027926 
L 364.90232 71.247313 
L 376.097304 68.13762 
L 387.292288 58.80854 
L 398.487273 66.582773 
L 398.487273 61.918233 
L 398.487273 61.918233 
L 387.292288 57.253693 
L 376.097304 68.13762 
L 364.90232 71.247313 
L 353.707335 65.027926 
L 342.512351 66.582773 
L 331.317367 66.582773 
L 320.122382 65.027926 
L 308.927398 71.247313 
L 297.732414 68.13762 
L 286.537429 74.357006 
L 275.342445 74.357006 
L 264.147461 71.247313 
L 252.952476 72.80216 
L 241.757492 74.357006 
L 230.562508 68.13762 
L 219.367524 74.357006 
L 208.172539 71.247313 
L 196.977555 71.247313 
L 185.782571 72.80216 
L 174.587586 72.80216 
L 163.392602 72.80216 
L 152.197618 71.247313 
L 141.002633 72.80216 
L 129.807649 74.357006 
L 118.612665 71.247313 
L 107.41768 74.357006 
L 96.222696 74.357006 
L 85.027712 74.357006 
L 73.832727 74.357006 
z
" clip-path="url(#p5afe9dbc6a)" style="fill: #9467bd"/>
   </g>
   <g id="PolyCollection_36">
    <path d="M 73.832727 74.357006 
L 73.832727 74.357006 
L 85.027712 74.357006 
L 96.222696 74.357006 
L 107.41768 74.357006 
L 118.612665 71.247313 
L 129.807649 74.357006 
L 141.002633 72.80216 
L 152.197618 71.247313 
L 163.392602 72.80216 
L 174.587586 72.80216 
L 185.782571 72.80216 
L 196.977555 71.247313 
L 208.172539 71.247313 
L 219.367524 74.357006 
L 230.562508 68.13762 
L 241.757492 74.357006 
L 252.952476 72.80216 
L 264.147461 71.247313 
L 275.342445 74.357006 
L 286.537429 74.357006 
L 297.732414 68.13762 
L 308.927398 71.247313 
L 320.122382 65.027926 
L 331.317367 66.582773 
L 342.512351 66.582773 
L 353.707335 65.027926 
L 364.90232 71.247313 
L 376.097304 68.13762 
L 387.292288 57.253693 
L 398.487273 61.918233 
L 398.487273 57.253693 
L 398.487273 57.253693 
L 387.292288 55.698847 
L 376.097304 68.13762 
L 364.90232 71.247313 
L 353.707335 65.027926 
L 342.512351 66.582773 
L 331.317367 66.582773 
L 320.122382 65.027926 
L 308.927398 71.247313 
L 297.732414 68.13762 
L 286.537429 74.357006 
L 275.342445 74.357006 
L 264.147461 71.247313 
L 252.952476 72.80216 
L 241.757492 74.357006 
L 230.562508 68.13762 
L 219.367524 74.357006 
L 208.172539 71.247313 
L 196.977555 71.247313 
L 185.782571 72.80216 
L 174.587586 72.80216 
L 163.392602 72.80216 
L 152.197618 71.247313 
L 141.002633 72.80216 
L 129.807649 74.357006 
L 118.612665 71.247313 
L 107.41768 74.357006 
L 96.222696 74.357006 
L 85.027712 74.357006 
L 73.832727 74.357006 
z
" clip-path="url(#p5afe9dbc6a)" style="fill: #8c564b"/>
   </g>
   <g id="PolyCollection_37">
    <path d="M 73.832727 74.357006 
L 73.832727 74.357006 
L 85.027712 74.357006 
L 96.222696 74.357006 
L 107.41768 74.357006 
L 118.612665 71.247313 
L 129.807649 74.357006 
L 141.002633 72.80216 
L 152.197618 71.247313 
L 163.392602 72.80216 
L 174.587586 72.80216 
L 185.782571 72.80216 
L 196.977555 71.247313 
L 208.172539 71.247313 
L 219.367524 74.357006 
L 230.562508 68.13762 
L 241.757492 74.357006 
L 252.952476 72.80216 
L 264.147461 71.247313 
L 275.342445 74.357006 
L 286.537429 74.357006 
L 297.732414 68.13762 
L 308.927398 71.247313 
L 320.122382 65.027926 
L 331.317367 66.582773 
L 342.512351 66.582773 
L 353.707335 65.027926 
L 364.90232 71.247313 
L 376.097304 68.13762 
L 387.292288 55.698847 
L 398.487273 57.253693 
L 398.487273 55.698847 
L 398.487273 55.698847 
L 387.292288 55.698847 
L 376.097304 68.13762 
L 364.90232 71.247313 
L 353.707335 65.027926 
L 342.512351 66.582773 
L 331.317367 66.582773 
L 320.122382 65.027926 
L 308.927398 71.247313 
L 297.732414 68.13762 
L 286.537429 74.357006 
L 275.342445 74.357006 
L 264.147461 71.247313 
L 252.952476 72.80216 
L 241.757492 74.357006 
L 230.562508 68.13762 
L 219.367524 74.357006 
L 208.172539 71.247313 
L 196.977555 71.247313 
L 185.782571 72.80216 
L 174.587586 72.80216 
L 163.392602 72.80216 
L 152.197618 71.247313 
L 141.002633 72.80216 
L 129.807649 74.357006 
L 118.612665 71.247313 
L 107.41768 74.357006 
L 96.222696 74.357006 
L 85.027712 74.357006 
L 73.832727 74.357006 
z
" clip-path="url(#p5afe9dbc6a)" style="fill: #e377c2"/>
   </g>
   <g id="PolyCollection_38">
    <path d="M 73.832727 74.357006 
L 73.832727 74.357006 
L 85.027712 74.357006 
L 96.222696 74.357006 
L 107.41768 74.357006 
L 118.612665 71.247313 
L 129.807649 74.357006 
L 141.002633 72.80216 
L 152.197618 71.247313 
L 163.392602 72.80216 
L 174.587586 72.80216 
L 185.782571 72.80216 
L 196.977555 71.247313 
L 208.172539 71.247313 
L 219.367524 74.357006 
L 230.562508 68.13762 
L 241.757492 74.357006 
L 252.952476 72.80216 
L 264.147461 71.247313 
L 275.342445 74.357006 
L 286.537429 74.357006 
L 297.732414 68.13762 
L 308.927398 71.247313 
L 320.122382 65.027926 
L 331.317367 66.582773 
L 342.512351 66.582773 
L 353.707335 65.027926 
L 364.90232 71.247313 
L 376.097304 68.13762 
L 387.292288 55.698847 
L 398.487273 55.698847 
L 398.487273 54.144 
L 398.487273 54.144 
L 387.292288 55.698847 
L 376.097304 68.13762 
L 364.90232 71.247313 
L 353.707335 65.027926 
L 342.512351 66.582773 
L 331.317367 66.582773 
L 320.122382 65.027926 
L 308.927398 71.247313 
L 297.732414 68.13762 
L 286.537429 74.357006 
L 275.342445 74.357006 
L 264.147461 71.247313 
L 252.952476 72.80216 
L 241.757492 74.357006 
L 230.562508 68.13762 
L 219.367524 74.357006 
L 208.172539 71.247313 
L 196.977555 71.247313 
L 185.782571 72.80216 
L 174.587586 72.80216 
L 163.392602 72.80216 
L 152.197618 71.247313 
L 141.002633 72.80216 
L 129.807649 74.357006 
L 118.612665 71.247313 
L 107.41768 74.357006 
L 96.222696 74.357006 
L 85.027712 74.357006 
L 73.832727 74.357006 
z
" clip-path="url(#p5afe9dbc6a)" style="fill: #7f7f7f"/>
   </g>
   <g id="matplotlib.axis_1">
    <g id="xtick_1">
     <g id="line2d_1">
      <defs>
       <path id="m4b0091e5ad" d="M 0 0 
L 0 3.5 
" style="stroke: #000000; stroke-width: 0.8"/>
      </defs>
      <g>
       <use xlink:href="#m4b0091e5ad" x="73.832727" y="307.584" style="stroke: #000000; stroke-width: 0.8"/>
      </g>
     </g>
     <g id="text_1">
      <!-- 0 -->
      <g transform="translate(70.651477 322.182437) scale(0.1 -0.1)">
       <defs>
        <path id="DejaVuSans-30" d="M 2034 4250 
Q 1547 4250 1301 3770 
Q 1056 3291 1056 2328 
Q 1056 1369 1301 889 
Q 1547 409 2034 409 
Q 2525 409 2770 889 
Q 3016 1369 3016 2328 
Q 3016 3291 2770 3770 
Q 2525 4250 2034 4250 
z
M 2034 4750 
Q 2819 4750 3233 4129 
Q 3647 3509 3647 2328 
Q 3647 1150 3233 529 
Q 2819 -91 2034 -91 
Q 1250 -91 836 529 
Q 422 1150 422 2328 
Q 422 3509 836 4129 
Q 1250 4750 2034 4750 
z
" transform="scale(0.015625)"/>
       </defs>
       <use xlink:href="#DejaVuSans-30"/>
      </g>
     </g>
    </g>
    <g id="xtick_2">
     <g id="line2d_2">
      <g>
       <use xlink:href="#m4b0091e5ad" x="129.807649" y="307.584" style="stroke: #000000; stroke-width: 0.8"/>
      </g>
     </g>
     <g id="text_2">
      <!-- 5 -->
      <g transform="translate(126.626399 322.182437) scale(0.1 -0.1)">
       <defs>
        <path id="DejaVuSans-35" d="M 691 4666 
L 3169 4666 
L 3169 4134 
L 1269 4134 
L 1269 2991 
Q 1406 3038 1543 3061 
Q 1681 3084 1819 3084 
Q 2600 3084 3056 2656 
Q 3513 2228 3513 1497 
Q 3513 744 3044 326 
Q 2575 -91 1722 -91 
Q 1428 -91 1123 -41 
Q 819 9 494 109 
L 494 744 
Q 775 591 1075 516 
Q 1375 441 1709 441 
Q 2250 441 2565 725 
Q 2881 1009 2881 1497 
Q 2881 1984 2565 2268 
Q 2250 2553 1709 2553 
Q 1456 2553 1204 2497 
Q 953 2441 691 2322 
L 691 4666 
z
" transform="scale(0.015625)"/>
       </defs>
       <use xlink:href="#DejaVuSans-35"/>
      </g>
     </g>
    </g>
    <g id="xtick_3">
     <g id="line2d_3">
      <g>
       <use xlink:href="#m4b0091e5ad" x="185.782571" y="307.584" style="stroke: #000000; stroke-width: 0.8"/>
      </g>
     </g>
     <g id="text_3">
      <!-- 10 -->
      <g transform="translate(179.420071 322.182437) scale(0.1 -0.1)">
       <defs>
        <path id="DejaVuSans-31" d="M 794 531 
L 1825 531 
L 1825 4091 
L 703 3866 
L 703 4441 
L 1819 4666 
L 2450 4666 
L 2450 531 
L 3481 531 
L 3481 0 
L 794 0 
L 794 531 
z
" transform="scale(0.015625)"/>
       </defs>
       <use xlink:href="#DejaVuSans-31"/>
       <use xlink:href="#DejaVuSans-30" x="63.623047"/>
      </g>
     </g>
    </g>
    <g id="xtick_4">
     <g id="line2d_4">
      <g>
       <use xlink:href="#m4b0091e5ad" x="241.757492" y="307.584" style="stroke: #000000; stroke-width: 0.8"/>
      </g>
     </g>
     <g id="text_4">
      <!-- 15 -->
      <g transform="translate(235.394992 322.182437) scale(0.1 -0.1)">
       <use xlink:href="#DejaVuSans-31"/>
       <use xlink:href="#DejaVuSans-35" x="63.623047"/>
      </g>
     </g>
    </g>
    <g id="xtick_5">
     <g id="line2d_5">
      <g>
       <use xlink:href="#m4b0091e5ad" x="297.732414" y="307.584" style="stroke: #000000; stroke-width: 0.8"/>
      </g>
     </g>
     <g id="text_5">
      <!-- 20 -->
      <g transform="translate(291.369914 322.182437) scale(0.1 -0.1)">
       <defs>
        <path id="DejaVuSans-32" d="M 1228 531 
L 3431 531 
L 3431 0 
L 469 0 
L 469 531 
Q 828 903 1448 1529 
Q 2069 2156 2228 2338 
Q 2531 2678 2651 2914 
Q 2772 3150 2772 3378 
Q 2772 3750 2511 3984 
Q 2250 4219 1831 4219 
Q 1534 4219 1204 4116 
Q 875 4013 500 3803 
L 500 4441 
Q 881 4594 1212 4672 
Q 1544 4750 1819 4750 
Q 2544 4750 2975 4387 
Q 3406 4025 3406 3419 
Q 3406 3131 3298 2873 
Q 3191 2616 2906 2266 
Q 2828 2175 2409 1742 
Q 1991 1309 1228 531 
z
" transform="scale(0.015625)"/>
       </defs>
       <use xlink:href="#DejaVuSans-32"/>
       <use xlink:href="#DejaVuSans-30" x="63.623047"/>
      </g>
     </g>
    </g>
    <g id="xtick_6">
     <g id="line2d_6">
      <g>
       <use xlink:href="#m4b0091e5ad" x="353.707335" y="307.584" style="stroke: #000000; stroke-width: 0.8"/>
      </g>
     </g>
     <g id="text_6">
      <!-- 25 -->
      <g transform="translate(347.344835 322.182437) scale(0.1 -0.1)">
       <use xlink:href="#DejaVuSans-32"/>
       <use xlink:href="#DejaVuSans-35" x="63.623047"/>
      </g>
     </g>
    </g>
    <g id="xtick_7">
     <g id="line2d_7">
      <g>
       <use xlink:href="#m4b0091e5ad" x="409.682257" y="307.584" style="stroke: #000000; stroke-width: 0.8"/>
      </g>
     </g>
     <g id="text_7">
      <!-- 30 -->
      <g transform="translate(403.319757 322.182437) scale(0.1 -0.1)">
       <defs>
        <path id="DejaVuSans-33" d="M 2597 2516 
Q 3050 2419 3304 2112 
Q 3559 1806 3559 1356 
Q 3559 666 3084 287 
Q 2609 -91 1734 -91 
Q 1441 -91 1130 -33 
Q 819 25 488 141 
L 488 750 
Q 750 597 1062 519 
Q 1375 441 1716 441 
Q 2309 441 2620 675 
Q 2931 909 2931 1356 
Q 2931 1769 2642 2001 
Q 2353 2234 1838 2234 
L 1294 2234 
L 1294 2753 
L 1863 2753 
Q 2328 2753 2575 2939 
Q 2822 3125 2822 3475 
Q 2822 3834 2567 4026 
Q 2313 4219 1838 4219 
Q 1578 4219 1281 4162 
Q 984 4106 628 3988 
L 628 4550 
Q 988 4650 1302 4700 
Q 1616 4750 1894 4750 
Q 2613 4750 3031 4423 
Q 3450 4097 3450 3541 
Q 3450 3153 3228 2886 
Q 3006 2619 2597 2516 
z
" transform="scale(0.015625)"/>
       </defs>
       <use xlink:href="#DejaVuSans-33"/>
       <use xlink:href="#DejaVuSans-30" x="63.623047"/>
      </g>
     </g>
    </g>
    <g id="text_8">
     <!-- Generations -->
     <g transform="translate(205.662344 335.860562) scale(0.1 -0.1)">
      <defs>
       <path id="DejaVuSans-47" d="M 3809 666 
L 3809 1919 
L 2778 1919 
L 2778 2438 
L 4434 2438 
L 4434 434 
Q 4069 175 3628 42 
Q 3188 -91 2688 -91 
Q 1594 -91 976 548 
Q 359 1188 359 2328 
Q 359 3472 976 4111 
Q 1594 4750 2688 4750 
Q 3144 4750 3555 4637 
Q 3966 4525 4313 4306 
L 4313 3634 
Q 3963 3931 3569 4081 
Q 3175 4231 2741 4231 
Q 1884 4231 1454 3753 
Q 1025 3275 1025 2328 
Q 1025 1384 1454 906 
Q 1884 428 2741 428 
Q 3075 428 3337 486 
Q 3600 544 3809 666 
z
" transform="scale(0.015625)"/>
       <path id="DejaVuSans-65" d="M 3597 1894 
L 3597 1613 
L 953 1613 
Q 991 1019 1311 708 
Q 1631 397 2203 397 
Q 2534 397 2845 478 
Q 3156 559 3463 722 
L 3463 178 
Q 3153 47 2828 -22 
Q 2503 -91 2169 -91 
Q 1331 -91 842 396 
Q 353 884 353 1716 
Q 353 2575 817 3079 
Q 1281 3584 2069 3584 
Q 2775 3584 3186 3129 
Q 3597 2675 3597 1894 
z
M 3022 2063 
Q 3016 2534 2758 2815 
Q 2500 3097 2075 3097 
Q 1594 3097 1305 2825 
Q 1016 2553 972 2059 
L 3022 2063 
z
" transform="scale(0.015625)"/>
       <path id="DejaVuSans-6e" d="M 3513 2113 
L 3513 0 
L 2938 0 
L 2938 2094 
Q 2938 2591 2744 2837 
Q 2550 3084 2163 3084 
Q 1697 3084 1428 2787 
Q 1159 2491 1159 1978 
L 1159 0 
L 581 0 
L 581 3500 
L 1159 3500 
L 1159 2956 
Q 1366 3272 1645 3428 
Q 1925 3584 2291 3584 
Q 2894 3584 3203 3211 
Q 3513 2838 3513 2113 
z
" transform="scale(0.015625)"/>
       <path id="DejaVuSans-72" d="M 2631 2963 
Q 2534 3019 2420 3045 
Q 2306 3072 2169 3072 
Q 1681 3072 1420 2755 
Q 1159 2438 1159 1844 
L 1159 0 
L 581 0 
L 581 3500 
L 1159 3500 
L 1159 2956 
Q 1341 3275 1631 3429 
Q 1922 3584 2338 3584 
Q 2397 3584 2469 3576 
Q 2541 3569 2628 3553 
L 2631 2963 
z
" transform="scale(0.015625)"/>
       <path id="DejaVuSans-61" d="M 2194 1759 
Q 1497 1759 1228 1600 
Q 959 1441 959 1056 
Q 959 750 1161 570 
Q 1363 391 1709 391 
Q 2188 391 2477 730 
Q 2766 1069 2766 1631 
L 2766 1759 
L 2194 1759 
z
M 3341 1997 
L 3341 0 
L 2766 0 
L 2766 531 
Q 2569 213 2275 61 
Q 1981 -91 1556 -91 
Q 1019 -91 701 211 
Q 384 513 384 1019 
Q 384 1609 779 1909 
Q 1175 2209 1959 2209 
L 2766 2209 
L 2766 2266 
Q 2766 2663 2505 2880 
Q 2244 3097 1772 3097 
Q 1472 3097 1187 3025 
Q 903 2953 641 2809 
L 641 3341 
Q 956 3463 1253 3523 
Q 1550 3584 1831 3584 
Q 2591 3584 2966 3190 
Q 3341 2797 3341 1997 
z
" transform="scale(0.015625)"/>
       <path id="DejaVuSans-74" d="M 1172 4494 
L 1172 3500 
L 2356 3500 
L 2356 3053 
L 1172 3053 
L 1172 1153 
Q 1172 725 1289 603 
Q 1406 481 1766 481 
L 2356 481 
L 2356 0 
L 1766 0 
Q 1100 0 847 248 
Q 594 497 594 1153 
L 594 3053 
L 172 3053 
L 172 3500 
L 594 3500 
L 594 4494 
L 1172 4494 
z
" transform="scale(0.015625)"/>
       <path id="DejaVuSans-69" d="M 603 3500 
L 1178 3500 
L 1178 0 
L 603 0 
L 603 3500 
z
M 603 4863 
L 1178 4863 
L 1178 4134 
L 603 4134 
L 603 4863 
z
" transform="scale(0.015625)"/>
       <path id="DejaVuSans-6f" d="M 1959 3097 
Q 1497 3097 1228 2736 
Q 959 2375 959 1747 
Q 959 1119 1226 758 
Q 1494 397 1959 397 
Q 2419 397 2687 759 
Q 2956 1122 2956 1747 
Q 2956 2369 2687 2733 
Q 2419 3097 1959 3097 
z
M 1959 3584 
Q 2709 3584 3137 3096 
Q 3566 2609 3566 1747 
Q 3566 888 3137 398 
Q 2709 -91 1959 -91 
Q 1206 -91 779 398 
Q 353 888 353 1747 
Q 353 2609 779 3096 
Q 1206 3584 1959 3584 
z
" transform="scale(0.015625)"/>
       <path id="DejaVuSans-73" d="M 2834 3397 
L 2834 2853 
Q 2591 2978 2328 3040 
Q 2066 3103 1784 3103 
Q 1356 3103 1142 2972 
Q 928 2841 928 2578 
Q 928 2378 1081 2264 
Q 1234 2150 1697 2047 
L 1894 2003 
Q 2506 1872 2764 1633 
Q 3022 1394 3022 966 
Q 3022 478 2636 193 
Q 2250 -91 1575 -91 
Q 1294 -91 989 -36 
Q 684 19 347 128 
L 347 722 
Q 666 556 975 473 
Q 1284 391 1588 391 
Q 1994 391 2212 530 
Q 2431 669 2431 922 
Q 2431 1156 2273 1281 
Q 2116 1406 1581 1522 
L 1381 1569 
Q 847 1681 609 1914 
Q 372 2147 372 2553 
Q 372 3047 722 3315 
Q 1072 3584 1716 3584 
Q 2034 3584 2315 3537 
Q 2597 3491 2834 3397 
z
" transform="scale(0.015625)"/>
      </defs>
      <use xlink:href="#DejaVuSans-47"/>
      <use xlink:href="#DejaVuSans-65" x="77.490234"/>
      <use xlink:href="#DejaVuSans-6e" x="139.013672"/>
      <use xlink:href="#DejaVuSans-65" x="202.392578"/>
      <use xlink:href="#DejaVuSans-72" x="263.916016"/>
      <use xlink:href="#DejaVuSans-61" x="305.029297"/>
      <use xlink:href="#DejaVuSans-74" x="366.308594"/>
      <use xlink:href="#DejaVuSans-69" x="405.517578"/>
      <use xlink:href="#DejaVuSans-6f" x="433.300781"/>
      <use xlink:href="#DejaVuSans-6e" x="494.482422"/>
      <use xlink:href="#DejaVuSans-73" x="557.861328"/>
     </g>
    </g>
   </g>
   <g id="matplotlib.axis_2">
    <g id="ytick_1">
     <g id="line2d_8">
      <defs>
       <path id="mbc40813657" d="M 0 0 
L -3.5 0 
" style="stroke: #000000; stroke-width: 0.8"/>
      </defs>
      <g>
       <use xlink:href="#mbc40813657" x="57.6" y="307.584" style="stroke: #000000; stroke-width: 0.8"/>
      </g>
     </g>
     <g id="text_9">
      <!-- 0 -->
      <g transform="translate(44.2375 311.383219) scale(0.1 -0.1)">
       <use xlink:href="#DejaVuSans-30"/>
      </g>
     </g>
    </g>
    <g id="ytick_2">
     <g id="line2d_9">
      <g>
       <use xlink:href="#mbc40813657" x="57.6" y="276.487067" style="stroke: #000000; stroke-width: 0.8"/>
      </g>
     </g>
     <g id="text_10">
      <!-- 20 -->
      <g transform="translate(37.875 280.286286) scale(0.1 -0.1)">
       <use xlink:href="#DejaVuSans-32"/>
       <use xlink:href="#DejaVuSans-30" x="63.623047"/>
      </g>
     </g>
    </g>
    <g id="ytick_3">
     <g id="line2d_10">
      <g>
       <use xlink:href="#mbc40813657" x="57.6" y="245.390135" style="stroke: #000000; stroke-width: 0.8"/>
      </g>
     </g>
     <g id="text_11">
      <!-- 40 -->
      <g transform="translate(37.875 249.189354) scale(0.1 -0.1)">
       <defs>
        <path id="DejaVuSans-34" d="M 2419 4116 
L 825 1625 
L 2419 1625 
L 2419 4116 
z
M 2253 4666 
L 3047 4666 
L 3047 1625 
L 3713 1625 
L 3713 1100 
L 3047 1100 
L 3047 0 
L 2419 0 
L 2419 1100 
L 313 1100 
L 313 1709 
L 2253 4666 
z
" transform="scale(0.015625)"/>
       </defs>
       <use xlink:href="#DejaVuSans-34"/>
       <use xlink:href="#DejaVuSans-30" x="63.623047"/>
      </g>
     </g>
    </g>
    <g id="ytick_4">
     <g id="line2d_11">
      <g>
       <use xlink:href="#mbc40813657" x="57.6" y="214.293202" style="stroke: #000000; stroke-width: 0.8"/>
      </g>
     </g>
     <g id="text_12">
      <!-- 60 -->
      <g transform="translate(37.875 218.092421) scale(0.1 -0.1)">
       <defs>
        <path id="DejaVuSans-36" d="M 2113 2584 
Q 1688 2584 1439 2293 
Q 1191 2003 1191 1497 
Q 1191 994 1439 701 
Q 1688 409 2113 409 
Q 2538 409 2786 701 
Q 3034 994 3034 1497 
Q 3034 2003 2786 2293 
Q 2538 2584 2113 2584 
z
M 3366 4563 
L 3366 3988 
Q 3128 4100 2886 4159 
Q 2644 4219 2406 4219 
Q 1781 4219 1451 3797 
Q 1122 3375 1075 2522 
Q 1259 2794 1537 2939 
Q 1816 3084 2150 3084 
Q 2853 3084 3261 2657 
Q 3669 2231 3669 1497 
Q 3669 778 3244 343 
Q 2819 -91 2113 -91 
Q 1303 -91 875 529 
Q 447 1150 447 2328 
Q 447 3434 972 4092 
Q 1497 4750 2381 4750 
Q 2619 4750 2861 4703 
Q 3103 4656 3366 4563 
z
" transform="scale(0.015625)"/>
       </defs>
       <use xlink:href="#DejaVuSans-36"/>
       <use xlink:href="#DejaVuSans-30" x="63.623047"/>
      </g>
     </g>
    </g>
    <g id="ytick_5">
     <g id="line2d_12">
      <g>
       <use xlink:href="#mbc40813657" x="57.6" y="183.19627" style="stroke: #000000; stroke-width: 0.8"/>
      </g>
     </g>
     <g id="text_13">
      <!-- 80 -->
      <g transform="translate(37.875 186.995489) scale(0.1 -0.1)">
       <defs>
        <path id="DejaVuSans-38" d="M 2034 2216 
Q 1584 2216 1326 1975 
Q 1069 1734 1069 1313 
Q 1069 891 1326 650 
Q 1584 409 2034 409 
Q 2484 409 2743 651 
Q 3003 894 3003 1313 
Q 3003 1734 2745 1975 
Q 2488 2216 2034 2216 
z
M 1403 2484 
Q 997 2584 770 2862 
Q 544 3141 544 3541 
Q 544 4100 942 4425 
Q 1341 4750 2034 4750 
Q 2731 4750 3128 4425 
Q 3525 4100 3525 3541 
Q 3525 3141 3298 2862 
Q 3072 2584 2669 2484 
Q 3125 2378 3379 2068 
Q 3634 1759 3634 1313 
Q 3634 634 3220 271 
Q 2806 -91 2034 -91 
Q 1263 -91 848 271 
Q 434 634 434 1313 
Q 434 1759 690 2068 
Q 947 2378 1403 2484 
z
M 1172 3481 
Q 1172 3119 1398 2916 
Q 1625 2713 2034 2713 
Q 2441 2713 2670 2916 
Q 2900 3119 2900 3481 
Q 2900 3844 2670 4047 
Q 2441 4250 2034 4250 
Q 1625 4250 1398 4047 
Q 1172 3844 1172 3481 
z
" transform="scale(0.015625)"/>
       </defs>
       <use xlink:href="#DejaVuSans-38"/>
       <use xlink:href="#DejaVuSans-30" x="63.623047"/>
      </g>
     </g>
    </g>
    <g id="ytick_6">
     <g id="line2d_13">
      <g>
       <use xlink:href="#mbc40813657" x="57.6" y="152.099337" style="stroke: #000000; stroke-width: 0.8"/>
      </g>
     </g>
     <g id="text_14">
      <!-- 100 -->
      <g transform="translate(31.5125 155.898556) scale(0.1 -0.1)">
       <use xlink:href="#DejaVuSans-31"/>
       <use xlink:href="#DejaVuSans-30" x="63.623047"/>
       <use xlink:href="#DejaVuSans-30" x="127.246094"/>
      </g>
     </g>
    </g>
    <g id="ytick_7">
     <g id="line2d_14">
      <g>
       <use xlink:href="#mbc40813657" x="57.6" y="121.002405" style="stroke: #000000; stroke-width: 0.8"/>
      </g>
     </g>
     <g id="text_15">
      <!-- 120 -->
      <g transform="translate(31.5125 124.801624) scale(0.1 -0.1)">
       <use xlink:href="#DejaVuSans-31"/>
       <use xlink:href="#DejaVuSans-32" x="63.623047"/>
       <use xlink:href="#DejaVuSans-30" x="127.246094"/>
      </g>
     </g>
    </g>
    <g id="ytick_8">
     <g id="line2d_15">
      <g>
       <use xlink:href="#mbc40813657" x="57.6" y="89.905472" style="stroke: #000000; stroke-width: 0.8"/>
      </g>
     </g>
     <g id="text_16">
      <!-- 140 -->
      <g transform="translate(31.5125 93.704691) scale(0.1 -0.1)">
       <use xlink:href="#DejaVuSans-31"/>
       <use xlink:href="#DejaVuSans-34" x="63.623047"/>
       <use xlink:href="#DejaVuSans-30" x="127.246094"/>
      </g>
     </g>
    </g>
    <g id="ytick_9">
     <g id="line2d_16">
      <g>
       <use xlink:href="#mbc40813657" x="57.6" y="58.80854" style="stroke: #000000; stroke-width: 0.8"/>
      </g>
     </g>
     <g id="text_17">
      <!-- 160 -->
      <g transform="translate(31.5125 62.607759) scale(0.1 -0.1)">
       <use xlink:href="#DejaVuSans-31"/>
       <use xlink:href="#DejaVuSans-36" x="63.623047"/>
       <use xlink:href="#DejaVuSans-30" x="127.246094"/>
      </g>
     </g>
    </g>
    <g id="text_18">
     <!-- Size per Species -->
     <g transform="translate(25.432812 215.520969) rotate(-90) scale(0.1 -0.1)">
      <defs>
       <path id="DejaVuSans-53" d="M 3425 4513 
L 3425 3897 
Q 3066 4069 2747 4153 
Q 2428 4238 2131 4238 
Q 1616 4238 1336 4038 
Q 1056 3838 1056 3469 
Q 1056 3159 1242 3001 
Q 1428 2844 1947 2747 
L 2328 2669 
Q 3034 2534 3370 2195 
Q 3706 1856 3706 1288 
Q 3706 609 3251 259 
Q 2797 -91 1919 -91 
Q 1588 -91 1214 -16 
Q 841 59 441 206 
L 441 856 
Q 825 641 1194 531 
Q 1563 422 1919 422 
Q 2459 422 2753 634 
Q 3047 847 3047 1241 
Q 3047 1584 2836 1778 
Q 2625 1972 2144 2069 
L 1759 2144 
Q 1053 2284 737 2584 
Q 422 2884 422 3419 
Q 422 4038 858 4394 
Q 1294 4750 2059 4750 
Q 2388 4750 2728 4690 
Q 3069 4631 3425 4513 
z
" transform="scale(0.015625)"/>
       <path id="DejaVuSans-7a" d="M 353 3500 
L 3084 3500 
L 3084 2975 
L 922 459 
L 3084 459 
L 3084 0 
L 275 0 
L 275 525 
L 2438 3041 
L 353 3041 
L 353 3500 
z
" transform="scale(0.015625)"/>
       <path id="DejaVuSans-20" transform="scale(0.015625)"/>
       <path id="DejaVuSans-70" d="M 1159 525 
L 1159 -1331 
L 581 -1331 
L 581 3500 
L 1159 3500 
L 1159 2969 
Q 1341 3281 1617 3432 
Q 1894 3584 2278 3584 
Q 2916 3584 3314 3078 
Q 3713 2572 3713 1747 
Q 3713 922 3314 415 
Q 2916 -91 2278 -91 
Q 1894 -91 1617 61 
Q 1341 213 1159 525 
z
M 3116 1747 
Q 3116 2381 2855 2742 
Q 2594 3103 2138 3103 
Q 1681 3103 1420 2742 
Q 1159 2381 1159 1747 
Q 1159 1113 1420 752 
Q 1681 391 2138 391 
Q 2594 391 2855 752 
Q 3116 1113 3116 1747 
z
" transform="scale(0.015625)"/>
       <path id="DejaVuSans-63" d="M 3122 3366 
L 3122 2828 
Q 2878 2963 2633 3030 
Q 2388 3097 2138 3097 
Q 1578 3097 1268 2742 
Q 959 2388 959 1747 
Q 959 1106 1268 751 
Q 1578 397 2138 397 
Q 2388 397 2633 464 
Q 2878 531 3122 666 
L 3122 134 
Q 2881 22 2623 -34 
Q 2366 -91 2075 -91 
Q 1284 -91 818 406 
Q 353 903 353 1747 
Q 353 2603 823 3093 
Q 1294 3584 2113 3584 
Q 2378 3584 2631 3529 
Q 2884 3475 3122 3366 
z
" transform="scale(0.015625)"/>
      </defs>
      <use xlink:href="#DejaVuSans-53"/>
      <use xlink:href="#DejaVuSans-69" x="63.476562"/>
      <use xlink:href="#DejaVuSans-7a" x="91.259766"/>
      <use xlink:href="#DejaVuSans-65" x="143.75"/>
      <use xlink:href="#DejaVuSans-20" x="205.273438"/>
      <use xlink:href="#DejaVuSans-70" x="237.060547"/>
      <use xlink:href="#DejaVuSans-65" x="300.537109"/>
      <use xlink:href="#DejaVuSans-72" x="362.060547"/>
      <use xlink:href="#DejaVuSans-20" x="403.173828"/>
      <use xlink:href="#DejaVuSans-53" x="434.960938"/>
      <use xlink:href="#DejaVuSans-70" x="498.4375"/>
      <use xlink:href="#DejaVuSans-65" x="561.914062"/>
      <use xlink:href="#DejaVuSans-63" x="623.4375"/>
      <use xlink:href="#DejaVuSans-69" x="678.417969"/>
      <use xlink:href="#DejaVuSans-65" x="706.201172"/>
      <use xlink:href="#DejaVuSans-73" x="767.724609"/>
     </g>
    </g>
   </g>
   <g id="patch_3">
    <path d="M 57.6 307.584 
L 57.6 41.472 
" style="fill: none; stroke: #000000; stroke-width: 0.8; stroke-linejoin: miter; stroke-linecap: square"/>
   </g>
   <g id="patch_4">
    <path d="M 414.72 307.584 
L 414.72 41.472 
" style="fill: none; stroke: #000000; stroke-width: 0.8; stroke-linejoin: miter; stroke-linecap: square"/>
   </g>
   <g id="patch_5">
    <path d="M 57.6 307.584 
L 414.72 307.584 
" style="fill: none; stroke: #000000; stroke-width: 0.8; stroke-linejoin: miter; stroke-linecap: square"/>
   </g>
   <g id="patch_6">
    <path d="M 57.6 41.472 
L 414.72 41.472 
" style="fill: none; stroke: #000000; stroke-width: 0.8; stroke-linejoin: miter; stroke-linecap: square"/>
   </g>
   <g id="text_19">
    <!-- Speciation -->
    <g transform="translate(204.714375 35.472) scale(0.12 -0.12)">
     <use xlink:href="#DejaVuSans-53"/>
     <use xlink:href="#DejaVuSans-70" x="63.476562"/>
     <use xlink:href="#DejaVuSans-65" x="126.953125"/>
     <use xlink:href="#DejaVuSans-63" x="188.476562"/>
     <use xlink:href="#DejaVuSans-69" x="243.457031"/>
     <use xlink:href="#DejaVuSans-61" x="271.240234"/>
     <use xlink:href="#DejaVuSans-74" x="332.519531"/>
     <use xlink:href="#DejaVuSans-69" x="371.728516"/>
     <use xlink:href="#DejaVuSans-6f" x="399.511719"/>
     <use xlink:href="#DejaVuSans-6e" x="460.693359"/>
    </g>
   </g>
  </g>
 </g>
 <defs>
  <clipPath id="p5afe9dbc6a">
   <rect x="57.6" y="41.472" width="357.12" height="266.112"/>
  </clipPath>
 </defs>
</svg>
