<?xml version="1.0" encoding="UTF-8" standalone="no"?>
<!DOCTYPE svg PUBLIC "-//W3C//DTD SVG 1.1//EN"
 "http://www.w3.org/Graphics/SVG/1.1/DTD/svg11.dtd">
<!-- Generated by graphviz version 2.43.0 (0)
 -->
<!-- Title: %3 Pages: 1 -->
<svg width="482pt" height="177pt"
 viewBox="0.00 0.00 482.23 176.94" xmlns="http://www.w3.org/2000/svg" xmlns:xlink="http://www.w3.org/1999/xlink">
<g id="graph0" class="graph" transform="scale(1 1) rotate(0) translate(4 172.94)">
<title>%3</title>
<polygon fill="white" stroke="transparent" points="-4,4 -4,-172.94 478.23,-172.94 478.23,4 -4,4"/>
<!-- ball_left -->
<g id="node1" class="node">
<title>ball_left</title>
<polygon fill="lightgray" stroke="black" points="100.44,-145.41 47.44,-145.41 47.44,-127.41 100.44,-127.41 100.44,-145.41"/>
<text text-anchor="middle" x="73.94" y="-134.21" font-family="Times,serif" font-size="9.00">ball_left</text>
</g>
<!-- RIGHT -->
<g id="node6" class="node">
<title>RIGHT</title>
<ellipse fill="lightblue" stroke="black" cx="33.94" cy="-33.94" rx="33.88" ry="33.88"/>
<text text-anchor="middle" x="33.94" y="-31.74" font-family="Times,serif" font-size="9.00">RIGHT</text>
</g>
<!-- ball_left&#45;&gt;RIGHT -->
<g id="edge3" class="edge">
<title>ball_left&#45;&gt;RIGHT</title>
<path fill="none" stroke="red" stroke-width="0.21" d="M70.67,-127.19C66.17,-115.88 57.75,-94.75 50.11,-75.56"/>
<polygon fill="red" stroke="red" stroke-width="0.21" points="53.28,-74.06 46.33,-66.06 46.78,-76.65 53.28,-74.06"/>
</g>
<!-- LEFT -->
<g id="node7" class="node">
<title>LEFT</title>
<ellipse fill="lightblue" stroke="black" cx="114.94" cy="-33.94" rx="28.98" ry="28.98"/>
<text text-anchor="middle" x="114.94" y="-31.74" font-family="Times,serif" font-size="9.00">LEFT</text>
</g>
<!-- ball_left&#45;&gt;LEFT -->
<g id="edge1" class="edge">
<title>ball_left&#45;&gt;LEFT</title>
<path fill="none" stroke="red" stroke-width="0.39" d="M77.3,-127.19C82.32,-114.89 92.08,-90.96 100.41,-70.56"/>
<polygon fill="red" stroke="red" stroke-width="0.39" points="103.69,-71.77 104.23,-61.19 97.21,-69.13 103.69,-71.77"/>
</g>
<!-- ball_right -->
<g id="node2" class="node">
<title>ball_right</title>
<polygon fill="lightgray" stroke="black" points="219.94,-145.41 157.94,-145.41 157.94,-127.41 219.94,-127.41 219.94,-145.41"/>
<text text-anchor="middle" x="188.94" y="-134.21" font-family="Times,serif" font-size="9.00">ball_right</text>
</g>
<!-- 680 -->
<g id="node8" class="node">
<title>680</title>
<ellipse fill="white" stroke="black" cx="188.94" cy="-33.94" rx="25" ry="25"/>
<text text-anchor="middle" x="188.94" y="-31.74" font-family="Times,serif" font-size="9.00">680</text>
</g>
<!-- ball_right&#45;&gt;680 -->
<g id="edge2" class="edge">
<title>ball_right&#45;&gt;680</title>
<path fill="none" stroke="green" stroke-width="0.45" d="M188.94,-127.19C188.94,-114.6 188.94,-89.83 188.94,-69.12"/>
<polygon fill="green" stroke="green" stroke-width="0.45" points="192.44,-69.06 188.94,-59.06 185.44,-69.06 192.44,-69.06"/>
</g>
<!-- ball_out_field -->
<g id="node3" class="node">
<title>ball_out_field</title>
<polygon fill="lightgray" stroke="black" points="315.94,-145.41 237.94,-145.41 237.94,-127.41 315.94,-127.41 315.94,-145.41"/>
<text text-anchor="middle" x="276.94" y="-134.21" font-family="Times,serif" font-size="9.00">ball_out_field</text>
</g>
<!-- NOOP -->
<g id="node4" class="node">
<title>NOOP</title>
<ellipse fill="lightblue" stroke="black" cx="366.94" cy="-136.41" rx="32.55" ry="32.55"/>
<text text-anchor="middle" x="366.94" y="-134.21" font-family="Times,serif" font-size="9.00">NOOP</text>
</g>
<!-- FIRE -->
<g id="node5" class="node">
<title>FIRE</title>
<ellipse fill="lightblue" stroke="black" cx="445.94" cy="-136.41" rx="28.07" ry="28.07"/>
<text text-anchor="middle" x="445.94" y="-134.21" font-family="Times,serif" font-size="9.00">FIRE</text>
</g>
</g>
</svg>
