<?xml version="1.0" encoding="UTF-8" standalone="no"?>
<!DOCTYPE svg PUBLIC "-//W3C//DTD SVG 1.1//EN"
 "http://www.w3.org/Graphics/SVG/1.1/DTD/svg11.dtd">
<!-- Generated by graphviz version 2.43.0 (0)
 -->
<!-- Title: %3 Pages: 1 -->
<svg width="322pt" height="156pt"
 viewBox="0.00 0.00 321.91 155.72" xmlns="http://www.w3.org/2000/svg" xmlns:xlink="http://www.w3.org/1999/xlink">
<g id="graph0" class="graph" transform="scale(1 1) rotate(0) translate(4 151.72)">
<title>%3</title>
<polygon fill="white" stroke="transparent" points="-4,4 -4,-151.72 317.91,-151.72 317.91,4 -4,4"/>
<!-- &#45;1 -->
<g id="node1" class="node">
<title>&#45;1</title>
<polygon fill="lightgray" stroke="black" points="86.28,-129.15 60.28,-129.15 60.28,-111.15 86.28,-111.15 86.28,-129.15"/>
<text text-anchor="middle" x="73.28" y="-117.95" font-family="Times,serif" font-size="9.00">&#45;1</text>
</g>
<!-- right -->
<g id="node7" class="node">
<title>right</title>
<ellipse fill="lightblue" stroke="black" cx="28.28" cy="-28.28" rx="28.07" ry="28.07"/>
<text text-anchor="middle" x="28.28" y="-26.08" font-family="Times,serif" font-size="9.00">right</text>
</g>
<!-- &#45;1&#45;&gt;right -->
<g id="edge1" class="edge">
<title>&#45;1&#45;&gt;right</title>
<path fill="none" stroke="red" stroke-width="0.65" d="M69.13,-110.85C63.73,-100.07 53.98,-80.59 45.35,-63.37"/>
<polygon fill="red" stroke="red" stroke-width="0.65" points="48.32,-61.48 40.71,-54.11 42.06,-64.62 48.32,-61.48"/>
</g>
<!-- 134 -->
<g id="node9" class="node">
<title>134</title>
<ellipse fill="white" stroke="black" cx="99.28" cy="-28.28" rx="25" ry="25"/>
<text text-anchor="middle" x="99.28" y="-26.08" font-family="Times,serif" font-size="9.00">134</text>
</g>
<!-- &#45;1&#45;&gt;134 -->
<g id="edge5" class="edge">
<title>&#45;1&#45;&gt;134</title>
<path fill="none" stroke="green" stroke-width="0.38" d="M75.68,-110.85C78.88,-99.81 84.72,-79.64 89.79,-62.11"/>
<polygon fill="green" stroke="green" stroke-width="0.38" points="93.24,-62.77 92.66,-52.19 86.51,-60.83 93.24,-62.77"/>
</g>
<!-- &#45;2 -->
<g id="node2" class="node">
<title>&#45;2</title>
<polygon fill="lightgray" stroke="black" points="177.28,-129.15 151.28,-129.15 151.28,-111.15 177.28,-111.15 177.28,-129.15"/>
<text text-anchor="middle" x="164.28" y="-117.95" font-family="Times,serif" font-size="9.00">&#45;2</text>
</g>
<!-- left -->
<g id="node8" class="node">
<title>left</title>
<ellipse fill="lightblue" stroke="black" cx="164.28" cy="-28.28" rx="22.76" ry="22.76"/>
<text text-anchor="middle" x="164.28" y="-26.08" font-family="Times,serif" font-size="9.00">left</text>
</g>
<!-- &#45;2&#45;&gt;left -->
<g id="edge4" class="edge">
<title>&#45;2&#45;&gt;left</title>
<path fill="none" stroke="green" stroke-width="0.49" d="M164.28,-110.85C164.28,-99.59 164.28,-78.84 164.28,-61.08"/>
<polygon fill="green" stroke="green" stroke-width="0.49" points="167.78,-61.07 164.28,-51.07 160.78,-61.07 167.78,-61.07"/>
</g>
<!-- &#45;3 -->
<g id="node3" class="node">
<title>&#45;3</title>
<polygon fill="lightgray" stroke="black" points="41.28,-129.15 15.28,-129.15 15.28,-111.15 41.28,-111.15 41.28,-129.15"/>
<text text-anchor="middle" x="28.28" y="-117.95" font-family="Times,serif" font-size="9.00">&#45;3</text>
</g>
<!-- &#45;3&#45;&gt;right -->
<g id="edge2" class="edge">
<title>&#45;3&#45;&gt;right</title>
<path fill="none" stroke="green" stroke-width="1.15" d="M28.28,-110.85C28.28,-100.87 28.28,-83.43 28.28,-67.23"/>
<polygon fill="green" stroke="green" stroke-width="1.15" points="31.78,-66.86 28.28,-56.86 24.78,-66.86 31.78,-66.86"/>
</g>
<!-- &#45;4 -->
<g id="node4" class="node">
<title>&#45;4</title>
<polygon fill="lightgray" stroke="black" points="132.28,-129.15 106.28,-129.15 106.28,-111.15 132.28,-111.15 132.28,-129.15"/>
<text text-anchor="middle" x="119.28" y="-117.95" font-family="Times,serif" font-size="9.00">&#45;4</text>
</g>
<!-- &#45;4&#45;&gt;left -->
<g id="edge3" class="edge">
<title>&#45;4&#45;&gt;left</title>
<path fill="none" stroke="green" stroke-width="0.72" stroke-dasharray="1,5" d="M123.44,-110.85C129.4,-98.94 140.69,-76.39 149.9,-58.02"/>
<polygon fill="green" stroke="green" stroke-width="0.72" points="153.13,-59.37 154.48,-48.87 146.87,-56.24 153.13,-59.37"/>
</g>
<!-- &#45;4&#45;&gt;134 -->
<g id="edge6" class="edge">
<title>&#45;4&#45;&gt;134</title>
<path fill="none" stroke="red" stroke-width="0.26" d="M117.44,-110.85C115,-99.88 110.55,-79.9 106.67,-62.46"/>
<polygon fill="red" stroke="red" stroke-width="0.26" points="110.06,-61.57 104.47,-52.57 103.22,-63.09 110.06,-61.57"/>
</g>
<!-- noop -->
<g id="node5" class="node">
<title>noop</title>
<ellipse fill="lightblue" stroke="black" cx="223.28" cy="-120.15" rx="27.65" ry="27.65"/>
<text text-anchor="middle" x="223.28" y="-117.95" font-family="Times,serif" font-size="9.00">noop</text>
</g>
<!-- fire -->
<g id="node6" class="node">
<title>fire</title>
<ellipse fill="lightblue" stroke="black" cx="291.28" cy="-120.15" rx="22.76" ry="22.76"/>
<text text-anchor="middle" x="291.28" y="-117.95" font-family="Times,serif" font-size="9.00">fire</text>
</g>
</g>
</svg>
