<?xml version="1.0" encoding="UTF-8" standalone="no"?>
<!DOCTYPE svg PUBLIC "-//W3C//DTD SVG 1.1//EN"
 "http://www.w3.org/Graphics/SVG/1.1/DTD/svg11.dtd">
<!-- Generated by graphviz version 2.43.0 (0)
 -->
<!-- Title: %3 Pages: 1 -->
<svg width="445pt" height="271pt"
 viewBox="0.00 0.00 445.28 270.92" xmlns="http://www.w3.org/2000/svg" xmlns:xlink="http://www.w3.org/1999/xlink">
<g id="graph0" class="graph" transform="scale(1 1) rotate(0) translate(4 266.92)">
<title>%3</title>
<polygon fill="white" stroke="transparent" points="-4,4 -4,-266.92 441.28,-266.92 441.28,4 -4,4"/>
<!-- player_x -->
<g id="node1" class="node">
<title>player_x</title>
<polygon fill="lightgray" stroke="black" points="56,-239.39 0,-239.39 0,-221.39 56,-221.39 56,-239.39"/>
<text text-anchor="middle" x="28" y="-228.19" font-family="Times,serif" font-size="9.00">player_x</text>
</g>
<!-- player_y -->
<g id="node2" class="node">
<title>player_y</title>
<polygon fill="lightgray" stroke="black" points="130,-239.39 74,-239.39 74,-221.39 130,-221.39 130,-239.39"/>
<text text-anchor="middle" x="102" y="-228.19" font-family="Times,serif" font-size="9.00">player_y</text>
</g>
<!-- ball_x -->
<g id="node3" class="node">
<title>ball_x</title>
<polygon fill="lightgray" stroke="black" points="192,-239.39 148,-239.39 148,-221.39 192,-221.39 192,-239.39"/>
<text text-anchor="middle" x="170" y="-228.19" font-family="Times,serif" font-size="9.00">ball_x</text>
</g>
<!-- LEFT -->
<g id="node8" class="node">
<title>LEFT</title>
<ellipse fill="lightblue" stroke="black" cx="170" cy="-132.87" rx="28.98" ry="28.98"/>
<text text-anchor="middle" x="170" y="-130.67" font-family="Times,serif" font-size="9.00">LEFT</text>
</g>
<!-- ball_x&#45;&gt;LEFT -->
<g id="edge4" class="edge">
<title>ball_x&#45;&gt;LEFT</title>
<path fill="none" stroke="green" stroke-width="0.12" d="M170,-221.25C170,-210.34 170,-190.23 170,-172.06"/>
<polygon fill="green" stroke="green" stroke-width="0.12" points="173.5,-171.95 170,-161.95 166.5,-171.95 173.5,-171.95"/>
</g>
<!-- ball_y -->
<g id="node4" class="node">
<title>ball_y</title>
<polygon fill="lightgray" stroke="black" points="279,-239.39 235,-239.39 235,-221.39 279,-221.39 279,-239.39"/>
<text text-anchor="middle" x="257" y="-228.19" font-family="Times,serif" font-size="9.00">ball_y</text>
</g>
<!-- RIGHT -->
<g id="node7" class="node">
<title>RIGHT</title>
<ellipse fill="lightblue" stroke="black" cx="255" cy="-33.94" rx="33.88" ry="33.88"/>
<text text-anchor="middle" x="255" y="-31.74" font-family="Times,serif" font-size="9.00">RIGHT</text>
</g>
<!-- ball_y&#45;&gt;RIGHT -->
<g id="edge1" class="edge">
<title>ball_y&#45;&gt;RIGHT</title>
<path fill="none" stroke="red" stroke-width="0.45" stroke-dasharray="1,5" d="M255.54,-221.11C253.37,-208.41 249.43,-183.34 248,-161.87 246.29,-136.15 246.7,-129.62 248,-103.88 248.42,-95.51 249.14,-86.59 249.95,-78.04"/>
<polygon fill="red" stroke="red" stroke-width="0.45" points="253.45,-78.15 250.97,-67.85 246.49,-77.45 253.45,-78.15"/>
</g>
<!-- 117 -->
<g id="node9" class="node">
<title>117</title>
<ellipse fill="white" stroke="black" cx="282" cy="-132.87" rx="25" ry="25"/>
<text text-anchor="middle" x="282" y="-130.67" font-family="Times,serif" font-size="9.00">117</text>
</g>
<!-- ball_y&#45;&gt;117 -->
<g id="edge2" class="edge">
<title>ball_y&#45;&gt;117</title>
<path fill="none" stroke="green" stroke-width="0.3" d="M259.13,-221.25C262.27,-209.26 268.31,-186.19 273.39,-166.76"/>
<polygon fill="green" stroke="green" stroke-width="0.3" points="276.8,-167.57 275.94,-157.01 270.03,-165.8 276.8,-167.57"/>
</g>
<!-- NOOP -->
<g id="node5" class="node">
<title>NOOP</title>
<ellipse fill="lightblue" stroke="black" cx="330" cy="-230.39" rx="32.55" ry="32.55"/>
<text text-anchor="middle" x="330" y="-228.19" font-family="Times,serif" font-size="9.00">NOOP</text>
</g>
<!-- FIRE -->
<g id="node6" class="node">
<title>FIRE</title>
<ellipse fill="lightblue" stroke="black" cx="409" cy="-230.39" rx="28.07" ry="28.07"/>
<text text-anchor="middle" x="409" y="-228.19" font-family="Times,serif" font-size="9.00">FIRE</text>
</g>
<!-- 117&#45;&gt;RIGHT -->
<g id="edge3" class="edge">
<title>117&#45;&gt;RIGHT</title>
<path fill="none" stroke="green" stroke-width="0.11" d="M275.6,-108.9C272.93,-99.3 269.73,-87.83 266.67,-76.83"/>
<polygon fill="green" stroke="green" stroke-width="0.11" points="269.96,-75.61 263.91,-66.92 263.22,-77.49 269.96,-75.61"/>
</g>
</g>
</svg>
