<?xml version="1.0" encoding="UTF-8" standalone="no"?>
<!DOCTYPE svg PUBLIC "-//W3C//DTD SVG 1.1//EN"
 "http://www.w3.org/Graphics/SVG/1.1/DTD/svg11.dtd">
<!-- Generated by graphviz version 2.43.0 (0)
 -->
<!-- Title: %3 Pages: 1 -->
<svg width="522pt" height="271pt"
 viewBox="0.00 0.00 522.23 270.92" xmlns="http://www.w3.org/2000/svg" xmlns:xlink="http://www.w3.org/1999/xlink">
<g id="graph0" class="graph" transform="scale(1 1) rotate(0) translate(4 266.92)">
<title>%3</title>
<polygon fill="white" stroke="transparent" points="-4,4 -4,-266.92 518.23,-266.92 518.23,4 -4,4"/>
<!-- ball_left -->
<g id="node1" class="node">
<title>ball_left</title>
<polygon fill="lightgray" stroke="black" points="60.44,-239.39 7.44,-239.39 7.44,-221.39 60.44,-221.39 60.44,-239.39"/>
<text text-anchor="middle" x="33.94" y="-228.19" font-family="Times,serif" font-size="9.00">ball_left</text>
</g>
<!-- RIGHT -->
<g id="node6" class="node">
<title>RIGHT</title>
<ellipse fill="lightblue" stroke="black" cx="33.94" cy="-127.92" rx="33.88" ry="33.88"/>
<text text-anchor="middle" x="33.94" y="-125.72" font-family="Times,serif" font-size="9.00">RIGHT</text>
</g>
<!-- ball_left&#45;&gt;RIGHT -->
<g id="edge1" class="edge">
<title>ball_left&#45;&gt;RIGHT</title>
<path fill="none" stroke="green" stroke-width="1.16" d="M33.94,-221.17C33.94,-210.34 33.94,-190.48 33.94,-171.95"/>
<polygon fill="green" stroke="green" stroke-width="1.16" points="37.44,-171.87 33.94,-161.87 30.44,-171.87 37.44,-171.87"/>
</g>
<!-- ball_right -->
<g id="node2" class="node">
<title>ball_right</title>
<polygon fill="lightgray" stroke="black" points="259.94,-239.39 197.94,-239.39 197.94,-221.39 259.94,-221.39 259.94,-239.39"/>
<text text-anchor="middle" x="228.94" y="-228.19" font-family="Times,serif" font-size="9.00">ball_right</text>
</g>
<!-- LEFT -->
<g id="node7" class="node">
<title>LEFT</title>
<ellipse fill="lightblue" stroke="black" cx="152.94" cy="-28.99" rx="28.98" ry="28.98"/>
<text text-anchor="middle" x="152.94" y="-26.79" font-family="Times,serif" font-size="9.00">LEFT</text>
</g>
<!-- ball_right&#45;&gt;LEFT -->
<g id="edge2" class="edge">
<title>ball_right&#45;&gt;LEFT</title>
<path fill="none" stroke="green" stroke-width="1.22" stroke-dasharray="1,5" d="M200.04,-221.34C172.64,-211.99 133.05,-193.64 114.94,-161.87 96.84,-130.11 114.08,-89.06 130.8,-61.26"/>
<polygon fill="green" stroke="green" stroke-width="1.22" points="133.81,-63.05 136.17,-52.73 127.88,-59.33 133.81,-63.05"/>
</g>
<!-- 1479 -->
<g id="node8" class="node">
<title>1479</title>
<ellipse fill="white" stroke="black" cx="313.94" cy="-28.99" rx="28.98" ry="28.98"/>
<text text-anchor="middle" x="313.94" y="-26.79" font-family="Times,serif" font-size="9.00">1479</text>
</g>
<!-- ball_right&#45;&gt;1479 -->
<g id="edge3" class="edge">
<title>ball_right&#45;&gt;1479</title>
<path fill="none" stroke="red" stroke-width="0.11" stroke-dasharray="1,5" d="M234.09,-221.31C241.87,-208.88 256.79,-184.15 266.94,-161.87 281.19,-130.58 294.04,-93.61 302.69,-66.79"/>
<polygon fill="red" stroke="red" stroke-width="0.11" points="306.09,-67.63 305.79,-57.04 299.42,-65.51 306.09,-67.63"/>
</g>
<!-- 4293 -->
<g id="node9" class="node">
<title>4293</title>
<ellipse fill="white" stroke="black" cx="342.94" cy="-127.92" rx="28.98" ry="28.98"/>
<text text-anchor="middle" x="342.94" y="-125.72" font-family="Times,serif" font-size="9.00">4293</text>
</g>
<!-- ball_right&#45;&gt;4293 -->
<g id="edge4" class="edge">
<title>ball_right&#45;&gt;4293</title>
<path fill="none" stroke="green" stroke-width="0.13" d="M238.27,-221.17C254.58,-206.79 288.93,-176.52 313.84,-154.57"/>
<polygon fill="green" stroke="green" stroke-width="0.13" points="316.37,-157 321.56,-147.77 311.74,-151.75 316.37,-157"/>
</g>
<!-- 4639 -->
<g id="node10" class="node">
<title>4639</title>
<ellipse fill="white" stroke="black" cx="152.94" cy="-127.92" rx="28.98" ry="28.98"/>
<text text-anchor="middle" x="152.94" y="-125.72" font-family="Times,serif" font-size="9.00">4639</text>
</g>
<!-- ball_right&#45;&gt;4639 -->
<g id="edge6" class="edge">
<title>ball_right&#45;&gt;4639</title>
<path fill="none" stroke="green" stroke-width="0.35" d="M222.72,-221.17C212.71,-207.93 192.5,-181.22 176.4,-159.93"/>
<polygon fill="green" stroke="green" stroke-width="0.35" points="179.06,-157.65 170.23,-151.78 173.48,-161.87 179.06,-157.65"/>
</g>
<!-- 4826 -->
<g id="node11" class="node">
<title>4826</title>
<ellipse fill="white" stroke="black" cx="228.94" cy="-127.92" rx="28.98" ry="28.98"/>
<text text-anchor="middle" x="228.94" y="-125.72" font-family="Times,serif" font-size="9.00">4826</text>
</g>
<!-- ball_right&#45;&gt;4826 -->
<g id="edge8" class="edge">
<title>ball_right&#45;&gt;4826</title>
<path fill="none" stroke="green" stroke-width="0.31" d="M228.94,-221.17C228.94,-209.36 228.94,-186.82 228.94,-166.98"/>
<polygon fill="green" stroke="green" stroke-width="0.31" points="232.44,-166.92 228.94,-156.92 225.44,-166.92 232.44,-166.92"/>
</g>
<!-- ball_out_field -->
<g id="node3" class="node">
<title>ball_out_field</title>
<polygon fill="lightgray" stroke="black" points="355.94,-239.39 277.94,-239.39 277.94,-221.39 355.94,-221.39 355.94,-239.39"/>
<text text-anchor="middle" x="316.94" y="-228.19" font-family="Times,serif" font-size="9.00">ball_out_field</text>
</g>
<!-- NOOP -->
<g id="node4" class="node">
<title>NOOP</title>
<ellipse fill="lightblue" stroke="black" cx="406.94" cy="-230.39" rx="32.55" ry="32.55"/>
<text text-anchor="middle" x="406.94" y="-228.19" font-family="Times,serif" font-size="9.00">NOOP</text>
</g>
<!-- FIRE -->
<g id="node5" class="node">
<title>FIRE</title>
<ellipse fill="lightblue" stroke="black" cx="485.94" cy="-230.39" rx="28.07" ry="28.07"/>
<text text-anchor="middle" x="485.94" y="-228.19" font-family="Times,serif" font-size="9.00">FIRE</text>
</g>
<!-- 4293&#45;&gt;1479 -->
<g id="edge5" class="edge">
<title>4293&#45;&gt;1479</title>
<path fill="none" stroke="red" stroke-width="0.18" stroke-dasharray="1,5" d="M334.86,-99.92C331.78,-89.63 328.22,-77.72 324.92,-66.67"/>
<polygon fill="red" stroke="red" stroke-width="0.18" points="328.2,-65.42 321.98,-56.85 321.49,-67.43 328.2,-65.42"/>
</g>
<!-- 4639&#45;&gt;LEFT -->
<g id="edge7" class="edge">
<title>4639&#45;&gt;LEFT</title>
<path fill="none" stroke="green" stroke-width="1.07" d="M152.94,-98.89C152.94,-89.43 152.94,-78.69 152.94,-68.56"/>
<polygon fill="green" stroke="green" stroke-width="1.07" points="156.44,-68.3 152.94,-58.3 149.44,-68.3 156.44,-68.3"/>
</g>
<!-- 4826&#45;&gt;LEFT -->
<g id="edge9" class="edge">
<title>4826&#45;&gt;LEFT</title>
<path fill="none" stroke="green" stroke-width="1.29" d="M211.31,-104.44C201.05,-91.35 187.97,-74.67 176.8,-60.42"/>
<polygon fill="green" stroke="green" stroke-width="1.29" points="179.4,-58.06 170.47,-52.35 173.89,-62.38 179.4,-58.06"/>
</g>
</g>
</svg>
