<?xml version="1.0" encoding="UTF-8" standalone="no"?>
<!DOCTYPE svg PUBLIC "-//W3C//DTD SVG 1.1//EN"
 "http://www.w3.org/Graphics/SVG/1.1/DTD/svg11.dtd">
<!-- Generated by graphviz version 2.43.0 (0)
 -->
<!-- Title: %3 Pages: 1 -->
<svg width="459pt" height="363pt"
 viewBox="0.00 0.00 458.52 363.49" xmlns="http://www.w3.org/2000/svg" xmlns:xlink="http://www.w3.org/1999/xlink">
<g id="graph0" class="graph" transform="scale(1 1) rotate(0) translate(4 359.49)">
<title>%3</title>
<polygon fill="white" stroke="transparent" points="-4,4 -4,-359.49 454.52,-359.49 454.52,4 -4,4"/>
<!-- ball_left -->
<g id="node1" class="node">
<title>ball_left</title>
<polygon fill="lightgray" stroke="black" points="91.49,-331.96 38.49,-331.96 38.49,-313.96 91.49,-313.96 91.49,-331.96"/>
<text text-anchor="middle" x="64.99" y="-320.76" font-family="Times,serif" font-size="9.00">ball_left</text>
</g>
<!-- LEFT -->
<g id="node7" class="node">
<title>LEFT</title>
<ellipse fill="lightblue" stroke="black" cx="28.99" cy="-220.49" rx="28.98" ry="28.98"/>
<text text-anchor="middle" x="28.99" y="-218.29" font-family="Times,serif" font-size="9.00">LEFT</text>
</g>
<!-- ball_left&#45;&gt;LEFT -->
<g id="edge1" class="edge">
<title>ball_left&#45;&gt;LEFT</title>
<path fill="none" stroke="green" stroke-width="0.99" d="M62.05,-313.74C57.69,-301.58 49.25,-278.04 42,-257.79"/>
<polygon fill="green" stroke="green" stroke-width="0.99" points="45.22,-256.41 38.55,-248.17 38.63,-258.77 45.22,-256.41"/>
</g>
<!-- 931 -->
<g id="node8" class="node">
<title>931</title>
<ellipse fill="white" stroke="black" cx="100.99" cy="-220.49" rx="25" ry="25"/>
<text text-anchor="middle" x="100.99" y="-218.29" font-family="Times,serif" font-size="9.00">931</text>
</g>
<!-- ball_left&#45;&gt;931 -->
<g id="edge3" class="edge">
<title>ball_left&#45;&gt;931</title>
<path fill="none" stroke="red" stroke-width="0.27" d="M67.94,-313.74C72.61,-300.71 81.95,-274.64 89.51,-253.53"/>
<polygon fill="red" stroke="red" stroke-width="0.27" points="92.87,-254.53 92.95,-243.94 86.28,-252.17 92.87,-254.53"/>
</g>
<!-- ball_right -->
<g id="node2" class="node">
<title>ball_right</title>
<polygon fill="lightgray" stroke="black" points="270.99,-331.96 208.99,-331.96 208.99,-313.96 270.99,-313.96 270.99,-331.96"/>
<text text-anchor="middle" x="239.99" y="-320.76" font-family="Times,serif" font-size="9.00">ball_right</text>
</g>
<!-- RIGHT -->
<g id="node6" class="node">
<title>RIGHT</title>
<ellipse fill="lightblue" stroke="black" cx="177.99" cy="-220.49" rx="33.88" ry="33.88"/>
<text text-anchor="middle" x="177.99" y="-218.29" font-family="Times,serif" font-size="9.00">RIGHT</text>
</g>
<!-- ball_right&#45;&gt;RIGHT -->
<g id="edge2" class="edge">
<title>ball_right&#45;&gt;RIGHT</title>
<path fill="none" stroke="green" stroke-width="1.2" d="M234.92,-313.74C227.51,-301.74 213.27,-278.66 200.89,-258.59"/>
<polygon fill="green" stroke="green" stroke-width="1.2" points="203.77,-256.6 195.54,-249.93 197.81,-260.28 203.77,-256.6"/>
</g>
<!-- 1861 -->
<g id="node9" class="node">
<title>1861</title>
<ellipse fill="white" stroke="black" cx="267.99" cy="-121.56" rx="28.98" ry="28.98"/>
<text text-anchor="middle" x="267.99" y="-119.36" font-family="Times,serif" font-size="9.00">1861</text>
</g>
<!-- ball_right&#45;&gt;1861 -->
<g id="edge9" class="edge">
<title>ball_right&#45;&gt;1861</title>
<path fill="none" stroke="red" stroke-width="0.58" d="M241.15,-313.72C244.11,-292.58 252.22,-234.74 258.99,-186.55 260.17,-178.18 261.43,-169.19 262.63,-160.67"/>
<polygon fill="red" stroke="red" stroke-width="0.58" points="266.12,-160.98 264.05,-150.59 259.19,-160.01 266.12,-160.98"/>
</g>
<!-- 2649 -->
<g id="node10" class="node">
<title>2649</title>
<ellipse fill="white" stroke="black" cx="296.99" cy="-220.49" rx="28.98" ry="28.98"/>
<text text-anchor="middle" x="296.99" y="-218.29" font-family="Times,serif" font-size="9.00">2649</text>
</g>
<!-- ball_right&#45;&gt;2649 -->
<g id="edge6" class="edge">
<title>ball_right&#45;&gt;2649</title>
<path fill="none" stroke="red" stroke-width="0.25" d="M244.66,-313.74C251.88,-301 266.18,-275.79 278.01,-254.94"/>
<polygon fill="red" stroke="red" stroke-width="0.25" points="281.18,-256.45 283.07,-246.03 275.09,-253 281.18,-256.45"/>
</g>
<!-- ball_out_field -->
<g id="node3" class="node">
<title>ball_out_field</title>
<polygon fill="lightgray" stroke="black" points="366.99,-331.96 288.99,-331.96 288.99,-313.96 366.99,-313.96 366.99,-331.96"/>
<text text-anchor="middle" x="327.99" y="-320.76" font-family="Times,serif" font-size="9.00">ball_out_field</text>
</g>
<!-- NOOP -->
<g id="node4" class="node">
<title>NOOP</title>
<ellipse fill="lightblue" stroke="black" cx="417.99" cy="-322.96" rx="32.55" ry="32.55"/>
<text text-anchor="middle" x="417.99" y="-320.76" font-family="Times,serif" font-size="9.00">NOOP</text>
</g>
<!-- FIRE -->
<g id="node5" class="node">
<title>FIRE</title>
<ellipse fill="lightblue" stroke="black" cx="100.99" cy="-28.28" rx="28.07" ry="28.07"/>
<text text-anchor="middle" x="100.99" y="-26.08" font-family="Times,serif" font-size="9.00">FIRE</text>
</g>
<!-- 3321 -->
<g id="node11" class="node">
<title>3321</title>
<ellipse fill="white" stroke="black" cx="100.99" cy="-121.56" rx="28.98" ry="28.98"/>
<text text-anchor="middle" x="100.99" y="-119.36" font-family="Times,serif" font-size="9.00">3321</text>
</g>
<!-- 931&#45;&gt;3321 -->
<g id="edge7" class="edge">
<title>931&#45;&gt;3321</title>
<path fill="none" stroke="red" stroke-width="0.26" d="M100.99,-195.53C100.99,-185.04 100.99,-172.46 100.99,-160.73"/>
<polygon fill="red" stroke="red" stroke-width="0.26" points="104.49,-160.72 100.99,-150.72 97.49,-160.72 104.49,-160.72"/>
</g>
<!-- 1861&#45;&gt;1861 -->
<g id="edge4" class="edge">
<title>1861&#45;&gt;1861</title>
<path fill="none" stroke="red" stroke-width="0.41" d="M292.17,-138.3C304.23,-140.62 314.98,-135.04 314.98,-121.56 314.98,-112.08 309.67,-106.51 302.32,-104.84"/>
<polygon fill="red" stroke="red" stroke-width="0.41" points="302.18,-101.34 292.17,-104.82 302.16,-108.34 302.18,-101.34"/>
</g>
<!-- 2649&#45;&gt;1861 -->
<g id="edge5" class="edge">
<title>2649&#45;&gt;1861</title>
<path fill="none" stroke="red" stroke-width="0.22" d="M288.91,-192.49C285.83,-182.2 282.27,-170.29 278.97,-159.24"/>
<polygon fill="red" stroke="red" stroke-width="0.22" points="282.25,-157.99 276.03,-149.42 275.54,-160 282.25,-157.99"/>
</g>
<!-- 3321&#45;&gt;FIRE -->
<g id="edge8" class="edge">
<title>3321&#45;&gt;FIRE</title>
<path fill="none" stroke="green" stroke-width="0.16" d="M100.99,-92.18C100.99,-84.14 100.99,-75.27 100.99,-66.78"/>
<polygon fill="green" stroke="green" stroke-width="0.16" points="104.49,-66.71 100.99,-56.71 97.49,-66.71 104.49,-66.71"/>
</g>
</g>
</svg>
