<?xml version="1.0" encoding="UTF-8" standalone="no"?>
<!DOCTYPE svg PUBLIC "-//W3C//DTD SVG 1.1//EN"
 "http://www.w3.org/Graphics/SVG/1.1/DTD/svg11.dtd">
<!-- Generated by graphviz version 2.43.0 (0)
 -->
<!-- Title: %3 Pages: 1 -->
<svg width="403pt" height="177pt"
 viewBox="0.00 0.00 402.81 176.94" xmlns="http://www.w3.org/2000/svg" xmlns:xlink="http://www.w3.org/1999/xlink">
<g id="graph0" class="graph" transform="scale(1 1) rotate(0) translate(4 172.94)">
<title>%3</title>
<polygon fill="white" stroke="transparent" points="-4,4 -4,-172.94 398.81,-172.94 398.81,4 -4,4"/>
<!-- ball_left -->
<g id="node1" class="node">
<title>ball_left</title>
<polygon fill="lightgray" stroke="black" points="92.78,-145.41 39.78,-145.41 39.78,-127.41 92.78,-127.41 92.78,-145.41"/>
<text text-anchor="middle" x="66.28" y="-134.21" font-family="Times,serif" font-size="9.00">ball_left</text>
</g>
<!-- FIRE -->
<g id="node5" class="node">
<title>FIRE</title>
<ellipse fill="lightblue" stroke="black" cx="28.28" cy="-33.94" rx="28.07" ry="28.07"/>
<text text-anchor="middle" x="28.28" y="-31.74" font-family="Times,serif" font-size="9.00">FIRE</text>
</g>
<!-- ball_left&#45;&gt;FIRE -->
<g id="edge1" class="edge">
<title>ball_left&#45;&gt;FIRE</title>
<path fill="none" stroke="red" stroke-width="0.13" d="M63.17,-127.19C58.49,-114.81 49.35,-90.65 41.6,-70.16"/>
<polygon fill="red" stroke="red" stroke-width="0.13" points="44.86,-68.87 38.05,-60.76 38.31,-71.35 44.86,-68.87"/>
</g>
<!-- LEFT -->
<g id="node7" class="node">
<title>LEFT</title>
<ellipse fill="lightblue" stroke="black" cx="103.28" cy="-33.94" rx="28.98" ry="28.98"/>
<text text-anchor="middle" x="103.28" y="-31.74" font-family="Times,serif" font-size="9.00">LEFT</text>
</g>
<!-- ball_left&#45;&gt;LEFT -->
<g id="edge2" class="edge">
<title>ball_left&#45;&gt;LEFT</title>
<path fill="none" stroke="green" stroke-width="0.99" d="M69.31,-127.19C73.79,-115.02 82.46,-91.49 89.92,-71.24"/>
<polygon fill="green" stroke="green" stroke-width="0.99" points="93.29,-72.22 93.46,-61.62 86.72,-69.8 93.29,-72.22"/>
</g>
<!-- ball_right -->
<g id="node2" class="node">
<title>ball_right</title>
<polygon fill="lightgray" stroke="black" points="215.28,-145.41 153.28,-145.41 153.28,-127.41 215.28,-127.41 215.28,-145.41"/>
<text text-anchor="middle" x="184.28" y="-134.21" font-family="Times,serif" font-size="9.00">ball_right</text>
</g>
<!-- RIGHT -->
<g id="node6" class="node">
<title>RIGHT</title>
<ellipse fill="lightblue" stroke="black" cx="184.28" cy="-33.94" rx="33.88" ry="33.88"/>
<text text-anchor="middle" x="184.28" y="-31.74" font-family="Times,serif" font-size="9.00">RIGHT</text>
</g>
<!-- ball_right&#45;&gt;RIGHT -->
<g id="edge3" class="edge">
<title>ball_right&#45;&gt;RIGHT</title>
<path fill="none" stroke="green" stroke-width="0.89" d="M184.28,-127.19C184.28,-116.35 184.28,-96.5 184.28,-77.97"/>
<polygon fill="green" stroke="green" stroke-width="0.89" points="187.78,-77.88 184.28,-67.88 180.78,-77.88 187.78,-77.88"/>
</g>
<!-- ball_out_field -->
<g id="node3" class="node">
<title>ball_out_field</title>
<polygon fill="lightgray" stroke="black" points="311.28,-145.41 233.28,-145.41 233.28,-127.41 311.28,-127.41 311.28,-145.41"/>
<text text-anchor="middle" x="272.28" y="-134.21" font-family="Times,serif" font-size="9.00">ball_out_field</text>
</g>
<!-- NOOP -->
<g id="node4" class="node">
<title>NOOP</title>
<ellipse fill="lightblue" stroke="black" cx="362.28" cy="-136.41" rx="32.55" ry="32.55"/>
<text text-anchor="middle" x="362.28" y="-134.21" font-family="Times,serif" font-size="9.00">NOOP</text>
</g>
</g>
</svg>
