<?xml version="1.0" encoding="UTF-8" standalone="no"?>
<!DOCTYPE svg PUBLIC "-//W3C//DTD SVG 1.1//EN"
 "http://www.w3.org/Graphics/SVG/1.1/DTD/svg11.dtd">
<!-- Generated by graphviz version 2.43.0 (0)
 -->
<!-- Title: %3 Pages: 1 -->
<svg width="574pt" height="251pt"
 viewBox="0.00 0.00 573.57 251.12" xmlns="http://www.w3.org/2000/svg" xmlns:xlink="http://www.w3.org/1999/xlink">
<g id="graph0" class="graph" transform="scale(1 1) rotate(0) translate(4 247.12)">
<title>%3</title>
<polygon fill="white" stroke="transparent" points="-4,4 -4,-247.12 569.57,-247.12 569.57,4 -4,4"/>
<!-- ball_is_on_right -->
<g id="node1" class="node">
<title>ball_is_on_right</title>
<polygon fill="lightgray" stroke="black" points="257.08,-223.13 168.08,-223.13 168.08,-205.13 257.08,-205.13 257.08,-223.13"/>
<text text-anchor="middle" x="212.58" y="-211.93" font-family="Times,serif" font-size="9.00">ball_is_on_right</text>
</g>
<!-- right -->
<g id="node4" class="node">
<title>right</title>
<ellipse fill="lightblue" stroke="black" cx="250.58" cy="-28.99" rx="28.07" ry="28.07"/>
<text text-anchor="middle" x="250.58" y="-26.79" font-family="Times,serif" font-size="9.00">right</text>
</g>
<!-- ball_is_on_right&#45;&gt;right -->
<g id="edge9" class="edge">
<title>ball_is_on_right&#45;&gt;right</title>
<path fill="none" stroke="red" stroke-width="0.22" d="M214.31,-204.78C219.28,-180.81 233.83,-110.68 242.92,-66.88"/>
<polygon fill="red" stroke="red" stroke-width="0.22" points="246.39,-67.4 245,-56.89 239.54,-65.97 246.39,-67.4"/>
</g>
<!-- left -->
<g id="node5" class="node">
<title>left</title>
<ellipse fill="lightblue" stroke="black" cx="319.58" cy="-28.99" rx="22.76" ry="22.76"/>
<text text-anchor="middle" x="319.58" y="-26.79" font-family="Times,serif" font-size="9.00">left</text>
</g>
<!-- ball_is_on_right&#45;&gt;left -->
<g id="edge1" class="edge">
<title>ball_is_on_right&#45;&gt;left</title>
<path fill="none" stroke="green" stroke-width="1.55" d="M217.45,-204.78C232.5,-179.03 278.67,-100 303.46,-57.58"/>
<polygon fill="green" stroke="green" stroke-width="1.55" points="306.52,-59.27 308.55,-48.87 300.48,-55.74 306.52,-59.27"/>
</g>
<!-- 341 -->
<g id="node8" class="node">
<title>341</title>
<ellipse fill="white" stroke="black" cx="27.58" cy="-28.99" rx="25" ry="25"/>
<text text-anchor="middle" x="27.58" y="-26.79" font-family="Times,serif" font-size="9.00">341</text>
</g>
<!-- ball_is_on_right&#45;&gt;341 -->
<g id="edge2" class="edge">
<title>ball_is_on_right&#45;&gt;341</title>
<path fill="none" stroke="red" stroke-width="0.14" d="M203.99,-204.89C191.36,-192.74 167.04,-169.3 146.58,-149.14 113.69,-116.74 76.1,-78.97 52.12,-54.79"/>
<polygon fill="red" stroke="red" stroke-width="0.14" points="54.36,-52.08 44.83,-47.44 49.39,-57.01 54.36,-52.08"/>
</g>
<!-- 746 -->
<g id="node9" class="node">
<title>746</title>
<ellipse fill="white" stroke="black" cx="180.58" cy="-121.56" rx="25" ry="25"/>
<text text-anchor="middle" x="180.58" y="-119.36" font-family="Times,serif" font-size="9.00">746</text>
</g>
<!-- ball_is_on_right&#45;&gt;746 -->
<g id="edge3" class="edge">
<title>ball_is_on_right&#45;&gt;746</title>
<path fill="none" stroke="red" stroke-width="0.75" d="M209.74,-205.09C205.76,-193.84 198.31,-172.75 191.93,-154.7"/>
<polygon fill="red" stroke="red" stroke-width="0.75" points="195.16,-153.34 188.53,-145.07 188.56,-155.67 195.16,-153.34"/>
</g>
<!-- noop -->
<g id="node2" class="node">
<title>noop</title>
<ellipse fill="lightblue" stroke="black" cx="27.58" cy="-121.56" rx="27.65" ry="27.65"/>
<text text-anchor="middle" x="27.58" y="-119.36" font-family="Times,serif" font-size="9.00">noop</text>
</g>
<!-- noop&#45;&gt;341 -->
<g id="edge6" class="edge">
<title>noop&#45;&gt;341</title>
<path fill="none" stroke="green" stroke-width="0.18" d="M27.58,-93.88C27.58,-84.6 27.58,-74.07 27.58,-64.27"/>
<polygon fill="green" stroke="green" stroke-width="0.18" points="31.08,-64.02 27.58,-54.02 24.08,-64.02 31.08,-64.02"/>
</g>
<!-- fire -->
<g id="node3" class="node">
<title>fire</title>
<ellipse fill="lightblue" stroke="black" cx="297.58" cy="-214.13" rx="22.76" ry="22.76"/>
<text text-anchor="middle" x="297.58" y="-211.93" font-family="Times,serif" font-size="9.00">fire</text>
</g>
<!-- 4 -->
<g id="node6" class="node">
<title>4</title>
<ellipse fill="white" stroke="black" cx="354.58" cy="-214.13" rx="16.03" ry="16.03"/>
<text text-anchor="middle" x="354.58" y="-211.93" font-family="Times,serif" font-size="9.00">4</text>
</g>
<!-- 5 -->
<g id="node7" class="node">
<title>5</title>
<ellipse fill="white" stroke="black" cx="405.58" cy="-214.13" rx="16.03" ry="16.03"/>
<text text-anchor="middle" x="405.58" y="-211.93" font-family="Times,serif" font-size="9.00">5</text>
</g>
<!-- 746&#45;&gt;right -->
<g id="edge5" class="edge">
<title>746&#45;&gt;right</title>
<path fill="none" stroke="green" stroke-width="0.56" d="M195.42,-101.35C204.66,-89.4 216.74,-73.77 227.24,-60.18"/>
<polygon fill="green" stroke="green" stroke-width="0.56" points="230.19,-62.09 233.54,-52.04 224.65,-57.81 230.19,-62.09"/>
</g>
<!-- 746&#45;&gt;left -->
<g id="edge7" class="edge">
<title>746&#45;&gt;left</title>
<path fill="none" stroke="green" stroke-width="0.53" d="M202.23,-109.47C224.39,-97.76 259.46,-78.22 287.58,-57.98 290.27,-56.04 293.01,-53.92 295.69,-51.74"/>
<polygon fill="green" stroke="green" stroke-width="0.53" points="298.1,-54.28 303.46,-45.14 293.57,-48.94 298.1,-54.28"/>
</g>
<!-- 746&#45;&gt;341 -->
<g id="edge4" class="edge">
<title>746&#45;&gt;341</title>
<path fill="none" stroke="green" stroke-width="0.49" d="M158.32,-110.54C133.82,-99.13 93.66,-79.3 61.58,-57.98 58.99,-56.26 56.36,-54.38 53.77,-52.43"/>
<polygon fill="green" stroke="green" stroke-width="0.49" points="55.77,-49.55 45.75,-46.11 51.44,-55.05 55.77,-49.55"/>
</g>
<!-- 1507 -->
<g id="node11" class="node">
<title>1507</title>
<ellipse fill="white" stroke="black" cx="99.58" cy="-28.99" rx="28.98" ry="28.98"/>
<text text-anchor="middle" x="99.58" y="-26.79" font-family="Times,serif" font-size="9.00">1507</text>
</g>
<!-- 746&#45;&gt;1507 -->
<g id="edge8" class="edge">
<title>746&#45;&gt;1507</title>
<path fill="none" stroke="green" stroke-width="0.23" stroke-dasharray="1,5" d="M164.57,-102.67C153.45,-90.23 138.37,-73.37 125.54,-59.02"/>
<polygon fill="green" stroke="green" stroke-width="0.23" points="127.96,-56.47 118.68,-51.35 122.74,-61.14 127.96,-56.47"/>
</g>
<!-- 2543 -->
<g id="node13" class="node">
<title>2543</title>
<ellipse fill="white" stroke="black" cx="175.58" cy="-28.99" rx="28.98" ry="28.98"/>
<text text-anchor="middle" x="175.58" y="-26.79" font-family="Times,serif" font-size="9.00">2543</text>
</g>
<!-- 746&#45;&gt;2543 -->
<g id="edge10" class="edge">
<title>746&#45;&gt;2543</title>
<path fill="none" stroke="red" stroke-width="0.16" d="M179.26,-96.76C178.78,-88.07 178.23,-77.99 177.69,-68.34"/>
<polygon fill="red" stroke="red" stroke-width="0.16" points="181.18,-67.92 177.13,-58.13 174.19,-68.31 181.18,-67.92"/>
</g>
<!-- 970 -->
<g id="node10" class="node">
<title>970</title>
<ellipse fill="white" stroke="black" cx="464.58" cy="-214.13" rx="25" ry="25"/>
<text text-anchor="middle" x="464.58" y="-211.93" font-family="Times,serif" font-size="9.00">970</text>
</g>
<!-- 2404 -->
<g id="node12" class="node">
<title>2404</title>
<ellipse fill="white" stroke="black" cx="536.58" cy="-214.13" rx="28.98" ry="28.98"/>
<text text-anchor="middle" x="536.58" y="-211.93" font-family="Times,serif" font-size="9.00">2404</text>
</g>
</g>
</svg>
