<?xml version="1.0" encoding="UTF-8" standalone="no"?>
<!DOCTYPE svg PUBLIC "-//W3C//DTD SVG 1.1//EN"
 "http://www.w3.org/Graphics/SVG/1.1/DTD/svg11.dtd">
<!-- Generated by graphviz version 2.43.0 (0)
 -->
<!-- Title: %3 Pages: 1 -->
<svg width="344pt" height="270pt"
 viewBox="0.00 0.00 344.25 269.50" xmlns="http://www.w3.org/2000/svg" xmlns:xlink="http://www.w3.org/1999/xlink">
<g id="graph0" class="graph" transform="scale(1 1) rotate(0) translate(4 265.5)">
<title>%3</title>
<polygon fill="white" stroke="transparent" points="-4,4 -4,-265.5 340.25,-265.5 340.25,4 -4,4"/>
<!-- ball_left -->
<g id="node1" class="node">
<title>ball_left</title>
<polygon fill="lightgray" stroke="black" points="53,-242.22 0,-242.22 0,-224.22 53,-224.22 53,-242.22"/>
<text text-anchor="middle" x="26.5" y="-231.02" font-family="Times,serif" font-size="9.00">ball_left</text>
</g>
<!-- ball_right -->
<g id="node2" class="node">
<title>ball_right</title>
<polygon fill="lightgray" stroke="black" points="133.5,-242.22 71.5,-242.22 71.5,-224.22 133.5,-224.22 133.5,-242.22"/>
<text text-anchor="middle" x="102.5" y="-231.02" font-family="Times,serif" font-size="9.00">ball_right</text>
</g>
<!-- RIGHT -->
<g id="node6" class="node">
<title>RIGHT</title>
<ellipse fill="lightblue" stroke="black" cx="40.5" cy="-134.99" rx="33.88" ry="33.88"/>
<text text-anchor="middle" x="40.5" y="-132.79" font-family="Times,serif" font-size="9.00">RIGHT</text>
</g>
<!-- ball_right&#45;&gt;RIGHT -->
<g id="edge2" class="edge">
<title>ball_right&#45;&gt;RIGHT</title>
<path fill="none" stroke="green" stroke-width="0.64" d="M97.21,-224.02C89.85,-212.59 76.04,-191.15 63.89,-172.29"/>
<polygon fill="green" stroke="green" stroke-width="0.64" points="66.81,-170.37 58.45,-163.86 60.93,-174.16 66.81,-170.37"/>
</g>
<!-- LEFT -->
<g id="node7" class="node">
<title>LEFT</title>
<ellipse fill="lightblue" stroke="black" cx="89.5" cy="-32.53" rx="28.98" ry="28.98"/>
<text text-anchor="middle" x="89.5" y="-30.33" font-family="Times,serif" font-size="9.00">LEFT</text>
</g>
<!-- ball_right&#45;&gt;LEFT -->
<g id="edge1" class="edge">
<title>ball_right&#45;&gt;LEFT</title>
<path fill="none" stroke="green" stroke-width="1.28" d="M101.97,-224.19C100.32,-198.89 95.14,-119.72 92,-71.72"/>
<polygon fill="green" stroke="green" stroke-width="1.28" points="95.49,-71.45 91.34,-61.69 88.5,-71.9 95.49,-71.45"/>
</g>
<!-- 779 -->
<g id="node8" class="node">
<title>779</title>
<ellipse fill="white" stroke="black" cx="169.5" cy="-134.99" rx="25" ry="25"/>
<text text-anchor="middle" x="169.5" y="-132.79" font-family="Times,serif" font-size="9.00">779</text>
</g>
<!-- ball_right&#45;&gt;779 -->
<g id="edge3" class="edge">
<title>ball_right&#45;&gt;779</title>
<path fill="none" stroke="green" stroke-width="0.14" stroke-dasharray="1,5" d="M108.21,-224.02C117.35,-210.89 135.67,-184.58 149.92,-164.12"/>
<polygon fill="green" stroke="green" stroke-width="0.14" points="152.89,-165.98 155.73,-155.77 147.15,-161.98 152.89,-165.98"/>
</g>
<!-- ball_out_field -->
<g id="node3" class="node">
<title>ball_out_field</title>
<polygon fill="lightgray" stroke="black" points="229.5,-242.22 151.5,-242.22 151.5,-224.22 229.5,-224.22 229.5,-242.22"/>
<text text-anchor="middle" x="190.5" y="-231.02" font-family="Times,serif" font-size="9.00">ball_out_field</text>
</g>
<!-- NOOP -->
<g id="node4" class="node">
<title>NOOP</title>
<ellipse fill="lightblue" stroke="black" cx="169.5" cy="-32.53" rx="32.55" ry="32.55"/>
<text text-anchor="middle" x="169.5" y="-30.33" font-family="Times,serif" font-size="9.00">NOOP</text>
</g>
<!-- FIRE -->
<g id="node5" class="node">
<title>FIRE</title>
<ellipse fill="lightblue" stroke="black" cx="275.5" cy="-233.22" rx="28.07" ry="28.07"/>
<text text-anchor="middle" x="275.5" y="-231.02" font-family="Times,serif" font-size="9.00">FIRE</text>
</g>
<!-- 779&#45;&gt;NOOP -->
<g id="edge5" class="edge">
<title>779&#45;&gt;NOOP</title>
<path fill="none" stroke="red" stroke-width="0.23" d="M169.5,-110.19C169.5,-99.77 169.5,-87.24 169.5,-75.36"/>
<polygon fill="red" stroke="red" stroke-width="0.23" points="173,-75.15 169.5,-65.15 166,-75.15 173,-75.15"/>
</g>
<!-- 779&#45;&gt;LEFT -->
<g id="edge4" class="edge">
<title>779&#45;&gt;LEFT</title>
<path fill="none" stroke="green" stroke-width="0.66" stroke-dasharray="1,5" d="M154.45,-115.1C142.94,-100.64 126.83,-80.41 113.54,-63.72"/>
<polygon fill="green" stroke="green" stroke-width="0.66" points="116.24,-61.49 107.27,-55.85 110.76,-65.85 116.24,-61.49"/>
</g>
<!-- 791 -->
<g id="node9" class="node">
<title>791</title>
<ellipse fill="white" stroke="black" cx="244.5" cy="-32.53" rx="25" ry="25"/>
<text text-anchor="middle" x="244.5" y="-30.33" font-family="Times,serif" font-size="9.00">791</text>
</g>
<!-- 779&#45;&gt;791 -->
<g id="edge6" class="edge">
<title>779&#45;&gt;791</title>
<path fill="none" stroke="green" stroke-width="0.55" d="M183.96,-114.62C195.27,-99.47 211.14,-78.21 223.8,-61.26"/>
<polygon fill="green" stroke="green" stroke-width="0.55" points="226.91,-62.95 230.08,-52.84 221.3,-58.76 226.91,-62.95"/>
</g>
<!-- 874 -->
<g id="node10" class="node">
<title>874</title>
<ellipse fill="white" stroke="black" cx="311.5" cy="-32.53" rx="25" ry="25"/>
<text text-anchor="middle" x="311.5" y="-30.33" font-family="Times,serif" font-size="9.00">874</text>
</g>
<!-- 779&#45;&gt;874 -->
<g id="edge7" class="edge">
<title>779&#45;&gt;874</title>
<path fill="none" stroke="red" stroke-width="0.3" d="M190.82,-122.21C213.41,-109.33 249.74,-87.53 278.5,-65.05 281.42,-62.77 284.37,-60.27 287.25,-57.71"/>
<polygon fill="red" stroke="red" stroke-width="0.3" points="289.66,-60.25 294.62,-50.89 284.9,-55.12 289.66,-60.25"/>
</g>
</g>
</svg>
