<?xml version="1.0" encoding="UTF-8" standalone="no"?>
<!DOCTYPE svg PUBLIC "-//W3C//DTD SVG 1.1//EN"
 "http://www.w3.org/Graphics/SVG/1.1/DTD/svg11.dtd">
<!-- Generated by graphviz version 2.43.0 (0)
 -->
<!-- Title: %3 Pages: 1 -->
<svg width="1470pt" height="254pt"
 viewBox="0.00 0.00 1470.42 253.95" xmlns="http://www.w3.org/2000/svg" xmlns:xlink="http://www.w3.org/1999/xlink">
<g id="graph0" class="graph" transform="scale(1 1) rotate(0) translate(4 249.95)">
<title>%3</title>
<polygon fill="white" stroke="transparent" points="-4,4 -4,-249.95 1466.42,-249.95 1466.42,4 -4,4"/>
<!-- &#45;1 -->
<g id="node1" class="node">
<title>&#45;1</title>
<polygon fill="lightgray" stroke="black" points="182.43,-225.96 156.43,-225.96 156.43,-207.96 182.43,-207.96 182.43,-225.96"/>
<text text-anchor="middle" x="169.43" y="-214.76" font-family="Times,serif" font-size="9.00">&#45;1</text>
</g>
<!-- 3 -->
<g id="node8" class="node">
<title>3</title>
<ellipse fill="lightblue" stroke="black" cx="39.43" cy="-28.99" rx="16.03" ry="16.03"/>
<text text-anchor="middle" x="39.43" y="-26.79" font-family="Times,serif" font-size="9.00">3</text>
</g>
<!-- &#45;1&#45;&gt;3 -->
<g id="edge2" class="edge">
<title>&#45;1&#45;&gt;3</title>
<path fill="none" stroke="green" stroke-width="0.4" stroke-dasharray="1,5" d="M156.07,-215.33C124.14,-213.03 43.48,-202.25 9.43,-151.97 -11.48,-121.09 8.93,-77.04 24.79,-51.19"/>
<polygon fill="green" stroke="green" stroke-width="0.4" points="27.88,-52.85 30.34,-42.55 21.99,-49.07 27.88,-52.85"/>
</g>
<!-- 4 -->
<g id="node9" class="node">
<title>4</title>
<ellipse fill="lightblue" stroke="black" cx="169.43" cy="-122.97" rx="16.03" ry="16.03"/>
<text text-anchor="middle" x="169.43" y="-120.77" font-family="Times,serif" font-size="9.00">4</text>
</g>
<!-- &#45;1&#45;&gt;4 -->
<g id="edge5" class="edge">
<title>&#45;1&#45;&gt;4</title>
<path fill="none" stroke="green" stroke-width="1.26" d="M169.43,-207.79C169.43,-194.88 169.43,-169.21 169.43,-149.67"/>
<polygon fill="green" stroke="green" stroke-width="1.26" points="172.93,-149.55 169.43,-139.55 165.93,-149.56 172.93,-149.55"/>
</g>
<!-- 81 -->
<g id="node23" class="node">
<title>81</title>
<ellipse fill="white" stroke="black" cx="39.43" cy="-122.97" rx="20.51" ry="20.51"/>
<text text-anchor="middle" x="39.43" y="-120.77" font-family="Times,serif" font-size="9.00">81</text>
</g>
<!-- &#45;1&#45;&gt;81 -->
<g id="edge1" class="edge">
<title>&#45;1&#45;&gt;81</title>
<path fill="none" stroke="green" stroke-width="0.36" d="M156.11,-208.68C136.23,-197.56 97.97,-175.19 68.43,-151.97 65.84,-149.93 63.23,-147.7 60.69,-145.42"/>
<polygon fill="green" stroke="green" stroke-width="0.36" points="63.04,-142.83 53.36,-138.53 58.25,-147.93 63.04,-142.83"/>
</g>
<!-- 1059 -->
<g id="node24" class="node">
<title>1059</title>
<ellipse fill="white" stroke="black" cx="270.43" cy="-28.99" rx="28.98" ry="28.98"/>
<text text-anchor="middle" x="270.43" y="-26.79" font-family="Times,serif" font-size="9.00">1059</text>
</g>
<!-- &#45;1&#45;&gt;1059 -->
<g id="edge3" class="edge">
<title>&#45;1&#45;&gt;1059</title>
<path fill="none" stroke="red" stroke-width="0.32" d="M173.39,-207.88C183.1,-188.2 208.97,-136.3 232.43,-93.98 238.09,-83.77 244.49,-72.8 250.4,-62.87"/>
<polygon fill="red" stroke="red" stroke-width="0.32" points="253.51,-64.48 255.65,-54.11 247.51,-60.88 253.51,-64.48"/>
</g>
<!-- 1851 -->
<g id="node25" class="node">
<title>1851</title>
<ellipse fill="white" stroke="black" cx="346.43" cy="-122.97" rx="28.98" ry="28.98"/>
<text text-anchor="middle" x="346.43" y="-120.77" font-family="Times,serif" font-size="9.00">1851</text>
</g>
<!-- &#45;1&#45;&gt;1851 -->
<g id="edge6" class="edge">
<title>&#45;1&#45;&gt;1851</title>
<path fill="none" stroke="red" stroke-width="0.15" stroke-dasharray="1,5" d="M182.52,-210.97C207.69,-201.16 264.27,-178.03 308.43,-151.97 310.71,-150.62 313.03,-149.16 315.33,-147.65"/>
<polygon fill="red" stroke="red" stroke-width="0.15" points="317.8,-150.19 324.04,-141.63 313.82,-144.44 317.8,-150.19"/>
</g>
<!-- 2069 -->
<g id="node28" class="node">
<title>2069</title>
<ellipse fill="white" stroke="black" cx="270.43" cy="-122.97" rx="28.98" ry="28.98"/>
<text text-anchor="middle" x="270.43" y="-120.77" font-family="Times,serif" font-size="9.00">2069</text>
</g>
<!-- &#45;1&#45;&gt;2069 -->
<g id="edge13" class="edge">
<title>&#45;1&#45;&gt;2069</title>
<path fill="none" stroke="green" stroke-width="0.16" d="M178.39,-207.79C192.5,-194.95 220.47,-169.48 241.89,-149.97"/>
<polygon fill="green" stroke="green" stroke-width="0.16" points="244.41,-152.4 249.45,-143.08 239.7,-147.23 244.41,-152.4"/>
</g>
<!-- 2510 -->
<g id="node29" class="node">
<title>2510</title>
<ellipse fill="white" stroke="black" cx="106.43" cy="-122.97" rx="28.98" ry="28.98"/>
<text text-anchor="middle" x="106.43" y="-120.77" font-family="Times,serif" font-size="9.00">2510</text>
</g>
<!-- &#45;1&#45;&gt;2510 -->
<g id="edge10" class="edge">
<title>&#45;1&#45;&gt;2510</title>
<path fill="none" stroke="green" stroke-width="0.51" d="M163.84,-207.79C155.88,-196.18 140.85,-174.24 128.17,-155.72"/>
<polygon fill="green" stroke="green" stroke-width="0.51" points="130.89,-153.5 122.36,-147.23 125.12,-157.46 130.89,-153.5"/>
</g>
<!-- &#45;2 -->
<g id="node2" class="node">
<title>&#45;2</title>
<polygon fill="lightgray" stroke="black" points="419.43,-225.96 393.43,-225.96 393.43,-207.96 419.43,-207.96 419.43,-225.96"/>
<text text-anchor="middle" x="406.43" y="-214.76" font-family="Times,serif" font-size="9.00">&#45;2</text>
</g>
<!-- &#45;3 -->
<g id="node3" class="node">
<title>&#45;3</title>
<polygon fill="lightgray" stroke="black" points="463.43,-225.96 437.43,-225.96 437.43,-207.96 463.43,-207.96 463.43,-225.96"/>
<text text-anchor="middle" x="450.43" y="-214.76" font-family="Times,serif" font-size="9.00">&#45;3</text>
</g>
<!-- &#45;4 -->
<g id="node4" class="node">
<title>&#45;4</title>
<polygon fill="lightgray" stroke="black" points="507.43,-225.96 481.43,-225.96 481.43,-207.96 507.43,-207.96 507.43,-225.96"/>
<text text-anchor="middle" x="494.43" y="-214.76" font-family="Times,serif" font-size="9.00">&#45;4</text>
</g>
<!-- 0 -->
<g id="node5" class="node">
<title>0</title>
<ellipse fill="lightblue" stroke="black" cx="541.43" cy="-216.96" rx="16.03" ry="16.03"/>
<text text-anchor="middle" x="541.43" y="-214.76" font-family="Times,serif" font-size="9.00">0</text>
</g>
<!-- 1 -->
<g id="node6" class="node">
<title>1</title>
<ellipse fill="lightblue" stroke="black" cx="592.43" cy="-216.96" rx="16.03" ry="16.03"/>
<text text-anchor="middle" x="592.43" y="-214.76" font-family="Times,serif" font-size="9.00">1</text>
</g>
<!-- 2 -->
<g id="node7" class="node">
<title>2</title>
<ellipse fill="lightblue" stroke="black" cx="643.43" cy="-216.96" rx="16.03" ry="16.03"/>
<text text-anchor="middle" x="643.43" y="-214.76" font-family="Times,serif" font-size="9.00">2</text>
</g>
<!-- 2013 -->
<g id="node27" class="node">
<title>2013</title>
<ellipse fill="white" stroke="black" cx="169.43" cy="-28.99" rx="28.98" ry="28.98"/>
<text text-anchor="middle" x="169.43" y="-26.79" font-family="Times,serif" font-size="9.00">2013</text>
</g>
<!-- 4&#45;&gt;2013 -->
<g id="edge8" class="edge">
<title>4&#45;&gt;2013</title>
<path fill="none" stroke="green" stroke-width="0.37" d="M169.43,-106.37C169.43,-96.02 169.43,-81.94 169.43,-68.7"/>
<polygon fill="green" stroke="green" stroke-width="0.37" points="172.93,-68.34 169.43,-58.34 165.93,-68.34 172.93,-68.34"/>
</g>
<!-- 5 -->
<g id="node10" class="node">
<title>5</title>
<ellipse fill="lightblue" stroke="black" cx="694.43" cy="-216.96" rx="16.03" ry="16.03"/>
<text text-anchor="middle" x="694.43" y="-214.76" font-family="Times,serif" font-size="9.00">5</text>
</g>
<!-- 6 -->
<g id="node11" class="node">
<title>6</title>
<ellipse fill="lightblue" stroke="black" cx="745.43" cy="-216.96" rx="16.03" ry="16.03"/>
<text text-anchor="middle" x="745.43" y="-214.76" font-family="Times,serif" font-size="9.00">6</text>
</g>
<!-- 7 -->
<g id="node12" class="node">
<title>7</title>
<ellipse fill="lightblue" stroke="black" cx="796.43" cy="-216.96" rx="16.03" ry="16.03"/>
<text text-anchor="middle" x="796.43" y="-214.76" font-family="Times,serif" font-size="9.00">7</text>
</g>
<!-- 8 -->
<g id="node13" class="node">
<title>8</title>
<ellipse fill="lightblue" stroke="black" cx="847.43" cy="-216.96" rx="16.03" ry="16.03"/>
<text text-anchor="middle" x="847.43" y="-214.76" font-family="Times,serif" font-size="9.00">8</text>
</g>
<!-- 9 -->
<g id="node14" class="node">
<title>9</title>
<ellipse fill="lightblue" stroke="black" cx="898.43" cy="-216.96" rx="16.03" ry="16.03"/>
<text text-anchor="middle" x="898.43" y="-214.76" font-family="Times,serif" font-size="9.00">9</text>
</g>
<!-- 10 -->
<g id="node15" class="node">
<title>10</title>
<ellipse fill="lightblue" stroke="black" cx="953.43" cy="-216.96" rx="20.51" ry="20.51"/>
<text text-anchor="middle" x="953.43" y="-214.76" font-family="Times,serif" font-size="9.00">10</text>
</g>
<!-- 11 -->
<g id="node16" class="node">
<title>11</title>
<ellipse fill="lightblue" stroke="black" cx="1012.43" cy="-216.96" rx="20.51" ry="20.51"/>
<text text-anchor="middle" x="1012.43" y="-214.76" font-family="Times,serif" font-size="9.00">11</text>
</g>
<!-- 12 -->
<g id="node17" class="node">
<title>12</title>
<ellipse fill="lightblue" stroke="black" cx="1071.43" cy="-216.96" rx="20.51" ry="20.51"/>
<text text-anchor="middle" x="1071.43" y="-214.76" font-family="Times,serif" font-size="9.00">12</text>
</g>
<!-- 13 -->
<g id="node18" class="node">
<title>13</title>
<ellipse fill="lightblue" stroke="black" cx="1130.43" cy="-216.96" rx="20.51" ry="20.51"/>
<text text-anchor="middle" x="1130.43" y="-214.76" font-family="Times,serif" font-size="9.00">13</text>
</g>
<!-- 14 -->
<g id="node19" class="node">
<title>14</title>
<ellipse fill="lightblue" stroke="black" cx="1189.43" cy="-216.96" rx="20.51" ry="20.51"/>
<text text-anchor="middle" x="1189.43" y="-214.76" font-family="Times,serif" font-size="9.00">14</text>
</g>
<!-- 15 -->
<g id="node20" class="node">
<title>15</title>
<ellipse fill="lightblue" stroke="black" cx="1248.43" cy="-216.96" rx="20.51" ry="20.51"/>
<text text-anchor="middle" x="1248.43" y="-214.76" font-family="Times,serif" font-size="9.00">15</text>
</g>
<!-- 16 -->
<g id="node21" class="node">
<title>16</title>
<ellipse fill="lightblue" stroke="black" cx="1307.43" cy="-216.96" rx="20.51" ry="20.51"/>
<text text-anchor="middle" x="1307.43" y="-214.76" font-family="Times,serif" font-size="9.00">16</text>
</g>
<!-- 17 -->
<g id="node22" class="node">
<title>17</title>
<ellipse fill="lightblue" stroke="black" cx="1366.43" cy="-216.96" rx="20.51" ry="20.51"/>
<text text-anchor="middle" x="1366.43" y="-214.76" font-family="Times,serif" font-size="9.00">17</text>
</g>
<!-- 81&#45;&gt;3 -->
<g id="edge4" class="edge">
<title>81&#45;&gt;3</title>
<path fill="none" stroke="red" stroke-width="0.26" d="M39.43,-102.47C39.43,-88.8 39.43,-70.41 39.43,-55.57"/>
<polygon fill="red" stroke="red" stroke-width="0.26" points="42.93,-55.51 39.43,-45.51 35.93,-55.51 42.93,-55.51"/>
</g>
<!-- 1851&#45;&gt;1059 -->
<g id="edge7" class="edge">
<title>1851&#45;&gt;1059</title>
<path fill="none" stroke="red" stroke-width="0.26" stroke-dasharray="1,5" d="M328.42,-100.18C318.46,-88.12 305.94,-72.97 295.08,-59.83"/>
<polygon fill="red" stroke="red" stroke-width="0.26" points="297.64,-57.43 288.57,-51.95 292.25,-61.89 297.64,-57.43"/>
</g>
<!-- 1900 -->
<g id="node26" class="node">
<title>1900</title>
<ellipse fill="white" stroke="black" cx="1433.43" cy="-216.96" rx="28.98" ry="28.98"/>
<text text-anchor="middle" x="1433.43" y="-214.76" font-family="Times,serif" font-size="9.00">1900</text>
</g>
<!-- 2069&#45;&gt;1059 -->
<g id="edge9" class="edge">
<title>2069&#45;&gt;1059</title>
<path fill="none" stroke="red" stroke-width="0.81" d="M270.43,-93.88C270.43,-85.84 270.43,-76.94 270.43,-68.39"/>
<polygon fill="red" stroke="red" stroke-width="0.81" points="273.93,-68.23 270.43,-58.23 266.93,-68.23 273.93,-68.23"/>
</g>
<!-- 2510&#45;&gt;3 -->
<g id="edge11" class="edge">
<title>2510&#45;&gt;3</title>
<path fill="none" stroke="green" stroke-width="0.39" d="M89.52,-98.76C78.8,-84.04 65.04,-65.16 54.66,-50.9"/>
<polygon fill="green" stroke="green" stroke-width="0.39" points="57.4,-48.73 48.69,-42.7 51.75,-52.85 57.4,-48.73"/>
</g>
<!-- 2619 -->
<g id="node30" class="node">
<title>2619</title>
<ellipse fill="white" stroke="black" cx="346.43" cy="-216.96" rx="28.98" ry="28.98"/>
<text text-anchor="middle" x="346.43" y="-214.76" font-family="Times,serif" font-size="9.00">2619</text>
</g>
<!-- 2619&#45;&gt;1851 -->
<g id="edge12" class="edge">
<title>2619&#45;&gt;1851</title>
<path fill="none" stroke="red" stroke-width="0.43" d="M346.43,-187.86C346.43,-179.82 346.43,-170.92 346.43,-162.38"/>
<polygon fill="red" stroke="red" stroke-width="0.43" points="349.93,-162.22 346.43,-152.22 342.93,-162.22 349.93,-162.22"/>
</g>
</g>
</svg>
