<?xml version="1.0" encoding="UTF-8" standalone="no"?>
<!DOCTYPE svg PUBLIC "-//W3C//DTD SVG 1.1//EN"
 "http://www.w3.org/Graphics/SVG/1.1/DTD/svg11.dtd">
<!-- Generated by graphviz version 2.43.0 (0)
 -->
<!-- Title: %3 Pages: 1 -->
<svg width="1996pt" height="328pt"
 viewBox="0.00 0.00 1995.74 328.26" xmlns="http://www.w3.org/2000/svg" xmlns:xlink="http://www.w3.org/1999/xlink">
<g id="graph0" class="graph" transform="scale(1 1) rotate(0) translate(4 324.26)">
<title>%3</title>
<polygon fill="white" stroke="transparent" points="-4,4 -4,-324.26 1991.74,-324.26 1991.74,4 -4,4"/>
<!-- ball_left -->
<g id="node1" class="node">
<title>ball_left</title>
<polygon fill="lightgray" stroke="black" points="76.7,-255.72 23.7,-255.72 23.7,-237.72 76.7,-237.72 76.7,-255.72"/>
<text text-anchor="middle" x="50.2" y="-244.52" font-family="Times,serif" font-size="9.00">ball_left</text>
</g>
<!-- RIGHTFIRE -->
<g id="node8" class="node">
<title>RIGHTFIRE</title>
<ellipse fill="lightblue" stroke="black" cx="50.2" cy="-68.59" rx="50.41" ry="50.41"/>
<text text-anchor="middle" x="50.2" y="-66.39" font-family="Times,serif" font-size="9.00">RIGHTFIRE</text>
</g>
<!-- ball_left&#45;&gt;RIGHTFIRE -->
<g id="edge2" class="edge">
<title>ball_left&#45;&gt;RIGHTFIRE</title>
<path fill="none" stroke="red" stroke-width="0.44" d="M50.2,-237.69C50.2,-218.65 50.2,-169.29 50.2,-128.96"/>
<polygon fill="red" stroke="red" stroke-width="0.44" points="53.7,-128.92 50.2,-118.92 46.7,-128.92 53.7,-128.92"/>
</g>
<!-- ball_right -->
<g id="node2" class="node">
<title>ball_right</title>
<polygon fill="lightgray" stroke="black" points="218.2,-255.72 156.2,-255.72 156.2,-237.72 218.2,-237.72 218.2,-255.72"/>
<text text-anchor="middle" x="187.2" y="-244.52" font-family="Times,serif" font-size="9.00">ball_right</text>
</g>
<!-- DOWNLEFTFIRE -->
<g id="node20" class="node">
<title>DOWNLEFTFIRE</title>
<ellipse fill="lightblue" stroke="black" cx="187.2" cy="-68.59" rx="68.68" ry="68.68"/>
<text text-anchor="middle" x="187.2" y="-66.39" font-family="Times,serif" font-size="9.00">DOWNLEFTFIRE</text>
</g>
<!-- ball_right&#45;&gt;DOWNLEFTFIRE -->
<g id="edge1" class="edge">
<title>ball_right&#45;&gt;DOWNLEFTFIRE</title>
<path fill="none" stroke="green" stroke-width="0.14" d="M187.2,-237.69C187.2,-221.45 187.2,-183.18 187.2,-147.25"/>
<polygon fill="green" stroke="green" stroke-width="0.14" points="190.7,-147.2 187.2,-137.2 183.7,-147.2 190.7,-147.2"/>
</g>
<!-- ball_out_field -->
<g id="node3" class="node">
<title>ball_out_field</title>
<polygon fill="lightgray" stroke="black" points="314.2,-255.72 236.2,-255.72 236.2,-237.72 314.2,-237.72 314.2,-255.72"/>
<text text-anchor="middle" x="275.2" y="-244.52" font-family="Times,serif" font-size="9.00">ball_out_field</text>
</g>
<!-- NOOP -->
<g id="node4" class="node">
<title>NOOP</title>
<ellipse fill="lightblue" stroke="black" cx="365.2" cy="-246.72" rx="32.55" ry="32.55"/>
<text text-anchor="middle" x="365.2" y="-244.52" font-family="Times,serif" font-size="9.00">NOOP</text>
</g>
<!-- FIRE -->
<g id="node5" class="node">
<title>FIRE</title>
<ellipse fill="lightblue" stroke="black" cx="444.2" cy="-246.72" rx="28.07" ry="28.07"/>
<text text-anchor="middle" x="444.2" y="-244.52" font-family="Times,serif" font-size="9.00">FIRE</text>
</g>
<!-- RIGHT -->
<g id="node6" class="node">
<title>RIGHT</title>
<ellipse fill="lightblue" stroke="black" cx="519.2" cy="-68.59" rx="33.88" ry="33.88"/>
<text text-anchor="middle" x="519.2" y="-66.39" font-family="Times,serif" font-size="9.00">RIGHT</text>
</g>
<!-- LEFT -->
<g id="node7" class="node">
<title>LEFT</title>
<ellipse fill="lightblue" stroke="black" cx="595.2" cy="-246.72" rx="28.98" ry="28.98"/>
<text text-anchor="middle" x="595.2" y="-244.52" font-family="Times,serif" font-size="9.00">LEFT</text>
</g>
<!-- LEFTRIGHTFIRE -->
<g id="node9" class="node">
<title>LEFTRIGHTFIRE</title>
<ellipse fill="lightblue" stroke="black" cx="710.2" cy="-246.72" rx="67.76" ry="67.76"/>
<text text-anchor="middle" x="710.2" y="-244.52" font-family="Times,serif" font-size="9.00">LEFTRIGHTFIRE</text>
</g>
<!-- UPRIGHT -->
<g id="node10" class="node">
<title>UPRIGHT</title>
<ellipse fill="lightblue" stroke="black" cx="840.2" cy="-246.72" rx="43.68" ry="43.68"/>
<text text-anchor="middle" x="840.2" y="-244.52" font-family="Times,serif" font-size="9.00">UPRIGHT</text>
</g>
<!-- UPLEFT -->
<g id="node11" class="node">
<title>UPLEFT</title>
<ellipse fill="lightblue" stroke="black" cx="941.2" cy="-246.72" rx="38.78" ry="38.78"/>
<text text-anchor="middle" x="941.2" y="-244.52" font-family="Times,serif" font-size="9.00">UPLEFT</text>
</g>
<!-- DOWNRIGHT -->
<g id="node12" class="node">
<title>DOWNRIGHT</title>
<ellipse fill="lightblue" stroke="black" cx="1054.2" cy="-246.72" rx="56.64" ry="56.64"/>
<text text-anchor="middle" x="1054.2" y="-244.52" font-family="Times,serif" font-size="9.00">DOWNRIGHT</text>
</g>
<!-- DOWNLEFT -->
<g id="node13" class="node">
<title>DOWNLEFT</title>
<ellipse fill="lightblue" stroke="black" cx="1181.2" cy="-246.72" rx="52.15" ry="52.15"/>
<text text-anchor="middle" x="1181.2" y="-244.52" font-family="Times,serif" font-size="9.00">DOWNLEFT</text>
</g>
<!-- UPFIRE -->
<g id="node14" class="node">
<title>UPFIRE</title>
<ellipse fill="lightblue" stroke="black" cx="1289.2" cy="-246.72" rx="37.45" ry="37.45"/>
<text text-anchor="middle" x="1289.2" y="-244.52" font-family="Times,serif" font-size="9.00">UPFIRE</text>
</g>
<!-- LEFTFIRE -->
<g id="node15" class="node">
<title>LEFTFIRE</title>
<ellipse fill="lightblue" stroke="black" cx="1390.2" cy="-246.72" rx="45.92" ry="45.92"/>
<text text-anchor="middle" x="1390.2" y="-244.52" font-family="Times,serif" font-size="9.00">LEFTFIRE</text>
</g>
<!-- DOWNFIRE -->
<g id="node16" class="node">
<title>DOWNFIRE</title>
<ellipse fill="lightblue" stroke="black" cx="1505.2" cy="-246.72" rx="50.82" ry="50.82"/>
<text text-anchor="middle" x="1505.2" y="-244.52" font-family="Times,serif" font-size="9.00">DOWNFIRE</text>
</g>
<!-- UPRIGHTFIRE -->
<g id="node17" class="node">
<title>UPRIGHTFIRE</title>
<ellipse fill="lightblue" stroke="black" cx="1634.2" cy="-246.72" rx="60.21" ry="60.21"/>
<text text-anchor="middle" x="1634.2" y="-244.52" font-family="Times,serif" font-size="9.00">UPRIGHTFIRE</text>
</g>
<!-- UPLEFTFIRE -->
<g id="node18" class="node">
<title>UPLEFTFIRE</title>
<ellipse fill="lightblue" stroke="black" cx="1767.2" cy="-246.72" rx="55.31" ry="55.31"/>
<text text-anchor="middle" x="1767.2" y="-244.52" font-family="Times,serif" font-size="9.00">UPLEFTFIRE</text>
</g>
<!-- DOWNRIGHTFIRE -->
<g id="node19" class="node">
<title>DOWNRIGHTFIRE</title>
<ellipse fill="lightblue" stroke="black" cx="1914.2" cy="-246.72" rx="73.58" ry="73.58"/>
<text text-anchor="middle" x="1914.2" y="-244.52" font-family="Times,serif" font-size="9.00">DOWNRIGHTFIRE</text>
</g>
<!-- 2477 -->
<g id="node21" class="node">
<title>2477</title>
<ellipse fill="white" stroke="black" cx="519.2" cy="-246.72" rx="28.98" ry="28.98"/>
<text text-anchor="middle" x="519.2" y="-244.52" font-family="Times,serif" font-size="9.00">2477</text>
</g>
<!-- 2477&#45;&gt;RIGHT -->
<g id="edge3" class="edge">
<title>2477&#45;&gt;RIGHT</title>
<path fill="none" stroke="red" stroke-width="0.38" d="M519.2,-217.42C519.2,-189.17 519.2,-145.37 519.2,-112.77"/>
<polygon fill="red" stroke="red" stroke-width="0.38" points="522.7,-112.62 519.2,-102.62 515.7,-112.62 522.7,-112.62"/>
</g>
</g>
</svg>
