<?xml version="1.0" encoding="UTF-8" standalone="no"?>
<!DOCTYPE svg PUBLIC "-//W3C//DTD SVG 1.1//EN"
 "http://www.w3.org/Graphics/SVG/1.1/DTD/svg11.dtd">
<!-- Generated by graphviz version 2.43.0 (0)
 -->
<!-- Title: %3 Pages: 1 -->
<svg width="1376pt" height="527pt"
 viewBox="0.00 0.00 1375.93 526.77" xmlns="http://www.w3.org/2000/svg" xmlns:xlink="http://www.w3.org/1999/xlink">
<g id="graph0" class="graph" transform="scale(1 1) rotate(0) translate(4 522.77)">
<title>%3</title>
<polygon fill="white" stroke="transparent" points="-4,4 -4,-522.77 1371.93,-522.77 1371.93,4 -4,4"/>
<!-- ball_direction -->
<g id="node1" class="node">
<title>ball_direction</title>
<polygon fill="lightgray" stroke="black" points="152.94,-495.24 72.94,-495.24 72.94,-477.24 152.94,-477.24 152.94,-495.24"/>
<text text-anchor="middle" x="112.94" y="-484.04" font-family="Times,serif" font-size="9.00">ball_direction</text>
</g>
<!-- 314 -->
<g id="node20" class="node">
<title>314</title>
<ellipse fill="white" stroke="black" cx="84.94" cy="-162.57" rx="25" ry="25"/>
<text text-anchor="middle" x="84.94" y="-160.37" font-family="Times,serif" font-size="9.00">314</text>
</g>
<!-- ball_direction&#45;&gt;314 -->
<g id="edge2" class="edge">
<title>ball_direction&#45;&gt;314</title>
<path fill="none" stroke="green" stroke-width="0.35" stroke-dasharray="1,5" d="M100.55,-477.22C84.63,-466.08 57.77,-444.28 46.94,-417.71 14.34,-337.71 22.8,-306.27 46.94,-223.32 50.31,-211.75 56.67,-200.29 63.23,-190.54"/>
<polygon fill="green" stroke="green" stroke-width="0.35" points="66.28,-192.29 69.24,-182.12 60.58,-188.22 66.28,-192.29"/>
</g>
<!-- 2440 -->
<g id="node24" class="node">
<title>2440</title>
<ellipse fill="white" stroke="black" cx="84.94" cy="-367.51" rx="28.98" ry="28.98"/>
<text text-anchor="middle" x="84.94" y="-365.31" font-family="Times,serif" font-size="9.00">2440</text>
</g>
<!-- ball_direction&#45;&gt;2440 -->
<g id="edge4" class="edge">
<title>ball_direction&#45;&gt;2440</title>
<path fill="none" stroke="red" stroke-width="0.27" d="M111.02,-477.22C107.53,-462.66 99.95,-431.08 93.86,-405.68"/>
<polygon fill="red" stroke="red" stroke-width="0.27" points="97.26,-404.86 91.52,-395.95 90.45,-406.49 97.26,-404.86"/>
</g>
<!-- LEFT -->
<g id="node26" class="node">
<title>LEFT</title>
<ellipse fill="none" stroke="black" cx="84.94" cy="-252.31" rx="28.98" ry="28.98"/>
<text text-anchor="middle" x="84.94" y="-250.11" font-family="Times,serif" font-size="9.00">LEFT</text>
</g>
<!-- ball_direction&#45;&gt;LEFT -->
<g id="edge1" class="edge">
<title>ball_direction&#45;&gt;LEFT</title>
<path fill="none" stroke="green" stroke-width="1.38" d="M115.27,-477.01C121.88,-452.28 139.26,-376.73 122.94,-317.3 119.77,-305.74 113.9,-294.15 107.71,-284.07"/>
<polygon fill="green" stroke="green" stroke-width="1.38" points="110.62,-282.13 102.24,-275.64 104.75,-285.94 110.62,-282.13"/>
</g>
<!-- RIGHTFIRE -->
<g id="node27" class="node">
<title>RIGHTFIRE</title>
<ellipse fill="none" stroke="black" cx="219.94" cy="-367.51" rx="50.41" ry="50.41"/>
<text text-anchor="middle" x="219.94" y="-365.31" font-family="Times,serif" font-size="9.00">RIGHTFIRE</text>
</g>
<!-- ball_direction&#45;&gt;RIGHTFIRE -->
<g id="edge7" class="edge">
<title>ball_direction&#45;&gt;RIGHTFIRE</title>
<path fill="none" stroke="green" stroke-width="0.2" d="M120.3,-477.22C132.44,-463.97 157.52,-436.6 179.48,-412.65"/>
<polygon fill="green" stroke="green" stroke-width="0.2" points="182.31,-414.75 186.48,-405.01 177.15,-410.02 182.31,-414.75"/>
</g>
<!-- NOOP -->
<g id="node2" class="node">
<title>NOOP</title>
<ellipse fill="lightblue" stroke="black" cx="203.94" cy="-486.24" rx="32.55" ry="32.55"/>
<text text-anchor="middle" x="203.94" y="-484.04" font-family="Times,serif" font-size="9.00">NOOP</text>
</g>
<!-- FIRE -->
<g id="node3" class="node">
<title>FIRE</title>
<ellipse fill="lightblue" stroke="black" cx="282.94" cy="-486.24" rx="28.07" ry="28.07"/>
<text text-anchor="middle" x="282.94" y="-484.04" font-family="Times,serif" font-size="9.00">FIRE</text>
</g>
<!-- UP -->
<g id="node4" class="node">
<title>UP</title>
<ellipse fill="lightblue" stroke="black" cx="349.94" cy="-486.24" rx="21.43" ry="21.43"/>
<text text-anchor="middle" x="349.94" y="-484.04" font-family="Times,serif" font-size="9.00">UP</text>
</g>
<!-- RIGHT -->
<g id="node5" class="node">
<title>RIGHT</title>
<ellipse fill="lightblue" stroke="black" cx="33.94" cy="-50.91" rx="33.88" ry="33.88"/>
<text text-anchor="middle" x="33.94" y="-48.71" font-family="Times,serif" font-size="9.00">RIGHT</text>
</g>
<!-- 4 -->
<g id="node6" class="node">
<title>4</title>
<ellipse fill="white" stroke="black" cx="404.94" cy="-486.24" rx="16.03" ry="16.03"/>
<text text-anchor="middle" x="404.94" y="-484.04" font-family="Times,serif" font-size="9.00">4</text>
</g>
<!-- 5 -->
<g id="node7" class="node">
<title>5</title>
<ellipse fill="white" stroke="black" cx="455.94" cy="-486.24" rx="16.03" ry="16.03"/>
<text text-anchor="middle" x="455.94" y="-484.04" font-family="Times,serif" font-size="9.00">5</text>
</g>
<!-- 6 -->
<g id="node8" class="node">
<title>6</title>
<ellipse fill="white" stroke="black" cx="506.94" cy="-486.24" rx="16.03" ry="16.03"/>
<text text-anchor="middle" x="506.94" y="-484.04" font-family="Times,serif" font-size="9.00">6</text>
</g>
<!-- 7 -->
<g id="node9" class="node">
<title>7</title>
<ellipse fill="white" stroke="black" cx="557.94" cy="-486.24" rx="16.03" ry="16.03"/>
<text text-anchor="middle" x="557.94" y="-484.04" font-family="Times,serif" font-size="9.00">7</text>
</g>
<!-- 8 -->
<g id="node10" class="node">
<title>8</title>
<ellipse fill="white" stroke="black" cx="608.94" cy="-486.24" rx="16.03" ry="16.03"/>
<text text-anchor="middle" x="608.94" y="-484.04" font-family="Times,serif" font-size="9.00">8</text>
</g>
<!-- 9 -->
<g id="node11" class="node">
<title>9</title>
<ellipse fill="white" stroke="black" cx="659.94" cy="-486.24" rx="16.03" ry="16.03"/>
<text text-anchor="middle" x="659.94" y="-484.04" font-family="Times,serif" font-size="9.00">9</text>
</g>
<!-- 10 -->
<g id="node12" class="node">
<title>10</title>
<ellipse fill="white" stroke="black" cx="714.94" cy="-486.24" rx="20.51" ry="20.51"/>
<text text-anchor="middle" x="714.94" y="-484.04" font-family="Times,serif" font-size="9.00">10</text>
</g>
<!-- 11 -->
<g id="node13" class="node">
<title>11</title>
<ellipse fill="white" stroke="black" cx="773.94" cy="-486.24" rx="20.51" ry="20.51"/>
<text text-anchor="middle" x="773.94" y="-484.04" font-family="Times,serif" font-size="9.00">11</text>
</g>
<!-- 12 -->
<g id="node14" class="node">
<title>12</title>
<ellipse fill="white" stroke="black" cx="832.94" cy="-486.24" rx="20.51" ry="20.51"/>
<text text-anchor="middle" x="832.94" y="-484.04" font-family="Times,serif" font-size="9.00">12</text>
</g>
<!-- 13 -->
<g id="node15" class="node">
<title>13</title>
<ellipse fill="white" stroke="black" cx="891.94" cy="-486.24" rx="20.51" ry="20.51"/>
<text text-anchor="middle" x="891.94" y="-484.04" font-family="Times,serif" font-size="9.00">13</text>
</g>
<!-- 14 -->
<g id="node16" class="node">
<title>14</title>
<ellipse fill="white" stroke="black" cx="950.94" cy="-486.24" rx="20.51" ry="20.51"/>
<text text-anchor="middle" x="950.94" y="-484.04" font-family="Times,serif" font-size="9.00">14</text>
</g>
<!-- 15 -->
<g id="node17" class="node">
<title>15</title>
<ellipse fill="white" stroke="black" cx="1009.94" cy="-486.24" rx="20.51" ry="20.51"/>
<text text-anchor="middle" x="1009.94" y="-484.04" font-family="Times,serif" font-size="9.00">15</text>
</g>
<!-- 16 -->
<g id="node18" class="node">
<title>16</title>
<ellipse fill="white" stroke="black" cx="1068.94" cy="-486.24" rx="20.51" ry="20.51"/>
<text text-anchor="middle" x="1068.94" y="-484.04" font-family="Times,serif" font-size="9.00">16</text>
</g>
<!-- 17 -->
<g id="node19" class="node">
<title>17</title>
<ellipse fill="white" stroke="black" cx="1127.94" cy="-486.24" rx="20.51" ry="20.51"/>
<text text-anchor="middle" x="1127.94" y="-484.04" font-family="Times,serif" font-size="9.00">17</text>
</g>
<!-- 314&#45;&gt;RIGHT -->
<g id="edge3" class="edge">
<title>314&#45;&gt;RIGHT</title>
<path fill="none" stroke="red" stroke-width="0.15" d="M74.87,-139.91C68.46,-126.13 59.97,-107.88 52.39,-91.58"/>
<polygon fill="red" stroke="red" stroke-width="0.15" points="55.44,-89.84 48.05,-82.25 49.09,-92.79 55.44,-89.84"/>
</g>
<!-- DOWNFIRE -->
<g id="node28" class="node">
<title>DOWNFIRE</title>
<ellipse fill="none" stroke="black" cx="136.94" cy="-50.91" rx="50.82" ry="50.82"/>
<text text-anchor="middle" x="136.94" y="-48.71" font-family="Times,serif" font-size="9.00">DOWNFIRE</text>
</g>
<!-- 314&#45;&gt;DOWNFIRE -->
<g id="edge9" class="edge">
<title>314&#45;&gt;DOWNFIRE</title>
<path fill="none" stroke="red" stroke-width="0.38" d="M95.21,-139.91C99.84,-130.16 105.52,-118.17 111.19,-106.21"/>
<polygon fill="red" stroke="red" stroke-width="0.38" points="114.38,-107.65 115.51,-97.11 108.06,-104.65 114.38,-107.65"/>
</g>
<!-- 912 -->
<g id="node21" class="node">
<title>912</title>
<ellipse fill="white" stroke="black" cx="1190.94" cy="-486.24" rx="25" ry="25"/>
<text text-anchor="middle" x="1190.94" y="-484.04" font-family="Times,serif" font-size="9.00">912</text>
</g>
<!-- 1211 -->
<g id="node22" class="node">
<title>1211</title>
<ellipse fill="white" stroke="black" cx="1262.94" cy="-486.24" rx="28.98" ry="28.98"/>
<text text-anchor="middle" x="1262.94" y="-484.04" font-family="Times,serif" font-size="9.00">1211</text>
</g>
<!-- 1826 -->
<g id="node23" class="node">
<title>1826</title>
<ellipse fill="white" stroke="black" cx="1338.94" cy="-486.24" rx="28.98" ry="28.98"/>
<text text-anchor="middle" x="1338.94" y="-484.04" font-family="Times,serif" font-size="9.00">1826</text>
</g>
<!-- 2440&#45;&gt;LEFT -->
<g id="edge5" class="edge">
<title>2440&#45;&gt;LEFT</title>
<path fill="none" stroke="green" stroke-width="0.42" d="M84.94,-338.24C84.94,-324.19 84.94,-307.01 84.94,-291.78"/>
<polygon fill="green" stroke="green" stroke-width="0.42" points="88.44,-291.62 84.94,-281.62 81.44,-291.62 88.44,-291.62"/>
</g>
<!-- 2723 -->
<g id="node25" class="node">
<title>2723</title>
<ellipse fill="white" stroke="black" cx="160.94" cy="-252.31" rx="28.98" ry="28.98"/>
<text text-anchor="middle" x="160.94" y="-250.11" font-family="Times,serif" font-size="9.00">2723</text>
</g>
<!-- 2723&#45;&gt;314 -->
<g id="edge8" class="edge">
<title>2723&#45;&gt;314</title>
<path fill="none" stroke="red" stroke-width="0.18" d="M142.15,-229.62C131.6,-217.44 118.36,-202.15 107.27,-189.35"/>
<polygon fill="red" stroke="red" stroke-width="0.18" points="109.89,-187.02 100.69,-181.76 104.59,-191.61 109.89,-187.02"/>
</g>
<!-- LEFT&#45;&gt;314 -->
<g id="edge6" class="edge">
<title>LEFT&#45;&gt;314</title>
<path fill="none" stroke="red" stroke-width="0.38" stroke-dasharray="1,5" d="M84.94,-223.07C84.94,-214.88 84.94,-205.85 84.94,-197.35"/>
<polygon fill="red" stroke="red" stroke-width="0.38" points="88.44,-197.35 84.94,-187.35 81.44,-197.35 88.44,-197.35"/>
</g>
</g>
</svg>
