<?xml version="1.0" encoding="UTF-8" standalone="no"?>
<!DOCTYPE svg PUBLIC "-//W3C//DTD SVG 1.1//EN"
 "http://www.w3.org/Graphics/SVG/1.1/DTD/svg11.dtd">
<!-- Generated by graphviz version 2.43.0 (0)
 -->
<!-- Title: %3 Pages: 1 -->
<svg width="2209pt" height="395pt"
 viewBox="0.00 0.00 2208.83 395.37" xmlns="http://www.w3.org/2000/svg" xmlns:xlink="http://www.w3.org/1999/xlink">
<g id="graph0" class="graph" transform="scale(1 1) rotate(0) translate(4 391.37)">
<title>%3</title>
<polygon fill="white" stroke="transparent" points="-4,4 -4,-391.37 2204.83,-391.37 2204.83,4 -4,4"/>
<!-- ball_left -->
<g id="node1" class="node">
<title>ball_left</title>
<polygon fill="lightgray" stroke="black" points="142.34,-322.83 89.34,-322.83 89.34,-304.83 142.34,-304.83 142.34,-322.83"/>
<text text-anchor="middle" x="115.84" y="-311.63" font-family="Times,serif" font-size="9.00">ball_left</text>
</g>
<!-- UPRIGHT -->
<g id="node10" class="node">
<title>UPRIGHT</title>
<ellipse fill="lightblue" stroke="black" cx="43.84" cy="-149.14" rx="43.68" ry="43.68"/>
<text text-anchor="middle" x="43.84" y="-146.94" font-family="Times,serif" font-size="9.00">UPRIGHT</text>
</g>
<!-- ball_left&#45;&gt;UPRIGHT -->
<g id="edge1" class="edge">
<title>ball_left&#45;&gt;UPRIGHT</title>
<path fill="none" stroke="red" stroke-width="0.42" d="M112.17,-304.54C103.66,-285.32 82.05,-236.48 65.39,-198.84"/>
<polygon fill="red" stroke="red" stroke-width="0.42" points="68.52,-197.26 61.27,-189.53 62.12,-200.09 68.52,-197.26"/>
</g>
<!-- 4302 -->
<g id="node23" class="node">
<title>4302</title>
<ellipse fill="white" stroke="black" cx="144.84" cy="-28.99" rx="28.98" ry="28.98"/>
<text text-anchor="middle" x="144.84" y="-26.79" font-family="Times,serif" font-size="9.00">4302</text>
</g>
<!-- ball_left&#45;&gt;4302 -->
<g id="edge4" class="edge">
<title>ball_left&#45;&gt;4302</title>
<path fill="none" stroke="green" stroke-width="0.61" stroke-dasharray="1,5" d="M116.36,-304.46C118.21,-275.34 124.91,-175.76 134.84,-93.98 135.87,-85.49 137.17,-76.4 138.49,-67.81"/>
<polygon fill="green" stroke="green" stroke-width="0.61" points="141.99,-68.08 140.09,-57.65 135.08,-66.98 141.99,-68.08"/>
</g>
<!-- 4468 -->
<g id="node25" class="node">
<title>4468</title>
<ellipse fill="white" stroke="black" cx="172.84" cy="-149.14" rx="28.98" ry="28.98"/>
<text text-anchor="middle" x="172.84" y="-146.94" font-family="Times,serif" font-size="9.00">4468</text>
</g>
<!-- ball_left&#45;&gt;4468 -->
<g id="edge7" class="edge">
<title>ball_left&#45;&gt;4468</title>
<path fill="none" stroke="green" stroke-width="0.33" d="M118.75,-304.54C126.24,-283.14 146.6,-225.04 160.09,-186.53"/>
<polygon fill="green" stroke="green" stroke-width="0.33" points="163.52,-187.31 163.53,-176.72 156.92,-185 163.52,-187.31"/>
</g>
<!-- ball_right -->
<g id="node2" class="node">
<title>ball_right</title>
<polygon fill="lightgray" stroke="black" points="305.84,-322.83 243.84,-322.83 243.84,-304.83 305.84,-304.83 305.84,-322.83"/>
<text text-anchor="middle" x="274.84" y="-311.63" font-family="Times,serif" font-size="9.00">ball_right</text>
</g>
<!-- UPLEFTFIRE -->
<g id="node18" class="node">
<title>UPLEFTFIRE</title>
<ellipse fill="lightblue" stroke="black" cx="274.84" cy="-149.14" rx="55.31" ry="55.31"/>
<text text-anchor="middle" x="274.84" y="-146.94" font-family="Times,serif" font-size="9.00">UPLEFTFIRE</text>
</g>
<!-- ball_right&#45;&gt;UPLEFTFIRE -->
<g id="edge2" class="edge">
<title>ball_right&#45;&gt;UPLEFTFIRE</title>
<path fill="none" stroke="red" stroke-width="1.32" d="M274.84,-304.54C274.84,-287.92 274.84,-249.16 274.84,-214.64"/>
<polygon fill="red" stroke="red" stroke-width="1.32" points="278.34,-214.56 274.84,-204.56 271.34,-214.56 278.34,-214.56"/>
</g>
<!-- ball_out_field -->
<g id="node3" class="node">
<title>ball_out_field</title>
<polygon fill="lightgray" stroke="black" points="401.84,-322.83 323.84,-322.83 323.84,-304.83 401.84,-304.83 401.84,-322.83"/>
<text text-anchor="middle" x="362.84" y="-311.63" font-family="Times,serif" font-size="9.00">ball_out_field</text>
</g>
<!-- NOOP -->
<g id="node4" class="node">
<title>NOOP</title>
<ellipse fill="lightblue" stroke="black" cx="452.84" cy="-313.83" rx="32.55" ry="32.55"/>
<text text-anchor="middle" x="452.84" y="-311.63" font-family="Times,serif" font-size="9.00">NOOP</text>
</g>
<!-- FIRE -->
<g id="node5" class="node">
<title>FIRE</title>
<ellipse fill="lightblue" stroke="black" cx="531.84" cy="-313.83" rx="28.07" ry="28.07"/>
<text text-anchor="middle" x="531.84" y="-311.63" font-family="Times,serif" font-size="9.00">FIRE</text>
</g>
<!-- RIGHT -->
<g id="node6" class="node">
<title>RIGHT</title>
<ellipse fill="lightblue" stroke="black" cx="611.84" cy="-313.83" rx="33.88" ry="33.88"/>
<text text-anchor="middle" x="611.84" y="-311.63" font-family="Times,serif" font-size="9.00">RIGHT</text>
</g>
<!-- LEFT -->
<g id="node7" class="node">
<title>LEFT</title>
<ellipse fill="lightblue" stroke="black" cx="692.84" cy="-313.83" rx="28.98" ry="28.98"/>
<text text-anchor="middle" x="692.84" y="-311.63" font-family="Times,serif" font-size="9.00">LEFT</text>
</g>
<!-- 4171 -->
<g id="node22" class="node">
<title>4171</title>
<ellipse fill="white" stroke="black" cx="691.84" cy="-28.99" rx="28.98" ry="28.98"/>
<text text-anchor="middle" x="691.84" y="-26.79" font-family="Times,serif" font-size="9.00">4171</text>
</g>
<!-- LEFT&#45;&gt;4171 -->
<g id="edge3" class="edge">
<title>LEFT&#45;&gt;4171</title>
<path fill="none" stroke="red" stroke-width="0.17" stroke-dasharray="1,5" d="M689.54,-284.77C687.14,-262.88 684.1,-231.7 682.84,-204.29 680.59,-155.32 679.42,-142.89 682.84,-93.98 683.44,-85.47 684.47,-76.37 685.64,-67.77"/>
<polygon fill="red" stroke="red" stroke-width="0.17" points="689.14,-68.02 687.09,-57.62 682.21,-67.02 689.14,-68.02"/>
</g>
<!-- 4348 -->
<g id="node24" class="node">
<title>4348</title>
<ellipse fill="white" stroke="black" cx="720.84" cy="-149.14" rx="28.98" ry="28.98"/>
<text text-anchor="middle" x="720.84" y="-146.94" font-family="Times,serif" font-size="9.00">4348</text>
</g>
<!-- LEFT&#45;&gt;4348 -->
<g id="edge5" class="edge">
<title>LEFT&#45;&gt;4348</title>
<path fill="none" stroke="red" stroke-width="0.11" stroke-dasharray="1,5" d="M697.65,-284.86C702.27,-258.04 709.27,-217.36 714.37,-187.72"/>
<polygon fill="red" stroke="red" stroke-width="0.11" points="717.84,-188.19 716.09,-177.74 710.94,-187 717.84,-188.19"/>
</g>
<!-- RIGHTFIRE -->
<g id="node8" class="node">
<title>RIGHTFIRE</title>
<ellipse fill="lightblue" stroke="black" cx="789.84" cy="-313.83" rx="50.41" ry="50.41"/>
<text text-anchor="middle" x="789.84" y="-311.63" font-family="Times,serif" font-size="9.00">RIGHTFIRE</text>
</g>
<!-- LEFTRIGHTFIRE -->
<g id="node9" class="node">
<title>LEFTRIGHTFIRE</title>
<ellipse fill="lightblue" stroke="black" cx="925.84" cy="-313.83" rx="67.76" ry="67.76"/>
<text text-anchor="middle" x="925.84" y="-311.63" font-family="Times,serif" font-size="9.00">LEFTRIGHTFIRE</text>
</g>
<!-- UPLEFT -->
<g id="node11" class="node">
<title>UPLEFT</title>
<ellipse fill="lightblue" stroke="black" cx="1050.84" cy="-313.83" rx="38.78" ry="38.78"/>
<text text-anchor="middle" x="1050.84" y="-311.63" font-family="Times,serif" font-size="9.00">UPLEFT</text>
</g>
<!-- DOWNRIGHT -->
<g id="node12" class="node">
<title>DOWNRIGHT</title>
<ellipse fill="lightblue" stroke="black" cx="1163.84" cy="-313.83" rx="56.64" ry="56.64"/>
<text text-anchor="middle" x="1163.84" y="-311.63" font-family="Times,serif" font-size="9.00">DOWNRIGHT</text>
</g>
<!-- DOWNLEFT -->
<g id="node13" class="node">
<title>DOWNLEFT</title>
<ellipse fill="lightblue" stroke="black" cx="1290.84" cy="-313.83" rx="52.15" ry="52.15"/>
<text text-anchor="middle" x="1290.84" y="-311.63" font-family="Times,serif" font-size="9.00">DOWNLEFT</text>
</g>
<!-- UPFIRE -->
<g id="node14" class="node">
<title>UPFIRE</title>
<ellipse fill="lightblue" stroke="black" cx="1398.84" cy="-313.83" rx="37.45" ry="37.45"/>
<text text-anchor="middle" x="1398.84" y="-311.63" font-family="Times,serif" font-size="9.00">UPFIRE</text>
</g>
<!-- LEFTFIRE -->
<g id="node15" class="node">
<title>LEFTFIRE</title>
<ellipse fill="lightblue" stroke="black" cx="1499.84" cy="-313.83" rx="45.92" ry="45.92"/>
<text text-anchor="middle" x="1499.84" y="-311.63" font-family="Times,serif" font-size="9.00">LEFTFIRE</text>
</g>
<!-- DOWNFIRE -->
<g id="node16" class="node">
<title>DOWNFIRE</title>
<ellipse fill="lightblue" stroke="black" cx="1614.84" cy="-313.83" rx="50.82" ry="50.82"/>
<text text-anchor="middle" x="1614.84" y="-311.63" font-family="Times,serif" font-size="9.00">DOWNFIRE</text>
</g>
<!-- UPRIGHTFIRE -->
<g id="node17" class="node">
<title>UPRIGHTFIRE</title>
<ellipse fill="lightblue" stroke="black" cx="1743.84" cy="-313.83" rx="60.21" ry="60.21"/>
<text text-anchor="middle" x="1743.84" y="-311.63" font-family="Times,serif" font-size="9.00">UPRIGHTFIRE</text>
</g>
<!-- DOWNRIGHTFIRE -->
<g id="node19" class="node">
<title>DOWNRIGHTFIRE</title>
<ellipse fill="lightblue" stroke="black" cx="1895.84" cy="-313.83" rx="73.58" ry="73.58"/>
<text text-anchor="middle" x="1895.84" y="-311.63" font-family="Times,serif" font-size="9.00">DOWNRIGHTFIRE</text>
</g>
<!-- DOWNLEFTFIRE -->
<g id="node20" class="node">
<title>DOWNLEFTFIRE</title>
<ellipse fill="lightblue" stroke="black" cx="2055.84" cy="-313.83" rx="68.68" ry="68.68"/>
<text text-anchor="middle" x="2055.84" y="-311.63" font-family="Times,serif" font-size="9.00">DOWNLEFTFIRE</text>
</g>
<!-- 3770 -->
<g id="node21" class="node">
<title>3770</title>
<ellipse fill="white" stroke="black" cx="2171.84" cy="-313.83" rx="28.98" ry="28.98"/>
<text text-anchor="middle" x="2171.84" y="-311.63" font-family="Times,serif" font-size="9.00">3770</text>
</g>
<!-- 4348&#45;&gt;4171 -->
<g id="edge6" class="edge">
<title>4348&#45;&gt;4171</title>
<path fill="none" stroke="red" stroke-width="0.39" d="M714.11,-120.74C710.2,-104.78 705.21,-84.45 700.94,-67.08"/>
<polygon fill="red" stroke="red" stroke-width="0.39" points="704.31,-66.12 698.53,-57.24 697.52,-67.79 704.31,-66.12"/>
</g>
<!-- 4468&#45;&gt;4302 -->
<g id="edge8" class="edge">
<title>4468&#45;&gt;4302</title>
<path fill="none" stroke="red" stroke-width="0.31" d="M166.35,-120.74C162.59,-104.89 157.82,-84.74 153.72,-67.45"/>
<polygon fill="red" stroke="red" stroke-width="0.31" points="157.11,-66.58 151.4,-57.65 150.3,-68.19 157.11,-66.58"/>
</g>
</g>
</svg>
