<?xml version="1.0" encoding="UTF-8" standalone="no"?>
<!DOCTYPE svg PUBLIC "-//W3C//DTD SVG 1.1//EN"
 "http://www.w3.org/Graphics/SVG/1.1/DTD/svg11.dtd">
<!-- Generated by graphviz version 2.43.0 (0)
 -->
<!-- Title: %3 Pages: 1 -->
<svg width="523pt" height="262pt"
 viewBox="0.00 0.00 522.99 262.43" xmlns="http://www.w3.org/2000/svg" xmlns:xlink="http://www.w3.org/1999/xlink">
<g id="graph0" class="graph" transform="scale(1 1) rotate(0) translate(4 258.43)">
<title>%3</title>
<polygon fill="white" stroke="transparent" points="-4,4 -4,-258.43 518.99,-258.43 518.99,4 -4,4"/>
<!-- player_x -->
<g id="node1" class="node">
<title>player_x</title>
<polygon fill="lightgray" stroke="black" points="56,-130.56 0,-130.56 0,-112.56 56,-112.56 56,-130.56"/>
<text text-anchor="middle" x="28" y="-119.36" font-family="Times,serif" font-size="9.00">player_x</text>
</g>
<!-- FIRE -->
<g id="node6" class="node">
<title>FIRE</title>
<ellipse fill="lightblue" stroke="black" cx="84" cy="-28.28" rx="28.07" ry="28.07"/>
<text text-anchor="middle" x="84" y="-26.08" font-family="Times,serif" font-size="9.00">FIRE</text>
</g>
<!-- player_x&#45;&gt;FIRE -->
<g id="edge1" class="edge">
<title>player_x&#45;&gt;FIRE</title>
<path fill="none" stroke="red" stroke-width="0.37" stroke-dasharray="1,5" d="M32.97,-112.46C39.96,-101.06 53.11,-79.64 64.3,-61.39"/>
<polygon fill="red" stroke="red" stroke-width="0.37" points="67.36,-63.1 69.61,-52.75 61.39,-59.44 67.36,-63.1"/>
</g>
<!-- player_y -->
<g id="node2" class="node">
<title>player_y</title>
<polygon fill="lightgray" stroke="black" points="208,-229.49 152,-229.49 152,-211.49 208,-211.49 208,-229.49"/>
<text text-anchor="middle" x="180" y="-218.29" font-family="Times,serif" font-size="9.00">player_y</text>
</g>
<!-- ball_x -->
<g id="node3" class="node">
<title>ball_x</title>
<polygon fill="lightgray" stroke="black" points="134,-229.49 90,-229.49 90,-211.49 134,-211.49 134,-229.49"/>
<text text-anchor="middle" x="112" y="-218.29" font-family="Times,serif" font-size="9.00">ball_x</text>
</g>
<!-- ball_x&#45;&gt;FIRE -->
<g id="edge3" class="edge">
<title>ball_x&#45;&gt;FIRE</title>
<path fill="none" stroke="red" stroke-width="0.57" stroke-dasharray="1,5" d="M110.8,-211.32C107.17,-186.71 96.21,-112.21 89.48,-66.51"/>
<polygon fill="red" stroke="red" stroke-width="0.57" points="92.91,-65.77 87.99,-56.38 85.98,-66.79 92.91,-65.77"/>
</g>
<!-- 1677 -->
<g id="node10" class="node">
<title>1677</title>
<ellipse fill="white" stroke="black" cx="141" cy="-121.56" rx="28.98" ry="28.98"/>
<text text-anchor="middle" x="141" y="-119.36" font-family="Times,serif" font-size="9.00">1677</text>
</g>
<!-- ball_x&#45;&gt;1677 -->
<g id="edge4" class="edge">
<title>ball_x&#45;&gt;1677</title>
<path fill="none" stroke="green" stroke-width="0.26" d="M114.47,-211.23C117.9,-199.77 124.32,-178.31 129.98,-159.38"/>
<polygon fill="green" stroke="green" stroke-width="0.26" points="133.34,-160.36 132.86,-149.77 126.64,-158.35 133.34,-160.36"/>
</g>
<!-- ball_y -->
<g id="node4" class="node">
<title>ball_y</title>
<polygon fill="lightgray" stroke="black" points="270,-229.49 226,-229.49 226,-211.49 270,-211.49 270,-229.49"/>
<text text-anchor="middle" x="248" y="-218.29" font-family="Times,serif" font-size="9.00">ball_y</text>
</g>
<!-- LEFT -->
<g id="node8" class="node">
<title>LEFT</title>
<ellipse fill="lightblue" stroke="black" cx="248" cy="-121.56" rx="28.98" ry="28.98"/>
<text text-anchor="middle" x="248" y="-119.36" font-family="Times,serif" font-size="9.00">LEFT</text>
</g>
<!-- ball_y&#45;&gt;LEFT -->
<g id="edge2" class="edge">
<title>ball_y&#45;&gt;LEFT</title>
<path fill="none" stroke="green" stroke-width="0.42" d="M248,-211.23C248,-200.03 248,-179.28 248,-160.67"/>
<polygon fill="green" stroke="green" stroke-width="0.42" points="251.5,-160.63 248,-150.63 244.5,-160.63 251.5,-160.63"/>
</g>
<!-- NOOP -->
<g id="node5" class="node">
<title>NOOP</title>
<ellipse fill="lightblue" stroke="black" cx="321" cy="-220.49" rx="32.55" ry="32.55"/>
<text text-anchor="middle" x="321" y="-218.29" font-family="Times,serif" font-size="9.00">NOOP</text>
</g>
<!-- RIGHT -->
<g id="node7" class="node">
<title>RIGHT</title>
<ellipse fill="lightblue" stroke="black" cx="405" cy="-220.49" rx="33.88" ry="33.88"/>
<text text-anchor="middle" x="405" y="-218.29" font-family="Times,serif" font-size="9.00">RIGHT</text>
</g>
<!-- 1107 -->
<g id="node9" class="node">
<title>1107</title>
<ellipse fill="white" stroke="black" cx="486" cy="-220.49" rx="28.98" ry="28.98"/>
<text text-anchor="middle" x="486" y="-218.29" font-family="Times,serif" font-size="9.00">1107</text>
</g>
<!-- 1677&#45;&gt;FIRE -->
<g id="edge5" class="edge">
<title>1677&#45;&gt;FIRE</title>
<path fill="none" stroke="green" stroke-width="0.86" d="M126.02,-96.58C119.3,-85.8 111.26,-72.93 104.02,-61.34"/>
<polygon fill="green" stroke="green" stroke-width="0.86" points="106.94,-59.42 98.68,-52.79 101.01,-63.13 106.94,-59.42"/>
</g>
</g>
</svg>
