<?xml version="1.0" encoding="UTF-8" standalone="no"?>
<!DOCTYPE svg PUBLIC "-//W3C//DTD SVG 1.1//EN"
 "http://www.w3.org/Graphics/SVG/1.1/DTD/svg11.dtd">
<!-- Generated by graphviz version 2.43.0 (0)
 -->
<!-- Title: %3 Pages: 1 -->
<svg width="420pt" height="271pt"
 viewBox="0.00 0.00 420.28 270.92" xmlns="http://www.w3.org/2000/svg" xmlns:xlink="http://www.w3.org/1999/xlink">
<g id="graph0" class="graph" transform="scale(1 1) rotate(0) translate(4 266.92)">
<title>%3</title>
<polygon fill="white" stroke="transparent" points="-4,4 -4,-266.92 416.28,-266.92 416.28,4 -4,4"/>
<!-- player_x -->
<g id="node1" class="node">
<title>player_x</title>
<polygon fill="lightgray" stroke="black" points="56,-239.39 0,-239.39 0,-221.39 56,-221.39 56,-239.39"/>
<text text-anchor="middle" x="28" y="-228.19" font-family="Times,serif" font-size="9.00">player_x</text>
</g>
<!-- LEFT -->
<g id="node8" class="node">
<title>LEFT</title>
<ellipse fill="lightblue" stroke="black" cx="29" cy="-33.94" rx="28.98" ry="28.98"/>
<text text-anchor="middle" x="29" y="-31.74" font-family="Times,serif" font-size="9.00">LEFT</text>
</g>
<!-- player_x&#45;&gt;LEFT -->
<g id="edge1" class="edge">
<title>player_x&#45;&gt;LEFT</title>
<path fill="none" stroke="green" stroke-width="1.33" stroke-dasharray="1,5" d="M26.54,-221.11C24.37,-208.41 20.43,-183.34 19,-161.87 17.29,-136.15 17.15,-129.59 19,-103.88 19.73,-93.77 21.05,-82.88 22.51,-72.81"/>
<polygon fill="green" stroke="green" stroke-width="1.33" points="26,-73.1 24.05,-62.68 19.08,-72.04 26,-73.1"/>
</g>
<!-- 4553 -->
<g id="node10" class="node">
<title>4553</title>
<ellipse fill="white" stroke="black" cx="57" cy="-132.87" rx="28.98" ry="28.98"/>
<text text-anchor="middle" x="57" y="-130.67" font-family="Times,serif" font-size="9.00">4553</text>
</g>
<!-- player_x&#45;&gt;4553 -->
<g id="edge4" class="edge">
<title>player_x&#45;&gt;4553</title>
<path fill="none" stroke="green" stroke-width="0.35" d="M30.47,-221.25C33.86,-210.08 40.17,-189.29 45.79,-170.79"/>
<polygon fill="green" stroke="green" stroke-width="0.35" points="49.17,-171.7 48.73,-161.11 42.48,-169.66 49.17,-171.7"/>
</g>
<!-- player_y -->
<g id="node2" class="node">
<title>player_y</title>
<polygon fill="lightgray" stroke="black" points="130,-239.39 74,-239.39 74,-221.39 130,-221.39 130,-239.39"/>
<text text-anchor="middle" x="102" y="-228.19" font-family="Times,serif" font-size="9.00">player_y</text>
</g>
<!-- ball_x -->
<g id="node3" class="node">
<title>ball_x</title>
<polygon fill="lightgray" stroke="black" points="192,-239.39 148,-239.39 148,-221.39 192,-221.39 192,-239.39"/>
<text text-anchor="middle" x="170" y="-228.19" font-family="Times,serif" font-size="9.00">ball_x</text>
</g>
<!-- 179 -->
<g id="node9" class="node">
<title>179</title>
<ellipse fill="white" stroke="black" cx="170" cy="-132.87" rx="25" ry="25"/>
<text text-anchor="middle" x="170" y="-130.67" font-family="Times,serif" font-size="9.00">179</text>
</g>
<!-- ball_x&#45;&gt;179 -->
<g id="edge2" class="edge">
<title>ball_x&#45;&gt;179</title>
<path fill="none" stroke="green" stroke-width="0.53" d="M170,-221.25C170,-209.52 170,-187.19 170,-168.04"/>
<polygon fill="green" stroke="green" stroke-width="0.53" points="173.5,-167.82 170,-157.82 166.5,-167.82 173.5,-167.82"/>
</g>
<!-- ball_y -->
<g id="node4" class="node">
<title>ball_y</title>
<polygon fill="lightgray" stroke="black" points="254,-239.39 210,-239.39 210,-221.39 254,-221.39 254,-239.39"/>
<text text-anchor="middle" x="232" y="-228.19" font-family="Times,serif" font-size="9.00">ball_y</text>
</g>
<!-- NOOP -->
<g id="node5" class="node">
<title>NOOP</title>
<ellipse fill="lightblue" stroke="black" cx="305" cy="-230.39" rx="32.55" ry="32.55"/>
<text text-anchor="middle" x="305" y="-228.19" font-family="Times,serif" font-size="9.00">NOOP</text>
</g>
<!-- FIRE -->
<g id="node6" class="node">
<title>FIRE</title>
<ellipse fill="lightblue" stroke="black" cx="384" cy="-230.39" rx="28.07" ry="28.07"/>
<text text-anchor="middle" x="384" y="-228.19" font-family="Times,serif" font-size="9.00">FIRE</text>
</g>
<!-- RIGHT -->
<g id="node7" class="node">
<title>RIGHT</title>
<ellipse fill="lightblue" stroke="black" cx="170" cy="-33.94" rx="33.88" ry="33.88"/>
<text text-anchor="middle" x="170" y="-31.74" font-family="Times,serif" font-size="9.00">RIGHT</text>
</g>
<!-- 179&#45;&gt;RIGHT -->
<g id="edge3" class="edge">
<title>179&#45;&gt;RIGHT</title>
<path fill="none" stroke="green" stroke-width="0.88" d="M170,-107.91C170,-98.91 170,-88.39 170,-78.17"/>
<polygon fill="green" stroke="green" stroke-width="0.88" points="173.5,-78.13 170,-68.13 166.5,-78.13 173.5,-78.13"/>
</g>
<!-- 4553&#45;&gt;LEFT -->
<g id="edge5" class="edge">
<title>4553&#45;&gt;LEFT</title>
<path fill="none" stroke="green" stroke-width="1.51" d="M49.2,-104.87C46.25,-94.66 42.84,-82.87 39.68,-71.9"/>
<polygon fill="green" stroke="green" stroke-width="1.51" points="42.99,-70.77 36.85,-62.13 36.27,-72.71 42.99,-70.77"/>
</g>
</g>
</svg>
