<?xml version="1.0" encoding="UTF-8" standalone="no"?>
<!DOCTYPE svg PUBLIC "-//W3C//DTD SVG 1.1//EN"
 "http://www.w3.org/Graphics/SVG/1.1/DTD/svg11.dtd">
<!-- Generated by graphviz version 2.43.0 (0)
 -->
<!-- Title: %3 Pages: 1 -->
<svg width="563pt" height="264pt"
 viewBox="0.00 0.00 562.98 263.85" xmlns="http://www.w3.org/2000/svg" xmlns:xlink="http://www.w3.org/1999/xlink">
<g id="graph0" class="graph" transform="scale(1 1) rotate(0) translate(4 259.85)">
<title>%3</title>
<polygon fill="white" stroke="transparent" points="-4,4 -4,-259.85 558.98,-259.85 558.98,4 -4,4"/>
<!-- player_x -->
<g id="node1" class="node">
<title>player_x</title>
<polygon fill="lightgray" stroke="black" points="132.99,-235.86 76.99,-235.86 76.99,-217.86 132.99,-217.86 132.99,-235.86"/>
<text text-anchor="middle" x="104.99" y="-224.66" font-family="Times,serif" font-size="9.00">player_x</text>
</g>
<!-- LEFT -->
<g id="node8" class="node">
<title>LEFT</title>
<ellipse fill="lightblue" stroke="black" cx="28.99" cy="-132.87" rx="28.98" ry="28.98"/>
<text text-anchor="middle" x="28.99" y="-130.67" font-family="Times,serif" font-size="9.00">LEFT</text>
</g>
<!-- player_x&#45;&gt;LEFT -->
<g id="edge1" class="edge">
<title>player_x&#45;&gt;LEFT</title>
<path fill="none" stroke="green" stroke-width="1.02" d="M98.25,-217.69C88.33,-205.69 69.3,-182.66 53.69,-163.77"/>
<polygon fill="green" stroke="green" stroke-width="1.02" points="56.32,-161.45 47.25,-155.97 50.92,-165.91 56.32,-161.45"/>
</g>
<!-- 2801 -->
<g id="node11" class="node">
<title>2801</title>
<ellipse fill="white" stroke="black" cx="104.99" cy="-132.87" rx="28.98" ry="28.98"/>
<text text-anchor="middle" x="104.99" y="-130.67" font-family="Times,serif" font-size="9.00">2801</text>
</g>
<!-- player_x&#45;&gt;2801 -->
<g id="edge5" class="edge">
<title>player_x&#45;&gt;2801</title>
<path fill="none" stroke="green" stroke-width="0.24" stroke-dasharray="1,5" d="M104.99,-217.69C104.99,-207.43 104.99,-189.09 104.99,-172.17"/>
<polygon fill="green" stroke="green" stroke-width="0.24" points="108.49,-171.91 104.99,-161.91 101.49,-171.91 108.49,-171.91"/>
</g>
<!-- 3197 -->
<g id="node12" class="node">
<title>3197</title>
<ellipse fill="white" stroke="black" cx="180.99" cy="-132.87" rx="28.98" ry="28.98"/>
<text text-anchor="middle" x="180.99" y="-130.67" font-family="Times,serif" font-size="9.00">3197</text>
</g>
<!-- player_x&#45;&gt;3197 -->
<g id="edge6" class="edge">
<title>player_x&#45;&gt;3197</title>
<path fill="none" stroke="green" stroke-width="0.41" d="M111.74,-217.69C121.65,-205.69 140.68,-182.66 156.29,-163.77"/>
<polygon fill="green" stroke="green" stroke-width="0.41" points="159.06,-165.91 162.73,-155.97 153.67,-161.45 159.06,-165.91"/>
</g>
<!-- player_y -->
<g id="node2" class="node">
<title>player_y</title>
<polygon fill="lightgray" stroke="black" points="280.99,-235.86 224.99,-235.86 224.99,-217.86 280.99,-217.86 280.99,-235.86"/>
<text text-anchor="middle" x="252.99" y="-224.66" font-family="Times,serif" font-size="9.00">player_y</text>
</g>
<!-- 713 -->
<g id="node9" class="node">
<title>713</title>
<ellipse fill="white" stroke="black" cx="252.99" cy="-132.87" rx="25" ry="25"/>
<text text-anchor="middle" x="252.99" y="-130.67" font-family="Times,serif" font-size="9.00">713</text>
</g>
<!-- player_y&#45;&gt;713 -->
<g id="edge2" class="edge">
<title>player_y&#45;&gt;713</title>
<path fill="none" stroke="red" stroke-width="0.21" stroke-dasharray="1,5" d="M252.99,-217.69C252.99,-206.59 252.99,-186.06 252.99,-168.1"/>
<polygon fill="red" stroke="red" stroke-width="0.21" points="256.49,-167.91 252.99,-157.91 249.49,-167.91 256.49,-167.91"/>
</g>
<!-- ball_x -->
<g id="node3" class="node">
<title>ball_x</title>
<polygon fill="lightgray" stroke="black" points="342.99,-235.86 298.99,-235.86 298.99,-217.86 342.99,-217.86 342.99,-235.86"/>
<text text-anchor="middle" x="320.99" y="-224.66" font-family="Times,serif" font-size="9.00">ball_x</text>
</g>
<!-- ball_y -->
<g id="node4" class="node">
<title>ball_y</title>
<polygon fill="lightgray" stroke="black" points="404.99,-235.86 360.99,-235.86 360.99,-217.86 404.99,-217.86 404.99,-235.86"/>
<text text-anchor="middle" x="382.99" y="-224.66" font-family="Times,serif" font-size="9.00">ball_y</text>
</g>
<!-- NOOP -->
<g id="node5" class="node">
<title>NOOP</title>
<ellipse fill="lightblue" stroke="black" cx="62.99" cy="-33.94" rx="32.55" ry="32.55"/>
<text text-anchor="middle" x="62.99" y="-31.74" font-family="Times,serif" font-size="9.00">NOOP</text>
</g>
<!-- FIRE -->
<g id="node6" class="node">
<title>FIRE</title>
<ellipse fill="lightblue" stroke="black" cx="450.99" cy="-226.86" rx="28.07" ry="28.07"/>
<text text-anchor="middle" x="450.99" y="-224.66" font-family="Times,serif" font-size="9.00">FIRE</text>
</g>
<!-- RIGHT -->
<g id="node7" class="node">
<title>RIGHT</title>
<ellipse fill="lightblue" stroke="black" cx="146.99" cy="-33.94" rx="33.88" ry="33.88"/>
<text text-anchor="middle" x="146.99" y="-31.74" font-family="Times,serif" font-size="9.00">RIGHT</text>
</g>
<!-- 1761 -->
<g id="node10" class="node">
<title>1761</title>
<ellipse fill="white" stroke="black" cx="525.99" cy="-226.86" rx="28.98" ry="28.98"/>
<text text-anchor="middle" x="525.99" y="-224.66" font-family="Times,serif" font-size="9.00">1761</text>
</g>
<!-- 2801&#45;&gt;NOOP -->
<g id="edge3" class="edge">
<title>2801&#45;&gt;NOOP</title>
<path fill="none" stroke="green" stroke-width="0.17" d="M93.74,-105.9C89.41,-95.92 84.38,-84.31 79.66,-73.41"/>
<polygon fill="green" stroke="green" stroke-width="0.17" points="82.8,-71.85 75.61,-64.07 76.38,-74.63 82.8,-71.85"/>
</g>
<!-- 2801&#45;&gt;RIGHT -->
<g id="edge4" class="edge">
<title>2801&#45;&gt;RIGHT</title>
<path fill="none" stroke="red" stroke-width="0.28" d="M116.25,-105.9C120.38,-96.37 125.15,-85.34 129.69,-74.87"/>
<polygon fill="red" stroke="red" stroke-width="0.28" points="133,-76.03 133.77,-65.46 126.58,-73.25 133,-76.03"/>
</g>
</g>
</svg>
