<?xml version="1.0" encoding="utf-8" standalone="no"?>
<!DOCTYPE svg PUBLIC "-//W3C//DTD SVG 1.1//EN"
  "http://www.w3.org/Graphics/SVG/1.1/DTD/svg11.dtd">
<svg xmlns:xlink="http://www.w3.org/1999/xlink" width="460.8pt" height="345.6pt" viewBox="0 0 460.8 345.6" xmlns="http://www.w3.org/2000/svg" version="1.1">
 <metadata>
  <rdf:RDF xmlns:dc="http://purl.org/dc/elements/1.1/" xmlns:cc="http://creativecommons.org/ns#" xmlns:rdf="http://www.w3.org/1999/02/22-rdf-syntax-ns#">
   <cc:Work>
    <dc:type rdf:resource="http://purl.org/dc/dcmitype/StillImage"/>
    <dc:date>2023-02-09T20:53:54.057202</dc:date>
    <dc:format>image/svg+xml</dc:format>
    <dc:creator>
     <cc:Agent>
      <dc:title>Matplotlib v3.6.2, https://matplotlib.org/</dc:title>
     </cc:Agent>
    </dc:creator>
   </cc:Work>
  </rdf:RDF>
 </metadata>
 <defs>
  <style type="text/css">*{stroke-linejoin: round; stroke-linecap: butt}</style>
 </defs>
 <g id="figure_1">
  <g id="patch_1">
   <path d="M 0 345.6 
L 460.8 345.6 
L 460.8 0 
L 0 0 
z
" style="fill: #ffffff"/>
  </g>
  <g id="axes_1">
   <g id="patch_2">
    <path d="M 57.6 307.584 
L 414.72 307.584 
L 414.72 41.472 
L 57.6 41.472 
z
" style="fill: #ffffff"/>
   </g>
   <g id="matplotlib.axis_1">
    <g id="xtick_1">
     <g id="line2d_1">
      <path d="M 73.832727 307.584 
L 73.832727 41.472 
" clip-path="url(#pc54b3f789f)" style="fill: none; stroke: #b0b0b0; stroke-width: 0.8; stroke-linecap: square"/>
     </g>
     <g id="line2d_2">
      <defs>
       <path id="m56b2db0e79" d="M 0 0 
L 0 3.5 
" style="stroke: #000000; stroke-width: 0.8"/>
      </defs>
      <g>
       <use xlink:href="#m56b2db0e79" x="73.832727" y="307.584" style="stroke: #000000; stroke-width: 0.8"/>
      </g>
     </g>
     <g id="text_1">
      <!-- 0 -->
      <g transform="translate(70.651477 322.182437) scale(0.1 -0.1)">
       <defs>
        <path id="DejaVuSans-30" d="M 2034 4250 
Q 1547 4250 1301 3770 
Q 1056 3291 1056 2328 
Q 1056 1369 1301 889 
Q 1547 409 2034 409 
Q 2525 409 2770 889 
Q 3016 1369 3016 2328 
Q 3016 3291 2770 3770 
Q 2525 4250 2034 4250 
z
M 2034 4750 
Q 2819 4750 3233 4129 
Q 3647 3509 3647 2328 
Q 3647 1150 3233 529 
Q 2819 -91 2034 -91 
Q 1250 -91 836 529 
Q 422 1150 422 2328 
Q 422 3509 836 4129 
Q 1250 4750 2034 4750 
z
" transform="scale(0.015625)"/>
       </defs>
       <use xlink:href="#DejaVuSans-30"/>
      </g>
     </g>
    </g>
    <g id="xtick_2">
     <g id="line2d_3">
      <path d="M 138.893758 307.584 
L 138.893758 41.472 
" clip-path="url(#pc54b3f789f)" style="fill: none; stroke: #b0b0b0; stroke-width: 0.8; stroke-linecap: square"/>
     </g>
     <g id="line2d_4">
      <g>
       <use xlink:href="#m56b2db0e79" x="138.893758" y="307.584" style="stroke: #000000; stroke-width: 0.8"/>
      </g>
     </g>
     <g id="text_2">
      <!-- 100 -->
      <g transform="translate(129.350008 322.182437) scale(0.1 -0.1)">
       <defs>
        <path id="DejaVuSans-31" d="M 794 531 
L 1825 531 
L 1825 4091 
L 703 3866 
L 703 4441 
L 1819 4666 
L 2450 4666 
L 2450 531 
L 3481 531 
L 3481 0 
L 794 0 
L 794 531 
z
" transform="scale(0.015625)"/>
       </defs>
       <use xlink:href="#DejaVuSans-31"/>
       <use xlink:href="#DejaVuSans-30" x="63.623047"/>
       <use xlink:href="#DejaVuSans-30" x="127.246094"/>
      </g>
     </g>
    </g>
    <g id="xtick_3">
     <g id="line2d_5">
      <path d="M 203.95479 307.584 
L 203.95479 41.472 
" clip-path="url(#pc54b3f789f)" style="fill: none; stroke: #b0b0b0; stroke-width: 0.8; stroke-linecap: square"/>
     </g>
     <g id="line2d_6">
      <g>
       <use xlink:href="#m56b2db0e79" x="203.95479" y="307.584" style="stroke: #000000; stroke-width: 0.8"/>
      </g>
     </g>
     <g id="text_3">
      <!-- 200 -->
      <g transform="translate(194.41104 322.182437) scale(0.1 -0.1)">
       <defs>
        <path id="DejaVuSans-32" d="M 1228 531 
L 3431 531 
L 3431 0 
L 469 0 
L 469 531 
Q 828 903 1448 1529 
Q 2069 2156 2228 2338 
Q 2531 2678 2651 2914 
Q 2772 3150 2772 3378 
Q 2772 3750 2511 3984 
Q 2250 4219 1831 4219 
Q 1534 4219 1204 4116 
Q 875 4013 500 3803 
L 500 4441 
Q 881 4594 1212 4672 
Q 1544 4750 1819 4750 
Q 2544 4750 2975 4387 
Q 3406 4025 3406 3419 
Q 3406 3131 3298 2873 
Q 3191 2616 2906 2266 
Q 2828 2175 2409 1742 
Q 1991 1309 1228 531 
z
" transform="scale(0.015625)"/>
       </defs>
       <use xlink:href="#DejaVuSans-32"/>
       <use xlink:href="#DejaVuSans-30" x="63.623047"/>
       <use xlink:href="#DejaVuSans-30" x="127.246094"/>
      </g>
     </g>
    </g>
    <g id="xtick_4">
     <g id="line2d_7">
      <path d="M 269.015821 307.584 
L 269.015821 41.472 
" clip-path="url(#pc54b3f789f)" style="fill: none; stroke: #b0b0b0; stroke-width: 0.8; stroke-linecap: square"/>
     </g>
     <g id="line2d_8">
      <g>
       <use xlink:href="#m56b2db0e79" x="269.015821" y="307.584" style="stroke: #000000; stroke-width: 0.8"/>
      </g>
     </g>
     <g id="text_4">
      <!-- 300 -->
      <g transform="translate(259.472071 322.182437) scale(0.1 -0.1)">
       <defs>
        <path id="DejaVuSans-33" d="M 2597 2516 
Q 3050 2419 3304 2112 
Q 3559 1806 3559 1356 
Q 3559 666 3084 287 
Q 2609 -91 1734 -91 
Q 1441 -91 1130 -33 
Q 819 25 488 141 
L 488 750 
Q 750 597 1062 519 
Q 1375 441 1716 441 
Q 2309 441 2620 675 
Q 2931 909 2931 1356 
Q 2931 1769 2642 2001 
Q 2353 2234 1838 2234 
L 1294 2234 
L 1294 2753 
L 1863 2753 
Q 2328 2753 2575 2939 
Q 2822 3125 2822 3475 
Q 2822 3834 2567 4026 
Q 2313 4219 1838 4219 
Q 1578 4219 1281 4162 
Q 984 4106 628 3988 
L 628 4550 
Q 988 4650 1302 4700 
Q 1616 4750 1894 4750 
Q 2613 4750 3031 4423 
Q 3450 4097 3450 3541 
Q 3450 3153 3228 2886 
Q 3006 2619 2597 2516 
z
" transform="scale(0.015625)"/>
       </defs>
       <use xlink:href="#DejaVuSans-33"/>
       <use xlink:href="#DejaVuSans-30" x="63.623047"/>
       <use xlink:href="#DejaVuSans-30" x="127.246094"/>
      </g>
     </g>
    </g>
    <g id="xtick_5">
     <g id="line2d_9">
      <path d="M 334.076852 307.584 
L 334.076852 41.472 
" clip-path="url(#pc54b3f789f)" style="fill: none; stroke: #b0b0b0; stroke-width: 0.8; stroke-linecap: square"/>
     </g>
     <g id="line2d_10">
      <g>
       <use xlink:href="#m56b2db0e79" x="334.076852" y="307.584" style="stroke: #000000; stroke-width: 0.8"/>
      </g>
     </g>
     <g id="text_5">
      <!-- 400 -->
      <g transform="translate(324.533102 322.182437) scale(0.1 -0.1)">
       <defs>
        <path id="DejaVuSans-34" d="M 2419 4116 
L 825 1625 
L 2419 1625 
L 2419 4116 
z
M 2253 4666 
L 3047 4666 
L 3047 1625 
L 3713 1625 
L 3713 1100 
L 3047 1100 
L 3047 0 
L 2419 0 
L 2419 1100 
L 313 1100 
L 313 1709 
L 2253 4666 
z
" transform="scale(0.015625)"/>
       </defs>
       <use xlink:href="#DejaVuSans-34"/>
       <use xlink:href="#DejaVuSans-30" x="63.623047"/>
       <use xlink:href="#DejaVuSans-30" x="127.246094"/>
      </g>
     </g>
    </g>
    <g id="xtick_6">
     <g id="line2d_11">
      <path d="M 399.137883 307.584 
L 399.137883 41.472 
" clip-path="url(#pc54b3f789f)" style="fill: none; stroke: #b0b0b0; stroke-width: 0.8; stroke-linecap: square"/>
     </g>
     <g id="line2d_12">
      <g>
       <use xlink:href="#m56b2db0e79" x="399.137883" y="307.584" style="stroke: #000000; stroke-width: 0.8"/>
      </g>
     </g>
     <g id="text_6">
      <!-- 500 -->
      <g transform="translate(389.594133 322.182437) scale(0.1 -0.1)">
       <defs>
        <path id="DejaVuSans-35" d="M 691 4666 
L 3169 4666 
L 3169 4134 
L 1269 4134 
L 1269 2991 
Q 1406 3038 1543 3061 
Q 1681 3084 1819 3084 
Q 2600 3084 3056 2656 
Q 3513 2228 3513 1497 
Q 3513 744 3044 326 
Q 2575 -91 1722 -91 
Q 1428 -91 1123 -41 
Q 819 9 494 109 
L 494 744 
Q 775 591 1075 516 
Q 1375 441 1709 441 
Q 2250 441 2565 725 
Q 2881 1009 2881 1497 
Q 2881 1984 2565 2268 
Q 2250 2553 1709 2553 
Q 1456 2553 1204 2497 
Q 953 2441 691 2322 
L 691 4666 
z
" transform="scale(0.015625)"/>
       </defs>
       <use xlink:href="#DejaVuSans-35"/>
       <use xlink:href="#DejaVuSans-30" x="63.623047"/>
       <use xlink:href="#DejaVuSans-30" x="127.246094"/>
      </g>
     </g>
    </g>
    <g id="text_7">
     <!-- Generations -->
     <g transform="translate(205.662344 335.860562) scale(0.1 -0.1)">
      <defs>
       <path id="DejaVuSans-47" d="M 3809 666 
L 3809 1919 
L 2778 1919 
L 2778 2438 
L 4434 2438 
L 4434 434 
Q 4069 175 3628 42 
Q 3188 -91 2688 -91 
Q 1594 -91 976 548 
Q 359 1188 359 2328 
Q 359 3472 976 4111 
Q 1594 4750 2688 4750 
Q 3144 4750 3555 4637 
Q 3966 4525 4313 4306 
L 4313 3634 
Q 3963 3931 3569 4081 
Q 3175 4231 2741 4231 
Q 1884 4231 1454 3753 
Q 1025 3275 1025 2328 
Q 1025 1384 1454 906 
Q 1884 428 2741 428 
Q 3075 428 3337 486 
Q 3600 544 3809 666 
z
" transform="scale(0.015625)"/>
       <path id="DejaVuSans-65" d="M 3597 1894 
L 3597 1613 
L 953 1613 
Q 991 1019 1311 708 
Q 1631 397 2203 397 
Q 2534 397 2845 478 
Q 3156 559 3463 722 
L 3463 178 
Q 3153 47 2828 -22 
Q 2503 -91 2169 -91 
Q 1331 -91 842 396 
Q 353 884 353 1716 
Q 353 2575 817 3079 
Q 1281 3584 2069 3584 
Q 2775 3584 3186 3129 
Q 3597 2675 3597 1894 
z
M 3022 2063 
Q 3016 2534 2758 2815 
Q 2500 3097 2075 3097 
Q 1594 3097 1305 2825 
Q 1016 2553 972 2059 
L 3022 2063 
z
" transform="scale(0.015625)"/>
       <path id="DejaVuSans-6e" d="M 3513 2113 
L 3513 0 
L 2938 0 
L 2938 2094 
Q 2938 2591 2744 2837 
Q 2550 3084 2163 3084 
Q 1697 3084 1428 2787 
Q 1159 2491 1159 1978 
L 1159 0 
L 581 0 
L 581 3500 
L 1159 3500 
L 1159 2956 
Q 1366 3272 1645 3428 
Q 1925 3584 2291 3584 
Q 2894 3584 3203 3211 
Q 3513 2838 3513 2113 
z
" transform="scale(0.015625)"/>
       <path id="DejaVuSans-72" d="M 2631 2963 
Q 2534 3019 2420 3045 
Q 2306 3072 2169 3072 
Q 1681 3072 1420 2755 
Q 1159 2438 1159 1844 
L 1159 0 
L 581 0 
L 581 3500 
L 1159 3500 
L 1159 2956 
Q 1341 3275 1631 3429 
Q 1922 3584 2338 3584 
Q 2397 3584 2469 3576 
Q 2541 3569 2628 3553 
L 2631 2963 
z
" transform="scale(0.015625)"/>
       <path id="DejaVuSans-61" d="M 2194 1759 
Q 1497 1759 1228 1600 
Q 959 1441 959 1056 
Q 959 750 1161 570 
Q 1363 391 1709 391 
Q 2188 391 2477 730 
Q 2766 1069 2766 1631 
L 2766 1759 
L 2194 1759 
z
M 3341 1997 
L 3341 0 
L 2766 0 
L 2766 531 
Q 2569 213 2275 61 
Q 1981 -91 1556 -91 
Q 1019 -91 701 211 
Q 384 513 384 1019 
Q 384 1609 779 1909 
Q 1175 2209 1959 2209 
L 2766 2209 
L 2766 2266 
Q 2766 2663 2505 2880 
Q 2244 3097 1772 3097 
Q 1472 3097 1187 3025 
Q 903 2953 641 2809 
L 641 3341 
Q 956 3463 1253 3523 
Q 1550 3584 1831 3584 
Q 2591 3584 2966 3190 
Q 3341 2797 3341 1997 
z
" transform="scale(0.015625)"/>
       <path id="DejaVuSans-74" d="M 1172 4494 
L 1172 3500 
L 2356 3500 
L 2356 3053 
L 1172 3053 
L 1172 1153 
Q 1172 725 1289 603 
Q 1406 481 1766 481 
L 2356 481 
L 2356 0 
L 1766 0 
Q 1100 0 847 248 
Q 594 497 594 1153 
L 594 3053 
L 172 3053 
L 172 3500 
L 594 3500 
L 594 4494 
L 1172 4494 
z
" transform="scale(0.015625)"/>
       <path id="DejaVuSans-69" d="M 603 3500 
L 1178 3500 
L 1178 0 
L 603 0 
L 603 3500 
z
M 603 4863 
L 1178 4863 
L 1178 4134 
L 603 4134 
L 603 4863 
z
" transform="scale(0.015625)"/>
       <path id="DejaVuSans-6f" d="M 1959 3097 
Q 1497 3097 1228 2736 
Q 959 2375 959 1747 
Q 959 1119 1226 758 
Q 1494 397 1959 397 
Q 2419 397 2687 759 
Q 2956 1122 2956 1747 
Q 2956 2369 2687 2733 
Q 2419 3097 1959 3097 
z
M 1959 3584 
Q 2709 3584 3137 3096 
Q 3566 2609 3566 1747 
Q 3566 888 3137 398 
Q 2709 -91 1959 -91 
Q 1206 -91 779 398 
Q 353 888 353 1747 
Q 353 2609 779 3096 
Q 1206 3584 1959 3584 
z
" transform="scale(0.015625)"/>
       <path id="DejaVuSans-73" d="M 2834 3397 
L 2834 2853 
Q 2591 2978 2328 3040 
Q 2066 3103 1784 3103 
Q 1356 3103 1142 2972 
Q 928 2841 928 2578 
Q 928 2378 1081 2264 
Q 1234 2150 1697 2047 
L 1894 2003 
Q 2506 1872 2764 1633 
Q 3022 1394 3022 966 
Q 3022 478 2636 193 
Q 2250 -91 1575 -91 
Q 1294 -91 989 -36 
Q 684 19 347 128 
L 347 722 
Q 666 556 975 473 
Q 1284 391 1588 391 
Q 1994 391 2212 530 
Q 2431 669 2431 922 
Q 2431 1156 2273 1281 
Q 2116 1406 1581 1522 
L 1381 1569 
Q 847 1681 609 1914 
Q 372 2147 372 2553 
Q 372 3047 722 3315 
Q 1072 3584 1716 3584 
Q 2034 3584 2315 3537 
Q 2597 3491 2834 3397 
z
" transform="scale(0.015625)"/>
      </defs>
      <use xlink:href="#DejaVuSans-47"/>
      <use xlink:href="#DejaVuSans-65" x="77.490234"/>
      <use xlink:href="#DejaVuSans-6e" x="139.013672"/>
      <use xlink:href="#DejaVuSans-65" x="202.392578"/>
      <use xlink:href="#DejaVuSans-72" x="263.916016"/>
      <use xlink:href="#DejaVuSans-61" x="305.029297"/>
      <use xlink:href="#DejaVuSans-74" x="366.308594"/>
      <use xlink:href="#DejaVuSans-69" x="405.517578"/>
      <use xlink:href="#DejaVuSans-6f" x="433.300781"/>
      <use xlink:href="#DejaVuSans-6e" x="494.482422"/>
      <use xlink:href="#DejaVuSans-73" x="557.861328"/>
     </g>
    </g>
   </g>
   <g id="matplotlib.axis_2">
    <g id="ytick_1">
     <g id="line2d_13">
      <path d="M 57.6 295.612583 
L 414.72 295.612583 
" clip-path="url(#pc54b3f789f)" style="fill: none; stroke: #b0b0b0; stroke-width: 0.8; stroke-linecap: square"/>
     </g>
     <g id="line2d_14">
      <defs>
       <path id="m0c730a688e" d="M 0 0 
L -3.5 0 
" style="stroke: #000000; stroke-width: 0.8"/>
      </defs>
      <g>
       <use xlink:href="#m0c730a688e" x="57.6" y="295.612583" style="stroke: #000000; stroke-width: 0.8"/>
      </g>
     </g>
     <g id="text_8">
      <!-- 0 -->
      <g transform="translate(44.2375 299.411802) scale(0.1 -0.1)">
       <use xlink:href="#DejaVuSans-30"/>
      </g>
     </g>
    </g>
    <g id="ytick_2">
     <g id="line2d_15">
      <path d="M 57.6 265.688732 
L 414.72 265.688732 
" clip-path="url(#pc54b3f789f)" style="fill: none; stroke: #b0b0b0; stroke-width: 0.8; stroke-linecap: square"/>
     </g>
     <g id="line2d_16">
      <g>
       <use xlink:href="#m0c730a688e" x="57.6" y="265.688732" style="stroke: #000000; stroke-width: 0.8"/>
      </g>
     </g>
     <g id="text_9">
      <!-- 500 -->
      <g transform="translate(31.5125 269.487951) scale(0.1 -0.1)">
       <use xlink:href="#DejaVuSans-35"/>
       <use xlink:href="#DejaVuSans-30" x="63.623047"/>
       <use xlink:href="#DejaVuSans-30" x="127.246094"/>
      </g>
     </g>
    </g>
    <g id="ytick_3">
     <g id="line2d_17">
      <path d="M 57.6 235.764882 
L 414.72 235.764882 
" clip-path="url(#pc54b3f789f)" style="fill: none; stroke: #b0b0b0; stroke-width: 0.8; stroke-linecap: square"/>
     </g>
     <g id="line2d_18">
      <g>
       <use xlink:href="#m0c730a688e" x="57.6" y="235.764882" style="stroke: #000000; stroke-width: 0.8"/>
      </g>
     </g>
     <g id="text_10">
      <!-- 1000 -->
      <g transform="translate(25.15 239.564101) scale(0.1 -0.1)">
       <use xlink:href="#DejaVuSans-31"/>
       <use xlink:href="#DejaVuSans-30" x="63.623047"/>
       <use xlink:href="#DejaVuSans-30" x="127.246094"/>
       <use xlink:href="#DejaVuSans-30" x="190.869141"/>
      </g>
     </g>
    </g>
    <g id="ytick_4">
     <g id="line2d_19">
      <path d="M 57.6 205.841031 
L 414.72 205.841031 
" clip-path="url(#pc54b3f789f)" style="fill: none; stroke: #b0b0b0; stroke-width: 0.8; stroke-linecap: square"/>
     </g>
     <g id="line2d_20">
      <g>
       <use xlink:href="#m0c730a688e" x="57.6" y="205.841031" style="stroke: #000000; stroke-width: 0.8"/>
      </g>
     </g>
     <g id="text_11">
      <!-- 1500 -->
      <g transform="translate(25.15 209.64025) scale(0.1 -0.1)">
       <use xlink:href="#DejaVuSans-31"/>
       <use xlink:href="#DejaVuSans-35" x="63.623047"/>
       <use xlink:href="#DejaVuSans-30" x="127.246094"/>
       <use xlink:href="#DejaVuSans-30" x="190.869141"/>
      </g>
     </g>
    </g>
    <g id="ytick_5">
     <g id="line2d_21">
      <path d="M 57.6 175.917181 
L 414.72 175.917181 
" clip-path="url(#pc54b3f789f)" style="fill: none; stroke: #b0b0b0; stroke-width: 0.8; stroke-linecap: square"/>
     </g>
     <g id="line2d_22">
      <g>
       <use xlink:href="#m0c730a688e" x="57.6" y="175.917181" style="stroke: #000000; stroke-width: 0.8"/>
      </g>
     </g>
     <g id="text_12">
      <!-- 2000 -->
      <g transform="translate(25.15 179.7164) scale(0.1 -0.1)">
       <use xlink:href="#DejaVuSans-32"/>
       <use xlink:href="#DejaVuSans-30" x="63.623047"/>
       <use xlink:href="#DejaVuSans-30" x="127.246094"/>
       <use xlink:href="#DejaVuSans-30" x="190.869141"/>
      </g>
     </g>
    </g>
    <g id="ytick_6">
     <g id="line2d_23">
      <path d="M 57.6 145.99333 
L 414.72 145.99333 
" clip-path="url(#pc54b3f789f)" style="fill: none; stroke: #b0b0b0; stroke-width: 0.8; stroke-linecap: square"/>
     </g>
     <g id="line2d_24">
      <g>
       <use xlink:href="#m0c730a688e" x="57.6" y="145.99333" style="stroke: #000000; stroke-width: 0.8"/>
      </g>
     </g>
     <g id="text_13">
      <!-- 2500 -->
      <g transform="translate(25.15 149.792549) scale(0.1 -0.1)">
       <use xlink:href="#DejaVuSans-32"/>
       <use xlink:href="#DejaVuSans-35" x="63.623047"/>
       <use xlink:href="#DejaVuSans-30" x="127.246094"/>
       <use xlink:href="#DejaVuSans-30" x="190.869141"/>
      </g>
     </g>
    </g>
    <g id="ytick_7">
     <g id="line2d_25">
      <path d="M 57.6 116.06948 
L 414.72 116.06948 
" clip-path="url(#pc54b3f789f)" style="fill: none; stroke: #b0b0b0; stroke-width: 0.8; stroke-linecap: square"/>
     </g>
     <g id="line2d_26">
      <g>
       <use xlink:href="#m0c730a688e" x="57.6" y="116.06948" style="stroke: #000000; stroke-width: 0.8"/>
      </g>
     </g>
     <g id="text_14">
      <!-- 3000 -->
      <g transform="translate(25.15 119.868698) scale(0.1 -0.1)">
       <use xlink:href="#DejaVuSans-33"/>
       <use xlink:href="#DejaVuSans-30" x="63.623047"/>
       <use xlink:href="#DejaVuSans-30" x="127.246094"/>
       <use xlink:href="#DejaVuSans-30" x="190.869141"/>
      </g>
     </g>
    </g>
    <g id="ytick_8">
     <g id="line2d_27">
      <path d="M 57.6 86.145629 
L 414.72 86.145629 
" clip-path="url(#pc54b3f789f)" style="fill: none; stroke: #b0b0b0; stroke-width: 0.8; stroke-linecap: square"/>
     </g>
     <g id="line2d_28">
      <g>
       <use xlink:href="#m0c730a688e" x="57.6" y="86.145629" style="stroke: #000000; stroke-width: 0.8"/>
      </g>
     </g>
     <g id="text_15">
      <!-- 3500 -->
      <g transform="translate(25.15 89.944848) scale(0.1 -0.1)">
       <use xlink:href="#DejaVuSans-33"/>
       <use xlink:href="#DejaVuSans-35" x="63.623047"/>
       <use xlink:href="#DejaVuSans-30" x="127.246094"/>
       <use xlink:href="#DejaVuSans-30" x="190.869141"/>
      </g>
     </g>
    </g>
    <g id="ytick_9">
     <g id="line2d_29">
      <path d="M 57.6 56.221779 
L 414.72 56.221779 
" clip-path="url(#pc54b3f789f)" style="fill: none; stroke: #b0b0b0; stroke-width: 0.8; stroke-linecap: square"/>
     </g>
     <g id="line2d_30">
      <g>
       <use xlink:href="#m0c730a688e" x="57.6" y="56.221779" style="stroke: #000000; stroke-width: 0.8"/>
      </g>
     </g>
     <g id="text_16">
      <!-- 4000 -->
      <g transform="translate(25.15 60.020997) scale(0.1 -0.1)">
       <use xlink:href="#DejaVuSans-34"/>
       <use xlink:href="#DejaVuSans-30" x="63.623047"/>
       <use xlink:href="#DejaVuSans-30" x="127.246094"/>
       <use xlink:href="#DejaVuSans-30" x="190.869141"/>
      </g>
     </g>
    </g>
    <g id="text_17">
     <!-- Fitness -->
     <g transform="translate(19.070312 191.845187) rotate(-90) scale(0.1 -0.1)">
      <defs>
       <path id="DejaVuSans-46" d="M 628 4666 
L 3309 4666 
L 3309 4134 
L 1259 4134 
L 1259 2759 
L 3109 2759 
L 3109 2228 
L 1259 2228 
L 1259 0 
L 628 0 
L 628 4666 
z
" transform="scale(0.015625)"/>
      </defs>
      <use xlink:href="#DejaVuSans-46"/>
      <use xlink:href="#DejaVuSans-69" x="50.269531"/>
      <use xlink:href="#DejaVuSans-74" x="78.052734"/>
      <use xlink:href="#DejaVuSans-6e" x="117.261719"/>
      <use xlink:href="#DejaVuSans-65" x="180.640625"/>
      <use xlink:href="#DejaVuSans-73" x="242.164062"/>
      <use xlink:href="#DejaVuSans-73" x="294.263672"/>
     </g>
    </g>
   </g>
   <g id="line2d_31">
    <path d="M 73.832727 295.488 
L 76.435169 294.695949 
L 79.68822 293.45723 
L 80.33883 293.083366 
L 82.290661 292.271698 
L 83.591882 291.673824 
L 84.893103 291.131842 
L 85.543713 290.643224 
L 86.844934 289.997763 
L 87.495544 289.543877 
L 88.146154 289.294668 
L 90.748595 287.670543 
L 94.001647 285.890821 
L 95.302868 284.862467 
L 95.953478 284.598526 
L 105.712633 278.155572 
L 106.363243 277.525929 
L 107.013853 277.289161 
L 110.266905 274.816001 
L 110.917515 274.53021 
L 111.568125 274.035879 
L 112.218736 273.729219 
L 112.869346 273.209156 
L 114.170567 272.383391 
L 118.724839 269.313947 
L 119.375449 268.804358 
L 120.026059 268.574903 
L 120.67667 268.170122 
L 121.32728 267.548869 
L 125.230942 265.086896 
L 125.881552 264.514833 
L 127.182773 263.908886 
L 128.483993 262.88176 
L 129.785214 262.129898 
L 131.086435 261.104977 
L 133.038266 259.790574 
L 136.291317 257.490892 
L 136.941927 257.126983 
L 137.592538 256.424671 
L 138.243148 256.160888 
L 138.893758 255.589106 
L 139.544369 255.227285 
L 140.194979 254.67556 
L 142.14681 253.541675 
L 144.098641 252.07235 
L 146.701082 250.379433 
L 147.351692 249.853403 
L 148.002303 249.475459 
L 148.652913 248.898496 
L 149.303523 248.576147 
L 155.159016 244.417947 
L 155.809627 244.044126 
L 157.110847 242.854186 
L 157.761457 242.573179 
L 159.062678 241.588358 
L 160.363899 240.443805 
L 161.014509 240.245811 
L 161.665119 239.548001 
L 162.31573 239.293775 
L 162.96634 238.570305 
L 164.267561 237.656595 
L 164.918171 237.35366 
L 172.725495 231.793416 
L 173.376105 231.112047 
L 175.327936 229.90568 
L 175.978546 229.53392 
L 179.231598 226.939027 
L 179.882208 226.545934 
L 180.532818 225.945003 
L 181.183429 225.59379 
L 181.834039 225.00639 
L 182.484649 224.753456 
L 183.13526 224.123831 
L 185.087091 222.82726 
L 186.388311 221.802173 
L 187.038921 221.450665 
L 192.243804 217.593382 
L 192.894414 216.817846 
L 193.545025 216.516711 
L 201.352348 210.8039 
L 202.002959 210.37479 
L 203.304179 209.222501 
L 203.95479 208.87533 
L 205.25601 207.714356 
L 205.906621 207.320411 
L 206.557231 206.652131 
L 207.858451 205.904683 
L 209.159672 204.744478 
L 210.460893 204.067256 
L 211.111503 203.296889 
L 211.762113 203.01333 
L 213.063334 201.895187 
L 213.713944 201.508025 
L 214.364555 200.934271 
L 216.316385 199.53529 
L 218.918827 197.640924 
L 219.569437 197.020957 
L 221.521268 195.73513 
L 222.171878 195.057058 
L 222.822489 194.715405 
L 223.473099 194.09544 
L 225.42493 192.78155 
L 226.07554 192.124978 
L 226.72615 191.807391 
L 227.376761 191.218733 
L 228.027371 190.924742 
L 228.677981 190.190544 
L 229.328592 189.784487 
L 229.979202 189.162632 
L 230.629812 188.89682 
L 231.280423 188.298519 
L 233.232254 187.016232 
L 235.184085 185.390598 
L 239.087746 182.691877 
L 240.388967 181.686102 
L 244.292629 179.017018 
L 244.943239 178.352469 
L 248.196291 176.191756 
L 249.497511 175.108742 
L 250.148122 174.673531 
L 250.798732 174.059436 
L 252.099953 173.360379 
L 252.750563 172.749528 
L 253.401173 172.39878 
L 256.003615 170.382326 
L 257.304835 169.637548 
L 265.762769 163.31796 
L 267.06399 162.232965 
L 267.7146 161.918717 
L 270.967652 159.360683 
L 271.618262 159.11043 
L 273.570093 157.509001 
L 274.871314 156.606832 
L 276.172534 155.59313 
L 276.823144 155.232115 
L 278.774975 153.552949 
L 280.076196 152.999159 
L 280.726806 152.203887 
L 281.377417 151.653856 
L 283.979858 149.993444 
L 286.582299 147.936259 
L 287.232909 147.507091 
L 287.88352 146.842889 
L 288.53413 146.579436 
L 291.136571 144.561381 
L 297.642674 139.94351 
L 298.293285 139.25758 
L 298.943895 138.951235 
L 300.895726 137.633053 
L 302.196947 136.489399 
L 302.847557 136.193863 
L 304.148778 135.162782 
L 305.449998 134.142478 
L 306.100608 133.835851 
L 307.401829 132.810083 
L 309.35366 131.393063 
L 310.00427 130.846536 
L 311.305491 130.054766 
L 311.956101 129.456724 
L 312.606712 129.170369 
L 313.257322 128.568687 
L 313.907932 128.211734 
L 314.558543 127.581233 
L 315.209153 127.239561 
L 315.859763 126.661614 
L 316.510373 126.35868 
L 319.763425 123.824876 
L 321.715256 122.57517 
L 323.016477 121.526173 
L 323.667087 121.049813 
L 324.317697 120.740441 
L 325.618918 119.81155 
L 326.269528 119.397985 
L 326.920138 118.726294 
L 328.221359 117.95526 
L 332.125021 115.142866 
L 332.775631 114.5868 
L 333.426242 114.214904 
L 334.076852 113.610584 
L 335.378073 112.803705 
L 336.028683 112.195328 
L 341.233565 108.559008 
L 341.884176 107.926293 
L 342.534786 107.669072 
L 344.486617 106.192647 
L 345.137227 105.80295 
L 345.787837 105.195051 
L 346.438448 104.876912 
L 349.040889 102.894787 
L 350.34211 102.016053 
L 351.64333 100.981756 
L 353.595161 99.509916 
L 354.896382 98.729079 
L 358.149433 96.304398 
L 358.800044 95.680754 
L 360.101264 94.99846 
L 360.751875 94.345793 
L 361.402485 94.03403 
L 362.703706 93.047345 
L 365.956757 90.849368 
L 366.607367 90.161396 
L 367.908588 89.383106 
L 368.559198 88.751804 
L 369.209809 88.306934 
L 369.860419 88.059929 
L 370.511029 87.476354 
L 371.81225 86.597021 
L 373.113471 85.627069 
L 377.017132 82.741262 
L 377.667743 82.24996 
L 378.318353 81.903006 
L 379.619574 80.858346 
L 380.920794 79.970561 
L 384.173846 77.597545 
L 387.426897 75.261433 
L 388.077508 74.635886 
L 388.728118 74.344394 
L 397.186052 68.146605 
L 397.836662 67.718161 
L 398.487273 67.078241 
L 398.487273 67.078241 
" clip-path="url(#pc54b3f789f)" style="fill: none; stroke: #0000ff; stroke-width: 1.5; stroke-linecap: square"/>
   </g>
   <g id="line2d_32">
    <path d="M 73.832727 295.43583 
L 75.784558 294.784837 
L 77.736389 294.078773 
L 78.386999 293.474926 
L 79.03761 293.312653 
L 79.68822 292.777741 
L 80.33883 292.059293 
L 80.989441 291.841584 
L 82.941272 290.734102 
L 83.591882 290.012062 
L 84.242492 290.275556 
L 84.893103 289.870888 
L 85.543713 289.042133 
L 86.194323 288.840049 
L 86.844934 288.394926 
L 87.495544 287.73871 
L 88.146154 287.711606 
L 89.447375 286.575641 
L 90.097985 286.469957 
L 90.748595 285.934888 
L 91.399206 285.550253 
L 92.049816 284.705379 
L 92.700426 284.997984 
L 93.351037 284.489194 
L 94.001647 284.230494 
L 94.652257 283.186251 
L 95.302868 282.70621 
L 95.953478 282.705561 
L 99.206529 280.437406 
L 99.85714 279.902033 
L 100.50775 279.575318 
L 101.808971 278.428082 
L 102.459581 277.918311 
L 103.110191 277.997203 
L 103.760802 277.573207 
L 104.411412 276.772558 
L 105.712633 275.934159 
L 106.363243 274.947007 
L 107.013853 274.993759 
L 108.965684 273.457606 
L 109.616294 272.846515 
L 110.266905 272.421743 
L 110.917515 272.224608 
L 111.568125 271.615765 
L 112.218736 271.519852 
L 112.869346 270.829544 
L 113.519956 270.55339 
L 114.821177 269.635236 
L 116.773008 268.549903 
L 117.423618 267.929973 
L 118.074228 267.725868 
L 118.724839 266.762716 
L 119.375449 266.349336 
L 120.026059 266.410985 
L 120.67667 266.123334 
L 121.32728 265.119945 
L 121.97789 264.714484 
L 122.628501 264.600199 
L 123.279111 263.765287 
L 123.929721 263.578422 
L 124.580332 262.926277 
L 125.230942 262.903756 
L 125.881552 261.928099 
L 126.532163 262.11619 
L 127.182773 261.905981 
L 128.483993 260.545954 
L 129.785214 260.00657 
L 131.086435 258.710374 
L 132.387655 258.210912 
L 133.038266 257.366566 
L 133.688876 256.987477 
L 134.990097 255.983694 
L 135.640707 255.730118 
L 136.291317 254.90714 
L 136.941927 254.841899 
L 137.592538 253.819692 
L 138.243148 253.837669 
L 138.893758 253.078584 
L 139.544369 252.909238 
L 140.194979 252.165712 
L 140.845589 252.081216 
L 142.14681 251.439979 
L 143.448031 250.231741 
L 146.701082 248.225458 
L 147.351692 247.4357 
L 148.002303 247.277114 
L 148.652913 246.444842 
L 149.303523 246.333905 
L 149.954134 245.7888 
L 150.604744 245.063718 
L 151.255354 244.943216 
L 151.905965 244.039549 
L 152.556575 243.929877 
L 153.857796 242.763129 
L 154.508406 242.701235 
L 155.159016 242.157736 
L 155.809627 241.818988 
L 156.460237 241.189997 
L 157.110847 240.299664 
L 157.761457 240.22242 
L 158.412068 239.626519 
L 159.062678 239.224117 
L 159.713288 238.680572 
L 160.363899 237.85387 
L 161.014509 238.055624 
L 161.665119 236.951292 
L 162.31573 237.02738 
L 162.96634 235.914577 
L 163.61695 235.405861 
L 164.267561 235.111418 
L 164.918171 234.960359 
L 165.568781 234.498847 
L 166.870002 233.398179 
L 167.520612 233.10189 
L 168.171222 232.437145 
L 168.821833 231.947278 
L 169.472443 231.914459 
L 170.123053 231.308536 
L 170.773664 231.062079 
L 172.074884 229.75695 
L 172.725495 229.246453 
L 173.376105 228.48718 
L 174.026715 227.984186 
L 175.978546 227.334812 
L 176.629156 226.612911 
L 177.279767 226.203434 
L 178.580987 224.472787 
L 179.231598 224.32832 
L 179.882208 224.02853 
L 180.532818 223.426084 
L 181.183429 223.159026 
L 181.834039 222.149716 
L 182.484649 222.531227 
L 183.13526 221.579923 
L 184.43648 220.981952 
L 185.087091 220.484837 
L 185.737701 219.75495 
L 186.388311 219.343892 
L 187.038921 219.201556 
L 188.990752 217.600699 
L 189.641363 216.818711 
L 190.291973 216.294667 
L 190.942583 216.052742 
L 191.593194 215.429946 
L 192.243804 215.30439 
L 192.894414 214.214195 
L 193.545025 214.069459 
L 194.195635 213.361931 
L 195.496856 212.716266 
L 196.147466 211.901995 
L 197.448686 211.344267 
L 198.099297 210.748567 
L 198.749907 209.792566 
L 199.400517 209.440655 
L 200.051128 209.221944 
L 200.701738 208.722609 
L 201.352348 208.480854 
L 202.653569 207.196806 
L 203.304179 206.699932 
L 203.95479 206.51686 
L 204.6054 205.604597 
L 205.25601 205.043132 
L 205.906621 204.911327 
L 206.557231 203.91238 
L 207.207841 203.635639 
L 207.858451 203.539376 
L 209.159672 202.253891 
L 209.810282 201.765023 
L 210.460893 201.839923 
L 211.111503 200.6189 
L 211.762113 200.659278 
L 212.412724 199.752516 
L 214.364555 198.492545 
L 216.316385 197.061642 
L 217.617606 196.3374 
L 218.918827 195.280892 
L 219.569437 194.392696 
L 220.220047 194.042484 
L 220.870658 193.501154 
L 221.521268 193.469767 
L 222.171878 192.343216 
L 222.822489 192.152671 
L 223.473099 191.536411 
L 224.123709 191.217036 
L 225.42493 190.404749 
L 226.07554 189.449448 
L 226.72615 189.395623 
L 227.376761 188.560953 
L 228.027371 188.602259 
L 228.677981 187.544939 
L 229.328592 187.26374 
L 229.979202 186.280317 
L 230.629812 186.521745 
L 231.280423 185.575633 
L 232.581643 184.939385 
L 233.232254 184.537282 
L 234.533474 183.400581 
L 235.184085 182.867705 
L 235.834695 182.514774 
L 236.485305 181.466323 
L 237.786526 181.408531 
L 238.437136 180.77559 
L 239.087746 180.376097 
L 239.738357 179.629826 
L 241.039577 178.794348 
L 241.690188 177.948595 
L 242.340798 177.941006 
L 242.991408 177.353592 
L 244.292629 176.64161 
L 244.943239 175.871815 
L 246.24446 174.983287 
L 246.89507 174.835114 
L 248.196291 173.765231 
L 250.148122 172.403556 
L 250.798732 171.503173 
L 251.449342 171.444638 
L 252.099953 171.109665 
L 252.750563 170.343015 
L 254.051784 169.496988 
L 255.353004 168.724043 
L 256.003615 167.78531 
L 257.304835 167.389837 
L 258.606056 166.225078 
L 259.256666 166.05877 
L 259.907276 165.254403 
L 261.208497 164.68156 
L 261.859107 164.126965 
L 262.509718 163.15628 
L 263.810938 162.668166 
L 264.461549 161.742612 
L 265.112159 161.262315 
L 265.762769 160.920809 
L 266.413379 160.012405 
L 267.06399 159.696193 
L 267.7146 159.532112 
L 270.967652 156.720186 
L 271.618262 156.740809 
L 273.570093 155.022428 
L 274.220703 154.672376 
L 275.521924 153.579841 
L 276.172534 153.075728 
L 276.823144 152.913826 
L 277.473755 152.184325 
L 278.124365 151.891688 
L 278.774975 150.690979 
L 279.425586 150.825929 
L 280.076196 150.793888 
L 280.726806 149.658392 
L 281.377417 149.023449 
L 283.329248 148.143167 
L 285.281079 146.536277 
L 285.931689 145.292529 
L 286.582299 145.425105 
L 287.232909 145.172532 
L 287.88352 143.966618 
L 288.53413 144.253309 
L 289.18474 143.566031 
L 289.835351 143.210777 
L 291.787182 141.336958 
L 292.437792 141.211823 
L 293.739013 140.107056 
L 295.040233 139.411221 
L 296.341454 138.487508 
L 296.992064 137.790892 
L 297.642674 137.524956 
L 298.293285 136.606155 
L 298.943895 136.578699 
L 299.594505 136.205028 
L 300.245116 135.684009 
L 300.895726 135.420841 
L 301.546336 134.308578 
L 302.196947 133.908495 
L 302.847557 133.897856 
L 303.498167 133.489824 
L 304.148778 132.687778 
L 305.449998 131.547055 
L 306.100608 131.494126 
L 306.751219 131.2456 
L 307.401829 130.361213 
L 308.70305 129.637222 
L 309.35366 129.064065 
L 310.00427 128.306578 
L 311.305491 127.792524 
L 311.956101 126.991633 
L 312.606712 126.979215 
L 313.257322 126.101612 
L 313.907932 125.846793 
L 314.558543 125.17384 
L 315.209153 124.871444 
L 315.859763 124.205143 
L 316.510373 124.109027 
L 317.160984 123.462594 
L 317.811594 122.976173 
L 318.462204 122.288917 
L 319.112815 122.067787 
L 319.763425 121.347983 
L 320.414035 121.101107 
L 321.064646 120.475146 
L 321.715256 120.321216 
L 322.365866 119.554594 
L 323.667087 118.537345 
L 324.317697 118.523391 
L 325.618918 117.450817 
L 326.269528 117.234238 
L 326.920138 116.209648 
L 328.221359 115.638163 
L 328.871969 115.227367 
L 329.52258 114.569636 
L 330.8238 113.748221 
L 331.474411 113.115512 
L 332.125021 112.807686 
L 332.775631 112.10667 
L 333.426242 111.834934 
L 334.076852 111.110549 
L 334.727462 110.554789 
L 335.378073 110.438954 
L 336.028683 109.63055 
L 336.679293 109.404891 
L 337.329903 108.901494 
L 337.980514 108.664896 
L 339.281734 107.58251 
L 339.932345 106.840288 
L 340.582955 106.722795 
L 341.233565 106.196322 
L 341.884176 105.362491 
L 342.534786 105.503259 
L 343.836007 104.050771 
L 345.137227 103.627975 
L 345.787837 102.912937 
L 346.438448 102.657565 
L 347.089058 102.059908 
L 347.739668 101.258686 
L 349.691499 100.18092 
L 350.34211 99.747433 
L 350.99272 99.058286 
L 351.64333 98.593517 
L 352.293941 97.920731 
L 352.944551 97.784335 
L 353.595161 96.948674 
L 354.896382 96.362387 
L 355.546992 95.975963 
L 356.197602 95.166849 
L 356.848213 94.824962 
L 357.498823 94.749834 
L 358.800044 92.890533 
L 359.450654 93.102196 
L 360.101264 92.82468 
L 360.751875 91.867105 
L 361.402485 91.783865 
L 362.053095 91.075135 
L 363.354316 90.291441 
L 365.306147 88.969496 
L 365.956757 88.582797 
L 366.607367 87.623148 
L 367.257978 87.534711 
L 367.908588 87.088213 
L 368.559198 86.205177 
L 369.209809 85.814385 
L 369.860419 85.962999 
L 370.511029 85.083417 
L 371.16164 84.882271 
L 372.46286 83.684845 
L 373.764081 82.793964 
L 374.414691 81.828872 
L 375.065302 82.01875 
L 375.715912 81.15435 
L 376.366522 81.09722 
L 377.017132 80.011078 
L 377.667743 79.716199 
L 378.318353 79.617994 
L 379.619574 78.387882 
L 380.270184 78.091601 
L 381.571405 77.043987 
L 382.222015 76.719241 
L 382.872625 76.005062 
L 383.523236 75.773223 
L 384.173846 75.096034 
L 384.824456 74.811435 
L 386.125677 73.768735 
L 387.426897 72.932114 
L 388.077508 72.097782 
L 388.728118 72.025412 
L 389.378728 71.591136 
L 390.029339 70.909559 
L 390.679949 70.607299 
L 391.330559 70.068415 
L 391.98117 69.367161 
L 392.63178 69.212665 
L 393.28239 68.422543 
L 395.884831 66.698948 
L 396.535442 66.063541 
L 397.836662 65.630238 
L 398.487273 64.64289 
L 398.487273 64.64289 
" clip-path="url(#pc54b3f789f)" style="fill: none; stroke-dasharray: 9.6,2.4,1.5,2.4; stroke-dashoffset: 0; stroke: #008000; stroke-width: 1.5"/>
   </g>
   <g id="line2d_33">
    <path d="M 73.832727 295.399453 
L 75.133948 294.481168 
L 76.435169 294.166776 
L 77.085779 292.95808 
L 77.736389 292.551618 
L 78.386999 286.333682 
L 79.03761 289.866126 
L 79.68822 287.611927 
L 80.33883 284.562698 
L 80.989441 284.823299 
L 81.640051 284.463908 
L 82.290661 284.753355 
L 82.941272 284.257678 
L 83.591882 268.541894 
L 84.242492 283.314652 
L 84.893103 281.717479 
L 85.543713 281.814552 
L 86.194323 278.670243 
L 86.844934 282.125838 
L 87.495544 279.194982 
L 88.146154 280.410243 
L 88.796764 280.513122 
L 89.447375 278.511814 
L 90.097985 279.7271 
L 90.748595 280.011957 
L 91.399206 279.22174 
L 92.049816 276.144652 
L 92.700426 279.208837 
L 93.351037 276.862843 
L 94.001647 277.780511 
L 94.652257 275.395706 
L 95.302868 274.197974 
L 95.953478 276.686065 
L 96.604088 277.590722 
L 97.254698 276.748426 
L 97.905309 274.918409 
L 98.555919 273.985754 
L 99.206529 273.820132 
L 100.50775 272.199737 
L 101.15836 270.653895 
L 101.808971 271.127147 
L 102.459581 271.427205 
L 103.110191 269.350514 
L 103.760802 271.971879 
L 104.411412 270.451035 
L 105.062022 270.500697 
L 105.712633 268.470196 
L 106.363243 262.954387 
L 107.013853 267.148376 
L 107.664463 267.277599 
L 108.315074 265.299124 
L 108.965684 266.492164 
L 109.616294 265.653841 
L 110.266905 266.42137 
L 110.917515 265.459366 
L 111.568125 263.234779 
L 112.218736 265.298777 
L 112.869346 263.713381 
L 113.519956 262.430234 
L 114.170567 262.387048 
L 114.821177 262.874101 
L 115.471787 262.116644 
L 116.122398 263.481298 
L 116.773008 261.702456 
L 117.423618 260.546205 
L 118.074228 260.486758 
L 118.724839 252.919591 
L 119.375449 260.274137 
L 120.026059 259.609277 
L 120.67667 261.216206 
L 121.32728 257.007344 
L 122.628501 256.187718 
L 123.279111 255.938524 
L 123.929721 256.641484 
L 124.580332 255.283725 
L 125.230942 256.587184 
L 125.881552 243.448363 
L 126.532163 254.797839 
L 127.182773 254.210296 
L 127.833383 253.909472 
L 128.483993 251.733403 
L 129.134604 252.605714 
L 129.785214 254.576115 
L 130.435824 251.893999 
L 131.086435 250.846682 
L 131.737045 251.903347 
L 132.387655 250.176998 
L 133.038266 244.40899 
L 133.688876 250.035716 
L 134.339486 249.332685 
L 134.990097 249.58988 
L 135.640707 248.979212 
L 136.291317 235.939428 
L 136.941927 247.693582 
L 137.592538 246.629256 
L 138.893758 245.613228 
L 139.544369 246.547822 
L 140.194979 244.179881 
L 140.845589 246.014417 
L 141.4962 243.197003 
L 142.14681 244.791974 
L 142.79742 243.408516 
L 143.448031 243.979428 
L 144.098641 244.984564 
L 144.749251 242.56844 
L 145.399862 242.989864 
L 146.050472 241.732583 
L 146.701082 241.078735 
L 147.351692 240.768443 
L 148.002303 240.803472 
L 148.652913 239.414155 
L 149.303523 238.90293 
L 149.954134 238.661451 
L 150.604744 238.161956 
L 151.255354 237.509047 
L 151.905965 236.272438 
L 152.556575 238.020823 
L 153.207185 237.71402 
L 153.857796 236.110897 
L 154.508406 236.394462 
L 155.159016 234.308314 
L 155.809627 235.896583 
L 156.460237 236.160134 
L 157.110847 233.277432 
L 157.761457 233.870511 
L 158.412068 233.850533 
L 159.062678 231.159894 
L 159.713288 233.024647 
L 160.363899 229.599809 
L 161.014509 233.034618 
L 161.665119 229.145768 
L 162.31573 231.75906 
L 162.96634 228.72927 
L 163.61695 227.704767 
L 164.918171 226.549108 
L 165.568781 226.965109 
L 166.219392 225.761285 
L 166.870002 226.542124 
L 167.520612 224.914978 
L 168.171222 225.472639 
L 168.821833 218.536063 
L 169.472443 226.356775 
L 170.123053 222.435482 
L 170.773664 223.749307 
L 171.424274 224.182909 
L 172.074884 222.053756 
L 172.725495 221.193726 
L 173.376105 221.660436 
L 174.026715 219.62723 
L 174.677326 220.779035 
L 175.327936 219.645658 
L 175.978546 219.988411 
L 176.629156 218.13804 
L 177.279767 219.328046 
L 177.930377 217.577327 
L 178.580987 208.342037 
L 179.231598 217.646786 
L 179.882208 209.840629 
L 180.532818 216.07962 
L 181.183429 217.057861 
L 181.834039 200.992566 
L 182.484649 216.262754 
L 183.13526 213.870977 
L 183.78587 215.446402 
L 184.43648 214.801507 
L 185.087091 214.688269 
L 185.737701 212.648899 
L 186.388311 213.720849 
L 187.038921 213.478424 
L 187.689532 212.254832 
L 188.340142 212.337828 
L 188.990752 210.071534 
L 189.641363 208.669781 
L 190.291973 204.469107 
L 190.942583 208.867769 
L 192.894414 208.143444 
L 193.545025 206.207563 
L 194.195635 201.887684 
L 194.846245 206.294773 
L 195.496856 206.356757 
L 196.147466 205.026091 
L 196.798076 204.139256 
L 197.448686 204.933525 
L 198.099297 205.131668 
L 198.749907 200.58125 
L 199.400517 202.091507 
L 200.051128 202.361665 
L 200.701738 200.775426 
L 201.352348 200.630116 
L 202.002959 188.620544 
L 202.653569 201.615526 
L 203.304179 200.204461 
L 203.95479 200.722311 
L 204.6054 198.314656 
L 205.906621 197.070572 
L 206.557231 189.884701 
L 207.207841 197.532782 
L 207.858451 197.41396 
L 208.509062 195.929486 
L 209.159672 196.280756 
L 209.810282 186.594627 
L 210.460893 195.422037 
L 211.111503 193.334681 
L 211.762113 194.586312 
L 212.412724 187.503205 
L 213.063334 192.812181 
L 213.713944 191.771723 
L 215.015165 191.21165 
L 215.665775 189.375283 
L 216.316385 190.062759 
L 216.966996 191.226803 
L 217.617606 188.227284 
L 218.268216 189.673875 
L 218.918827 189.693613 
L 219.569437 186.964815 
L 220.220047 178.433058 
L 220.870658 186.654176 
L 221.521268 187.879054 
L 222.171878 184.995999 
L 222.822489 177.897356 
L 223.473099 185.010333 
L 224.123709 183.290382 
L 224.77432 182.943283 
L 225.42493 184.020374 
L 226.07554 182.291631 
L 226.72615 182.758988 
L 227.376761 173.254545 
L 228.027371 182.993735 
L 228.677981 178.668703 
L 229.328592 181.933365 
L 229.979202 170.682458 
L 230.629812 180.82383 
L 231.280423 169.853148 
L 231.931033 177.854349 
L 232.581643 179.458315 
L 233.232254 177.061289 
L 233.882864 177.463609 
L 234.533474 175.377911 
L 235.184085 176.56991 
L 235.834695 176.720487 
L 236.485305 156.819546 
L 237.135915 174.87361 
L 237.786526 174.320157 
L 238.437136 173.468231 
L 239.087746 174.648966 
L 239.738357 171.440435 
L 240.388967 172.618806 
L 241.039577 172.676978 
L 241.690188 170.641145 
L 242.340798 171.099848 
L 242.991408 166.093731 
L 243.642019 169.259435 
L 244.292629 164.347932 
L 244.943239 167.353053 
L 245.59385 168.776524 
L 246.24446 167.650615 
L 246.89507 169.365557 
L 247.54568 166.578528 
L 248.196291 166.787761 
L 248.846901 166.727991 
L 249.497511 165.04247 
L 250.148122 163.870012 
L 250.798732 165.351171 
L 251.449342 164.537278 
L 252.099953 164.910584 
L 252.750563 164.198205 
L 253.401173 162.15817 
L 254.051784 162.220825 
L 254.702394 163.309185 
L 255.353004 162.332608 
L 256.003615 160.057773 
L 256.654225 149.695653 
L 257.304835 161.040969 
L 257.955445 159.466604 
L 258.606056 159.803379 
L 259.256666 157.56313 
L 259.907276 158.602523 
L 260.557887 159.060836 
L 261.208497 157.326013 
L 261.859107 155.268659 
L 262.509718 155.181484 
L 263.160328 156.406764 
L 263.810938 156.281138 
L 264.461549 153.495054 
L 265.112159 155.176918 
L 265.762769 155.099308 
L 266.413379 146.64874 
L 267.06399 153.014483 
L 267.7146 152.083366 
L 268.36521 152.016493 
L 269.015821 151.579012 
L 269.666431 150.074243 
L 270.317041 150.137622 
L 270.967652 149.965147 
L 271.618262 149.318959 
L 272.268872 150.455934 
L 272.919483 147.741206 
L 273.570093 148.823175 
L 274.220703 146.466696 
L 274.871314 147.328808 
L 275.521924 147.402881 
L 276.172534 146.128652 
L 276.823144 145.978147 
L 277.473755 144.323639 
L 278.124365 145.761432 
L 278.774975 135.844854 
L 279.425586 141.097633 
L 280.076196 145.108757 
L 280.726806 143.141934 
L 281.377417 142.517974 
L 282.028027 134.658828 
L 282.678637 140.919544 
L 283.329248 142.897618 
L 283.979858 140.686964 
L 284.630468 140.553599 
L 285.281079 140.111779 
L 285.931689 127.349754 
L 286.582299 138.914006 
L 287.232909 139.988679 
L 287.88352 125.399551 
L 288.53413 136.417692 
L 289.18474 136.980422 
L 289.835351 136.971068 
L 290.485961 135.718839 
L 291.136571 135.485343 
L 291.787182 122.248144 
L 292.437792 134.440964 
L 293.088402 130.980493 
L 293.739013 123.43277 
L 294.389623 134.054755 
L 295.040233 134.197265 
L 295.690844 132.074814 
L 296.341454 130.927007 
L 296.992064 130.960294 
L 297.642674 131.80532 
L 298.293285 131.091163 
L 298.943895 128.977115 
L 299.594505 129.116051 
L 300.245116 126.868662 
L 300.895726 130.644125 
L 301.546336 115.203753 
L 302.196947 126.079953 
L 302.847557 126.985048 
L 303.498167 128.522823 
L 304.148778 127.686637 
L 304.799388 124.205009 
L 305.449998 124.552059 
L 306.100608 124.48746 
L 306.751219 125.856991 
L 307.401829 123.717435 
L 308.052439 123.867222 
L 308.70305 121.167696 
L 309.35366 122.986246 
L 310.00427 120.308804 
L 310.654881 121.023762 
L 311.305491 120.888548 
L 311.956101 121.470477 
L 312.606712 119.612613 
L 313.257322 118.262958 
L 314.558543 117.771907 
L 315.209153 117.412456 
L 315.859763 116.2824 
L 316.510373 115.962957 
L 317.160984 117.148235 
L 317.811594 114.069016 
L 318.462204 114.791893 
L 319.112815 114.658696 
L 319.763425 113.59309 
L 320.414035 114.230869 
L 321.064646 113.858897 
L 321.715256 114.952464 
L 322.365866 113.11435 
L 323.016477 112.874355 
L 323.667087 109.844176 
L 324.317697 111.136701 
L 324.968308 109.80151 
L 325.618918 109.30344 
L 326.269528 111.584822 
L 326.920138 108.694723 
L 327.570749 108.827244 
L 328.221359 109.123753 
L 328.871969 107.765001 
L 329.52258 109.010246 
L 330.17319 108.248067 
L 330.8238 106.356312 
L 331.474411 97.786163 
L 332.125021 104.4259 
L 332.775631 100.558799 
L 333.426242 104.507472 
L 334.076852 101.883803 
L 334.727462 87.935381 
L 335.378073 102.91161 
L 336.028683 98.736257 
L 336.679293 103.698475 
L 337.329903 101.159125 
L 337.980514 101.465839 
L 338.631124 100.172434 
L 339.281734 99.60257 
L 339.932345 99.37634 
L 340.582955 100.888787 
L 341.233565 100.075942 
L 341.884176 98.151898 
L 342.534786 96.755513 
L 343.185396 98.371623 
L 343.836007 95.535117 
L 345.137227 98.044124 
L 345.787837 97.194706 
L 347.089058 93.743211 
L 347.739668 93.998378 
L 348.390279 93.167847 
L 349.040889 89.963942 
L 349.691499 93.493778 
L 350.34211 91.69311 
L 350.99272 93.257691 
L 351.64333 91.931112 
L 352.293941 82.814608 
L 352.944551 91.388485 
L 353.595161 84.405318 
L 354.245772 83.085311 
L 354.896382 89.798063 
L 355.546992 89.190997 
L 356.197602 87.291318 
L 356.848213 87.395943 
L 357.498823 88.67043 
L 358.149433 87.080007 
L 358.800044 77.843927 
L 359.450654 86.657046 
L 360.101264 85.237482 
L 360.751875 85.354652 
L 361.402485 83.523522 
L 362.053095 83.987856 
L 362.703706 83.268475 
L 363.354316 81.772061 
L 364.004926 83.776343 
L 364.655537 83.724957 
L 365.306147 82.60857 
L 365.956757 79.678487 
L 366.607367 79.645157 
L 367.257978 79.201177 
L 367.908588 81.062082 
L 369.209809 77.6261 
L 369.860419 80.10781 
L 370.511029 79.15446 
L 371.16164 77.995312 
L 371.81225 75.595497 
L 372.46286 77.428189 
L 373.113471 77.085358 
L 373.764081 76.085596 
L 374.414691 63.525466 
L 375.065302 74.972901 
L 375.715912 73.027079 
L 376.366522 73.37018 
L 377.017132 60.716132 
L 377.667743 71.747194 
L 378.318353 72.629936 
L 378.968963 72.031614 
L 379.619574 71.002814 
L 380.270184 70.782934 
L 380.920794 71.053236 
L 381.571405 71.013701 
L 382.222015 70.704102 
L 382.872625 68.524958 
L 383.523236 69.229341 
L 384.173846 62.29556 
L 384.824456 68.785732 
L 385.475066 67.865951 
L 386.125677 65.372001 
L 386.776287 64.524726 
L 387.426897 65.196761 
L 388.077508 64.284497 
L 388.728118 63.929241 
L 389.378728 64.646408 
L 390.029339 63.244152 
L 390.679949 64.525581 
L 391.330559 61.994945 
L 391.98117 63.262226 
L 392.63178 60.983441 
L 393.28239 60.591481 
L 393.933001 53.568 
L 394.583611 60.614953 
L 395.234221 61.472613 
L 395.884831 58.42044 
L 396.535442 54.049822 
L 397.186052 59.634402 
L 397.836662 58.947273 
L 398.487273 56.183805 
L 398.487273 56.183805 
" clip-path="url(#pc54b3f789f)" style="fill: none; stroke: #ff0000; stroke-width: 1.5; stroke-linecap: square"/>
   </g>
   <g id="patch_3">
    <path d="M 57.6 307.584 
L 57.6 41.472 
" style="fill: none; stroke: #000000; stroke-width: 0.8; stroke-linejoin: miter; stroke-linecap: square"/>
   </g>
   <g id="patch_4">
    <path d="M 414.72 307.584 
L 414.72 41.472 
" style="fill: none; stroke: #000000; stroke-width: 0.8; stroke-linejoin: miter; stroke-linecap: square"/>
   </g>
   <g id="patch_5">
    <path d="M 57.6 307.584 
L 414.72 307.584 
" style="fill: none; stroke: #000000; stroke-width: 0.8; stroke-linejoin: miter; stroke-linecap: square"/>
   </g>
   <g id="patch_6">
    <path d="M 57.6 41.472 
L 414.72 41.472 
" style="fill: none; stroke: #000000; stroke-width: 0.8; stroke-linejoin: miter; stroke-linecap: square"/>
   </g>
   <g id="text_18">
    <!-- Population's average and best fitness -->
    <g transform="translate(123.529687 35.472) scale(0.12 -0.12)">
     <defs>
      <path id="DejaVuSans-50" d="M 1259 4147 
L 1259 2394 
L 2053 2394 
Q 2494 2394 2734 2622 
Q 2975 2850 2975 3272 
Q 2975 3691 2734 3919 
Q 2494 4147 2053 4147 
L 1259 4147 
z
M 628 4666 
L 2053 4666 
Q 2838 4666 3239 4311 
Q 3641 3956 3641 3272 
Q 3641 2581 3239 2228 
Q 2838 1875 2053 1875 
L 1259 1875 
L 1259 0 
L 628 0 
L 628 4666 
z
" transform="scale(0.015625)"/>
      <path id="DejaVuSans-70" d="M 1159 525 
L 1159 -1331 
L 581 -1331 
L 581 3500 
L 1159 3500 
L 1159 2969 
Q 1341 3281 1617 3432 
Q 1894 3584 2278 3584 
Q 2916 3584 3314 3078 
Q 3713 2572 3713 1747 
Q 3713 922 3314 415 
Q 2916 -91 2278 -91 
Q 1894 -91 1617 61 
Q 1341 213 1159 525 
z
M 3116 1747 
Q 3116 2381 2855 2742 
Q 2594 3103 2138 3103 
Q 1681 3103 1420 2742 
Q 1159 2381 1159 1747 
Q 1159 1113 1420 752 
Q 1681 391 2138 391 
Q 2594 391 2855 752 
Q 3116 1113 3116 1747 
z
" transform="scale(0.015625)"/>
      <path id="DejaVuSans-75" d="M 544 1381 
L 544 3500 
L 1119 3500 
L 1119 1403 
Q 1119 906 1312 657 
Q 1506 409 1894 409 
Q 2359 409 2629 706 
Q 2900 1003 2900 1516 
L 2900 3500 
L 3475 3500 
L 3475 0 
L 2900 0 
L 2900 538 
Q 2691 219 2414 64 
Q 2138 -91 1772 -91 
Q 1169 -91 856 284 
Q 544 659 544 1381 
z
M 1991 3584 
L 1991 3584 
z
" transform="scale(0.015625)"/>
      <path id="DejaVuSans-6c" d="M 603 4863 
L 1178 4863 
L 1178 0 
L 603 0 
L 603 4863 
z
" transform="scale(0.015625)"/>
      <path id="DejaVuSans-27" d="M 1147 4666 
L 1147 2931 
L 616 2931 
L 616 4666 
L 1147 4666 
z
" transform="scale(0.015625)"/>
      <path id="DejaVuSans-20" transform="scale(0.015625)"/>
      <path id="DejaVuSans-76" d="M 191 3500 
L 800 3500 
L 1894 563 
L 2988 3500 
L 3597 3500 
L 2284 0 
L 1503 0 
L 191 3500 
z
" transform="scale(0.015625)"/>
      <path id="DejaVuSans-67" d="M 2906 1791 
Q 2906 2416 2648 2759 
Q 2391 3103 1925 3103 
Q 1463 3103 1205 2759 
Q 947 2416 947 1791 
Q 947 1169 1205 825 
Q 1463 481 1925 481 
Q 2391 481 2648 825 
Q 2906 1169 2906 1791 
z
M 3481 434 
Q 3481 -459 3084 -895 
Q 2688 -1331 1869 -1331 
Q 1566 -1331 1297 -1286 
Q 1028 -1241 775 -1147 
L 775 -588 
Q 1028 -725 1275 -790 
Q 1522 -856 1778 -856 
Q 2344 -856 2625 -561 
Q 2906 -266 2906 331 
L 2906 616 
Q 2728 306 2450 153 
Q 2172 0 1784 0 
Q 1141 0 747 490 
Q 353 981 353 1791 
Q 353 2603 747 3093 
Q 1141 3584 1784 3584 
Q 2172 3584 2450 3431 
Q 2728 3278 2906 2969 
L 2906 3500 
L 3481 3500 
L 3481 434 
z
" transform="scale(0.015625)"/>
      <path id="DejaVuSans-64" d="M 2906 2969 
L 2906 4863 
L 3481 4863 
L 3481 0 
L 2906 0 
L 2906 525 
Q 2725 213 2448 61 
Q 2172 -91 1784 -91 
Q 1150 -91 751 415 
Q 353 922 353 1747 
Q 353 2572 751 3078 
Q 1150 3584 1784 3584 
Q 2172 3584 2448 3432 
Q 2725 3281 2906 2969 
z
M 947 1747 
Q 947 1113 1208 752 
Q 1469 391 1925 391 
Q 2381 391 2643 752 
Q 2906 1113 2906 1747 
Q 2906 2381 2643 2742 
Q 2381 3103 1925 3103 
Q 1469 3103 1208 2742 
Q 947 2381 947 1747 
z
" transform="scale(0.015625)"/>
      <path id="DejaVuSans-62" d="M 3116 1747 
Q 3116 2381 2855 2742 
Q 2594 3103 2138 3103 
Q 1681 3103 1420 2742 
Q 1159 2381 1159 1747 
Q 1159 1113 1420 752 
Q 1681 391 2138 391 
Q 2594 391 2855 752 
Q 3116 1113 3116 1747 
z
M 1159 2969 
Q 1341 3281 1617 3432 
Q 1894 3584 2278 3584 
Q 2916 3584 3314 3078 
Q 3713 2572 3713 1747 
Q 3713 922 3314 415 
Q 2916 -91 2278 -91 
Q 1894 -91 1617 61 
Q 1341 213 1159 525 
L 1159 0 
L 581 0 
L 581 4863 
L 1159 4863 
L 1159 2969 
z
" transform="scale(0.015625)"/>
      <path id="DejaVuSans-66" d="M 2375 4863 
L 2375 4384 
L 1825 4384 
Q 1516 4384 1395 4259 
Q 1275 4134 1275 3809 
L 1275 3500 
L 2222 3500 
L 2222 3053 
L 1275 3053 
L 1275 0 
L 697 0 
L 697 3053 
L 147 3053 
L 147 3500 
L 697 3500 
L 697 3744 
Q 697 4328 969 4595 
Q 1241 4863 1831 4863 
L 2375 4863 
z
" transform="scale(0.015625)"/>
     </defs>
     <use xlink:href="#DejaVuSans-50"/>
     <use xlink:href="#DejaVuSans-6f" x="56.677734"/>
     <use xlink:href="#DejaVuSans-70" x="117.859375"/>
     <use xlink:href="#DejaVuSans-75" x="181.335938"/>
     <use xlink:href="#DejaVuSans-6c" x="244.714844"/>
     <use xlink:href="#DejaVuSans-61" x="272.498047"/>
     <use xlink:href="#DejaVuSans-74" x="333.777344"/>
     <use xlink:href="#DejaVuSans-69" x="372.986328"/>
     <use xlink:href="#DejaVuSans-6f" x="400.769531"/>
     <use xlink:href="#DejaVuSans-6e" x="461.951172"/>
     <use xlink:href="#DejaVuSans-27" x="525.330078"/>
     <use xlink:href="#DejaVuSans-73" x="552.820312"/>
     <use xlink:href="#DejaVuSans-20" x="604.919922"/>
     <use xlink:href="#DejaVuSans-61" x="636.707031"/>
     <use xlink:href="#DejaVuSans-76" x="697.986328"/>
     <use xlink:href="#DejaVuSans-65" x="757.166016"/>
     <use xlink:href="#DejaVuSans-72" x="818.689453"/>
     <use xlink:href="#DejaVuSans-61" x="859.802734"/>
     <use xlink:href="#DejaVuSans-67" x="921.082031"/>
     <use xlink:href="#DejaVuSans-65" x="984.558594"/>
     <use xlink:href="#DejaVuSans-20" x="1046.082031"/>
     <use xlink:href="#DejaVuSans-61" x="1077.869141"/>
     <use xlink:href="#DejaVuSans-6e" x="1139.148438"/>
     <use xlink:href="#DejaVuSans-64" x="1202.527344"/>
     <use xlink:href="#DejaVuSans-20" x="1266.003906"/>
     <use xlink:href="#DejaVuSans-62" x="1297.791016"/>
     <use xlink:href="#DejaVuSans-65" x="1361.267578"/>
     <use xlink:href="#DejaVuSans-73" x="1422.791016"/>
     <use xlink:href="#DejaVuSans-74" x="1474.890625"/>
     <use xlink:href="#DejaVuSans-20" x="1514.099609"/>
     <use xlink:href="#DejaVuSans-66" x="1545.886719"/>
     <use xlink:href="#DejaVuSans-69" x="1581.091797"/>
     <use xlink:href="#DejaVuSans-74" x="1608.875"/>
     <use xlink:href="#DejaVuSans-6e" x="1648.083984"/>
     <use xlink:href="#DejaVuSans-65" x="1711.462891"/>
     <use xlink:href="#DejaVuSans-73" x="1772.986328"/>
     <use xlink:href="#DejaVuSans-73" x="1825.085938"/>
    </g>
   </g>
   <g id="legend_1">
    <g id="patch_7">
     <path d="M 64.6 93.506375 
L 137.540625 93.506375 
Q 139.540625 93.506375 139.540625 91.506375 
L 139.540625 48.472 
Q 139.540625 46.472 137.540625 46.472 
L 64.6 46.472 
Q 62.6 46.472 62.6 48.472 
L 62.6 91.506375 
Q 62.6 93.506375 64.6 93.506375 
z
" style="fill: #ffffff; opacity: 0.8; stroke: #cccccc; stroke-linejoin: miter"/>
    </g>
    <g id="line2d_34">
     <path d="M 66.6 54.570438 
L 76.6 54.570438 
L 86.6 54.570438 
" style="fill: none; stroke: #0000ff; stroke-width: 1.5; stroke-linecap: square"/>
    </g>
    <g id="text_19">
     <!-- average -->
     <g transform="translate(94.6 58.070438) scale(0.1 -0.1)">
      <use xlink:href="#DejaVuSans-61"/>
      <use xlink:href="#DejaVuSans-76" x="61.279297"/>
      <use xlink:href="#DejaVuSans-65" x="120.458984"/>
      <use xlink:href="#DejaVuSans-72" x="181.982422"/>
      <use xlink:href="#DejaVuSans-61" x="223.095703"/>
      <use xlink:href="#DejaVuSans-67" x="284.375"/>
      <use xlink:href="#DejaVuSans-65" x="347.851562"/>
     </g>
    </g>
    <g id="line2d_35">
     <path d="M 66.6 69.248563 
L 76.6 69.248563 
L 86.6 69.248563 
" style="fill: none; stroke-dasharray: 9.6,2.4,1.5,2.4; stroke-dashoffset: 0; stroke: #008000; stroke-width: 1.5"/>
    </g>
    <g id="text_20">
     <!-- +1 sd -->
     <g transform="translate(94.6 72.748563) scale(0.1 -0.1)">
      <defs>
       <path id="DejaVuSans-2b" d="M 2944 4013 
L 2944 2272 
L 4684 2272 
L 4684 1741 
L 2944 1741 
L 2944 0 
L 2419 0 
L 2419 1741 
L 678 1741 
L 678 2272 
L 2419 2272 
L 2419 4013 
L 2944 4013 
z
" transform="scale(0.015625)"/>
      </defs>
      <use xlink:href="#DejaVuSans-2b"/>
      <use xlink:href="#DejaVuSans-31" x="83.789062"/>
      <use xlink:href="#DejaVuSans-20" x="147.412109"/>
      <use xlink:href="#DejaVuSans-73" x="179.199219"/>
      <use xlink:href="#DejaVuSans-64" x="231.298828"/>
     </g>
    </g>
    <g id="line2d_36">
     <path d="M 66.6 83.926688 
L 76.6 83.926688 
L 86.6 83.926688 
" style="fill: none; stroke: #ff0000; stroke-width: 1.5; stroke-linecap: square"/>
    </g>
    <g id="text_21">
     <!-- best -->
     <g transform="translate(94.6 87.426688) scale(0.1 -0.1)">
      <use xlink:href="#DejaVuSans-62"/>
      <use xlink:href="#DejaVuSans-65" x="63.476562"/>
      <use xlink:href="#DejaVuSans-73" x="125"/>
      <use xlink:href="#DejaVuSans-74" x="177.099609"/>
     </g>
    </g>
   </g>
  </g>
 </g>
 <defs>
  <clipPath id="pc54b3f789f">
   <rect x="57.6" y="41.472" width="357.12" height="266.112"/>
  </clipPath>
 </defs>
</svg>
