<?xml version="1.0" encoding="UTF-8" standalone="no"?>
<!DOCTYPE svg PUBLIC "-//W3C//DTD SVG 1.1//EN"
 "http://www.w3.org/Graphics/SVG/1.1/DTD/svg11.dtd">
<!-- Generated by graphviz version 2.43.0 (0)
 -->
<!-- Title: %3 Pages: 1 -->
<svg width="395pt" height="187pt"
 viewBox="0.00 0.00 394.98 186.84" xmlns="http://www.w3.org/2000/svg" xmlns:xlink="http://www.w3.org/1999/xlink">
<g id="graph0" class="graph" transform="scale(1 1) rotate(0) translate(4 182.84)">
<title>%3</title>
<polygon fill="white" stroke="transparent" points="-4,4 -4,-182.84 390.98,-182.84 390.98,4 -4,4"/>
<!-- ball_left -->
<g id="node1" class="node">
<title>ball_left</title>
<polygon fill="lightgray" stroke="black" points="54.49,-150.36 1.49,-150.36 1.49,-132.36 54.49,-132.36 54.49,-150.36"/>
<text text-anchor="middle" x="27.99" y="-139.16" font-family="Times,serif" font-size="9.00">ball_left</text>
</g>
<!-- LEFT -->
<g id="node6" class="node">
<title>LEFT</title>
<ellipse fill="lightblue" stroke="black" cx="28.99" cy="-33.94" rx="28.98" ry="28.98"/>
<text text-anchor="middle" x="28.99" y="-31.74" font-family="Times,serif" font-size="9.00">LEFT</text>
</g>
<!-- ball_left&#45;&gt;LEFT -->
<g id="edge2" class="edge">
<title>ball_left&#45;&gt;LEFT</title>
<path fill="none" stroke="green" stroke-width="0.11" d="M28.07,-132.09C28.19,-119.49 28.42,-94.7 28.63,-73.32"/>
<polygon fill="green" stroke="green" stroke-width="0.11" points="32.13,-73.2 28.72,-63.17 25.13,-73.13 32.13,-73.2"/>
</g>
<!-- ball_right -->
<g id="node2" class="node">
<title>ball_right</title>
<polygon fill="lightgray" stroke="black" points="226.99,-150.36 164.99,-150.36 164.99,-132.36 226.99,-132.36 226.99,-150.36"/>
<text text-anchor="middle" x="195.99" y="-139.16" font-family="Times,serif" font-size="9.00">ball_right</text>
</g>
<!-- FIRE -->
<g id="node4" class="node">
<title>FIRE</title>
<ellipse fill="lightblue" stroke="black" cx="195.99" cy="-33.94" rx="28.07" ry="28.07"/>
<text text-anchor="middle" x="195.99" y="-31.74" font-family="Times,serif" font-size="9.00">FIRE</text>
</g>
<!-- ball_right&#45;&gt;FIRE -->
<g id="edge1" class="edge">
<title>ball_right&#45;&gt;FIRE</title>
<path fill="none" stroke="green" stroke-width="0.25" d="M195.99,-132.09C195.99,-119.32 195.99,-94.04 195.99,-72.47"/>
<polygon fill="green" stroke="green" stroke-width="0.25" points="199.49,-72.25 195.99,-62.25 192.49,-72.25 199.49,-72.25"/>
</g>
<!-- NOOP -->
<g id="node3" class="node">
<title>NOOP</title>
<ellipse fill="lightblue" stroke="black" cx="277.99" cy="-141.36" rx="32.55" ry="32.55"/>
<text text-anchor="middle" x="277.99" y="-139.16" font-family="Times,serif" font-size="9.00">NOOP</text>
</g>
<!-- RIGHT -->
<g id="node5" class="node">
<title>RIGHT</title>
<ellipse fill="lightblue" stroke="black" cx="109.99" cy="-33.94" rx="33.88" ry="33.88"/>
<text text-anchor="middle" x="109.99" y="-31.74" font-family="Times,serif" font-size="9.00">RIGHT</text>
</g>
<!-- 1445 -->
<g id="node7" class="node">
<title>1445</title>
<ellipse fill="white" stroke="black" cx="357.99" cy="-141.36" rx="28.98" ry="28.98"/>
<text text-anchor="middle" x="357.99" y="-139.16" font-family="Times,serif" font-size="9.00">1445</text>
</g>
<!-- ball_out -->
<g id="node8" class="node">
<title>ball_out</title>
<ellipse fill="none" stroke="black" cx="109.99" cy="-141.36" rx="37.45" ry="37.45"/>
<text text-anchor="middle" x="109.99" y="-139.16" font-family="Times,serif" font-size="9.00">ball_out</text>
</g>
<!-- ball_out&#45;&gt;RIGHT -->
<g id="edge4" class="edge">
<title>ball_out&#45;&gt;RIGHT</title>
<path fill="none" stroke="green" stroke-width="0.17" d="M109.99,-103.78C109.99,-95.5 109.99,-86.62 109.99,-78.09"/>
<polygon fill="green" stroke="green" stroke-width="0.17" points="113.49,-77.92 109.99,-67.92 106.49,-77.92 113.49,-77.92"/>
</g>
<!-- ball_out&#45;&gt;LEFT -->
<g id="edge3" class="edge">
<title>ball_out&#45;&gt;LEFT</title>
<path fill="none" stroke="green" stroke-width="0.34" d="M87.64,-111.27C76.76,-97.11 63.67,-80.08 52.63,-65.7"/>
<polygon fill="green" stroke="green" stroke-width="0.34" points="55.26,-63.38 46.39,-57.58 49.71,-67.65 55.26,-63.38"/>
</g>
</g>
</svg>
