<?xml version="1.0" encoding="UTF-8" standalone="no"?>
<!DOCTYPE svg PUBLIC "-//W3C//DTD SVG 1.1//EN"
 "http://www.w3.org/Graphics/SVG/1.1/DTD/svg11.dtd">
<!-- Generated by graphviz version 2.43.0 (0)
 -->
<!-- Title: %3 Pages: 1 -->
<svg width="401pt" height="177pt"
 viewBox="0.00 0.00 401.23 176.94" xmlns="http://www.w3.org/2000/svg" xmlns:xlink="http://www.w3.org/1999/xlink">
<g id="graph0" class="graph" transform="scale(1 1) rotate(0) translate(4 172.94)">
<title>%3</title>
<polygon fill="white" stroke="transparent" points="-4,4 -4,-172.94 397.23,-172.94 397.23,4 -4,4"/>
<!-- ball_left -->
<g id="node1" class="node">
<title>ball_left</title>
<polygon fill="lightgray" stroke="black" points="58.44,-145.41 5.44,-145.41 5.44,-127.41 58.44,-127.41 58.44,-145.41"/>
<text text-anchor="middle" x="31.94" y="-134.21" font-family="Times,serif" font-size="9.00">ball_left</text>
</g>
<!-- RIGHT -->
<g id="node6" class="node">
<title>RIGHT</title>
<ellipse fill="lightblue" stroke="black" cx="33.94" cy="-33.94" rx="33.88" ry="33.88"/>
<text text-anchor="middle" x="33.94" y="-31.74" font-family="Times,serif" font-size="9.00">RIGHT</text>
</g>
<!-- ball_left&#45;&gt;RIGHT -->
<g id="edge2" class="edge">
<title>ball_left&#45;&gt;RIGHT</title>
<path fill="none" stroke="green" stroke-width="0.97" d="M32.1,-127.19C32.32,-116.35 32.72,-96.5 33.08,-77.97"/>
<polygon fill="green" stroke="green" stroke-width="0.97" points="36.59,-77.95 33.29,-67.88 29.59,-77.81 36.59,-77.95"/>
</g>
<!-- ball_right -->
<g id="node2" class="node">
<title>ball_right</title>
<polygon fill="lightgray" stroke="black" points="234.94,-145.41 172.94,-145.41 172.94,-127.41 234.94,-127.41 234.94,-145.41"/>
<text text-anchor="middle" x="203.94" y="-134.21" font-family="Times,serif" font-size="9.00">ball_right</text>
</g>
<!-- ball_out_field -->
<g id="node3" class="node">
<title>ball_out_field</title>
<polygon fill="lightgray" stroke="black" points="154.94,-145.41 76.94,-145.41 76.94,-127.41 154.94,-127.41 154.94,-145.41"/>
<text text-anchor="middle" x="115.94" y="-134.21" font-family="Times,serif" font-size="9.00">ball_out_field</text>
</g>
<!-- ball_out_field&#45;&gt;RIGHT -->
<g id="edge3" class="edge">
<title>ball_out_field&#45;&gt;RIGHT</title>
<path fill="none" stroke="green" stroke-width="0.32" stroke-dasharray="1,5" d="M109.23,-127.19C98.9,-114.53 78.51,-89.55 61.55,-68.77"/>
<polygon fill="green" stroke="green" stroke-width="0.32" points="64.05,-66.29 55.01,-60.76 58.62,-70.72 64.05,-66.29"/>
</g>
<!-- LEFT -->
<g id="node7" class="node">
<title>LEFT</title>
<ellipse fill="lightblue" stroke="black" cx="115.94" cy="-33.94" rx="28.98" ry="28.98"/>
<text text-anchor="middle" x="115.94" y="-31.74" font-family="Times,serif" font-size="9.00">LEFT</text>
</g>
<!-- ball_out_field&#45;&gt;LEFT -->
<g id="edge1" class="edge">
<title>ball_out_field&#45;&gt;LEFT</title>
<path fill="none" stroke="green" stroke-width="0.96" d="M115.94,-127.19C115.94,-115.37 115.94,-92.84 115.94,-72.99"/>
<polygon fill="green" stroke="green" stroke-width="0.96" points="119.44,-72.94 115.94,-62.94 112.44,-72.94 119.44,-72.94"/>
</g>
<!-- NOOP -->
<g id="node4" class="node">
<title>NOOP</title>
<ellipse fill="lightblue" stroke="black" cx="285.94" cy="-136.41" rx="32.55" ry="32.55"/>
<text text-anchor="middle" x="285.94" y="-134.21" font-family="Times,serif" font-size="9.00">NOOP</text>
</g>
<!-- FIRE -->
<g id="node5" class="node">
<title>FIRE</title>
<ellipse fill="lightblue" stroke="black" cx="364.94" cy="-136.41" rx="28.07" ry="28.07"/>
<text text-anchor="middle" x="364.94" y="-134.21" font-family="Times,serif" font-size="9.00">FIRE</text>
</g>
</g>
</svg>
