<?xml version="1.0" encoding="UTF-8" standalone="no"?>
<!DOCTYPE svg PUBLIC "-//W3C//DTD SVG 1.1//EN"
 "http://www.w3.org/Graphics/SVG/1.1/DTD/svg11.dtd">
<!-- Generated by graphviz version 2.43.0 (0)
 -->
<!-- Title: %3 Pages: 1 -->
<svg width="398pt" height="271pt"
 viewBox="0.00 0.00 398.28 270.92" xmlns="http://www.w3.org/2000/svg" xmlns:xlink="http://www.w3.org/1999/xlink">
<g id="graph0" class="graph" transform="scale(1 1) rotate(0) translate(4 266.92)">
<title>%3</title>
<polygon fill="white" stroke="transparent" points="-4,4 -4,-266.92 394.28,-266.92 394.28,4 -4,4"/>
<!-- ball_left -->
<g id="node1" class="node">
<title>ball_left</title>
<polygon fill="lightgray" stroke="black" points="55.49,-239.39 2.49,-239.39 2.49,-221.39 55.49,-221.39 55.49,-239.39"/>
<text text-anchor="middle" x="28.99" y="-228.19" font-family="Times,serif" font-size="9.00">ball_left</text>
</g>
<!-- LEFT -->
<g id="node7" class="node">
<title>LEFT</title>
<ellipse fill="lightblue" stroke="black" cx="28.99" cy="-132.87" rx="28.98" ry="28.98"/>
<text text-anchor="middle" x="28.99" y="-130.67" font-family="Times,serif" font-size="9.00">LEFT</text>
</g>
<!-- ball_left&#45;&gt;LEFT -->
<g id="edge1" class="edge">
<title>ball_left&#45;&gt;LEFT</title>
<path fill="none" stroke="green" stroke-width="0.15" d="M28.99,-221.25C28.99,-210.34 28.99,-190.23 28.99,-172.06"/>
<polygon fill="green" stroke="green" stroke-width="0.15" points="32.49,-171.95 28.99,-161.95 25.49,-171.95 32.49,-171.95"/>
</g>
<!-- ball_right -->
<g id="node2" class="node">
<title>ball_right</title>
<polygon fill="lightgray" stroke="black" points="135.99,-239.39 73.99,-239.39 73.99,-221.39 135.99,-221.39 135.99,-239.39"/>
<text text-anchor="middle" x="104.99" y="-228.19" font-family="Times,serif" font-size="9.00">ball_right</text>
</g>
<!-- 214 -->
<g id="node8" class="node">
<title>214</title>
<ellipse fill="white" stroke="black" cx="104.99" cy="-132.87" rx="25" ry="25"/>
<text text-anchor="middle" x="104.99" y="-130.67" font-family="Times,serif" font-size="9.00">214</text>
</g>
<!-- ball_right&#45;&gt;214 -->
<g id="edge2" class="edge">
<title>ball_right&#45;&gt;214</title>
<path fill="none" stroke="green" stroke-width="0.39" d="M104.99,-221.25C104.99,-209.52 104.99,-187.19 104.99,-168.04"/>
<polygon fill="green" stroke="green" stroke-width="0.39" points="108.49,-167.82 104.99,-157.82 101.49,-167.82 108.49,-167.82"/>
</g>
<!-- ball_out_field -->
<g id="node3" class="node">
<title>ball_out_field</title>
<polygon fill="lightgray" stroke="black" points="231.99,-239.39 153.99,-239.39 153.99,-221.39 231.99,-221.39 231.99,-239.39"/>
<text text-anchor="middle" x="192.99" y="-228.19" font-family="Times,serif" font-size="9.00">ball_out_field</text>
</g>
<!-- NOOP -->
<g id="node4" class="node">
<title>NOOP</title>
<ellipse fill="lightblue" stroke="black" cx="282.99" cy="-230.39" rx="32.55" ry="32.55"/>
<text text-anchor="middle" x="282.99" y="-228.19" font-family="Times,serif" font-size="9.00">NOOP</text>
</g>
<!-- FIRE -->
<g id="node5" class="node">
<title>FIRE</title>
<ellipse fill="lightblue" stroke="black" cx="361.99" cy="-230.39" rx="28.07" ry="28.07"/>
<text text-anchor="middle" x="361.99" y="-228.19" font-family="Times,serif" font-size="9.00">FIRE</text>
</g>
<!-- RIGHT -->
<g id="node6" class="node">
<title>RIGHT</title>
<ellipse fill="lightblue" stroke="black" cx="104.99" cy="-33.94" rx="33.88" ry="33.88"/>
<text text-anchor="middle" x="104.99" y="-31.74" font-family="Times,serif" font-size="9.00">RIGHT</text>
</g>
<!-- 214&#45;&gt;RIGHT -->
<g id="edge3" class="edge">
<title>214&#45;&gt;RIGHT</title>
<path fill="none" stroke="red" stroke-width="0.46" d="M104.99,-107.91C104.99,-98.91 104.99,-88.39 104.99,-78.17"/>
<polygon fill="red" stroke="red" stroke-width="0.46" points="108.49,-78.13 104.99,-68.13 101.49,-78.13 108.49,-78.13"/>
</g>
</g>
</svg>
