<?xml version="1.0" encoding="utf-8" standalone="no"?>
<!DOCTYPE svg PUBLIC "-//W3C//DTD SVG 1.1//EN"
  "http://www.w3.org/Graphics/SVG/1.1/DTD/svg11.dtd">
<svg xmlns:xlink="http://www.w3.org/1999/xlink" width="460.8pt" height="345.6pt" viewBox="0 0 460.8 345.6" xmlns="http://www.w3.org/2000/svg" version="1.1">
 <metadata>
  <rdf:RDF xmlns:dc="http://purl.org/dc/elements/1.1/" xmlns:cc="http://creativecommons.org/ns#" xmlns:rdf="http://www.w3.org/1999/02/22-rdf-syntax-ns#">
   <cc:Work>
    <dc:type rdf:resource="http://purl.org/dc/dcmitype/StillImage"/>
    <dc:date>2023-02-17T19:51:42.679457</dc:date>
    <dc:format>image/svg+xml</dc:format>
    <dc:creator>
     <cc:Agent>
      <dc:title>Matplotlib v3.6.2, https://matplotlib.org/</dc:title>
     </cc:Agent>
    </dc:creator>
   </cc:Work>
  </rdf:RDF>
 </metadata>
 <defs>
  <style type="text/css">*{stroke-linejoin: round; stroke-linecap: butt}</style>
 </defs>
 <g id="figure_1">
  <g id="patch_1">
   <path d="M 0 345.6 
L 460.8 345.6 
L 460.8 0 
L 0 0 
z
" style="fill: #ffffff"/>
  </g>
  <g id="axes_1">
   <g id="patch_2">
    <path d="M 57.6 307.584 
L 414.72 307.584 
L 414.72 41.472 
L 57.6 41.472 
z
" style="fill: #ffffff"/>
   </g>
   <g id="PolyCollection_1">
    <path d="M 73.832727 66.976405 
L 73.832727 307.584 
L 85.027712 307.584 
L 96.222696 307.584 
L 107.41768 307.584 
L 118.612665 307.584 
L 129.807649 307.584 
L 141.002633 307.584 
L 152.197618 307.584 
L 163.392602 307.584 
L 174.587586 307.584 
L 185.782571 307.584 
L 196.977555 307.584 
L 208.172539 307.584 
L 219.367524 307.584 
L 230.562508 307.584 
L 241.757492 307.584 
L 252.952476 307.584 
L 264.147461 307.584 
L 275.342445 307.584 
L 286.537429 307.584 
L 297.732414 307.584 
L 308.927398 307.584 
L 320.122382 307.584 
L 331.317367 307.584 
L 342.512351 307.584 
L 353.707335 307.584 
L 364.90232 307.584 
L 376.097304 307.584 
L 387.292288 307.584 
L 398.487273 307.584 
L 398.487273 302.771848 
L 398.487273 302.771848 
L 387.292288 297.959696 
L 376.097304 296.355646 
L 364.90232 299.563747 
L 353.707335 299.563747 
L 342.512351 301.167797 
L 331.317367 299.563747 
L 320.122382 301.167797 
L 308.927398 299.563747 
L 297.732414 296.355646 
L 286.537429 296.355646 
L 275.342445 283.523241 
L 264.147461 281.91919 
L 252.952476 277.107038 
L 241.757492 280.315139 
L 230.562508 293.147544 
L 219.367524 288.335392 
L 208.172539 281.91919 
L 196.977555 283.523241 
L 185.782571 283.523241 
L 174.587586 248.234127 
L 163.392602 253.046278 
L 152.197618 277.107038 
L 141.002633 237.005772 
L 129.807649 219.361215 
L 118.612665 97.453367 
L 107.41768 66.976405 
L 96.222696 66.976405 
L 85.027712 66.976405 
L 73.832727 66.976405 
z
" clip-path="url(#p7001821112)" style="fill: #1f77b4"/>
   </g>
   <g id="PolyCollection_2">
    <path d="M 73.832727 66.976405 
L 73.832727 66.976405 
L 85.027712 66.976405 
L 96.222696 66.976405 
L 107.41768 66.976405 
L 118.612665 97.453367 
L 129.807649 219.361215 
L 141.002633 237.005772 
L 152.197618 277.107038 
L 163.392602 253.046278 
L 174.587586 248.234127 
L 185.782571 283.523241 
L 196.977555 283.523241 
L 208.172539 281.91919 
L 219.367524 288.335392 
L 230.562508 293.147544 
L 241.757492 280.315139 
L 252.952476 277.107038 
L 264.147461 281.91919 
L 275.342445 283.523241 
L 286.537429 296.355646 
L 297.732414 296.355646 
L 308.927398 299.563747 
L 320.122382 301.167797 
L 331.317367 299.563747 
L 342.512351 301.167797 
L 353.707335 299.563747 
L 364.90232 299.563747 
L 376.097304 296.355646 
L 387.292288 297.959696 
L 398.487273 302.771848 
L 398.487273 294.751595 
L 398.487273 294.751595 
L 387.292288 291.543494 
L 376.097304 285.127291 
L 364.90232 288.335392 
L 353.707335 294.751595 
L 342.512351 291.543494 
L 331.317367 289.939443 
L 320.122382 289.939443 
L 308.927398 289.939443 
L 297.732414 285.127291 
L 286.537429 289.939443 
L 275.342445 273.898937 
L 264.147461 270.690835 
L 252.952476 267.482734 
L 241.757492 269.086785 
L 230.562508 283.523241 
L 219.367524 265.878684 
L 208.172539 264.274633 
L 196.977555 261.066532 
L 185.782571 275.502987 
L 174.587586 238.609823 
L 163.392602 237.005772 
L 152.197618 257.85843 
L 141.002633 219.361215 
L 129.807649 184.072101 
L 118.612665 83.016911 
L 107.41768 66.976405 
L 96.222696 66.976405 
L 85.027712 66.976405 
L 73.832727 66.976405 
z
" clip-path="url(#p7001821112)" style="fill: #ff7f0e"/>
   </g>
   <g id="PolyCollection_3">
    <path d="M 73.832727 66.976405 
L 73.832727 66.976405 
L 85.027712 66.976405 
L 96.222696 66.976405 
L 107.41768 66.976405 
L 118.612665 83.016911 
L 129.807649 184.072101 
L 141.002633 219.361215 
L 152.197618 257.85843 
L 163.392602 237.005772 
L 174.587586 238.609823 
L 185.782571 275.502987 
L 196.977555 261.066532 
L 208.172539 264.274633 
L 219.367524 265.878684 
L 230.562508 283.523241 
L 241.757492 269.086785 
L 252.952476 267.482734 
L 264.147461 270.690835 
L 275.342445 273.898937 
L 286.537429 289.939443 
L 297.732414 285.127291 
L 308.927398 289.939443 
L 320.122382 289.939443 
L 331.317367 289.939443 
L 342.512351 291.543494 
L 353.707335 294.751595 
L 364.90232 288.335392 
L 376.097304 285.127291 
L 387.292288 291.543494 
L 398.487273 294.751595 
L 398.487273 286.731342 
L 398.487273 286.731342 
L 387.292288 281.91919 
L 376.097304 278.711089 
L 364.90232 278.711089 
L 353.707335 286.731342 
L 342.512351 278.711089 
L 331.317367 278.711089 
L 320.122382 278.711089 
L 308.927398 280.315139 
L 297.732414 275.502987 
L 286.537429 278.711089 
L 275.342445 261.066532 
L 264.147461 261.066532 
L 252.952476 262.670582 
L 241.757492 225.777418 
L 230.562508 264.274633 
L 219.367524 228.985519 
L 208.172539 243.421975 
L 196.977555 245.026025 
L 185.782571 265.878684 
L 174.587586 206.52881 
L 163.392602 190.488304 
L 152.197618 188.884253 
L 141.002633 110.285772 
L 129.807649 132.742481 
L 118.612665 73.392608 
L 107.41768 66.976405 
L 96.222696 66.976405 
L 85.027712 66.976405 
L 73.832727 66.976405 
z
" clip-path="url(#p7001821112)" style="fill: #2ca02c"/>
   </g>
   <g id="PolyCollection_4">
    <path d="M 73.832727 66.976405 
L 73.832727 66.976405 
L 85.027712 66.976405 
L 96.222696 66.976405 
L 107.41768 66.976405 
L 118.612665 73.392608 
L 129.807649 132.742481 
L 141.002633 110.285772 
L 152.197618 188.884253 
L 163.392602 190.488304 
L 174.587586 206.52881 
L 185.782571 265.878684 
L 196.977555 245.026025 
L 208.172539 243.421975 
L 219.367524 228.985519 
L 230.562508 264.274633 
L 241.757492 225.777418 
L 252.952476 262.670582 
L 264.147461 261.066532 
L 275.342445 261.066532 
L 286.537429 278.711089 
L 297.732414 275.502987 
L 308.927398 280.315139 
L 320.122382 278.711089 
L 331.317367 278.711089 
L 342.512351 278.711089 
L 353.707335 286.731342 
L 364.90232 278.711089 
L 376.097304 278.711089 
L 387.292288 281.91919 
L 398.487273 286.731342 
L 398.487273 281.91919 
L 398.487273 281.91919 
L 387.292288 275.502987 
L 376.097304 275.502987 
L 364.90232 265.878684 
L 353.707335 278.711089 
L 342.512351 269.086785 
L 331.317367 267.482734 
L 320.122382 267.482734 
L 308.927398 269.086785 
L 297.732414 262.670582 
L 286.537429 267.482734 
L 275.342445 248.234127 
L 264.147461 246.630076 
L 252.952476 243.421975 
L 241.757492 211.340962 
L 230.562508 227.381468 
L 219.367524 216.153114 
L 208.172539 237.005772 
L 196.977555 241.817924 
L 185.782571 257.85843 
L 174.587586 172.843747 
L 163.392602 115.097924 
L 152.197618 137.554633 
L 141.002633 86.225013 
L 129.807649 110.285772 
L 118.612665 66.976405 
L 107.41768 66.976405 
L 96.222696 66.976405 
L 85.027712 66.976405 
L 73.832727 66.976405 
z
" clip-path="url(#p7001821112)" style="fill: #d62728"/>
   </g>
   <g id="PolyCollection_5">
    <path d="M 73.832727 66.976405 
L 73.832727 66.976405 
L 85.027712 66.976405 
L 96.222696 66.976405 
L 107.41768 66.976405 
L 118.612665 66.976405 
L 129.807649 110.285772 
L 141.002633 86.225013 
L 152.197618 137.554633 
L 163.392602 115.097924 
L 174.587586 172.843747 
L 185.782571 257.85843 
L 196.977555 241.817924 
L 208.172539 237.005772 
L 219.367524 216.153114 
L 230.562508 227.381468 
L 241.757492 211.340962 
L 252.952476 243.421975 
L 264.147461 246.630076 
L 275.342445 248.234127 
L 286.537429 267.482734 
L 297.732414 262.670582 
L 308.927398 269.086785 
L 320.122382 267.482734 
L 331.317367 267.482734 
L 342.512351 269.086785 
L 353.707335 278.711089 
L 364.90232 265.878684 
L 376.097304 275.502987 
L 387.292288 275.502987 
L 398.487273 281.91919 
L 398.487273 281.91919 
L 398.487273 281.91919 
L 387.292288 275.502987 
L 376.097304 275.502987 
L 364.90232 265.878684 
L 353.707335 273.898937 
L 342.512351 264.274633 
L 331.317367 262.670582 
L 320.122382 262.670582 
L 308.927398 264.274633 
L 297.732414 256.25438 
L 286.537429 262.670582 
L 275.342445 243.421975 
L 264.147461 241.817924 
L 252.952476 238.609823 
L 241.757492 206.52881 
L 230.562508 222.569316 
L 219.367524 211.340962 
L 208.172539 232.19362 
L 196.977555 237.005772 
L 185.782571 253.046278 
L 174.587586 168.031595 
L 163.392602 110.285772 
L 152.197618 132.742481 
L 141.002633 84.620962 
L 129.807649 100.661468 
L 118.612665 66.976405 
L 107.41768 66.976405 
L 96.222696 66.976405 
L 85.027712 66.976405 
L 73.832727 66.976405 
z
" clip-path="url(#p7001821112)" style="fill: #9467bd"/>
   </g>
   <g id="PolyCollection_6">
    <path d="M 73.832727 66.976405 
L 73.832727 66.976405 
L 85.027712 66.976405 
L 96.222696 66.976405 
L 107.41768 66.976405 
L 118.612665 66.976405 
L 129.807649 100.661468 
L 141.002633 84.620962 
L 152.197618 132.742481 
L 163.392602 110.285772 
L 174.587586 168.031595 
L 185.782571 253.046278 
L 196.977555 237.005772 
L 208.172539 232.19362 
L 219.367524 211.340962 
L 230.562508 222.569316 
L 241.757492 206.52881 
L 252.952476 238.609823 
L 264.147461 241.817924 
L 275.342445 243.421975 
L 286.537429 262.670582 
L 297.732414 256.25438 
L 308.927398 264.274633 
L 320.122382 262.670582 
L 331.317367 262.670582 
L 342.512351 264.274633 
L 353.707335 273.898937 
L 364.90232 265.878684 
L 376.097304 275.502987 
L 387.292288 275.502987 
L 398.487273 281.91919 
L 398.487273 270.690835 
L 398.487273 270.690835 
L 387.292288 265.878684 
L 376.097304 265.878684 
L 364.90232 259.462481 
L 353.707335 262.670582 
L 342.512351 253.046278 
L 331.317367 251.442228 
L 320.122382 246.630076 
L 308.927398 249.838177 
L 297.732414 243.421975 
L 286.537429 256.25438 
L 275.342445 237.005772 
L 264.147461 230.58957 
L 252.952476 220.965266 
L 241.757492 188.884253 
L 230.562508 216.153114 
L 219.367524 203.320709 
L 208.172539 203.320709 
L 196.977555 203.320709 
L 185.782571 212.945013 
L 174.587586 150.387038 
L 163.392602 99.057418 
L 152.197618 89.433114 
L 141.002633 70.184506 
L 129.807649 70.184506 
L 118.612665 66.976405 
L 107.41768 66.976405 
L 96.222696 66.976405 
L 85.027712 66.976405 
L 73.832727 66.976405 
z
" clip-path="url(#p7001821112)" style="fill: #8c564b"/>
   </g>
   <g id="PolyCollection_7">
    <path d="M 73.832727 66.976405 
L 73.832727 66.976405 
L 85.027712 66.976405 
L 96.222696 66.976405 
L 107.41768 66.976405 
L 118.612665 66.976405 
L 129.807649 70.184506 
L 141.002633 70.184506 
L 152.197618 89.433114 
L 163.392602 99.057418 
L 174.587586 150.387038 
L 185.782571 212.945013 
L 196.977555 203.320709 
L 208.172539 203.320709 
L 219.367524 203.320709 
L 230.562508 216.153114 
L 241.757492 188.884253 
L 252.952476 220.965266 
L 264.147461 230.58957 
L 275.342445 237.005772 
L 286.537429 256.25438 
L 297.732414 243.421975 
L 308.927398 249.838177 
L 320.122382 246.630076 
L 331.317367 251.442228 
L 342.512351 253.046278 
L 353.707335 262.670582 
L 364.90232 259.462481 
L 376.097304 265.878684 
L 387.292288 265.878684 
L 398.487273 270.690835 
L 398.487273 264.274633 
L 398.487273 264.274633 
L 387.292288 261.066532 
L 376.097304 259.462481 
L 364.90232 251.442228 
L 353.707335 256.25438 
L 342.512351 245.026025 
L 331.317367 245.026025 
L 320.122382 237.005772 
L 308.927398 246.630076 
L 297.732414 232.19362 
L 286.537429 245.026025 
L 275.342445 216.153114 
L 264.147461 212.945013 
L 252.952476 192.092354 
L 241.757492 160.011342 
L 230.562508 185.676152 
L 219.367524 169.635646 
L 208.172539 184.072101 
L 196.977555 180.864 
L 185.782571 198.508557 
L 174.587586 129.53438 
L 163.392602 91.037165 
L 152.197618 76.600709 
L 141.002633 66.976405 
L 129.807649 66.976405 
L 118.612665 66.976405 
L 107.41768 66.976405 
L 96.222696 66.976405 
L 85.027712 66.976405 
L 73.832727 66.976405 
z
" clip-path="url(#p7001821112)" style="fill: #e377c2"/>
   </g>
   <g id="PolyCollection_8">
    <path d="M 73.832727 66.976405 
L 73.832727 66.976405 
L 85.027712 66.976405 
L 96.222696 66.976405 
L 107.41768 66.976405 
L 118.612665 66.976405 
L 129.807649 66.976405 
L 141.002633 66.976405 
L 152.197618 76.600709 
L 163.392602 91.037165 
L 174.587586 129.53438 
L 185.782571 198.508557 
L 196.977555 180.864 
L 208.172539 184.072101 
L 219.367524 169.635646 
L 230.562508 185.676152 
L 241.757492 160.011342 
L 252.952476 192.092354 
L 264.147461 212.945013 
L 275.342445 216.153114 
L 286.537429 245.026025 
L 297.732414 232.19362 
L 308.927398 246.630076 
L 320.122382 237.005772 
L 331.317367 245.026025 
L 342.512351 245.026025 
L 353.707335 256.25438 
L 364.90232 251.442228 
L 376.097304 259.462481 
L 387.292288 261.066532 
L 398.487273 264.274633 
L 398.487273 259.462481 
L 398.487273 259.462481 
L 387.292288 256.25438 
L 376.097304 254.650329 
L 364.90232 246.630076 
L 353.707335 251.442228 
L 342.512351 240.213873 
L 331.317367 240.213873 
L 320.122382 232.19362 
L 308.927398 241.817924 
L 297.732414 227.381468 
L 286.537429 240.213873 
L 275.342445 211.340962 
L 264.147461 208.132861 
L 252.952476 187.280203 
L 241.757492 155.19919 
L 230.562508 180.864 
L 219.367524 164.823494 
L 208.172539 177.655899 
L 196.977555 172.843747 
L 185.782571 188.884253 
L 174.587586 116.701975 
L 163.392602 74.996658 
L 152.197618 65.372354 
L 141.002633 66.976405 
L 129.807649 66.976405 
L 118.612665 66.976405 
L 107.41768 66.976405 
L 96.222696 66.976405 
L 85.027712 66.976405 
L 73.832727 66.976405 
z
" clip-path="url(#p7001821112)" style="fill: #7f7f7f"/>
   </g>
   <g id="PolyCollection_9">
    <path d="M 73.832727 66.976405 
L 73.832727 66.976405 
L 85.027712 66.976405 
L 96.222696 66.976405 
L 107.41768 66.976405 
L 118.612665 66.976405 
L 129.807649 66.976405 
L 141.002633 66.976405 
L 152.197618 65.372354 
L 163.392602 74.996658 
L 174.587586 116.701975 
L 185.782571 188.884253 
L 196.977555 172.843747 
L 208.172539 177.655899 
L 219.367524 164.823494 
L 230.562508 180.864 
L 241.757492 155.19919 
L 252.952476 187.280203 
L 264.147461 208.132861 
L 275.342445 211.340962 
L 286.537429 240.213873 
L 297.732414 227.381468 
L 308.927398 241.817924 
L 320.122382 232.19362 
L 331.317367 240.213873 
L 342.512351 240.213873 
L 353.707335 251.442228 
L 364.90232 246.630076 
L 376.097304 254.650329 
L 387.292288 256.25438 
L 398.487273 259.462481 
L 398.487273 254.650329 
L 398.487273 254.650329 
L 387.292288 251.442228 
L 376.097304 249.838177 
L 364.90232 241.817924 
L 353.707335 246.630076 
L 342.512351 235.401722 
L 331.317367 235.401722 
L 320.122382 227.381468 
L 308.927398 237.005772 
L 297.732414 222.569316 
L 286.537429 235.401722 
L 275.342445 206.52881 
L 264.147461 203.320709 
L 252.952476 182.468051 
L 241.757492 150.387038 
L 230.562508 176.051848 
L 219.367524 158.407291 
L 208.172539 169.635646 
L 196.977555 166.427544 
L 185.782571 180.864 
L 174.587586 107.077671 
L 163.392602 63.768304 
L 152.197618 63.768304 
L 141.002633 66.976405 
L 129.807649 66.976405 
L 118.612665 66.976405 
L 107.41768 66.976405 
L 96.222696 66.976405 
L 85.027712 66.976405 
L 73.832727 66.976405 
z
" clip-path="url(#p7001821112)" style="fill: #bcbd22"/>
   </g>
   <g id="PolyCollection_10">
    <path d="M 73.832727 66.976405 
L 73.832727 66.976405 
L 85.027712 66.976405 
L 96.222696 66.976405 
L 107.41768 66.976405 
L 118.612665 66.976405 
L 129.807649 66.976405 
L 141.002633 66.976405 
L 152.197618 63.768304 
L 163.392602 63.768304 
L 174.587586 107.077671 
L 185.782571 180.864 
L 196.977555 166.427544 
L 208.172539 169.635646 
L 219.367524 158.407291 
L 230.562508 176.051848 
L 241.757492 150.387038 
L 252.952476 182.468051 
L 264.147461 203.320709 
L 275.342445 206.52881 
L 286.537429 235.401722 
L 297.732414 222.569316 
L 308.927398 237.005772 
L 320.122382 227.381468 
L 331.317367 235.401722 
L 342.512351 235.401722 
L 353.707335 246.630076 
L 364.90232 241.817924 
L 376.097304 249.838177 
L 387.292288 251.442228 
L 398.487273 254.650329 
L 398.487273 249.838177 
L 398.487273 249.838177 
L 387.292288 245.026025 
L 376.097304 245.026025 
L 364.90232 235.401722 
L 353.707335 241.817924 
L 342.512351 230.58957 
L 331.317367 228.985519 
L 320.122382 219.361215 
L 308.927398 232.19362 
L 297.732414 217.757165 
L 286.537429 230.58957 
L 275.342445 201.716658 
L 264.147461 198.508557 
L 252.952476 177.655899 
L 241.757492 145.574886 
L 230.562508 171.239696 
L 219.367524 153.595139 
L 208.172539 163.219443 
L 196.977555 158.407291 
L 185.782571 172.843747 
L 174.587586 100.661468 
L 163.392602 63.768304 
L 152.197618 63.768304 
L 141.002633 66.976405 
L 129.807649 66.976405 
L 118.612665 66.976405 
L 107.41768 66.976405 
L 96.222696 66.976405 
L 85.027712 66.976405 
L 73.832727 66.976405 
z
" clip-path="url(#p7001821112)" style="fill: #17becf"/>
   </g>
   <g id="PolyCollection_11">
    <path d="M 73.832727 66.976405 
L 73.832727 66.976405 
L 85.027712 66.976405 
L 96.222696 66.976405 
L 107.41768 66.976405 
L 118.612665 66.976405 
L 129.807649 66.976405 
L 141.002633 66.976405 
L 152.197618 63.768304 
L 163.392602 63.768304 
L 174.587586 100.661468 
L 185.782571 172.843747 
L 196.977555 158.407291 
L 208.172539 163.219443 
L 219.367524 153.595139 
L 230.562508 171.239696 
L 241.757492 145.574886 
L 252.952476 177.655899 
L 264.147461 198.508557 
L 275.342445 201.716658 
L 286.537429 230.58957 
L 297.732414 217.757165 
L 308.927398 232.19362 
L 320.122382 219.361215 
L 331.317367 228.985519 
L 342.512351 230.58957 
L 353.707335 241.817924 
L 364.90232 235.401722 
L 376.097304 245.026025 
L 387.292288 245.026025 
L 398.487273 249.838177 
L 398.487273 245.026025 
L 398.487273 245.026025 
L 387.292288 240.213873 
L 376.097304 240.213873 
L 364.90232 230.58957 
L 353.707335 237.005772 
L 342.512351 225.777418 
L 331.317367 224.173367 
L 320.122382 214.549063 
L 308.927398 227.381468 
L 297.732414 212.945013 
L 286.537429 225.777418 
L 275.342445 196.904506 
L 264.147461 193.696405 
L 252.952476 172.843747 
L 241.757492 140.762734 
L 230.562508 166.427544 
L 219.367524 148.782987 
L 208.172539 156.803241 
L 196.977555 153.595139 
L 185.782571 160.011342 
L 174.587586 91.037165 
L 163.392602 63.768304 
L 152.197618 63.768304 
L 141.002633 66.976405 
L 129.807649 66.976405 
L 118.612665 66.976405 
L 107.41768 66.976405 
L 96.222696 66.976405 
L 85.027712 66.976405 
L 73.832727 66.976405 
z
" clip-path="url(#p7001821112)" style="fill: #1f77b4"/>
   </g>
   <g id="PolyCollection_12">
    <path d="M 73.832727 66.976405 
L 73.832727 66.976405 
L 85.027712 66.976405 
L 96.222696 66.976405 
L 107.41768 66.976405 
L 118.612665 66.976405 
L 129.807649 66.976405 
L 141.002633 66.976405 
L 152.197618 63.768304 
L 163.392602 63.768304 
L 174.587586 91.037165 
L 185.782571 160.011342 
L 196.977555 153.595139 
L 208.172539 156.803241 
L 219.367524 148.782987 
L 230.562508 166.427544 
L 241.757492 140.762734 
L 252.952476 172.843747 
L 264.147461 193.696405 
L 275.342445 196.904506 
L 286.537429 225.777418 
L 297.732414 212.945013 
L 308.927398 227.381468 
L 320.122382 214.549063 
L 331.317367 224.173367 
L 342.512351 225.777418 
L 353.707335 237.005772 
L 364.90232 230.58957 
L 376.097304 240.213873 
L 387.292288 240.213873 
L 398.487273 245.026025 
L 398.487273 235.401722 
L 398.487273 235.401722 
L 387.292288 232.19362 
L 376.097304 233.797671 
L 364.90232 219.361215 
L 353.707335 222.569316 
L 342.512351 217.757165 
L 331.317367 212.945013 
L 320.122382 203.320709 
L 308.927398 216.153114 
L 297.732414 201.716658 
L 286.537429 216.153114 
L 275.342445 187.280203 
L 264.147461 184.072101 
L 252.952476 160.011342 
L 241.757492 129.53438 
L 230.562508 147.178937 
L 219.367524 137.554633 
L 208.172539 132.742481 
L 196.977555 119.910076 
L 185.782571 107.077671 
L 174.587586 74.996658 
L 163.392602 63.768304 
L 152.197618 63.768304 
L 141.002633 66.976405 
L 129.807649 66.976405 
L 118.612665 66.976405 
L 107.41768 66.976405 
L 96.222696 66.976405 
L 85.027712 66.976405 
L 73.832727 66.976405 
z
" clip-path="url(#p7001821112)" style="fill: #ff7f0e"/>
   </g>
   <g id="PolyCollection_13">
    <path d="M 73.832727 66.976405 
L 73.832727 66.976405 
L 85.027712 66.976405 
L 96.222696 66.976405 
L 107.41768 66.976405 
L 118.612665 66.976405 
L 129.807649 66.976405 
L 141.002633 66.976405 
L 152.197618 63.768304 
L 163.392602 63.768304 
L 174.587586 74.996658 
L 185.782571 107.077671 
L 196.977555 119.910076 
L 208.172539 132.742481 
L 219.367524 137.554633 
L 230.562508 147.178937 
L 241.757492 129.53438 
L 252.952476 160.011342 
L 264.147461 184.072101 
L 275.342445 187.280203 
L 286.537429 216.153114 
L 297.732414 201.716658 
L 308.927398 216.153114 
L 320.122382 203.320709 
L 331.317367 212.945013 
L 342.512351 217.757165 
L 353.707335 222.569316 
L 364.90232 219.361215 
L 376.097304 233.797671 
L 387.292288 232.19362 
L 398.487273 235.401722 
L 398.487273 224.173367 
L 398.487273 224.173367 
L 387.292288 224.173367 
L 376.097304 225.777418 
L 364.90232 211.340962 
L 353.707335 214.549063 
L 342.512351 211.340962 
L 331.317367 204.924759 
L 320.122382 193.696405 
L 308.927398 204.924759 
L 297.732414 192.092354 
L 286.537429 203.320709 
L 275.342445 179.259949 
L 264.147461 168.031595 
L 252.952476 137.554633 
L 241.757492 116.701975 
L 230.562508 127.930329 
L 219.367524 126.326278 
L 208.172539 113.493873 
L 196.977555 87.829063 
L 185.782571 66.976405 
L 174.587586 65.372354 
L 163.392602 63.768304 
L 152.197618 63.768304 
L 141.002633 66.976405 
L 129.807649 66.976405 
L 118.612665 66.976405 
L 107.41768 66.976405 
L 96.222696 66.976405 
L 85.027712 66.976405 
L 73.832727 66.976405 
z
" clip-path="url(#p7001821112)" style="fill: #2ca02c"/>
   </g>
   <g id="PolyCollection_14">
    <path d="M 73.832727 66.976405 
L 73.832727 66.976405 
L 85.027712 66.976405 
L 96.222696 66.976405 
L 107.41768 66.976405 
L 118.612665 66.976405 
L 129.807649 66.976405 
L 141.002633 66.976405 
L 152.197618 63.768304 
L 163.392602 63.768304 
L 174.587586 65.372354 
L 185.782571 66.976405 
L 196.977555 87.829063 
L 208.172539 113.493873 
L 219.367524 126.326278 
L 230.562508 127.930329 
L 241.757492 116.701975 
L 252.952476 137.554633 
L 264.147461 168.031595 
L 275.342445 179.259949 
L 286.537429 203.320709 
L 297.732414 192.092354 
L 308.927398 204.924759 
L 320.122382 193.696405 
L 331.317367 204.924759 
L 342.512351 211.340962 
L 353.707335 214.549063 
L 364.90232 211.340962 
L 376.097304 225.777418 
L 387.292288 224.173367 
L 398.487273 224.173367 
L 398.487273 214.549063 
L 398.487273 214.549063 
L 387.292288 219.361215 
L 376.097304 217.757165 
L 364.90232 201.716658 
L 353.707335 201.716658 
L 342.512351 200.112608 
L 331.317367 195.300456 
L 320.122382 177.655899 
L 308.927398 193.696405 
L 297.732414 179.259949 
L 286.537429 195.300456 
L 275.342445 171.239696 
L 264.147461 160.011342 
L 252.952476 131.13843 
L 241.757492 107.077671 
L 230.562508 116.701975 
L 219.367524 113.493873 
L 208.172539 103.86957 
L 196.977555 68.580456 
L 185.782571 66.976405 
L 174.587586 65.372354 
L 163.392602 63.768304 
L 152.197618 63.768304 
L 141.002633 66.976405 
L 129.807649 66.976405 
L 118.612665 66.976405 
L 107.41768 66.976405 
L 96.222696 66.976405 
L 85.027712 66.976405 
L 73.832727 66.976405 
z
" clip-path="url(#p7001821112)" style="fill: #d62728"/>
   </g>
   <g id="PolyCollection_15">
    <path d="M 73.832727 66.976405 
L 73.832727 66.976405 
L 85.027712 66.976405 
L 96.222696 66.976405 
L 107.41768 66.976405 
L 118.612665 66.976405 
L 129.807649 66.976405 
L 141.002633 66.976405 
L 152.197618 63.768304 
L 163.392602 63.768304 
L 174.587586 65.372354 
L 185.782571 66.976405 
L 196.977555 68.580456 
L 208.172539 103.86957 
L 219.367524 113.493873 
L 230.562508 116.701975 
L 241.757492 107.077671 
L 252.952476 131.13843 
L 264.147461 160.011342 
L 275.342445 171.239696 
L 286.537429 195.300456 
L 297.732414 179.259949 
L 308.927398 193.696405 
L 320.122382 177.655899 
L 331.317367 195.300456 
L 342.512351 200.112608 
L 353.707335 201.716658 
L 364.90232 201.716658 
L 376.097304 217.757165 
L 387.292288 219.361215 
L 398.487273 214.549063 
L 398.487273 209.736911 
L 398.487273 209.736911 
L 387.292288 214.549063 
L 376.097304 212.945013 
L 364.90232 196.904506 
L 353.707335 196.904506 
L 342.512351 195.300456 
L 331.317367 190.488304 
L 320.122382 172.843747 
L 308.927398 188.884253 
L 297.732414 174.447797 
L 286.537429 190.488304 
L 275.342445 166.427544 
L 264.147461 155.19919 
L 252.952476 126.326278 
L 241.757492 102.265519 
L 230.562508 111.889823 
L 219.367524 108.681722 
L 208.172539 102.265519 
L 196.977555 63.768304 
L 185.782571 66.976405 
L 174.587586 65.372354 
L 163.392602 63.768304 
L 152.197618 63.768304 
L 141.002633 66.976405 
L 129.807649 66.976405 
L 118.612665 66.976405 
L 107.41768 66.976405 
L 96.222696 66.976405 
L 85.027712 66.976405 
L 73.832727 66.976405 
z
" clip-path="url(#p7001821112)" style="fill: #9467bd"/>
   </g>
   <g id="PolyCollection_16">
    <path d="M 73.832727 66.976405 
L 73.832727 66.976405 
L 85.027712 66.976405 
L 96.222696 66.976405 
L 107.41768 66.976405 
L 118.612665 66.976405 
L 129.807649 66.976405 
L 141.002633 66.976405 
L 152.197618 63.768304 
L 163.392602 63.768304 
L 174.587586 65.372354 
L 185.782571 66.976405 
L 196.977555 63.768304 
L 208.172539 102.265519 
L 219.367524 108.681722 
L 230.562508 111.889823 
L 241.757492 102.265519 
L 252.952476 126.326278 
L 264.147461 155.19919 
L 275.342445 166.427544 
L 286.537429 190.488304 
L 297.732414 174.447797 
L 308.927398 188.884253 
L 320.122382 172.843747 
L 331.317367 190.488304 
L 342.512351 195.300456 
L 353.707335 196.904506 
L 364.90232 196.904506 
L 376.097304 212.945013 
L 387.292288 214.549063 
L 398.487273 209.736911 
L 398.487273 203.320709 
L 398.487273 203.320709 
L 387.292288 204.924759 
L 376.097304 203.320709 
L 364.90232 187.280203 
L 353.707335 177.655899 
L 342.512351 190.488304 
L 331.317367 180.864 
L 320.122382 164.823494 
L 308.927398 176.051848 
L 297.732414 166.427544 
L 286.537429 179.259949 
L 275.342445 158.407291 
L 264.147461 147.178937 
L 252.952476 110.285772 
L 241.757492 92.641215 
L 230.562508 83.016911 
L 219.367524 81.412861 
L 208.172539 70.184506 
L 196.977555 63.768304 
L 185.782571 66.976405 
L 174.587586 65.372354 
L 163.392602 63.768304 
L 152.197618 63.768304 
L 141.002633 66.976405 
L 129.807649 66.976405 
L 118.612665 66.976405 
L 107.41768 66.976405 
L 96.222696 66.976405 
L 85.027712 66.976405 
L 73.832727 66.976405 
z
" clip-path="url(#p7001821112)" style="fill: #8c564b"/>
   </g>
   <g id="PolyCollection_17">
    <path d="M 73.832727 66.976405 
L 73.832727 66.976405 
L 85.027712 66.976405 
L 96.222696 66.976405 
L 107.41768 66.976405 
L 118.612665 66.976405 
L 129.807649 66.976405 
L 141.002633 66.976405 
L 152.197618 63.768304 
L 163.392602 63.768304 
L 174.587586 65.372354 
L 185.782571 66.976405 
L 196.977555 63.768304 
L 208.172539 70.184506 
L 219.367524 81.412861 
L 230.562508 83.016911 
L 241.757492 92.641215 
L 252.952476 110.285772 
L 264.147461 147.178937 
L 275.342445 158.407291 
L 286.537429 179.259949 
L 297.732414 166.427544 
L 308.927398 176.051848 
L 320.122382 164.823494 
L 331.317367 180.864 
L 342.512351 190.488304 
L 353.707335 177.655899 
L 364.90232 187.280203 
L 376.097304 203.320709 
L 387.292288 204.924759 
L 398.487273 203.320709 
L 398.487273 198.508557 
L 398.487273 198.508557 
L 387.292288 200.112608 
L 376.097304 198.508557 
L 364.90232 180.864 
L 353.707335 172.843747 
L 342.512351 185.676152 
L 331.317367 176.051848 
L 320.122382 160.011342 
L 308.927398 171.239696 
L 297.732414 161.615392 
L 286.537429 174.447797 
L 275.342445 153.595139 
L 264.147461 142.366785 
L 252.952476 105.47362 
L 241.757492 87.829063 
L 230.562508 79.80881 
L 219.367524 74.996658 
L 208.172539 62.164253 
L 196.977555 63.768304 
L 185.782571 66.976405 
L 174.587586 65.372354 
L 163.392602 63.768304 
L 152.197618 63.768304 
L 141.002633 66.976405 
L 129.807649 66.976405 
L 118.612665 66.976405 
L 107.41768 66.976405 
L 96.222696 66.976405 
L 85.027712 66.976405 
L 73.832727 66.976405 
z
" clip-path="url(#p7001821112)" style="fill: #e377c2"/>
   </g>
   <g id="PolyCollection_18">
    <path d="M 73.832727 66.976405 
L 73.832727 66.976405 
L 85.027712 66.976405 
L 96.222696 66.976405 
L 107.41768 66.976405 
L 118.612665 66.976405 
L 129.807649 66.976405 
L 141.002633 66.976405 
L 152.197618 63.768304 
L 163.392602 63.768304 
L 174.587586 65.372354 
L 185.782571 66.976405 
L 196.977555 63.768304 
L 208.172539 62.164253 
L 219.367524 74.996658 
L 230.562508 79.80881 
L 241.757492 87.829063 
L 252.952476 105.47362 
L 264.147461 142.366785 
L 275.342445 153.595139 
L 286.537429 174.447797 
L 297.732414 161.615392 
L 308.927398 171.239696 
L 320.122382 160.011342 
L 331.317367 176.051848 
L 342.512351 185.676152 
L 353.707335 172.843747 
L 364.90232 180.864 
L 376.097304 198.508557 
L 387.292288 200.112608 
L 398.487273 198.508557 
L 398.487273 193.696405 
L 398.487273 193.696405 
L 387.292288 193.696405 
L 376.097304 192.092354 
L 364.90232 172.843747 
L 353.707335 166.427544 
L 342.512351 177.655899 
L 331.317367 169.635646 
L 320.122382 153.595139 
L 308.927398 163.219443 
L 297.732414 155.19919 
L 286.537429 168.031595 
L 275.342445 145.574886 
L 264.147461 135.950582 
L 252.952476 95.849316 
L 241.757492 76.600709 
L 230.562508 66.976405 
L 219.367524 66.976405 
L 208.172539 62.164253 
L 196.977555 63.768304 
L 185.782571 66.976405 
L 174.587586 65.372354 
L 163.392602 63.768304 
L 152.197618 63.768304 
L 141.002633 66.976405 
L 129.807649 66.976405 
L 118.612665 66.976405 
L 107.41768 66.976405 
L 96.222696 66.976405 
L 85.027712 66.976405 
L 73.832727 66.976405 
z
" clip-path="url(#p7001821112)" style="fill: #7f7f7f"/>
   </g>
   <g id="PolyCollection_19">
    <path d="M 73.832727 66.976405 
L 73.832727 66.976405 
L 85.027712 66.976405 
L 96.222696 66.976405 
L 107.41768 66.976405 
L 118.612665 66.976405 
L 129.807649 66.976405 
L 141.002633 66.976405 
L 152.197618 63.768304 
L 163.392602 63.768304 
L 174.587586 65.372354 
L 185.782571 66.976405 
L 196.977555 63.768304 
L 208.172539 62.164253 
L 219.367524 66.976405 
L 230.562508 66.976405 
L 241.757492 76.600709 
L 252.952476 95.849316 
L 264.147461 135.950582 
L 275.342445 145.574886 
L 286.537429 168.031595 
L 297.732414 155.19919 
L 308.927398 163.219443 
L 320.122382 153.595139 
L 331.317367 169.635646 
L 342.512351 177.655899 
L 353.707335 166.427544 
L 364.90232 172.843747 
L 376.097304 192.092354 
L 387.292288 193.696405 
L 398.487273 193.696405 
L 398.487273 184.072101 
L 398.487273 184.072101 
L 387.292288 180.864 
L 376.097304 182.468051 
L 364.90232 166.427544 
L 353.707335 158.407291 
L 342.512351 164.823494 
L 331.317367 160.011342 
L 320.122382 143.970835 
L 308.927398 147.178937 
L 297.732414 129.53438 
L 286.537429 129.53438 
L 275.342445 126.326278 
L 264.147461 124.722228 
L 252.952476 87.829063 
L 241.757492 65.372354 
L 230.562508 65.372354 
L 219.367524 66.976405 
L 208.172539 62.164253 
L 196.977555 63.768304 
L 185.782571 66.976405 
L 174.587586 65.372354 
L 163.392602 63.768304 
L 152.197618 63.768304 
L 141.002633 66.976405 
L 129.807649 66.976405 
L 118.612665 66.976405 
L 107.41768 66.976405 
L 96.222696 66.976405 
L 85.027712 66.976405 
L 73.832727 66.976405 
z
" clip-path="url(#p7001821112)" style="fill: #bcbd22"/>
   </g>
   <g id="PolyCollection_20">
    <path d="M 73.832727 66.976405 
L 73.832727 66.976405 
L 85.027712 66.976405 
L 96.222696 66.976405 
L 107.41768 66.976405 
L 118.612665 66.976405 
L 129.807649 66.976405 
L 141.002633 66.976405 
L 152.197618 63.768304 
L 163.392602 63.768304 
L 174.587586 65.372354 
L 185.782571 66.976405 
L 196.977555 63.768304 
L 208.172539 62.164253 
L 219.367524 66.976405 
L 230.562508 65.372354 
L 241.757492 65.372354 
L 252.952476 87.829063 
L 264.147461 124.722228 
L 275.342445 126.326278 
L 286.537429 129.53438 
L 297.732414 129.53438 
L 308.927398 147.178937 
L 320.122382 143.970835 
L 331.317367 160.011342 
L 342.512351 164.823494 
L 353.707335 158.407291 
L 364.90232 166.427544 
L 376.097304 182.468051 
L 387.292288 180.864 
L 398.487273 184.072101 
L 398.487273 179.259949 
L 398.487273 179.259949 
L 387.292288 176.051848 
L 376.097304 177.655899 
L 364.90232 161.615392 
L 353.707335 153.595139 
L 342.512351 160.011342 
L 331.317367 155.19919 
L 320.122382 139.158684 
L 308.927398 142.366785 
L 297.732414 124.722228 
L 286.537429 127.930329 
L 275.342445 121.514127 
L 264.147461 119.910076 
L 252.952476 81.412861 
L 241.757492 63.768304 
L 230.562508 65.372354 
L 219.367524 66.976405 
L 208.172539 62.164253 
L 196.977555 63.768304 
L 185.782571 66.976405 
L 174.587586 65.372354 
L 163.392602 63.768304 
L 152.197618 63.768304 
L 141.002633 66.976405 
L 129.807649 66.976405 
L 118.612665 66.976405 
L 107.41768 66.976405 
L 96.222696 66.976405 
L 85.027712 66.976405 
L 73.832727 66.976405 
z
" clip-path="url(#p7001821112)" style="fill: #17becf"/>
   </g>
   <g id="PolyCollection_21">
    <path d="M 73.832727 66.976405 
L 73.832727 66.976405 
L 85.027712 66.976405 
L 96.222696 66.976405 
L 107.41768 66.976405 
L 118.612665 66.976405 
L 129.807649 66.976405 
L 141.002633 66.976405 
L 152.197618 63.768304 
L 163.392602 63.768304 
L 174.587586 65.372354 
L 185.782571 66.976405 
L 196.977555 63.768304 
L 208.172539 62.164253 
L 219.367524 66.976405 
L 230.562508 65.372354 
L 241.757492 63.768304 
L 252.952476 81.412861 
L 264.147461 119.910076 
L 275.342445 121.514127 
L 286.537429 127.930329 
L 297.732414 124.722228 
L 308.927398 142.366785 
L 320.122382 139.158684 
L 331.317367 155.19919 
L 342.512351 160.011342 
L 353.707335 153.595139 
L 364.90232 161.615392 
L 376.097304 177.655899 
L 387.292288 176.051848 
L 398.487273 179.259949 
L 398.487273 174.447797 
L 398.487273 174.447797 
L 387.292288 171.239696 
L 376.097304 172.843747 
L 364.90232 156.803241 
L 353.707335 148.782987 
L 342.512351 155.19919 
L 331.317367 150.387038 
L 320.122382 134.346532 
L 308.927398 137.554633 
L 297.732414 119.910076 
L 286.537429 123.118177 
L 275.342445 116.701975 
L 264.147461 115.097924 
L 252.952476 76.600709 
L 241.757492 62.164253 
L 230.562508 65.372354 
L 219.367524 66.976405 
L 208.172539 62.164253 
L 196.977555 63.768304 
L 185.782571 66.976405 
L 174.587586 65.372354 
L 163.392602 63.768304 
L 152.197618 63.768304 
L 141.002633 66.976405 
L 129.807649 66.976405 
L 118.612665 66.976405 
L 107.41768 66.976405 
L 96.222696 66.976405 
L 85.027712 66.976405 
L 73.832727 66.976405 
z
" clip-path="url(#p7001821112)" style="fill: #1f77b4"/>
   </g>
   <g id="PolyCollection_22">
    <path d="M 73.832727 66.976405 
L 73.832727 66.976405 
L 85.027712 66.976405 
L 96.222696 66.976405 
L 107.41768 66.976405 
L 118.612665 66.976405 
L 129.807649 66.976405 
L 141.002633 66.976405 
L 152.197618 63.768304 
L 163.392602 63.768304 
L 174.587586 65.372354 
L 185.782571 66.976405 
L 196.977555 63.768304 
L 208.172539 62.164253 
L 219.367524 66.976405 
L 230.562508 65.372354 
L 241.757492 62.164253 
L 252.952476 76.600709 
L 264.147461 115.097924 
L 275.342445 116.701975 
L 286.537429 123.118177 
L 297.732414 119.910076 
L 308.927398 137.554633 
L 320.122382 134.346532 
L 331.317367 150.387038 
L 342.512351 155.19919 
L 353.707335 148.782987 
L 364.90232 156.803241 
L 376.097304 172.843747 
L 387.292288 171.239696 
L 398.487273 174.447797 
L 398.487273 171.239696 
L 398.487273 171.239696 
L 387.292288 164.823494 
L 376.097304 163.219443 
L 364.90232 142.366785 
L 353.707335 145.574886 
L 342.512351 139.158684 
L 331.317367 137.554633 
L 320.122382 126.326278 
L 308.927398 127.930329 
L 297.732414 113.493873 
L 286.537429 118.306025 
L 275.342445 111.889823 
L 264.147461 107.077671 
L 252.952476 73.392608 
L 241.757492 62.164253 
L 230.562508 65.372354 
L 219.367524 66.976405 
L 208.172539 62.164253 
L 196.977555 63.768304 
L 185.782571 66.976405 
L 174.587586 65.372354 
L 163.392602 63.768304 
L 152.197618 63.768304 
L 141.002633 66.976405 
L 129.807649 66.976405 
L 118.612665 66.976405 
L 107.41768 66.976405 
L 96.222696 66.976405 
L 85.027712 66.976405 
L 73.832727 66.976405 
z
" clip-path="url(#p7001821112)" style="fill: #ff7f0e"/>
   </g>
   <g id="PolyCollection_23">
    <path d="M 73.832727 66.976405 
L 73.832727 66.976405 
L 85.027712 66.976405 
L 96.222696 66.976405 
L 107.41768 66.976405 
L 118.612665 66.976405 
L 129.807649 66.976405 
L 141.002633 66.976405 
L 152.197618 63.768304 
L 163.392602 63.768304 
L 174.587586 65.372354 
L 185.782571 66.976405 
L 196.977555 63.768304 
L 208.172539 62.164253 
L 219.367524 66.976405 
L 230.562508 65.372354 
L 241.757492 62.164253 
L 252.952476 73.392608 
L 264.147461 107.077671 
L 275.342445 111.889823 
L 286.537429 118.306025 
L 297.732414 113.493873 
L 308.927398 127.930329 
L 320.122382 126.326278 
L 331.317367 137.554633 
L 342.512351 139.158684 
L 353.707335 145.574886 
L 364.90232 142.366785 
L 376.097304 163.219443 
L 387.292288 164.823494 
L 398.487273 171.239696 
L 398.487273 164.823494 
L 398.487273 164.823494 
L 387.292288 156.803241 
L 376.097304 155.19919 
L 364.90232 135.950582 
L 353.707335 132.742481 
L 342.512351 129.53438 
L 331.317367 121.514127 
L 320.122382 116.701975 
L 308.927398 108.681722 
L 297.732414 89.433114 
L 286.537429 102.265519 
L 275.342445 97.453367 
L 264.147461 94.245266 
L 252.952476 68.580456 
L 241.757492 62.164253 
L 230.562508 65.372354 
L 219.367524 66.976405 
L 208.172539 62.164253 
L 196.977555 63.768304 
L 185.782571 66.976405 
L 174.587586 65.372354 
L 163.392602 63.768304 
L 152.197618 63.768304 
L 141.002633 66.976405 
L 129.807649 66.976405 
L 118.612665 66.976405 
L 107.41768 66.976405 
L 96.222696 66.976405 
L 85.027712 66.976405 
L 73.832727 66.976405 
z
" clip-path="url(#p7001821112)" style="fill: #2ca02c"/>
   </g>
   <g id="PolyCollection_24">
    <path d="M 73.832727 66.976405 
L 73.832727 66.976405 
L 85.027712 66.976405 
L 96.222696 66.976405 
L 107.41768 66.976405 
L 118.612665 66.976405 
L 129.807649 66.976405 
L 141.002633 66.976405 
L 152.197618 63.768304 
L 163.392602 63.768304 
L 174.587586 65.372354 
L 185.782571 66.976405 
L 196.977555 63.768304 
L 208.172539 62.164253 
L 219.367524 66.976405 
L 230.562508 65.372354 
L 241.757492 62.164253 
L 252.952476 68.580456 
L 264.147461 94.245266 
L 275.342445 97.453367 
L 286.537429 102.265519 
L 297.732414 89.433114 
L 308.927398 108.681722 
L 320.122382 116.701975 
L 331.317367 121.514127 
L 342.512351 129.53438 
L 353.707335 132.742481 
L 364.90232 135.950582 
L 376.097304 155.19919 
L 387.292288 156.803241 
L 398.487273 164.823494 
L 398.487273 155.19919 
L 398.487273 155.19919 
L 387.292288 147.178937 
L 376.097304 147.178937 
L 364.90232 127.930329 
L 353.707335 123.118177 
L 342.512351 121.514127 
L 331.317367 111.889823 
L 320.122382 107.077671 
L 308.927398 97.453367 
L 297.732414 79.80881 
L 286.537429 87.829063 
L 275.342445 84.620962 
L 264.147461 76.600709 
L 252.952476 65.372354 
L 241.757492 62.164253 
L 230.562508 65.372354 
L 219.367524 66.976405 
L 208.172539 62.164253 
L 196.977555 63.768304 
L 185.782571 66.976405 
L 174.587586 65.372354 
L 163.392602 63.768304 
L 152.197618 63.768304 
L 141.002633 66.976405 
L 129.807649 66.976405 
L 118.612665 66.976405 
L 107.41768 66.976405 
L 96.222696 66.976405 
L 85.027712 66.976405 
L 73.832727 66.976405 
z
" clip-path="url(#p7001821112)" style="fill: #d62728"/>
   </g>
   <g id="PolyCollection_25">
    <path d="M 73.832727 66.976405 
L 73.832727 66.976405 
L 85.027712 66.976405 
L 96.222696 66.976405 
L 107.41768 66.976405 
L 118.612665 66.976405 
L 129.807649 66.976405 
L 141.002633 66.976405 
L 152.197618 63.768304 
L 163.392602 63.768304 
L 174.587586 65.372354 
L 185.782571 66.976405 
L 196.977555 63.768304 
L 208.172539 62.164253 
L 219.367524 66.976405 
L 230.562508 65.372354 
L 241.757492 62.164253 
L 252.952476 65.372354 
L 264.147461 76.600709 
L 275.342445 84.620962 
L 286.537429 87.829063 
L 297.732414 79.80881 
L 308.927398 97.453367 
L 320.122382 107.077671 
L 331.317367 111.889823 
L 342.512351 121.514127 
L 353.707335 123.118177 
L 364.90232 127.930329 
L 376.097304 147.178937 
L 387.292288 147.178937 
L 398.487273 155.19919 
L 398.487273 150.387038 
L 398.487273 150.387038 
L 387.292288 142.366785 
L 376.097304 142.366785 
L 364.90232 123.118177 
L 353.707335 119.910076 
L 342.512351 115.097924 
L 331.317367 107.077671 
L 320.122382 102.265519 
L 308.927398 92.641215 
L 297.732414 76.600709 
L 286.537429 83.016911 
L 275.342445 79.80881 
L 264.147461 71.788557 
L 252.952476 63.768304 
L 241.757492 62.164253 
L 230.562508 65.372354 
L 219.367524 66.976405 
L 208.172539 62.164253 
L 196.977555 63.768304 
L 185.782571 66.976405 
L 174.587586 65.372354 
L 163.392602 63.768304 
L 152.197618 63.768304 
L 141.002633 66.976405 
L 129.807649 66.976405 
L 118.612665 66.976405 
L 107.41768 66.976405 
L 96.222696 66.976405 
L 85.027712 66.976405 
L 73.832727 66.976405 
z
" clip-path="url(#p7001821112)" style="fill: #9467bd"/>
   </g>
   <g id="PolyCollection_26">
    <path d="M 73.832727 66.976405 
L 73.832727 66.976405 
L 85.027712 66.976405 
L 96.222696 66.976405 
L 107.41768 66.976405 
L 118.612665 66.976405 
L 129.807649 66.976405 
L 141.002633 66.976405 
L 152.197618 63.768304 
L 163.392602 63.768304 
L 174.587586 65.372354 
L 185.782571 66.976405 
L 196.977555 63.768304 
L 208.172539 62.164253 
L 219.367524 66.976405 
L 230.562508 65.372354 
L 241.757492 62.164253 
L 252.952476 63.768304 
L 264.147461 71.788557 
L 275.342445 79.80881 
L 286.537429 83.016911 
L 297.732414 76.600709 
L 308.927398 92.641215 
L 320.122382 102.265519 
L 331.317367 107.077671 
L 342.512351 115.097924 
L 353.707335 119.910076 
L 364.90232 123.118177 
L 376.097304 142.366785 
L 387.292288 142.366785 
L 398.487273 150.387038 
L 398.487273 143.970835 
L 398.487273 143.970835 
L 387.292288 134.346532 
L 376.097304 135.950582 
L 364.90232 116.701975 
L 353.707335 105.47362 
L 342.512351 107.077671 
L 331.317367 99.057418 
L 320.122382 95.849316 
L 308.927398 86.225013 
L 297.732414 70.184506 
L 286.537429 74.996658 
L 275.342445 73.392608 
L 264.147461 66.976405 
L 252.952476 60.560203 
L 241.757492 62.164253 
L 230.562508 65.372354 
L 219.367524 66.976405 
L 208.172539 62.164253 
L 196.977555 63.768304 
L 185.782571 66.976405 
L 174.587586 65.372354 
L 163.392602 63.768304 
L 152.197618 63.768304 
L 141.002633 66.976405 
L 129.807649 66.976405 
L 118.612665 66.976405 
L 107.41768 66.976405 
L 96.222696 66.976405 
L 85.027712 66.976405 
L 73.832727 66.976405 
z
" clip-path="url(#p7001821112)" style="fill: #8c564b"/>
   </g>
   <g id="PolyCollection_27">
    <path d="M 73.832727 66.976405 
L 73.832727 66.976405 
L 85.027712 66.976405 
L 96.222696 66.976405 
L 107.41768 66.976405 
L 118.612665 66.976405 
L 129.807649 66.976405 
L 141.002633 66.976405 
L 152.197618 63.768304 
L 163.392602 63.768304 
L 174.587586 65.372354 
L 185.782571 66.976405 
L 196.977555 63.768304 
L 208.172539 62.164253 
L 219.367524 66.976405 
L 230.562508 65.372354 
L 241.757492 62.164253 
L 252.952476 60.560203 
L 264.147461 66.976405 
L 275.342445 73.392608 
L 286.537429 74.996658 
L 297.732414 70.184506 
L 308.927398 86.225013 
L 320.122382 95.849316 
L 331.317367 99.057418 
L 342.512351 107.077671 
L 353.707335 105.47362 
L 364.90232 116.701975 
L 376.097304 135.950582 
L 387.292288 134.346532 
L 398.487273 143.970835 
L 398.487273 139.158684 
L 398.487273 139.158684 
L 387.292288 127.930329 
L 376.097304 131.13843 
L 364.90232 110.285772 
L 353.707335 100.661468 
L 342.512351 99.057418 
L 331.317367 94.245266 
L 320.122382 89.433114 
L 308.927398 78.204759 
L 297.732414 65.372354 
L 286.537429 70.184506 
L 275.342445 68.580456 
L 264.147461 63.768304 
L 252.952476 60.560203 
L 241.757492 62.164253 
L 230.562508 65.372354 
L 219.367524 66.976405 
L 208.172539 62.164253 
L 196.977555 63.768304 
L 185.782571 66.976405 
L 174.587586 65.372354 
L 163.392602 63.768304 
L 152.197618 63.768304 
L 141.002633 66.976405 
L 129.807649 66.976405 
L 118.612665 66.976405 
L 107.41768 66.976405 
L 96.222696 66.976405 
L 85.027712 66.976405 
L 73.832727 66.976405 
z
" clip-path="url(#p7001821112)" style="fill: #e377c2"/>
   </g>
   <g id="PolyCollection_28">
    <path d="M 73.832727 66.976405 
L 73.832727 66.976405 
L 85.027712 66.976405 
L 96.222696 66.976405 
L 107.41768 66.976405 
L 118.612665 66.976405 
L 129.807649 66.976405 
L 141.002633 66.976405 
L 152.197618 63.768304 
L 163.392602 63.768304 
L 174.587586 65.372354 
L 185.782571 66.976405 
L 196.977555 63.768304 
L 208.172539 62.164253 
L 219.367524 66.976405 
L 230.562508 65.372354 
L 241.757492 62.164253 
L 252.952476 60.560203 
L 264.147461 63.768304 
L 275.342445 68.580456 
L 286.537429 70.184506 
L 297.732414 65.372354 
L 308.927398 78.204759 
L 320.122382 89.433114 
L 331.317367 94.245266 
L 342.512351 99.057418 
L 353.707335 100.661468 
L 364.90232 110.285772 
L 376.097304 131.13843 
L 387.292288 127.930329 
L 398.487273 139.158684 
L 398.487273 134.346532 
L 398.487273 134.346532 
L 387.292288 123.118177 
L 376.097304 126.326278 
L 364.90232 105.47362 
L 353.707335 95.849316 
L 342.512351 94.245266 
L 331.317367 89.433114 
L 320.122382 84.620962 
L 308.927398 73.392608 
L 297.732414 63.768304 
L 286.537429 63.768304 
L 275.342445 62.164253 
L 264.147461 60.560203 
L 252.952476 60.560203 
L 241.757492 62.164253 
L 230.562508 65.372354 
L 219.367524 66.976405 
L 208.172539 62.164253 
L 196.977555 63.768304 
L 185.782571 66.976405 
L 174.587586 65.372354 
L 163.392602 63.768304 
L 152.197618 63.768304 
L 141.002633 66.976405 
L 129.807649 66.976405 
L 118.612665 66.976405 
L 107.41768 66.976405 
L 96.222696 66.976405 
L 85.027712 66.976405 
L 73.832727 66.976405 
z
" clip-path="url(#p7001821112)" style="fill: #7f7f7f"/>
   </g>
   <g id="PolyCollection_29">
    <path d="M 73.832727 66.976405 
L 73.832727 66.976405 
L 85.027712 66.976405 
L 96.222696 66.976405 
L 107.41768 66.976405 
L 118.612665 66.976405 
L 129.807649 66.976405 
L 141.002633 66.976405 
L 152.197618 63.768304 
L 163.392602 63.768304 
L 174.587586 65.372354 
L 185.782571 66.976405 
L 196.977555 63.768304 
L 208.172539 62.164253 
L 219.367524 66.976405 
L 230.562508 65.372354 
L 241.757492 62.164253 
L 252.952476 60.560203 
L 264.147461 60.560203 
L 275.342445 62.164253 
L 286.537429 63.768304 
L 297.732414 63.768304 
L 308.927398 73.392608 
L 320.122382 84.620962 
L 331.317367 89.433114 
L 342.512351 94.245266 
L 353.707335 95.849316 
L 364.90232 105.47362 
L 376.097304 126.326278 
L 387.292288 123.118177 
L 398.487273 134.346532 
L 398.487273 129.53438 
L 398.487273 129.53438 
L 387.292288 119.910076 
L 376.097304 118.306025 
L 364.90232 100.661468 
L 353.707335 83.016911 
L 342.512351 84.620962 
L 331.317367 83.016911 
L 320.122382 74.996658 
L 308.927398 65.372354 
L 297.732414 63.768304 
L 286.537429 63.768304 
L 275.342445 62.164253 
L 264.147461 60.560203 
L 252.952476 60.560203 
L 241.757492 62.164253 
L 230.562508 65.372354 
L 219.367524 66.976405 
L 208.172539 62.164253 
L 196.977555 63.768304 
L 185.782571 66.976405 
L 174.587586 65.372354 
L 163.392602 63.768304 
L 152.197618 63.768304 
L 141.002633 66.976405 
L 129.807649 66.976405 
L 118.612665 66.976405 
L 107.41768 66.976405 
L 96.222696 66.976405 
L 85.027712 66.976405 
L 73.832727 66.976405 
z
" clip-path="url(#p7001821112)" style="fill: #bcbd22"/>
   </g>
   <g id="PolyCollection_30">
    <path d="M 73.832727 66.976405 
L 73.832727 66.976405 
L 85.027712 66.976405 
L 96.222696 66.976405 
L 107.41768 66.976405 
L 118.612665 66.976405 
L 129.807649 66.976405 
L 141.002633 66.976405 
L 152.197618 63.768304 
L 163.392602 63.768304 
L 174.587586 65.372354 
L 185.782571 66.976405 
L 196.977555 63.768304 
L 208.172539 62.164253 
L 219.367524 66.976405 
L 230.562508 65.372354 
L 241.757492 62.164253 
L 252.952476 60.560203 
L 264.147461 60.560203 
L 275.342445 62.164253 
L 286.537429 63.768304 
L 297.732414 63.768304 
L 308.927398 65.372354 
L 320.122382 74.996658 
L 331.317367 83.016911 
L 342.512351 84.620962 
L 353.707335 83.016911 
L 364.90232 100.661468 
L 376.097304 118.306025 
L 387.292288 119.910076 
L 398.487273 129.53438 
L 398.487273 119.910076 
L 398.487273 119.910076 
L 387.292288 110.285772 
L 376.097304 107.077671 
L 364.90232 91.037165 
L 353.707335 73.392608 
L 342.512351 71.788557 
L 331.317367 70.184506 
L 320.122382 65.372354 
L 308.927398 63.768304 
L 297.732414 63.768304 
L 286.537429 63.768304 
L 275.342445 62.164253 
L 264.147461 60.560203 
L 252.952476 60.560203 
L 241.757492 62.164253 
L 230.562508 65.372354 
L 219.367524 66.976405 
L 208.172539 62.164253 
L 196.977555 63.768304 
L 185.782571 66.976405 
L 174.587586 65.372354 
L 163.392602 63.768304 
L 152.197618 63.768304 
L 141.002633 66.976405 
L 129.807649 66.976405 
L 118.612665 66.976405 
L 107.41768 66.976405 
L 96.222696 66.976405 
L 85.027712 66.976405 
L 73.832727 66.976405 
z
" clip-path="url(#p7001821112)" style="fill: #17becf"/>
   </g>
   <g id="PolyCollection_31">
    <path d="M 73.832727 66.976405 
L 73.832727 66.976405 
L 85.027712 66.976405 
L 96.222696 66.976405 
L 107.41768 66.976405 
L 118.612665 66.976405 
L 129.807649 66.976405 
L 141.002633 66.976405 
L 152.197618 63.768304 
L 163.392602 63.768304 
L 174.587586 65.372354 
L 185.782571 66.976405 
L 196.977555 63.768304 
L 208.172539 62.164253 
L 219.367524 66.976405 
L 230.562508 65.372354 
L 241.757492 62.164253 
L 252.952476 60.560203 
L 264.147461 60.560203 
L 275.342445 62.164253 
L 286.537429 63.768304 
L 297.732414 63.768304 
L 308.927398 63.768304 
L 320.122382 65.372354 
L 331.317367 70.184506 
L 342.512351 71.788557 
L 353.707335 73.392608 
L 364.90232 91.037165 
L 376.097304 107.077671 
L 387.292288 110.285772 
L 398.487273 119.910076 
L 398.487273 115.097924 
L 398.487273 115.097924 
L 387.292288 105.47362 
L 376.097304 102.265519 
L 364.90232 86.225013 
L 353.707335 68.580456 
L 342.512351 66.976405 
L 331.317367 63.768304 
L 320.122382 63.768304 
L 308.927398 63.768304 
L 297.732414 63.768304 
L 286.537429 63.768304 
L 275.342445 62.164253 
L 264.147461 60.560203 
L 252.952476 60.560203 
L 241.757492 62.164253 
L 230.562508 65.372354 
L 219.367524 66.976405 
L 208.172539 62.164253 
L 196.977555 63.768304 
L 185.782571 66.976405 
L 174.587586 65.372354 
L 163.392602 63.768304 
L 152.197618 63.768304 
L 141.002633 66.976405 
L 129.807649 66.976405 
L 118.612665 66.976405 
L 107.41768 66.976405 
L 96.222696 66.976405 
L 85.027712 66.976405 
L 73.832727 66.976405 
z
" clip-path="url(#p7001821112)" style="fill: #1f77b4"/>
   </g>
   <g id="PolyCollection_32">
    <path d="M 73.832727 66.976405 
L 73.832727 66.976405 
L 85.027712 66.976405 
L 96.222696 66.976405 
L 107.41768 66.976405 
L 118.612665 66.976405 
L 129.807649 66.976405 
L 141.002633 66.976405 
L 152.197618 63.768304 
L 163.392602 63.768304 
L 174.587586 65.372354 
L 185.782571 66.976405 
L 196.977555 63.768304 
L 208.172539 62.164253 
L 219.367524 66.976405 
L 230.562508 65.372354 
L 241.757492 62.164253 
L 252.952476 60.560203 
L 264.147461 60.560203 
L 275.342445 62.164253 
L 286.537429 63.768304 
L 297.732414 63.768304 
L 308.927398 63.768304 
L 320.122382 63.768304 
L 331.317367 63.768304 
L 342.512351 66.976405 
L 353.707335 68.580456 
L 364.90232 86.225013 
L 376.097304 102.265519 
L 387.292288 105.47362 
L 398.487273 115.097924 
L 398.487273 110.285772 
L 398.487273 110.285772 
L 387.292288 100.661468 
L 376.097304 97.453367 
L 364.90232 81.412861 
L 353.707335 66.976405 
L 342.512351 66.976405 
L 331.317367 63.768304 
L 320.122382 63.768304 
L 308.927398 63.768304 
L 297.732414 63.768304 
L 286.537429 63.768304 
L 275.342445 62.164253 
L 264.147461 60.560203 
L 252.952476 60.560203 
L 241.757492 62.164253 
L 230.562508 65.372354 
L 219.367524 66.976405 
L 208.172539 62.164253 
L 196.977555 63.768304 
L 185.782571 66.976405 
L 174.587586 65.372354 
L 163.392602 63.768304 
L 152.197618 63.768304 
L 141.002633 66.976405 
L 129.807649 66.976405 
L 118.612665 66.976405 
L 107.41768 66.976405 
L 96.222696 66.976405 
L 85.027712 66.976405 
L 73.832727 66.976405 
z
" clip-path="url(#p7001821112)" style="fill: #ff7f0e"/>
   </g>
   <g id="PolyCollection_33">
    <path d="M 73.832727 66.976405 
L 73.832727 66.976405 
L 85.027712 66.976405 
L 96.222696 66.976405 
L 107.41768 66.976405 
L 118.612665 66.976405 
L 129.807649 66.976405 
L 141.002633 66.976405 
L 152.197618 63.768304 
L 163.392602 63.768304 
L 174.587586 65.372354 
L 185.782571 66.976405 
L 196.977555 63.768304 
L 208.172539 62.164253 
L 219.367524 66.976405 
L 230.562508 65.372354 
L 241.757492 62.164253 
L 252.952476 60.560203 
L 264.147461 60.560203 
L 275.342445 62.164253 
L 286.537429 63.768304 
L 297.732414 63.768304 
L 308.927398 63.768304 
L 320.122382 63.768304 
L 331.317367 63.768304 
L 342.512351 66.976405 
L 353.707335 66.976405 
L 364.90232 81.412861 
L 376.097304 97.453367 
L 387.292288 100.661468 
L 398.487273 110.285772 
L 398.487273 103.86957 
L 398.487273 103.86957 
L 387.292288 94.245266 
L 376.097304 89.433114 
L 364.90232 76.600709 
L 353.707335 66.976405 
L 342.512351 66.976405 
L 331.317367 63.768304 
L 320.122382 63.768304 
L 308.927398 63.768304 
L 297.732414 63.768304 
L 286.537429 63.768304 
L 275.342445 62.164253 
L 264.147461 60.560203 
L 252.952476 60.560203 
L 241.757492 62.164253 
L 230.562508 65.372354 
L 219.367524 66.976405 
L 208.172539 62.164253 
L 196.977555 63.768304 
L 185.782571 66.976405 
L 174.587586 65.372354 
L 163.392602 63.768304 
L 152.197618 63.768304 
L 141.002633 66.976405 
L 129.807649 66.976405 
L 118.612665 66.976405 
L 107.41768 66.976405 
L 96.222696 66.976405 
L 85.027712 66.976405 
L 73.832727 66.976405 
z
" clip-path="url(#p7001821112)" style="fill: #2ca02c"/>
   </g>
   <g id="PolyCollection_34">
    <path d="M 73.832727 66.976405 
L 73.832727 66.976405 
L 85.027712 66.976405 
L 96.222696 66.976405 
L 107.41768 66.976405 
L 118.612665 66.976405 
L 129.807649 66.976405 
L 141.002633 66.976405 
L 152.197618 63.768304 
L 163.392602 63.768304 
L 174.587586 65.372354 
L 185.782571 66.976405 
L 196.977555 63.768304 
L 208.172539 62.164253 
L 219.367524 66.976405 
L 230.562508 65.372354 
L 241.757492 62.164253 
L 252.952476 60.560203 
L 264.147461 60.560203 
L 275.342445 62.164253 
L 286.537429 63.768304 
L 297.732414 63.768304 
L 308.927398 63.768304 
L 320.122382 63.768304 
L 331.317367 63.768304 
L 342.512351 66.976405 
L 353.707335 66.976405 
L 364.90232 76.600709 
L 376.097304 89.433114 
L 387.292288 94.245266 
L 398.487273 103.86957 
L 398.487273 92.641215 
L 398.487273 92.641215 
L 387.292288 84.620962 
L 376.097304 78.204759 
L 364.90232 70.184506 
L 353.707335 66.976405 
L 342.512351 66.976405 
L 331.317367 63.768304 
L 320.122382 63.768304 
L 308.927398 63.768304 
L 297.732414 63.768304 
L 286.537429 63.768304 
L 275.342445 62.164253 
L 264.147461 60.560203 
L 252.952476 60.560203 
L 241.757492 62.164253 
L 230.562508 65.372354 
L 219.367524 66.976405 
L 208.172539 62.164253 
L 196.977555 63.768304 
L 185.782571 66.976405 
L 174.587586 65.372354 
L 163.392602 63.768304 
L 152.197618 63.768304 
L 141.002633 66.976405 
L 129.807649 66.976405 
L 118.612665 66.976405 
L 107.41768 66.976405 
L 96.222696 66.976405 
L 85.027712 66.976405 
L 73.832727 66.976405 
z
" clip-path="url(#p7001821112)" style="fill: #d62728"/>
   </g>
   <g id="PolyCollection_35">
    <path d="M 73.832727 66.976405 
L 73.832727 66.976405 
L 85.027712 66.976405 
L 96.222696 66.976405 
L 107.41768 66.976405 
L 118.612665 66.976405 
L 129.807649 66.976405 
L 141.002633 66.976405 
L 152.197618 63.768304 
L 163.392602 63.768304 
L 174.587586 65.372354 
L 185.782571 66.976405 
L 196.977555 63.768304 
L 208.172539 62.164253 
L 219.367524 66.976405 
L 230.562508 65.372354 
L 241.757492 62.164253 
L 252.952476 60.560203 
L 264.147461 60.560203 
L 275.342445 62.164253 
L 286.537429 63.768304 
L 297.732414 63.768304 
L 308.927398 63.768304 
L 320.122382 63.768304 
L 331.317367 63.768304 
L 342.512351 66.976405 
L 353.707335 66.976405 
L 364.90232 70.184506 
L 376.097304 78.204759 
L 387.292288 84.620962 
L 398.487273 92.641215 
L 398.487273 86.225013 
L 398.487273 86.225013 
L 387.292288 78.204759 
L 376.097304 73.392608 
L 364.90232 66.976405 
L 353.707335 66.976405 
L 342.512351 66.976405 
L 331.317367 63.768304 
L 320.122382 63.768304 
L 308.927398 63.768304 
L 297.732414 63.768304 
L 286.537429 63.768304 
L 275.342445 62.164253 
L 264.147461 60.560203 
L 252.952476 60.560203 
L 241.757492 62.164253 
L 230.562508 65.372354 
L 219.367524 66.976405 
L 208.172539 62.164253 
L 196.977555 63.768304 
L 185.782571 66.976405 
L 174.587586 65.372354 
L 163.392602 63.768304 
L 152.197618 63.768304 
L 141.002633 66.976405 
L 129.807649 66.976405 
L 118.612665 66.976405 
L 107.41768 66.976405 
L 96.222696 66.976405 
L 85.027712 66.976405 
L 73.832727 66.976405 
z
" clip-path="url(#p7001821112)" style="fill: #9467bd"/>
   </g>
   <g id="PolyCollection_36">
    <path d="M 73.832727 66.976405 
L 73.832727 66.976405 
L 85.027712 66.976405 
L 96.222696 66.976405 
L 107.41768 66.976405 
L 118.612665 66.976405 
L 129.807649 66.976405 
L 141.002633 66.976405 
L 152.197618 63.768304 
L 163.392602 63.768304 
L 174.587586 65.372354 
L 185.782571 66.976405 
L 196.977555 63.768304 
L 208.172539 62.164253 
L 219.367524 66.976405 
L 230.562508 65.372354 
L 241.757492 62.164253 
L 252.952476 60.560203 
L 264.147461 60.560203 
L 275.342445 62.164253 
L 286.537429 63.768304 
L 297.732414 63.768304 
L 308.927398 63.768304 
L 320.122382 63.768304 
L 331.317367 63.768304 
L 342.512351 66.976405 
L 353.707335 66.976405 
L 364.90232 66.976405 
L 376.097304 73.392608 
L 387.292288 78.204759 
L 398.487273 86.225013 
L 398.487273 74.996658 
L 398.487273 74.996658 
L 387.292288 63.768304 
L 376.097304 65.372354 
L 364.90232 66.976405 
L 353.707335 66.976405 
L 342.512351 66.976405 
L 331.317367 63.768304 
L 320.122382 63.768304 
L 308.927398 63.768304 
L 297.732414 63.768304 
L 286.537429 63.768304 
L 275.342445 62.164253 
L 264.147461 60.560203 
L 252.952476 60.560203 
L 241.757492 62.164253 
L 230.562508 65.372354 
L 219.367524 66.976405 
L 208.172539 62.164253 
L 196.977555 63.768304 
L 185.782571 66.976405 
L 174.587586 65.372354 
L 163.392602 63.768304 
L 152.197618 63.768304 
L 141.002633 66.976405 
L 129.807649 66.976405 
L 118.612665 66.976405 
L 107.41768 66.976405 
L 96.222696 66.976405 
L 85.027712 66.976405 
L 73.832727 66.976405 
z
" clip-path="url(#p7001821112)" style="fill: #8c564b"/>
   </g>
   <g id="PolyCollection_37">
    <path d="M 73.832727 66.976405 
L 73.832727 66.976405 
L 85.027712 66.976405 
L 96.222696 66.976405 
L 107.41768 66.976405 
L 118.612665 66.976405 
L 129.807649 66.976405 
L 141.002633 66.976405 
L 152.197618 63.768304 
L 163.392602 63.768304 
L 174.587586 65.372354 
L 185.782571 66.976405 
L 196.977555 63.768304 
L 208.172539 62.164253 
L 219.367524 66.976405 
L 230.562508 65.372354 
L 241.757492 62.164253 
L 252.952476 60.560203 
L 264.147461 60.560203 
L 275.342445 62.164253 
L 286.537429 63.768304 
L 297.732414 63.768304 
L 308.927398 63.768304 
L 320.122382 63.768304 
L 331.317367 63.768304 
L 342.512351 66.976405 
L 353.707335 66.976405 
L 364.90232 66.976405 
L 376.097304 65.372354 
L 387.292288 63.768304 
L 398.487273 74.996658 
L 398.487273 70.184506 
L 398.487273 70.184506 
L 387.292288 55.748051 
L 376.097304 63.768304 
L 364.90232 66.976405 
L 353.707335 66.976405 
L 342.512351 66.976405 
L 331.317367 63.768304 
L 320.122382 63.768304 
L 308.927398 63.768304 
L 297.732414 63.768304 
L 286.537429 63.768304 
L 275.342445 62.164253 
L 264.147461 60.560203 
L 252.952476 60.560203 
L 241.757492 62.164253 
L 230.562508 65.372354 
L 219.367524 66.976405 
L 208.172539 62.164253 
L 196.977555 63.768304 
L 185.782571 66.976405 
L 174.587586 65.372354 
L 163.392602 63.768304 
L 152.197618 63.768304 
L 141.002633 66.976405 
L 129.807649 66.976405 
L 118.612665 66.976405 
L 107.41768 66.976405 
L 96.222696 66.976405 
L 85.027712 66.976405 
L 73.832727 66.976405 
z
" clip-path="url(#p7001821112)" style="fill: #e377c2"/>
   </g>
   <g id="PolyCollection_38">
    <path d="M 73.832727 66.976405 
L 73.832727 66.976405 
L 85.027712 66.976405 
L 96.222696 66.976405 
L 107.41768 66.976405 
L 118.612665 66.976405 
L 129.807649 66.976405 
L 141.002633 66.976405 
L 152.197618 63.768304 
L 163.392602 63.768304 
L 174.587586 65.372354 
L 185.782571 66.976405 
L 196.977555 63.768304 
L 208.172539 62.164253 
L 219.367524 66.976405 
L 230.562508 65.372354 
L 241.757492 62.164253 
L 252.952476 60.560203 
L 264.147461 60.560203 
L 275.342445 62.164253 
L 286.537429 63.768304 
L 297.732414 63.768304 
L 308.927398 63.768304 
L 320.122382 63.768304 
L 331.317367 63.768304 
L 342.512351 66.976405 
L 353.707335 66.976405 
L 364.90232 66.976405 
L 376.097304 63.768304 
L 387.292288 55.748051 
L 398.487273 70.184506 
L 398.487273 62.164253 
L 398.487273 62.164253 
L 387.292288 54.144 
L 376.097304 63.768304 
L 364.90232 66.976405 
L 353.707335 66.976405 
L 342.512351 66.976405 
L 331.317367 63.768304 
L 320.122382 63.768304 
L 308.927398 63.768304 
L 297.732414 63.768304 
L 286.537429 63.768304 
L 275.342445 62.164253 
L 264.147461 60.560203 
L 252.952476 60.560203 
L 241.757492 62.164253 
L 230.562508 65.372354 
L 219.367524 66.976405 
L 208.172539 62.164253 
L 196.977555 63.768304 
L 185.782571 66.976405 
L 174.587586 65.372354 
L 163.392602 63.768304 
L 152.197618 63.768304 
L 141.002633 66.976405 
L 129.807649 66.976405 
L 118.612665 66.976405 
L 107.41768 66.976405 
L 96.222696 66.976405 
L 85.027712 66.976405 
L 73.832727 66.976405 
z
" clip-path="url(#p7001821112)" style="fill: #7f7f7f"/>
   </g>
   <g id="matplotlib.axis_1">
    <g id="xtick_1">
     <g id="line2d_1">
      <defs>
       <path id="md66da4521e" d="M 0 0 
L 0 3.5 
" style="stroke: #000000; stroke-width: 0.8"/>
      </defs>
      <g>
       <use xlink:href="#md66da4521e" x="73.832727" y="307.584" style="stroke: #000000; stroke-width: 0.8"/>
      </g>
     </g>
     <g id="text_1">
      <!-- 0 -->
      <g transform="translate(70.651477 322.182437) scale(0.1 -0.1)">
       <defs>
        <path id="DejaVuSans-30" d="M 2034 4250 
Q 1547 4250 1301 3770 
Q 1056 3291 1056 2328 
Q 1056 1369 1301 889 
Q 1547 409 2034 409 
Q 2525 409 2770 889 
Q 3016 1369 3016 2328 
Q 3016 3291 2770 3770 
Q 2525 4250 2034 4250 
z
M 2034 4750 
Q 2819 4750 3233 4129 
Q 3647 3509 3647 2328 
Q 3647 1150 3233 529 
Q 2819 -91 2034 -91 
Q 1250 -91 836 529 
Q 422 1150 422 2328 
Q 422 3509 836 4129 
Q 1250 4750 2034 4750 
z
" transform="scale(0.015625)"/>
       </defs>
       <use xlink:href="#DejaVuSans-30"/>
      </g>
     </g>
    </g>
    <g id="xtick_2">
     <g id="line2d_2">
      <g>
       <use xlink:href="#md66da4521e" x="129.807649" y="307.584" style="stroke: #000000; stroke-width: 0.8"/>
      </g>
     </g>
     <g id="text_2">
      <!-- 5 -->
      <g transform="translate(126.626399 322.182437) scale(0.1 -0.1)">
       <defs>
        <path id="DejaVuSans-35" d="M 691 4666 
L 3169 4666 
L 3169 4134 
L 1269 4134 
L 1269 2991 
Q 1406 3038 1543 3061 
Q 1681 3084 1819 3084 
Q 2600 3084 3056 2656 
Q 3513 2228 3513 1497 
Q 3513 744 3044 326 
Q 2575 -91 1722 -91 
Q 1428 -91 1123 -41 
Q 819 9 494 109 
L 494 744 
Q 775 591 1075 516 
Q 1375 441 1709 441 
Q 2250 441 2565 725 
Q 2881 1009 2881 1497 
Q 2881 1984 2565 2268 
Q 2250 2553 1709 2553 
Q 1456 2553 1204 2497 
Q 953 2441 691 2322 
L 691 4666 
z
" transform="scale(0.015625)"/>
       </defs>
       <use xlink:href="#DejaVuSans-35"/>
      </g>
     </g>
    </g>
    <g id="xtick_3">
     <g id="line2d_3">
      <g>
       <use xlink:href="#md66da4521e" x="185.782571" y="307.584" style="stroke: #000000; stroke-width: 0.8"/>
      </g>
     </g>
     <g id="text_3">
      <!-- 10 -->
      <g transform="translate(179.420071 322.182437) scale(0.1 -0.1)">
       <defs>
        <path id="DejaVuSans-31" d="M 794 531 
L 1825 531 
L 1825 4091 
L 703 3866 
L 703 4441 
L 1819 4666 
L 2450 4666 
L 2450 531 
L 3481 531 
L 3481 0 
L 794 0 
L 794 531 
z
" transform="scale(0.015625)"/>
       </defs>
       <use xlink:href="#DejaVuSans-31"/>
       <use xlink:href="#DejaVuSans-30" x="63.623047"/>
      </g>
     </g>
    </g>
    <g id="xtick_4">
     <g id="line2d_4">
      <g>
       <use xlink:href="#md66da4521e" x="241.757492" y="307.584" style="stroke: #000000; stroke-width: 0.8"/>
      </g>
     </g>
     <g id="text_4">
      <!-- 15 -->
      <g transform="translate(235.394992 322.182437) scale(0.1 -0.1)">
       <use xlink:href="#DejaVuSans-31"/>
       <use xlink:href="#DejaVuSans-35" x="63.623047"/>
      </g>
     </g>
    </g>
    <g id="xtick_5">
     <g id="line2d_5">
      <g>
       <use xlink:href="#md66da4521e" x="297.732414" y="307.584" style="stroke: #000000; stroke-width: 0.8"/>
      </g>
     </g>
     <g id="text_5">
      <!-- 20 -->
      <g transform="translate(291.369914 322.182437) scale(0.1 -0.1)">
       <defs>
        <path id="DejaVuSans-32" d="M 1228 531 
L 3431 531 
L 3431 0 
L 469 0 
L 469 531 
Q 828 903 1448 1529 
Q 2069 2156 2228 2338 
Q 2531 2678 2651 2914 
Q 2772 3150 2772 3378 
Q 2772 3750 2511 3984 
Q 2250 4219 1831 4219 
Q 1534 4219 1204 4116 
Q 875 4013 500 3803 
L 500 4441 
Q 881 4594 1212 4672 
Q 1544 4750 1819 4750 
Q 2544 4750 2975 4387 
Q 3406 4025 3406 3419 
Q 3406 3131 3298 2873 
Q 3191 2616 2906 2266 
Q 2828 2175 2409 1742 
Q 1991 1309 1228 531 
z
" transform="scale(0.015625)"/>
       </defs>
       <use xlink:href="#DejaVuSans-32"/>
       <use xlink:href="#DejaVuSans-30" x="63.623047"/>
      </g>
     </g>
    </g>
    <g id="xtick_6">
     <g id="line2d_6">
      <g>
       <use xlink:href="#md66da4521e" x="353.707335" y="307.584" style="stroke: #000000; stroke-width: 0.8"/>
      </g>
     </g>
     <g id="text_6">
      <!-- 25 -->
      <g transform="translate(347.344835 322.182437) scale(0.1 -0.1)">
       <use xlink:href="#DejaVuSans-32"/>
       <use xlink:href="#DejaVuSans-35" x="63.623047"/>
      </g>
     </g>
    </g>
    <g id="xtick_7">
     <g id="line2d_7">
      <g>
       <use xlink:href="#md66da4521e" x="409.682257" y="307.584" style="stroke: #000000; stroke-width: 0.8"/>
      </g>
     </g>
     <g id="text_7">
      <!-- 30 -->
      <g transform="translate(403.319757 322.182437) scale(0.1 -0.1)">
       <defs>
        <path id="DejaVuSans-33" d="M 2597 2516 
Q 3050 2419 3304 2112 
Q 3559 1806 3559 1356 
Q 3559 666 3084 287 
Q 2609 -91 1734 -91 
Q 1441 -91 1130 -33 
Q 819 25 488 141 
L 488 750 
Q 750 597 1062 519 
Q 1375 441 1716 441 
Q 2309 441 2620 675 
Q 2931 909 2931 1356 
Q 2931 1769 2642 2001 
Q 2353 2234 1838 2234 
L 1294 2234 
L 1294 2753 
L 1863 2753 
Q 2328 2753 2575 2939 
Q 2822 3125 2822 3475 
Q 2822 3834 2567 4026 
Q 2313 4219 1838 4219 
Q 1578 4219 1281 4162 
Q 984 4106 628 3988 
L 628 4550 
Q 988 4650 1302 4700 
Q 1616 4750 1894 4750 
Q 2613 4750 3031 4423 
Q 3450 4097 3450 3541 
Q 3450 3153 3228 2886 
Q 3006 2619 2597 2516 
z
" transform="scale(0.015625)"/>
       </defs>
       <use xlink:href="#DejaVuSans-33"/>
       <use xlink:href="#DejaVuSans-30" x="63.623047"/>
      </g>
     </g>
    </g>
    <g id="text_8">
     <!-- Generations -->
     <g transform="translate(205.662344 335.860562) scale(0.1 -0.1)">
      <defs>
       <path id="DejaVuSans-47" d="M 3809 666 
L 3809 1919 
L 2778 1919 
L 2778 2438 
L 4434 2438 
L 4434 434 
Q 4069 175 3628 42 
Q 3188 -91 2688 -91 
Q 1594 -91 976 548 
Q 359 1188 359 2328 
Q 359 3472 976 4111 
Q 1594 4750 2688 4750 
Q 3144 4750 3555 4637 
Q 3966 4525 4313 4306 
L 4313 3634 
Q 3963 3931 3569 4081 
Q 3175 4231 2741 4231 
Q 1884 4231 1454 3753 
Q 1025 3275 1025 2328 
Q 1025 1384 1454 906 
Q 1884 428 2741 428 
Q 3075 428 3337 486 
Q 3600 544 3809 666 
z
" transform="scale(0.015625)"/>
       <path id="DejaVuSans-65" d="M 3597 1894 
L 3597 1613 
L 953 1613 
Q 991 1019 1311 708 
Q 1631 397 2203 397 
Q 2534 397 2845 478 
Q 3156 559 3463 722 
L 3463 178 
Q 3153 47 2828 -22 
Q 2503 -91 2169 -91 
Q 1331 -91 842 396 
Q 353 884 353 1716 
Q 353 2575 817 3079 
Q 1281 3584 2069 3584 
Q 2775 3584 3186 3129 
Q 3597 2675 3597 1894 
z
M 3022 2063 
Q 3016 2534 2758 2815 
Q 2500 3097 2075 3097 
Q 1594 3097 1305 2825 
Q 1016 2553 972 2059 
L 3022 2063 
z
" transform="scale(0.015625)"/>
       <path id="DejaVuSans-6e" d="M 3513 2113 
L 3513 0 
L 2938 0 
L 2938 2094 
Q 2938 2591 2744 2837 
Q 2550 3084 2163 3084 
Q 1697 3084 1428 2787 
Q 1159 2491 1159 1978 
L 1159 0 
L 581 0 
L 581 3500 
L 1159 3500 
L 1159 2956 
Q 1366 3272 1645 3428 
Q 1925 3584 2291 3584 
Q 2894 3584 3203 3211 
Q 3513 2838 3513 2113 
z
" transform="scale(0.015625)"/>
       <path id="DejaVuSans-72" d="M 2631 2963 
Q 2534 3019 2420 3045 
Q 2306 3072 2169 3072 
Q 1681 3072 1420 2755 
Q 1159 2438 1159 1844 
L 1159 0 
L 581 0 
L 581 3500 
L 1159 3500 
L 1159 2956 
Q 1341 3275 1631 3429 
Q 1922 3584 2338 3584 
Q 2397 3584 2469 3576 
Q 2541 3569 2628 3553 
L 2631 2963 
z
" transform="scale(0.015625)"/>
       <path id="DejaVuSans-61" d="M 2194 1759 
Q 1497 1759 1228 1600 
Q 959 1441 959 1056 
Q 959 750 1161 570 
Q 1363 391 1709 391 
Q 2188 391 2477 730 
Q 2766 1069 2766 1631 
L 2766 1759 
L 2194 1759 
z
M 3341 1997 
L 3341 0 
L 2766 0 
L 2766 531 
Q 2569 213 2275 61 
Q 1981 -91 1556 -91 
Q 1019 -91 701 211 
Q 384 513 384 1019 
Q 384 1609 779 1909 
Q 1175 2209 1959 2209 
L 2766 2209 
L 2766 2266 
Q 2766 2663 2505 2880 
Q 2244 3097 1772 3097 
Q 1472 3097 1187 3025 
Q 903 2953 641 2809 
L 641 3341 
Q 956 3463 1253 3523 
Q 1550 3584 1831 3584 
Q 2591 3584 2966 3190 
Q 3341 2797 3341 1997 
z
" transform="scale(0.015625)"/>
       <path id="DejaVuSans-74" d="M 1172 4494 
L 1172 3500 
L 2356 3500 
L 2356 3053 
L 1172 3053 
L 1172 1153 
Q 1172 725 1289 603 
Q 1406 481 1766 481 
L 2356 481 
L 2356 0 
L 1766 0 
Q 1100 0 847 248 
Q 594 497 594 1153 
L 594 3053 
L 172 3053 
L 172 3500 
L 594 3500 
L 594 4494 
L 1172 4494 
z
" transform="scale(0.015625)"/>
       <path id="DejaVuSans-69" d="M 603 3500 
L 1178 3500 
L 1178 0 
L 603 0 
L 603 3500 
z
M 603 4863 
L 1178 4863 
L 1178 4134 
L 603 4134 
L 603 4863 
z
" transform="scale(0.015625)"/>
       <path id="DejaVuSans-6f" d="M 1959 3097 
Q 1497 3097 1228 2736 
Q 959 2375 959 1747 
Q 959 1119 1226 758 
Q 1494 397 1959 397 
Q 2419 397 2687 759 
Q 2956 1122 2956 1747 
Q 2956 2369 2687 2733 
Q 2419 3097 1959 3097 
z
M 1959 3584 
Q 2709 3584 3137 3096 
Q 3566 2609 3566 1747 
Q 3566 888 3137 398 
Q 2709 -91 1959 -91 
Q 1206 -91 779 398 
Q 353 888 353 1747 
Q 353 2609 779 3096 
Q 1206 3584 1959 3584 
z
" transform="scale(0.015625)"/>
       <path id="DejaVuSans-73" d="M 2834 3397 
L 2834 2853 
Q 2591 2978 2328 3040 
Q 2066 3103 1784 3103 
Q 1356 3103 1142 2972 
Q 928 2841 928 2578 
Q 928 2378 1081 2264 
Q 1234 2150 1697 2047 
L 1894 2003 
Q 2506 1872 2764 1633 
Q 3022 1394 3022 966 
Q 3022 478 2636 193 
Q 2250 -91 1575 -91 
Q 1294 -91 989 -36 
Q 684 19 347 128 
L 347 722 
Q 666 556 975 473 
Q 1284 391 1588 391 
Q 1994 391 2212 530 
Q 2431 669 2431 922 
Q 2431 1156 2273 1281 
Q 2116 1406 1581 1522 
L 1381 1569 
Q 847 1681 609 1914 
Q 372 2147 372 2553 
Q 372 3047 722 3315 
Q 1072 3584 1716 3584 
Q 2034 3584 2315 3537 
Q 2597 3491 2834 3397 
z
" transform="scale(0.015625)"/>
      </defs>
      <use xlink:href="#DejaVuSans-47"/>
      <use xlink:href="#DejaVuSans-65" x="77.490234"/>
      <use xlink:href="#DejaVuSans-6e" x="139.013672"/>
      <use xlink:href="#DejaVuSans-65" x="202.392578"/>
      <use xlink:href="#DejaVuSans-72" x="263.916016"/>
      <use xlink:href="#DejaVuSans-61" x="305.029297"/>
      <use xlink:href="#DejaVuSans-74" x="366.308594"/>
      <use xlink:href="#DejaVuSans-69" x="405.517578"/>
      <use xlink:href="#DejaVuSans-6f" x="433.300781"/>
      <use xlink:href="#DejaVuSans-6e" x="494.482422"/>
      <use xlink:href="#DejaVuSans-73" x="557.861328"/>
     </g>
    </g>
   </g>
   <g id="matplotlib.axis_2">
    <g id="ytick_1">
     <g id="line2d_8">
      <defs>
       <path id="m2e4350603b" d="M 0 0 
L -3.5 0 
" style="stroke: #000000; stroke-width: 0.8"/>
      </defs>
      <g>
       <use xlink:href="#m2e4350603b" x="57.6" y="307.584" style="stroke: #000000; stroke-width: 0.8"/>
      </g>
     </g>
     <g id="text_9">
      <!-- 0 -->
      <g transform="translate(44.2375 311.383219) scale(0.1 -0.1)">
       <use xlink:href="#DejaVuSans-30"/>
      </g>
     </g>
    </g>
    <g id="ytick_2">
     <g id="line2d_9">
      <g>
       <use xlink:href="#m2e4350603b" x="57.6" y="275.502987" style="stroke: #000000; stroke-width: 0.8"/>
      </g>
     </g>
     <g id="text_10">
      <!-- 20 -->
      <g transform="translate(37.875 279.302206) scale(0.1 -0.1)">
       <use xlink:href="#DejaVuSans-32"/>
       <use xlink:href="#DejaVuSans-30" x="63.623047"/>
      </g>
     </g>
    </g>
    <g id="ytick_3">
     <g id="line2d_10">
      <g>
       <use xlink:href="#m2e4350603b" x="57.6" y="243.421975" style="stroke: #000000; stroke-width: 0.8"/>
      </g>
     </g>
     <g id="text_11">
      <!-- 40 -->
      <g transform="translate(37.875 247.221193) scale(0.1 -0.1)">
       <defs>
        <path id="DejaVuSans-34" d="M 2419 4116 
L 825 1625 
L 2419 1625 
L 2419 4116 
z
M 2253 4666 
L 3047 4666 
L 3047 1625 
L 3713 1625 
L 3713 1100 
L 3047 1100 
L 3047 0 
L 2419 0 
L 2419 1100 
L 313 1100 
L 313 1709 
L 2253 4666 
z
" transform="scale(0.015625)"/>
       </defs>
       <use xlink:href="#DejaVuSans-34"/>
       <use xlink:href="#DejaVuSans-30" x="63.623047"/>
      </g>
     </g>
    </g>
    <g id="ytick_4">
     <g id="line2d_11">
      <g>
       <use xlink:href="#m2e4350603b" x="57.6" y="211.340962" style="stroke: #000000; stroke-width: 0.8"/>
      </g>
     </g>
     <g id="text_12">
      <!-- 60 -->
      <g transform="translate(37.875 215.140181) scale(0.1 -0.1)">
       <defs>
        <path id="DejaVuSans-36" d="M 2113 2584 
Q 1688 2584 1439 2293 
Q 1191 2003 1191 1497 
Q 1191 994 1439 701 
Q 1688 409 2113 409 
Q 2538 409 2786 701 
Q 3034 994 3034 1497 
Q 3034 2003 2786 2293 
Q 2538 2584 2113 2584 
z
M 3366 4563 
L 3366 3988 
Q 3128 4100 2886 4159 
Q 2644 4219 2406 4219 
Q 1781 4219 1451 3797 
Q 1122 3375 1075 2522 
Q 1259 2794 1537 2939 
Q 1816 3084 2150 3084 
Q 2853 3084 3261 2657 
Q 3669 2231 3669 1497 
Q 3669 778 3244 343 
Q 2819 -91 2113 -91 
Q 1303 -91 875 529 
Q 447 1150 447 2328 
Q 447 3434 972 4092 
Q 1497 4750 2381 4750 
Q 2619 4750 2861 4703 
Q 3103 4656 3366 4563 
z
" transform="scale(0.015625)"/>
       </defs>
       <use xlink:href="#DejaVuSans-36"/>
       <use xlink:href="#DejaVuSans-30" x="63.623047"/>
      </g>
     </g>
    </g>
    <g id="ytick_5">
     <g id="line2d_12">
      <g>
       <use xlink:href="#m2e4350603b" x="57.6" y="179.259949" style="stroke: #000000; stroke-width: 0.8"/>
      </g>
     </g>
     <g id="text_13">
      <!-- 80 -->
      <g transform="translate(37.875 183.059168) scale(0.1 -0.1)">
       <defs>
        <path id="DejaVuSans-38" d="M 2034 2216 
Q 1584 2216 1326 1975 
Q 1069 1734 1069 1313 
Q 1069 891 1326 650 
Q 1584 409 2034 409 
Q 2484 409 2743 651 
Q 3003 894 3003 1313 
Q 3003 1734 2745 1975 
Q 2488 2216 2034 2216 
z
M 1403 2484 
Q 997 2584 770 2862 
Q 544 3141 544 3541 
Q 544 4100 942 4425 
Q 1341 4750 2034 4750 
Q 2731 4750 3128 4425 
Q 3525 4100 3525 3541 
Q 3525 3141 3298 2862 
Q 3072 2584 2669 2484 
Q 3125 2378 3379 2068 
Q 3634 1759 3634 1313 
Q 3634 634 3220 271 
Q 2806 -91 2034 -91 
Q 1263 -91 848 271 
Q 434 634 434 1313 
Q 434 1759 690 2068 
Q 947 2378 1403 2484 
z
M 1172 3481 
Q 1172 3119 1398 2916 
Q 1625 2713 2034 2713 
Q 2441 2713 2670 2916 
Q 2900 3119 2900 3481 
Q 2900 3844 2670 4047 
Q 2441 4250 2034 4250 
Q 1625 4250 1398 4047 
Q 1172 3844 1172 3481 
z
" transform="scale(0.015625)"/>
       </defs>
       <use xlink:href="#DejaVuSans-38"/>
       <use xlink:href="#DejaVuSans-30" x="63.623047"/>
      </g>
     </g>
    </g>
    <g id="ytick_6">
     <g id="line2d_13">
      <g>
       <use xlink:href="#m2e4350603b" x="57.6" y="147.178937" style="stroke: #000000; stroke-width: 0.8"/>
      </g>
     </g>
     <g id="text_14">
      <!-- 100 -->
      <g transform="translate(31.5125 150.978155) scale(0.1 -0.1)">
       <use xlink:href="#DejaVuSans-31"/>
       <use xlink:href="#DejaVuSans-30" x="63.623047"/>
       <use xlink:href="#DejaVuSans-30" x="127.246094"/>
      </g>
     </g>
    </g>
    <g id="ytick_7">
     <g id="line2d_14">
      <g>
       <use xlink:href="#m2e4350603b" x="57.6" y="115.097924" style="stroke: #000000; stroke-width: 0.8"/>
      </g>
     </g>
     <g id="text_15">
      <!-- 120 -->
      <g transform="translate(31.5125 118.897143) scale(0.1 -0.1)">
       <use xlink:href="#DejaVuSans-31"/>
       <use xlink:href="#DejaVuSans-32" x="63.623047"/>
       <use xlink:href="#DejaVuSans-30" x="127.246094"/>
      </g>
     </g>
    </g>
    <g id="ytick_8">
     <g id="line2d_15">
      <g>
       <use xlink:href="#m2e4350603b" x="57.6" y="83.016911" style="stroke: #000000; stroke-width: 0.8"/>
      </g>
     </g>
     <g id="text_16">
      <!-- 140 -->
      <g transform="translate(31.5125 86.81613) scale(0.1 -0.1)">
       <use xlink:href="#DejaVuSans-31"/>
       <use xlink:href="#DejaVuSans-34" x="63.623047"/>
       <use xlink:href="#DejaVuSans-30" x="127.246094"/>
      </g>
     </g>
    </g>
    <g id="ytick_9">
     <g id="line2d_16">
      <g>
       <use xlink:href="#m2e4350603b" x="57.6" y="50.935899" style="stroke: #000000; stroke-width: 0.8"/>
      </g>
     </g>
     <g id="text_17">
      <!-- 160 -->
      <g transform="translate(31.5125 54.735117) scale(0.1 -0.1)">
       <use xlink:href="#DejaVuSans-31"/>
       <use xlink:href="#DejaVuSans-36" x="63.623047"/>
       <use xlink:href="#DejaVuSans-30" x="127.246094"/>
      </g>
     </g>
    </g>
    <g id="text_18">
     <!-- Size per Species -->
     <g transform="translate(25.432812 215.520969) rotate(-90) scale(0.1 -0.1)">
      <defs>
       <path id="DejaVuSans-53" d="M 3425 4513 
L 3425 3897 
Q 3066 4069 2747 4153 
Q 2428 4238 2131 4238 
Q 1616 4238 1336 4038 
Q 1056 3838 1056 3469 
Q 1056 3159 1242 3001 
Q 1428 2844 1947 2747 
L 2328 2669 
Q 3034 2534 3370 2195 
Q 3706 1856 3706 1288 
Q 3706 609 3251 259 
Q 2797 -91 1919 -91 
Q 1588 -91 1214 -16 
Q 841 59 441 206 
L 441 856 
Q 825 641 1194 531 
Q 1563 422 1919 422 
Q 2459 422 2753 634 
Q 3047 847 3047 1241 
Q 3047 1584 2836 1778 
Q 2625 1972 2144 2069 
L 1759 2144 
Q 1053 2284 737 2584 
Q 422 2884 422 3419 
Q 422 4038 858 4394 
Q 1294 4750 2059 4750 
Q 2388 4750 2728 4690 
Q 3069 4631 3425 4513 
z
" transform="scale(0.015625)"/>
       <path id="DejaVuSans-7a" d="M 353 3500 
L 3084 3500 
L 3084 2975 
L 922 459 
L 3084 459 
L 3084 0 
L 275 0 
L 275 525 
L 2438 3041 
L 353 3041 
L 353 3500 
z
" transform="scale(0.015625)"/>
       <path id="DejaVuSans-20" transform="scale(0.015625)"/>
       <path id="DejaVuSans-70" d="M 1159 525 
L 1159 -1331 
L 581 -1331 
L 581 3500 
L 1159 3500 
L 1159 2969 
Q 1341 3281 1617 3432 
Q 1894 3584 2278 3584 
Q 2916 3584 3314 3078 
Q 3713 2572 3713 1747 
Q 3713 922 3314 415 
Q 2916 -91 2278 -91 
Q 1894 -91 1617 61 
Q 1341 213 1159 525 
z
M 3116 1747 
Q 3116 2381 2855 2742 
Q 2594 3103 2138 3103 
Q 1681 3103 1420 2742 
Q 1159 2381 1159 1747 
Q 1159 1113 1420 752 
Q 1681 391 2138 391 
Q 2594 391 2855 752 
Q 3116 1113 3116 1747 
z
" transform="scale(0.015625)"/>
       <path id="DejaVuSans-63" d="M 3122 3366 
L 3122 2828 
Q 2878 2963 2633 3030 
Q 2388 3097 2138 3097 
Q 1578 3097 1268 2742 
Q 959 2388 959 1747 
Q 959 1106 1268 751 
Q 1578 397 2138 397 
Q 2388 397 2633 464 
Q 2878 531 3122 666 
L 3122 134 
Q 2881 22 2623 -34 
Q 2366 -91 2075 -91 
Q 1284 -91 818 406 
Q 353 903 353 1747 
Q 353 2603 823 3093 
Q 1294 3584 2113 3584 
Q 2378 3584 2631 3529 
Q 2884 3475 3122 3366 
z
" transform="scale(0.015625)"/>
      </defs>
      <use xlink:href="#DejaVuSans-53"/>
      <use xlink:href="#DejaVuSans-69" x="63.476562"/>
      <use xlink:href="#DejaVuSans-7a" x="91.259766"/>
      <use xlink:href="#DejaVuSans-65" x="143.75"/>
      <use xlink:href="#DejaVuSans-20" x="205.273438"/>
      <use xlink:href="#DejaVuSans-70" x="237.060547"/>
      <use xlink:href="#DejaVuSans-65" x="300.537109"/>
      <use xlink:href="#DejaVuSans-72" x="362.060547"/>
      <use xlink:href="#DejaVuSans-20" x="403.173828"/>
      <use xlink:href="#DejaVuSans-53" x="434.960938"/>
      <use xlink:href="#DejaVuSans-70" x="498.4375"/>
      <use xlink:href="#DejaVuSans-65" x="561.914062"/>
      <use xlink:href="#DejaVuSans-63" x="623.4375"/>
      <use xlink:href="#DejaVuSans-69" x="678.417969"/>
      <use xlink:href="#DejaVuSans-65" x="706.201172"/>
      <use xlink:href="#DejaVuSans-73" x="767.724609"/>
     </g>
    </g>
   </g>
   <g id="patch_3">
    <path d="M 57.6 307.584 
L 57.6 41.472 
" style="fill: none; stroke: #000000; stroke-width: 0.8; stroke-linejoin: miter; stroke-linecap: square"/>
   </g>
   <g id="patch_4">
    <path d="M 414.72 307.584 
L 414.72 41.472 
" style="fill: none; stroke: #000000; stroke-width: 0.8; stroke-linejoin: miter; stroke-linecap: square"/>
   </g>
   <g id="patch_5">
    <path d="M 57.6 307.584 
L 414.72 307.584 
" style="fill: none; stroke: #000000; stroke-width: 0.8; stroke-linejoin: miter; stroke-linecap: square"/>
   </g>
   <g id="patch_6">
    <path d="M 57.6 41.472 
L 414.72 41.472 
" style="fill: none; stroke: #000000; stroke-width: 0.8; stroke-linejoin: miter; stroke-linecap: square"/>
   </g>
   <g id="text_19">
    <!-- Speciation -->
    <g transform="translate(204.714375 35.472) scale(0.12 -0.12)">
     <use xlink:href="#DejaVuSans-53"/>
     <use xlink:href="#DejaVuSans-70" x="63.476562"/>
     <use xlink:href="#DejaVuSans-65" x="126.953125"/>
     <use xlink:href="#DejaVuSans-63" x="188.476562"/>
     <use xlink:href="#DejaVuSans-69" x="243.457031"/>
     <use xlink:href="#DejaVuSans-61" x="271.240234"/>
     <use xlink:href="#DejaVuSans-74" x="332.519531"/>
     <use xlink:href="#DejaVuSans-69" x="371.728516"/>
     <use xlink:href="#DejaVuSans-6f" x="399.511719"/>
     <use xlink:href="#DejaVuSans-6e" x="460.693359"/>
    </g>
   </g>
  </g>
 </g>
 <defs>
  <clipPath id="p7001821112">
   <rect x="57.6" y="41.472" width="357.12" height="266.112"/>
  </clipPath>
 </defs>
</svg>
