<?xml version="1.0" encoding="utf-8" standalone="no"?>
<!DOCTYPE svg PUBLIC "-//W3C//DTD SVG 1.1//EN"
  "http://www.w3.org/Graphics/SVG/1.1/DTD/svg11.dtd">
<svg xmlns:xlink="http://www.w3.org/1999/xlink" width="460.8pt" height="345.6pt" viewBox="0 0 460.8 345.6" xmlns="http://www.w3.org/2000/svg" version="1.1">
 <metadata>
  <rdf:RDF xmlns:dc="http://purl.org/dc/elements/1.1/" xmlns:cc="http://creativecommons.org/ns#" xmlns:rdf="http://www.w3.org/1999/02/22-rdf-syntax-ns#">
   <cc:Work>
    <dc:type rdf:resource="http://purl.org/dc/dcmitype/StillImage"/>
    <dc:date>2023-02-03T23:49:48.608505</dc:date>
    <dc:format>image/svg+xml</dc:format>
    <dc:creator>
     <cc:Agent>
      <dc:title>Matplotlib v3.6.2, https://matplotlib.org/</dc:title>
     </cc:Agent>
    </dc:creator>
   </cc:Work>
  </rdf:RDF>
 </metadata>
 <defs>
  <style type="text/css">*{stroke-linejoin: round; stroke-linecap: butt}</style>
 </defs>
 <g id="figure_1">
  <g id="patch_1">
   <path d="M 0 345.6 
L 460.8 345.6 
L 460.8 0 
L 0 0 
z
" style="fill: #ffffff"/>
  </g>
  <g id="axes_1">
   <g id="patch_2">
    <path d="M 57.6 307.584 
L 414.72 307.584 
L 414.72 41.472 
L 57.6 41.472 
z
" style="fill: #ffffff"/>
   </g>
   <g id="matplotlib.axis_1">
    <g id="xtick_1">
     <g id="line2d_1">
      <path d="M 73.832727 307.584 
L 73.832727 41.472 
" clip-path="url(#p3ef94d2069)" style="fill: none; stroke: #b0b0b0; stroke-width: 0.8; stroke-linecap: square"/>
     </g>
     <g id="line2d_2">
      <defs>
       <path id="meb127fba72" d="M 0 0 
L 0 3.5 
" style="stroke: #000000; stroke-width: 0.8"/>
      </defs>
      <g>
       <use xlink:href="#meb127fba72" x="73.832727" y="307.584" style="stroke: #000000; stroke-width: 0.8"/>
      </g>
     </g>
     <g id="text_1">
      <!-- 0 -->
      <g transform="translate(70.651477 322.182437) scale(0.1 -0.1)">
       <defs>
        <path id="DejaVuSans-30" d="M 2034 4250 
Q 1547 4250 1301 3770 
Q 1056 3291 1056 2328 
Q 1056 1369 1301 889 
Q 1547 409 2034 409 
Q 2525 409 2770 889 
Q 3016 1369 3016 2328 
Q 3016 3291 2770 3770 
Q 2525 4250 2034 4250 
z
M 2034 4750 
Q 2819 4750 3233 4129 
Q 3647 3509 3647 2328 
Q 3647 1150 3233 529 
Q 2819 -91 2034 -91 
Q 1250 -91 836 529 
Q 422 1150 422 2328 
Q 422 3509 836 4129 
Q 1250 4750 2034 4750 
z
" transform="scale(0.015625)"/>
       </defs>
       <use xlink:href="#DejaVuSans-30"/>
      </g>
     </g>
    </g>
    <g id="xtick_2">
     <g id="line2d_3">
      <path d="M 128.122785 307.584 
L 128.122785 41.472 
" clip-path="url(#p3ef94d2069)" style="fill: none; stroke: #b0b0b0; stroke-width: 0.8; stroke-linecap: square"/>
     </g>
     <g id="line2d_4">
      <g>
       <use xlink:href="#meb127fba72" x="128.122785" y="307.584" style="stroke: #000000; stroke-width: 0.8"/>
      </g>
     </g>
     <g id="text_2">
      <!-- 50 -->
      <g transform="translate(121.760285 322.182437) scale(0.1 -0.1)">
       <defs>
        <path id="DejaVuSans-35" d="M 691 4666 
L 3169 4666 
L 3169 4134 
L 1269 4134 
L 1269 2991 
Q 1406 3038 1543 3061 
Q 1681 3084 1819 3084 
Q 2600 3084 3056 2656 
Q 3513 2228 3513 1497 
Q 3513 744 3044 326 
Q 2575 -91 1722 -91 
Q 1428 -91 1123 -41 
Q 819 9 494 109 
L 494 744 
Q 775 591 1075 516 
Q 1375 441 1709 441 
Q 2250 441 2565 725 
Q 2881 1009 2881 1497 
Q 2881 1984 2565 2268 
Q 2250 2553 1709 2553 
Q 1456 2553 1204 2497 
Q 953 2441 691 2322 
L 691 4666 
z
" transform="scale(0.015625)"/>
       </defs>
       <use xlink:href="#DejaVuSans-35"/>
       <use xlink:href="#DejaVuSans-30" x="63.623047"/>
      </g>
     </g>
    </g>
    <g id="xtick_3">
     <g id="line2d_5">
      <path d="M 182.412843 307.584 
L 182.412843 41.472 
" clip-path="url(#p3ef94d2069)" style="fill: none; stroke: #b0b0b0; stroke-width: 0.8; stroke-linecap: square"/>
     </g>
     <g id="line2d_6">
      <g>
       <use xlink:href="#meb127fba72" x="182.412843" y="307.584" style="stroke: #000000; stroke-width: 0.8"/>
      </g>
     </g>
     <g id="text_3">
      <!-- 100 -->
      <g transform="translate(172.869093 322.182437) scale(0.1 -0.1)">
       <defs>
        <path id="DejaVuSans-31" d="M 794 531 
L 1825 531 
L 1825 4091 
L 703 3866 
L 703 4441 
L 1819 4666 
L 2450 4666 
L 2450 531 
L 3481 531 
L 3481 0 
L 794 0 
L 794 531 
z
" transform="scale(0.015625)"/>
       </defs>
       <use xlink:href="#DejaVuSans-31"/>
       <use xlink:href="#DejaVuSans-30" x="63.623047"/>
       <use xlink:href="#DejaVuSans-30" x="127.246094"/>
      </g>
     </g>
    </g>
    <g id="xtick_4">
     <g id="line2d_7">
      <path d="M 236.702901 307.584 
L 236.702901 41.472 
" clip-path="url(#p3ef94d2069)" style="fill: none; stroke: #b0b0b0; stroke-width: 0.8; stroke-linecap: square"/>
     </g>
     <g id="line2d_8">
      <g>
       <use xlink:href="#meb127fba72" x="236.702901" y="307.584" style="stroke: #000000; stroke-width: 0.8"/>
      </g>
     </g>
     <g id="text_4">
      <!-- 150 -->
      <g transform="translate(227.159151 322.182437) scale(0.1 -0.1)">
       <use xlink:href="#DejaVuSans-31"/>
       <use xlink:href="#DejaVuSans-35" x="63.623047"/>
       <use xlink:href="#DejaVuSans-30" x="127.246094"/>
      </g>
     </g>
    </g>
    <g id="xtick_5">
     <g id="line2d_9">
      <path d="M 290.992958 307.584 
L 290.992958 41.472 
" clip-path="url(#p3ef94d2069)" style="fill: none; stroke: #b0b0b0; stroke-width: 0.8; stroke-linecap: square"/>
     </g>
     <g id="line2d_10">
      <g>
       <use xlink:href="#meb127fba72" x="290.992958" y="307.584" style="stroke: #000000; stroke-width: 0.8"/>
      </g>
     </g>
     <g id="text_5">
      <!-- 200 -->
      <g transform="translate(281.449208 322.182437) scale(0.1 -0.1)">
       <defs>
        <path id="DejaVuSans-32" d="M 1228 531 
L 3431 531 
L 3431 0 
L 469 0 
L 469 531 
Q 828 903 1448 1529 
Q 2069 2156 2228 2338 
Q 2531 2678 2651 2914 
Q 2772 3150 2772 3378 
Q 2772 3750 2511 3984 
Q 2250 4219 1831 4219 
Q 1534 4219 1204 4116 
Q 875 4013 500 3803 
L 500 4441 
Q 881 4594 1212 4672 
Q 1544 4750 1819 4750 
Q 2544 4750 2975 4387 
Q 3406 4025 3406 3419 
Q 3406 3131 3298 2873 
Q 3191 2616 2906 2266 
Q 2828 2175 2409 1742 
Q 1991 1309 1228 531 
z
" transform="scale(0.015625)"/>
       </defs>
       <use xlink:href="#DejaVuSans-32"/>
       <use xlink:href="#DejaVuSans-30" x="63.623047"/>
       <use xlink:href="#DejaVuSans-30" x="127.246094"/>
      </g>
     </g>
    </g>
    <g id="xtick_6">
     <g id="line2d_11">
      <path d="M 345.283016 307.584 
L 345.283016 41.472 
" clip-path="url(#p3ef94d2069)" style="fill: none; stroke: #b0b0b0; stroke-width: 0.8; stroke-linecap: square"/>
     </g>
     <g id="line2d_12">
      <g>
       <use xlink:href="#meb127fba72" x="345.283016" y="307.584" style="stroke: #000000; stroke-width: 0.8"/>
      </g>
     </g>
     <g id="text_6">
      <!-- 250 -->
      <g transform="translate(335.739266 322.182437) scale(0.1 -0.1)">
       <use xlink:href="#DejaVuSans-32"/>
       <use xlink:href="#DejaVuSans-35" x="63.623047"/>
       <use xlink:href="#DejaVuSans-30" x="127.246094"/>
      </g>
     </g>
    </g>
    <g id="xtick_7">
     <g id="line2d_13">
      <path d="M 399.573074 307.584 
L 399.573074 41.472 
" clip-path="url(#p3ef94d2069)" style="fill: none; stroke: #b0b0b0; stroke-width: 0.8; stroke-linecap: square"/>
     </g>
     <g id="line2d_14">
      <g>
       <use xlink:href="#meb127fba72" x="399.573074" y="307.584" style="stroke: #000000; stroke-width: 0.8"/>
      </g>
     </g>
     <g id="text_7">
      <!-- 300 -->
      <g transform="translate(390.029324 322.182437) scale(0.1 -0.1)">
       <defs>
        <path id="DejaVuSans-33" d="M 2597 2516 
Q 3050 2419 3304 2112 
Q 3559 1806 3559 1356 
Q 3559 666 3084 287 
Q 2609 -91 1734 -91 
Q 1441 -91 1130 -33 
Q 819 25 488 141 
L 488 750 
Q 750 597 1062 519 
Q 1375 441 1716 441 
Q 2309 441 2620 675 
Q 2931 909 2931 1356 
Q 2931 1769 2642 2001 
Q 2353 2234 1838 2234 
L 1294 2234 
L 1294 2753 
L 1863 2753 
Q 2328 2753 2575 2939 
Q 2822 3125 2822 3475 
Q 2822 3834 2567 4026 
Q 2313 4219 1838 4219 
Q 1578 4219 1281 4162 
Q 984 4106 628 3988 
L 628 4550 
Q 988 4650 1302 4700 
Q 1616 4750 1894 4750 
Q 2613 4750 3031 4423 
Q 3450 4097 3450 3541 
Q 3450 3153 3228 2886 
Q 3006 2619 2597 2516 
z
" transform="scale(0.015625)"/>
       </defs>
       <use xlink:href="#DejaVuSans-33"/>
       <use xlink:href="#DejaVuSans-30" x="63.623047"/>
       <use xlink:href="#DejaVuSans-30" x="127.246094"/>
      </g>
     </g>
    </g>
    <g id="text_8">
     <!-- Generations -->
     <g transform="translate(205.662344 335.860562) scale(0.1 -0.1)">
      <defs>
       <path id="DejaVuSans-47" d="M 3809 666 
L 3809 1919 
L 2778 1919 
L 2778 2438 
L 4434 2438 
L 4434 434 
Q 4069 175 3628 42 
Q 3188 -91 2688 -91 
Q 1594 -91 976 548 
Q 359 1188 359 2328 
Q 359 3472 976 4111 
Q 1594 4750 2688 4750 
Q 3144 4750 3555 4637 
Q 3966 4525 4313 4306 
L 4313 3634 
Q 3963 3931 3569 4081 
Q 3175 4231 2741 4231 
Q 1884 4231 1454 3753 
Q 1025 3275 1025 2328 
Q 1025 1384 1454 906 
Q 1884 428 2741 428 
Q 3075 428 3337 486 
Q 3600 544 3809 666 
z
" transform="scale(0.015625)"/>
       <path id="DejaVuSans-65" d="M 3597 1894 
L 3597 1613 
L 953 1613 
Q 991 1019 1311 708 
Q 1631 397 2203 397 
Q 2534 397 2845 478 
Q 3156 559 3463 722 
L 3463 178 
Q 3153 47 2828 -22 
Q 2503 -91 2169 -91 
Q 1331 -91 842 396 
Q 353 884 353 1716 
Q 353 2575 817 3079 
Q 1281 3584 2069 3584 
Q 2775 3584 3186 3129 
Q 3597 2675 3597 1894 
z
M 3022 2063 
Q 3016 2534 2758 2815 
Q 2500 3097 2075 3097 
Q 1594 3097 1305 2825 
Q 1016 2553 972 2059 
L 3022 2063 
z
" transform="scale(0.015625)"/>
       <path id="DejaVuSans-6e" d="M 3513 2113 
L 3513 0 
L 2938 0 
L 2938 2094 
Q 2938 2591 2744 2837 
Q 2550 3084 2163 3084 
Q 1697 3084 1428 2787 
Q 1159 2491 1159 1978 
L 1159 0 
L 581 0 
L 581 3500 
L 1159 3500 
L 1159 2956 
Q 1366 3272 1645 3428 
Q 1925 3584 2291 3584 
Q 2894 3584 3203 3211 
Q 3513 2838 3513 2113 
z
" transform="scale(0.015625)"/>
       <path id="DejaVuSans-72" d="M 2631 2963 
Q 2534 3019 2420 3045 
Q 2306 3072 2169 3072 
Q 1681 3072 1420 2755 
Q 1159 2438 1159 1844 
L 1159 0 
L 581 0 
L 581 3500 
L 1159 3500 
L 1159 2956 
Q 1341 3275 1631 3429 
Q 1922 3584 2338 3584 
Q 2397 3584 2469 3576 
Q 2541 3569 2628 3553 
L 2631 2963 
z
" transform="scale(0.015625)"/>
       <path id="DejaVuSans-61" d="M 2194 1759 
Q 1497 1759 1228 1600 
Q 959 1441 959 1056 
Q 959 750 1161 570 
Q 1363 391 1709 391 
Q 2188 391 2477 730 
Q 2766 1069 2766 1631 
L 2766 1759 
L 2194 1759 
z
M 3341 1997 
L 3341 0 
L 2766 0 
L 2766 531 
Q 2569 213 2275 61 
Q 1981 -91 1556 -91 
Q 1019 -91 701 211 
Q 384 513 384 1019 
Q 384 1609 779 1909 
Q 1175 2209 1959 2209 
L 2766 2209 
L 2766 2266 
Q 2766 2663 2505 2880 
Q 2244 3097 1772 3097 
Q 1472 3097 1187 3025 
Q 903 2953 641 2809 
L 641 3341 
Q 956 3463 1253 3523 
Q 1550 3584 1831 3584 
Q 2591 3584 2966 3190 
Q 3341 2797 3341 1997 
z
" transform="scale(0.015625)"/>
       <path id="DejaVuSans-74" d="M 1172 4494 
L 1172 3500 
L 2356 3500 
L 2356 3053 
L 1172 3053 
L 1172 1153 
Q 1172 725 1289 603 
Q 1406 481 1766 481 
L 2356 481 
L 2356 0 
L 1766 0 
Q 1100 0 847 248 
Q 594 497 594 1153 
L 594 3053 
L 172 3053 
L 172 3500 
L 594 3500 
L 594 4494 
L 1172 4494 
z
" transform="scale(0.015625)"/>
       <path id="DejaVuSans-69" d="M 603 3500 
L 1178 3500 
L 1178 0 
L 603 0 
L 603 3500 
z
M 603 4863 
L 1178 4863 
L 1178 4134 
L 603 4134 
L 603 4863 
z
" transform="scale(0.015625)"/>
       <path id="DejaVuSans-6f" d="M 1959 3097 
Q 1497 3097 1228 2736 
Q 959 2375 959 1747 
Q 959 1119 1226 758 
Q 1494 397 1959 397 
Q 2419 397 2687 759 
Q 2956 1122 2956 1747 
Q 2956 2369 2687 2733 
Q 2419 3097 1959 3097 
z
M 1959 3584 
Q 2709 3584 3137 3096 
Q 3566 2609 3566 1747 
Q 3566 888 3137 398 
Q 2709 -91 1959 -91 
Q 1206 -91 779 398 
Q 353 888 353 1747 
Q 353 2609 779 3096 
Q 1206 3584 1959 3584 
z
" transform="scale(0.015625)"/>
       <path id="DejaVuSans-73" d="M 2834 3397 
L 2834 2853 
Q 2591 2978 2328 3040 
Q 2066 3103 1784 3103 
Q 1356 3103 1142 2972 
Q 928 2841 928 2578 
Q 928 2378 1081 2264 
Q 1234 2150 1697 2047 
L 1894 2003 
Q 2506 1872 2764 1633 
Q 3022 1394 3022 966 
Q 3022 478 2636 193 
Q 2250 -91 1575 -91 
Q 1294 -91 989 -36 
Q 684 19 347 128 
L 347 722 
Q 666 556 975 473 
Q 1284 391 1588 391 
Q 1994 391 2212 530 
Q 2431 669 2431 922 
Q 2431 1156 2273 1281 
Q 2116 1406 1581 1522 
L 1381 1569 
Q 847 1681 609 1914 
Q 372 2147 372 2553 
Q 372 3047 722 3315 
Q 1072 3584 1716 3584 
Q 2034 3584 2315 3537 
Q 2597 3491 2834 3397 
z
" transform="scale(0.015625)"/>
      </defs>
      <use xlink:href="#DejaVuSans-47"/>
      <use xlink:href="#DejaVuSans-65" x="77.490234"/>
      <use xlink:href="#DejaVuSans-6e" x="139.013672"/>
      <use xlink:href="#DejaVuSans-65" x="202.392578"/>
      <use xlink:href="#DejaVuSans-72" x="263.916016"/>
      <use xlink:href="#DejaVuSans-61" x="305.029297"/>
      <use xlink:href="#DejaVuSans-74" x="366.308594"/>
      <use xlink:href="#DejaVuSans-69" x="405.517578"/>
      <use xlink:href="#DejaVuSans-6f" x="433.300781"/>
      <use xlink:href="#DejaVuSans-6e" x="494.482422"/>
      <use xlink:href="#DejaVuSans-73" x="557.861328"/>
     </g>
    </g>
   </g>
   <g id="matplotlib.axis_2">
    <g id="ytick_1">
     <g id="line2d_15">
      <path d="M 57.6 306.742552 
L 414.72 306.742552 
" clip-path="url(#p3ef94d2069)" style="fill: none; stroke: #b0b0b0; stroke-width: 0.8; stroke-linecap: square"/>
     </g>
     <g id="line2d_16">
      <defs>
       <path id="m315d373268" d="M 0 0 
L -3.5 0 
" style="stroke: #000000; stroke-width: 0.8"/>
      </defs>
      <g>
       <use xlink:href="#m315d373268" x="57.6" y="306.742552" style="stroke: #000000; stroke-width: 0.8"/>
      </g>
     </g>
     <g id="text_9">
      <!-- 0 -->
      <g transform="translate(44.2375 310.541771) scale(0.1 -0.1)">
       <use xlink:href="#DejaVuSans-30"/>
      </g>
     </g>
    </g>
    <g id="ytick_2">
     <g id="line2d_17">
      <path d="M 57.6 259.490823 
L 414.72 259.490823 
" clip-path="url(#p3ef94d2069)" style="fill: none; stroke: #b0b0b0; stroke-width: 0.8; stroke-linecap: square"/>
     </g>
     <g id="line2d_18">
      <g>
       <use xlink:href="#m315d373268" x="57.6" y="259.490823" style="stroke: #000000; stroke-width: 0.8"/>
      </g>
     </g>
     <g id="text_10">
      <!-- 200 -->
      <g transform="translate(31.5125 263.290042) scale(0.1 -0.1)">
       <use xlink:href="#DejaVuSans-32"/>
       <use xlink:href="#DejaVuSans-30" x="63.623047"/>
       <use xlink:href="#DejaVuSans-30" x="127.246094"/>
      </g>
     </g>
    </g>
    <g id="ytick_3">
     <g id="line2d_19">
      <path d="M 57.6 212.239094 
L 414.72 212.239094 
" clip-path="url(#p3ef94d2069)" style="fill: none; stroke: #b0b0b0; stroke-width: 0.8; stroke-linecap: square"/>
     </g>
     <g id="line2d_20">
      <g>
       <use xlink:href="#m315d373268" x="57.6" y="212.239094" style="stroke: #000000; stroke-width: 0.8"/>
      </g>
     </g>
     <g id="text_11">
      <!-- 400 -->
      <g transform="translate(31.5125 216.038313) scale(0.1 -0.1)">
       <defs>
        <path id="DejaVuSans-34" d="M 2419 4116 
L 825 1625 
L 2419 1625 
L 2419 4116 
z
M 2253 4666 
L 3047 4666 
L 3047 1625 
L 3713 1625 
L 3713 1100 
L 3047 1100 
L 3047 0 
L 2419 0 
L 2419 1100 
L 313 1100 
L 313 1709 
L 2253 4666 
z
" transform="scale(0.015625)"/>
       </defs>
       <use xlink:href="#DejaVuSans-34"/>
       <use xlink:href="#DejaVuSans-30" x="63.623047"/>
       <use xlink:href="#DejaVuSans-30" x="127.246094"/>
      </g>
     </g>
    </g>
    <g id="ytick_4">
     <g id="line2d_21">
      <path d="M 57.6 164.987365 
L 414.72 164.987365 
" clip-path="url(#p3ef94d2069)" style="fill: none; stroke: #b0b0b0; stroke-width: 0.8; stroke-linecap: square"/>
     </g>
     <g id="line2d_22">
      <g>
       <use xlink:href="#m315d373268" x="57.6" y="164.987365" style="stroke: #000000; stroke-width: 0.8"/>
      </g>
     </g>
     <g id="text_12">
      <!-- 600 -->
      <g transform="translate(31.5125 168.786584) scale(0.1 -0.1)">
       <defs>
        <path id="DejaVuSans-36" d="M 2113 2584 
Q 1688 2584 1439 2293 
Q 1191 2003 1191 1497 
Q 1191 994 1439 701 
Q 1688 409 2113 409 
Q 2538 409 2786 701 
Q 3034 994 3034 1497 
Q 3034 2003 2786 2293 
Q 2538 2584 2113 2584 
z
M 3366 4563 
L 3366 3988 
Q 3128 4100 2886 4159 
Q 2644 4219 2406 4219 
Q 1781 4219 1451 3797 
Q 1122 3375 1075 2522 
Q 1259 2794 1537 2939 
Q 1816 3084 2150 3084 
Q 2853 3084 3261 2657 
Q 3669 2231 3669 1497 
Q 3669 778 3244 343 
Q 2819 -91 2113 -91 
Q 1303 -91 875 529 
Q 447 1150 447 2328 
Q 447 3434 972 4092 
Q 1497 4750 2381 4750 
Q 2619 4750 2861 4703 
Q 3103 4656 3366 4563 
z
" transform="scale(0.015625)"/>
       </defs>
       <use xlink:href="#DejaVuSans-36"/>
       <use xlink:href="#DejaVuSans-30" x="63.623047"/>
       <use xlink:href="#DejaVuSans-30" x="127.246094"/>
      </g>
     </g>
    </g>
    <g id="ytick_5">
     <g id="line2d_23">
      <path d="M 57.6 117.735636 
L 414.72 117.735636 
" clip-path="url(#p3ef94d2069)" style="fill: none; stroke: #b0b0b0; stroke-width: 0.8; stroke-linecap: square"/>
     </g>
     <g id="line2d_24">
      <g>
       <use xlink:href="#m315d373268" x="57.6" y="117.735636" style="stroke: #000000; stroke-width: 0.8"/>
      </g>
     </g>
     <g id="text_13">
      <!-- 800 -->
      <g transform="translate(31.5125 121.534854) scale(0.1 -0.1)">
       <defs>
        <path id="DejaVuSans-38" d="M 2034 2216 
Q 1584 2216 1326 1975 
Q 1069 1734 1069 1313 
Q 1069 891 1326 650 
Q 1584 409 2034 409 
Q 2484 409 2743 651 
Q 3003 894 3003 1313 
Q 3003 1734 2745 1975 
Q 2488 2216 2034 2216 
z
M 1403 2484 
Q 997 2584 770 2862 
Q 544 3141 544 3541 
Q 544 4100 942 4425 
Q 1341 4750 2034 4750 
Q 2731 4750 3128 4425 
Q 3525 4100 3525 3541 
Q 3525 3141 3298 2862 
Q 3072 2584 2669 2484 
Q 3125 2378 3379 2068 
Q 3634 1759 3634 1313 
Q 3634 634 3220 271 
Q 2806 -91 2034 -91 
Q 1263 -91 848 271 
Q 434 634 434 1313 
Q 434 1759 690 2068 
Q 947 2378 1403 2484 
z
M 1172 3481 
Q 1172 3119 1398 2916 
Q 1625 2713 2034 2713 
Q 2441 2713 2670 2916 
Q 2900 3119 2900 3481 
Q 2900 3844 2670 4047 
Q 2441 4250 2034 4250 
Q 1625 4250 1398 4047 
Q 1172 3844 1172 3481 
z
" transform="scale(0.015625)"/>
       </defs>
       <use xlink:href="#DejaVuSans-38"/>
       <use xlink:href="#DejaVuSans-30" x="63.623047"/>
       <use xlink:href="#DejaVuSans-30" x="127.246094"/>
      </g>
     </g>
    </g>
    <g id="ytick_6">
     <g id="line2d_25">
      <path d="M 57.6 70.483906 
L 414.72 70.483906 
" clip-path="url(#p3ef94d2069)" style="fill: none; stroke: #b0b0b0; stroke-width: 0.8; stroke-linecap: square"/>
     </g>
     <g id="line2d_26">
      <g>
       <use xlink:href="#m315d373268" x="57.6" y="70.483906" style="stroke: #000000; stroke-width: 0.8"/>
      </g>
     </g>
     <g id="text_14">
      <!-- 1000 -->
      <g transform="translate(25.15 74.283125) scale(0.1 -0.1)">
       <use xlink:href="#DejaVuSans-31"/>
       <use xlink:href="#DejaVuSans-30" x="63.623047"/>
       <use xlink:href="#DejaVuSans-30" x="127.246094"/>
       <use xlink:href="#DejaVuSans-30" x="190.869141"/>
      </g>
     </g>
    </g>
    <g id="text_15">
     <!-- Fitness -->
     <g transform="translate(19.070312 191.845187) rotate(-90) scale(0.1 -0.1)">
      <defs>
       <path id="DejaVuSans-46" d="M 628 4666 
L 3309 4666 
L 3309 4134 
L 1259 4134 
L 1259 2759 
L 3109 2759 
L 3109 2228 
L 1259 2228 
L 1259 0 
L 628 0 
L 628 4666 
z
" transform="scale(0.015625)"/>
      </defs>
      <use xlink:href="#DejaVuSans-46"/>
      <use xlink:href="#DejaVuSans-69" x="50.269531"/>
      <use xlink:href="#DejaVuSans-74" x="78.052734"/>
      <use xlink:href="#DejaVuSans-6e" x="117.261719"/>
      <use xlink:href="#DejaVuSans-65" x="180.640625"/>
      <use xlink:href="#DejaVuSans-73" x="242.164062"/>
      <use xlink:href="#DejaVuSans-73" x="294.263672"/>
     </g>
    </g>
   </g>
   <g id="line2d_27">
    <path d="M 73.832727 294.818945 
L 74.918528 295.488 
L 76.00433 293.826215 
L 77.090131 293.089093 
L 78.175932 295.319111 
L 79.261733 292.457169 
L 80.347534 291.17947 
L 81.433335 288.873844 
L 82.519137 289.029323 
L 83.604938 289.72174 
L 84.690739 288.188281 
L 85.77654 287.16324 
L 86.862341 286.868411 
L 87.948142 285.946339 
L 89.033943 288.445003 
L 90.119745 284.725434 
L 91.205546 282.836046 
L 92.291347 283.269014 
L 93.377148 282.48734 
L 94.462949 284.629204 
L 95.54875 282.756356 
L 96.634552 282.866592 
L 97.720353 283.494647 
L 98.806154 280.827645 
L 99.891955 277.652391 
L 100.977756 278.291255 
L 102.063557 279.182719 
L 103.149358 277.366062 
L 104.23516 277.258924 
L 105.320961 275.151265 
L 106.406762 274.238653 
L 107.492563 275.425669 
L 108.578364 273.372893 
L 109.664165 274.394941 
L 110.749967 272.507934 
L 111.835768 274.105773 
L 112.921569 269.769073 
L 114.00737 270.842342 
L 115.093171 271.502863 
L 116.178972 266.989089 
L 117.264773 268.114321 
L 118.350575 267.987212 
L 119.436376 266.605001 
L 120.522177 266.034215 
L 121.607978 264.986456 
L 122.693779 265.114677 
L 123.77958 265.840442 
L 125.951183 262.785292 
L 127.036984 263.431329 
L 128.122785 262.599775 
L 129.208586 262.013276 
L 130.294387 262.283242 
L 131.380189 261.026654 
L 132.46599 260.638228 
L 133.551791 260.64998 
L 134.637592 258.815766 
L 135.723393 257.324938 
L 136.809194 259.297405 
L 137.894995 257.572941 
L 138.980797 256.42851 
L 140.066598 254.97914 
L 141.152399 256.195444 
L 142.2382 255.434649 
L 143.324001 254.815887 
L 144.409802 254.976255 
L 145.495604 252.778514 
L 146.581405 251.284867 
L 147.667206 250.325859 
L 148.753007 250.198809 
L 150.924609 247.917403 
L 152.01041 248.556118 
L 153.096212 247.904988 
L 154.182013 245.338154 
L 155.267814 244.469934 
L 156.353615 245.674858 
L 157.439416 244.203228 
L 158.525217 245.347111 
L 159.611019 245.028038 
L 160.69682 243.873484 
L 161.782621 242.116408 
L 162.868422 241.516039 
L 163.954223 239.900801 
L 165.040024 240.899042 
L 166.125825 239.408805 
L 167.211627 238.522764 
L 168.297428 237.903119 
L 169.383229 238.910321 
L 170.46903 236.910478 
L 171.554831 235.842946 
L 172.640632 233.455079 
L 173.726434 233.181959 
L 174.812235 232.500399 
L 175.898036 232.177222 
L 176.983837 233.032115 
L 178.069638 233.68599 
L 179.155439 230.437902 
L 180.24124 230.598937 
L 181.327042 230.384579 
L 182.412843 228.062893 
L 183.498644 227.05603 
L 184.584445 229.372671 
L 186.756047 224.475154 
L 188.92765 226.041403 
L 190.013451 223.773357 
L 191.099252 224.636838 
L 192.185053 222.861759 
L 193.270854 221.36167 
L 194.356656 221.605946 
L 195.442457 222.214688 
L 196.528258 217.819834 
L 197.614059 218.230656 
L 198.69986 219.649956 
L 199.785661 217.75059 
L 201.957264 217.512652 
L 203.043065 216.556806 
L 204.128866 214.955082 
L 205.214667 214.40094 
L 206.300468 214.42475 
L 207.386269 213.695759 
L 208.472071 212.112271 
L 209.557872 211.915891 
L 210.643673 210.191508 
L 211.729474 208.930867 
L 212.815275 210.066845 
L 213.901076 207.958517 
L 214.986877 208.347077 
L 216.072679 207.8331 
L 217.15848 207.56866 
L 218.244281 205.301038 
L 219.330082 205.039302 
L 220.415883 205.690675 
L 221.501684 203.624116 
L 222.587486 202.435879 
L 223.673287 201.73801 
L 224.759088 203.13837 
L 225.844889 199.992771 
L 226.93069 201.647671 
L 228.016491 198.619718 
L 229.102292 199.240081 
L 230.188094 198.439125 
L 232.359696 197.210176 
L 233.445497 196.093327 
L 234.531298 197.057834 
L 235.617099 195.929586 
L 236.702901 196.305825 
L 237.788702 195.704231 
L 238.874503 194.56766 
L 239.960304 192.112901 
L 241.046105 192.832772 
L 242.131906 191.819538 
L 243.217708 191.38244 
L 244.303509 191.894586 
L 247.560912 187.225917 
L 249.732514 186.485856 
L 250.818316 186.913808 
L 251.904117 183.449966 
L 252.989918 183.452504 
L 254.075719 183.857981 
L 255.16152 181.062231 
L 256.247321 182.88209 
L 257.333123 182.097859 
L 258.418924 180.680294 
L 259.504725 180.455864 
L 260.590526 178.968243 
L 261.676327 180.894604 
L 262.762128 178.691213 
L 263.847929 174.918412 
L 264.933731 175.421065 
L 266.019532 175.47912 
L 267.105333 173.556502 
L 268.191134 172.677374 
L 269.276935 173.04665 
L 270.362736 171.090103 
L 271.448538 172.920955 
L 272.534339 171.410713 
L 273.62014 169.102471 
L 274.705941 169.650471 
L 275.791742 168.84826 
L 276.877543 169.323689 
L 277.963344 170.048217 
L 279.049146 168.187451 
L 280.134947 167.408242 
L 281.220748 165.747678 
L 282.306549 165.607691 
L 283.39235 166.36099 
L 284.478151 165.504448 
L 285.563953 164.263969 
L 286.649754 162.691853 
L 287.735555 162.010313 
L 288.821356 160.077986 
L 289.907157 161.101463 
L 290.992958 161.157707 
L 292.07876 160.554474 
L 293.164561 158.959867 
L 294.250362 158.56147 
L 295.336163 157.914623 
L 296.421964 157.022365 
L 297.507765 154.924441 
L 298.593566 155.132925 
L 300.765169 153.24254 
L 301.85097 155.176509 
L 302.936771 153.46643 
L 304.022572 151.545542 
L 305.108373 153.059667 
L 306.194175 151.911635 
L 308.365777 147.653811 
L 309.451578 147.284761 
L 310.537379 147.544269 
L 311.62318 147.15606 
L 312.708981 145.94936 
L 313.794783 145.290449 
L 314.880584 143.306734 
L 315.966385 143.981568 
L 317.052186 143.441779 
L 318.137987 141.056601 
L 319.223788 140.969547 
L 320.30959 140.699589 
L 321.395391 140.189957 
L 322.481192 137.650477 
L 323.566993 138.696346 
L 324.652794 137.694154 
L 325.738595 134.841013 
L 326.824396 136.621099 
L 327.910198 135.387789 
L 328.995999 133.813118 
L 330.0818 135.870342 
L 331.167601 131.914025 
L 332.253402 131.964017 
L 333.339203 131.140697 
L 334.425005 130.97947 
L 335.510806 130.07791 
L 336.596607 128.576013 
L 337.682408 128.961123 
L 338.768209 127.782772 
L 339.85401 127.852329 
L 340.939811 126.196169 
L 342.025613 125.887671 
L 343.111414 125.98875 
L 344.197215 125.412702 
L 345.283016 123.116166 
L 346.368817 122.698743 
L 347.454618 122.786696 
L 348.54042 122.623365 
L 349.626221 121.888964 
L 350.712022 121.013402 
L 351.797823 121.213768 
L 352.883624 120.449744 
L 353.969425 120.741743 
L 355.055227 117.998515 
L 356.141028 117.013886 
L 357.226829 115.793556 
L 358.31263 115.88158 
L 359.398431 115.480431 
L 360.484232 117.894891 
L 361.570033 115.019373 
L 362.655835 115.40211 
L 363.741636 111.687666 
L 364.827437 112.612459 
L 365.913238 111.139991 
L 366.999039 110.735662 
L 368.08484 111.548623 
L 369.170642 108.642598 
L 370.256443 108.278967 
L 371.342244 108.249475 
L 372.428045 106.568083 
L 373.513846 106.490436 
L 374.599647 105.796003 
L 375.685448 105.440376 
L 376.77125 105.372309 
L 377.857051 104.24971 
L 378.942852 103.626714 
L 380.028653 102.452404 
L 381.114454 101.907373 
L 382.200255 99.962529 
L 383.286057 100.96374 
L 384.371858 100.163071 
L 385.457659 98.873512 
L 386.54346 99.148341 
L 387.629261 96.415028 
L 388.715062 98.358076 
L 389.800863 95.387974 
L 390.886665 95.043515 
L 391.972466 92.439606 
L 393.058267 93.863879 
L 394.144068 92.507882 
L 395.229869 90.274906 
L 396.31567 90.885953 
L 397.401472 89.404529 
L 398.487273 90.425572 
L 398.487273 90.425572 
" clip-path="url(#p3ef94d2069)" style="fill: none; stroke: #0000ff; stroke-width: 1.5; stroke-linecap: square"/>
   </g>
   <g id="line2d_28">
    <path d="M 73.832727 285.472057 
L 74.918528 287.445728 
L 77.090131 285.363409 
L 78.175932 288.789847 
L 79.261733 283.995284 
L 80.347534 283.526093 
L 81.433335 280.866453 
L 82.519137 280.855146 
L 83.604938 281.666442 
L 84.690739 279.224936 
L 85.77654 278.468398 
L 86.862341 278.315394 
L 87.948142 277.551927 
L 89.033943 280.876204 
L 90.119745 275.619389 
L 91.205546 274.51212 
L 92.291347 275.66059 
L 93.377148 274.069336 
L 94.462949 276.379376 
L 95.54875 274.901151 
L 96.634552 274.576525 
L 97.720353 276.126528 
L 98.806154 273.561464 
L 99.891955 268.35057 
L 100.977756 269.921234 
L 102.063557 270.909553 
L 103.149358 268.84429 
L 104.23516 269.511098 
L 105.320961 266.838033 
L 106.406762 265.017076 
L 107.492563 267.505849 
L 108.578364 263.698933 
L 109.664165 266.066209 
L 110.749967 264.742559 
L 111.835768 266.298021 
L 112.921569 261.235649 
L 114.00737 262.256521 
L 115.093171 263.981571 
L 116.178972 258.061248 
L 117.264773 259.480898 
L 118.350575 259.042506 
L 119.436376 256.381369 
L 120.522177 257.363239 
L 121.607978 255.630835 
L 122.693779 256.838347 
L 123.77958 257.627465 
L 124.865382 255.974288 
L 125.951183 254.568367 
L 127.036984 255.413973 
L 128.122785 253.802796 
L 129.208586 254.258102 
L 130.294387 255.323805 
L 131.380189 253.144616 
L 132.46599 252.680956 
L 133.551791 251.705247 
L 135.723393 249.261424 
L 136.809194 251.802832 
L 137.894995 249.80912 
L 138.980797 248.580821 
L 140.066598 246.800126 
L 141.152399 248.711493 
L 142.2382 247.124245 
L 143.324001 246.757688 
L 144.409802 247.064131 
L 145.495604 244.48743 
L 146.581405 243.985323 
L 147.667206 242.541963 
L 148.753007 241.85869 
L 149.838808 240.087448 
L 150.924609 237.264016 
L 152.01041 241.242056 
L 153.096212 239.024738 
L 154.182013 237.415085 
L 155.267814 235.134776 
L 156.353615 236.982956 
L 157.439416 235.999645 
L 158.525217 237.610989 
L 159.611019 237.198005 
L 160.69682 235.709808 
L 161.782621 233.476286 
L 162.868422 234.004472 
L 163.954223 231.714777 
L 165.040024 232.861234 
L 166.125825 230.839036 
L 167.211627 230.534084 
L 168.297428 229.14986 
L 169.383229 231.610894 
L 170.46903 228.854672 
L 171.554831 227.977797 
L 172.640632 224.931309 
L 173.726434 222.816719 
L 174.812235 223.616007 
L 175.898036 224.057958 
L 176.983837 225.183346 
L 178.069638 226.776774 
L 179.155439 221.900431 
L 180.24124 222.999239 
L 181.327042 222.380372 
L 182.412843 219.41268 
L 183.498644 219.065057 
L 184.584445 221.883193 
L 185.670246 218.473104 
L 186.756047 216.258093 
L 187.841849 217.241505 
L 188.92765 218.581823 
L 190.013451 215.074386 
L 191.099252 217.244747 
L 192.185053 215.102703 
L 193.270854 213.315257 
L 194.356656 212.548163 
L 195.442457 214.539223 
L 196.528258 208.051674 
L 197.614059 210.089004 
L 198.69986 211.854148 
L 199.785661 209.253786 
L 200.871462 209.835147 
L 201.957264 208.938474 
L 203.043065 208.537898 
L 204.128866 206.080944 
L 205.214667 206.016352 
L 206.300468 206.279883 
L 207.386269 205.386102 
L 208.472071 203.665091 
L 209.557872 203.467456 
L 210.643673 201.25268 
L 211.729474 200.09497 
L 212.815275 202.087584 
L 213.901076 200.185774 
L 214.986877 199.263847 
L 216.072679 200.196951 
L 217.15848 199.082809 
L 218.244281 196.98493 
L 219.330082 196.818459 
L 220.415883 197.774635 
L 221.501684 194.938911 
L 222.587486 193.828046 
L 223.673287 193.023506 
L 224.759088 194.930372 
L 225.844889 191.117159 
L 226.93069 194.356479 
L 228.016491 188.818542 
L 229.102292 191.666668 
L 230.188094 189.719688 
L 231.273895 189.68282 
L 233.445497 187.803471 
L 234.531298 188.332988 
L 235.617099 187.285005 
L 236.702901 189.602274 
L 237.788702 187.860792 
L 238.874503 186.477639 
L 239.960304 184.086113 
L 241.046105 184.690098 
L 242.131906 184.189064 
L 243.217708 183.995622 
L 244.303509 184.667303 
L 246.475111 180.452896 
L 248.646713 177.969764 
L 249.732514 178.334515 
L 250.818316 179.611992 
L 251.904117 174.190349 
L 252.989918 172.360399 
L 254.075719 175.854825 
L 255.16152 171.200164 
L 256.247321 174.981141 
L 257.333123 173.508693 
L 258.418924 171.767769 
L 259.504725 171.309837 
L 260.590526 169.67877 
L 261.676327 173.659049 
L 262.762128 170.216408 
L 263.847929 166.123536 
L 264.933731 166.58967 
L 266.019532 167.298162 
L 267.105333 164.966516 
L 268.191134 164.518378 
L 269.276935 164.615142 
L 270.362736 161.769934 
L 271.448538 164.956393 
L 272.534339 160.650397 
L 273.62014 160.195957 
L 274.705941 161.891442 
L 275.791742 159.588531 
L 276.877543 161.988258 
L 277.963344 161.725889 
L 279.049146 159.219414 
L 280.134947 159.196581 
L 281.220748 157.04172 
L 282.306549 156.210592 
L 283.39235 157.977679 
L 284.478151 157.550522 
L 285.563953 155.951876 
L 286.649754 153.556677 
L 287.735555 153.738355 
L 288.821356 149.801316 
L 289.907157 152.870456 
L 290.992958 153.352241 
L 292.07876 153.000986 
L 293.164561 150.462024 
L 294.250362 150.021667 
L 295.336163 149.782651 
L 296.421964 148.845029 
L 297.507765 146.714129 
L 298.593566 147.864476 
L 299.679368 146.656251 
L 300.765169 144.124742 
L 301.85097 148.056322 
L 304.022572 142.481468 
L 305.108373 145.313665 
L 306.194175 144.891714 
L 307.279976 141.464401 
L 308.365777 138.555217 
L 309.451578 138.008973 
L 310.537379 139.394187 
L 311.62318 138.652999 
L 312.708981 137.705272 
L 313.794783 138.057561 
L 314.880584 134.592231 
L 315.966385 134.838743 
L 317.052186 134.694073 
L 318.137987 133.079034 
L 319.223788 132.058664 
L 320.30959 132.357914 
L 321.395391 132.043742 
L 322.481192 128.182095 
L 323.566993 130.481811 
L 324.652794 129.253738 
L 325.738595 126.420679 
L 326.824396 128.774662 
L 327.910198 125.91759 
L 328.995999 123.550921 
L 330.0818 127.686672 
L 331.167601 123.982508 
L 332.253402 122.792981 
L 333.339203 123.454214 
L 336.596607 120.338616 
L 337.682408 120.48296 
L 338.768209 118.457966 
L 339.85401 118.91384 
L 340.939811 118.068668 
L 342.025613 117.735754 
L 343.111414 118.400565 
L 344.197215 117.262847 
L 345.283016 112.979259 
L 346.368817 114.617091 
L 347.454618 113.54505 
L 348.54042 114.254735 
L 349.626221 113.761429 
L 350.712022 112.442666 
L 351.797823 113.838884 
L 352.883624 112.629706 
L 353.969425 113.177824 
L 355.055227 109.539239 
L 356.141028 109.817889 
L 357.226829 107.751708 
L 358.31263 107.050032 
L 359.398431 107.086122 
L 360.484232 110.938403 
L 361.570033 106.845522 
L 362.655835 107.09588 
L 363.741636 102.925747 
L 364.827437 104.40385 
L 365.913238 102.899828 
L 366.999039 103.165464 
L 368.08484 103.302615 
L 369.170642 100.044346 
L 370.256443 99.888596 
L 371.342244 100.624356 
L 372.428045 98.426031 
L 373.513846 97.464405 
L 374.599647 97.43581 
L 375.685448 97.12523 
L 376.77125 97.147462 
L 377.857051 95.785806 
L 380.028653 95.035487 
L 381.114454 93.206043 
L 382.200255 90.810249 
L 383.286057 93.751315 
L 384.371858 92.451074 
L 385.457659 89.978774 
L 386.54346 91.232921 
L 387.629261 87.291461 
L 388.715062 89.745209 
L 389.800863 86.912443 
L 390.886665 85.807967 
L 391.972466 84.162487 
L 393.058267 86.168465 
L 395.229869 82.0826 
L 396.31567 82.261141 
L 397.401472 80.415814 
L 398.487273 82.637117 
L 398.487273 82.637117 
" clip-path="url(#p3ef94d2069)" style="fill: none; stroke-dasharray: 9.6,2.4,1.5,2.4; stroke-dashoffset: 0; stroke: #008000; stroke-width: 1.5"/>
   </g>
   <g id="line2d_29">
    <path d="M 73.832727 276.429907 
L 74.918528 270.833554 
L 76.00433 276.913552 
L 77.090131 272.976278 
L 78.175932 275.522012 
L 79.261733 264.269414 
L 80.347534 270.093048 
L 81.433335 263.943306 
L 82.519137 269.280271 
L 83.604938 267.612947 
L 84.690739 267.070119 
L 85.77654 253.821821 
L 86.862341 254.303481 
L 87.948142 258.709634 
L 89.033943 265.12571 
L 90.119745 260.373604 
L 91.205546 258.699404 
L 92.291347 264.412941 
L 93.377148 252.481762 
L 94.462949 250.565208 
L 95.54875 258.239716 
L 96.634552 252.598214 
L 97.720353 263.405676 
L 98.806154 262.655272 
L 99.891955 246.9337 
L 100.977756 252.065639 
L 102.063557 253.068557 
L 103.149358 247.804904 
L 104.23516 256.523887 
L 105.320961 251.325559 
L 106.406762 240.170229 
L 107.492563 251.805991 
L 108.578364 238.736612 
L 109.664165 244.437722 
L 110.749967 253.799967 
L 111.835768 251.412101 
L 112.921569 245.450846 
L 114.00737 238.231184 
L 115.093171 242.491494 
L 116.178972 231.517492 
L 117.264773 232.227237 
L 118.350575 228.279946 
L 119.436376 223.833133 
L 120.522177 243.107326 
L 121.607978 236.586398 
L 122.693779 242.015574 
L 123.77958 239.025556 
L 124.865382 240.813916 
L 125.951183 239.536253 
L 127.036984 242.73106 
L 128.122785 236.205147 
L 129.208586 242.845787 
L 130.294387 247.410234 
L 131.380189 241.785624 
L 132.46599 242.248384 
L 133.551791 229.657712 
L 134.637592 233.154812 
L 135.723393 230.139892 
L 136.809194 238.274939 
L 137.894995 237.530393 
L 138.980797 234.682909 
L 140.066598 227.037934 
L 141.152399 230.15135 
L 142.2382 232.376245 
L 143.324001 228.933154 
L 144.409802 227.821391 
L 145.495604 231.471635 
L 146.581405 236.371379 
L 147.667206 223.179972 
L 148.753007 225.173003 
L 149.838808 220.085267 
L 150.924609 176.672977 
L 152.01041 232.062754 
L 153.096212 223.665436 
L 154.182013 219.822052 
L 155.267814 196.704521 
L 156.353615 217.449259 
L 157.439416 222.671284 
L 158.525217 219.068127 
L 159.611019 219.460788 
L 160.69682 221.172459 
L 162.868422 213.013172 
L 163.954223 217.03368 
L 165.040024 223.493676 
L 166.125825 210.771526 
L 167.211627 220.011838 
L 168.297428 205.765678 
L 169.383229 214.75187 
L 170.46903 214.221753 
L 171.554831 204.87099 
L 172.640632 209.652086 
L 173.726434 204.12205 
L 174.812235 210.145961 
L 175.898036 209.765372 
L 176.983837 209.150532 
L 178.069638 214.07428 
L 180.24124 201.406139 
L 181.327042 211.044996 
L 182.412843 204.01734 
L 183.498644 194.779178 
L 184.584445 210.504743 
L 185.670246 200.633313 
L 186.756047 202.027074 
L 187.841849 194.320104 
L 188.92765 202.408088 
L 190.013451 204.566949 
L 191.099252 205.048208 
L 192.185053 203.42022 
L 193.270854 197.049931 
L 194.356656 191.569298 
L 195.442457 201.729459 
L 196.528258 192.561041 
L 197.614059 191.479212 
L 198.69986 199.974506 
L 199.785661 189.216374 
L 200.871462 190.572452 
L 201.957264 187.3668 
L 203.043065 195.37559 
L 204.128866 189.718471 
L 205.214667 188.542919 
L 206.300468 190.683351 
L 207.386269 190.843015 
L 208.472071 190.081766 
L 210.643673 185.890089 
L 211.729474 181.265916 
L 212.815275 188.771877 
L 213.901076 185.624156 
L 214.986877 179.926377 
L 216.072679 187.593632 
L 217.15848 183.512216 
L 218.244281 181.463027 
L 219.330082 183.987474 
L 220.415883 175.351984 
L 221.501684 180.321142 
L 222.587486 173.944733 
L 223.673287 176.955614 
L 224.759088 176.886461 
L 225.844889 161.907025 
L 226.93069 184.676523 
L 228.016491 166.545065 
L 229.102292 180.244877 
L 230.188094 168.819173 
L 231.273895 171.635022 
L 232.359696 162.770196 
L 233.445497 171.34844 
L 234.531298 171.582903 
L 235.617099 156.373516 
L 236.702901 178.886697 
L 237.788702 177.240896 
L 238.874503 171.380051 
L 239.960304 172.570417 
L 241.046105 169.110385 
L 242.131906 169.874847 
L 243.217708 173.278673 
L 244.303509 173.344755 
L 245.38931 169.865586 
L 246.475111 163.930367 
L 247.560912 161.27182 
L 248.646713 162.290449 
L 249.732514 164.321753 
L 250.818316 170.85714 
L 251.904117 157.148161 
L 252.989918 110.17895 
L 254.075719 152.389841 
L 255.16152 146.129176 
L 256.247321 157.369701 
L 257.333123 156.681007 
L 258.418924 150.180516 
L 259.504725 151.986926 
L 260.590526 154.404679 
L 261.676327 158.618068 
L 262.762128 150.664633 
L 263.847929 143.692381 
L 266.019532 153.317558 
L 267.105333 145.182015 
L 268.191134 146.262898 
L 269.276935 153.773537 
L 270.362736 144.153747 
L 271.448538 154.205938 
L 272.534339 106.743182 
L 273.62014 138.023898 
L 274.705941 147.397058 
L 275.791742 136.500101 
L 276.877543 151.246586 
L 277.963344 141.82022 
L 279.049146 137.977662 
L 280.134947 141.484733 
L 281.220748 143.791846 
L 282.306549 131.705704 
L 283.39235 139.860714 
L 284.478151 136.558338 
L 285.563953 139.600806 
L 286.649754 129.77651 
L 287.735555 137.800019 
L 288.821356 124.408312 
L 289.907157 138.273529 
L 290.992958 143.969678 
L 292.07876 139.907376 
L 293.164561 138.439666 
L 294.250362 127.459309 
L 295.336163 129.640851 
L 296.421964 134.041499 
L 297.507765 136.919507 
L 298.593566 137.907824 
L 299.679368 136.308495 
L 300.765169 128.330158 
L 301.85097 137.421273 
L 302.936771 126.945281 
L 304.022572 127.095825 
L 305.108373 127.700269 
L 306.194175 136.64058 
L 307.279976 127.109103 
L 308.365777 121.179956 
L 309.451578 114.619998 
L 310.537379 124.482167 
L 311.62318 118.128605 
L 312.708981 119.666129 
L 313.794783 123.48121 
L 314.880584 116.707533 
L 315.966385 116.368241 
L 317.052186 121.307039 
L 318.137987 119.543983 
L 319.223788 107.833398 
L 320.30959 112.045984 
L 321.395391 117.962019 
L 322.481192 115.476625 
L 323.566993 114.015743 
L 324.652794 105.249319 
L 325.738595 101.277669 
L 326.824396 116.346175 
L 327.910198 95.154672 
L 328.995999 97.546389 
L 330.0818 111.634256 
L 331.167601 104.620918 
L 332.253402 104.808838 
L 333.339203 100.381777 
L 334.425005 111.31878 
L 335.510806 98.359544 
L 336.596607 96.594621 
L 337.682408 103.998991 
L 338.768209 101.126251 
L 339.85401 102.699616 
L 340.939811 106.84071 
L 342.025613 95.607604 
L 343.111414 104.072066 
L 344.197215 101.199917 
L 345.283016 83.463177 
L 346.368817 101.384458 
L 347.454618 95.271502 
L 348.54042 93.2148 
L 349.626221 101.187584 
L 350.712022 94.475216 
L 351.797823 100.248668 
L 352.883624 86.459125 
L 353.969425 98.557765 
L 355.055227 89.185196 
L 356.141028 99.932625 
L 358.31263 82.800282 
L 359.398431 92.554598 
L 360.484232 100.240447 
L 361.570033 87.798121 
L 362.655835 82.523553 
L 363.741636 89.929363 
L 364.827437 81.827487 
L 365.913238 87.491741 
L 366.999039 86.512118 
L 368.08484 86.608323 
L 369.170642 83.002638 
L 370.256443 83.154859 
L 371.342244 87.144394 
L 372.428045 82.038821 
L 374.599647 76.98246 
L 375.685448 78.389853 
L 376.77125 73.77877 
L 377.857051 68.46432 
L 380.028653 86.912718 
L 381.114454 74.910826 
L 382.200255 76.061004 
L 383.286057 82.797258 
L 384.371858 82.302934 
L 385.457659 70.4032 
L 386.54346 70.525512 
L 387.629261 73.426295 
L 388.715062 72.233165 
L 389.800863 65.508441 
L 390.886665 66.196285 
L 391.972466 68.083755 
L 393.058267 71.936401 
L 394.144068 69.537596 
L 395.229869 64.480905 
L 396.31567 65.118732 
L 397.401472 53.568 
L 398.487273 67.838518 
L 398.487273 67.838518 
" clip-path="url(#p3ef94d2069)" style="fill: none; stroke: #ff0000; stroke-width: 1.5; stroke-linecap: square"/>
   </g>
   <g id="patch_3">
    <path d="M 57.6 307.584 
L 57.6 41.472 
" style="fill: none; stroke: #000000; stroke-width: 0.8; stroke-linejoin: miter; stroke-linecap: square"/>
   </g>
   <g id="patch_4">
    <path d="M 414.72 307.584 
L 414.72 41.472 
" style="fill: none; stroke: #000000; stroke-width: 0.8; stroke-linejoin: miter; stroke-linecap: square"/>
   </g>
   <g id="patch_5">
    <path d="M 57.6 307.584 
L 414.72 307.584 
" style="fill: none; stroke: #000000; stroke-width: 0.8; stroke-linejoin: miter; stroke-linecap: square"/>
   </g>
   <g id="patch_6">
    <path d="M 57.6 41.472 
L 414.72 41.472 
" style="fill: none; stroke: #000000; stroke-width: 0.8; stroke-linejoin: miter; stroke-linecap: square"/>
   </g>
   <g id="text_16">
    <!-- Population's average and best fitness -->
    <g transform="translate(123.529687 35.472) scale(0.12 -0.12)">
     <defs>
      <path id="DejaVuSans-50" d="M 1259 4147 
L 1259 2394 
L 2053 2394 
Q 2494 2394 2734 2622 
Q 2975 2850 2975 3272 
Q 2975 3691 2734 3919 
Q 2494 4147 2053 4147 
L 1259 4147 
z
M 628 4666 
L 2053 4666 
Q 2838 4666 3239 4311 
Q 3641 3956 3641 3272 
Q 3641 2581 3239 2228 
Q 2838 1875 2053 1875 
L 1259 1875 
L 1259 0 
L 628 0 
L 628 4666 
z
" transform="scale(0.015625)"/>
      <path id="DejaVuSans-70" d="M 1159 525 
L 1159 -1331 
L 581 -1331 
L 581 3500 
L 1159 3500 
L 1159 2969 
Q 1341 3281 1617 3432 
Q 1894 3584 2278 3584 
Q 2916 3584 3314 3078 
Q 3713 2572 3713 1747 
Q 3713 922 3314 415 
Q 2916 -91 2278 -91 
Q 1894 -91 1617 61 
Q 1341 213 1159 525 
z
M 3116 1747 
Q 3116 2381 2855 2742 
Q 2594 3103 2138 3103 
Q 1681 3103 1420 2742 
Q 1159 2381 1159 1747 
Q 1159 1113 1420 752 
Q 1681 391 2138 391 
Q 2594 391 2855 752 
Q 3116 1113 3116 1747 
z
" transform="scale(0.015625)"/>
      <path id="DejaVuSans-75" d="M 544 1381 
L 544 3500 
L 1119 3500 
L 1119 1403 
Q 1119 906 1312 657 
Q 1506 409 1894 409 
Q 2359 409 2629 706 
Q 2900 1003 2900 1516 
L 2900 3500 
L 3475 3500 
L 3475 0 
L 2900 0 
L 2900 538 
Q 2691 219 2414 64 
Q 2138 -91 1772 -91 
Q 1169 -91 856 284 
Q 544 659 544 1381 
z
M 1991 3584 
L 1991 3584 
z
" transform="scale(0.015625)"/>
      <path id="DejaVuSans-6c" d="M 603 4863 
L 1178 4863 
L 1178 0 
L 603 0 
L 603 4863 
z
" transform="scale(0.015625)"/>
      <path id="DejaVuSans-27" d="M 1147 4666 
L 1147 2931 
L 616 2931 
L 616 4666 
L 1147 4666 
z
" transform="scale(0.015625)"/>
      <path id="DejaVuSans-20" transform="scale(0.015625)"/>
      <path id="DejaVuSans-76" d="M 191 3500 
L 800 3500 
L 1894 563 
L 2988 3500 
L 3597 3500 
L 2284 0 
L 1503 0 
L 191 3500 
z
" transform="scale(0.015625)"/>
      <path id="DejaVuSans-67" d="M 2906 1791 
Q 2906 2416 2648 2759 
Q 2391 3103 1925 3103 
Q 1463 3103 1205 2759 
Q 947 2416 947 1791 
Q 947 1169 1205 825 
Q 1463 481 1925 481 
Q 2391 481 2648 825 
Q 2906 1169 2906 1791 
z
M 3481 434 
Q 3481 -459 3084 -895 
Q 2688 -1331 1869 -1331 
Q 1566 -1331 1297 -1286 
Q 1028 -1241 775 -1147 
L 775 -588 
Q 1028 -725 1275 -790 
Q 1522 -856 1778 -856 
Q 2344 -856 2625 -561 
Q 2906 -266 2906 331 
L 2906 616 
Q 2728 306 2450 153 
Q 2172 0 1784 0 
Q 1141 0 747 490 
Q 353 981 353 1791 
Q 353 2603 747 3093 
Q 1141 3584 1784 3584 
Q 2172 3584 2450 3431 
Q 2728 3278 2906 2969 
L 2906 3500 
L 3481 3500 
L 3481 434 
z
" transform="scale(0.015625)"/>
      <path id="DejaVuSans-64" d="M 2906 2969 
L 2906 4863 
L 3481 4863 
L 3481 0 
L 2906 0 
L 2906 525 
Q 2725 213 2448 61 
Q 2172 -91 1784 -91 
Q 1150 -91 751 415 
Q 353 922 353 1747 
Q 353 2572 751 3078 
Q 1150 3584 1784 3584 
Q 2172 3584 2448 3432 
Q 2725 3281 2906 2969 
z
M 947 1747 
Q 947 1113 1208 752 
Q 1469 391 1925 391 
Q 2381 391 2643 752 
Q 2906 1113 2906 1747 
Q 2906 2381 2643 2742 
Q 2381 3103 1925 3103 
Q 1469 3103 1208 2742 
Q 947 2381 947 1747 
z
" transform="scale(0.015625)"/>
      <path id="DejaVuSans-62" d="M 3116 1747 
Q 3116 2381 2855 2742 
Q 2594 3103 2138 3103 
Q 1681 3103 1420 2742 
Q 1159 2381 1159 1747 
Q 1159 1113 1420 752 
Q 1681 391 2138 391 
Q 2594 391 2855 752 
Q 3116 1113 3116 1747 
z
M 1159 2969 
Q 1341 3281 1617 3432 
Q 1894 3584 2278 3584 
Q 2916 3584 3314 3078 
Q 3713 2572 3713 1747 
Q 3713 922 3314 415 
Q 2916 -91 2278 -91 
Q 1894 -91 1617 61 
Q 1341 213 1159 525 
L 1159 0 
L 581 0 
L 581 4863 
L 1159 4863 
L 1159 2969 
z
" transform="scale(0.015625)"/>
      <path id="DejaVuSans-66" d="M 2375 4863 
L 2375 4384 
L 1825 4384 
Q 1516 4384 1395 4259 
Q 1275 4134 1275 3809 
L 1275 3500 
L 2222 3500 
L 2222 3053 
L 1275 3053 
L 1275 0 
L 697 0 
L 697 3053 
L 147 3053 
L 147 3500 
L 697 3500 
L 697 3744 
Q 697 4328 969 4595 
Q 1241 4863 1831 4863 
L 2375 4863 
z
" transform="scale(0.015625)"/>
     </defs>
     <use xlink:href="#DejaVuSans-50"/>
     <use xlink:href="#DejaVuSans-6f" x="56.677734"/>
     <use xlink:href="#DejaVuSans-70" x="117.859375"/>
     <use xlink:href="#DejaVuSans-75" x="181.335938"/>
     <use xlink:href="#DejaVuSans-6c" x="244.714844"/>
     <use xlink:href="#DejaVuSans-61" x="272.498047"/>
     <use xlink:href="#DejaVuSans-74" x="333.777344"/>
     <use xlink:href="#DejaVuSans-69" x="372.986328"/>
     <use xlink:href="#DejaVuSans-6f" x="400.769531"/>
     <use xlink:href="#DejaVuSans-6e" x="461.951172"/>
     <use xlink:href="#DejaVuSans-27" x="525.330078"/>
     <use xlink:href="#DejaVuSans-73" x="552.820312"/>
     <use xlink:href="#DejaVuSans-20" x="604.919922"/>
     <use xlink:href="#DejaVuSans-61" x="636.707031"/>
     <use xlink:href="#DejaVuSans-76" x="697.986328"/>
     <use xlink:href="#DejaVuSans-65" x="757.166016"/>
     <use xlink:href="#DejaVuSans-72" x="818.689453"/>
     <use xlink:href="#DejaVuSans-61" x="859.802734"/>
     <use xlink:href="#DejaVuSans-67" x="921.082031"/>
     <use xlink:href="#DejaVuSans-65" x="984.558594"/>
     <use xlink:href="#DejaVuSans-20" x="1046.082031"/>
     <use xlink:href="#DejaVuSans-61" x="1077.869141"/>
     <use xlink:href="#DejaVuSans-6e" x="1139.148438"/>
     <use xlink:href="#DejaVuSans-64" x="1202.527344"/>
     <use xlink:href="#DejaVuSans-20" x="1266.003906"/>
     <use xlink:href="#DejaVuSans-62" x="1297.791016"/>
     <use xlink:href="#DejaVuSans-65" x="1361.267578"/>
     <use xlink:href="#DejaVuSans-73" x="1422.791016"/>
     <use xlink:href="#DejaVuSans-74" x="1474.890625"/>
     <use xlink:href="#DejaVuSans-20" x="1514.099609"/>
     <use xlink:href="#DejaVuSans-66" x="1545.886719"/>
     <use xlink:href="#DejaVuSans-69" x="1581.091797"/>
     <use xlink:href="#DejaVuSans-74" x="1608.875"/>
     <use xlink:href="#DejaVuSans-6e" x="1648.083984"/>
     <use xlink:href="#DejaVuSans-65" x="1711.462891"/>
     <use xlink:href="#DejaVuSans-73" x="1772.986328"/>
     <use xlink:href="#DejaVuSans-73" x="1825.085938"/>
    </g>
   </g>
   <g id="legend_1">
    <g id="patch_7">
     <path d="M 64.6 93.506375 
L 137.540625 93.506375 
Q 139.540625 93.506375 139.540625 91.506375 
L 139.540625 48.472 
Q 139.540625 46.472 137.540625 46.472 
L 64.6 46.472 
Q 62.6 46.472 62.6 48.472 
L 62.6 91.506375 
Q 62.6 93.506375 64.6 93.506375 
z
" style="fill: #ffffff; opacity: 0.8; stroke: #cccccc; stroke-linejoin: miter"/>
    </g>
    <g id="line2d_30">
     <path d="M 66.6 54.570438 
L 76.6 54.570438 
L 86.6 54.570438 
" style="fill: none; stroke: #0000ff; stroke-width: 1.5; stroke-linecap: square"/>
    </g>
    <g id="text_17">
     <!-- average -->
     <g transform="translate(94.6 58.070438) scale(0.1 -0.1)">
      <use xlink:href="#DejaVuSans-61"/>
      <use xlink:href="#DejaVuSans-76" x="61.279297"/>
      <use xlink:href="#DejaVuSans-65" x="120.458984"/>
      <use xlink:href="#DejaVuSans-72" x="181.982422"/>
      <use xlink:href="#DejaVuSans-61" x="223.095703"/>
      <use xlink:href="#DejaVuSans-67" x="284.375"/>
      <use xlink:href="#DejaVuSans-65" x="347.851562"/>
     </g>
    </g>
    <g id="line2d_31">
     <path d="M 66.6 69.248563 
L 76.6 69.248563 
L 86.6 69.248563 
" style="fill: none; stroke-dasharray: 9.6,2.4,1.5,2.4; stroke-dashoffset: 0; stroke: #008000; stroke-width: 1.5"/>
    </g>
    <g id="text_18">
     <!-- +1 sd -->
     <g transform="translate(94.6 72.748563) scale(0.1 -0.1)">
      <defs>
       <path id="DejaVuSans-2b" d="M 2944 4013 
L 2944 2272 
L 4684 2272 
L 4684 1741 
L 2944 1741 
L 2944 0 
L 2419 0 
L 2419 1741 
L 678 1741 
L 678 2272 
L 2419 2272 
L 2419 4013 
L 2944 4013 
z
" transform="scale(0.015625)"/>
      </defs>
      <use xlink:href="#DejaVuSans-2b"/>
      <use xlink:href="#DejaVuSans-31" x="83.789062"/>
      <use xlink:href="#DejaVuSans-20" x="147.412109"/>
      <use xlink:href="#DejaVuSans-73" x="179.199219"/>
      <use xlink:href="#DejaVuSans-64" x="231.298828"/>
     </g>
    </g>
    <g id="line2d_32">
     <path d="M 66.6 83.926688 
L 76.6 83.926688 
L 86.6 83.926688 
" style="fill: none; stroke: #ff0000; stroke-width: 1.5; stroke-linecap: square"/>
    </g>
    <g id="text_19">
     <!-- best -->
     <g transform="translate(94.6 87.426688) scale(0.1 -0.1)">
      <use xlink:href="#DejaVuSans-62"/>
      <use xlink:href="#DejaVuSans-65" x="63.476562"/>
      <use xlink:href="#DejaVuSans-73" x="125"/>
      <use xlink:href="#DejaVuSans-74" x="177.099609"/>
     </g>
    </g>
   </g>
  </g>
 </g>
 <defs>
  <clipPath id="p3ef94d2069">
   <rect x="57.6" y="41.472" width="357.12" height="266.112"/>
  </clipPath>
 </defs>
</svg>
