<?xml version="1.0" encoding="UTF-8" standalone="no"?>
<!DOCTYPE svg PUBLIC "-//W3C//DTD SVG 1.1//EN"
 "http://www.w3.org/Graphics/SVG/1.1/DTD/svg11.dtd">
<!-- Generated by graphviz version 2.43.0 (0)
 -->
<!-- Title: %3 Pages: 1 -->
<svg width="1902pt" height="425pt"
 viewBox="0.00 0.00 1901.99 424.94" xmlns="http://www.w3.org/2000/svg" xmlns:xlink="http://www.w3.org/1999/xlink">
<g id="graph0" class="graph" transform="scale(1 1) rotate(0) translate(4 420.94)">
<title>%3</title>
<polygon fill="white" stroke="transparent" points="-4,4 -4,-420.94 1897.99,-420.94 1897.99,4 -4,4"/>
<!-- &#45;1 -->
<g id="node1" class="node">
<title>&#45;1</title>
<polygon fill="lightgray" stroke="black" points="26,-396.95 0,-396.95 0,-378.95 26,-378.95 26,-396.95"/>
<text text-anchor="middle" x="13" y="-385.75" font-family="Times,serif" font-size="9.00">&#45;1</text>
</g>
<!-- &#45;2 -->
<g id="node2" class="node">
<title>&#45;2</title>
<polygon fill="lightgray" stroke="black" points="70,-396.95 44,-396.95 44,-378.95 70,-378.95 70,-396.95"/>
<text text-anchor="middle" x="57" y="-385.75" font-family="Times,serif" font-size="9.00">&#45;2</text>
</g>
<!-- 4 -->
<g id="node7" class="node">
<title>4</title>
<ellipse fill="lightblue" stroke="black" cx="26" cy="-293.97" rx="16.03" ry="16.03"/>
<text text-anchor="middle" x="26" y="-291.77" font-family="Times,serif" font-size="9.00">4</text>
</g>
<!-- &#45;2&#45;&gt;4 -->
<g id="edge1" class="edge">
<title>&#45;2&#45;&gt;4</title>
<path fill="none" stroke="green" stroke-width="4.08" d="M54.25,-378.79C49.78,-365.53 40.78,-338.83 34.14,-319.11"/>
<polygon fill="green" stroke="green" stroke-width="4.08" points="37.49,-317.88 30.91,-309.54 30.72,-320.16 37.49,-317.88"/>
</g>
<!-- 2327 -->
<g id="node21" class="node">
<title>2327</title>
<ellipse fill="white" stroke="black" cx="89" cy="-293.97" rx="28.98" ry="28.98"/>
<text text-anchor="middle" x="89" y="-291.77" font-family="Times,serif" font-size="9.00">2327</text>
</g>
<!-- &#45;2&#45;&gt;2327 -->
<g id="edge2" class="edge">
<title>&#45;2&#45;&gt;2327</title>
<path fill="none" stroke="red" stroke-width="0.78" d="M59.84,-378.79C63.52,-368.2 70.19,-349.04 76.22,-331.71"/>
<polygon fill="red" stroke="red" stroke-width="0.78" points="79.69,-332.39 79.67,-321.79 73.08,-330.09 79.69,-332.39"/>
</g>
<!-- 0 -->
<g id="node3" class="node">
<title>0</title>
<ellipse fill="lightblue" stroke="black" cx="165" cy="-387.95" rx="16.03" ry="16.03"/>
<text text-anchor="middle" x="165" y="-385.75" font-family="Times,serif" font-size="9.00">0</text>
</g>
<!-- 6916 -->
<g id="node30" class="node">
<title>6916</title>
<ellipse fill="white" stroke="black" cx="165" cy="-293.97" rx="28.98" ry="28.98"/>
<text text-anchor="middle" x="165" y="-291.77" font-family="Times,serif" font-size="9.00">6916</text>
</g>
<!-- 0&#45;&gt;6916 -->
<g id="edge20" class="edge">
<title>0&#45;&gt;6916</title>
<path fill="none" stroke="red" stroke-width="0.13" d="M165,-371.35C165,-360.99 165,-346.92 165,-333.68"/>
<polygon fill="red" stroke="red" stroke-width="0.13" points="168.5,-333.32 165,-323.32 161.5,-333.32 168.5,-333.32"/>
</g>
<!-- 1 -->
<g id="node4" class="node">
<title>1</title>
<ellipse fill="lightblue" stroke="black" cx="216" cy="-387.95" rx="16.03" ry="16.03"/>
<text text-anchor="middle" x="216" y="-385.75" font-family="Times,serif" font-size="9.00">1</text>
</g>
<!-- 2 -->
<g id="node5" class="node">
<title>2</title>
<ellipse fill="lightblue" stroke="black" cx="250" cy="-199.99" rx="16.03" ry="16.03"/>
<text text-anchor="middle" x="250" y="-197.79" font-family="Times,serif" font-size="9.00">2</text>
</g>
<!-- 3 -->
<g id="node6" class="node">
<title>3</title>
<ellipse fill="lightblue" stroke="black" cx="342" cy="-387.95" rx="16.03" ry="16.03"/>
<text text-anchor="middle" x="342" y="-385.75" font-family="Times,serif" font-size="9.00">3</text>
</g>
<!-- 5 -->
<g id="node8" class="node">
<title>5</title>
<ellipse fill="lightblue" stroke="black" cx="373" cy="-199.99" rx="16.03" ry="16.03"/>
<text text-anchor="middle" x="373" y="-197.79" font-family="Times,serif" font-size="9.00">5</text>
</g>
<!-- 6 -->
<g id="node9" class="node">
<title>6</title>
<ellipse fill="lightblue" stroke="black" cx="551" cy="-387.95" rx="16.03" ry="16.03"/>
<text text-anchor="middle" x="551" y="-385.75" font-family="Times,serif" font-size="9.00">6</text>
</g>
<!-- 7640 -->
<g id="node33" class="node">
<title>7640</title>
<ellipse fill="white" stroke="black" cx="481" cy="-293.97" rx="28.98" ry="28.98"/>
<text text-anchor="middle" x="481" y="-291.77" font-family="Times,serif" font-size="9.00">7640</text>
</g>
<!-- 6&#45;&gt;7640 -->
<g id="edge14" class="edge">
<title>6&#45;&gt;7640</title>
<path fill="none" stroke="green" stroke-width="0.17" stroke-dasharray="1,5" d="M541.56,-374.55C532.15,-362.19 517.33,-342.71 504.7,-326.12"/>
<polygon fill="green" stroke="green" stroke-width="0.17" points="507.18,-323.6 498.34,-317.76 501.61,-327.84 507.18,-323.6"/>
</g>
<!-- 9716 -->
<g id="node46" class="node">
<title>9716</title>
<ellipse fill="white" stroke="black" cx="557" cy="-293.97" rx="28.98" ry="28.98"/>
<text text-anchor="middle" x="557" y="-291.77" font-family="Times,serif" font-size="9.00">9716</text>
</g>
<!-- 6&#45;&gt;9716 -->
<g id="edge16" class="edge">
<title>6&#45;&gt;9716</title>
<path fill="none" stroke="red" stroke-width="0.53" d="M552.02,-371.35C552.71,-360.81 553.64,-346.42 554.52,-332.97"/>
<polygon fill="red" stroke="red" stroke-width="0.53" points="558.02,-333.15 555.17,-322.95 551.03,-332.7 558.02,-333.15"/>
</g>
<!-- 7 -->
<g id="node10" class="node">
<title>7</title>
<ellipse fill="lightblue" stroke="black" cx="620" cy="-293.97" rx="16.03" ry="16.03"/>
<text text-anchor="middle" x="620" y="-291.77" font-family="Times,serif" font-size="9.00">7</text>
</g>
<!-- 7109 -->
<g id="node31" class="node">
<title>7109</title>
<ellipse fill="white" stroke="black" cx="692" cy="-199.99" rx="28.98" ry="28.98"/>
<text text-anchor="middle" x="692" y="-197.79" font-family="Times,serif" font-size="9.00">7109</text>
</g>
<!-- 7&#45;&gt;7109 -->
<g id="edge10" class="edge">
<title>7&#45;&gt;7109</title>
<path fill="none" stroke="red" stroke-width="0.11" d="M629.71,-280.56C639.54,-268.01 655.12,-248.1 668.24,-231.34"/>
<polygon fill="red" stroke="red" stroke-width="0.11" points="671.04,-233.44 674.45,-223.41 665.53,-229.13 671.04,-233.44"/>
</g>
<!-- 8 -->
<g id="node11" class="node">
<title>8</title>
<ellipse fill="lightblue" stroke="black" cx="755" cy="-387.95" rx="16.03" ry="16.03"/>
<text text-anchor="middle" x="755" y="-385.75" font-family="Times,serif" font-size="9.00">8</text>
</g>
<!-- 9 -->
<g id="node12" class="node">
<title>9</title>
<ellipse fill="lightblue" stroke="black" cx="806" cy="-387.95" rx="16.03" ry="16.03"/>
<text text-anchor="middle" x="806" y="-385.75" font-family="Times,serif" font-size="9.00">9</text>
</g>
<!-- 10 -->
<g id="node13" class="node">
<title>10</title>
<ellipse fill="lightblue" stroke="black" cx="861" cy="-387.95" rx="20.51" ry="20.51"/>
<text text-anchor="middle" x="861" y="-385.75" font-family="Times,serif" font-size="9.00">10</text>
</g>
<!-- 11 -->
<g id="node14" class="node">
<title>11</title>
<ellipse fill="lightblue" stroke="black" cx="920" cy="-387.95" rx="20.51" ry="20.51"/>
<text text-anchor="middle" x="920" y="-385.75" font-family="Times,serif" font-size="9.00">11</text>
</g>
<!-- 12 -->
<g id="node15" class="node">
<title>12</title>
<ellipse fill="lightblue" stroke="black" cx="979" cy="-387.95" rx="20.51" ry="20.51"/>
<text text-anchor="middle" x="979" y="-385.75" font-family="Times,serif" font-size="9.00">12</text>
</g>
<!-- 13 -->
<g id="node16" class="node">
<title>13</title>
<ellipse fill="lightblue" stroke="black" cx="1046" cy="-293.97" rx="20.51" ry="20.51"/>
<text text-anchor="middle" x="1046" y="-291.77" font-family="Times,serif" font-size="9.00">13</text>
</g>
<!-- 14 -->
<g id="node17" class="node">
<title>14</title>
<ellipse fill="lightblue" stroke="black" cx="89" cy="-20.51" rx="20.51" ry="20.51"/>
<text text-anchor="middle" x="89" y="-18.31" font-family="Times,serif" font-size="9.00">14</text>
</g>
<!-- 15 -->
<g id="node18" class="node">
<title>15</title>
<ellipse fill="lightblue" stroke="black" cx="1122" cy="-293.97" rx="20.51" ry="20.51"/>
<text text-anchor="middle" x="1122" y="-291.77" font-family="Times,serif" font-size="9.00">15</text>
</g>
<!-- 16 -->
<g id="node19" class="node">
<title>16</title>
<ellipse fill="lightblue" stroke="black" cx="1189" cy="-387.95" rx="20.51" ry="20.51"/>
<text text-anchor="middle" x="1189" y="-385.75" font-family="Times,serif" font-size="9.00">16</text>
</g>
<!-- 17 -->
<g id="node20" class="node">
<title>17</title>
<ellipse fill="lightblue" stroke="black" cx="1248" cy="-387.95" rx="20.51" ry="20.51"/>
<text text-anchor="middle" x="1248" y="-385.75" font-family="Times,serif" font-size="9.00">17</text>
</g>
<!-- 9514 -->
<g id="node43" class="node">
<title>9514</title>
<ellipse fill="white" stroke="black" cx="89" cy="-199.99" rx="28.98" ry="28.98"/>
<text text-anchor="middle" x="89" y="-197.79" font-family="Times,serif" font-size="9.00">9514</text>
</g>
<!-- 2327&#45;&gt;9514 -->
<g id="edge12" class="edge">
<title>2327&#45;&gt;9514</title>
<path fill="none" stroke="red" stroke-width="0.49" d="M89,-264.87C89,-256.83 89,-247.93 89,-239.39"/>
<polygon fill="red" stroke="red" stroke-width="0.49" points="92.5,-239.23 89,-229.23 85.5,-239.23 92.5,-239.23"/>
</g>
<!-- 2980 -->
<g id="node22" class="node">
<title>2980</title>
<ellipse fill="white" stroke="black" cx="436" cy="-199.99" rx="28.98" ry="28.98"/>
<text text-anchor="middle" x="436" y="-197.79" font-family="Times,serif" font-size="9.00">2980</text>
</g>
<!-- 3184 -->
<g id="node23" class="node">
<title>3184</title>
<ellipse fill="white" stroke="black" cx="89" cy="-106" rx="28.98" ry="28.98"/>
<text text-anchor="middle" x="89" y="-103.8" font-family="Times,serif" font-size="9.00">3184</text>
</g>
<!-- 3184&#45;&gt;14 -->
<g id="edge11" class="edge">
<title>3184&#45;&gt;14</title>
<path fill="none" stroke="green" stroke-width="0.41" d="M89,-76.74C89,-68.49 89,-59.45 89,-51.12"/>
<polygon fill="green" stroke="green" stroke-width="0.41" points="92.5,-51.06 89,-41.06 85.5,-51.06 92.5,-51.06"/>
</g>
<!-- 4876 -->
<g id="node24" class="node">
<title>4876</title>
<ellipse fill="white" stroke="black" cx="1315" cy="-387.95" rx="28.98" ry="28.98"/>
<text text-anchor="middle" x="1315" y="-385.75" font-family="Times,serif" font-size="9.00">4876</text>
</g>
<!-- 5298 -->
<g id="node25" class="node">
<title>5298</title>
<ellipse fill="white" stroke="black" cx="279" cy="-387.95" rx="28.98" ry="28.98"/>
<text text-anchor="middle" x="279" y="-385.75" font-family="Times,serif" font-size="9.00">5298</text>
</g>
<!-- 5298&#45;&gt;2 -->
<g id="edge18" class="edge">
<title>5298&#45;&gt;2</title>
<path fill="none" stroke="red" stroke-width="0.3" d="M261.7,-364.62C253.71,-352.91 245.1,-337.91 241,-322.96 232,-290.17 237.78,-250.68 243.37,-225.7"/>
<polygon fill="red" stroke="red" stroke-width="0.3" points="246.78,-226.48 245.71,-215.94 239.98,-224.85 246.78,-226.48"/>
</g>
<!-- 9901 -->
<g id="node47" class="node">
<title>9901</title>
<ellipse fill="white" stroke="black" cx="279" cy="-293.97" rx="28.98" ry="28.98"/>
<text text-anchor="middle" x="279" y="-291.77" font-family="Times,serif" font-size="9.00">9901</text>
</g>
<!-- 5298&#45;&gt;9901 -->
<g id="edge21" class="edge">
<title>5298&#45;&gt;9901</title>
<path fill="none" stroke="red" stroke-width="0.64" d="M272.75,-359.35C272.27,-350.99 272.13,-341.65 272.35,-332.73"/>
<polygon fill="red" stroke="red" stroke-width="0.64" points="275.85,-332.68 272.76,-322.55 268.86,-332.4 275.85,-332.68"/>
</g>
<!-- 5801 -->
<g id="node26" class="node">
<title>5801</title>
<ellipse fill="white" stroke="black" cx="1391" cy="-387.95" rx="28.98" ry="28.98"/>
<text text-anchor="middle" x="1391" y="-385.75" font-family="Times,serif" font-size="9.00">5801</text>
</g>
<!-- 6380 -->
<g id="node27" class="node">
<title>6380</title>
<ellipse fill="white" stroke="black" cx="1467" cy="-293.97" rx="28.98" ry="28.98"/>
<text text-anchor="middle" x="1467" y="-291.77" font-family="Times,serif" font-size="9.00">6380</text>
</g>
<!-- 6584 -->
<g id="node28" class="node">
<title>6584</title>
<ellipse fill="white" stroke="black" cx="1122" cy="-387.95" rx="28.98" ry="28.98"/>
<text text-anchor="middle" x="1122" y="-385.75" font-family="Times,serif" font-size="9.00">6584</text>
</g>
<!-- 6584&#45;&gt;15 -->
<g id="edge3" class="edge">
<title>6584&#45;&gt;15</title>
<path fill="none" stroke="green" stroke-width="0.52" stroke-dasharray="1,5" d="M1122,-358.85C1122,-348.16 1122,-335.93 1122,-325.05"/>
<polygon fill="green" stroke="green" stroke-width="0.52" points="1125.5,-324.73 1122,-314.73 1118.5,-324.73 1125.5,-324.73"/>
</g>
<!-- 6723 -->
<g id="node29" class="node">
<title>6723</title>
<ellipse fill="white" stroke="black" cx="1543" cy="-387.95" rx="28.98" ry="28.98"/>
<text text-anchor="middle" x="1543" y="-385.75" font-family="Times,serif" font-size="9.00">6723</text>
</g>
<!-- 7341 -->
<g id="node32" class="node">
<title>7341</title>
<ellipse fill="white" stroke="black" cx="405" cy="-293.97" rx="28.98" ry="28.98"/>
<text text-anchor="middle" x="405" y="-291.77" font-family="Times,serif" font-size="9.00">7341</text>
</g>
<!-- 7341&#45;&gt;5 -->
<g id="edge8" class="edge">
<title>7341&#45;&gt;5</title>
<path fill="none" stroke="red" stroke-width="0.44" d="M395.74,-266.36C391.2,-253.3 385.77,-237.69 381.35,-224.99"/>
<polygon fill="red" stroke="red" stroke-width="0.44" points="384.66,-223.84 378.06,-215.54 378.04,-226.14 384.66,-223.84"/>
</g>
<!-- 7341&#45;&gt;2980 -->
<g id="edge15" class="edge">
<title>7341&#45;&gt;2980</title>
<path fill="none" stroke="green" stroke-width="0.51" d="M413.97,-266.36C416.99,-257.39 420.42,-247.2 423.66,-237.59"/>
<polygon fill="green" stroke="green" stroke-width="0.51" points="427.07,-238.44 426.95,-227.85 420.44,-236.21 427.07,-238.44"/>
</g>
<!-- 8005 -->
<g id="node34" class="node">
<title>8005</title>
<ellipse fill="white" stroke="black" cx="692" cy="-387.95" rx="28.98" ry="28.98"/>
<text text-anchor="middle" x="692" y="-385.75" font-family="Times,serif" font-size="9.00">8005</text>
</g>
<!-- 8005&#45;&gt;7109 -->
<g id="edge4" class="edge">
<title>8005&#45;&gt;7109</title>
<path fill="none" stroke="red" stroke-width="0.23" stroke-dasharray="1,5" d="M687.25,-359.32C685.55,-348.08 683.84,-334.94 683,-322.96 681.2,-297.25 681.2,-290.68 683,-264.98 683.6,-256.46 684.63,-247.36 685.79,-238.77"/>
<polygon fill="red" stroke="red" stroke-width="0.23" points="689.3,-239.01 687.25,-228.62 682.37,-238.02 689.3,-239.01"/>
</g>
<!-- 9917 -->
<g id="node48" class="node">
<title>9917</title>
<ellipse fill="white" stroke="black" cx="721" cy="-293.97" rx="28.98" ry="28.98"/>
<text text-anchor="middle" x="721" y="-291.77" font-family="Times,serif" font-size="9.00">9917</text>
</g>
<!-- 8005&#45;&gt;9917 -->
<g id="edge23" class="edge">
<title>8005&#45;&gt;9917</title>
<path fill="none" stroke="green" stroke-width="0.28" d="M700.54,-359.85C703.35,-350.96 706.51,-340.93 709.49,-331.47"/>
<polygon fill="green" stroke="green" stroke-width="0.28" points="712.85,-332.47 712.52,-321.88 706.17,-330.36 712.85,-332.47"/>
</g>
<!-- 8162 -->
<g id="node35" class="node">
<title>8162</title>
<ellipse fill="white" stroke="black" cx="1619" cy="-387.95" rx="28.98" ry="28.98"/>
<text text-anchor="middle" x="1619" y="-385.75" font-family="Times,serif" font-size="9.00">8162</text>
</g>
<!-- 8386 -->
<g id="node36" class="node">
<title>8386</title>
<ellipse fill="white" stroke="black" cx="1046" cy="-387.95" rx="28.98" ry="28.98"/>
<text text-anchor="middle" x="1046" y="-385.75" font-family="Times,serif" font-size="9.00">8386</text>
</g>
<!-- 8386&#45;&gt;13 -->
<g id="edge5" class="edge">
<title>8386&#45;&gt;13</title>
<path fill="none" stroke="red" stroke-width="0.22" stroke-dasharray="1,5" d="M1046,-358.85C1046,-348.16 1046,-335.93 1046,-325.05"/>
<polygon fill="red" stroke="red" stroke-width="0.22" points="1049.5,-324.73 1046,-314.73 1042.5,-324.73 1049.5,-324.73"/>
</g>
<!-- 8544 -->
<g id="node37" class="node">
<title>8544</title>
<ellipse fill="white" stroke="black" cx="1695" cy="-387.95" rx="28.98" ry="28.98"/>
<text text-anchor="middle" x="1695" y="-385.75" font-family="Times,serif" font-size="9.00">8544</text>
</g>
<!-- 8707 -->
<g id="node38" class="node">
<title>8707</title>
<ellipse fill="white" stroke="black" cx="1771" cy="-387.95" rx="28.98" ry="28.98"/>
<text text-anchor="middle" x="1771" y="-385.75" font-family="Times,serif" font-size="9.00">8707</text>
</g>
<!-- 8814 -->
<g id="node39" class="node">
<title>8814</title>
<ellipse fill="white" stroke="black" cx="1467" cy="-387.95" rx="28.98" ry="28.98"/>
<text text-anchor="middle" x="1467" y="-385.75" font-family="Times,serif" font-size="9.00">8814</text>
</g>
<!-- 8814&#45;&gt;6380 -->
<g id="edge6" class="edge">
<title>8814&#45;&gt;6380</title>
<path fill="none" stroke="green" stroke-width="0.42" d="M1467,-358.85C1467,-350.82 1467,-341.91 1467,-333.37"/>
<polygon fill="green" stroke="green" stroke-width="0.42" points="1470.5,-333.21 1467,-323.21 1463.5,-333.21 1470.5,-333.21"/>
</g>
<!-- 8963 -->
<g id="node40" class="node">
<title>8963</title>
<ellipse fill="white" stroke="black" cx="481" cy="-387.95" rx="28.98" ry="28.98"/>
<text text-anchor="middle" x="481" y="-385.75" font-family="Times,serif" font-size="9.00">8963</text>
</g>
<!-- 8963&#45;&gt;7640 -->
<g id="edge7" class="edge">
<title>8963&#45;&gt;7640</title>
<path fill="none" stroke="green" stroke-width="0.27" d="M481,-358.85C481,-350.82 481,-341.91 481,-333.37"/>
<polygon fill="green" stroke="green" stroke-width="0.27" points="484.5,-333.21 481,-323.21 477.5,-333.21 484.5,-333.21"/>
</g>
<!-- 8993 -->
<g id="node41" class="node">
<title>8993</title>
<ellipse fill="white" stroke="black" cx="1847" cy="-387.95" rx="28.98" ry="28.98"/>
<text text-anchor="middle" x="1847" y="-385.75" font-family="Times,serif" font-size="9.00">8993</text>
</g>
<!-- 8993&#45;&gt;8993 -->
<g id="edge25" class="edge">
<title>8993&#45;&gt;8993</title>
<path fill="none" stroke="red" stroke-width="0.33" d="M1871.18,-404.69C1883.24,-407.01 1893.99,-401.43 1893.99,-387.95 1893.99,-378.48 1888.67,-372.9 1881.33,-371.24"/>
<polygon fill="red" stroke="red" stroke-width="0.33" points="1881.19,-367.74 1871.18,-371.21 1881.17,-374.74 1881.19,-367.74"/>
</g>
<!-- 9079 -->
<g id="node42" class="node">
<title>9079</title>
<ellipse fill="white" stroke="black" cx="797" cy="-293.97" rx="28.98" ry="28.98"/>
<text text-anchor="middle" x="797" y="-291.77" font-family="Times,serif" font-size="9.00">9079</text>
</g>
<!-- 9079&#45;&gt;7109 -->
<g id="edge9" class="edge">
<title>9079&#45;&gt;7109</title>
<path fill="none" stroke="green" stroke-width="0.8" d="M775.5,-274.13C759.79,-260.37 738.3,-241.55 721.06,-226.44"/>
<polygon fill="green" stroke="green" stroke-width="0.8" points="723.3,-223.75 713.47,-219.8 718.69,-229.02 723.3,-223.75"/>
</g>
<!-- 9514&#45;&gt;3184 -->
<g id="edge13" class="edge">
<title>9514&#45;&gt;3184</title>
<path fill="none" stroke="green" stroke-width="0.22" d="M89,-170.89C89,-162.85 89,-153.95 89,-145.41"/>
<polygon fill="green" stroke="green" stroke-width="0.22" points="92.5,-145.25 89,-135.25 85.5,-145.25 92.5,-145.25"/>
</g>
<!-- 9595 -->
<g id="node44" class="node">
<title>9595</title>
<ellipse fill="white" stroke="black" cx="557" cy="-199.99" rx="28.98" ry="28.98"/>
<text text-anchor="middle" x="557" y="-197.79" font-family="Times,serif" font-size="9.00">9595</text>
</g>
<!-- 9696 -->
<g id="node45" class="node">
<title>9696</title>
<ellipse fill="white" stroke="black" cx="405" cy="-387.95" rx="28.98" ry="28.98"/>
<text text-anchor="middle" x="405" y="-385.75" font-family="Times,serif" font-size="9.00">9696</text>
</g>
<!-- 9696&#45;&gt;7341 -->
<g id="edge19" class="edge">
<title>9696&#45;&gt;7341</title>
<path fill="none" stroke="green" stroke-width="0.19" d="M405,-358.85C405,-350.82 405,-341.91 405,-333.37"/>
<polygon fill="green" stroke="green" stroke-width="0.19" points="408.5,-333.21 405,-323.21 401.5,-333.21 408.5,-333.21"/>
</g>
<!-- 9716&#45;&gt;9595 -->
<g id="edge17" class="edge">
<title>9716&#45;&gt;9595</title>
<path fill="none" stroke="red" stroke-width="0.39" d="M557,-264.87C557,-256.83 557,-247.93 557,-239.39"/>
<polygon fill="red" stroke="red" stroke-width="0.39" points="560.5,-239.23 557,-229.23 553.5,-239.23 560.5,-239.23"/>
</g>
<!-- 9901&#45;&gt;2 -->
<g id="edge22" class="edge">
<title>9901&#45;&gt;2</title>
<path fill="none" stroke="red" stroke-width="0.34" d="M270.46,-265.87C266.41,-253.03 261.61,-237.82 257.68,-225.36"/>
<polygon fill="red" stroke="red" stroke-width="0.34" points="260.97,-224.13 254.62,-215.64 254.29,-226.23 260.97,-224.13"/>
</g>
<!-- 9901&#45;&gt;5298 -->
<g id="edge26" class="edge">
<title>9901&#45;&gt;5298</title>
<path fill="none" stroke="green" stroke-width="0.45" d="M285.24,-322.55C285.73,-330.91 285.87,-340.25 285.65,-349.17"/>
<polygon fill="green" stroke="green" stroke-width="0.45" points="282.15,-349.22 285.25,-359.35 289.14,-349.5 282.15,-349.22"/>
</g>
<!-- 9917&#45;&gt;7109 -->
<g id="edge24" class="edge">
<title>9917&#45;&gt;7109</title>
<path fill="none" stroke="red" stroke-width="0.34" d="M712.46,-265.87C709.65,-256.98 706.49,-246.95 703.51,-237.48"/>
<polygon fill="red" stroke="red" stroke-width="0.34" points="706.83,-236.38 700.48,-227.89 700.15,-238.48 706.83,-236.38"/>
</g>
</g>
</svg>
