<?xml version="1.0" encoding="UTF-8" standalone="no"?>
<!DOCTYPE svg PUBLIC "-//W3C//DTD SVG 1.1//EN"
 "http://www.w3.org/Graphics/SVG/1.1/DTD/svg11.dtd">
<!-- Generated by graphviz version 2.43.0 (0)
 -->
<!-- Title: %3 Pages: 1 -->
<svg width="854pt" height="630pt"
 viewBox="0.00 0.00 854.01 629.88" xmlns="http://www.w3.org/2000/svg" xmlns:xlink="http://www.w3.org/1999/xlink">
<g id="graph0" class="graph" transform="scale(1 1) rotate(0) translate(4 625.88)">
<title>%3</title>
<polygon fill="white" stroke="transparent" points="-4,4 -4,-625.88 850.01,-625.88 850.01,4 -4,4"/>
<!-- &#45;1 -->
<g id="node1" class="node">
<title>&#45;1</title>
<polygon fill="lightgray" stroke="black" points="124.26,-601.89 98.26,-601.89 98.26,-583.89 124.26,-583.89 124.26,-601.89"/>
<text text-anchor="middle" x="111.26" y="-590.69" font-family="Times,serif" font-size="9.00">&#45;1</text>
</g>
<!-- 3909 -->
<g id="node36" class="node">
<title>3909</title>
<ellipse fill="white" stroke="black" cx="111.26" cy="-498.91" rx="28.98" ry="28.98"/>
<text text-anchor="middle" x="111.26" y="-496.71" font-family="Times,serif" font-size="9.00">3909</text>
</g>
<!-- &#45;1&#45;&gt;3909 -->
<g id="edge30" class="edge">
<title>&#45;1&#45;&gt;3909</title>
<path fill="none" stroke="green" stroke-width="0.35" d="M111.26,-583.73C111.26,-573.46 111.26,-555.12 111.26,-538.21"/>
<polygon fill="green" stroke="green" stroke-width="0.35" points="114.76,-537.95 111.26,-527.95 107.76,-537.95 114.76,-537.95"/>
</g>
<!-- &#45;2 -->
<g id="node2" class="node">
<title>&#45;2</title>
<polygon fill="lightgray" stroke="black" points="92.26,-319.94 66.26,-319.94 66.26,-301.94 92.26,-301.94 92.26,-319.94"/>
<text text-anchor="middle" x="79.26" y="-308.74" font-family="Times,serif" font-size="9.00">&#45;2</text>
</g>
<!-- 4 -->
<g id="node7" class="node">
<title>4</title>
<ellipse fill="lightblue" stroke="black" cx="16.26" cy="-216.96" rx="16.03" ry="16.03"/>
<text text-anchor="middle" x="16.26" y="-214.76" font-family="Times,serif" font-size="9.00">4</text>
</g>
<!-- &#45;2&#45;&gt;4 -->
<g id="edge1" class="edge">
<title>&#45;2&#45;&gt;4</title>
<path fill="none" stroke="green" stroke-width="2.66" d="M73.67,-301.78C64.17,-287.9 44.56,-259.27 30.92,-239.36"/>
<polygon fill="green" stroke="green" stroke-width="2.66" points="33.67,-237.18 25.13,-230.91 27.9,-241.14 33.67,-237.18"/>
</g>
<!-- 9 -->
<g id="node12" class="node">
<title>9</title>
<ellipse fill="lightblue" stroke="black" cx="180.26" cy="-216.96" rx="16.03" ry="16.03"/>
<text text-anchor="middle" x="180.26" y="-214.76" font-family="Times,serif" font-size="9.00">9</text>
</g>
<!-- &#45;2&#45;&gt;9 -->
<g id="edge6" class="edge">
<title>&#45;2&#45;&gt;9</title>
<path fill="none" stroke="green" stroke-width="0.19" d="M88.23,-301.78C104.49,-286.96 139.21,-255.34 161.05,-235.45"/>
<polygon fill="green" stroke="green" stroke-width="0.19" points="163.69,-237.79 168.72,-228.47 158.97,-232.61 163.69,-237.79"/>
</g>
<!-- 2327 -->
<g id="node26" class="node">
<title>2327</title>
<ellipse fill="white" stroke="black" cx="79.26" cy="-216.96" rx="28.98" ry="28.98"/>
<text text-anchor="middle" x="79.26" y="-214.76" font-family="Times,serif" font-size="9.00">2327</text>
</g>
<!-- &#45;2&#45;&gt;2327 -->
<g id="edge2" class="edge">
<title>&#45;2&#45;&gt;2327</title>
<path fill="none" stroke="red" stroke-width="0.27" d="M79.26,-301.78C79.26,-291.51 79.26,-273.17 79.26,-256.26"/>
<polygon fill="red" stroke="red" stroke-width="0.27" points="82.76,-256 79.26,-246 75.76,-256 82.76,-256"/>
</g>
<!-- 0 -->
<g id="node3" class="node">
<title>0</title>
<ellipse fill="lightblue" stroke="black" cx="577.26" cy="-216.96" rx="16.03" ry="16.03"/>
<text text-anchor="middle" x="577.26" y="-214.76" font-family="Times,serif" font-size="9.00">0</text>
</g>
<!-- 3603 -->
<g id="node34" class="node">
<title>3603</title>
<ellipse fill="white" stroke="black" cx="584.26" cy="-122.97" rx="28.98" ry="28.98"/>
<text text-anchor="middle" x="584.26" y="-120.77" font-family="Times,serif" font-size="9.00">3603</text>
</g>
<!-- 0&#45;&gt;3603 -->
<g id="edge28" class="edge">
<title>0&#45;&gt;3603</title>
<path fill="none" stroke="red" stroke-width="0.45" d="M578.45,-200.35C579.25,-189.82 580.35,-175.42 581.37,-161.97"/>
<polygon fill="red" stroke="red" stroke-width="0.45" points="584.87,-162.19 582.13,-151.95 577.89,-161.66 584.87,-162.19"/>
</g>
<!-- 1 -->
<g id="node4" class="node">
<title>1</title>
<ellipse fill="lightblue" stroke="black" cx="357.26" cy="-592.89" rx="16.03" ry="16.03"/>
<text text-anchor="middle" x="357.26" y="-590.69" font-family="Times,serif" font-size="9.00">1</text>
</g>
<!-- 2 -->
<g id="node5" class="node">
<title>2</title>
<ellipse fill="lightblue" stroke="black" cx="518.26" cy="-216.96" rx="16.03" ry="16.03"/>
<text text-anchor="middle" x="518.26" y="-214.76" font-family="Times,serif" font-size="9.00">2</text>
</g>
<!-- 3 -->
<g id="node6" class="node">
<title>3</title>
<ellipse fill="lightblue" stroke="black" cx="79.26" cy="-28.99" rx="16.03" ry="16.03"/>
<text text-anchor="middle" x="79.26" y="-26.79" font-family="Times,serif" font-size="9.00">3</text>
</g>
<!-- 5 -->
<g id="node8" class="node">
<title>5</title>
<ellipse fill="lightblue" stroke="black" cx="331.26" cy="-122.97" rx="16.03" ry="16.03"/>
<text text-anchor="middle" x="331.26" y="-120.77" font-family="Times,serif" font-size="9.00">5</text>
</g>
<!-- 1503 -->
<g id="node23" class="node">
<title>1503</title>
<ellipse fill="white" stroke="black" cx="254.26" cy="-28.99" rx="28.98" ry="28.98"/>
<text text-anchor="middle" x="254.26" y="-26.79" font-family="Times,serif" font-size="9.00">1503</text>
</g>
<!-- 5&#45;&gt;1503 -->
<g id="edge33" class="edge">
<title>5&#45;&gt;1503</title>
<path fill="none" stroke="green" stroke-width="0.19" d="M321.2,-109.95C310.62,-97.31 293.56,-76.94 279.32,-59.92"/>
<polygon fill="green" stroke="green" stroke-width="0.19" points="281.7,-57.31 272.59,-51.89 276.33,-61.8 281.7,-57.31"/>
</g>
<!-- 3350 -->
<g id="node31" class="node">
<title>3350</title>
<ellipse fill="white" stroke="black" cx="386.26" cy="-28.99" rx="28.98" ry="28.98"/>
<text text-anchor="middle" x="386.26" y="-26.79" font-family="Times,serif" font-size="9.00">3350</text>
</g>
<!-- 5&#45;&gt;3350 -->
<g id="edge11" class="edge">
<title>5&#45;&gt;3350</title>
<path fill="none" stroke="green" stroke-width="0.25" stroke-dasharray="1,5" d="M339.38,-108.4C346.47,-96.54 357.07,-78.82 366.39,-63.22"/>
<polygon fill="green" stroke="green" stroke-width="0.25" points="369.57,-64.73 371.7,-54.35 363.56,-61.13 369.57,-64.73"/>
</g>
<!-- 6 -->
<g id="node9" class="node">
<title>6</title>
<ellipse fill="lightblue" stroke="black" cx="408.26" cy="-592.89" rx="16.03" ry="16.03"/>
<text text-anchor="middle" x="408.26" y="-590.69" font-family="Times,serif" font-size="9.00">6</text>
</g>
<!-- 7 -->
<g id="node10" class="node">
<title>7</title>
<ellipse fill="lightblue" stroke="black" cx="628.26" cy="-216.96" rx="16.03" ry="16.03"/>
<text text-anchor="middle" x="628.26" y="-214.76" font-family="Times,serif" font-size="9.00">7</text>
</g>
<!-- 8 -->
<g id="node11" class="node">
<title>8</title>
<ellipse fill="lightblue" stroke="black" cx="231.26" cy="-216.96" rx="16.03" ry="16.03"/>
<text text-anchor="middle" x="231.26" y="-214.76" font-family="Times,serif" font-size="9.00">8</text>
</g>
<!-- 10 -->
<g id="node13" class="node">
<title>10</title>
<ellipse fill="lightblue" stroke="black" cx="463.26" cy="-592.89" rx="20.51" ry="20.51"/>
<text text-anchor="middle" x="463.26" y="-590.69" font-family="Times,serif" font-size="9.00">10</text>
</g>
<!-- 11 -->
<g id="node14" class="node">
<title>11</title>
<ellipse fill="lightblue" stroke="black" cx="522.26" cy="-592.89" rx="20.51" ry="20.51"/>
<text text-anchor="middle" x="522.26" y="-590.69" font-family="Times,serif" font-size="9.00">11</text>
</g>
<!-- 12 -->
<g id="node15" class="node">
<title>12</title>
<ellipse fill="lightblue" stroke="black" cx="581.26" cy="-592.89" rx="20.51" ry="20.51"/>
<text text-anchor="middle" x="581.26" y="-590.69" font-family="Times,serif" font-size="9.00">12</text>
</g>
<!-- 13 -->
<g id="node16" class="node">
<title>13</title>
<ellipse fill="lightblue" stroke="black" cx="640.26" cy="-592.89" rx="20.51" ry="20.51"/>
<text text-anchor="middle" x="640.26" y="-590.69" font-family="Times,serif" font-size="9.00">13</text>
</g>
<!-- 14 -->
<g id="node17" class="node">
<title>14</title>
<ellipse fill="lightblue" stroke="black" cx="276.26" cy="-122.97" rx="20.51" ry="20.51"/>
<text text-anchor="middle" x="276.26" y="-120.77" font-family="Times,serif" font-size="9.00">14</text>
</g>
<!-- 15 -->
<g id="node18" class="node">
<title>15</title>
<ellipse fill="lightblue" stroke="black" cx="699.26" cy="-592.89" rx="20.51" ry="20.51"/>
<text text-anchor="middle" x="699.26" y="-590.69" font-family="Times,serif" font-size="9.00">15</text>
</g>
<!-- 16 -->
<g id="node19" class="node">
<title>16</title>
<ellipse fill="lightblue" stroke="black" cx="508.26" cy="-28.99" rx="20.51" ry="20.51"/>
<text text-anchor="middle" x="508.26" y="-26.79" font-family="Times,serif" font-size="9.00">16</text>
</g>
<!-- 17 -->
<g id="node20" class="node">
<title>17</title>
<ellipse fill="lightblue" stroke="black" cx="758.26" cy="-592.89" rx="20.51" ry="20.51"/>
<text text-anchor="middle" x="758.26" y="-590.69" font-family="Times,serif" font-size="9.00">17</text>
</g>
<!-- 687 -->
<g id="node21" class="node">
<title>687</title>
<ellipse fill="white" stroke="black" cx="518.26" cy="-310.94" rx="25" ry="25"/>
<text text-anchor="middle" x="518.26" y="-308.74" font-family="Times,serif" font-size="9.00">687</text>
</g>
<!-- 687&#45;&gt;2 -->
<g id="edge4" class="edge">
<title>687&#45;&gt;2</title>
<path fill="none" stroke="red" stroke-width="0.15" d="M518.26,-285.77C518.26,-272.8 518.26,-256.81 518.26,-243.61"/>
<polygon fill="red" stroke="red" stroke-width="0.15" points="521.76,-243.31 518.26,-233.31 514.76,-243.31 521.76,-243.31"/>
</g>
<!-- 2980 -->
<g id="node29" class="node">
<title>2980</title>
<ellipse fill="white" stroke="black" cx="453.26" cy="-216.96" rx="28.98" ry="28.98"/>
<text text-anchor="middle" x="453.26" y="-214.76" font-family="Times,serif" font-size="9.00">2980</text>
</g>
<!-- 687&#45;&gt;2980 -->
<g id="edge5" class="edge">
<title>687&#45;&gt;2980</title>
<path fill="none" stroke="green" stroke-width="0.23" d="M504.16,-289.98C495.83,-278.19 485.09,-263 475.63,-249.61"/>
<polygon fill="green" stroke="green" stroke-width="0.23" points="478.26,-247.27 469.63,-241.12 472.55,-251.31 478.26,-247.27"/>
</g>
<!-- 704 -->
<g id="node22" class="node">
<title>704</title>
<ellipse fill="white" stroke="black" cx="821.26" cy="-592.89" rx="25" ry="25"/>
<text text-anchor="middle" x="821.26" y="-590.69" font-family="Times,serif" font-size="9.00">704</text>
</g>
<!-- 1597 -->
<g id="node24" class="node">
<title>1597</title>
<ellipse fill="white" stroke="black" cx="394.26" cy="-122.97" rx="28.98" ry="28.98"/>
<text text-anchor="middle" x="394.26" y="-120.77" font-family="Times,serif" font-size="9.00">1597</text>
</g>
<!-- 1987 -->
<g id="node25" class="node">
<title>1987</title>
<ellipse fill="white" stroke="black" cx="187.26" cy="-498.91" rx="28.98" ry="28.98"/>
<text text-anchor="middle" x="187.26" y="-496.71" font-family="Times,serif" font-size="9.00">1987</text>
</g>
<!-- 1987&#45;&gt;1503 -->
<g id="edge29" class="edge">
<title>1987&#45;&gt;1503</title>
<path fill="none" stroke="red" stroke-width="0.14" d="M175.56,-472.34C160.51,-437.04 136.26,-371.03 136.26,-311.94 136.26,-311.94 136.26,-311.94 136.26,-215.96 136.26,-150.01 189.81,-88.52 224.77,-55.41"/>
<polygon fill="red" stroke="red" stroke-width="0.14" points="227.38,-57.76 232.35,-48.4 222.63,-52.62 227.38,-57.76"/>
</g>
<!-- 2754 -->
<g id="node27" class="node">
<title>2754</title>
<ellipse fill="white" stroke="black" cx="294.26" cy="-404.92" rx="28.98" ry="28.98"/>
<text text-anchor="middle" x="294.26" y="-402.72" font-family="Times,serif" font-size="9.00">2754</text>
</g>
<!-- 1987&#45;&gt;2754 -->
<g id="edge7" class="edge">
<title>1987&#45;&gt;2754</title>
<path fill="none" stroke="red" stroke-width="0.13" stroke-dasharray="1,5" d="M208.92,-479.29C225.01,-465.45 247.16,-446.41 264.86,-431.2"/>
<polygon fill="red" stroke="red" stroke-width="0.13" points="267.34,-433.68 272.64,-424.51 262.78,-428.37 267.34,-433.68"/>
</g>
<!-- 3184 -->
<g id="node30" class="node">
<title>3184</title>
<ellipse fill="white" stroke="black" cx="79.26" cy="-122.97" rx="28.98" ry="28.98"/>
<text text-anchor="middle" x="79.26" y="-120.77" font-family="Times,serif" font-size="9.00">3184</text>
</g>
<!-- 2327&#45;&gt;3184 -->
<g id="edge8" class="edge">
<title>2327&#45;&gt;3184</title>
<path fill="none" stroke="green" stroke-width="0.75" d="M79.26,-187.86C79.26,-179.82 79.26,-170.92 79.26,-162.38"/>
<polygon fill="green" stroke="green" stroke-width="0.75" points="82.76,-162.22 79.26,-152.22 75.76,-162.22 82.76,-162.22"/>
</g>
<!-- 2754&#45;&gt;14 -->
<g id="edge22" class="edge">
<title>2754&#45;&gt;14</title>
<path fill="none" stroke="green" stroke-width="0.12" stroke-dasharray="1,5" d="M292.46,-375.8C289.04,-322.63 281.66,-207.86 278.17,-153.58"/>
<polygon fill="green" stroke="green" stroke-width="0.12" points="281.66,-153.32 277.52,-143.56 274.67,-153.77 281.66,-153.32"/>
</g>
<!-- 2754&#45;&gt;687 -->
<g id="edge15" class="edge">
<title>2754&#45;&gt;687</title>
<path fill="none" stroke="red" stroke-width="0.19" d="M322.64,-397.79C360.98,-388.76 430.7,-369.67 484.26,-339.93 486.98,-338.42 489.7,-336.68 492.34,-334.83"/>
<polygon fill="red" stroke="red" stroke-width="0.19" points="494.62,-337.49 500.45,-328.65 490.37,-331.93 494.62,-337.49"/>
</g>
<!-- 2790 -->
<g id="node28" class="node">
<title>2790</title>
<ellipse fill="white" stroke="black" cx="218.26" cy="-310.94" rx="28.98" ry="28.98"/>
<text text-anchor="middle" x="218.26" y="-308.74" font-family="Times,serif" font-size="9.00">2790</text>
</g>
<!-- 2754&#45;&gt;2790 -->
<g id="edge17" class="edge">
<title>2754&#45;&gt;2790</title>
<path fill="none" stroke="red" stroke-width="0.18" d="M276.25,-382.12C266.29,-370.07 253.77,-354.91 242.92,-341.78"/>
<polygon fill="red" stroke="red" stroke-width="0.18" points="245.48,-339.38 236.41,-333.9 240.08,-343.84 245.48,-339.38"/>
</g>
<!-- 3980 -->
<g id="node38" class="node">
<title>3980</title>
<ellipse fill="white" stroke="black" cx="332.26" cy="-216.96" rx="28.98" ry="28.98"/>
<text text-anchor="middle" x="332.26" y="-214.76" font-family="Times,serif" font-size="9.00">3980</text>
</g>
<!-- 2754&#45;&gt;3980 -->
<g id="edge23" class="edge">
<title>2754&#45;&gt;3980</title>
<path fill="none" stroke="red" stroke-width="0.25" stroke-dasharray="1,5" d="M299.95,-376.08C306.49,-344.08 317.26,-291.39 324.55,-255.72"/>
<polygon fill="red" stroke="red" stroke-width="0.25" points="328.02,-256.18 326.6,-245.68 321.17,-254.78 328.02,-256.18"/>
</g>
<!-- 4007 -->
<g id="node39" class="node">
<title>4007</title>
<ellipse fill="white" stroke="black" cx="370.26" cy="-310.94" rx="28.98" ry="28.98"/>
<text text-anchor="middle" x="370.26" y="-308.74" font-family="Times,serif" font-size="9.00">4007</text>
</g>
<!-- 2754&#45;&gt;4007 -->
<g id="edge25" class="edge">
<title>2754&#45;&gt;4007</title>
<path fill="none" stroke="red" stroke-width="0.29" d="M312.27,-382.12C322.23,-370.07 334.76,-354.91 345.61,-341.78"/>
<polygon fill="red" stroke="red" stroke-width="0.29" points="348.45,-343.84 352.12,-333.9 343.05,-339.38 348.45,-343.84"/>
</g>
<!-- 2790&#45;&gt;8 -->
<g id="edge32" class="edge">
<title>2790&#45;&gt;8</title>
<path fill="none" stroke="green" stroke-width="0.54" d="M222.23,-281.84C223.96,-269.63 225.97,-255.41 227.65,-243.5"/>
<polygon fill="green" stroke="green" stroke-width="0.54" points="231.16,-243.72 229.09,-233.33 224.23,-242.74 231.16,-243.72"/>
</g>
<!-- 2790&#45;&gt;9 -->
<g id="edge3" class="edge">
<title>2790&#45;&gt;9</title>
<path fill="none" stroke="red" stroke-width="0.23" d="M207.48,-283.83C202,-270.58 195.41,-254.62 190.08,-241.72"/>
<polygon fill="red" stroke="red" stroke-width="0.23" points="193.18,-240.05 186.13,-232.15 186.71,-242.73 193.18,-240.05"/>
</g>
<!-- 2980&#45;&gt;5 -->
<g id="edge34" class="edge">
<title>2980&#45;&gt;5</title>
<path fill="none" stroke="green" stroke-width="0.26" d="M428.64,-200.73C404.19,-185.44 368.63,-162.65 356.26,-151.97 353.38,-149.48 350.51,-146.67 347.8,-143.81"/>
<polygon fill="green" stroke="green" stroke-width="0.26" points="350.37,-141.44 341.09,-136.33 345.17,-146.11 350.37,-141.44"/>
</g>
<!-- 2980&#45;&gt;1597 -->
<g id="edge12" class="edge">
<title>2980&#45;&gt;1597</title>
<path fill="none" stroke="red" stroke-width="0.54" d="M437.76,-191.79C430.85,-181.02 422.61,-168.16 415.16,-156.56"/>
<polygon fill="red" stroke="red" stroke-width="0.54" points="418.01,-154.51 409.66,-147.98 412.11,-158.29 418.01,-154.51"/>
</g>
<!-- 2980&#45;&gt;3350 -->
<g id="edge10" class="edge">
<title>2980&#45;&gt;3350</title>
<path fill="none" stroke="green" stroke-width="0.53" d="M452.01,-187.83C450.06,-162.44 445.05,-124.5 432.26,-93.98 427.13,-81.74 419.28,-69.58 411.51,-59.2"/>
<polygon fill="green" stroke="green" stroke-width="0.53" points="414.25,-57.03 405.34,-51.29 408.73,-61.33 414.25,-57.03"/>
</g>
<!-- 2980&#45;&gt;3603 -->
<g id="edge16" class="edge">
<title>2980&#45;&gt;3603</title>
<path fill="none" stroke="red" stroke-width="0.33" d="M476.91,-199.32C482.28,-195.57 487.96,-191.62 493.26,-187.97 516.71,-171.8 523.02,-168.41 546.26,-151.97 548.58,-150.32 550.97,-148.61 553.37,-146.88"/>
<polygon fill="red" stroke="red" stroke-width="0.33" points="555.44,-149.71 561.46,-140.99 551.31,-144.05 555.44,-149.71"/>
</g>
<!-- 3926 -->
<g id="node37" class="node">
<title>3926</title>
<ellipse fill="white" stroke="black" cx="508.26" cy="-122.97" rx="28.98" ry="28.98"/>
<text text-anchor="middle" x="508.26" y="-120.77" font-family="Times,serif" font-size="9.00">3926</text>
</g>
<!-- 2980&#45;&gt;3926 -->
<g id="edge20" class="edge">
<title>2980&#45;&gt;3926</title>
<path fill="none" stroke="green" stroke-width="0.13" d="M467.71,-191.79C474.04,-181.21 481.57,-168.61 488.41,-157.17"/>
<polygon fill="green" stroke="green" stroke-width="0.13" points="491.59,-158.68 493.72,-148.3 485.58,-155.09 491.59,-158.68"/>
</g>
<!-- 3184&#45;&gt;3 -->
<g id="edge9" class="edge">
<title>3184&#45;&gt;3</title>
<path fill="none" stroke="green" stroke-width="0.58" d="M79.26,-93.88C79.26,-81.66 79.26,-67.45 79.26,-55.54"/>
<polygon fill="green" stroke="green" stroke-width="0.58" points="82.76,-55.36 79.26,-45.36 75.76,-55.36 82.76,-55.36"/>
</g>
<!-- 3480 -->
<g id="node32" class="node">
<title>3480</title>
<ellipse fill="white" stroke="black" cx="612.26" cy="-310.94" rx="28.98" ry="28.98"/>
<text text-anchor="middle" x="612.26" y="-308.74" font-family="Times,serif" font-size="9.00">3480</text>
</g>
<!-- 3480&#45;&gt;2 -->
<g id="edge13" class="edge">
<title>3480&#45;&gt;2</title>
<path fill="none" stroke="red" stroke-width="0.11" d="M591.87,-289.98C575.44,-273.91 552.55,-251.51 536.67,-235.97"/>
<polygon fill="red" stroke="red" stroke-width="0.11" points="539.1,-233.45 529.5,-228.96 534.2,-238.45 539.1,-233.45"/>
</g>
<!-- 3480&#45;&gt;7 -->
<g id="edge14" class="edge">
<title>3480&#45;&gt;7</title>
<path fill="none" stroke="green" stroke-width="0.12" d="M617.06,-282.34C619.23,-269.9 621.77,-255.31 623.88,-243.16"/>
<polygon fill="green" stroke="green" stroke-width="0.12" points="627.34,-243.69 625.61,-233.24 620.44,-242.49 627.34,-243.69"/>
</g>
<!-- 3560 -->
<g id="node33" class="node">
<title>3560</title>
<ellipse fill="white" stroke="black" cx="294.26" cy="-592.89" rx="28.98" ry="28.98"/>
<text text-anchor="middle" x="294.26" y="-590.69" font-family="Times,serif" font-size="9.00">3560</text>
</g>
<!-- 3888 -->
<g id="node35" class="node">
<title>3888</title>
<ellipse fill="white" stroke="black" cx="294.26" cy="-498.91" rx="28.98" ry="28.98"/>
<text text-anchor="middle" x="294.26" y="-496.71" font-family="Times,serif" font-size="9.00">3888</text>
</g>
<!-- 3560&#45;&gt;3888 -->
<g id="edge18" class="edge">
<title>3560&#45;&gt;3888</title>
<path fill="none" stroke="green" stroke-width="0.33" d="M294.26,-563.79C294.26,-555.75 294.26,-546.85 294.26,-538.31"/>
<polygon fill="green" stroke="green" stroke-width="0.33" points="297.76,-538.15 294.26,-528.15 290.76,-538.15 297.76,-538.15"/>
</g>
<!-- 3888&#45;&gt;2754 -->
<g id="edge19" class="edge">
<title>3888&#45;&gt;2754</title>
<path fill="none" stroke="red" stroke-width="1.2" stroke-dasharray="1,5" d="M294.26,-469.81C294.26,-461.77 294.26,-452.87 294.26,-444.32"/>
<polygon fill="red" stroke="red" stroke-width="1.2" points="297.76,-444.16 294.26,-434.16 290.76,-444.16 297.76,-444.16"/>
</g>
<!-- 3926&#45;&gt;16 -->
<g id="edge21" class="edge">
<title>3926&#45;&gt;16</title>
<path fill="none" stroke="green" stroke-width="0.11" d="M508.26,-93.88C508.26,-83.18 508.26,-70.95 508.26,-60.07"/>
<polygon fill="green" stroke="green" stroke-width="0.11" points="511.76,-59.76 508.26,-49.76 504.76,-59.76 511.76,-59.76"/>
</g>
<!-- 3980&#45;&gt;14 -->
<g id="edge24" class="edge">
<title>3980&#45;&gt;14</title>
<path fill="none" stroke="red" stroke-width="0.55" d="M317.55,-191.79C309.65,-178.82 299.92,-162.82 291.88,-149.63"/>
<polygon fill="red" stroke="red" stroke-width="0.55" points="294.83,-147.73 286.64,-141.01 288.85,-151.37 294.83,-147.73"/>
</g>
<!-- 4007&#45;&gt;3980 -->
<g id="edge26" class="edge">
<title>4007&#45;&gt;3980</title>
<path fill="none" stroke="red" stroke-width="0.21" d="M359.48,-283.83C355.58,-274.41 351.12,-263.61 346.96,-253.52"/>
<polygon fill="red" stroke="red" stroke-width="0.21" points="350.13,-252.04 343.08,-244.13 343.66,-254.71 350.13,-252.04"/>
</g>
<!-- 4014 -->
<g id="node40" class="node">
<title>4014</title>
<ellipse fill="white" stroke="black" cx="446.26" cy="-310.94" rx="28.98" ry="28.98"/>
<text text-anchor="middle" x="446.26" y="-308.74" font-family="Times,serif" font-size="9.00">4014</text>
</g>
<!-- 4014&#45;&gt;2 -->
<g id="edge27" class="edge">
<title>4014&#45;&gt;2</title>
<path fill="none" stroke="green" stroke-width="0.5" d="M463.69,-287.67C475.52,-272.56 491.03,-252.74 502.49,-238.1"/>
<polygon fill="green" stroke="green" stroke-width="0.5" points="505.31,-240.19 508.72,-230.15 499.8,-235.87 505.31,-240.19"/>
</g>
<!-- 4014&#45;&gt;14 -->
<g id="edge31" class="edge">
<title>4014&#45;&gt;14</title>
<path fill="none" stroke="red" stroke-width="0.4" d="M434.86,-283.98C422.15,-257.32 399.48,-215.9 370.26,-187.97 346.68,-165.41 332.6,-171.23 306.26,-151.97 303.42,-149.88 300.55,-147.56 297.78,-145.17"/>
<polygon fill="red" stroke="red" stroke-width="0.4" points="300.06,-142.51 290.3,-138.38 295.35,-147.69 300.06,-142.51"/>
</g>
</g>
</svg>
