<?xml version="1.0" encoding="utf-8" standalone="no"?>
<!DOCTYPE svg PUBLIC "-//W3C//DTD SVG 1.1//EN"
  "http://www.w3.org/Graphics/SVG/1.1/DTD/svg11.dtd">
<svg xmlns:xlink="http://www.w3.org/1999/xlink" width="460.8pt" height="345.6pt" viewBox="0 0 460.8 345.6" xmlns="http://www.w3.org/2000/svg" version="1.1">
 <metadata>
  <rdf:RDF xmlns:dc="http://purl.org/dc/elements/1.1/" xmlns:cc="http://creativecommons.org/ns#" xmlns:rdf="http://www.w3.org/1999/02/22-rdf-syntax-ns#">
   <cc:Work>
    <dc:type rdf:resource="http://purl.org/dc/dcmitype/StillImage"/>
    <dc:date>2023-02-03T23:19:52.320833</dc:date>
    <dc:format>image/svg+xml</dc:format>
    <dc:creator>
     <cc:Agent>
      <dc:title>Matplotlib v3.6.2, https://matplotlib.org/</dc:title>
     </cc:Agent>
    </dc:creator>
   </cc:Work>
  </rdf:RDF>
 </metadata>
 <defs>
  <style type="text/css">*{stroke-linejoin: round; stroke-linecap: butt}</style>
 </defs>
 <g id="figure_1">
  <g id="patch_1">
   <path d="M 0 345.6 
L 460.8 345.6 
L 460.8 0 
L 0 0 
z
" style="fill: #ffffff"/>
  </g>
  <g id="axes_1">
   <g id="patch_2">
    <path d="M 57.6 307.584 
L 414.72 307.584 
L 414.72 41.472 
L 57.6 41.472 
z
" style="fill: #ffffff"/>
   </g>
   <g id="PolyCollection_1">
    <path d="M 73.832727 56.653307 
L 73.832727 307.584 
L 75.22014 307.584 
L 76.607552 307.584 
L 77.994965 307.584 
L 79.382378 307.584 
L 80.76979 307.584 
L 82.157203 307.584 
L 83.544615 307.584 
L 84.932028 307.584 
L 86.319441 307.584 
L 87.706853 307.584 
L 89.094266 307.584 
L 90.481678 307.584 
L 91.869091 307.584 
L 93.256503 307.584 
L 94.643916 307.584 
L 96.031329 307.584 
L 97.418741 307.584 
L 98.806154 307.584 
L 100.193566 307.584 
L 101.580979 307.584 
L 102.968392 307.584 
L 104.355804 307.584 
L 105.743217 307.584 
L 107.130629 307.584 
L 108.518042 307.584 
L 109.905455 307.584 
L 111.292867 307.584 
L 112.68028 307.584 
L 114.067692 307.584 
L 115.455105 307.584 
L 116.842517 307.584 
L 118.22993 307.584 
L 119.617343 307.584 
L 121.004755 307.584 
L 122.392168 307.584 
L 123.77958 307.584 
L 125.166993 307.584 
L 126.554406 307.584 
L 127.941818 307.584 
L 129.329231 307.584 
L 130.716643 307.584 
L 132.104056 307.584 
L 133.491469 307.584 
L 134.878881 307.584 
L 136.266294 307.584 
L 137.653706 307.584 
L 139.041119 307.584 
L 140.428531 307.584 
L 141.815944 307.584 
L 143.203357 307.584 
L 144.590769 307.584 
L 145.978182 307.584 
L 147.365594 307.584 
L 148.753007 307.584 
L 150.14042 307.584 
L 151.527832 307.584 
L 152.915245 307.584 
L 154.302657 307.584 
L 155.69007 307.584 
L 157.077483 307.584 
L 158.464895 307.584 
L 159.852308 307.584 
L 161.23972 307.584 
L 162.627133 307.584 
L 164.014545 307.584 
L 165.401958 307.584 
L 166.789371 307.584 
L 168.176783 307.584 
L 169.564196 307.584 
L 170.951608 307.584 
L 172.339021 307.584 
L 173.726434 307.584 
L 175.113846 307.584 
L 176.501259 307.584 
L 177.888671 307.584 
L 179.276084 307.584 
L 180.663497 307.584 
L 182.050909 307.584 
L 183.438322 307.584 
L 184.825734 307.584 
L 186.213147 307.584 
L 187.600559 307.584 
L 188.987972 307.584 
L 190.375385 307.584 
L 191.762797 307.584 
L 193.15021 307.584 
L 194.537622 307.584 
L 195.925035 307.584 
L 197.312448 307.584 
L 198.69986 307.584 
L 200.087273 307.584 
L 201.474685 307.584 
L 202.862098 307.584 
L 204.24951 307.584 
L 205.636923 307.584 
L 207.024336 307.584 
L 208.411748 307.584 
L 209.799161 307.584 
L 211.186573 307.584 
L 212.573986 307.584 
L 213.961399 307.584 
L 215.348811 307.584 
L 216.736224 307.584 
L 218.123636 307.584 
L 219.511049 307.584 
L 220.898462 307.584 
L 222.285874 307.584 
L 223.673287 307.584 
L 225.060699 307.584 
L 226.448112 307.584 
L 227.835524 307.584 
L 229.222937 307.584 
L 230.61035 307.584 
L 231.997762 307.584 
L 233.385175 307.584 
L 234.772587 307.584 
L 236.16 307.584 
L 237.547413 307.584 
L 238.934825 307.584 
L 240.322238 307.584 
L 241.70965 307.584 
L 243.097063 307.584 
L 244.484476 307.584 
L 245.871888 307.584 
L 247.259301 307.584 
L 248.646713 307.584 
L 250.034126 307.584 
L 251.421538 307.584 
L 252.808951 307.584 
L 254.196364 307.584 
L 255.583776 307.584 
L 256.971189 307.584 
L 258.358601 307.584 
L 259.746014 307.584 
L 261.133427 307.584 
L 262.520839 307.584 
L 263.908252 307.584 
L 265.295664 307.584 
L 266.683077 307.584 
L 268.07049 307.584 
L 269.457902 307.584 
L 270.845315 307.584 
L 272.232727 307.584 
L 273.62014 307.584 
L 275.007552 307.584 
L 276.394965 307.584 
L 277.782378 307.584 
L 279.16979 307.584 
L 280.557203 307.584 
L 281.944615 307.584 
L 283.332028 307.584 
L 284.719441 307.584 
L 286.106853 307.584 
L 287.494266 307.584 
L 288.881678 307.584 
L 290.269091 307.584 
L 291.656503 307.584 
L 293.043916 307.584 
L 294.431329 307.584 
L 295.818741 307.584 
L 297.206154 307.584 
L 298.593566 307.584 
L 299.980979 307.584 
L 301.368392 307.584 
L 302.755804 307.584 
L 304.143217 307.584 
L 305.530629 307.584 
L 306.918042 307.584 
L 308.305455 307.584 
L 309.692867 307.584 
L 311.08028 307.584 
L 312.467692 307.584 
L 313.855105 307.584 
L 315.242517 307.584 
L 316.62993 307.584 
L 318.017343 307.584 
L 319.404755 307.584 
L 320.792168 307.584 
L 322.17958 307.584 
L 323.566993 307.584 
L 324.954406 307.584 
L 326.341818 307.584 
L 327.729231 307.584 
L 329.116643 307.584 
L 330.504056 307.584 
L 331.891469 307.584 
L 333.278881 307.584 
L 334.666294 307.584 
L 336.053706 307.584 
L 337.441119 307.584 
L 338.828531 307.584 
L 340.215944 307.584 
L 341.603357 307.584 
L 342.990769 307.584 
L 344.378182 307.584 
L 345.765594 307.584 
L 347.153007 307.584 
L 348.54042 307.584 
L 349.927832 307.584 
L 351.315245 307.584 
L 352.702657 307.584 
L 354.09007 307.584 
L 355.477483 307.584 
L 356.864895 307.584 
L 358.252308 307.584 
L 359.63972 307.584 
L 361.027133 307.584 
L 362.414545 307.584 
L 363.801958 307.584 
L 365.189371 307.584 
L 366.576783 307.584 
L 367.964196 307.584 
L 369.351608 307.584 
L 370.739021 307.584 
L 372.126434 307.584 
L 373.513846 307.584 
L 374.901259 307.584 
L 376.288671 307.584 
L 377.676084 307.584 
L 379.063497 307.584 
L 380.450909 307.584 
L 381.838322 307.584 
L 383.225734 307.584 
L 384.613147 307.584 
L 386.000559 307.584 
L 387.387972 307.584 
L 388.775385 307.584 
L 390.162797 307.584 
L 391.55021 307.584 
L 392.937622 307.584 
L 394.325035 307.584 
L 395.712448 307.584 
L 397.09986 307.584 
L 398.487273 307.584 
L 398.487273 237.323406 
L 398.487273 237.323406 
L 397.09986 239.832713 
L 395.712448 237.323406 
L 394.325035 242.34202 
L 392.937622 239.832713 
L 391.55021 242.34202 
L 390.162797 234.814099 
L 388.775385 237.323406 
L 387.387972 232.304792 
L 386.000559 229.795485 
L 384.613147 234.814099 
L 383.225734 237.323406 
L 381.838322 237.323406 
L 380.450909 234.814099 
L 379.063497 229.795485 
L 377.676084 232.304792 
L 376.288671 229.795485 
L 374.901259 229.795485 
L 373.513846 222.267564 
L 372.126434 234.814099 
L 370.739021 237.323406 
L 369.351608 234.814099 
L 367.964196 237.323406 
L 366.576783 239.832713 
L 365.189371 232.304792 
L 363.801958 237.323406 
L 362.414545 242.34202 
L 361.027133 239.832713 
L 359.63972 242.34202 
L 358.252308 244.851327 
L 356.864895 237.323406 
L 355.477483 244.851327 
L 354.09007 234.814099 
L 352.702657 237.323406 
L 351.315245 247.360634 
L 349.927832 244.851327 
L 348.54042 242.34202 
L 347.153007 239.832713 
L 345.765594 244.851327 
L 344.378182 249.869941 
L 342.990769 247.360634 
L 341.603357 257.397861 
L 340.215944 267.435089 
L 338.828531 254.888554 
L 337.441119 252.379248 
L 336.053706 259.907168 
L 334.666294 249.869941 
L 333.278881 257.397861 
L 331.891469 252.379248 
L 330.504056 244.851327 
L 329.116643 242.34202 
L 327.729231 244.851327 
L 326.341818 239.832713 
L 324.954406 237.323406 
L 323.566993 234.814099 
L 322.17958 239.832713 
L 320.792168 242.34202 
L 319.404755 247.360634 
L 318.017343 244.851327 
L 316.62993 242.34202 
L 315.242517 237.323406 
L 313.855105 232.304792 
L 312.467692 234.814099 
L 311.08028 234.814099 
L 309.692867 239.832713 
L 308.305455 242.34202 
L 306.918042 234.814099 
L 305.530629 244.851327 
L 304.143217 234.814099 
L 302.755804 237.323406 
L 301.368392 234.814099 
L 299.980979 234.814099 
L 298.593566 239.832713 
L 297.206154 229.795485 
L 295.818741 224.776871 
L 294.431329 234.814099 
L 293.043916 239.832713 
L 291.656503 232.304792 
L 290.269091 239.832713 
L 288.881678 242.34202 
L 287.494266 212.230337 
L 286.106853 239.832713 
L 284.719441 229.795485 
L 283.332028 227.286178 
L 281.944615 227.286178 
L 280.557203 217.24895 
L 279.16979 224.776871 
L 277.782378 219.758257 
L 276.394965 217.24895 
L 275.007552 217.24895 
L 273.62014 209.72103 
L 272.232727 217.24895 
L 270.845315 217.24895 
L 269.457902 219.758257 
L 268.07049 224.776871 
L 266.683077 214.739644 
L 265.295664 214.739644 
L 263.908252 224.776871 
L 262.520839 217.24895 
L 261.133427 214.739644 
L 259.746014 219.758257 
L 258.358601 214.739644 
L 256.971189 209.72103 
L 255.583776 212.230337 
L 254.196364 207.211723 
L 252.808951 207.211723 
L 251.421538 197.174495 
L 250.034126 217.24895 
L 248.646713 192.155881 
L 247.259301 214.739644 
L 245.871888 227.286178 
L 244.484476 227.286178 
L 243.097063 222.267564 
L 241.70965 227.286178 
L 240.322238 212.230337 
L 238.934825 152.00697 
L 237.547413 167.062812 
L 236.16 159.534891 
L 234.772587 144.47905 
L 233.385175 129.423208 
L 231.997762 204.702416 
L 230.61035 179.609347 
L 229.222937 167.062812 
L 227.835524 167.062812 
L 226.448112 164.553505 
L 225.060699 159.534891 
L 223.673287 164.553505 
L 222.285874 189.646574 
L 220.898462 194.665188 
L 219.511049 237.323406 
L 218.123636 254.888554 
L 216.736224 134.441822 
L 215.348811 179.609347 
L 213.961399 184.62796 
L 212.573986 189.646574 
L 211.186573 212.230337 
L 209.799161 254.888554 
L 208.411748 262.416475 
L 207.024336 252.379248 
L 205.636923 109.348752 
L 204.24951 56.653307 
L 202.862098 56.653307 
L 201.474685 56.653307 
L 200.087273 56.653307 
L 198.69986 56.653307 
L 197.312448 56.653307 
L 195.925035 56.653307 
L 194.537622 56.653307 
L 193.15021 56.653307 
L 191.762797 56.653307 
L 190.375385 56.653307 
L 188.987972 56.653307 
L 187.600559 56.653307 
L 186.213147 56.653307 
L 184.825734 56.653307 
L 183.438322 56.653307 
L 182.050909 56.653307 
L 180.663497 56.653307 
L 179.276084 56.653307 
L 177.888671 56.653307 
L 176.501259 56.653307 
L 175.113846 56.653307 
L 173.726434 56.653307 
L 172.339021 56.653307 
L 170.951608 56.653307 
L 169.564196 56.653307 
L 168.176783 56.653307 
L 166.789371 56.653307 
L 165.401958 56.653307 
L 164.014545 56.653307 
L 162.627133 56.653307 
L 161.23972 56.653307 
L 159.852308 56.653307 
L 158.464895 56.653307 
L 157.077483 56.653307 
L 155.69007 56.653307 
L 154.302657 56.653307 
L 152.915245 56.653307 
L 151.527832 56.653307 
L 150.14042 56.653307 
L 148.753007 56.653307 
L 147.365594 56.653307 
L 145.978182 56.653307 
L 144.590769 56.653307 
L 143.203357 56.653307 
L 141.815944 56.653307 
L 140.428531 56.653307 
L 139.041119 56.653307 
L 137.653706 56.653307 
L 136.266294 56.653307 
L 134.878881 56.653307 
L 133.491469 56.653307 
L 132.104056 56.653307 
L 130.716643 56.653307 
L 129.329231 56.653307 
L 127.941818 56.653307 
L 126.554406 56.653307 
L 125.166993 56.653307 
L 123.77958 56.653307 
L 122.392168 56.653307 
L 121.004755 56.653307 
L 119.617343 56.653307 
L 118.22993 56.653307 
L 116.842517 56.653307 
L 115.455105 56.653307 
L 114.067692 56.653307 
L 112.68028 56.653307 
L 111.292867 56.653307 
L 109.905455 56.653307 
L 108.518042 56.653307 
L 107.130629 56.653307 
L 105.743217 56.653307 
L 104.355804 56.653307 
L 102.968392 56.653307 
L 101.580979 56.653307 
L 100.193566 56.653307 
L 98.806154 56.653307 
L 97.418741 56.653307 
L 96.031329 56.653307 
L 94.643916 56.653307 
L 93.256503 56.653307 
L 91.869091 56.653307 
L 90.481678 56.653307 
L 89.094266 56.653307 
L 87.706853 56.653307 
L 86.319441 56.653307 
L 84.932028 56.653307 
L 83.544615 56.653307 
L 82.157203 56.653307 
L 80.76979 56.653307 
L 79.382378 56.653307 
L 77.994965 56.653307 
L 76.607552 56.653307 
L 75.22014 56.653307 
L 73.832727 56.653307 
z
" clip-path="url(#pe2226e23e0)" style="fill: #1f77b4"/>
   </g>
   <g id="PolyCollection_2">
    <path d="M 73.832727 56.653307 
L 73.832727 56.653307 
L 75.22014 56.653307 
L 76.607552 56.653307 
L 77.994965 56.653307 
L 79.382378 56.653307 
L 80.76979 56.653307 
L 82.157203 56.653307 
L 83.544615 56.653307 
L 84.932028 56.653307 
L 86.319441 56.653307 
L 87.706853 56.653307 
L 89.094266 56.653307 
L 90.481678 56.653307 
L 91.869091 56.653307 
L 93.256503 56.653307 
L 94.643916 56.653307 
L 96.031329 56.653307 
L 97.418741 56.653307 
L 98.806154 56.653307 
L 100.193566 56.653307 
L 101.580979 56.653307 
L 102.968392 56.653307 
L 104.355804 56.653307 
L 105.743217 56.653307 
L 107.130629 56.653307 
L 108.518042 56.653307 
L 109.905455 56.653307 
L 111.292867 56.653307 
L 112.68028 56.653307 
L 114.067692 56.653307 
L 115.455105 56.653307 
L 116.842517 56.653307 
L 118.22993 56.653307 
L 119.617343 56.653307 
L 121.004755 56.653307 
L 122.392168 56.653307 
L 123.77958 56.653307 
L 125.166993 56.653307 
L 126.554406 56.653307 
L 127.941818 56.653307 
L 129.329231 56.653307 
L 130.716643 56.653307 
L 132.104056 56.653307 
L 133.491469 56.653307 
L 134.878881 56.653307 
L 136.266294 56.653307 
L 137.653706 56.653307 
L 139.041119 56.653307 
L 140.428531 56.653307 
L 141.815944 56.653307 
L 143.203357 56.653307 
L 144.590769 56.653307 
L 145.978182 56.653307 
L 147.365594 56.653307 
L 148.753007 56.653307 
L 150.14042 56.653307 
L 151.527832 56.653307 
L 152.915245 56.653307 
L 154.302657 56.653307 
L 155.69007 56.653307 
L 157.077483 56.653307 
L 158.464895 56.653307 
L 159.852308 56.653307 
L 161.23972 56.653307 
L 162.627133 56.653307 
L 164.014545 56.653307 
L 165.401958 56.653307 
L 166.789371 56.653307 
L 168.176783 56.653307 
L 169.564196 56.653307 
L 170.951608 56.653307 
L 172.339021 56.653307 
L 173.726434 56.653307 
L 175.113846 56.653307 
L 176.501259 56.653307 
L 177.888671 56.653307 
L 179.276084 56.653307 
L 180.663497 56.653307 
L 182.050909 56.653307 
L 183.438322 56.653307 
L 184.825734 56.653307 
L 186.213147 56.653307 
L 187.600559 56.653307 
L 188.987972 56.653307 
L 190.375385 56.653307 
L 191.762797 56.653307 
L 193.15021 56.653307 
L 194.537622 56.653307 
L 195.925035 56.653307 
L 197.312448 56.653307 
L 198.69986 56.653307 
L 200.087273 56.653307 
L 201.474685 56.653307 
L 202.862098 56.653307 
L 204.24951 56.653307 
L 205.636923 109.348752 
L 207.024336 252.379248 
L 208.411748 262.416475 
L 209.799161 254.888554 
L 211.186573 212.230337 
L 212.573986 189.646574 
L 213.961399 184.62796 
L 215.348811 179.609347 
L 216.736224 134.441822 
L 218.123636 254.888554 
L 219.511049 237.323406 
L 220.898462 194.665188 
L 222.285874 189.646574 
L 223.673287 164.553505 
L 225.060699 159.534891 
L 226.448112 164.553505 
L 227.835524 167.062812 
L 229.222937 167.062812 
L 230.61035 179.609347 
L 231.997762 204.702416 
L 233.385175 129.423208 
L 234.772587 144.47905 
L 236.16 159.534891 
L 237.547413 167.062812 
L 238.934825 152.00697 
L 240.322238 212.230337 
L 241.70965 227.286178 
L 243.097063 222.267564 
L 244.484476 227.286178 
L 245.871888 227.286178 
L 247.259301 214.739644 
L 248.646713 192.155881 
L 250.034126 217.24895 
L 251.421538 197.174495 
L 252.808951 207.211723 
L 254.196364 207.211723 
L 255.583776 212.230337 
L 256.971189 209.72103 
L 258.358601 214.739644 
L 259.746014 219.758257 
L 261.133427 214.739644 
L 262.520839 217.24895 
L 263.908252 224.776871 
L 265.295664 214.739644 
L 266.683077 214.739644 
L 268.07049 224.776871 
L 269.457902 219.758257 
L 270.845315 217.24895 
L 272.232727 217.24895 
L 273.62014 209.72103 
L 275.007552 217.24895 
L 276.394965 217.24895 
L 277.782378 219.758257 
L 279.16979 224.776871 
L 280.557203 217.24895 
L 281.944615 227.286178 
L 283.332028 227.286178 
L 284.719441 229.795485 
L 286.106853 239.832713 
L 287.494266 212.230337 
L 288.881678 242.34202 
L 290.269091 239.832713 
L 291.656503 232.304792 
L 293.043916 239.832713 
L 294.431329 234.814099 
L 295.818741 224.776871 
L 297.206154 229.795485 
L 298.593566 239.832713 
L 299.980979 234.814099 
L 301.368392 234.814099 
L 302.755804 237.323406 
L 304.143217 234.814099 
L 305.530629 244.851327 
L 306.918042 234.814099 
L 308.305455 242.34202 
L 309.692867 239.832713 
L 311.08028 234.814099 
L 312.467692 234.814099 
L 313.855105 232.304792 
L 315.242517 237.323406 
L 316.62993 242.34202 
L 318.017343 244.851327 
L 319.404755 247.360634 
L 320.792168 242.34202 
L 322.17958 239.832713 
L 323.566993 234.814099 
L 324.954406 237.323406 
L 326.341818 239.832713 
L 327.729231 244.851327 
L 329.116643 242.34202 
L 330.504056 244.851327 
L 331.891469 252.379248 
L 333.278881 257.397861 
L 334.666294 249.869941 
L 336.053706 259.907168 
L 337.441119 252.379248 
L 338.828531 254.888554 
L 340.215944 267.435089 
L 341.603357 257.397861 
L 342.990769 247.360634 
L 344.378182 249.869941 
L 345.765594 244.851327 
L 347.153007 239.832713 
L 348.54042 242.34202 
L 349.927832 244.851327 
L 351.315245 247.360634 
L 352.702657 237.323406 
L 354.09007 234.814099 
L 355.477483 244.851327 
L 356.864895 237.323406 
L 358.252308 244.851327 
L 359.63972 242.34202 
L 361.027133 239.832713 
L 362.414545 242.34202 
L 363.801958 237.323406 
L 365.189371 232.304792 
L 366.576783 239.832713 
L 367.964196 237.323406 
L 369.351608 234.814099 
L 370.739021 237.323406 
L 372.126434 234.814099 
L 373.513846 222.267564 
L 374.901259 229.795485 
L 376.288671 229.795485 
L 377.676084 232.304792 
L 379.063497 229.795485 
L 380.450909 234.814099 
L 381.838322 237.323406 
L 383.225734 237.323406 
L 384.613147 234.814099 
L 386.000559 229.795485 
L 387.387972 232.304792 
L 388.775385 237.323406 
L 390.162797 234.814099 
L 391.55021 242.34202 
L 392.937622 239.832713 
L 394.325035 242.34202 
L 395.712448 237.323406 
L 397.09986 239.832713 
L 398.487273 237.323406 
L 398.487273 174.590733 
L 398.487273 174.590733 
L 397.09986 179.609347 
L 395.712448 174.590733 
L 394.325035 179.609347 
L 392.937622 184.62796 
L 391.55021 182.118653 
L 390.162797 172.081426 
L 388.775385 172.081426 
L 387.387972 172.081426 
L 386.000559 172.081426 
L 384.613147 172.081426 
L 383.225734 169.572119 
L 381.838322 169.572119 
L 380.450909 174.590733 
L 379.063497 172.081426 
L 377.676084 167.062812 
L 376.288671 162.044198 
L 374.901259 162.044198 
L 373.513846 157.025584 
L 372.126434 174.590733 
L 370.739021 169.572119 
L 369.351608 164.553505 
L 367.964196 167.062812 
L 366.576783 162.044198 
L 365.189371 157.025584 
L 363.801958 167.062812 
L 362.414545 174.590733 
L 361.027133 167.062812 
L 359.63972 172.081426 
L 358.252308 182.118653 
L 356.864895 172.081426 
L 355.477483 182.118653 
L 354.09007 172.081426 
L 352.702657 164.553505 
L 351.315245 177.10004 
L 349.927832 179.609347 
L 348.54042 179.609347 
L 347.153007 179.609347 
L 345.765594 182.118653 
L 344.378182 182.118653 
L 342.990769 179.609347 
L 341.603357 192.155881 
L 340.215944 199.683802 
L 338.828531 189.646574 
L 337.441119 177.10004 
L 336.053706 179.609347 
L 334.666294 182.118653 
L 333.278881 187.137267 
L 331.891469 189.646574 
L 330.504056 192.155881 
L 329.116643 192.155881 
L 327.729231 189.646574 
L 326.341818 182.118653 
L 324.954406 177.10004 
L 323.566993 172.081426 
L 322.17958 179.609347 
L 320.792168 184.62796 
L 319.404755 184.62796 
L 318.017343 184.62796 
L 316.62993 184.62796 
L 315.242517 184.62796 
L 313.855105 177.10004 
L 312.467692 177.10004 
L 311.08028 187.137267 
L 309.692867 189.646574 
L 308.305455 184.62796 
L 306.918042 172.081426 
L 305.530629 172.081426 
L 304.143217 169.572119 
L 302.755804 177.10004 
L 301.368392 182.118653 
L 299.980979 179.609347 
L 298.593566 179.609347 
L 297.206154 172.081426 
L 295.818741 169.572119 
L 294.431329 177.10004 
L 293.043916 177.10004 
L 291.656503 184.62796 
L 290.269091 194.665188 
L 288.881678 194.665188 
L 287.494266 167.062812 
L 286.106853 209.72103 
L 284.719441 207.211723 
L 283.332028 219.758257 
L 281.944615 177.10004 
L 280.557203 139.460436 
L 279.16979 139.460436 
L 277.782378 139.460436 
L 276.394965 141.969743 
L 275.007552 141.969743 
L 273.62014 139.460436 
L 272.232727 149.497663 
L 270.845315 144.47905 
L 269.457902 141.969743 
L 268.07049 149.497663 
L 266.683077 141.969743 
L 265.295664 144.47905 
L 263.908252 152.00697 
L 262.520839 159.534891 
L 261.133427 159.534891 
L 259.746014 159.534891 
L 258.358601 157.025584 
L 256.971189 149.497663 
L 255.583776 141.969743 
L 254.196364 139.460436 
L 252.808951 144.47905 
L 251.421538 131.932515 
L 250.034126 139.460436 
L 248.646713 116.876673 
L 247.259301 141.969743 
L 245.871888 141.969743 
L 244.484476 139.460436 
L 243.097063 136.951129 
L 241.70965 136.951129 
L 240.322238 109.348752 
L 238.934825 56.653307 
L 237.547413 56.653307 
L 236.16 56.653307 
L 234.772587 56.653307 
L 233.385175 56.653307 
L 231.997762 56.653307 
L 230.61035 56.653307 
L 229.222937 56.653307 
L 227.835524 56.653307 
L 226.448112 56.653307 
L 225.060699 56.653307 
L 223.673287 56.653307 
L 222.285874 56.653307 
L 220.898462 56.653307 
L 219.511049 56.653307 
L 218.123636 56.653307 
L 216.736224 56.653307 
L 215.348811 56.653307 
L 213.961399 56.653307 
L 212.573986 56.653307 
L 211.186573 56.653307 
L 209.799161 56.653307 
L 208.411748 56.653307 
L 207.024336 56.653307 
L 205.636923 56.653307 
L 204.24951 56.653307 
L 202.862098 56.653307 
L 201.474685 56.653307 
L 200.087273 56.653307 
L 198.69986 56.653307 
L 197.312448 56.653307 
L 195.925035 56.653307 
L 194.537622 56.653307 
L 193.15021 56.653307 
L 191.762797 56.653307 
L 190.375385 56.653307 
L 188.987972 56.653307 
L 187.600559 56.653307 
L 186.213147 56.653307 
L 184.825734 56.653307 
L 183.438322 56.653307 
L 182.050909 56.653307 
L 180.663497 56.653307 
L 179.276084 56.653307 
L 177.888671 56.653307 
L 176.501259 56.653307 
L 175.113846 56.653307 
L 173.726434 56.653307 
L 172.339021 56.653307 
L 170.951608 56.653307 
L 169.564196 56.653307 
L 168.176783 56.653307 
L 166.789371 56.653307 
L 165.401958 56.653307 
L 164.014545 56.653307 
L 162.627133 56.653307 
L 161.23972 56.653307 
L 159.852308 56.653307 
L 158.464895 56.653307 
L 157.077483 56.653307 
L 155.69007 56.653307 
L 154.302657 56.653307 
L 152.915245 56.653307 
L 151.527832 56.653307 
L 150.14042 56.653307 
L 148.753007 56.653307 
L 147.365594 56.653307 
L 145.978182 56.653307 
L 144.590769 56.653307 
L 143.203357 56.653307 
L 141.815944 56.653307 
L 140.428531 56.653307 
L 139.041119 56.653307 
L 137.653706 56.653307 
L 136.266294 56.653307 
L 134.878881 56.653307 
L 133.491469 56.653307 
L 132.104056 56.653307 
L 130.716643 56.653307 
L 129.329231 56.653307 
L 127.941818 56.653307 
L 126.554406 56.653307 
L 125.166993 56.653307 
L 123.77958 56.653307 
L 122.392168 56.653307 
L 121.004755 56.653307 
L 119.617343 56.653307 
L 118.22993 56.653307 
L 116.842517 56.653307 
L 115.455105 56.653307 
L 114.067692 56.653307 
L 112.68028 56.653307 
L 111.292867 56.653307 
L 109.905455 56.653307 
L 108.518042 56.653307 
L 107.130629 56.653307 
L 105.743217 56.653307 
L 104.355804 56.653307 
L 102.968392 56.653307 
L 101.580979 56.653307 
L 100.193566 56.653307 
L 98.806154 56.653307 
L 97.418741 56.653307 
L 96.031329 56.653307 
L 94.643916 56.653307 
L 93.256503 56.653307 
L 91.869091 56.653307 
L 90.481678 56.653307 
L 89.094266 56.653307 
L 87.706853 56.653307 
L 86.319441 56.653307 
L 84.932028 56.653307 
L 83.544615 56.653307 
L 82.157203 56.653307 
L 80.76979 56.653307 
L 79.382378 56.653307 
L 77.994965 56.653307 
L 76.607552 56.653307 
L 75.22014 56.653307 
L 73.832727 56.653307 
z
" clip-path="url(#pe2226e23e0)" style="fill: #ff7f0e"/>
   </g>
   <g id="PolyCollection_3">
    <path d="M 73.832727 56.653307 
L 73.832727 56.653307 
L 75.22014 56.653307 
L 76.607552 56.653307 
L 77.994965 56.653307 
L 79.382378 56.653307 
L 80.76979 56.653307 
L 82.157203 56.653307 
L 83.544615 56.653307 
L 84.932028 56.653307 
L 86.319441 56.653307 
L 87.706853 56.653307 
L 89.094266 56.653307 
L 90.481678 56.653307 
L 91.869091 56.653307 
L 93.256503 56.653307 
L 94.643916 56.653307 
L 96.031329 56.653307 
L 97.418741 56.653307 
L 98.806154 56.653307 
L 100.193566 56.653307 
L 101.580979 56.653307 
L 102.968392 56.653307 
L 104.355804 56.653307 
L 105.743217 56.653307 
L 107.130629 56.653307 
L 108.518042 56.653307 
L 109.905455 56.653307 
L 111.292867 56.653307 
L 112.68028 56.653307 
L 114.067692 56.653307 
L 115.455105 56.653307 
L 116.842517 56.653307 
L 118.22993 56.653307 
L 119.617343 56.653307 
L 121.004755 56.653307 
L 122.392168 56.653307 
L 123.77958 56.653307 
L 125.166993 56.653307 
L 126.554406 56.653307 
L 127.941818 56.653307 
L 129.329231 56.653307 
L 130.716643 56.653307 
L 132.104056 56.653307 
L 133.491469 56.653307 
L 134.878881 56.653307 
L 136.266294 56.653307 
L 137.653706 56.653307 
L 139.041119 56.653307 
L 140.428531 56.653307 
L 141.815944 56.653307 
L 143.203357 56.653307 
L 144.590769 56.653307 
L 145.978182 56.653307 
L 147.365594 56.653307 
L 148.753007 56.653307 
L 150.14042 56.653307 
L 151.527832 56.653307 
L 152.915245 56.653307 
L 154.302657 56.653307 
L 155.69007 56.653307 
L 157.077483 56.653307 
L 158.464895 56.653307 
L 159.852308 56.653307 
L 161.23972 56.653307 
L 162.627133 56.653307 
L 164.014545 56.653307 
L 165.401958 56.653307 
L 166.789371 56.653307 
L 168.176783 56.653307 
L 169.564196 56.653307 
L 170.951608 56.653307 
L 172.339021 56.653307 
L 173.726434 56.653307 
L 175.113846 56.653307 
L 176.501259 56.653307 
L 177.888671 56.653307 
L 179.276084 56.653307 
L 180.663497 56.653307 
L 182.050909 56.653307 
L 183.438322 56.653307 
L 184.825734 56.653307 
L 186.213147 56.653307 
L 187.600559 56.653307 
L 188.987972 56.653307 
L 190.375385 56.653307 
L 191.762797 56.653307 
L 193.15021 56.653307 
L 194.537622 56.653307 
L 195.925035 56.653307 
L 197.312448 56.653307 
L 198.69986 56.653307 
L 200.087273 56.653307 
L 201.474685 56.653307 
L 202.862098 56.653307 
L 204.24951 56.653307 
L 205.636923 56.653307 
L 207.024336 56.653307 
L 208.411748 56.653307 
L 209.799161 56.653307 
L 211.186573 56.653307 
L 212.573986 56.653307 
L 213.961399 56.653307 
L 215.348811 56.653307 
L 216.736224 56.653307 
L 218.123636 56.653307 
L 219.511049 56.653307 
L 220.898462 56.653307 
L 222.285874 56.653307 
L 223.673287 56.653307 
L 225.060699 56.653307 
L 226.448112 56.653307 
L 227.835524 56.653307 
L 229.222937 56.653307 
L 230.61035 56.653307 
L 231.997762 56.653307 
L 233.385175 56.653307 
L 234.772587 56.653307 
L 236.16 56.653307 
L 237.547413 56.653307 
L 238.934825 56.653307 
L 240.322238 109.348752 
L 241.70965 136.951129 
L 243.097063 136.951129 
L 244.484476 139.460436 
L 245.871888 141.969743 
L 247.259301 141.969743 
L 248.646713 116.876673 
L 250.034126 139.460436 
L 251.421538 131.932515 
L 252.808951 144.47905 
L 254.196364 139.460436 
L 255.583776 141.969743 
L 256.971189 149.497663 
L 258.358601 157.025584 
L 259.746014 159.534891 
L 261.133427 159.534891 
L 262.520839 159.534891 
L 263.908252 152.00697 
L 265.295664 144.47905 
L 266.683077 141.969743 
L 268.07049 149.497663 
L 269.457902 141.969743 
L 270.845315 144.47905 
L 272.232727 149.497663 
L 273.62014 139.460436 
L 275.007552 141.969743 
L 276.394965 141.969743 
L 277.782378 139.460436 
L 279.16979 139.460436 
L 280.557203 139.460436 
L 281.944615 177.10004 
L 283.332028 219.758257 
L 284.719441 207.211723 
L 286.106853 209.72103 
L 287.494266 167.062812 
L 288.881678 194.665188 
L 290.269091 194.665188 
L 291.656503 184.62796 
L 293.043916 177.10004 
L 294.431329 177.10004 
L 295.818741 169.572119 
L 297.206154 172.081426 
L 298.593566 179.609347 
L 299.980979 179.609347 
L 301.368392 182.118653 
L 302.755804 177.10004 
L 304.143217 169.572119 
L 305.530629 172.081426 
L 306.918042 172.081426 
L 308.305455 184.62796 
L 309.692867 189.646574 
L 311.08028 187.137267 
L 312.467692 177.10004 
L 313.855105 177.10004 
L 315.242517 184.62796 
L 316.62993 184.62796 
L 318.017343 184.62796 
L 319.404755 184.62796 
L 320.792168 184.62796 
L 322.17958 179.609347 
L 323.566993 172.081426 
L 324.954406 177.10004 
L 326.341818 182.118653 
L 327.729231 189.646574 
L 329.116643 192.155881 
L 330.504056 192.155881 
L 331.891469 189.646574 
L 333.278881 187.137267 
L 334.666294 182.118653 
L 336.053706 179.609347 
L 337.441119 177.10004 
L 338.828531 189.646574 
L 340.215944 199.683802 
L 341.603357 192.155881 
L 342.990769 179.609347 
L 344.378182 182.118653 
L 345.765594 182.118653 
L 347.153007 179.609347 
L 348.54042 179.609347 
L 349.927832 179.609347 
L 351.315245 177.10004 
L 352.702657 164.553505 
L 354.09007 172.081426 
L 355.477483 182.118653 
L 356.864895 172.081426 
L 358.252308 182.118653 
L 359.63972 172.081426 
L 361.027133 167.062812 
L 362.414545 174.590733 
L 363.801958 167.062812 
L 365.189371 157.025584 
L 366.576783 162.044198 
L 367.964196 167.062812 
L 369.351608 164.553505 
L 370.739021 169.572119 
L 372.126434 174.590733 
L 373.513846 157.025584 
L 374.901259 162.044198 
L 376.288671 162.044198 
L 377.676084 167.062812 
L 379.063497 172.081426 
L 380.450909 174.590733 
L 381.838322 169.572119 
L 383.225734 169.572119 
L 384.613147 172.081426 
L 386.000559 172.081426 
L 387.387972 172.081426 
L 388.775385 172.081426 
L 390.162797 172.081426 
L 391.55021 182.118653 
L 392.937622 184.62796 
L 394.325035 179.609347 
L 395.712448 174.590733 
L 397.09986 179.609347 
L 398.487273 174.590733 
L 398.487273 111.858059 
L 398.487273 111.858059 
L 397.09986 114.367366 
L 395.712448 111.858059 
L 394.325035 119.38598 
L 392.937622 121.895287 
L 391.55021 121.895287 
L 390.162797 114.367366 
L 388.775385 109.348752 
L 387.387972 104.330139 
L 386.000559 106.839446 
L 384.613147 109.348752 
L 383.225734 111.858059 
L 381.838322 109.348752 
L 380.450909 116.876673 
L 379.063497 111.858059 
L 377.676084 109.348752 
L 376.288671 111.858059 
L 374.901259 116.876673 
L 373.513846 109.348752 
L 372.126434 116.876673 
L 370.739021 114.367366 
L 369.351608 111.858059 
L 367.964196 119.38598 
L 366.576783 111.858059 
L 365.189371 114.367366 
L 363.801958 119.38598 
L 362.414545 116.876673 
L 361.027133 106.839446 
L 359.63972 114.367366 
L 358.252308 121.895287 
L 356.864895 109.348752 
L 355.477483 116.876673 
L 354.09007 106.839446 
L 352.702657 101.820832 
L 351.315245 111.858059 
L 349.927832 111.858059 
L 348.54042 114.367366 
L 347.153007 111.858059 
L 345.765594 111.858059 
L 344.378182 106.839446 
L 342.990769 104.330139 
L 341.603357 111.858059 
L 340.215944 121.895287 
L 338.828531 116.876673 
L 337.441119 109.348752 
L 336.053706 114.367366 
L 334.666294 119.38598 
L 333.278881 116.876673 
L 331.891469 121.895287 
L 330.504056 119.38598 
L 329.116643 116.876673 
L 327.729231 116.876673 
L 326.341818 111.858059 
L 324.954406 109.348752 
L 323.566993 109.348752 
L 322.17958 114.367366 
L 320.792168 116.876673 
L 319.404755 121.895287 
L 318.017343 119.38598 
L 316.62993 116.876673 
L 315.242517 119.38598 
L 313.855105 114.367366 
L 312.467692 116.876673 
L 311.08028 124.404594 
L 309.692867 121.895287 
L 308.305455 111.858059 
L 306.918042 104.330139 
L 305.530629 109.348752 
L 304.143217 109.348752 
L 302.755804 109.348752 
L 301.368392 116.876673 
L 299.980979 119.38598 
L 298.593566 114.367366 
L 297.206154 116.876673 
L 295.818741 119.38598 
L 294.431329 121.895287 
L 293.043916 114.367366 
L 291.656503 116.876673 
L 290.269091 119.38598 
L 288.881678 116.876673 
L 287.494266 121.895287 
L 286.106853 126.913901 
L 284.719441 139.460436 
L 283.332028 154.516277 
L 281.944615 91.783604 
L 280.557203 59.162614 
L 279.16979 56.653307 
L 277.782378 54.144 
L 276.394965 54.144 
L 275.007552 54.144 
L 273.62014 54.144 
L 272.232727 59.162614 
L 270.845315 54.144 
L 269.457902 54.144 
L 268.07049 56.653307 
L 266.683077 56.653307 
L 265.295664 59.162614 
L 263.908252 56.653307 
L 262.520839 59.162614 
L 261.133427 56.653307 
L 259.746014 59.162614 
L 258.358601 56.653307 
L 256.971189 56.653307 
L 255.583776 54.144 
L 254.196364 54.144 
L 252.808951 56.653307 
L 251.421538 54.144 
L 250.034126 54.144 
L 248.646713 54.144 
L 247.259301 56.653307 
L 245.871888 59.162614 
L 244.484476 56.653307 
L 243.097063 59.162614 
L 241.70965 56.653307 
L 240.322238 56.653307 
L 238.934825 56.653307 
L 237.547413 56.653307 
L 236.16 56.653307 
L 234.772587 56.653307 
L 233.385175 56.653307 
L 231.997762 56.653307 
L 230.61035 56.653307 
L 229.222937 56.653307 
L 227.835524 56.653307 
L 226.448112 56.653307 
L 225.060699 56.653307 
L 223.673287 56.653307 
L 222.285874 56.653307 
L 220.898462 56.653307 
L 219.511049 56.653307 
L 218.123636 56.653307 
L 216.736224 56.653307 
L 215.348811 56.653307 
L 213.961399 56.653307 
L 212.573986 56.653307 
L 211.186573 56.653307 
L 209.799161 56.653307 
L 208.411748 56.653307 
L 207.024336 56.653307 
L 205.636923 56.653307 
L 204.24951 56.653307 
L 202.862098 56.653307 
L 201.474685 56.653307 
L 200.087273 56.653307 
L 198.69986 56.653307 
L 197.312448 56.653307 
L 195.925035 56.653307 
L 194.537622 56.653307 
L 193.15021 56.653307 
L 191.762797 56.653307 
L 190.375385 56.653307 
L 188.987972 56.653307 
L 187.600559 56.653307 
L 186.213147 56.653307 
L 184.825734 56.653307 
L 183.438322 56.653307 
L 182.050909 56.653307 
L 180.663497 56.653307 
L 179.276084 56.653307 
L 177.888671 56.653307 
L 176.501259 56.653307 
L 175.113846 56.653307 
L 173.726434 56.653307 
L 172.339021 56.653307 
L 170.951608 56.653307 
L 169.564196 56.653307 
L 168.176783 56.653307 
L 166.789371 56.653307 
L 165.401958 56.653307 
L 164.014545 56.653307 
L 162.627133 56.653307 
L 161.23972 56.653307 
L 159.852308 56.653307 
L 158.464895 56.653307 
L 157.077483 56.653307 
L 155.69007 56.653307 
L 154.302657 56.653307 
L 152.915245 56.653307 
L 151.527832 56.653307 
L 150.14042 56.653307 
L 148.753007 56.653307 
L 147.365594 56.653307 
L 145.978182 56.653307 
L 144.590769 56.653307 
L 143.203357 56.653307 
L 141.815944 56.653307 
L 140.428531 56.653307 
L 139.041119 56.653307 
L 137.653706 56.653307 
L 136.266294 56.653307 
L 134.878881 56.653307 
L 133.491469 56.653307 
L 132.104056 56.653307 
L 130.716643 56.653307 
L 129.329231 56.653307 
L 127.941818 56.653307 
L 126.554406 56.653307 
L 125.166993 56.653307 
L 123.77958 56.653307 
L 122.392168 56.653307 
L 121.004755 56.653307 
L 119.617343 56.653307 
L 118.22993 56.653307 
L 116.842517 56.653307 
L 115.455105 56.653307 
L 114.067692 56.653307 
L 112.68028 56.653307 
L 111.292867 56.653307 
L 109.905455 56.653307 
L 108.518042 56.653307 
L 107.130629 56.653307 
L 105.743217 56.653307 
L 104.355804 56.653307 
L 102.968392 56.653307 
L 101.580979 56.653307 
L 100.193566 56.653307 
L 98.806154 56.653307 
L 97.418741 56.653307 
L 96.031329 56.653307 
L 94.643916 56.653307 
L 93.256503 56.653307 
L 91.869091 56.653307 
L 90.481678 56.653307 
L 89.094266 56.653307 
L 87.706853 56.653307 
L 86.319441 56.653307 
L 84.932028 56.653307 
L 83.544615 56.653307 
L 82.157203 56.653307 
L 80.76979 56.653307 
L 79.382378 56.653307 
L 77.994965 56.653307 
L 76.607552 56.653307 
L 75.22014 56.653307 
L 73.832727 56.653307 
z
" clip-path="url(#pe2226e23e0)" style="fill: #2ca02c"/>
   </g>
   <g id="PolyCollection_4">
    <path d="M 73.832727 56.653307 
L 73.832727 56.653307 
L 75.22014 56.653307 
L 76.607552 56.653307 
L 77.994965 56.653307 
L 79.382378 56.653307 
L 80.76979 56.653307 
L 82.157203 56.653307 
L 83.544615 56.653307 
L 84.932028 56.653307 
L 86.319441 56.653307 
L 87.706853 56.653307 
L 89.094266 56.653307 
L 90.481678 56.653307 
L 91.869091 56.653307 
L 93.256503 56.653307 
L 94.643916 56.653307 
L 96.031329 56.653307 
L 97.418741 56.653307 
L 98.806154 56.653307 
L 100.193566 56.653307 
L 101.580979 56.653307 
L 102.968392 56.653307 
L 104.355804 56.653307 
L 105.743217 56.653307 
L 107.130629 56.653307 
L 108.518042 56.653307 
L 109.905455 56.653307 
L 111.292867 56.653307 
L 112.68028 56.653307 
L 114.067692 56.653307 
L 115.455105 56.653307 
L 116.842517 56.653307 
L 118.22993 56.653307 
L 119.617343 56.653307 
L 121.004755 56.653307 
L 122.392168 56.653307 
L 123.77958 56.653307 
L 125.166993 56.653307 
L 126.554406 56.653307 
L 127.941818 56.653307 
L 129.329231 56.653307 
L 130.716643 56.653307 
L 132.104056 56.653307 
L 133.491469 56.653307 
L 134.878881 56.653307 
L 136.266294 56.653307 
L 137.653706 56.653307 
L 139.041119 56.653307 
L 140.428531 56.653307 
L 141.815944 56.653307 
L 143.203357 56.653307 
L 144.590769 56.653307 
L 145.978182 56.653307 
L 147.365594 56.653307 
L 148.753007 56.653307 
L 150.14042 56.653307 
L 151.527832 56.653307 
L 152.915245 56.653307 
L 154.302657 56.653307 
L 155.69007 56.653307 
L 157.077483 56.653307 
L 158.464895 56.653307 
L 159.852308 56.653307 
L 161.23972 56.653307 
L 162.627133 56.653307 
L 164.014545 56.653307 
L 165.401958 56.653307 
L 166.789371 56.653307 
L 168.176783 56.653307 
L 169.564196 56.653307 
L 170.951608 56.653307 
L 172.339021 56.653307 
L 173.726434 56.653307 
L 175.113846 56.653307 
L 176.501259 56.653307 
L 177.888671 56.653307 
L 179.276084 56.653307 
L 180.663497 56.653307 
L 182.050909 56.653307 
L 183.438322 56.653307 
L 184.825734 56.653307 
L 186.213147 56.653307 
L 187.600559 56.653307 
L 188.987972 56.653307 
L 190.375385 56.653307 
L 191.762797 56.653307 
L 193.15021 56.653307 
L 194.537622 56.653307 
L 195.925035 56.653307 
L 197.312448 56.653307 
L 198.69986 56.653307 
L 200.087273 56.653307 
L 201.474685 56.653307 
L 202.862098 56.653307 
L 204.24951 56.653307 
L 205.636923 56.653307 
L 207.024336 56.653307 
L 208.411748 56.653307 
L 209.799161 56.653307 
L 211.186573 56.653307 
L 212.573986 56.653307 
L 213.961399 56.653307 
L 215.348811 56.653307 
L 216.736224 56.653307 
L 218.123636 56.653307 
L 219.511049 56.653307 
L 220.898462 56.653307 
L 222.285874 56.653307 
L 223.673287 56.653307 
L 225.060699 56.653307 
L 226.448112 56.653307 
L 227.835524 56.653307 
L 229.222937 56.653307 
L 230.61035 56.653307 
L 231.997762 56.653307 
L 233.385175 56.653307 
L 234.772587 56.653307 
L 236.16 56.653307 
L 237.547413 56.653307 
L 238.934825 56.653307 
L 240.322238 56.653307 
L 241.70965 56.653307 
L 243.097063 59.162614 
L 244.484476 56.653307 
L 245.871888 59.162614 
L 247.259301 56.653307 
L 248.646713 54.144 
L 250.034126 54.144 
L 251.421538 54.144 
L 252.808951 56.653307 
L 254.196364 54.144 
L 255.583776 54.144 
L 256.971189 56.653307 
L 258.358601 56.653307 
L 259.746014 59.162614 
L 261.133427 56.653307 
L 262.520839 59.162614 
L 263.908252 56.653307 
L 265.295664 59.162614 
L 266.683077 56.653307 
L 268.07049 56.653307 
L 269.457902 54.144 
L 270.845315 54.144 
L 272.232727 59.162614 
L 273.62014 54.144 
L 275.007552 54.144 
L 276.394965 54.144 
L 277.782378 54.144 
L 279.16979 56.653307 
L 280.557203 59.162614 
L 281.944615 91.783604 
L 283.332028 154.516277 
L 284.719441 139.460436 
L 286.106853 126.913901 
L 287.494266 121.895287 
L 288.881678 116.876673 
L 290.269091 119.38598 
L 291.656503 116.876673 
L 293.043916 114.367366 
L 294.431329 121.895287 
L 295.818741 119.38598 
L 297.206154 116.876673 
L 298.593566 114.367366 
L 299.980979 119.38598 
L 301.368392 116.876673 
L 302.755804 109.348752 
L 304.143217 109.348752 
L 305.530629 109.348752 
L 306.918042 104.330139 
L 308.305455 111.858059 
L 309.692867 121.895287 
L 311.08028 124.404594 
L 312.467692 116.876673 
L 313.855105 114.367366 
L 315.242517 119.38598 
L 316.62993 116.876673 
L 318.017343 119.38598 
L 319.404755 121.895287 
L 320.792168 116.876673 
L 322.17958 114.367366 
L 323.566993 109.348752 
L 324.954406 109.348752 
L 326.341818 111.858059 
L 327.729231 116.876673 
L 329.116643 116.876673 
L 330.504056 119.38598 
L 331.891469 121.895287 
L 333.278881 116.876673 
L 334.666294 119.38598 
L 336.053706 114.367366 
L 337.441119 109.348752 
L 338.828531 116.876673 
L 340.215944 121.895287 
L 341.603357 111.858059 
L 342.990769 104.330139 
L 344.378182 106.839446 
L 345.765594 111.858059 
L 347.153007 111.858059 
L 348.54042 114.367366 
L 349.927832 111.858059 
L 351.315245 111.858059 
L 352.702657 101.820832 
L 354.09007 106.839446 
L 355.477483 116.876673 
L 356.864895 109.348752 
L 358.252308 121.895287 
L 359.63972 114.367366 
L 361.027133 106.839446 
L 362.414545 116.876673 
L 363.801958 119.38598 
L 365.189371 114.367366 
L 366.576783 111.858059 
L 367.964196 119.38598 
L 369.351608 111.858059 
L 370.739021 114.367366 
L 372.126434 116.876673 
L 373.513846 109.348752 
L 374.901259 116.876673 
L 376.288671 111.858059 
L 377.676084 109.348752 
L 379.063497 111.858059 
L 380.450909 116.876673 
L 381.838322 109.348752 
L 383.225734 111.858059 
L 384.613147 109.348752 
L 386.000559 106.839446 
L 387.387972 104.330139 
L 388.775385 109.348752 
L 390.162797 114.367366 
L 391.55021 121.895287 
L 392.937622 121.895287 
L 394.325035 119.38598 
L 395.712448 111.858059 
L 397.09986 114.367366 
L 398.487273 111.858059 
L 398.487273 59.162614 
L 398.487273 59.162614 
L 397.09986 59.162614 
L 395.712448 59.162614 
L 394.325035 59.162614 
L 392.937622 56.653307 
L 391.55021 59.162614 
L 390.162797 59.162614 
L 388.775385 59.162614 
L 387.387972 56.653307 
L 386.000559 56.653307 
L 384.613147 56.653307 
L 383.225734 56.653307 
L 381.838322 56.653307 
L 380.450909 56.653307 
L 379.063497 56.653307 
L 377.676084 56.653307 
L 376.288671 56.653307 
L 374.901259 56.653307 
L 373.513846 56.653307 
L 372.126434 56.653307 
L 370.739021 56.653307 
L 369.351608 56.653307 
L 367.964196 56.653307 
L 366.576783 54.144 
L 365.189371 54.144 
L 363.801958 56.653307 
L 362.414545 56.653307 
L 361.027133 54.144 
L 359.63972 56.653307 
L 358.252308 56.653307 
L 356.864895 54.144 
L 355.477483 59.162614 
L 354.09007 54.144 
L 352.702657 56.653307 
L 351.315245 59.162614 
L 349.927832 54.144 
L 348.54042 54.144 
L 347.153007 56.653307 
L 345.765594 59.162614 
L 344.378182 56.653307 
L 342.990769 56.653307 
L 341.603357 54.144 
L 340.215944 56.653307 
L 338.828531 56.653307 
L 337.441119 56.653307 
L 336.053706 59.162614 
L 334.666294 56.653307 
L 333.278881 56.653307 
L 331.891469 59.162614 
L 330.504056 59.162614 
L 329.116643 54.144 
L 327.729231 56.653307 
L 326.341818 56.653307 
L 324.954406 56.653307 
L 323.566993 59.162614 
L 322.17958 56.653307 
L 320.792168 56.653307 
L 319.404755 59.162614 
L 318.017343 54.144 
L 316.62993 54.144 
L 315.242517 59.162614 
L 313.855105 56.653307 
L 312.467692 56.653307 
L 311.08028 54.144 
L 309.692867 54.144 
L 308.305455 54.144 
L 306.918042 56.653307 
L 305.530629 59.162614 
L 304.143217 56.653307 
L 302.755804 59.162614 
L 301.368392 56.653307 
L 299.980979 56.653307 
L 298.593566 59.162614 
L 297.206154 59.162614 
L 295.818741 59.162614 
L 294.431329 56.653307 
L 293.043916 56.653307 
L 291.656503 56.653307 
L 290.269091 56.653307 
L 288.881678 56.653307 
L 287.494266 56.653307 
L 286.106853 56.653307 
L 284.719441 56.653307 
L 283.332028 59.162614 
L 281.944615 59.162614 
L 280.557203 59.162614 
L 279.16979 56.653307 
L 277.782378 54.144 
L 276.394965 54.144 
L 275.007552 54.144 
L 273.62014 54.144 
L 272.232727 59.162614 
L 270.845315 54.144 
L 269.457902 54.144 
L 268.07049 56.653307 
L 266.683077 56.653307 
L 265.295664 59.162614 
L 263.908252 56.653307 
L 262.520839 59.162614 
L 261.133427 56.653307 
L 259.746014 59.162614 
L 258.358601 56.653307 
L 256.971189 56.653307 
L 255.583776 54.144 
L 254.196364 54.144 
L 252.808951 56.653307 
L 251.421538 54.144 
L 250.034126 54.144 
L 248.646713 54.144 
L 247.259301 56.653307 
L 245.871888 59.162614 
L 244.484476 56.653307 
L 243.097063 59.162614 
L 241.70965 56.653307 
L 240.322238 56.653307 
L 238.934825 56.653307 
L 237.547413 56.653307 
L 236.16 56.653307 
L 234.772587 56.653307 
L 233.385175 56.653307 
L 231.997762 56.653307 
L 230.61035 56.653307 
L 229.222937 56.653307 
L 227.835524 56.653307 
L 226.448112 56.653307 
L 225.060699 56.653307 
L 223.673287 56.653307 
L 222.285874 56.653307 
L 220.898462 56.653307 
L 219.511049 56.653307 
L 218.123636 56.653307 
L 216.736224 56.653307 
L 215.348811 56.653307 
L 213.961399 56.653307 
L 212.573986 56.653307 
L 211.186573 56.653307 
L 209.799161 56.653307 
L 208.411748 56.653307 
L 207.024336 56.653307 
L 205.636923 56.653307 
L 204.24951 56.653307 
L 202.862098 56.653307 
L 201.474685 56.653307 
L 200.087273 56.653307 
L 198.69986 56.653307 
L 197.312448 56.653307 
L 195.925035 56.653307 
L 194.537622 56.653307 
L 193.15021 56.653307 
L 191.762797 56.653307 
L 190.375385 56.653307 
L 188.987972 56.653307 
L 187.600559 56.653307 
L 186.213147 56.653307 
L 184.825734 56.653307 
L 183.438322 56.653307 
L 182.050909 56.653307 
L 180.663497 56.653307 
L 179.276084 56.653307 
L 177.888671 56.653307 
L 176.501259 56.653307 
L 175.113846 56.653307 
L 173.726434 56.653307 
L 172.339021 56.653307 
L 170.951608 56.653307 
L 169.564196 56.653307 
L 168.176783 56.653307 
L 166.789371 56.653307 
L 165.401958 56.653307 
L 164.014545 56.653307 
L 162.627133 56.653307 
L 161.23972 56.653307 
L 159.852308 56.653307 
L 158.464895 56.653307 
L 157.077483 56.653307 
L 155.69007 56.653307 
L 154.302657 56.653307 
L 152.915245 56.653307 
L 151.527832 56.653307 
L 150.14042 56.653307 
L 148.753007 56.653307 
L 147.365594 56.653307 
L 145.978182 56.653307 
L 144.590769 56.653307 
L 143.203357 56.653307 
L 141.815944 56.653307 
L 140.428531 56.653307 
L 139.041119 56.653307 
L 137.653706 56.653307 
L 136.266294 56.653307 
L 134.878881 56.653307 
L 133.491469 56.653307 
L 132.104056 56.653307 
L 130.716643 56.653307 
L 129.329231 56.653307 
L 127.941818 56.653307 
L 126.554406 56.653307 
L 125.166993 56.653307 
L 123.77958 56.653307 
L 122.392168 56.653307 
L 121.004755 56.653307 
L 119.617343 56.653307 
L 118.22993 56.653307 
L 116.842517 56.653307 
L 115.455105 56.653307 
L 114.067692 56.653307 
L 112.68028 56.653307 
L 111.292867 56.653307 
L 109.905455 56.653307 
L 108.518042 56.653307 
L 107.130629 56.653307 
L 105.743217 56.653307 
L 104.355804 56.653307 
L 102.968392 56.653307 
L 101.580979 56.653307 
L 100.193566 56.653307 
L 98.806154 56.653307 
L 97.418741 56.653307 
L 96.031329 56.653307 
L 94.643916 56.653307 
L 93.256503 56.653307 
L 91.869091 56.653307 
L 90.481678 56.653307 
L 89.094266 56.653307 
L 87.706853 56.653307 
L 86.319441 56.653307 
L 84.932028 56.653307 
L 83.544615 56.653307 
L 82.157203 56.653307 
L 80.76979 56.653307 
L 79.382378 56.653307 
L 77.994965 56.653307 
L 76.607552 56.653307 
L 75.22014 56.653307 
L 73.832727 56.653307 
z
" clip-path="url(#pe2226e23e0)" style="fill: #d62728"/>
   </g>
   <g id="matplotlib.axis_1">
    <g id="xtick_1">
     <g id="line2d_1">
      <defs>
       <path id="mf46f7818c1" d="M 0 0 
L 0 3.5 
" style="stroke: #000000; stroke-width: 0.8"/>
      </defs>
      <g>
       <use xlink:href="#mf46f7818c1" x="73.832727" y="307.584" style="stroke: #000000; stroke-width: 0.8"/>
      </g>
     </g>
     <g id="text_1">
      <!-- 0 -->
      <g transform="translate(70.651477 322.182437) scale(0.1 -0.1)">
       <defs>
        <path id="DejaVuSans-30" d="M 2034 4250 
Q 1547 4250 1301 3770 
Q 1056 3291 1056 2328 
Q 1056 1369 1301 889 
Q 1547 409 2034 409 
Q 2525 409 2770 889 
Q 3016 1369 3016 2328 
Q 3016 3291 2770 3770 
Q 2525 4250 2034 4250 
z
M 2034 4750 
Q 2819 4750 3233 4129 
Q 3647 3509 3647 2328 
Q 3647 1150 3233 529 
Q 2819 -91 2034 -91 
Q 1250 -91 836 529 
Q 422 1150 422 2328 
Q 422 3509 836 4129 
Q 1250 4750 2034 4750 
z
" transform="scale(0.015625)"/>
       </defs>
       <use xlink:href="#DejaVuSans-30"/>
      </g>
     </g>
    </g>
    <g id="xtick_2">
     <g id="line2d_2">
      <g>
       <use xlink:href="#mf46f7818c1" x="143.203357" y="307.584" style="stroke: #000000; stroke-width: 0.8"/>
      </g>
     </g>
     <g id="text_2">
      <!-- 50 -->
      <g transform="translate(136.840857 322.182437) scale(0.1 -0.1)">
       <defs>
        <path id="DejaVuSans-35" d="M 691 4666 
L 3169 4666 
L 3169 4134 
L 1269 4134 
L 1269 2991 
Q 1406 3038 1543 3061 
Q 1681 3084 1819 3084 
Q 2600 3084 3056 2656 
Q 3513 2228 3513 1497 
Q 3513 744 3044 326 
Q 2575 -91 1722 -91 
Q 1428 -91 1123 -41 
Q 819 9 494 109 
L 494 744 
Q 775 591 1075 516 
Q 1375 441 1709 441 
Q 2250 441 2565 725 
Q 2881 1009 2881 1497 
Q 2881 1984 2565 2268 
Q 2250 2553 1709 2553 
Q 1456 2553 1204 2497 
Q 953 2441 691 2322 
L 691 4666 
z
" transform="scale(0.015625)"/>
       </defs>
       <use xlink:href="#DejaVuSans-35"/>
       <use xlink:href="#DejaVuSans-30" x="63.623047"/>
      </g>
     </g>
    </g>
    <g id="xtick_3">
     <g id="line2d_3">
      <g>
       <use xlink:href="#mf46f7818c1" x="212.573986" y="307.584" style="stroke: #000000; stroke-width: 0.8"/>
      </g>
     </g>
     <g id="text_3">
      <!-- 100 -->
      <g transform="translate(203.030236 322.182437) scale(0.1 -0.1)">
       <defs>
        <path id="DejaVuSans-31" d="M 794 531 
L 1825 531 
L 1825 4091 
L 703 3866 
L 703 4441 
L 1819 4666 
L 2450 4666 
L 2450 531 
L 3481 531 
L 3481 0 
L 794 0 
L 794 531 
z
" transform="scale(0.015625)"/>
       </defs>
       <use xlink:href="#DejaVuSans-31"/>
       <use xlink:href="#DejaVuSans-30" x="63.623047"/>
       <use xlink:href="#DejaVuSans-30" x="127.246094"/>
      </g>
     </g>
    </g>
    <g id="xtick_4">
     <g id="line2d_4">
      <g>
       <use xlink:href="#mf46f7818c1" x="281.944615" y="307.584" style="stroke: #000000; stroke-width: 0.8"/>
      </g>
     </g>
     <g id="text_4">
      <!-- 150 -->
      <g transform="translate(272.400865 322.182437) scale(0.1 -0.1)">
       <use xlink:href="#DejaVuSans-31"/>
       <use xlink:href="#DejaVuSans-35" x="63.623047"/>
       <use xlink:href="#DejaVuSans-30" x="127.246094"/>
      </g>
     </g>
    </g>
    <g id="xtick_5">
     <g id="line2d_5">
      <g>
       <use xlink:href="#mf46f7818c1" x="351.315245" y="307.584" style="stroke: #000000; stroke-width: 0.8"/>
      </g>
     </g>
     <g id="text_5">
      <!-- 200 -->
      <g transform="translate(341.771495 322.182437) scale(0.1 -0.1)">
       <defs>
        <path id="DejaVuSans-32" d="M 1228 531 
L 3431 531 
L 3431 0 
L 469 0 
L 469 531 
Q 828 903 1448 1529 
Q 2069 2156 2228 2338 
Q 2531 2678 2651 2914 
Q 2772 3150 2772 3378 
Q 2772 3750 2511 3984 
Q 2250 4219 1831 4219 
Q 1534 4219 1204 4116 
Q 875 4013 500 3803 
L 500 4441 
Q 881 4594 1212 4672 
Q 1544 4750 1819 4750 
Q 2544 4750 2975 4387 
Q 3406 4025 3406 3419 
Q 3406 3131 3298 2873 
Q 3191 2616 2906 2266 
Q 2828 2175 2409 1742 
Q 1991 1309 1228 531 
z
" transform="scale(0.015625)"/>
       </defs>
       <use xlink:href="#DejaVuSans-32"/>
       <use xlink:href="#DejaVuSans-30" x="63.623047"/>
       <use xlink:href="#DejaVuSans-30" x="127.246094"/>
      </g>
     </g>
    </g>
    <g id="text_6">
     <!-- Generations -->
     <g transform="translate(205.662344 335.860562) scale(0.1 -0.1)">
      <defs>
       <path id="DejaVuSans-47" d="M 3809 666 
L 3809 1919 
L 2778 1919 
L 2778 2438 
L 4434 2438 
L 4434 434 
Q 4069 175 3628 42 
Q 3188 -91 2688 -91 
Q 1594 -91 976 548 
Q 359 1188 359 2328 
Q 359 3472 976 4111 
Q 1594 4750 2688 4750 
Q 3144 4750 3555 4637 
Q 3966 4525 4313 4306 
L 4313 3634 
Q 3963 3931 3569 4081 
Q 3175 4231 2741 4231 
Q 1884 4231 1454 3753 
Q 1025 3275 1025 2328 
Q 1025 1384 1454 906 
Q 1884 428 2741 428 
Q 3075 428 3337 486 
Q 3600 544 3809 666 
z
" transform="scale(0.015625)"/>
       <path id="DejaVuSans-65" d="M 3597 1894 
L 3597 1613 
L 953 1613 
Q 991 1019 1311 708 
Q 1631 397 2203 397 
Q 2534 397 2845 478 
Q 3156 559 3463 722 
L 3463 178 
Q 3153 47 2828 -22 
Q 2503 -91 2169 -91 
Q 1331 -91 842 396 
Q 353 884 353 1716 
Q 353 2575 817 3079 
Q 1281 3584 2069 3584 
Q 2775 3584 3186 3129 
Q 3597 2675 3597 1894 
z
M 3022 2063 
Q 3016 2534 2758 2815 
Q 2500 3097 2075 3097 
Q 1594 3097 1305 2825 
Q 1016 2553 972 2059 
L 3022 2063 
z
" transform="scale(0.015625)"/>
       <path id="DejaVuSans-6e" d="M 3513 2113 
L 3513 0 
L 2938 0 
L 2938 2094 
Q 2938 2591 2744 2837 
Q 2550 3084 2163 3084 
Q 1697 3084 1428 2787 
Q 1159 2491 1159 1978 
L 1159 0 
L 581 0 
L 581 3500 
L 1159 3500 
L 1159 2956 
Q 1366 3272 1645 3428 
Q 1925 3584 2291 3584 
Q 2894 3584 3203 3211 
Q 3513 2838 3513 2113 
z
" transform="scale(0.015625)"/>
       <path id="DejaVuSans-72" d="M 2631 2963 
Q 2534 3019 2420 3045 
Q 2306 3072 2169 3072 
Q 1681 3072 1420 2755 
Q 1159 2438 1159 1844 
L 1159 0 
L 581 0 
L 581 3500 
L 1159 3500 
L 1159 2956 
Q 1341 3275 1631 3429 
Q 1922 3584 2338 3584 
Q 2397 3584 2469 3576 
Q 2541 3569 2628 3553 
L 2631 2963 
z
" transform="scale(0.015625)"/>
       <path id="DejaVuSans-61" d="M 2194 1759 
Q 1497 1759 1228 1600 
Q 959 1441 959 1056 
Q 959 750 1161 570 
Q 1363 391 1709 391 
Q 2188 391 2477 730 
Q 2766 1069 2766 1631 
L 2766 1759 
L 2194 1759 
z
M 3341 1997 
L 3341 0 
L 2766 0 
L 2766 531 
Q 2569 213 2275 61 
Q 1981 -91 1556 -91 
Q 1019 -91 701 211 
Q 384 513 384 1019 
Q 384 1609 779 1909 
Q 1175 2209 1959 2209 
L 2766 2209 
L 2766 2266 
Q 2766 2663 2505 2880 
Q 2244 3097 1772 3097 
Q 1472 3097 1187 3025 
Q 903 2953 641 2809 
L 641 3341 
Q 956 3463 1253 3523 
Q 1550 3584 1831 3584 
Q 2591 3584 2966 3190 
Q 3341 2797 3341 1997 
z
" transform="scale(0.015625)"/>
       <path id="DejaVuSans-74" d="M 1172 4494 
L 1172 3500 
L 2356 3500 
L 2356 3053 
L 1172 3053 
L 1172 1153 
Q 1172 725 1289 603 
Q 1406 481 1766 481 
L 2356 481 
L 2356 0 
L 1766 0 
Q 1100 0 847 248 
Q 594 497 594 1153 
L 594 3053 
L 172 3053 
L 172 3500 
L 594 3500 
L 594 4494 
L 1172 4494 
z
" transform="scale(0.015625)"/>
       <path id="DejaVuSans-69" d="M 603 3500 
L 1178 3500 
L 1178 0 
L 603 0 
L 603 3500 
z
M 603 4863 
L 1178 4863 
L 1178 4134 
L 603 4134 
L 603 4863 
z
" transform="scale(0.015625)"/>
       <path id="DejaVuSans-6f" d="M 1959 3097 
Q 1497 3097 1228 2736 
Q 959 2375 959 1747 
Q 959 1119 1226 758 
Q 1494 397 1959 397 
Q 2419 397 2687 759 
Q 2956 1122 2956 1747 
Q 2956 2369 2687 2733 
Q 2419 3097 1959 3097 
z
M 1959 3584 
Q 2709 3584 3137 3096 
Q 3566 2609 3566 1747 
Q 3566 888 3137 398 
Q 2709 -91 1959 -91 
Q 1206 -91 779 398 
Q 353 888 353 1747 
Q 353 2609 779 3096 
Q 1206 3584 1959 3584 
z
" transform="scale(0.015625)"/>
       <path id="DejaVuSans-73" d="M 2834 3397 
L 2834 2853 
Q 2591 2978 2328 3040 
Q 2066 3103 1784 3103 
Q 1356 3103 1142 2972 
Q 928 2841 928 2578 
Q 928 2378 1081 2264 
Q 1234 2150 1697 2047 
L 1894 2003 
Q 2506 1872 2764 1633 
Q 3022 1394 3022 966 
Q 3022 478 2636 193 
Q 2250 -91 1575 -91 
Q 1294 -91 989 -36 
Q 684 19 347 128 
L 347 722 
Q 666 556 975 473 
Q 1284 391 1588 391 
Q 1994 391 2212 530 
Q 2431 669 2431 922 
Q 2431 1156 2273 1281 
Q 2116 1406 1581 1522 
L 1381 1569 
Q 847 1681 609 1914 
Q 372 2147 372 2553 
Q 372 3047 722 3315 
Q 1072 3584 1716 3584 
Q 2034 3584 2315 3537 
Q 2597 3491 2834 3397 
z
" transform="scale(0.015625)"/>
      </defs>
      <use xlink:href="#DejaVuSans-47"/>
      <use xlink:href="#DejaVuSans-65" x="77.490234"/>
      <use xlink:href="#DejaVuSans-6e" x="139.013672"/>
      <use xlink:href="#DejaVuSans-65" x="202.392578"/>
      <use xlink:href="#DejaVuSans-72" x="263.916016"/>
      <use xlink:href="#DejaVuSans-61" x="305.029297"/>
      <use xlink:href="#DejaVuSans-74" x="366.308594"/>
      <use xlink:href="#DejaVuSans-69" x="405.517578"/>
      <use xlink:href="#DejaVuSans-6f" x="433.300781"/>
      <use xlink:href="#DejaVuSans-6e" x="494.482422"/>
      <use xlink:href="#DejaVuSans-73" x="557.861328"/>
     </g>
    </g>
   </g>
   <g id="matplotlib.axis_2">
    <g id="ytick_1">
     <g id="line2d_6">
      <defs>
       <path id="m002802cb2e" d="M 0 0 
L -3.5 0 
" style="stroke: #000000; stroke-width: 0.8"/>
      </defs>
      <g>
       <use xlink:href="#m002802cb2e" x="57.6" y="307.584" style="stroke: #000000; stroke-width: 0.8"/>
      </g>
     </g>
     <g id="text_7">
      <!-- 0 -->
      <g transform="translate(44.2375 311.383219) scale(0.1 -0.1)">
       <use xlink:href="#DejaVuSans-30"/>
      </g>
     </g>
    </g>
    <g id="ytick_2">
     <g id="line2d_7">
      <g>
       <use xlink:href="#m002802cb2e" x="57.6" y="257.397861" style="stroke: #000000; stroke-width: 0.8"/>
      </g>
     </g>
     <g id="text_8">
      <!-- 20 -->
      <g transform="translate(37.875 261.19708) scale(0.1 -0.1)">
       <use xlink:href="#DejaVuSans-32"/>
       <use xlink:href="#DejaVuSans-30" x="63.623047"/>
      </g>
     </g>
    </g>
    <g id="ytick_3">
     <g id="line2d_8">
      <g>
       <use xlink:href="#m002802cb2e" x="57.6" y="207.211723" style="stroke: #000000; stroke-width: 0.8"/>
      </g>
     </g>
     <g id="text_9">
      <!-- 40 -->
      <g transform="translate(37.875 211.010942) scale(0.1 -0.1)">
       <defs>
        <path id="DejaVuSans-34" d="M 2419 4116 
L 825 1625 
L 2419 1625 
L 2419 4116 
z
M 2253 4666 
L 3047 4666 
L 3047 1625 
L 3713 1625 
L 3713 1100 
L 3047 1100 
L 3047 0 
L 2419 0 
L 2419 1100 
L 313 1100 
L 313 1709 
L 2253 4666 
z
" transform="scale(0.015625)"/>
       </defs>
       <use xlink:href="#DejaVuSans-34"/>
       <use xlink:href="#DejaVuSans-30" x="63.623047"/>
      </g>
     </g>
    </g>
    <g id="ytick_4">
     <g id="line2d_9">
      <g>
       <use xlink:href="#m002802cb2e" x="57.6" y="157.025584" style="stroke: #000000; stroke-width: 0.8"/>
      </g>
     </g>
     <g id="text_10">
      <!-- 60 -->
      <g transform="translate(37.875 160.824803) scale(0.1 -0.1)">
       <defs>
        <path id="DejaVuSans-36" d="M 2113 2584 
Q 1688 2584 1439 2293 
Q 1191 2003 1191 1497 
Q 1191 994 1439 701 
Q 1688 409 2113 409 
Q 2538 409 2786 701 
Q 3034 994 3034 1497 
Q 3034 2003 2786 2293 
Q 2538 2584 2113 2584 
z
M 3366 4563 
L 3366 3988 
Q 3128 4100 2886 4159 
Q 2644 4219 2406 4219 
Q 1781 4219 1451 3797 
Q 1122 3375 1075 2522 
Q 1259 2794 1537 2939 
Q 1816 3084 2150 3084 
Q 2853 3084 3261 2657 
Q 3669 2231 3669 1497 
Q 3669 778 3244 343 
Q 2819 -91 2113 -91 
Q 1303 -91 875 529 
Q 447 1150 447 2328 
Q 447 3434 972 4092 
Q 1497 4750 2381 4750 
Q 2619 4750 2861 4703 
Q 3103 4656 3366 4563 
z
" transform="scale(0.015625)"/>
       </defs>
       <use xlink:href="#DejaVuSans-36"/>
       <use xlink:href="#DejaVuSans-30" x="63.623047"/>
      </g>
     </g>
    </g>
    <g id="ytick_5">
     <g id="line2d_10">
      <g>
       <use xlink:href="#m002802cb2e" x="57.6" y="106.839446" style="stroke: #000000; stroke-width: 0.8"/>
      </g>
     </g>
     <g id="text_11">
      <!-- 80 -->
      <g transform="translate(37.875 110.638664) scale(0.1 -0.1)">
       <defs>
        <path id="DejaVuSans-38" d="M 2034 2216 
Q 1584 2216 1326 1975 
Q 1069 1734 1069 1313 
Q 1069 891 1326 650 
Q 1584 409 2034 409 
Q 2484 409 2743 651 
Q 3003 894 3003 1313 
Q 3003 1734 2745 1975 
Q 2488 2216 2034 2216 
z
M 1403 2484 
Q 997 2584 770 2862 
Q 544 3141 544 3541 
Q 544 4100 942 4425 
Q 1341 4750 2034 4750 
Q 2731 4750 3128 4425 
Q 3525 4100 3525 3541 
Q 3525 3141 3298 2862 
Q 3072 2584 2669 2484 
Q 3125 2378 3379 2068 
Q 3634 1759 3634 1313 
Q 3634 634 3220 271 
Q 2806 -91 2034 -91 
Q 1263 -91 848 271 
Q 434 634 434 1313 
Q 434 1759 690 2068 
Q 947 2378 1403 2484 
z
M 1172 3481 
Q 1172 3119 1398 2916 
Q 1625 2713 2034 2713 
Q 2441 2713 2670 2916 
Q 2900 3119 2900 3481 
Q 2900 3844 2670 4047 
Q 2441 4250 2034 4250 
Q 1625 4250 1398 4047 
Q 1172 3844 1172 3481 
z
" transform="scale(0.015625)"/>
       </defs>
       <use xlink:href="#DejaVuSans-38"/>
       <use xlink:href="#DejaVuSans-30" x="63.623047"/>
      </g>
     </g>
    </g>
    <g id="ytick_6">
     <g id="line2d_11">
      <g>
       <use xlink:href="#m002802cb2e" x="57.6" y="56.653307" style="stroke: #000000; stroke-width: 0.8"/>
      </g>
     </g>
     <g id="text_12">
      <!-- 100 -->
      <g transform="translate(31.5125 60.452526) scale(0.1 -0.1)">
       <use xlink:href="#DejaVuSans-31"/>
       <use xlink:href="#DejaVuSans-30" x="63.623047"/>
       <use xlink:href="#DejaVuSans-30" x="127.246094"/>
      </g>
     </g>
    </g>
    <g id="text_13">
     <!-- Size per Species -->
     <g transform="translate(25.432812 215.520969) rotate(-90) scale(0.1 -0.1)">
      <defs>
       <path id="DejaVuSans-53" d="M 3425 4513 
L 3425 3897 
Q 3066 4069 2747 4153 
Q 2428 4238 2131 4238 
Q 1616 4238 1336 4038 
Q 1056 3838 1056 3469 
Q 1056 3159 1242 3001 
Q 1428 2844 1947 2747 
L 2328 2669 
Q 3034 2534 3370 2195 
Q 3706 1856 3706 1288 
Q 3706 609 3251 259 
Q 2797 -91 1919 -91 
Q 1588 -91 1214 -16 
Q 841 59 441 206 
L 441 856 
Q 825 641 1194 531 
Q 1563 422 1919 422 
Q 2459 422 2753 634 
Q 3047 847 3047 1241 
Q 3047 1584 2836 1778 
Q 2625 1972 2144 2069 
L 1759 2144 
Q 1053 2284 737 2584 
Q 422 2884 422 3419 
Q 422 4038 858 4394 
Q 1294 4750 2059 4750 
Q 2388 4750 2728 4690 
Q 3069 4631 3425 4513 
z
" transform="scale(0.015625)"/>
       <path id="DejaVuSans-7a" d="M 353 3500 
L 3084 3500 
L 3084 2975 
L 922 459 
L 3084 459 
L 3084 0 
L 275 0 
L 275 525 
L 2438 3041 
L 353 3041 
L 353 3500 
z
" transform="scale(0.015625)"/>
       <path id="DejaVuSans-20" transform="scale(0.015625)"/>
       <path id="DejaVuSans-70" d="M 1159 525 
L 1159 -1331 
L 581 -1331 
L 581 3500 
L 1159 3500 
L 1159 2969 
Q 1341 3281 1617 3432 
Q 1894 3584 2278 3584 
Q 2916 3584 3314 3078 
Q 3713 2572 3713 1747 
Q 3713 922 3314 415 
Q 2916 -91 2278 -91 
Q 1894 -91 1617 61 
Q 1341 213 1159 525 
z
M 3116 1747 
Q 3116 2381 2855 2742 
Q 2594 3103 2138 3103 
Q 1681 3103 1420 2742 
Q 1159 2381 1159 1747 
Q 1159 1113 1420 752 
Q 1681 391 2138 391 
Q 2594 391 2855 752 
Q 3116 1113 3116 1747 
z
" transform="scale(0.015625)"/>
       <path id="DejaVuSans-63" d="M 3122 3366 
L 3122 2828 
Q 2878 2963 2633 3030 
Q 2388 3097 2138 3097 
Q 1578 3097 1268 2742 
Q 959 2388 959 1747 
Q 959 1106 1268 751 
Q 1578 397 2138 397 
Q 2388 397 2633 464 
Q 2878 531 3122 666 
L 3122 134 
Q 2881 22 2623 -34 
Q 2366 -91 2075 -91 
Q 1284 -91 818 406 
Q 353 903 353 1747 
Q 353 2603 823 3093 
Q 1294 3584 2113 3584 
Q 2378 3584 2631 3529 
Q 2884 3475 3122 3366 
z
" transform="scale(0.015625)"/>
      </defs>
      <use xlink:href="#DejaVuSans-53"/>
      <use xlink:href="#DejaVuSans-69" x="63.476562"/>
      <use xlink:href="#DejaVuSans-7a" x="91.259766"/>
      <use xlink:href="#DejaVuSans-65" x="143.75"/>
      <use xlink:href="#DejaVuSans-20" x="205.273438"/>
      <use xlink:href="#DejaVuSans-70" x="237.060547"/>
      <use xlink:href="#DejaVuSans-65" x="300.537109"/>
      <use xlink:href="#DejaVuSans-72" x="362.060547"/>
      <use xlink:href="#DejaVuSans-20" x="403.173828"/>
      <use xlink:href="#DejaVuSans-53" x="434.960938"/>
      <use xlink:href="#DejaVuSans-70" x="498.4375"/>
      <use xlink:href="#DejaVuSans-65" x="561.914062"/>
      <use xlink:href="#DejaVuSans-63" x="623.4375"/>
      <use xlink:href="#DejaVuSans-69" x="678.417969"/>
      <use xlink:href="#DejaVuSans-65" x="706.201172"/>
      <use xlink:href="#DejaVuSans-73" x="767.724609"/>
     </g>
    </g>
   </g>
   <g id="patch_3">
    <path d="M 57.6 307.584 
L 57.6 41.472 
" style="fill: none; stroke: #000000; stroke-width: 0.8; stroke-linejoin: miter; stroke-linecap: square"/>
   </g>
   <g id="patch_4">
    <path d="M 414.72 307.584 
L 414.72 41.472 
" style="fill: none; stroke: #000000; stroke-width: 0.8; stroke-linejoin: miter; stroke-linecap: square"/>
   </g>
   <g id="patch_5">
    <path d="M 57.6 307.584 
L 414.72 307.584 
" style="fill: none; stroke: #000000; stroke-width: 0.8; stroke-linejoin: miter; stroke-linecap: square"/>
   </g>
   <g id="patch_6">
    <path d="M 57.6 41.472 
L 414.72 41.472 
" style="fill: none; stroke: #000000; stroke-width: 0.8; stroke-linejoin: miter; stroke-linecap: square"/>
   </g>
   <g id="text_14">
    <!-- Speciation -->
    <g transform="translate(204.714375 35.472) scale(0.12 -0.12)">
     <use xlink:href="#DejaVuSans-53"/>
     <use xlink:href="#DejaVuSans-70" x="63.476562"/>
     <use xlink:href="#DejaVuSans-65" x="126.953125"/>
     <use xlink:href="#DejaVuSans-63" x="188.476562"/>
     <use xlink:href="#DejaVuSans-69" x="243.457031"/>
     <use xlink:href="#DejaVuSans-61" x="271.240234"/>
     <use xlink:href="#DejaVuSans-74" x="332.519531"/>
     <use xlink:href="#DejaVuSans-69" x="371.728516"/>
     <use xlink:href="#DejaVuSans-6f" x="399.511719"/>
     <use xlink:href="#DejaVuSans-6e" x="460.693359"/>
    </g>
   </g>
  </g>
 </g>
 <defs>
  <clipPath id="pe2226e23e0">
   <rect x="57.6" y="41.472" width="357.12" height="266.112"/>
  </clipPath>
 </defs>
</svg>
