<?xml version="1.0" encoding="utf-8" standalone="no"?>
<!DOCTYPE svg PUBLIC "-//W3C//DTD SVG 1.1//EN"
  "http://www.w3.org/Graphics/SVG/1.1/DTD/svg11.dtd">
<svg xmlns:xlink="http://www.w3.org/1999/xlink" width="460.8pt" height="345.6pt" viewBox="0 0 460.8 345.6" xmlns="http://www.w3.org/2000/svg" version="1.1">
 <metadata>
  <rdf:RDF xmlns:dc="http://purl.org/dc/elements/1.1/" xmlns:cc="http://creativecommons.org/ns#" xmlns:rdf="http://www.w3.org/1999/02/22-rdf-syntax-ns#">
   <cc:Work>
    <dc:type rdf:resource="http://purl.org/dc/dcmitype/StillImage"/>
    <dc:date>2023-02-03T23:19:52.217611</dc:date>
    <dc:format>image/svg+xml</dc:format>
    <dc:creator>
     <cc:Agent>
      <dc:title>Matplotlib v3.6.2, https://matplotlib.org/</dc:title>
     </cc:Agent>
    </dc:creator>
   </cc:Work>
  </rdf:RDF>
 </metadata>
 <defs>
  <style type="text/css">*{stroke-linejoin: round; stroke-linecap: butt}</style>
 </defs>
 <g id="figure_1">
  <g id="patch_1">
   <path d="M 0 345.6 
L 460.8 345.6 
L 460.8 0 
L 0 0 
z
" style="fill: #ffffff"/>
  </g>
  <g id="axes_1">
   <g id="patch_2">
    <path d="M 57.6 307.584 
L 414.72 307.584 
L 414.72 41.472 
L 57.6 41.472 
z
" style="fill: #ffffff"/>
   </g>
   <g id="matplotlib.axis_1">
    <g id="xtick_1">
     <g id="line2d_1">
      <path d="M 73.832727 307.584 
L 73.832727 41.472 
" clip-path="url(#p243da3e531)" style="fill: none; stroke: #b0b0b0; stroke-width: 0.8; stroke-linecap: square"/>
     </g>
     <g id="line2d_2">
      <defs>
       <path id="maa4ab76f01" d="M 0 0 
L 0 3.5 
" style="stroke: #000000; stroke-width: 0.8"/>
      </defs>
      <g>
       <use xlink:href="#maa4ab76f01" x="73.832727" y="307.584" style="stroke: #000000; stroke-width: 0.8"/>
      </g>
     </g>
     <g id="text_1">
      <!-- 0 -->
      <g transform="translate(70.651477 322.182437) scale(0.1 -0.1)">
       <defs>
        <path id="DejaVuSans-30" d="M 2034 4250 
Q 1547 4250 1301 3770 
Q 1056 3291 1056 2328 
Q 1056 1369 1301 889 
Q 1547 409 2034 409 
Q 2525 409 2770 889 
Q 3016 1369 3016 2328 
Q 3016 3291 2770 3770 
Q 2525 4250 2034 4250 
z
M 2034 4750 
Q 2819 4750 3233 4129 
Q 3647 3509 3647 2328 
Q 3647 1150 3233 529 
Q 2819 -91 2034 -91 
Q 1250 -91 836 529 
Q 422 1150 422 2328 
Q 422 3509 836 4129 
Q 1250 4750 2034 4750 
z
" transform="scale(0.015625)"/>
       </defs>
       <use xlink:href="#DejaVuSans-30"/>
      </g>
     </g>
    </g>
    <g id="xtick_2">
     <g id="line2d_3">
      <path d="M 143.203357 307.584 
L 143.203357 41.472 
" clip-path="url(#p243da3e531)" style="fill: none; stroke: #b0b0b0; stroke-width: 0.8; stroke-linecap: square"/>
     </g>
     <g id="line2d_4">
      <g>
       <use xlink:href="#maa4ab76f01" x="143.203357" y="307.584" style="stroke: #000000; stroke-width: 0.8"/>
      </g>
     </g>
     <g id="text_2">
      <!-- 50 -->
      <g transform="translate(136.840857 322.182437) scale(0.1 -0.1)">
       <defs>
        <path id="DejaVuSans-35" d="M 691 4666 
L 3169 4666 
L 3169 4134 
L 1269 4134 
L 1269 2991 
Q 1406 3038 1543 3061 
Q 1681 3084 1819 3084 
Q 2600 3084 3056 2656 
Q 3513 2228 3513 1497 
Q 3513 744 3044 326 
Q 2575 -91 1722 -91 
Q 1428 -91 1123 -41 
Q 819 9 494 109 
L 494 744 
Q 775 591 1075 516 
Q 1375 441 1709 441 
Q 2250 441 2565 725 
Q 2881 1009 2881 1497 
Q 2881 1984 2565 2268 
Q 2250 2553 1709 2553 
Q 1456 2553 1204 2497 
Q 953 2441 691 2322 
L 691 4666 
z
" transform="scale(0.015625)"/>
       </defs>
       <use xlink:href="#DejaVuSans-35"/>
       <use xlink:href="#DejaVuSans-30" x="63.623047"/>
      </g>
     </g>
    </g>
    <g id="xtick_3">
     <g id="line2d_5">
      <path d="M 212.573986 307.584 
L 212.573986 41.472 
" clip-path="url(#p243da3e531)" style="fill: none; stroke: #b0b0b0; stroke-width: 0.8; stroke-linecap: square"/>
     </g>
     <g id="line2d_6">
      <g>
       <use xlink:href="#maa4ab76f01" x="212.573986" y="307.584" style="stroke: #000000; stroke-width: 0.8"/>
      </g>
     </g>
     <g id="text_3">
      <!-- 100 -->
      <g transform="translate(203.030236 322.182437) scale(0.1 -0.1)">
       <defs>
        <path id="DejaVuSans-31" d="M 794 531 
L 1825 531 
L 1825 4091 
L 703 3866 
L 703 4441 
L 1819 4666 
L 2450 4666 
L 2450 531 
L 3481 531 
L 3481 0 
L 794 0 
L 794 531 
z
" transform="scale(0.015625)"/>
       </defs>
       <use xlink:href="#DejaVuSans-31"/>
       <use xlink:href="#DejaVuSans-30" x="63.623047"/>
       <use xlink:href="#DejaVuSans-30" x="127.246094"/>
      </g>
     </g>
    </g>
    <g id="xtick_4">
     <g id="line2d_7">
      <path d="M 281.944615 307.584 
L 281.944615 41.472 
" clip-path="url(#p243da3e531)" style="fill: none; stroke: #b0b0b0; stroke-width: 0.8; stroke-linecap: square"/>
     </g>
     <g id="line2d_8">
      <g>
       <use xlink:href="#maa4ab76f01" x="281.944615" y="307.584" style="stroke: #000000; stroke-width: 0.8"/>
      </g>
     </g>
     <g id="text_4">
      <!-- 150 -->
      <g transform="translate(272.400865 322.182437) scale(0.1 -0.1)">
       <use xlink:href="#DejaVuSans-31"/>
       <use xlink:href="#DejaVuSans-35" x="63.623047"/>
       <use xlink:href="#DejaVuSans-30" x="127.246094"/>
      </g>
     </g>
    </g>
    <g id="xtick_5">
     <g id="line2d_9">
      <path d="M 351.315245 307.584 
L 351.315245 41.472 
" clip-path="url(#p243da3e531)" style="fill: none; stroke: #b0b0b0; stroke-width: 0.8; stroke-linecap: square"/>
     </g>
     <g id="line2d_10">
      <g>
       <use xlink:href="#maa4ab76f01" x="351.315245" y="307.584" style="stroke: #000000; stroke-width: 0.8"/>
      </g>
     </g>
     <g id="text_5">
      <!-- 200 -->
      <g transform="translate(341.771495 322.182437) scale(0.1 -0.1)">
       <defs>
        <path id="DejaVuSans-32" d="M 1228 531 
L 3431 531 
L 3431 0 
L 469 0 
L 469 531 
Q 828 903 1448 1529 
Q 2069 2156 2228 2338 
Q 2531 2678 2651 2914 
Q 2772 3150 2772 3378 
Q 2772 3750 2511 3984 
Q 2250 4219 1831 4219 
Q 1534 4219 1204 4116 
Q 875 4013 500 3803 
L 500 4441 
Q 881 4594 1212 4672 
Q 1544 4750 1819 4750 
Q 2544 4750 2975 4387 
Q 3406 4025 3406 3419 
Q 3406 3131 3298 2873 
Q 3191 2616 2906 2266 
Q 2828 2175 2409 1742 
Q 1991 1309 1228 531 
z
" transform="scale(0.015625)"/>
       </defs>
       <use xlink:href="#DejaVuSans-32"/>
       <use xlink:href="#DejaVuSans-30" x="63.623047"/>
       <use xlink:href="#DejaVuSans-30" x="127.246094"/>
      </g>
     </g>
    </g>
    <g id="text_6">
     <!-- Generations -->
     <g transform="translate(205.662344 335.860562) scale(0.1 -0.1)">
      <defs>
       <path id="DejaVuSans-47" d="M 3809 666 
L 3809 1919 
L 2778 1919 
L 2778 2438 
L 4434 2438 
L 4434 434 
Q 4069 175 3628 42 
Q 3188 -91 2688 -91 
Q 1594 -91 976 548 
Q 359 1188 359 2328 
Q 359 3472 976 4111 
Q 1594 4750 2688 4750 
Q 3144 4750 3555 4637 
Q 3966 4525 4313 4306 
L 4313 3634 
Q 3963 3931 3569 4081 
Q 3175 4231 2741 4231 
Q 1884 4231 1454 3753 
Q 1025 3275 1025 2328 
Q 1025 1384 1454 906 
Q 1884 428 2741 428 
Q 3075 428 3337 486 
Q 3600 544 3809 666 
z
" transform="scale(0.015625)"/>
       <path id="DejaVuSans-65" d="M 3597 1894 
L 3597 1613 
L 953 1613 
Q 991 1019 1311 708 
Q 1631 397 2203 397 
Q 2534 397 2845 478 
Q 3156 559 3463 722 
L 3463 178 
Q 3153 47 2828 -22 
Q 2503 -91 2169 -91 
Q 1331 -91 842 396 
Q 353 884 353 1716 
Q 353 2575 817 3079 
Q 1281 3584 2069 3584 
Q 2775 3584 3186 3129 
Q 3597 2675 3597 1894 
z
M 3022 2063 
Q 3016 2534 2758 2815 
Q 2500 3097 2075 3097 
Q 1594 3097 1305 2825 
Q 1016 2553 972 2059 
L 3022 2063 
z
" transform="scale(0.015625)"/>
       <path id="DejaVuSans-6e" d="M 3513 2113 
L 3513 0 
L 2938 0 
L 2938 2094 
Q 2938 2591 2744 2837 
Q 2550 3084 2163 3084 
Q 1697 3084 1428 2787 
Q 1159 2491 1159 1978 
L 1159 0 
L 581 0 
L 581 3500 
L 1159 3500 
L 1159 2956 
Q 1366 3272 1645 3428 
Q 1925 3584 2291 3584 
Q 2894 3584 3203 3211 
Q 3513 2838 3513 2113 
z
" transform="scale(0.015625)"/>
       <path id="DejaVuSans-72" d="M 2631 2963 
Q 2534 3019 2420 3045 
Q 2306 3072 2169 3072 
Q 1681 3072 1420 2755 
Q 1159 2438 1159 1844 
L 1159 0 
L 581 0 
L 581 3500 
L 1159 3500 
L 1159 2956 
Q 1341 3275 1631 3429 
Q 1922 3584 2338 3584 
Q 2397 3584 2469 3576 
Q 2541 3569 2628 3553 
L 2631 2963 
z
" transform="scale(0.015625)"/>
       <path id="DejaVuSans-61" d="M 2194 1759 
Q 1497 1759 1228 1600 
Q 959 1441 959 1056 
Q 959 750 1161 570 
Q 1363 391 1709 391 
Q 2188 391 2477 730 
Q 2766 1069 2766 1631 
L 2766 1759 
L 2194 1759 
z
M 3341 1997 
L 3341 0 
L 2766 0 
L 2766 531 
Q 2569 213 2275 61 
Q 1981 -91 1556 -91 
Q 1019 -91 701 211 
Q 384 513 384 1019 
Q 384 1609 779 1909 
Q 1175 2209 1959 2209 
L 2766 2209 
L 2766 2266 
Q 2766 2663 2505 2880 
Q 2244 3097 1772 3097 
Q 1472 3097 1187 3025 
Q 903 2953 641 2809 
L 641 3341 
Q 956 3463 1253 3523 
Q 1550 3584 1831 3584 
Q 2591 3584 2966 3190 
Q 3341 2797 3341 1997 
z
" transform="scale(0.015625)"/>
       <path id="DejaVuSans-74" d="M 1172 4494 
L 1172 3500 
L 2356 3500 
L 2356 3053 
L 1172 3053 
L 1172 1153 
Q 1172 725 1289 603 
Q 1406 481 1766 481 
L 2356 481 
L 2356 0 
L 1766 0 
Q 1100 0 847 248 
Q 594 497 594 1153 
L 594 3053 
L 172 3053 
L 172 3500 
L 594 3500 
L 594 4494 
L 1172 4494 
z
" transform="scale(0.015625)"/>
       <path id="DejaVuSans-69" d="M 603 3500 
L 1178 3500 
L 1178 0 
L 603 0 
L 603 3500 
z
M 603 4863 
L 1178 4863 
L 1178 4134 
L 603 4134 
L 603 4863 
z
" transform="scale(0.015625)"/>
       <path id="DejaVuSans-6f" d="M 1959 3097 
Q 1497 3097 1228 2736 
Q 959 2375 959 1747 
Q 959 1119 1226 758 
Q 1494 397 1959 397 
Q 2419 397 2687 759 
Q 2956 1122 2956 1747 
Q 2956 2369 2687 2733 
Q 2419 3097 1959 3097 
z
M 1959 3584 
Q 2709 3584 3137 3096 
Q 3566 2609 3566 1747 
Q 3566 888 3137 398 
Q 2709 -91 1959 -91 
Q 1206 -91 779 398 
Q 353 888 353 1747 
Q 353 2609 779 3096 
Q 1206 3584 1959 3584 
z
" transform="scale(0.015625)"/>
       <path id="DejaVuSans-73" d="M 2834 3397 
L 2834 2853 
Q 2591 2978 2328 3040 
Q 2066 3103 1784 3103 
Q 1356 3103 1142 2972 
Q 928 2841 928 2578 
Q 928 2378 1081 2264 
Q 1234 2150 1697 2047 
L 1894 2003 
Q 2506 1872 2764 1633 
Q 3022 1394 3022 966 
Q 3022 478 2636 193 
Q 2250 -91 1575 -91 
Q 1294 -91 989 -36 
Q 684 19 347 128 
L 347 722 
Q 666 556 975 473 
Q 1284 391 1588 391 
Q 1994 391 2212 530 
Q 2431 669 2431 922 
Q 2431 1156 2273 1281 
Q 2116 1406 1581 1522 
L 1381 1569 
Q 847 1681 609 1914 
Q 372 2147 372 2553 
Q 372 3047 722 3315 
Q 1072 3584 1716 3584 
Q 2034 3584 2315 3537 
Q 2597 3491 2834 3397 
z
" transform="scale(0.015625)"/>
      </defs>
      <use xlink:href="#DejaVuSans-47"/>
      <use xlink:href="#DejaVuSans-65" x="77.490234"/>
      <use xlink:href="#DejaVuSans-6e" x="139.013672"/>
      <use xlink:href="#DejaVuSans-65" x="202.392578"/>
      <use xlink:href="#DejaVuSans-72" x="263.916016"/>
      <use xlink:href="#DejaVuSans-61" x="305.029297"/>
      <use xlink:href="#DejaVuSans-74" x="366.308594"/>
      <use xlink:href="#DejaVuSans-69" x="405.517578"/>
      <use xlink:href="#DejaVuSans-6f" x="433.300781"/>
      <use xlink:href="#DejaVuSans-6e" x="494.482422"/>
      <use xlink:href="#DejaVuSans-73" x="557.861328"/>
     </g>
    </g>
   </g>
   <g id="matplotlib.axis_2">
    <g id="ytick_1">
     <g id="line2d_11">
      <path d="M 57.6 295.488 
L 414.72 295.488 
" clip-path="url(#p243da3e531)" style="fill: none; stroke: #b0b0b0; stroke-width: 0.8; stroke-linecap: square"/>
     </g>
     <g id="line2d_12">
      <defs>
       <path id="m08f5e42a0b" d="M 0 0 
L -3.5 0 
" style="stroke: #000000; stroke-width: 0.8"/>
      </defs>
      <g>
       <use xlink:href="#m08f5e42a0b" x="57.6" y="295.488" style="stroke: #000000; stroke-width: 0.8"/>
      </g>
     </g>
     <g id="text_7">
      <!-- 0 -->
      <g transform="translate(44.2375 299.287219) scale(0.1 -0.1)">
       <use xlink:href="#DejaVuSans-30"/>
      </g>
     </g>
    </g>
    <g id="ytick_2">
     <g id="line2d_13">
      <path d="M 57.6 257.251476 
L 414.72 257.251476 
" clip-path="url(#p243da3e531)" style="fill: none; stroke: #b0b0b0; stroke-width: 0.8; stroke-linecap: square"/>
     </g>
     <g id="line2d_14">
      <g>
       <use xlink:href="#m08f5e42a0b" x="57.6" y="257.251476" style="stroke: #000000; stroke-width: 0.8"/>
      </g>
     </g>
     <g id="text_8">
      <!-- 500 -->
      <g transform="translate(31.5125 261.050695) scale(0.1 -0.1)">
       <use xlink:href="#DejaVuSans-35"/>
       <use xlink:href="#DejaVuSans-30" x="63.623047"/>
       <use xlink:href="#DejaVuSans-30" x="127.246094"/>
      </g>
     </g>
    </g>
    <g id="ytick_3">
     <g id="line2d_15">
      <path d="M 57.6 219.014953 
L 414.72 219.014953 
" clip-path="url(#p243da3e531)" style="fill: none; stroke: #b0b0b0; stroke-width: 0.8; stroke-linecap: square"/>
     </g>
     <g id="line2d_16">
      <g>
       <use xlink:href="#m08f5e42a0b" x="57.6" y="219.014953" style="stroke: #000000; stroke-width: 0.8"/>
      </g>
     </g>
     <g id="text_9">
      <!-- 1000 -->
      <g transform="translate(25.15 222.814171) scale(0.1 -0.1)">
       <use xlink:href="#DejaVuSans-31"/>
       <use xlink:href="#DejaVuSans-30" x="63.623047"/>
       <use xlink:href="#DejaVuSans-30" x="127.246094"/>
       <use xlink:href="#DejaVuSans-30" x="190.869141"/>
      </g>
     </g>
    </g>
    <g id="ytick_4">
     <g id="line2d_17">
      <path d="M 57.6 180.778429 
L 414.72 180.778429 
" clip-path="url(#p243da3e531)" style="fill: none; stroke: #b0b0b0; stroke-width: 0.8; stroke-linecap: square"/>
     </g>
     <g id="line2d_18">
      <g>
       <use xlink:href="#m08f5e42a0b" x="57.6" y="180.778429" style="stroke: #000000; stroke-width: 0.8"/>
      </g>
     </g>
     <g id="text_10">
      <!-- 1500 -->
      <g transform="translate(25.15 184.577648) scale(0.1 -0.1)">
       <use xlink:href="#DejaVuSans-31"/>
       <use xlink:href="#DejaVuSans-35" x="63.623047"/>
       <use xlink:href="#DejaVuSans-30" x="127.246094"/>
       <use xlink:href="#DejaVuSans-30" x="190.869141"/>
      </g>
     </g>
    </g>
    <g id="ytick_5">
     <g id="line2d_19">
      <path d="M 57.6 142.541905 
L 414.72 142.541905 
" clip-path="url(#p243da3e531)" style="fill: none; stroke: #b0b0b0; stroke-width: 0.8; stroke-linecap: square"/>
     </g>
     <g id="line2d_20">
      <g>
       <use xlink:href="#m08f5e42a0b" x="57.6" y="142.541905" style="stroke: #000000; stroke-width: 0.8"/>
      </g>
     </g>
     <g id="text_11">
      <!-- 2000 -->
      <g transform="translate(25.15 146.341124) scale(0.1 -0.1)">
       <use xlink:href="#DejaVuSans-32"/>
       <use xlink:href="#DejaVuSans-30" x="63.623047"/>
       <use xlink:href="#DejaVuSans-30" x="127.246094"/>
       <use xlink:href="#DejaVuSans-30" x="190.869141"/>
      </g>
     </g>
    </g>
    <g id="ytick_6">
     <g id="line2d_21">
      <path d="M 57.6 104.305382 
L 414.72 104.305382 
" clip-path="url(#p243da3e531)" style="fill: none; stroke: #b0b0b0; stroke-width: 0.8; stroke-linecap: square"/>
     </g>
     <g id="line2d_22">
      <g>
       <use xlink:href="#m08f5e42a0b" x="57.6" y="104.305382" style="stroke: #000000; stroke-width: 0.8"/>
      </g>
     </g>
     <g id="text_12">
      <!-- 2500 -->
      <g transform="translate(25.15 108.1046) scale(0.1 -0.1)">
       <use xlink:href="#DejaVuSans-32"/>
       <use xlink:href="#DejaVuSans-35" x="63.623047"/>
       <use xlink:href="#DejaVuSans-30" x="127.246094"/>
       <use xlink:href="#DejaVuSans-30" x="190.869141"/>
      </g>
     </g>
    </g>
    <g id="ytick_7">
     <g id="line2d_23">
      <path d="M 57.6 66.068858 
L 414.72 66.068858 
" clip-path="url(#p243da3e531)" style="fill: none; stroke: #b0b0b0; stroke-width: 0.8; stroke-linecap: square"/>
     </g>
     <g id="line2d_24">
      <g>
       <use xlink:href="#m08f5e42a0b" x="57.6" y="66.068858" style="stroke: #000000; stroke-width: 0.8"/>
      </g>
     </g>
     <g id="text_13">
      <!-- 3000 -->
      <g transform="translate(25.15 69.868077) scale(0.1 -0.1)">
       <defs>
        <path id="DejaVuSans-33" d="M 2597 2516 
Q 3050 2419 3304 2112 
Q 3559 1806 3559 1356 
Q 3559 666 3084 287 
Q 2609 -91 1734 -91 
Q 1441 -91 1130 -33 
Q 819 25 488 141 
L 488 750 
Q 750 597 1062 519 
Q 1375 441 1716 441 
Q 2309 441 2620 675 
Q 2931 909 2931 1356 
Q 2931 1769 2642 2001 
Q 2353 2234 1838 2234 
L 1294 2234 
L 1294 2753 
L 1863 2753 
Q 2328 2753 2575 2939 
Q 2822 3125 2822 3475 
Q 2822 3834 2567 4026 
Q 2313 4219 1838 4219 
Q 1578 4219 1281 4162 
Q 984 4106 628 3988 
L 628 4550 
Q 988 4650 1302 4700 
Q 1616 4750 1894 4750 
Q 2613 4750 3031 4423 
Q 3450 4097 3450 3541 
Q 3450 3153 3228 2886 
Q 3006 2619 2597 2516 
z
" transform="scale(0.015625)"/>
       </defs>
       <use xlink:href="#DejaVuSans-33"/>
       <use xlink:href="#DejaVuSans-30" x="63.623047"/>
       <use xlink:href="#DejaVuSans-30" x="127.246094"/>
       <use xlink:href="#DejaVuSans-30" x="190.869141"/>
      </g>
     </g>
    </g>
    <g id="text_14">
     <!-- Fitness -->
     <g transform="translate(19.070312 191.845187) rotate(-90) scale(0.1 -0.1)">
      <defs>
       <path id="DejaVuSans-46" d="M 628 4666 
L 3309 4666 
L 3309 4134 
L 1259 4134 
L 1259 2759 
L 3109 2759 
L 3109 2228 
L 1259 2228 
L 1259 0 
L 628 0 
L 628 4666 
z
" transform="scale(0.015625)"/>
      </defs>
      <use xlink:href="#DejaVuSans-46"/>
      <use xlink:href="#DejaVuSans-69" x="50.269531"/>
      <use xlink:href="#DejaVuSans-74" x="78.052734"/>
      <use xlink:href="#DejaVuSans-6e" x="117.261719"/>
      <use xlink:href="#DejaVuSans-65" x="180.640625"/>
      <use xlink:href="#DejaVuSans-73" x="242.164062"/>
      <use xlink:href="#DejaVuSans-73" x="294.263672"/>
     </g>
    </g>
   </g>
   <g id="line2d_25">
    <path d="M 73.832727 295.488 
L 79.382378 295.383945 
L 80.76979 295.308419 
L 82.157203 295.379494 
L 89.094266 294.361358 
L 90.481678 293.520127 
L 91.869091 293.50555 
L 93.256503 293.181639 
L 94.643916 293.01393 
L 97.418741 292.415687 
L 100.193566 290.714641 
L 101.580979 289.059154 
L 102.968392 289.738876 
L 104.355804 287.902527 
L 105.743217 286.718666 
L 107.130629 287.687616 
L 108.518042 287.2827 
L 109.905455 286.486761 
L 111.292867 284.700422 
L 112.68028 283.583741 
L 114.067692 284.292244 
L 115.455105 281.863663 
L 116.842517 282.578315 
L 118.22993 279.3295 
L 119.617343 280.156856 
L 121.004755 276.176445 
L 122.392168 274.895337 
L 123.77958 271.985745 
L 125.166993 272.499494 
L 126.554406 270.460761 
L 127.941818 270.271709 
L 129.329231 269.584455 
L 130.716643 270.713292 
L 132.104056 268.026791 
L 133.491469 263.695177 
L 134.878881 266.068302 
L 136.266294 264.310242 
L 137.653706 262.087836 
L 139.041119 259.113254 
L 140.428531 260.906917 
L 141.815944 256.833252 
L 143.203357 256.891923 
L 144.590769 255.896905 
L 145.978182 256.86299 
L 147.365594 255.511056 
L 148.753007 252.68018 
L 150.14042 252.305813 
L 151.527832 253.188758 
L 152.915245 250.718378 
L 154.302657 248.596706 
L 155.69007 247.48716 
L 157.077483 245.89939 
L 158.464895 247.582679 
L 159.852308 246.134283 
L 161.23972 243.256979 
L 162.627133 241.329762 
L 164.014545 240.433551 
L 165.401958 239.740222 
L 166.789371 237.027489 
L 168.176783 238.736777 
L 169.564196 236.039654 
L 170.951608 234.990249 
L 172.339021 235.284846 
L 173.726434 233.475662 
L 175.113846 235.306878 
L 176.501259 231.605312 
L 177.888671 230.754829 
L 179.276084 231.068003 
L 180.663497 229.334429 
L 182.050909 226.833914 
L 183.438322 227.182394 
L 184.825734 226.149751 
L 186.213147 224.805891 
L 187.600559 223.014687 
L 188.987972 221.994265 
L 190.375385 219.897204 
L 191.762797 218.265699 
L 193.15021 221.164803 
L 194.537622 219.612871 
L 195.925035 214.684932 
L 197.312448 214.809189 
L 198.69986 216.055233 
L 200.087273 212.586277 
L 201.474685 212.09419 
L 204.24951 212.748787 
L 205.636923 209.691823 
L 207.024336 206.925498 
L 208.411748 207.845562 
L 211.186573 206.10784 
L 212.573986 205.642184 
L 213.961399 204.864147 
L 215.348811 202.409626 
L 216.736224 200.250119 
L 218.123636 199.407848 
L 219.511049 200.380234 
L 220.898462 198.530644 
L 222.285874 194.496007 
L 223.673287 193.933539 
L 225.060699 194.985069 
L 226.448112 194.453128 
L 227.835524 193.652507 
L 229.222937 192.080225 
L 230.61035 189.322491 
L 231.997762 190.829326 
L 233.385175 190.308694 
L 234.772587 186.963456 
L 236.16 188.891419 
L 237.547413 184.834324 
L 238.934825 183.067572 
L 240.322238 186.274818 
L 241.70965 182.160461 
L 243.097063 182.741718 
L 244.484476 181.809267 
L 245.871888 180.336855 
L 247.259301 179.476339 
L 251.421538 176.433953 
L 252.808951 173.855583 
L 254.196364 171.764226 
L 255.583776 172.012564 
L 256.971189 169.984307 
L 258.358601 169.393367 
L 259.746014 168.618289 
L 261.133427 167.323063 
L 262.520839 167.001426 
L 263.908252 165.558702 
L 265.295664 163.860234 
L 266.683077 163.414178 
L 268.07049 161.008614 
L 269.457902 160.582855 
L 270.845315 158.584581 
L 272.232727 159.117463 
L 275.007552 156.60913 
L 276.394965 155.865736 
L 277.782378 152.844329 
L 279.16979 153.913939 
L 280.557203 153.125143 
L 281.944615 151.1971 
L 283.332028 149.840376 
L 284.719441 148.703091 
L 286.106853 149.759613 
L 288.881678 148.192208 
L 290.269091 146.231022 
L 291.656503 143.97006 
L 293.043916 144.337056 
L 294.431329 142.255697 
L 295.818741 142.588477 
L 297.206154 139.775339 
L 298.593566 139.945091 
L 299.980979 139.413824 
L 301.368392 138.119241 
L 302.755804 137.554215 
L 304.143217 135.897367 
L 305.530629 135.904952 
L 306.918042 133.721558 
L 308.305455 134.648774 
L 311.08028 129.791572 
L 312.467692 130.599437 
L 313.855105 128.954728 
L 315.242517 125.426315 
L 316.62993 126.558483 
L 318.017343 123.462255 
L 319.404755 122.507342 
L 320.792168 124.309217 
L 322.17958 123.218765 
L 323.566993 121.684841 
L 324.954406 118.196761 
L 326.341818 118.630402 
L 327.729231 115.413989 
L 329.116643 115.265718 
L 330.504056 116.096466 
L 333.278881 113.084719 
L 334.666294 114.995998 
L 336.053706 110.315892 
L 337.441119 110.556027 
L 340.215944 110.023187 
L 341.603357 107.734634 
L 342.990769 105.048727 
L 344.378182 104.240551 
L 345.765594 104.826431 
L 347.153007 103.202813 
L 348.54042 102.620165 
L 349.927832 101.009842 
L 351.315245 100.321535 
L 352.702657 99.400838 
L 355.477483 97.902196 
L 356.864895 96.223189 
L 358.252308 96.371463 
L 359.63972 94.361961 
L 361.027133 94.505442 
L 362.414545 90.043868 
L 363.801958 90.661595 
L 365.189371 90.878816 
L 366.576783 87.33814 
L 367.964196 86.7527 
L 369.351608 87.505764 
L 370.739021 86.201131 
L 372.126434 86.352944 
L 373.513846 83.224329 
L 374.901259 82.197119 
L 376.288671 83.332076 
L 377.676084 80.731791 
L 379.063497 81.057655 
L 380.450909 80.2738 
L 381.838322 77.362042 
L 383.225734 75.771634 
L 384.613147 75.520678 
L 386.000559 76.656546 
L 387.387972 72.402437 
L 388.775385 74.279829 
L 390.162797 72.924102 
L 391.55021 70.802473 
L 392.937622 71.546605 
L 394.325035 69.609997 
L 395.712448 70.364546 
L 398.487273 65.397864 
L 398.487273 65.397864 
" clip-path="url(#p243da3e531)" style="fill: none; stroke: #0000ff; stroke-width: 1.5; stroke-linecap: square"/>
   </g>
   <g id="line2d_26">
    <path d="M 73.832727 295.488 
L 76.607552 295.385143 
L 77.994965 295.094782 
L 79.382378 294.958827 
L 80.76979 294.525084 
L 82.157203 294.937081 
L 84.932028 293.510422 
L 86.319441 293.208481 
L 87.706853 292.73074 
L 89.094266 292.662327 
L 90.481678 291.340827 
L 91.869091 291.026078 
L 93.256503 290.400208 
L 94.643916 290.048105 
L 97.418741 288.098114 
L 100.193566 285.155616 
L 101.580979 282.811464 
L 102.968392 283.539789 
L 104.355804 281.573871 
L 105.743217 280.743562 
L 107.130629 281.363039 
L 109.905455 280.086404 
L 111.292867 278.196016 
L 112.68028 276.88771 
L 114.067692 277.847905 
L 115.455105 274.744126 
L 116.842517 275.601897 
L 118.22993 271.987261 
L 119.617343 272.110099 
L 121.004755 266.821686 
L 122.392168 265.594933 
L 123.77958 262.259238 
L 125.166993 262.121138 
L 126.554406 260.381263 
L 127.941818 260.103642 
L 129.329231 259.302717 
L 130.716643 260.653227 
L 132.104056 257.936621 
L 133.491469 253.89209 
L 134.878881 255.563757 
L 136.266294 254.211693 
L 139.041119 250.317063 
L 140.428531 251.140445 
L 141.815944 248.494772 
L 143.203357 247.224245 
L 144.590769 246.859209 
L 145.978182 246.657805 
L 147.365594 245.510502 
L 148.753007 243.261469 
L 150.14042 242.43586 
L 151.527832 243.695018 
L 154.302657 239.208158 
L 155.69007 237.604323 
L 157.077483 236.188467 
L 158.464895 237.40833 
L 159.852308 235.961147 
L 161.23972 233.439217 
L 162.627133 232.158086 
L 164.014545 230.632011 
L 165.401958 230.344169 
L 166.789371 227.757787 
L 168.176783 228.67003 
L 169.564196 226.61156 
L 170.951608 225.761301 
L 172.339021 225.176755 
L 173.726434 223.712194 
L 175.113846 224.840834 
L 176.501259 222.379159 
L 177.888671 221.204906 
L 179.276084 221.001842 
L 180.663497 219.158715 
L 182.050909 217.611213 
L 183.438322 217.014223 
L 184.825734 216.248111 
L 186.213147 214.692093 
L 187.600559 213.852882 
L 191.762797 209.357091 
L 193.15021 210.92582 
L 194.537622 209.336065 
L 195.925035 206.188282 
L 197.312448 205.179707 
L 198.69986 206.564255 
L 200.087273 203.169524 
L 201.474685 202.282902 
L 202.862098 202.10406 
L 204.24951 202.376824 
L 205.636923 199.559221 
L 207.024336 198.492719 
L 208.411748 198.075042 
L 209.799161 197.261624 
L 211.186573 196.037912 
L 213.961399 194.797955 
L 215.348811 192.37726 
L 216.736224 190.694378 
L 218.123636 189.934112 
L 219.511049 190.297344 
L 220.898462 189.05097 
L 222.285874 186.159671 
L 223.673287 185.052458 
L 225.060699 185.032537 
L 226.448112 184.299679 
L 227.835524 183.313296 
L 229.222937 182.111412 
L 230.61035 179.576397 
L 231.997762 180.938148 
L 233.385175 179.692047 
L 234.772587 177.459431 
L 236.16 178.536186 
L 237.547413 175.126283 
L 238.934825 173.911012 
L 240.322238 175.937271 
L 241.70965 172.497401 
L 243.097063 172.611209 
L 244.484476 171.266606 
L 247.259301 169.379087 
L 248.646713 168.217761 
L 250.034126 167.449396 
L 251.421538 165.961919 
L 252.808951 164.248835 
L 254.196364 162.825174 
L 255.583776 161.893905 
L 256.971189 160.698326 
L 258.358601 159.911209 
L 259.746014 158.62499 
L 261.133427 157.494138 
L 262.520839 157.501757 
L 265.295664 154.215382 
L 266.683077 153.628331 
L 268.07049 151.93634 
L 269.457902 151.037527 
L 270.845315 149.081814 
L 272.232727 149.229208 
L 273.62014 148.179969 
L 275.007552 146.64334 
L 276.394965 146.197456 
L 277.782378 144.045297 
L 279.16979 143.907734 
L 280.557203 143.288263 
L 281.944615 141.42169 
L 283.332028 140.734734 
L 284.719441 139.438311 
L 286.106853 139.775601 
L 287.494266 138.802041 
L 288.881678 137.965023 
L 290.269091 136.366913 
L 291.656503 134.119929 
L 293.043916 133.839627 
L 294.431329 132.280611 
L 295.818741 132.756976 
L 297.206154 130.286154 
L 298.593566 129.921097 
L 299.980979 129.11951 
L 302.755804 127.207308 
L 304.143217 125.867084 
L 305.530629 125.799932 
L 306.918042 123.84056 
L 308.305455 124.428554 
L 309.692867 122.733024 
L 311.08028 120.441694 
L 312.467692 120.613286 
L 313.855105 118.887163 
L 315.242517 116.294454 
L 316.62993 116.468977 
L 318.017343 114.538547 
L 319.404755 113.716936 
L 320.792168 114.164038 
L 322.17958 113.021711 
L 323.566993 111.664891 
L 324.954406 109.248319 
L 326.341818 108.907347 
L 327.729231 106.180304 
L 329.116643 105.68092 
L 330.504056 106.133616 
L 331.891469 104.678578 
L 333.278881 103.680838 
L 334.666294 104.440778 
L 336.053706 100.715322 
L 337.441119 100.964748 
L 338.828531 99.861216 
L 340.215944 99.615893 
L 342.990769 95.649792 
L 344.378182 94.980216 
L 345.765594 94.489859 
L 347.153007 93.610124 
L 349.927832 91.053919 
L 351.315245 90.328352 
L 352.702657 89.452887 
L 354.09007 88.437972 
L 355.477483 87.985784 
L 356.864895 86.379936 
L 358.252308 86.223061 
L 359.63972 84.056117 
L 361.027133 84.12241 
L 362.414545 80.643257 
L 365.189371 80.961974 
L 366.576783 77.684841 
L 367.964196 76.832157 
L 369.351608 77.611169 
L 370.739021 75.994667 
L 372.126434 75.9904 
L 373.513846 73.407466 
L 374.901259 72.598177 
L 376.288671 72.960335 
L 377.676084 70.652202 
L 379.063497 70.95833 
L 380.450909 70.314394 
L 381.838322 67.205747 
L 383.225734 66.375199 
L 384.613147 65.843541 
L 386.000559 66.423816 
L 387.387972 63.094424 
L 388.775385 64.192541 
L 390.162797 62.539136 
L 391.55021 61.062048 
L 392.937622 61.293623 
L 394.325035 59.697545 
L 395.712448 59.925437 
L 398.487273 55.513619 
L 398.487273 55.513619 
" clip-path="url(#p243da3e531)" style="fill: none; stroke-dasharray: 9.6,2.4,1.5,2.4; stroke-dashoffset: 0; stroke: #008000; stroke-width: 1.5"/>
   </g>
   <g id="line2d_27">
    <path d="M 73.832727 295.488 
L 75.22014 295.341936 
L 76.607552 294.655147 
L 77.994965 292.454513 
L 79.382378 293.006335 
L 80.76979 289.690127 
L 82.157203 292.661617 
L 83.544615 289.989527 
L 84.932028 288.987814 
L 86.319441 286.297599 
L 87.706853 284.870306 
L 89.094266 288.155382 
L 90.481678 286.189696 
L 91.869091 287.105629 
L 93.256503 285.811896 
L 94.643916 283.625279 
L 96.031329 282.045767 
L 97.418741 278.5186 
L 98.806154 280.185162 
L 100.193566 277.05223 
L 101.580979 277.086237 
L 102.968392 278.511159 
L 104.355804 276.427246 
L 105.743217 276.950306 
L 107.130629 266.843774 
L 108.518042 269.422827 
L 109.905455 269.15248 
L 111.292867 272.123526 
L 112.68028 269.370351 
L 114.067692 268.090804 
L 115.455105 265.475334 
L 116.842517 261.854764 
L 118.22993 262.235745 
L 119.617343 263.246459 
L 121.004755 260.303852 
L 122.392168 259.86739 
L 123.77958 258.450513 
L 125.166993 254.519117 
L 126.554406 257.645901 
L 129.329231 255.663284 
L 132.104056 253.741692 
L 133.491469 252.052066 
L 134.878881 251.351841 
L 136.266294 250.05394 
L 137.653706 249.157722 
L 139.041119 247.648152 
L 143.203357 244.584251 
L 145.978182 243.105943 
L 147.365594 241.455961 
L 148.753007 238.142972 
L 150.14042 241.380084 
L 151.527832 241.598185 
L 152.915245 238.0181 
L 154.302657 236.393835 
L 155.69007 235.147844 
L 157.077483 233.725927 
L 158.464895 231.843276 
L 159.852308 232.019041 
L 161.23972 231.558253 
L 162.627133 229.05253 
L 164.014545 229.770038 
L 165.401958 228.223126 
L 166.789371 226.426606 
L 168.176783 226.922732 
L 169.564196 224.482355 
L 170.951608 224.127099 
L 172.339021 222.353498 
L 173.726434 221.856072 
L 175.113846 221.70568 
L 176.501259 220.350034 
L 177.888671 217.014655 
L 179.276084 219.088566 
L 180.663497 216.487434 
L 182.050909 215.032496 
L 183.438322 215.312418 
L 184.825734 213.684896 
L 186.213147 211.855217 
L 187.600559 212.715784 
L 188.987972 209.847715 
L 190.375385 208.544707 
L 191.762797 209.586988 
L 193.15021 206.354335 
L 194.537622 206.04959 
L 195.925035 203.325 
L 197.312448 203.32302 
L 198.69986 204.804632 
L 200.087273 202.622878 
L 201.474685 201.545541 
L 202.862098 198.555162 
L 204.24951 198.583802 
L 205.636923 198.175963 
L 207.024336 195.937735 
L 208.411748 196.076556 
L 209.799161 193.976629 
L 211.186573 192.445111 
L 212.573986 193.363201 
L 213.961399 192.670217 
L 215.348811 190.820961 
L 216.736224 189.169556 
L 218.123636 188.257569 
L 220.898462 185.286936 
L 222.285874 185.833672 
L 223.673287 183.580363 
L 225.060699 183.415281 
L 226.448112 182.058159 
L 229.222937 177.011871 
L 230.61035 177.546686 
L 233.385175 176.337677 
L 236.16 175.327384 
L 237.547413 172.676691 
L 238.934825 173.227197 
L 240.322238 172.842354 
L 241.70965 170.72048 
L 243.097063 170.403583 
L 244.484476 168.641935 
L 245.871888 168.488101 
L 247.259301 166.753249 
L 248.646713 165.244673 
L 250.034126 165.296896 
L 251.421538 164.261849 
L 252.808951 162.506165 
L 254.196364 162.302839 
L 255.583776 159.544678 
L 256.971189 159.075386 
L 258.358601 158.369333 
L 259.746014 156.949343 
L 261.133427 154.911566 
L 262.520839 153.868022 
L 263.908252 154.014568 
L 265.295664 153.090506 
L 268.07049 150.659955 
L 270.845315 148.553582 
L 272.232727 148.855375 
L 273.62014 146.104402 
L 275.007552 142.885032 
L 276.394965 140.529647 
L 277.782378 142.922037 
L 279.16979 140.518964 
L 280.557203 140.469463 
L 281.944615 139.088512 
L 283.332028 139.357025 
L 284.719441 137.706285 
L 286.106853 137.556383 
L 287.494266 134.725909 
L 288.881678 133.342572 
L 290.269091 133.653129 
L 291.656503 131.267354 
L 293.043916 129.7485 
L 294.431329 130.579135 
L 295.818741 128.253995 
L 297.206154 128.979816 
L 298.593566 127.678757 
L 299.980979 125.165026 
L 301.368392 125.4074 
L 302.755804 122.727287 
L 304.143217 123.124045 
L 305.530629 121.699788 
L 306.918042 121.63165 
L 308.305455 120.619675 
L 309.692867 120.822053 
L 312.467692 117.161663 
L 313.855105 115.198424 
L 315.242517 116.372813 
L 316.62993 113.998401 
L 318.017343 111.959622 
L 319.404755 112.296479 
L 320.792168 111.073629 
L 322.17958 108.656874 
L 323.566993 108.715399 
L 324.954406 109.12196 
L 326.341818 105.989471 
L 327.729231 103.7937 
L 329.116643 103.346058 
L 330.504056 103.313518 
L 334.666294 101.494332 
L 336.053706 98.665043 
L 337.441119 97.359006 
L 338.828531 96.574805 
L 341.603357 93.680966 
L 342.990769 94.731361 
L 344.378182 92.884002 
L 345.765594 91.66054 
L 348.54042 90.21403 
L 349.927832 87.370096 
L 351.315245 87.022932 
L 352.702657 87.900988 
L 355.477483 84.060098 
L 356.864895 83.215323 
L 358.252308 82.892125 
L 359.63972 80.020929 
L 361.027133 82.141787 
L 362.414545 79.40952 
L 363.801958 79.177883 
L 365.189371 76.927526 
L 366.576783 75.976415 
L 367.964196 73.507406 
L 370.739021 73.062731 
L 372.126434 73.809689 
L 373.513846 71.076305 
L 374.901259 70.521539 
L 376.288671 68.927367 
L 377.676084 67.849426 
L 379.063497 67.206502 
L 380.450909 66.787085 
L 381.838322 65.27984 
L 383.225734 64.79367 
L 384.613147 62.092175 
L 386.000559 62.70734 
L 387.387972 61.723308 
L 388.775385 60.010021 
L 390.162797 58.044182 
L 391.55021 58.829835 
L 392.937622 57.88098 
L 394.325035 56.697759 
L 395.712448 56.038393 
L 397.09986 54.401526 
L 398.487273 53.568 
L 398.487273 53.568 
" clip-path="url(#p243da3e531)" style="fill: none; stroke: #ff0000; stroke-width: 1.5; stroke-linecap: square"/>
   </g>
   <g id="patch_3">
    <path d="M 57.6 307.584 
L 57.6 41.472 
" style="fill: none; stroke: #000000; stroke-width: 0.8; stroke-linejoin: miter; stroke-linecap: square"/>
   </g>
   <g id="patch_4">
    <path d="M 414.72 307.584 
L 414.72 41.472 
" style="fill: none; stroke: #000000; stroke-width: 0.8; stroke-linejoin: miter; stroke-linecap: square"/>
   </g>
   <g id="patch_5">
    <path d="M 57.6 307.584 
L 414.72 307.584 
" style="fill: none; stroke: #000000; stroke-width: 0.8; stroke-linejoin: miter; stroke-linecap: square"/>
   </g>
   <g id="patch_6">
    <path d="M 57.6 41.472 
L 414.72 41.472 
" style="fill: none; stroke: #000000; stroke-width: 0.8; stroke-linejoin: miter; stroke-linecap: square"/>
   </g>
   <g id="text_15">
    <!-- Population's average and best fitness -->
    <g transform="translate(123.529687 35.472) scale(0.12 -0.12)">
     <defs>
      <path id="DejaVuSans-50" d="M 1259 4147 
L 1259 2394 
L 2053 2394 
Q 2494 2394 2734 2622 
Q 2975 2850 2975 3272 
Q 2975 3691 2734 3919 
Q 2494 4147 2053 4147 
L 1259 4147 
z
M 628 4666 
L 2053 4666 
Q 2838 4666 3239 4311 
Q 3641 3956 3641 3272 
Q 3641 2581 3239 2228 
Q 2838 1875 2053 1875 
L 1259 1875 
L 1259 0 
L 628 0 
L 628 4666 
z
" transform="scale(0.015625)"/>
      <path id="DejaVuSans-70" d="M 1159 525 
L 1159 -1331 
L 581 -1331 
L 581 3500 
L 1159 3500 
L 1159 2969 
Q 1341 3281 1617 3432 
Q 1894 3584 2278 3584 
Q 2916 3584 3314 3078 
Q 3713 2572 3713 1747 
Q 3713 922 3314 415 
Q 2916 -91 2278 -91 
Q 1894 -91 1617 61 
Q 1341 213 1159 525 
z
M 3116 1747 
Q 3116 2381 2855 2742 
Q 2594 3103 2138 3103 
Q 1681 3103 1420 2742 
Q 1159 2381 1159 1747 
Q 1159 1113 1420 752 
Q 1681 391 2138 391 
Q 2594 391 2855 752 
Q 3116 1113 3116 1747 
z
" transform="scale(0.015625)"/>
      <path id="DejaVuSans-75" d="M 544 1381 
L 544 3500 
L 1119 3500 
L 1119 1403 
Q 1119 906 1312 657 
Q 1506 409 1894 409 
Q 2359 409 2629 706 
Q 2900 1003 2900 1516 
L 2900 3500 
L 3475 3500 
L 3475 0 
L 2900 0 
L 2900 538 
Q 2691 219 2414 64 
Q 2138 -91 1772 -91 
Q 1169 -91 856 284 
Q 544 659 544 1381 
z
M 1991 3584 
L 1991 3584 
z
" transform="scale(0.015625)"/>
      <path id="DejaVuSans-6c" d="M 603 4863 
L 1178 4863 
L 1178 0 
L 603 0 
L 603 4863 
z
" transform="scale(0.015625)"/>
      <path id="DejaVuSans-27" d="M 1147 4666 
L 1147 2931 
L 616 2931 
L 616 4666 
L 1147 4666 
z
" transform="scale(0.015625)"/>
      <path id="DejaVuSans-20" transform="scale(0.015625)"/>
      <path id="DejaVuSans-76" d="M 191 3500 
L 800 3500 
L 1894 563 
L 2988 3500 
L 3597 3500 
L 2284 0 
L 1503 0 
L 191 3500 
z
" transform="scale(0.015625)"/>
      <path id="DejaVuSans-67" d="M 2906 1791 
Q 2906 2416 2648 2759 
Q 2391 3103 1925 3103 
Q 1463 3103 1205 2759 
Q 947 2416 947 1791 
Q 947 1169 1205 825 
Q 1463 481 1925 481 
Q 2391 481 2648 825 
Q 2906 1169 2906 1791 
z
M 3481 434 
Q 3481 -459 3084 -895 
Q 2688 -1331 1869 -1331 
Q 1566 -1331 1297 -1286 
Q 1028 -1241 775 -1147 
L 775 -588 
Q 1028 -725 1275 -790 
Q 1522 -856 1778 -856 
Q 2344 -856 2625 -561 
Q 2906 -266 2906 331 
L 2906 616 
Q 2728 306 2450 153 
Q 2172 0 1784 0 
Q 1141 0 747 490 
Q 353 981 353 1791 
Q 353 2603 747 3093 
Q 1141 3584 1784 3584 
Q 2172 3584 2450 3431 
Q 2728 3278 2906 2969 
L 2906 3500 
L 3481 3500 
L 3481 434 
z
" transform="scale(0.015625)"/>
      <path id="DejaVuSans-64" d="M 2906 2969 
L 2906 4863 
L 3481 4863 
L 3481 0 
L 2906 0 
L 2906 525 
Q 2725 213 2448 61 
Q 2172 -91 1784 -91 
Q 1150 -91 751 415 
Q 353 922 353 1747 
Q 353 2572 751 3078 
Q 1150 3584 1784 3584 
Q 2172 3584 2448 3432 
Q 2725 3281 2906 2969 
z
M 947 1747 
Q 947 1113 1208 752 
Q 1469 391 1925 391 
Q 2381 391 2643 752 
Q 2906 1113 2906 1747 
Q 2906 2381 2643 2742 
Q 2381 3103 1925 3103 
Q 1469 3103 1208 2742 
Q 947 2381 947 1747 
z
" transform="scale(0.015625)"/>
      <path id="DejaVuSans-62" d="M 3116 1747 
Q 3116 2381 2855 2742 
Q 2594 3103 2138 3103 
Q 1681 3103 1420 2742 
Q 1159 2381 1159 1747 
Q 1159 1113 1420 752 
Q 1681 391 2138 391 
Q 2594 391 2855 752 
Q 3116 1113 3116 1747 
z
M 1159 2969 
Q 1341 3281 1617 3432 
Q 1894 3584 2278 3584 
Q 2916 3584 3314 3078 
Q 3713 2572 3713 1747 
Q 3713 922 3314 415 
Q 2916 -91 2278 -91 
Q 1894 -91 1617 61 
Q 1341 213 1159 525 
L 1159 0 
L 581 0 
L 581 4863 
L 1159 4863 
L 1159 2969 
z
" transform="scale(0.015625)"/>
      <path id="DejaVuSans-66" d="M 2375 4863 
L 2375 4384 
L 1825 4384 
Q 1516 4384 1395 4259 
Q 1275 4134 1275 3809 
L 1275 3500 
L 2222 3500 
L 2222 3053 
L 1275 3053 
L 1275 0 
L 697 0 
L 697 3053 
L 147 3053 
L 147 3500 
L 697 3500 
L 697 3744 
Q 697 4328 969 4595 
Q 1241 4863 1831 4863 
L 2375 4863 
z
" transform="scale(0.015625)"/>
     </defs>
     <use xlink:href="#DejaVuSans-50"/>
     <use xlink:href="#DejaVuSans-6f" x="56.677734"/>
     <use xlink:href="#DejaVuSans-70" x="117.859375"/>
     <use xlink:href="#DejaVuSans-75" x="181.335938"/>
     <use xlink:href="#DejaVuSans-6c" x="244.714844"/>
     <use xlink:href="#DejaVuSans-61" x="272.498047"/>
     <use xlink:href="#DejaVuSans-74" x="333.777344"/>
     <use xlink:href="#DejaVuSans-69" x="372.986328"/>
     <use xlink:href="#DejaVuSans-6f" x="400.769531"/>
     <use xlink:href="#DejaVuSans-6e" x="461.951172"/>
     <use xlink:href="#DejaVuSans-27" x="525.330078"/>
     <use xlink:href="#DejaVuSans-73" x="552.820312"/>
     <use xlink:href="#DejaVuSans-20" x="604.919922"/>
     <use xlink:href="#DejaVuSans-61" x="636.707031"/>
     <use xlink:href="#DejaVuSans-76" x="697.986328"/>
     <use xlink:href="#DejaVuSans-65" x="757.166016"/>
     <use xlink:href="#DejaVuSans-72" x="818.689453"/>
     <use xlink:href="#DejaVuSans-61" x="859.802734"/>
     <use xlink:href="#DejaVuSans-67" x="921.082031"/>
     <use xlink:href="#DejaVuSans-65" x="984.558594"/>
     <use xlink:href="#DejaVuSans-20" x="1046.082031"/>
     <use xlink:href="#DejaVuSans-61" x="1077.869141"/>
     <use xlink:href="#DejaVuSans-6e" x="1139.148438"/>
     <use xlink:href="#DejaVuSans-64" x="1202.527344"/>
     <use xlink:href="#DejaVuSans-20" x="1266.003906"/>
     <use xlink:href="#DejaVuSans-62" x="1297.791016"/>
     <use xlink:href="#DejaVuSans-65" x="1361.267578"/>
     <use xlink:href="#DejaVuSans-73" x="1422.791016"/>
     <use xlink:href="#DejaVuSans-74" x="1474.890625"/>
     <use xlink:href="#DejaVuSans-20" x="1514.099609"/>
     <use xlink:href="#DejaVuSans-66" x="1545.886719"/>
     <use xlink:href="#DejaVuSans-69" x="1581.091797"/>
     <use xlink:href="#DejaVuSans-74" x="1608.875"/>
     <use xlink:href="#DejaVuSans-6e" x="1648.083984"/>
     <use xlink:href="#DejaVuSans-65" x="1711.462891"/>
     <use xlink:href="#DejaVuSans-73" x="1772.986328"/>
     <use xlink:href="#DejaVuSans-73" x="1825.085938"/>
    </g>
   </g>
   <g id="legend_1">
    <g id="patch_7">
     <path d="M 64.6 93.506375 
L 137.540625 93.506375 
Q 139.540625 93.506375 139.540625 91.506375 
L 139.540625 48.472 
Q 139.540625 46.472 137.540625 46.472 
L 64.6 46.472 
Q 62.6 46.472 62.6 48.472 
L 62.6 91.506375 
Q 62.6 93.506375 64.6 93.506375 
z
" style="fill: #ffffff; opacity: 0.8; stroke: #cccccc; stroke-linejoin: miter"/>
    </g>
    <g id="line2d_28">
     <path d="M 66.6 54.570438 
L 76.6 54.570438 
L 86.6 54.570438 
" style="fill: none; stroke: #0000ff; stroke-width: 1.5; stroke-linecap: square"/>
    </g>
    <g id="text_16">
     <!-- average -->
     <g transform="translate(94.6 58.070438) scale(0.1 -0.1)">
      <use xlink:href="#DejaVuSans-61"/>
      <use xlink:href="#DejaVuSans-76" x="61.279297"/>
      <use xlink:href="#DejaVuSans-65" x="120.458984"/>
      <use xlink:href="#DejaVuSans-72" x="181.982422"/>
      <use xlink:href="#DejaVuSans-61" x="223.095703"/>
      <use xlink:href="#DejaVuSans-67" x="284.375"/>
      <use xlink:href="#DejaVuSans-65" x="347.851562"/>
     </g>
    </g>
    <g id="line2d_29">
     <path d="M 66.6 69.248563 
L 76.6 69.248563 
L 86.6 69.248563 
" style="fill: none; stroke-dasharray: 9.6,2.4,1.5,2.4; stroke-dashoffset: 0; stroke: #008000; stroke-width: 1.5"/>
    </g>
    <g id="text_17">
     <!-- +1 sd -->
     <g transform="translate(94.6 72.748563) scale(0.1 -0.1)">
      <defs>
       <path id="DejaVuSans-2b" d="M 2944 4013 
L 2944 2272 
L 4684 2272 
L 4684 1741 
L 2944 1741 
L 2944 0 
L 2419 0 
L 2419 1741 
L 678 1741 
L 678 2272 
L 2419 2272 
L 2419 4013 
L 2944 4013 
z
" transform="scale(0.015625)"/>
      </defs>
      <use xlink:href="#DejaVuSans-2b"/>
      <use xlink:href="#DejaVuSans-31" x="83.789062"/>
      <use xlink:href="#DejaVuSans-20" x="147.412109"/>
      <use xlink:href="#DejaVuSans-73" x="179.199219"/>
      <use xlink:href="#DejaVuSans-64" x="231.298828"/>
     </g>
    </g>
    <g id="line2d_30">
     <path d="M 66.6 83.926688 
L 76.6 83.926688 
L 86.6 83.926688 
" style="fill: none; stroke: #ff0000; stroke-width: 1.5; stroke-linecap: square"/>
    </g>
    <g id="text_18">
     <!-- best -->
     <g transform="translate(94.6 87.426688) scale(0.1 -0.1)">
      <use xlink:href="#DejaVuSans-62"/>
      <use xlink:href="#DejaVuSans-65" x="63.476562"/>
      <use xlink:href="#DejaVuSans-73" x="125"/>
      <use xlink:href="#DejaVuSans-74" x="177.099609"/>
     </g>
    </g>
   </g>
  </g>
 </g>
 <defs>
  <clipPath id="p243da3e531">
   <rect x="57.6" y="41.472" width="357.12" height="266.112"/>
  </clipPath>
 </defs>
</svg>
