<?xml version="1.0" encoding="utf-8" standalone="no"?>
<!DOCTYPE svg PUBLIC "-//W3C//DTD SVG 1.1//EN"
  "http://www.w3.org/Graphics/SVG/1.1/DTD/svg11.dtd">
<svg xmlns:xlink="http://www.w3.org/1999/xlink" width="460.8pt" height="345.6pt" viewBox="0 0 460.8 345.6" xmlns="http://www.w3.org/2000/svg" version="1.1">
 <metadata>
  <rdf:RDF xmlns:dc="http://purl.org/dc/elements/1.1/" xmlns:cc="http://creativecommons.org/ns#" xmlns:rdf="http://www.w3.org/1999/02/22-rdf-syntax-ns#">
   <cc:Work>
    <dc:type rdf:resource="http://purl.org/dc/dcmitype/StillImage"/>
    <dc:date>2023-02-02T19:12:05.239157</dc:date>
    <dc:format>image/svg+xml</dc:format>
    <dc:creator>
     <cc:Agent>
      <dc:title>Matplotlib v3.6.2, https://matplotlib.org/</dc:title>
     </cc:Agent>
    </dc:creator>
   </cc:Work>
  </rdf:RDF>
 </metadata>
 <defs>
  <style type="text/css">*{stroke-linejoin: round; stroke-linecap: butt}</style>
 </defs>
 <g id="figure_1">
  <g id="patch_1">
   <path d="M 0 345.6 
L 460.8 345.6 
L 460.8 0 
L 0 0 
z
" style="fill: #ffffff"/>
  </g>
  <g id="axes_1">
   <g id="patch_2">
    <path d="M 57.6 307.584 
L 414.72 307.584 
L 414.72 41.472 
L 57.6 41.472 
z
" style="fill: #ffffff"/>
   </g>
   <g id="matplotlib.axis_1">
    <g id="xtick_1">
     <g id="line2d_1">
      <path d="M 73.832727 307.584 
L 73.832727 41.472 
" clip-path="url(#pfc03901e2c)" style="fill: none; stroke: #b0b0b0; stroke-width: 0.8; stroke-linecap: square"/>
     </g>
     <g id="line2d_2">
      <defs>
       <path id="m245c8ea763" d="M 0 0 
L 0 3.5 
" style="stroke: #000000; stroke-width: 0.8"/>
      </defs>
      <g>
       <use xlink:href="#m245c8ea763" x="73.832727" y="307.584" style="stroke: #000000; stroke-width: 0.8"/>
      </g>
     </g>
     <g id="text_1">
      <!-- 0 -->
      <g transform="translate(70.651477 322.182437) scale(0.1 -0.1)">
       <defs>
        <path id="DejaVuSans-30" d="M 2034 4250 
Q 1547 4250 1301 3770 
Q 1056 3291 1056 2328 
Q 1056 1369 1301 889 
Q 1547 409 2034 409 
Q 2525 409 2770 889 
Q 3016 1369 3016 2328 
Q 3016 3291 2770 3770 
Q 2525 4250 2034 4250 
z
M 2034 4750 
Q 2819 4750 3233 4129 
Q 3647 3509 3647 2328 
Q 3647 1150 3233 529 
Q 2819 -91 2034 -91 
Q 1250 -91 836 529 
Q 422 1150 422 2328 
Q 422 3509 836 4129 
Q 1250 4750 2034 4750 
z
" transform="scale(0.015625)"/>
       </defs>
       <use xlink:href="#DejaVuSans-30"/>
      </g>
     </g>
    </g>
    <g id="xtick_2">
     <g id="line2d_3">
      <path d="M 128.122785 307.584 
L 128.122785 41.472 
" clip-path="url(#pfc03901e2c)" style="fill: none; stroke: #b0b0b0; stroke-width: 0.8; stroke-linecap: square"/>
     </g>
     <g id="line2d_4">
      <g>
       <use xlink:href="#m245c8ea763" x="128.122785" y="307.584" style="stroke: #000000; stroke-width: 0.8"/>
      </g>
     </g>
     <g id="text_2">
      <!-- 50 -->
      <g transform="translate(121.760285 322.182437) scale(0.1 -0.1)">
       <defs>
        <path id="DejaVuSans-35" d="M 691 4666 
L 3169 4666 
L 3169 4134 
L 1269 4134 
L 1269 2991 
Q 1406 3038 1543 3061 
Q 1681 3084 1819 3084 
Q 2600 3084 3056 2656 
Q 3513 2228 3513 1497 
Q 3513 744 3044 326 
Q 2575 -91 1722 -91 
Q 1428 -91 1123 -41 
Q 819 9 494 109 
L 494 744 
Q 775 591 1075 516 
Q 1375 441 1709 441 
Q 2250 441 2565 725 
Q 2881 1009 2881 1497 
Q 2881 1984 2565 2268 
Q 2250 2553 1709 2553 
Q 1456 2553 1204 2497 
Q 953 2441 691 2322 
L 691 4666 
z
" transform="scale(0.015625)"/>
       </defs>
       <use xlink:href="#DejaVuSans-35"/>
       <use xlink:href="#DejaVuSans-30" x="63.623047"/>
      </g>
     </g>
    </g>
    <g id="xtick_3">
     <g id="line2d_5">
      <path d="M 182.412843 307.584 
L 182.412843 41.472 
" clip-path="url(#pfc03901e2c)" style="fill: none; stroke: #b0b0b0; stroke-width: 0.8; stroke-linecap: square"/>
     </g>
     <g id="line2d_6">
      <g>
       <use xlink:href="#m245c8ea763" x="182.412843" y="307.584" style="stroke: #000000; stroke-width: 0.8"/>
      </g>
     </g>
     <g id="text_3">
      <!-- 100 -->
      <g transform="translate(172.869093 322.182437) scale(0.1 -0.1)">
       <defs>
        <path id="DejaVuSans-31" d="M 794 531 
L 1825 531 
L 1825 4091 
L 703 3866 
L 703 4441 
L 1819 4666 
L 2450 4666 
L 2450 531 
L 3481 531 
L 3481 0 
L 794 0 
L 794 531 
z
" transform="scale(0.015625)"/>
       </defs>
       <use xlink:href="#DejaVuSans-31"/>
       <use xlink:href="#DejaVuSans-30" x="63.623047"/>
       <use xlink:href="#DejaVuSans-30" x="127.246094"/>
      </g>
     </g>
    </g>
    <g id="xtick_4">
     <g id="line2d_7">
      <path d="M 236.702901 307.584 
L 236.702901 41.472 
" clip-path="url(#pfc03901e2c)" style="fill: none; stroke: #b0b0b0; stroke-width: 0.8; stroke-linecap: square"/>
     </g>
     <g id="line2d_8">
      <g>
       <use xlink:href="#m245c8ea763" x="236.702901" y="307.584" style="stroke: #000000; stroke-width: 0.8"/>
      </g>
     </g>
     <g id="text_4">
      <!-- 150 -->
      <g transform="translate(227.159151 322.182437) scale(0.1 -0.1)">
       <use xlink:href="#DejaVuSans-31"/>
       <use xlink:href="#DejaVuSans-35" x="63.623047"/>
       <use xlink:href="#DejaVuSans-30" x="127.246094"/>
      </g>
     </g>
    </g>
    <g id="xtick_5">
     <g id="line2d_9">
      <path d="M 290.992958 307.584 
L 290.992958 41.472 
" clip-path="url(#pfc03901e2c)" style="fill: none; stroke: #b0b0b0; stroke-width: 0.8; stroke-linecap: square"/>
     </g>
     <g id="line2d_10">
      <g>
       <use xlink:href="#m245c8ea763" x="290.992958" y="307.584" style="stroke: #000000; stroke-width: 0.8"/>
      </g>
     </g>
     <g id="text_5">
      <!-- 200 -->
      <g transform="translate(281.449208 322.182437) scale(0.1 -0.1)">
       <defs>
        <path id="DejaVuSans-32" d="M 1228 531 
L 3431 531 
L 3431 0 
L 469 0 
L 469 531 
Q 828 903 1448 1529 
Q 2069 2156 2228 2338 
Q 2531 2678 2651 2914 
Q 2772 3150 2772 3378 
Q 2772 3750 2511 3984 
Q 2250 4219 1831 4219 
Q 1534 4219 1204 4116 
Q 875 4013 500 3803 
L 500 4441 
Q 881 4594 1212 4672 
Q 1544 4750 1819 4750 
Q 2544 4750 2975 4387 
Q 3406 4025 3406 3419 
Q 3406 3131 3298 2873 
Q 3191 2616 2906 2266 
Q 2828 2175 2409 1742 
Q 1991 1309 1228 531 
z
" transform="scale(0.015625)"/>
       </defs>
       <use xlink:href="#DejaVuSans-32"/>
       <use xlink:href="#DejaVuSans-30" x="63.623047"/>
       <use xlink:href="#DejaVuSans-30" x="127.246094"/>
      </g>
     </g>
    </g>
    <g id="xtick_6">
     <g id="line2d_11">
      <path d="M 345.283016 307.584 
L 345.283016 41.472 
" clip-path="url(#pfc03901e2c)" style="fill: none; stroke: #b0b0b0; stroke-width: 0.8; stroke-linecap: square"/>
     </g>
     <g id="line2d_12">
      <g>
       <use xlink:href="#m245c8ea763" x="345.283016" y="307.584" style="stroke: #000000; stroke-width: 0.8"/>
      </g>
     </g>
     <g id="text_6">
      <!-- 250 -->
      <g transform="translate(335.739266 322.182437) scale(0.1 -0.1)">
       <use xlink:href="#DejaVuSans-32"/>
       <use xlink:href="#DejaVuSans-35" x="63.623047"/>
       <use xlink:href="#DejaVuSans-30" x="127.246094"/>
      </g>
     </g>
    </g>
    <g id="xtick_7">
     <g id="line2d_13">
      <path d="M 399.573074 307.584 
L 399.573074 41.472 
" clip-path="url(#pfc03901e2c)" style="fill: none; stroke: #b0b0b0; stroke-width: 0.8; stroke-linecap: square"/>
     </g>
     <g id="line2d_14">
      <g>
       <use xlink:href="#m245c8ea763" x="399.573074" y="307.584" style="stroke: #000000; stroke-width: 0.8"/>
      </g>
     </g>
     <g id="text_7">
      <!-- 300 -->
      <g transform="translate(390.029324 322.182437) scale(0.1 -0.1)">
       <defs>
        <path id="DejaVuSans-33" d="M 2597 2516 
Q 3050 2419 3304 2112 
Q 3559 1806 3559 1356 
Q 3559 666 3084 287 
Q 2609 -91 1734 -91 
Q 1441 -91 1130 -33 
Q 819 25 488 141 
L 488 750 
Q 750 597 1062 519 
Q 1375 441 1716 441 
Q 2309 441 2620 675 
Q 2931 909 2931 1356 
Q 2931 1769 2642 2001 
Q 2353 2234 1838 2234 
L 1294 2234 
L 1294 2753 
L 1863 2753 
Q 2328 2753 2575 2939 
Q 2822 3125 2822 3475 
Q 2822 3834 2567 4026 
Q 2313 4219 1838 4219 
Q 1578 4219 1281 4162 
Q 984 4106 628 3988 
L 628 4550 
Q 988 4650 1302 4700 
Q 1616 4750 1894 4750 
Q 2613 4750 3031 4423 
Q 3450 4097 3450 3541 
Q 3450 3153 3228 2886 
Q 3006 2619 2597 2516 
z
" transform="scale(0.015625)"/>
       </defs>
       <use xlink:href="#DejaVuSans-33"/>
       <use xlink:href="#DejaVuSans-30" x="63.623047"/>
       <use xlink:href="#DejaVuSans-30" x="127.246094"/>
      </g>
     </g>
    </g>
    <g id="text_8">
     <!-- Generations -->
     <g transform="translate(205.662344 335.860562) scale(0.1 -0.1)">
      <defs>
       <path id="DejaVuSans-47" d="M 3809 666 
L 3809 1919 
L 2778 1919 
L 2778 2438 
L 4434 2438 
L 4434 434 
Q 4069 175 3628 42 
Q 3188 -91 2688 -91 
Q 1594 -91 976 548 
Q 359 1188 359 2328 
Q 359 3472 976 4111 
Q 1594 4750 2688 4750 
Q 3144 4750 3555 4637 
Q 3966 4525 4313 4306 
L 4313 3634 
Q 3963 3931 3569 4081 
Q 3175 4231 2741 4231 
Q 1884 4231 1454 3753 
Q 1025 3275 1025 2328 
Q 1025 1384 1454 906 
Q 1884 428 2741 428 
Q 3075 428 3337 486 
Q 3600 544 3809 666 
z
" transform="scale(0.015625)"/>
       <path id="DejaVuSans-65" d="M 3597 1894 
L 3597 1613 
L 953 1613 
Q 991 1019 1311 708 
Q 1631 397 2203 397 
Q 2534 397 2845 478 
Q 3156 559 3463 722 
L 3463 178 
Q 3153 47 2828 -22 
Q 2503 -91 2169 -91 
Q 1331 -91 842 396 
Q 353 884 353 1716 
Q 353 2575 817 3079 
Q 1281 3584 2069 3584 
Q 2775 3584 3186 3129 
Q 3597 2675 3597 1894 
z
M 3022 2063 
Q 3016 2534 2758 2815 
Q 2500 3097 2075 3097 
Q 1594 3097 1305 2825 
Q 1016 2553 972 2059 
L 3022 2063 
z
" transform="scale(0.015625)"/>
       <path id="DejaVuSans-6e" d="M 3513 2113 
L 3513 0 
L 2938 0 
L 2938 2094 
Q 2938 2591 2744 2837 
Q 2550 3084 2163 3084 
Q 1697 3084 1428 2787 
Q 1159 2491 1159 1978 
L 1159 0 
L 581 0 
L 581 3500 
L 1159 3500 
L 1159 2956 
Q 1366 3272 1645 3428 
Q 1925 3584 2291 3584 
Q 2894 3584 3203 3211 
Q 3513 2838 3513 2113 
z
" transform="scale(0.015625)"/>
       <path id="DejaVuSans-72" d="M 2631 2963 
Q 2534 3019 2420 3045 
Q 2306 3072 2169 3072 
Q 1681 3072 1420 2755 
Q 1159 2438 1159 1844 
L 1159 0 
L 581 0 
L 581 3500 
L 1159 3500 
L 1159 2956 
Q 1341 3275 1631 3429 
Q 1922 3584 2338 3584 
Q 2397 3584 2469 3576 
Q 2541 3569 2628 3553 
L 2631 2963 
z
" transform="scale(0.015625)"/>
       <path id="DejaVuSans-61" d="M 2194 1759 
Q 1497 1759 1228 1600 
Q 959 1441 959 1056 
Q 959 750 1161 570 
Q 1363 391 1709 391 
Q 2188 391 2477 730 
Q 2766 1069 2766 1631 
L 2766 1759 
L 2194 1759 
z
M 3341 1997 
L 3341 0 
L 2766 0 
L 2766 531 
Q 2569 213 2275 61 
Q 1981 -91 1556 -91 
Q 1019 -91 701 211 
Q 384 513 384 1019 
Q 384 1609 779 1909 
Q 1175 2209 1959 2209 
L 2766 2209 
L 2766 2266 
Q 2766 2663 2505 2880 
Q 2244 3097 1772 3097 
Q 1472 3097 1187 3025 
Q 903 2953 641 2809 
L 641 3341 
Q 956 3463 1253 3523 
Q 1550 3584 1831 3584 
Q 2591 3584 2966 3190 
Q 3341 2797 3341 1997 
z
" transform="scale(0.015625)"/>
       <path id="DejaVuSans-74" d="M 1172 4494 
L 1172 3500 
L 2356 3500 
L 2356 3053 
L 1172 3053 
L 1172 1153 
Q 1172 725 1289 603 
Q 1406 481 1766 481 
L 2356 481 
L 2356 0 
L 1766 0 
Q 1100 0 847 248 
Q 594 497 594 1153 
L 594 3053 
L 172 3053 
L 172 3500 
L 594 3500 
L 594 4494 
L 1172 4494 
z
" transform="scale(0.015625)"/>
       <path id="DejaVuSans-69" d="M 603 3500 
L 1178 3500 
L 1178 0 
L 603 0 
L 603 3500 
z
M 603 4863 
L 1178 4863 
L 1178 4134 
L 603 4134 
L 603 4863 
z
" transform="scale(0.015625)"/>
       <path id="DejaVuSans-6f" d="M 1959 3097 
Q 1497 3097 1228 2736 
Q 959 2375 959 1747 
Q 959 1119 1226 758 
Q 1494 397 1959 397 
Q 2419 397 2687 759 
Q 2956 1122 2956 1747 
Q 2956 2369 2687 2733 
Q 2419 3097 1959 3097 
z
M 1959 3584 
Q 2709 3584 3137 3096 
Q 3566 2609 3566 1747 
Q 3566 888 3137 398 
Q 2709 -91 1959 -91 
Q 1206 -91 779 398 
Q 353 888 353 1747 
Q 353 2609 779 3096 
Q 1206 3584 1959 3584 
z
" transform="scale(0.015625)"/>
       <path id="DejaVuSans-73" d="M 2834 3397 
L 2834 2853 
Q 2591 2978 2328 3040 
Q 2066 3103 1784 3103 
Q 1356 3103 1142 2972 
Q 928 2841 928 2578 
Q 928 2378 1081 2264 
Q 1234 2150 1697 2047 
L 1894 2003 
Q 2506 1872 2764 1633 
Q 3022 1394 3022 966 
Q 3022 478 2636 193 
Q 2250 -91 1575 -91 
Q 1294 -91 989 -36 
Q 684 19 347 128 
L 347 722 
Q 666 556 975 473 
Q 1284 391 1588 391 
Q 1994 391 2212 530 
Q 2431 669 2431 922 
Q 2431 1156 2273 1281 
Q 2116 1406 1581 1522 
L 1381 1569 
Q 847 1681 609 1914 
Q 372 2147 372 2553 
Q 372 3047 722 3315 
Q 1072 3584 1716 3584 
Q 2034 3584 2315 3537 
Q 2597 3491 2834 3397 
z
" transform="scale(0.015625)"/>
      </defs>
      <use xlink:href="#DejaVuSans-47"/>
      <use xlink:href="#DejaVuSans-65" x="77.490234"/>
      <use xlink:href="#DejaVuSans-6e" x="139.013672"/>
      <use xlink:href="#DejaVuSans-65" x="202.392578"/>
      <use xlink:href="#DejaVuSans-72" x="263.916016"/>
      <use xlink:href="#DejaVuSans-61" x="305.029297"/>
      <use xlink:href="#DejaVuSans-74" x="366.308594"/>
      <use xlink:href="#DejaVuSans-69" x="405.517578"/>
      <use xlink:href="#DejaVuSans-6f" x="433.300781"/>
      <use xlink:href="#DejaVuSans-6e" x="494.482422"/>
      <use xlink:href="#DejaVuSans-73" x="557.861328"/>
     </g>
    </g>
   </g>
   <g id="matplotlib.axis_2">
    <g id="ytick_1">
     <g id="line2d_15">
      <path d="M 57.6 296.500474 
L 414.72 296.500474 
" clip-path="url(#pfc03901e2c)" style="fill: none; stroke: #b0b0b0; stroke-width: 0.8; stroke-linecap: square"/>
     </g>
     <g id="line2d_16">
      <defs>
       <path id="mb4f9e24b06" d="M 0 0 
L -3.5 0 
" style="stroke: #000000; stroke-width: 0.8"/>
      </defs>
      <g>
       <use xlink:href="#mb4f9e24b06" x="57.6" y="296.500474" style="stroke: #000000; stroke-width: 0.8"/>
      </g>
     </g>
     <g id="text_9">
      <!-- 0 -->
      <g transform="translate(44.2375 300.299693) scale(0.1 -0.1)">
       <use xlink:href="#DejaVuSans-30"/>
      </g>
     </g>
    </g>
    <g id="ytick_2">
     <g id="line2d_17">
      <path d="M 57.6 258.319426 
L 414.72 258.319426 
" clip-path="url(#pfc03901e2c)" style="fill: none; stroke: #b0b0b0; stroke-width: 0.8; stroke-linecap: square"/>
     </g>
     <g id="line2d_18">
      <g>
       <use xlink:href="#mb4f9e24b06" x="57.6" y="258.319426" style="stroke: #000000; stroke-width: 0.8"/>
      </g>
     </g>
     <g id="text_10">
      <!-- 200 -->
      <g transform="translate(31.5125 262.118645) scale(0.1 -0.1)">
       <use xlink:href="#DejaVuSans-32"/>
       <use xlink:href="#DejaVuSans-30" x="63.623047"/>
       <use xlink:href="#DejaVuSans-30" x="127.246094"/>
      </g>
     </g>
    </g>
    <g id="ytick_3">
     <g id="line2d_19">
      <path d="M 57.6 220.138378 
L 414.72 220.138378 
" clip-path="url(#pfc03901e2c)" style="fill: none; stroke: #b0b0b0; stroke-width: 0.8; stroke-linecap: square"/>
     </g>
     <g id="line2d_20">
      <g>
       <use xlink:href="#mb4f9e24b06" x="57.6" y="220.138378" style="stroke: #000000; stroke-width: 0.8"/>
      </g>
     </g>
     <g id="text_11">
      <!-- 400 -->
      <g transform="translate(31.5125 223.937597) scale(0.1 -0.1)">
       <defs>
        <path id="DejaVuSans-34" d="M 2419 4116 
L 825 1625 
L 2419 1625 
L 2419 4116 
z
M 2253 4666 
L 3047 4666 
L 3047 1625 
L 3713 1625 
L 3713 1100 
L 3047 1100 
L 3047 0 
L 2419 0 
L 2419 1100 
L 313 1100 
L 313 1709 
L 2253 4666 
z
" transform="scale(0.015625)"/>
       </defs>
       <use xlink:href="#DejaVuSans-34"/>
       <use xlink:href="#DejaVuSans-30" x="63.623047"/>
       <use xlink:href="#DejaVuSans-30" x="127.246094"/>
      </g>
     </g>
    </g>
    <g id="ytick_4">
     <g id="line2d_21">
      <path d="M 57.6 181.95733 
L 414.72 181.95733 
" clip-path="url(#pfc03901e2c)" style="fill: none; stroke: #b0b0b0; stroke-width: 0.8; stroke-linecap: square"/>
     </g>
     <g id="line2d_22">
      <g>
       <use xlink:href="#mb4f9e24b06" x="57.6" y="181.95733" style="stroke: #000000; stroke-width: 0.8"/>
      </g>
     </g>
     <g id="text_12">
      <!-- 600 -->
      <g transform="translate(31.5125 185.756549) scale(0.1 -0.1)">
       <defs>
        <path id="DejaVuSans-36" d="M 2113 2584 
Q 1688 2584 1439 2293 
Q 1191 2003 1191 1497 
Q 1191 994 1439 701 
Q 1688 409 2113 409 
Q 2538 409 2786 701 
Q 3034 994 3034 1497 
Q 3034 2003 2786 2293 
Q 2538 2584 2113 2584 
z
M 3366 4563 
L 3366 3988 
Q 3128 4100 2886 4159 
Q 2644 4219 2406 4219 
Q 1781 4219 1451 3797 
Q 1122 3375 1075 2522 
Q 1259 2794 1537 2939 
Q 1816 3084 2150 3084 
Q 2853 3084 3261 2657 
Q 3669 2231 3669 1497 
Q 3669 778 3244 343 
Q 2819 -91 2113 -91 
Q 1303 -91 875 529 
Q 447 1150 447 2328 
Q 447 3434 972 4092 
Q 1497 4750 2381 4750 
Q 2619 4750 2861 4703 
Q 3103 4656 3366 4563 
z
" transform="scale(0.015625)"/>
       </defs>
       <use xlink:href="#DejaVuSans-36"/>
       <use xlink:href="#DejaVuSans-30" x="63.623047"/>
       <use xlink:href="#DejaVuSans-30" x="127.246094"/>
      </g>
     </g>
    </g>
    <g id="ytick_5">
     <g id="line2d_23">
      <path d="M 57.6 143.776282 
L 414.72 143.776282 
" clip-path="url(#pfc03901e2c)" style="fill: none; stroke: #b0b0b0; stroke-width: 0.8; stroke-linecap: square"/>
     </g>
     <g id="line2d_24">
      <g>
       <use xlink:href="#mb4f9e24b06" x="57.6" y="143.776282" style="stroke: #000000; stroke-width: 0.8"/>
      </g>
     </g>
     <g id="text_13">
      <!-- 800 -->
      <g transform="translate(31.5125 147.5755) scale(0.1 -0.1)">
       <defs>
        <path id="DejaVuSans-38" d="M 2034 2216 
Q 1584 2216 1326 1975 
Q 1069 1734 1069 1313 
Q 1069 891 1326 650 
Q 1584 409 2034 409 
Q 2484 409 2743 651 
Q 3003 894 3003 1313 
Q 3003 1734 2745 1975 
Q 2488 2216 2034 2216 
z
M 1403 2484 
Q 997 2584 770 2862 
Q 544 3141 544 3541 
Q 544 4100 942 4425 
Q 1341 4750 2034 4750 
Q 2731 4750 3128 4425 
Q 3525 4100 3525 3541 
Q 3525 3141 3298 2862 
Q 3072 2584 2669 2484 
Q 3125 2378 3379 2068 
Q 3634 1759 3634 1313 
Q 3634 634 3220 271 
Q 2806 -91 2034 -91 
Q 1263 -91 848 271 
Q 434 634 434 1313 
Q 434 1759 690 2068 
Q 947 2378 1403 2484 
z
M 1172 3481 
Q 1172 3119 1398 2916 
Q 1625 2713 2034 2713 
Q 2441 2713 2670 2916 
Q 2900 3119 2900 3481 
Q 2900 3844 2670 4047 
Q 2441 4250 2034 4250 
Q 1625 4250 1398 4047 
Q 1172 3844 1172 3481 
z
" transform="scale(0.015625)"/>
       </defs>
       <use xlink:href="#DejaVuSans-38"/>
       <use xlink:href="#DejaVuSans-30" x="63.623047"/>
       <use xlink:href="#DejaVuSans-30" x="127.246094"/>
      </g>
     </g>
    </g>
    <g id="ytick_6">
     <g id="line2d_25">
      <path d="M 57.6 105.595234 
L 414.72 105.595234 
" clip-path="url(#pfc03901e2c)" style="fill: none; stroke: #b0b0b0; stroke-width: 0.8; stroke-linecap: square"/>
     </g>
     <g id="line2d_26">
      <g>
       <use xlink:href="#mb4f9e24b06" x="57.6" y="105.595234" style="stroke: #000000; stroke-width: 0.8"/>
      </g>
     </g>
     <g id="text_14">
      <!-- 1000 -->
      <g transform="translate(25.15 109.394452) scale(0.1 -0.1)">
       <use xlink:href="#DejaVuSans-31"/>
       <use xlink:href="#DejaVuSans-30" x="63.623047"/>
       <use xlink:href="#DejaVuSans-30" x="127.246094"/>
       <use xlink:href="#DejaVuSans-30" x="190.869141"/>
      </g>
     </g>
    </g>
    <g id="ytick_7">
     <g id="line2d_27">
      <path d="M 57.6 67.414185 
L 414.72 67.414185 
" clip-path="url(#pfc03901e2c)" style="fill: none; stroke: #b0b0b0; stroke-width: 0.8; stroke-linecap: square"/>
     </g>
     <g id="line2d_28">
      <g>
       <use xlink:href="#mb4f9e24b06" x="57.6" y="67.414185" style="stroke: #000000; stroke-width: 0.8"/>
      </g>
     </g>
     <g id="text_15">
      <!-- 1200 -->
      <g transform="translate(25.15 71.213404) scale(0.1 -0.1)">
       <use xlink:href="#DejaVuSans-31"/>
       <use xlink:href="#DejaVuSans-32" x="63.623047"/>
       <use xlink:href="#DejaVuSans-30" x="127.246094"/>
       <use xlink:href="#DejaVuSans-30" x="190.869141"/>
      </g>
     </g>
    </g>
    <g id="text_16">
     <!-- Fitness -->
     <g transform="translate(19.070312 191.845187) rotate(-90) scale(0.1 -0.1)">
      <defs>
       <path id="DejaVuSans-46" d="M 628 4666 
L 3309 4666 
L 3309 4134 
L 1259 4134 
L 1259 2759 
L 3109 2759 
L 3109 2228 
L 1259 2228 
L 1259 0 
L 628 0 
L 628 4666 
z
" transform="scale(0.015625)"/>
      </defs>
      <use xlink:href="#DejaVuSans-46"/>
      <use xlink:href="#DejaVuSans-69" x="50.269531"/>
      <use xlink:href="#DejaVuSans-74" x="78.052734"/>
      <use xlink:href="#DejaVuSans-6e" x="117.261719"/>
      <use xlink:href="#DejaVuSans-65" x="180.640625"/>
      <use xlink:href="#DejaVuSans-73" x="242.164062"/>
      <use xlink:href="#DejaVuSans-73" x="294.263672"/>
     </g>
    </g>
   </g>
   <g id="line2d_29">
    <path d="M 73.832727 295.488 
L 74.918528 295.338365 
L 77.090131 294.834704 
L 86.862341 292.95627 
L 87.948142 292.746966 
L 89.033943 292.411833 
L 91.205546 291.985034 
L 96.634552 290.725683 
L 97.720353 290.388605 
L 99.891955 290.037142 
L 100.977756 289.865754 
L 102.063557 289.573706 
L 103.149358 289.477574 
L 105.320961 288.83153 
L 107.492563 287.786153 
L 108.578364 286.382133 
L 109.664165 286.123351 
L 110.749967 283.645425 
L 111.835768 284.478716 
L 112.921569 284.139579 
L 114.00737 283.238171 
L 115.093171 280.158758 
L 116.178972 281.798933 
L 117.264773 281.157604 
L 118.350575 280.715171 
L 119.436376 279.938528 
L 120.522177 279.697879 
L 121.607978 279.951878 
L 122.693779 279.360918 
L 123.77958 277.873087 
L 124.865382 279.07747 
L 125.951183 278.44475 
L 127.036984 278.368974 
L 128.122785 278.019387 
L 129.208586 276.929411 
L 130.294387 277.459007 
L 131.380189 275.930214 
L 132.46599 276.538886 
L 133.551791 275.123197 
L 134.637592 274.807274 
L 135.723393 273.512106 
L 136.809194 273.382543 
L 137.894995 272.254768 
L 138.980797 272.021885 
L 140.066598 270.739052 
L 141.152399 270.096703 
L 143.324001 269.568693 
L 144.409802 270.083208 
L 145.495604 267.836658 
L 146.581405 267.596537 
L 147.667206 268.16174 
L 148.753007 267.883765 
L 149.838808 267.93469 
L 153.096212 265.701993 
L 154.182013 265.985631 
L 155.267814 266.12271 
L 156.353615 264.120118 
L 157.439416 264.365698 
L 158.525217 263.267294 
L 159.611019 261.63997 
L 161.782621 260.933697 
L 162.868422 261.834248 
L 163.954223 260.234819 
L 165.040024 259.07142 
L 168.297428 259.213987 
L 169.383229 256.51796 
L 170.46903 256.753597 
L 171.554831 254.906902 
L 172.640632 256.209129 
L 173.726434 255.118578 
L 174.812235 255.185773 
L 175.898036 253.347651 
L 176.983837 252.847449 
L 178.069638 253.62142 
L 179.155439 251.215922 
L 180.24124 251.633801 
L 181.327042 250.741063 
L 182.412843 250.284269 
L 183.498644 248.876903 
L 184.584445 250.621325 
L 185.670246 249.40301 
L 186.756047 248.550959 
L 187.841849 248.85341 
L 188.92765 247.05307 
L 190.013451 245.727855 
L 191.099252 247.545798 
L 192.185053 245.167564 
L 193.270854 245.45007 
L 194.356656 245.363912 
L 195.442457 245.760456 
L 196.528258 243.565717 
L 197.614059 243.889128 
L 198.69986 242.893367 
L 199.785661 242.879886 
L 200.871462 241.245592 
L 201.957264 240.460288 
L 203.043065 239.828497 
L 204.128866 239.461242 
L 205.214667 238.831719 
L 206.300468 237.715062 
L 207.386269 237.673959 
L 208.472071 235.621044 
L 210.643673 235.387792 
L 211.729474 233.616433 
L 212.815275 234.859752 
L 213.901076 232.425404 
L 214.986877 232.65881 
L 216.072679 231.912686 
L 217.15848 231.980949 
L 218.244281 231.742365 
L 219.330082 230.186213 
L 220.415883 229.457015 
L 221.501684 229.788377 
L 222.587486 228.027974 
L 223.673287 228.704505 
L 224.759088 228.020711 
L 225.844889 226.822423 
L 226.93069 226.760718 
L 228.016491 226.194541 
L 229.102292 225.291698 
L 230.188094 225.662472 
L 231.273895 224.399747 
L 232.359696 225.377324 
L 233.445497 222.345289 
L 234.531298 222.27236 
L 235.617099 222.965468 
L 236.702901 221.034212 
L 237.788702 220.352495 
L 238.874503 220.786233 
L 239.960304 219.747324 
L 241.046105 219.486982 
L 242.131906 220.064287 
L 243.217708 218.599966 
L 244.303509 218.874494 
L 245.38931 216.872143 
L 246.475111 216.318486 
L 247.560912 215.274695 
L 248.646713 214.424392 
L 249.732514 214.175932 
L 250.818316 214.25159 
L 251.904117 212.669443 
L 252.989918 213.521049 
L 255.16152 212.038492 
L 256.247321 211.891771 
L 257.333123 212.197544 
L 258.418924 210.503243 
L 259.504725 210.546811 
L 260.590526 209.389582 
L 261.676327 207.497648 
L 262.762128 209.198363 
L 263.847929 207.17797 
L 264.933731 207.454078 
L 266.019532 205.693315 
L 267.105333 206.339147 
L 268.191134 203.809747 
L 269.276935 204.055523 
L 270.362736 203.8781 
L 271.448538 204.07495 
L 272.534339 203.206614 
L 273.62014 201.446902 
L 276.877543 201.626373 
L 277.963344 200.540218 
L 279.049146 200.353292 
L 280.134947 198.683492 
L 281.220748 199.57201 
L 282.306549 199.347875 
L 283.39235 196.801869 
L 284.478151 197.478207 
L 285.563953 196.722305 
L 286.649754 196.497807 
L 287.735555 197.133169 
L 288.821356 196.44942 
L 289.907157 193.312154 
L 292.07876 193.197204 
L 293.164561 193.228263 
L 294.250362 191.156374 
L 295.336163 191.293856 
L 296.421964 191.068575 
L 297.507765 190.695709 
L 298.593566 189.842636 
L 299.679368 188.84475 
L 300.765169 189.706668 
L 301.85097 187.410397 
L 302.936771 188.556984 
L 304.022572 188.734798 
L 305.108373 187.989805 
L 306.194175 186.102354 
L 307.279976 184.713681 
L 308.365777 184.954395 
L 309.451578 184.473589 
L 310.537379 184.587536 
L 311.62318 182.944578 
L 312.708981 182.067709 
L 313.794783 181.958392 
L 314.880584 181.533452 
L 315.966385 180.33463 
L 317.052186 180.766376 
L 319.223788 179.248445 
L 320.30959 177.886621 
L 321.395391 178.570964 
L 322.481192 177.556114 
L 323.566993 175.347844 
L 324.652794 176.138372 
L 325.738595 173.101019 
L 326.824396 174.779614 
L 327.910198 174.884851 
L 328.995999 173.489707 
L 330.0818 171.848788 
L 331.167601 172.476839 
L 332.253402 172.64988 
L 333.339203 171.957878 
L 334.425005 169.861191 
L 335.510806 169.352011 
L 336.596607 169.815671 
L 337.682408 169.755898 
L 338.768209 167.676544 
L 339.85401 168.255739 
L 342.025613 166.407199 
L 343.111414 166.791092 
L 344.197215 165.305732 
L 345.283016 165.915987 
L 346.368817 163.782511 
L 347.454618 164.131496 
L 348.54042 163.542169 
L 349.626221 162.194012 
L 350.712022 161.973272 
L 351.797823 161.138092 
L 353.969425 158.888309 
L 355.055227 160.036062 
L 356.141028 157.380279 
L 357.226829 159.141187 
L 358.31263 157.076841 
L 359.398431 157.289117 
L 360.484232 157.912345 
L 361.570033 156.629412 
L 362.655835 154.405129 
L 363.741636 153.811165 
L 364.827437 155.286193 
L 365.913238 152.881885 
L 366.999039 151.848105 
L 368.08484 151.648535 
L 369.170642 152.102953 
L 370.256443 151.618552 
L 371.342244 150.901077 
L 372.428045 149.72758 
L 373.513846 148.247543 
L 374.599647 148.622164 
L 375.685448 148.412884 
L 376.77125 147.53353 
L 377.857051 147.548702 
L 380.028653 144.980621 
L 381.114454 144.002175 
L 382.200255 144.323883 
L 383.286057 144.231357 
L 384.371858 143.297607 
L 385.457659 144.036655 
L 386.54346 141.80058 
L 387.629261 142.482406 
L 388.715062 140.232209 
L 389.800863 139.12262 
L 390.886665 139.81636 
L 391.972466 139.33032 
L 393.058267 136.906744 
L 394.144068 137.53531 
L 395.229869 136.298924 
L 396.31567 137.531902 
L 398.487273 136.360772 
L 398.487273 136.360772 
" clip-path="url(#pfc03901e2c)" style="fill: none; stroke: #0000ff; stroke-width: 1.5; stroke-linecap: square"/>
   </g>
   <g id="line2d_30">
    <path d="M 73.832727 295.020799 
L 74.918528 294.968141 
L 76.00433 294.651505 
L 79.261733 294.047905 
L 83.604938 293.128228 
L 84.690739 293.083662 
L 94.462949 290.726761 
L 95.54875 290.338655 
L 97.720353 289.831059 
L 98.806154 289.501436 
L 99.891955 289.604603 
L 104.23516 288.682119 
L 105.320961 288.338947 
L 106.406762 285.469665 
L 107.492563 285.047122 
L 108.578364 280.311075 
L 109.664165 281.556401 
L 110.749967 277.027123 
L 111.835768 279.298898 
L 112.921569 279.300132 
L 114.00737 277.798422 
L 115.093171 268.389565 
L 116.178972 276.518511 
L 117.264773 275.922444 
L 118.350575 274.607332 
L 119.436376 274.039612 
L 120.522177 273.084804 
L 121.607978 274.021436 
L 122.693779 273.461234 
L 123.77958 270.783958 
L 124.865382 274.092693 
L 125.951183 273.20897 
L 128.122785 273.451159 
L 129.208586 270.739326 
L 130.294387 272.45992 
L 131.380189 270.132016 
L 132.46599 271.615243 
L 133.551791 269.60576 
L 134.637592 268.865808 
L 135.723393 267.92836 
L 136.809194 267.295248 
L 137.894995 264.994472 
L 138.980797 265.883753 
L 140.066598 265.011982 
L 141.152399 263.982087 
L 142.2382 263.781652 
L 143.324001 263.13678 
L 144.409802 264.243587 
L 145.495604 259.948463 
L 146.581405 259.500745 
L 147.667206 261.631046 
L 148.753007 260.589612 
L 149.838808 262.528189 
L 150.924609 260.305157 
L 152.01041 259.742119 
L 153.096212 259.374431 
L 155.267814 260.614454 
L 157.439416 256.014611 
L 158.525217 256.534842 
L 159.611019 254.412185 
L 160.69682 254.476158 
L 161.782621 253.316149 
L 162.868422 255.327708 
L 163.954223 254.243531 
L 165.040024 252.151707 
L 166.125825 251.632588 
L 167.211627 252.257494 
L 168.297428 253.511438 
L 169.383229 248.867237 
L 170.46903 250.387202 
L 171.554831 246.812607 
L 172.640632 250.019354 
L 173.726434 248.170321 
L 174.812235 248.727999 
L 175.898036 245.499575 
L 176.983837 245.521414 
L 178.069638 246.423316 
L 179.155439 243.560164 
L 180.24124 244.390981 
L 181.327042 242.813227 
L 182.412843 242.761166 
L 183.498644 240.416508 
L 184.584445 243.767716 
L 185.670246 242.475286 
L 186.756047 241.690091 
L 187.841849 242.531762 
L 188.92765 239.220648 
L 190.013451 238.075551 
L 191.099252 242.364916 
L 192.185053 236.695767 
L 193.270854 238.563557 
L 194.356656 238.635552 
L 195.442457 239.309347 
L 196.528258 236.489089 
L 197.614059 237.85907 
L 198.69986 236.561185 
L 199.785661 236.136425 
L 200.871462 234.36112 
L 201.957264 233.748579 
L 203.043065 232.416189 
L 204.128866 232.891277 
L 205.214667 231.234036 
L 206.300468 230.33721 
L 207.386269 230.812065 
L 208.472071 228.49349 
L 209.557872 227.861397 
L 210.643673 228.262508 
L 211.729474 225.956297 
L 212.815275 227.244896 
L 213.901076 224.635279 
L 214.986877 225.045323 
L 216.072679 222.050612 
L 217.15848 224.565658 
L 218.244281 224.667041 
L 219.330082 223.395407 
L 220.415883 221.693685 
L 221.501684 222.245152 
L 222.587486 220.639797 
L 223.673287 221.804524 
L 225.844889 219.522639 
L 226.93069 219.502424 
L 228.016491 218.554297 
L 229.102292 218.106686 
L 230.188094 216.914094 
L 231.273895 216.265862 
L 232.359696 218.621113 
L 233.445497 214.888219 
L 234.531298 215.139663 
L 235.617099 215.140556 
L 236.702901 213.988265 
L 237.788702 213.698828 
L 238.874503 214.160499 
L 239.960304 212.529033 
L 241.046105 212.853141 
L 242.131906 213.5408 
L 243.217708 211.07997 
L 244.303509 212.124765 
L 245.38931 209.686768 
L 246.475111 208.933725 
L 247.560912 207.023548 
L 248.646713 207.123557 
L 249.732514 206.789296 
L 250.818316 207.180077 
L 251.904117 204.620366 
L 252.989918 206.490637 
L 254.075719 205.971132 
L 255.16152 204.640501 
L 256.247321 204.584883 
L 257.333123 205.716845 
L 258.418924 202.751295 
L 259.504725 204.128681 
L 260.590526 202.709338 
L 261.676327 199.633422 
L 262.762128 202.668698 
L 263.847929 199.044747 
L 264.933731 200.75193 
L 266.019532 196.953149 
L 267.105333 198.78519 
L 268.191134 195.828777 
L 269.276935 196.393917 
L 270.362736 196.096595 
L 271.448538 197.800914 
L 272.534339 196.003022 
L 273.62014 193.02261 
L 274.705941 194.691632 
L 275.791742 194.427324 
L 276.877543 194.473232 
L 277.963344 193.530879 
L 279.049146 193.00193 
L 280.134947 191.611325 
L 281.220748 192.307736 
L 282.306549 191.782073 
L 283.39235 188.336977 
L 284.478151 191.134738 
L 285.563953 189.598 
L 286.649754 188.728245 
L 287.735555 190.562486 
L 288.821356 189.799631 
L 289.907157 184.912659 
L 290.992958 183.10759 
L 292.07876 185.290186 
L 293.164561 185.670116 
L 294.250362 183.16565 
L 295.336163 184.050663 
L 296.421964 182.047982 
L 297.507765 184.15305 
L 299.679368 180.865426 
L 300.765169 183.053872 
L 301.85097 178.890827 
L 302.936771 181.502055 
L 304.022572 182.790702 
L 305.108373 181.728423 
L 306.194175 178.77694 
L 307.279976 176.846718 
L 308.365777 177.63383 
L 309.451578 176.992887 
L 310.537379 177.85322 
L 311.62318 174.709636 
L 312.708981 174.268831 
L 313.794783 174.054104 
L 314.880584 172.713912 
L 315.966385 172.515457 
L 317.052186 173.678544 
L 318.137987 169.546831 
L 319.223788 171.722031 
L 320.30959 170.393176 
L 321.395391 171.056778 
L 322.481192 171.026045 
L 323.566993 167.536442 
L 324.652794 168.752736 
L 325.738595 165.659745 
L 326.824396 167.50858 
L 327.910198 167.799868 
L 328.995999 165.824606 
L 330.0818 164.689498 
L 331.167601 165.188876 
L 332.253402 164.975688 
L 333.339203 165.102699 
L 334.425005 161.832568 
L 335.510806 160.291076 
L 336.596607 162.609351 
L 337.682408 162.510233 
L 338.768209 160.043961 
L 339.85401 161.366193 
L 340.939811 158.984481 
L 342.025613 158.654688 
L 343.111414 160.166033 
L 344.197215 157.583819 
L 345.283016 158.57699 
L 346.368817 155.776347 
L 347.454618 156.1742 
L 348.54042 156.397251 
L 349.626221 154.853673 
L 350.712022 154.809763 
L 351.797823 153.378828 
L 352.883624 152.80263 
L 353.969425 150.740108 
L 355.055227 153.098423 
L 356.141028 149.209495 
L 357.226829 151.681815 
L 358.31263 149.477452 
L 359.398431 150.438791 
L 360.484232 151.138686 
L 361.570033 149.551385 
L 362.655835 147.138509 
L 363.741636 146.474084 
L 364.827437 148.606692 
L 365.913238 145.166785 
L 366.999039 144.71223 
L 368.08484 144.122403 
L 369.170642 144.073303 
L 370.256443 144.768144 
L 371.342244 143.137883 
L 372.428045 142.520156 
L 373.513846 140.243827 
L 374.599647 140.968461 
L 375.685448 140.693599 
L 377.857051 139.822835 
L 378.942852 138.614655 
L 380.028653 136.159065 
L 381.114454 136.377807 
L 382.200255 135.161836 
L 383.286057 137.771325 
L 384.371858 135.577086 
L 385.457659 137.696266 
L 386.54346 133.81113 
L 387.629261 135.848524 
L 388.715062 129.920741 
L 389.800863 127.93237 
L 390.886665 131.132084 
L 391.972466 131.316521 
L 393.058267 128.276983 
L 394.144068 129.071115 
L 395.229869 127.443169 
L 396.31567 130.850522 
L 397.401472 129.774264 
L 398.487273 128.532234 
L 398.487273 128.532234 
" clip-path="url(#pfc03901e2c)" style="fill: none; stroke-dasharray: 9.6,2.4,1.5,2.4; stroke-dashoffset: 0; stroke: #008000; stroke-width: 1.5"/>
   </g>
   <g id="line2d_31">
    <path d="M 73.832727 294.334139 
L 74.918528 294.502632 
L 76.00433 293.60406 
L 77.090131 294.084931 
L 78.175932 293.137812 
L 79.261733 293.675191 
L 80.347534 293.73693 
L 81.433335 293.123113 
L 84.690739 292.510689 
L 87.948142 291.883183 
L 89.033943 291.196058 
L 90.119745 291.073038 
L 91.205546 290.451126 
L 92.291347 289.507253 
L 94.462949 289.46827 
L 95.54875 288.429936 
L 97.720353 288.451203 
L 98.806154 286.38158 
L 99.891955 288.492668 
L 100.977756 287.807604 
L 102.063557 287.650317 
L 103.149358 286.597742 
L 104.23516 287.105913 
L 105.320961 287.345404 
L 106.406762 262.673517 
L 107.492563 273.783782 
L 108.578364 241.030131 
L 109.664165 263.476273 
L 110.749967 260.250013 
L 111.835768 262.102366 
L 112.921569 263.694783 
L 114.00737 256.81284 
L 115.093171 196.868919 
L 116.178972 263.328341 
L 117.264773 264.500575 
L 118.350575 253.690261 
L 119.436376 260.333839 
L 120.522177 252.469154 
L 121.607978 260.325898 
L 122.693779 248.139366 
L 123.77958 250.027934 
L 124.865382 261.045324 
L 125.951183 259.46438 
L 127.036984 258.687988 
L 128.122785 260.456439 
L 129.208586 252.142229 
L 130.294387 251.493495 
L 131.380189 248.232795 
L 132.46599 256.987328 
L 133.551791 247.581026 
L 134.637592 249.546414 
L 135.723393 254.984426 
L 136.809194 252.089558 
L 137.894995 239.667564 
L 138.980797 250.110539 
L 140.066598 252.194633 
L 141.152399 250.913353 
L 142.2382 251.423165 
L 143.324001 241.651871 
L 144.409802 240.742265 
L 145.495604 240.570661 
L 146.581405 226.53084 
L 147.667206 238.305684 
L 148.753007 239.849802 
L 149.838808 248.812498 
L 150.924609 239.882581 
L 152.01041 240.228157 
L 153.096212 243.516138 
L 154.182013 245.194825 
L 155.267814 240.868377 
L 156.353615 242.537004 
L 157.439416 198.956487 
L 158.525217 240.737836 
L 159.611019 240.291805 
L 160.69682 233.841938 
L 161.782621 229.82344 
L 162.868422 232.213154 
L 163.954223 238.625451 
L 165.040024 234.221477 
L 166.125825 234.463239 
L 167.211627 227.057929 
L 168.297428 237.686521 
L 169.383229 227.881686 
L 170.46903 229.165409 
L 171.554831 227.777585 
L 172.640632 239.223347 
L 173.726434 227.864218 
L 174.812235 228.284763 
L 176.983837 221.954173 
L 178.069638 227.044394 
L 179.155439 224.439416 
L 180.24124 228.847322 
L 181.327042 221.526106 
L 182.412843 227.925746 
L 183.498644 215.825008 
L 184.584445 222.202579 
L 185.670246 223.814831 
L 186.756047 220.31739 
L 187.841849 228.46261 
L 188.92765 219.764987 
L 190.013451 222.575245 
L 191.099252 232.453064 
L 192.185053 219.079522 
L 193.270854 222.522708 
L 194.356656 224.877601 
L 195.442457 220.404557 
L 196.528258 223.290682 
L 197.614059 225.027652 
L 198.69986 224.403526 
L 199.785661 216.339421 
L 200.871462 216.341216 
L 201.957264 222.50923 
L 203.043065 213.902535 
L 204.128866 220.639523 
L 205.214667 209.121485 
L 206.300468 213.98386 
L 207.386269 214.278561 
L 209.557872 209.879474 
L 210.643673 211.637291 
L 211.729474 209.195098 
L 212.815275 212.82476 
L 213.901076 207.661995 
L 214.986877 208.444993 
L 216.072679 171.323984 
L 217.15848 206.764798 
L 218.244281 203.526224 
L 219.330082 208.70682 
L 220.415883 203.44276 
L 221.501684 207.84912 
L 222.587486 205.817182 
L 223.673287 206.473438 
L 224.759088 203.930962 
L 225.844889 203.722284 
L 226.93069 205.380678 
L 228.016491 196.072424 
L 229.102292 205.437701 
L 230.188094 192.571623 
L 231.273895 172.211045 
L 232.359696 192.35275 
L 233.445497 196.299353 
L 234.531298 199.030501 
L 235.617099 194.848264 
L 236.702901 203.771976 
L 237.788702 203.062763 
L 238.874503 198.022712 
L 239.960304 197.927279 
L 241.046105 202.083019 
L 242.131906 191.18357 
L 243.217708 190.76984 
L 244.303509 191.748726 
L 245.38931 194.206326 
L 246.475111 191.30888 
L 247.560912 183.150927 
L 248.646713 194.590484 
L 249.732514 191.96716 
L 250.818316 194.498296 
L 251.904117 183.676642 
L 252.989918 188.972677 
L 254.075719 185.740747 
L 255.16152 184.563835 
L 256.247321 181.658391 
L 257.333123 191.445091 
L 258.418924 178.71532 
L 259.504725 189.05679 
L 260.590526 183.693231 
L 261.676327 180.70524 
L 262.762128 188.268485 
L 263.847929 176.949618 
L 264.933731 185.655241 
L 266.019532 161.094957 
L 267.105333 179.148007 
L 268.191134 175.622865 
L 269.276935 186.755027 
L 270.362736 172.031116 
L 271.448538 180.807679 
L 272.534339 176.385111 
L 273.62014 172.689071 
L 274.705941 179.992037 
L 275.791742 182.129087 
L 276.877543 176.911208 
L 277.963344 172.24535 
L 279.049146 172.617673 
L 280.134947 181.309417 
L 281.220748 170.518803 
L 282.306549 170.362509 
L 283.39235 165.320205 
L 284.478151 182.73798 
L 285.563953 172.642643 
L 286.649754 167.784296 
L 287.735555 172.011052 
L 288.821356 170.926921 
L 289.907157 166.959929 
L 290.992958 136.347548 
L 292.07876 171.210319 
L 293.164561 170.7208 
L 294.250362 164.245333 
L 295.336163 169.724275 
L 296.421964 142.463178 
L 297.507765 166.732064 
L 298.593566 161.962087 
L 299.679368 164.84949 
L 300.765169 168.765243 
L 301.85097 160.071018 
L 302.936771 168.968042 
L 304.022572 169.870985 
L 305.108373 164.681608 
L 306.194175 161.976653 
L 307.279976 156.18329 
L 308.365777 161.814402 
L 309.451578 154.091999 
L 310.537379 164.680787 
L 311.62318 159.711429 
L 312.708981 157.759251 
L 313.794783 156.201292 
L 314.880584 155.380151 
L 315.966385 148.172887 
L 317.052186 155.006187 
L 318.137987 95.425692 
L 319.223788 157.791876 
L 320.30959 150.862092 
L 321.395391 146.264445 
L 322.481192 151.127871 
L 323.566993 157.666528 
L 324.652794 147.157576 
L 325.738595 148.484463 
L 326.824396 148.228555 
L 327.910198 149.334755 
L 328.995999 150.806959 
L 330.0818 153.041638 
L 331.167601 140.444317 
L 332.253402 139.735715 
L 333.339203 151.311522 
L 334.425005 147.15792 
L 335.510806 124.388117 
L 336.596607 144.717082 
L 337.682408 145.666473 
L 338.768209 147.336913 
L 339.85401 151.189915 
L 340.939811 134.583927 
L 342.025613 136.10128 
L 343.111414 144.789187 
L 344.197215 143.53828 
L 345.283016 138.986622 
L 346.368817 139.801348 
L 347.454618 139.290333 
L 348.54042 140.804975 
L 349.626221 140.523161 
L 350.712022 137.92538 
L 351.797823 138.054012 
L 352.883624 139.80383 
L 353.969425 132.258873 
L 355.055227 127.725484 
L 356.141028 129.45667 
L 357.226829 132.753203 
L 358.31263 140.139327 
L 360.484232 135.535609 
L 361.570033 134.757307 
L 362.655835 125.453025 
L 363.741636 122.399476 
L 364.827437 132.894244 
L 365.913238 132.861523 
L 366.999039 127.921277 
L 368.08484 118.909404 
L 369.170642 126.628257 
L 370.256443 129.6202 
L 372.428045 128.596852 
L 373.513846 124.906673 
L 374.599647 124.778538 
L 375.685448 120.840964 
L 376.77125 124.291825 
L 377.857051 121.968813 
L 378.942852 124.688125 
L 380.028653 117.878688 
L 381.114454 118.835619 
L 382.200255 88.973095 
L 383.286057 125.363357 
L 384.371858 117.450163 
L 385.457659 126.083279 
L 386.54346 115.482521 
L 387.629261 121.352075 
L 388.715062 81.125019 
L 389.800863 53.568 
L 390.886665 87.176963 
L 391.972466 110.814736 
L 393.058267 92.986687 
L 394.144068 114.60136 
L 395.229869 107.4641 
L 396.31567 117.475515 
L 397.401472 117.174495 
L 398.487273 109.706492 
L 398.487273 109.706492 
" clip-path="url(#pfc03901e2c)" style="fill: none; stroke: #ff0000; stroke-width: 1.5; stroke-linecap: square"/>
   </g>
   <g id="patch_3">
    <path d="M 57.6 307.584 
L 57.6 41.472 
" style="fill: none; stroke: #000000; stroke-width: 0.8; stroke-linejoin: miter; stroke-linecap: square"/>
   </g>
   <g id="patch_4">
    <path d="M 414.72 307.584 
L 414.72 41.472 
" style="fill: none; stroke: #000000; stroke-width: 0.8; stroke-linejoin: miter; stroke-linecap: square"/>
   </g>
   <g id="patch_5">
    <path d="M 57.6 307.584 
L 414.72 307.584 
" style="fill: none; stroke: #000000; stroke-width: 0.8; stroke-linejoin: miter; stroke-linecap: square"/>
   </g>
   <g id="patch_6">
    <path d="M 57.6 41.472 
L 414.72 41.472 
" style="fill: none; stroke: #000000; stroke-width: 0.8; stroke-linejoin: miter; stroke-linecap: square"/>
   </g>
   <g id="text_17">
    <!-- Population's average and best fitness -->
    <g transform="translate(123.529687 35.472) scale(0.12 -0.12)">
     <defs>
      <path id="DejaVuSans-50" d="M 1259 4147 
L 1259 2394 
L 2053 2394 
Q 2494 2394 2734 2622 
Q 2975 2850 2975 3272 
Q 2975 3691 2734 3919 
Q 2494 4147 2053 4147 
L 1259 4147 
z
M 628 4666 
L 2053 4666 
Q 2838 4666 3239 4311 
Q 3641 3956 3641 3272 
Q 3641 2581 3239 2228 
Q 2838 1875 2053 1875 
L 1259 1875 
L 1259 0 
L 628 0 
L 628 4666 
z
" transform="scale(0.015625)"/>
      <path id="DejaVuSans-70" d="M 1159 525 
L 1159 -1331 
L 581 -1331 
L 581 3500 
L 1159 3500 
L 1159 2969 
Q 1341 3281 1617 3432 
Q 1894 3584 2278 3584 
Q 2916 3584 3314 3078 
Q 3713 2572 3713 1747 
Q 3713 922 3314 415 
Q 2916 -91 2278 -91 
Q 1894 -91 1617 61 
Q 1341 213 1159 525 
z
M 3116 1747 
Q 3116 2381 2855 2742 
Q 2594 3103 2138 3103 
Q 1681 3103 1420 2742 
Q 1159 2381 1159 1747 
Q 1159 1113 1420 752 
Q 1681 391 2138 391 
Q 2594 391 2855 752 
Q 3116 1113 3116 1747 
z
" transform="scale(0.015625)"/>
      <path id="DejaVuSans-75" d="M 544 1381 
L 544 3500 
L 1119 3500 
L 1119 1403 
Q 1119 906 1312 657 
Q 1506 409 1894 409 
Q 2359 409 2629 706 
Q 2900 1003 2900 1516 
L 2900 3500 
L 3475 3500 
L 3475 0 
L 2900 0 
L 2900 538 
Q 2691 219 2414 64 
Q 2138 -91 1772 -91 
Q 1169 -91 856 284 
Q 544 659 544 1381 
z
M 1991 3584 
L 1991 3584 
z
" transform="scale(0.015625)"/>
      <path id="DejaVuSans-6c" d="M 603 4863 
L 1178 4863 
L 1178 0 
L 603 0 
L 603 4863 
z
" transform="scale(0.015625)"/>
      <path id="DejaVuSans-27" d="M 1147 4666 
L 1147 2931 
L 616 2931 
L 616 4666 
L 1147 4666 
z
" transform="scale(0.015625)"/>
      <path id="DejaVuSans-20" transform="scale(0.015625)"/>
      <path id="DejaVuSans-76" d="M 191 3500 
L 800 3500 
L 1894 563 
L 2988 3500 
L 3597 3500 
L 2284 0 
L 1503 0 
L 191 3500 
z
" transform="scale(0.015625)"/>
      <path id="DejaVuSans-67" d="M 2906 1791 
Q 2906 2416 2648 2759 
Q 2391 3103 1925 3103 
Q 1463 3103 1205 2759 
Q 947 2416 947 1791 
Q 947 1169 1205 825 
Q 1463 481 1925 481 
Q 2391 481 2648 825 
Q 2906 1169 2906 1791 
z
M 3481 434 
Q 3481 -459 3084 -895 
Q 2688 -1331 1869 -1331 
Q 1566 -1331 1297 -1286 
Q 1028 -1241 775 -1147 
L 775 -588 
Q 1028 -725 1275 -790 
Q 1522 -856 1778 -856 
Q 2344 -856 2625 -561 
Q 2906 -266 2906 331 
L 2906 616 
Q 2728 306 2450 153 
Q 2172 0 1784 0 
Q 1141 0 747 490 
Q 353 981 353 1791 
Q 353 2603 747 3093 
Q 1141 3584 1784 3584 
Q 2172 3584 2450 3431 
Q 2728 3278 2906 2969 
L 2906 3500 
L 3481 3500 
L 3481 434 
z
" transform="scale(0.015625)"/>
      <path id="DejaVuSans-64" d="M 2906 2969 
L 2906 4863 
L 3481 4863 
L 3481 0 
L 2906 0 
L 2906 525 
Q 2725 213 2448 61 
Q 2172 -91 1784 -91 
Q 1150 -91 751 415 
Q 353 922 353 1747 
Q 353 2572 751 3078 
Q 1150 3584 1784 3584 
Q 2172 3584 2448 3432 
Q 2725 3281 2906 2969 
z
M 947 1747 
Q 947 1113 1208 752 
Q 1469 391 1925 391 
Q 2381 391 2643 752 
Q 2906 1113 2906 1747 
Q 2906 2381 2643 2742 
Q 2381 3103 1925 3103 
Q 1469 3103 1208 2742 
Q 947 2381 947 1747 
z
" transform="scale(0.015625)"/>
      <path id="DejaVuSans-62" d="M 3116 1747 
Q 3116 2381 2855 2742 
Q 2594 3103 2138 3103 
Q 1681 3103 1420 2742 
Q 1159 2381 1159 1747 
Q 1159 1113 1420 752 
Q 1681 391 2138 391 
Q 2594 391 2855 752 
Q 3116 1113 3116 1747 
z
M 1159 2969 
Q 1341 3281 1617 3432 
Q 1894 3584 2278 3584 
Q 2916 3584 3314 3078 
Q 3713 2572 3713 1747 
Q 3713 922 3314 415 
Q 2916 -91 2278 -91 
Q 1894 -91 1617 61 
Q 1341 213 1159 525 
L 1159 0 
L 581 0 
L 581 4863 
L 1159 4863 
L 1159 2969 
z
" transform="scale(0.015625)"/>
      <path id="DejaVuSans-66" d="M 2375 4863 
L 2375 4384 
L 1825 4384 
Q 1516 4384 1395 4259 
Q 1275 4134 1275 3809 
L 1275 3500 
L 2222 3500 
L 2222 3053 
L 1275 3053 
L 1275 0 
L 697 0 
L 697 3053 
L 147 3053 
L 147 3500 
L 697 3500 
L 697 3744 
Q 697 4328 969 4595 
Q 1241 4863 1831 4863 
L 2375 4863 
z
" transform="scale(0.015625)"/>
     </defs>
     <use xlink:href="#DejaVuSans-50"/>
     <use xlink:href="#DejaVuSans-6f" x="56.677734"/>
     <use xlink:href="#DejaVuSans-70" x="117.859375"/>
     <use xlink:href="#DejaVuSans-75" x="181.335938"/>
     <use xlink:href="#DejaVuSans-6c" x="244.714844"/>
     <use xlink:href="#DejaVuSans-61" x="272.498047"/>
     <use xlink:href="#DejaVuSans-74" x="333.777344"/>
     <use xlink:href="#DejaVuSans-69" x="372.986328"/>
     <use xlink:href="#DejaVuSans-6f" x="400.769531"/>
     <use xlink:href="#DejaVuSans-6e" x="461.951172"/>
     <use xlink:href="#DejaVuSans-27" x="525.330078"/>
     <use xlink:href="#DejaVuSans-73" x="552.820312"/>
     <use xlink:href="#DejaVuSans-20" x="604.919922"/>
     <use xlink:href="#DejaVuSans-61" x="636.707031"/>
     <use xlink:href="#DejaVuSans-76" x="697.986328"/>
     <use xlink:href="#DejaVuSans-65" x="757.166016"/>
     <use xlink:href="#DejaVuSans-72" x="818.689453"/>
     <use xlink:href="#DejaVuSans-61" x="859.802734"/>
     <use xlink:href="#DejaVuSans-67" x="921.082031"/>
     <use xlink:href="#DejaVuSans-65" x="984.558594"/>
     <use xlink:href="#DejaVuSans-20" x="1046.082031"/>
     <use xlink:href="#DejaVuSans-61" x="1077.869141"/>
     <use xlink:href="#DejaVuSans-6e" x="1139.148438"/>
     <use xlink:href="#DejaVuSans-64" x="1202.527344"/>
     <use xlink:href="#DejaVuSans-20" x="1266.003906"/>
     <use xlink:href="#DejaVuSans-62" x="1297.791016"/>
     <use xlink:href="#DejaVuSans-65" x="1361.267578"/>
     <use xlink:href="#DejaVuSans-73" x="1422.791016"/>
     <use xlink:href="#DejaVuSans-74" x="1474.890625"/>
     <use xlink:href="#DejaVuSans-20" x="1514.099609"/>
     <use xlink:href="#DejaVuSans-66" x="1545.886719"/>
     <use xlink:href="#DejaVuSans-69" x="1581.091797"/>
     <use xlink:href="#DejaVuSans-74" x="1608.875"/>
     <use xlink:href="#DejaVuSans-6e" x="1648.083984"/>
     <use xlink:href="#DejaVuSans-65" x="1711.462891"/>
     <use xlink:href="#DejaVuSans-73" x="1772.986328"/>
     <use xlink:href="#DejaVuSans-73" x="1825.085938"/>
    </g>
   </g>
   <g id="legend_1">
    <g id="patch_7">
     <path d="M 64.6 93.506375 
L 137.540625 93.506375 
Q 139.540625 93.506375 139.540625 91.506375 
L 139.540625 48.472 
Q 139.540625 46.472 137.540625 46.472 
L 64.6 46.472 
Q 62.6 46.472 62.6 48.472 
L 62.6 91.506375 
Q 62.6 93.506375 64.6 93.506375 
z
" style="fill: #ffffff; opacity: 0.8; stroke: #cccccc; stroke-linejoin: miter"/>
    </g>
    <g id="line2d_32">
     <path d="M 66.6 54.570438 
L 76.6 54.570438 
L 86.6 54.570438 
" style="fill: none; stroke: #0000ff; stroke-width: 1.5; stroke-linecap: square"/>
    </g>
    <g id="text_18">
     <!-- average -->
     <g transform="translate(94.6 58.070438) scale(0.1 -0.1)">
      <use xlink:href="#DejaVuSans-61"/>
      <use xlink:href="#DejaVuSans-76" x="61.279297"/>
      <use xlink:href="#DejaVuSans-65" x="120.458984"/>
      <use xlink:href="#DejaVuSans-72" x="181.982422"/>
      <use xlink:href="#DejaVuSans-61" x="223.095703"/>
      <use xlink:href="#DejaVuSans-67" x="284.375"/>
      <use xlink:href="#DejaVuSans-65" x="347.851562"/>
     </g>
    </g>
    <g id="line2d_33">
     <path d="M 66.6 69.248563 
L 76.6 69.248563 
L 86.6 69.248563 
" style="fill: none; stroke-dasharray: 9.6,2.4,1.5,2.4; stroke-dashoffset: 0; stroke: #008000; stroke-width: 1.5"/>
    </g>
    <g id="text_19">
     <!-- +1 sd -->
     <g transform="translate(94.6 72.748563) scale(0.1 -0.1)">
      <defs>
       <path id="DejaVuSans-2b" d="M 2944 4013 
L 2944 2272 
L 4684 2272 
L 4684 1741 
L 2944 1741 
L 2944 0 
L 2419 0 
L 2419 1741 
L 678 1741 
L 678 2272 
L 2419 2272 
L 2419 4013 
L 2944 4013 
z
" transform="scale(0.015625)"/>
      </defs>
      <use xlink:href="#DejaVuSans-2b"/>
      <use xlink:href="#DejaVuSans-31" x="83.789062"/>
      <use xlink:href="#DejaVuSans-20" x="147.412109"/>
      <use xlink:href="#DejaVuSans-73" x="179.199219"/>
      <use xlink:href="#DejaVuSans-64" x="231.298828"/>
     </g>
    </g>
    <g id="line2d_34">
     <path d="M 66.6 83.926688 
L 76.6 83.926688 
L 86.6 83.926688 
" style="fill: none; stroke: #ff0000; stroke-width: 1.5; stroke-linecap: square"/>
    </g>
    <g id="text_20">
     <!-- best -->
     <g transform="translate(94.6 87.426688) scale(0.1 -0.1)">
      <use xlink:href="#DejaVuSans-62"/>
      <use xlink:href="#DejaVuSans-65" x="63.476562"/>
      <use xlink:href="#DejaVuSans-73" x="125"/>
      <use xlink:href="#DejaVuSans-74" x="177.099609"/>
     </g>
    </g>
   </g>
  </g>
 </g>
 <defs>
  <clipPath id="pfc03901e2c">
   <rect x="57.6" y="41.472" width="357.12" height="266.112"/>
  </clipPath>
 </defs>
</svg>
