<?xml version="1.0" encoding="UTF-8" standalone="no"?>
<!DOCTYPE svg PUBLIC "-//W3C//DTD SVG 1.1//EN"
 "http://www.w3.org/Graphics/SVG/1.1/DTD/svg11.dtd">
<!-- Generated by graphviz version 2.43.0 (0)
 -->
<!-- Title: %3 Pages: 1 -->
<svg width="1108pt" height="459pt"
 viewBox="0.00 0.00 1108.25 458.88" xmlns="http://www.w3.org/2000/svg" xmlns:xlink="http://www.w3.org/1999/xlink">
<g id="graph0" class="graph" transform="scale(1 1) rotate(0) translate(4 454.88)">
<title>%3</title>
<polygon fill="white" stroke="transparent" points="-4,4 -4,-454.88 1104.25,-454.88 1104.25,4 -4,4"/>
<!-- &#45;1 -->
<g id="node1" class="node">
<title>&#45;1</title>
<polygon fill="lightgray" stroke="black" points="29.26,-426.65 3.26,-426.65 3.26,-408.65 29.26,-408.65 29.26,-426.65"/>
<text text-anchor="middle" x="16.26" y="-415.45" font-family="Times,serif" font-size="9.00">&#45;1</text>
</g>
<!-- 4 -->
<g id="node9" class="node">
<title>4</title>
<ellipse fill="lightblue" stroke="black" cx="16.26" cy="-315.18" rx="16.03" ry="16.03"/>
<text text-anchor="middle" x="16.26" y="-312.98" font-family="Times,serif" font-size="9.00">4</text>
</g>
<!-- &#45;1&#45;&gt;4 -->
<g id="edge2" class="edge">
<title>&#45;1&#45;&gt;4</title>
<path fill="none" stroke="green" stroke-width="2.15" d="M16.26,-408.43C16.26,-394.08 16.26,-363.89 16.26,-341.94"/>
<polygon fill="green" stroke="green" stroke-width="2.15" points="19.76,-341.64 16.26,-331.64 12.76,-341.64 19.76,-341.64"/>
</g>
<!-- &#45;2 -->
<g id="node2" class="node">
<title>&#45;2</title>
<polygon fill="lightgray" stroke="black" points="73.26,-426.65 47.26,-426.65 47.26,-408.65 73.26,-408.65 73.26,-426.65"/>
<text text-anchor="middle" x="60.26" y="-415.45" font-family="Times,serif" font-size="9.00">&#45;2</text>
</g>
<!-- &#45;3 -->
<g id="node3" class="node">
<title>&#45;3</title>
<polygon fill="lightgray" stroke="black" points="117.26,-426.65 91.26,-426.65 91.26,-408.65 117.26,-408.65 117.26,-426.65"/>
<text text-anchor="middle" x="104.26" y="-415.45" font-family="Times,serif" font-size="9.00">&#45;3</text>
</g>
<!-- 6 -->
<g id="node11" class="node">
<title>6</title>
<ellipse fill="lightblue" stroke="black" cx="104.26" cy="-315.18" rx="16.03" ry="16.03"/>
<text text-anchor="middle" x="104.26" y="-312.98" font-family="Times,serif" font-size="9.00">6</text>
</g>
<!-- &#45;3&#45;&gt;6 -->
<g id="edge1" class="edge">
<title>&#45;3&#45;&gt;6</title>
<path fill="none" stroke="green" stroke-width="2.01" d="M104.26,-408.43C104.26,-394.08 104.26,-363.89 104.26,-341.94"/>
<polygon fill="green" stroke="green" stroke-width="2.01" points="107.76,-341.64 104.26,-331.64 100.76,-341.64 107.76,-341.64"/>
</g>
<!-- &#45;4 -->
<g id="node4" class="node">
<title>&#45;4</title>
<polygon fill="lightgray" stroke="black" points="161.26,-426.65 135.26,-426.65 135.26,-408.65 161.26,-408.65 161.26,-426.65"/>
<text text-anchor="middle" x="148.26" y="-415.45" font-family="Times,serif" font-size="9.00">&#45;4</text>
</g>
<!-- 0 -->
<g id="node5" class="node">
<title>0</title>
<ellipse fill="lightblue" stroke="black" cx="243.26" cy="-212.71" rx="16.03" ry="16.03"/>
<text text-anchor="middle" x="243.26" y="-210.51" font-family="Times,serif" font-size="9.00">0</text>
</g>
<!-- 1 -->
<g id="node6" class="node">
<title>1</title>
<ellipse fill="lightblue" stroke="black" cx="279.26" cy="-417.65" rx="16.03" ry="16.03"/>
<text text-anchor="middle" x="279.26" y="-415.45" font-family="Times,serif" font-size="9.00">1</text>
</g>
<!-- 2 -->
<g id="node7" class="node">
<title>2</title>
<ellipse fill="lightblue" stroke="black" cx="330.26" cy="-417.65" rx="16.03" ry="16.03"/>
<text text-anchor="middle" x="330.26" y="-415.45" font-family="Times,serif" font-size="9.00">2</text>
</g>
<!-- 3 -->
<g id="node8" class="node">
<title>3</title>
<ellipse fill="lightblue" stroke="black" cx="381.26" cy="-417.65" rx="16.03" ry="16.03"/>
<text text-anchor="middle" x="381.26" y="-415.45" font-family="Times,serif" font-size="9.00">3</text>
</g>
<!-- 5 -->
<g id="node10" class="node">
<title>5</title>
<ellipse fill="lightblue" stroke="black" cx="432.26" cy="-417.65" rx="16.03" ry="16.03"/>
<text text-anchor="middle" x="432.26" y="-415.45" font-family="Times,serif" font-size="9.00">5</text>
</g>
<!-- 7 -->
<g id="node12" class="node">
<title>7</title>
<ellipse fill="lightblue" stroke="black" cx="483.26" cy="-417.65" rx="16.03" ry="16.03"/>
<text text-anchor="middle" x="483.26" y="-415.45" font-family="Times,serif" font-size="9.00">7</text>
</g>
<!-- 8 -->
<g id="node13" class="node">
<title>8</title>
<ellipse fill="lightblue" stroke="black" cx="534.26" cy="-417.65" rx="16.03" ry="16.03"/>
<text text-anchor="middle" x="534.26" y="-415.45" font-family="Times,serif" font-size="9.00">8</text>
</g>
<!-- 9 -->
<g id="node14" class="node">
<title>9</title>
<ellipse fill="lightblue" stroke="black" cx="664.26" cy="-315.18" rx="16.03" ry="16.03"/>
<text text-anchor="middle" x="664.26" y="-312.98" font-family="Times,serif" font-size="9.00">9</text>
</g>
<!-- 10 -->
<g id="node15" class="node">
<title>10</title>
<ellipse fill="lightblue" stroke="black" cx="768.26" cy="-417.65" rx="20.51" ry="20.51"/>
<text text-anchor="middle" x="768.26" y="-415.45" font-family="Times,serif" font-size="9.00">10</text>
</g>
<!-- 11 -->
<g id="node16" class="node">
<title>11</title>
<ellipse fill="lightblue" stroke="black" cx="335.26" cy="-20.51" rx="20.51" ry="20.51"/>
<text text-anchor="middle" x="335.26" y="-18.31" font-family="Times,serif" font-size="9.00">11</text>
</g>
<!-- 12 -->
<g id="node17" class="node">
<title>12</title>
<ellipse fill="lightblue" stroke="black" cx="827.26" cy="-417.65" rx="20.51" ry="20.51"/>
<text text-anchor="middle" x="827.26" y="-415.45" font-family="Times,serif" font-size="9.00">12</text>
</g>
<!-- 13 -->
<g id="node18" class="node">
<title>13</title>
<ellipse fill="lightblue" stroke="black" cx="294.26" cy="-110.25" rx="20.51" ry="20.51"/>
<text text-anchor="middle" x="294.26" y="-108.05" font-family="Times,serif" font-size="9.00">13</text>
</g>
<!-- 14 -->
<g id="node19" class="node">
<title>14</title>
<ellipse fill="lightblue" stroke="black" cx="886.26" cy="-417.65" rx="20.51" ry="20.51"/>
<text text-anchor="middle" x="886.26" y="-415.45" font-family="Times,serif" font-size="9.00">14</text>
</g>
<!-- 15 -->
<g id="node20" class="node">
<title>15</title>
<ellipse fill="lightblue" stroke="black" cx="945.26" cy="-417.65" rx="20.51" ry="20.51"/>
<text text-anchor="middle" x="945.26" y="-415.45" font-family="Times,serif" font-size="9.00">15</text>
</g>
<!-- 16 -->
<g id="node21" class="node">
<title>16</title>
<ellipse fill="lightblue" stroke="black" cx="1004.26" cy="-417.65" rx="20.51" ry="20.51"/>
<text text-anchor="middle" x="1004.26" y="-415.45" font-family="Times,serif" font-size="9.00">16</text>
</g>
<!-- 9100 -->
<g id="node26" class="node">
<title>9100</title>
<ellipse fill="white" stroke="black" cx="1004.26" cy="-315.18" rx="28.98" ry="28.98"/>
<text text-anchor="middle" x="1004.26" y="-312.98" font-family="Times,serif" font-size="9.00">9100</text>
</g>
<!-- 16&#45;&gt;9100 -->
<g id="edge13" class="edge">
<title>16&#45;&gt;9100</title>
<path fill="none" stroke="green" stroke-width="0.13" d="M1004.26,-396.8C1004.26,-384.74 1004.26,-368.95 1004.26,-354.53"/>
<polygon fill="green" stroke="green" stroke-width="0.13" points="1007.76,-354.36 1004.26,-344.36 1000.76,-354.36 1007.76,-354.36"/>
</g>
<!-- 17 -->
<g id="node22" class="node">
<title>17</title>
<ellipse fill="lightblue" stroke="black" cx="353.26" cy="-110.25" rx="20.51" ry="20.51"/>
<text text-anchor="middle" x="353.26" y="-108.05" font-family="Times,serif" font-size="9.00">17</text>
</g>
<!-- 8281 -->
<g id="node23" class="node">
<title>8281</title>
<ellipse fill="white" stroke="black" cx="323.26" cy="-212.71" rx="28.98" ry="28.98"/>
<text text-anchor="middle" x="323.26" y="-210.51" font-family="Times,serif" font-size="9.00">8281</text>
</g>
<!-- 8281&#45;&gt;11 -->
<g id="edge5" class="edge">
<title>8281&#45;&gt;11</title>
<path fill="none" stroke="green" stroke-width="0.36" stroke-dasharray="1,5" d="M301.13,-193.67C287.65,-181.18 271.64,-163.29 264.26,-143.48 253.95,-115.8 251.32,-103.57 264.26,-77.01 273.32,-58.44 291.93,-44.25 307.83,-34.88"/>
<polygon fill="green" stroke="green" stroke-width="0.36" points="309.73,-37.82 316.78,-29.91 306.34,-31.7 309.73,-37.82"/>
</g>
<!-- 8281&#45;&gt;13 -->
<g id="edge16" class="edge">
<title>8281&#45;&gt;13</title>
<path fill="none" stroke="red" stroke-width="0.2" d="M315.42,-184.53C311.42,-170.68 306.56,-153.86 302.51,-139.83"/>
<polygon fill="red" stroke="red" stroke-width="0.2" points="305.87,-138.82 299.73,-130.18 299.14,-140.76 305.87,-138.82"/>
</g>
<!-- 8281&#45;&gt;17 -->
<g id="edge12" class="edge">
<title>8281&#45;&gt;17</title>
<path fill="none" stroke="green" stroke-width="0.24" d="M331.3,-184.79C335.44,-170.95 340.48,-154.07 344.69,-139.97"/>
<polygon fill="green" stroke="green" stroke-width="0.24" points="348.07,-140.87 347.58,-130.28 341.36,-138.86 348.07,-140.87"/>
</g>
<!-- 10623 -->
<g id="node32" class="node">
<title>10623</title>
<ellipse fill="white" stroke="black" cx="425.26" cy="-110.25" rx="33.47" ry="33.47"/>
<text text-anchor="middle" x="425.26" y="-108.05" font-family="Times,serif" font-size="9.00">10623</text>
</g>
<!-- 8281&#45;&gt;10623 -->
<g id="edge10" class="edge">
<title>8281&#45;&gt;10623</title>
<path fill="none" stroke="red" stroke-width="0.1" d="M343.42,-191.86C358.02,-177.48 378.02,-157.78 394.6,-141.45"/>
<polygon fill="red" stroke="red" stroke-width="0.1" points="397.27,-143.73 401.94,-134.22 392.36,-138.74 397.27,-143.73"/>
</g>
<!-- 8829 -->
<g id="node24" class="node">
<title>8829</title>
<ellipse fill="white" stroke="black" cx="601.26" cy="-315.18" rx="28.98" ry="28.98"/>
<text text-anchor="middle" x="601.26" y="-312.98" font-family="Times,serif" font-size="9.00">8829</text>
</g>
<!-- 8938 -->
<g id="node25" class="node">
<title>8938</title>
<ellipse fill="white" stroke="black" cx="323.26" cy="-315.18" rx="28.98" ry="28.98"/>
<text text-anchor="middle" x="323.26" y="-312.98" font-family="Times,serif" font-size="9.00">8938</text>
</g>
<!-- 8938&#45;&gt;0 -->
<g id="edge3" class="edge">
<title>8938&#45;&gt;0</title>
<path fill="none" stroke="green" stroke-width="0.47" stroke-dasharray="1,5" d="M305.51,-291.89C291.71,-274.56 272.73,-250.72 259.37,-233.94"/>
<polygon fill="green" stroke="green" stroke-width="0.47" points="261.92,-231.53 252.95,-225.88 256.44,-235.89 261.92,-231.53"/>
</g>
<!-- 8938&#45;&gt;8281 -->
<g id="edge7" class="edge">
<title>8938&#45;&gt;8281</title>
<path fill="none" stroke="green" stroke-width="0.33" d="M323.26,-285.93C323.26,-275.35 323.26,-263.16 323.26,-251.84"/>
<polygon fill="green" stroke="green" stroke-width="0.33" points="326.76,-251.76 323.26,-241.76 319.76,-251.76 326.76,-251.76"/>
</g>
<!-- 9616 -->
<g id="node27" class="node">
<title>9616</title>
<ellipse fill="white" stroke="black" cx="1071.26" cy="-417.65" rx="28.98" ry="28.98"/>
<text text-anchor="middle" x="1071.26" y="-415.45" font-family="Times,serif" font-size="9.00">9616</text>
</g>
<!-- 10005 -->
<g id="node28" class="node">
<title>10005</title>
<ellipse fill="white" stroke="black" cx="601.26" cy="-417.65" rx="33.47" ry="33.47"/>
<text text-anchor="middle" x="601.26" y="-415.45" font-family="Times,serif" font-size="9.00">10005</text>
</g>
<!-- 10005&#45;&gt;8829 -->
<g id="edge4" class="edge">
<title>10005&#45;&gt;8829</title>
<path fill="none" stroke="red" stroke-width="0.58" d="M601.26,-384.31C601.26,-374.87 601.26,-364.47 601.26,-354.69"/>
<polygon fill="red" stroke="red" stroke-width="0.58" points="604.76,-354.4 601.26,-344.4 597.76,-354.4 604.76,-354.4"/>
</g>
<!-- 10097 -->
<g id="node29" class="node">
<title>10097</title>
<ellipse fill="white" stroke="black" cx="696.26" cy="-417.65" rx="33.47" ry="33.47"/>
<text text-anchor="middle" x="696.26" y="-415.45" font-family="Times,serif" font-size="9.00">10097</text>
</g>
<!-- 10097&#45;&gt;9 -->
<g id="edge19" class="edge">
<title>10097&#45;&gt;9</title>
<path fill="none" stroke="green" stroke-width="0.16" d="M686.4,-385.69C681.78,-371.17 676.35,-354.12 672.02,-340.54"/>
<polygon fill="green" stroke="green" stroke-width="0.16" points="675.33,-339.4 668.96,-330.93 668.66,-341.52 675.33,-339.4"/>
</g>
<!-- 10097&#45;&gt;8829 -->
<g id="edge6" class="edge">
<title>10097&#45;&gt;8829</title>
<path fill="none" stroke="green" stroke-width="0.34" d="M673.75,-392.84C660.01,-378.31 642.38,-359.66 627.94,-344.4"/>
<polygon fill="green" stroke="green" stroke-width="0.34" points="630.14,-341.62 620.72,-336.76 625.05,-346.43 630.14,-341.62"/>
</g>
<!-- 10492 -->
<g id="node30" class="node">
<title>10492</title>
<ellipse fill="white" stroke="black" cx="738.26" cy="-212.71" rx="33.47" ry="33.47"/>
<text text-anchor="middle" x="738.26" y="-210.51" font-family="Times,serif" font-size="9.00">10492</text>
</g>
<!-- 10097&#45;&gt;10492 -->
<g id="edge8" class="edge">
<title>10097&#45;&gt;10492</title>
<path fill="none" stroke="green" stroke-width="0.56" stroke-dasharray="1,5" d="M702.83,-384.94C710.05,-350.05 721.69,-293.82 729.64,-255.38"/>
<polygon fill="green" stroke="green" stroke-width="0.56" points="733.08,-256.04 731.68,-245.53 726.22,-254.62 733.08,-256.04"/>
</g>
<!-- 10774 -->
<g id="node34" class="node">
<title>10774</title>
<ellipse fill="white" stroke="black" cx="769.26" cy="-315.18" rx="33.47" ry="33.47"/>
<text text-anchor="middle" x="769.26" y="-312.98" font-family="Times,serif" font-size="9.00">10774</text>
</g>
<!-- 10097&#45;&gt;10774 -->
<g id="edge17" class="edge">
<title>10097&#45;&gt;10774</title>
<path fill="none" stroke="green" stroke-width="0.39" d="M715.44,-390.25C724.18,-378.24 734.63,-363.85 743.99,-350.96"/>
<polygon fill="green" stroke="green" stroke-width="0.39" points="746.91,-352.9 749.96,-342.75 741.25,-348.78 746.91,-352.9"/>
</g>
<!-- 10505 -->
<g id="node31" class="node">
<title>10505</title>
<ellipse fill="white" stroke="black" cx="212.26" cy="-417.65" rx="33.47" ry="33.47"/>
<text text-anchor="middle" x="212.26" y="-415.45" font-family="Times,serif" font-size="9.00">10505</text>
</g>
<!-- 10505&#45;&gt;0 -->
<g id="edge9" class="edge">
<title>10505&#45;&gt;0</title>
<path fill="none" stroke="green" stroke-width="0.32" stroke-dasharray="1,5" d="M203.61,-385.56C197.32,-357.86 191.48,-316.49 201.26,-281.95 206.25,-264.33 217.21,-246.79 226.69,-233.91"/>
<polygon fill="green" stroke="green" stroke-width="0.32" points="229.61,-235.85 232.92,-225.79 224.05,-231.59 229.61,-235.85"/>
</g>
<!-- 10733 -->
<g id="node33" class="node">
<title>10733</title>
<ellipse fill="white" stroke="black" cx="243.26" cy="-315.18" rx="33.47" ry="33.47"/>
<text text-anchor="middle" x="243.26" y="-312.98" font-family="Times,serif" font-size="9.00">10733</text>
</g>
<!-- 10505&#45;&gt;10733 -->
<g id="edge14" class="edge">
<title>10505&#45;&gt;10733</title>
<path fill="none" stroke="green" stroke-width="0.24" d="M221.82,-385.69C224.62,-376.61 227.72,-366.55 230.68,-356.97"/>
<polygon fill="green" stroke="green" stroke-width="0.24" points="234.08,-357.8 233.69,-347.22 227.39,-355.74 234.08,-357.8"/>
</g>
<!-- 10623&#45;&gt;11 -->
<g id="edge11" class="edge">
<title>10623&#45;&gt;11</title>
<path fill="none" stroke="green" stroke-width="0.27" d="M401.62,-86.19C387.77,-72.7 370.42,-55.78 356.93,-42.63"/>
<polygon fill="green" stroke="green" stroke-width="0.27" points="359.09,-39.85 349.49,-35.38 354.21,-44.86 359.09,-39.85"/>
</g>
<!-- 10733&#45;&gt;0 -->
<g id="edge15" class="edge">
<title>10733&#45;&gt;0</title>
<path fill="none" stroke="red" stroke-width="0.51" d="M243.26,-281.84C243.26,-268.04 243.26,-252.16 243.26,-239.21"/>
<polygon fill="red" stroke="red" stroke-width="0.51" points="246.76,-239.13 243.26,-229.13 239.76,-239.13 246.76,-239.13"/>
</g>
<!-- 10774&#45;&gt;10492 -->
<g id="edge18" class="edge">
<title>10774&#45;&gt;10492</title>
<path fill="none" stroke="green" stroke-width="0.46" d="M759.71,-283.22C756.91,-274.15 753.81,-264.09 750.85,-254.5"/>
<polygon fill="green" stroke="green" stroke-width="0.46" points="754.13,-253.27 747.84,-244.75 747.44,-255.34 754.13,-253.27"/>
</g>
</g>
</svg>
