<?xml version="1.0" encoding="UTF-8" standalone="no"?>
<!DOCTYPE svg PUBLIC "-//W3C//DTD SVG 1.1//EN"
 "http://www.w3.org/Graphics/SVG/1.1/DTD/svg11.dtd">
<!-- Generated by graphviz version 2.43.0 (0)
 -->
<!-- Title: %3 Pages: 1 -->
<svg width="2135pt" height="249pt"
 viewBox="0.00 0.00 2134.75 249.06" xmlns="http://www.w3.org/2000/svg" xmlns:xlink="http://www.w3.org/1999/xlink">
<g id="graph0" class="graph" transform="scale(1 1) rotate(0) translate(4 245.06)">
<title>%3</title>
<polygon fill="white" stroke="transparent" points="-4,4 -4,-245.06 2130.75,-245.06 2130.75,4 -4,4"/>
<!-- player_x -->
<g id="node1" class="node">
<title>player_x</title>
<polygon fill="lightgray" stroke="black" points="56,-176.52 0,-176.52 0,-158.52 56,-158.52 56,-176.52"/>
<text text-anchor="middle" x="28" y="-165.32" font-family="Times,serif" font-size="9.00">player_x</text>
</g>
<!-- player_y -->
<g id="node2" class="node">
<title>player_y</title>
<polygon fill="lightgray" stroke="black" points="130,-176.52 74,-176.52 74,-158.52 130,-158.52 130,-176.52"/>
<text text-anchor="middle" x="102" y="-165.32" font-family="Times,serif" font-size="9.00">player_y</text>
</g>
<!-- ball_x -->
<g id="node3" class="node">
<title>ball_x</title>
<polygon fill="lightgray" stroke="black" points="192,-176.52 148,-176.52 148,-158.52 192,-158.52 192,-176.52"/>
<text text-anchor="middle" x="170" y="-165.32" font-family="Times,serif" font-size="9.00">ball_x</text>
</g>
<!-- FIRE -->
<g id="node6" class="node">
<title>FIRE</title>
<ellipse fill="lightblue" stroke="black" cx="132" cy="-28.99" rx="28.07" ry="28.07"/>
<text text-anchor="middle" x="132" y="-26.79" font-family="Times,serif" font-size="9.00">FIRE</text>
</g>
<!-- ball_x&#45;&gt;FIRE -->
<g id="edge1" class="edge">
<title>ball_x&#45;&gt;FIRE</title>
<path fill="none" stroke="green" stroke-width="0.52" d="M167.74,-158.39C162.81,-140.67 150.84,-97.67 142.1,-66.29"/>
<polygon fill="green" stroke="green" stroke-width="0.52" points="145.45,-65.26 139.4,-56.56 138.71,-67.14 145.45,-65.26"/>
</g>
<!-- LEFT -->
<g id="node8" class="node">
<title>LEFT</title>
<ellipse fill="lightblue" stroke="black" cx="207" cy="-28.99" rx="28.98" ry="28.98"/>
<text text-anchor="middle" x="207" y="-26.79" font-family="Times,serif" font-size="9.00">LEFT</text>
</g>
<!-- ball_x&#45;&gt;LEFT -->
<g id="edge2" class="edge">
<title>ball_x&#45;&gt;LEFT</title>
<path fill="none" stroke="green" stroke-width="0.27" d="M172.2,-158.39C176.98,-140.78 188.52,-98.17 197.01,-66.85"/>
<polygon fill="green" stroke="green" stroke-width="0.27" points="200.41,-67.69 199.65,-57.12 193.65,-65.85 200.41,-67.69"/>
</g>
<!-- ball_y -->
<g id="node4" class="node">
<title>ball_y</title>
<polygon fill="lightgray" stroke="black" points="254,-176.52 210,-176.52 210,-158.52 254,-158.52 254,-176.52"/>
<text text-anchor="middle" x="232" y="-165.32" font-family="Times,serif" font-size="9.00">ball_y</text>
</g>
<!-- NOOP -->
<g id="node5" class="node">
<title>NOOP</title>
<ellipse fill="lightblue" stroke="black" cx="305" cy="-167.52" rx="32.55" ry="32.55"/>
<text text-anchor="middle" x="305" y="-165.32" font-family="Times,serif" font-size="9.00">NOOP</text>
</g>
<!-- RIGHT -->
<g id="node7" class="node">
<title>RIGHT</title>
<ellipse fill="lightblue" stroke="black" cx="389" cy="-167.52" rx="33.88" ry="33.88"/>
<text text-anchor="middle" x="389" y="-165.32" font-family="Times,serif" font-size="9.00">RIGHT</text>
</g>
<!-- RIGHTFIRE -->
<g id="node9" class="node">
<title>RIGHTFIRE</title>
<ellipse fill="lightblue" stroke="black" cx="491" cy="-167.52" rx="50.41" ry="50.41"/>
<text text-anchor="middle" x="491" y="-165.32" font-family="Times,serif" font-size="9.00">RIGHTFIRE</text>
</g>
<!-- LEFTRIGHTFIRE -->
<g id="node10" class="node">
<title>LEFTRIGHTFIRE</title>
<ellipse fill="lightblue" stroke="black" cx="627" cy="-167.52" rx="67.76" ry="67.76"/>
<text text-anchor="middle" x="627" y="-165.32" font-family="Times,serif" font-size="9.00">LEFTRIGHTFIRE</text>
</g>
<!-- UPRIGHT -->
<g id="node11" class="node">
<title>UPRIGHT</title>
<ellipse fill="lightblue" stroke="black" cx="757" cy="-167.52" rx="43.68" ry="43.68"/>
<text text-anchor="middle" x="757" y="-165.32" font-family="Times,serif" font-size="9.00">UPRIGHT</text>
</g>
<!-- UPLEFT -->
<g id="node12" class="node">
<title>UPLEFT</title>
<ellipse fill="lightblue" stroke="black" cx="858" cy="-167.52" rx="38.78" ry="38.78"/>
<text text-anchor="middle" x="858" y="-165.32" font-family="Times,serif" font-size="9.00">UPLEFT</text>
</g>
<!-- DOWNRIGHT -->
<g id="node13" class="node">
<title>DOWNRIGHT</title>
<ellipse fill="lightblue" stroke="black" cx="971" cy="-167.52" rx="56.64" ry="56.64"/>
<text text-anchor="middle" x="971" y="-165.32" font-family="Times,serif" font-size="9.00">DOWNRIGHT</text>
</g>
<!-- DOWNLEFT -->
<g id="node14" class="node">
<title>DOWNLEFT</title>
<ellipse fill="lightblue" stroke="black" cx="1098" cy="-167.52" rx="52.15" ry="52.15"/>
<text text-anchor="middle" x="1098" y="-165.32" font-family="Times,serif" font-size="9.00">DOWNLEFT</text>
</g>
<!-- UPFIRE -->
<g id="node15" class="node">
<title>UPFIRE</title>
<ellipse fill="lightblue" stroke="black" cx="1206" cy="-167.52" rx="37.45" ry="37.45"/>
<text text-anchor="middle" x="1206" y="-165.32" font-family="Times,serif" font-size="9.00">UPFIRE</text>
</g>
<!-- LEFTFIRE -->
<g id="node16" class="node">
<title>LEFTFIRE</title>
<ellipse fill="lightblue" stroke="black" cx="1307" cy="-167.52" rx="45.92" ry="45.92"/>
<text text-anchor="middle" x="1307" y="-165.32" font-family="Times,serif" font-size="9.00">LEFTFIRE</text>
</g>
<!-- DOWNFIRE -->
<g id="node17" class="node">
<title>DOWNFIRE</title>
<ellipse fill="lightblue" stroke="black" cx="1422" cy="-167.52" rx="50.82" ry="50.82"/>
<text text-anchor="middle" x="1422" y="-165.32" font-family="Times,serif" font-size="9.00">DOWNFIRE</text>
</g>
<!-- UPRIGHTFIRE -->
<g id="node18" class="node">
<title>UPRIGHTFIRE</title>
<ellipse fill="lightblue" stroke="black" cx="1551" cy="-167.52" rx="60.21" ry="60.21"/>
<text text-anchor="middle" x="1551" y="-165.32" font-family="Times,serif" font-size="9.00">UPRIGHTFIRE</text>
</g>
<!-- UPLEFTFIRE -->
<g id="node19" class="node">
<title>UPLEFTFIRE</title>
<ellipse fill="lightblue" stroke="black" cx="1684" cy="-167.52" rx="55.31" ry="55.31"/>
<text text-anchor="middle" x="1684" y="-165.32" font-family="Times,serif" font-size="9.00">UPLEFTFIRE</text>
</g>
<!-- DOWNRIGHTFIRE -->
<g id="node20" class="node">
<title>DOWNRIGHTFIRE</title>
<ellipse fill="lightblue" stroke="black" cx="1831" cy="-167.52" rx="73.58" ry="73.58"/>
<text text-anchor="middle" x="1831" y="-165.32" font-family="Times,serif" font-size="9.00">DOWNRIGHTFIRE</text>
</g>
<!-- DOWNLEFTFIRE -->
<g id="node21" class="node">
<title>DOWNLEFTFIRE</title>
<ellipse fill="lightblue" stroke="black" cx="1991" cy="-167.52" rx="68.68" ry="68.68"/>
<text text-anchor="middle" x="1991" y="-165.32" font-family="Times,serif" font-size="9.00">DOWNLEFTFIRE</text>
</g>
<!-- 912 -->
<g id="node22" class="node">
<title>912</title>
<ellipse fill="white" stroke="black" cx="2102" cy="-167.52" rx="25" ry="25"/>
<text text-anchor="middle" x="2102" y="-165.32" font-family="Times,serif" font-size="9.00">912</text>
</g>
</g>
</svg>
