<?xml version="1.0" encoding="UTF-8" standalone="no"?>
<!DOCTYPE svg PUBLIC "-//W3C//DTD SVG 1.1//EN"
 "http://www.w3.org/Graphics/SVG/1.1/DTD/svg11.dtd">
<!-- Generated by graphviz version 2.43.0 (0)
 -->
<!-- Title: %3 Pages: 1 -->
<svg width="2068pt" height="419pt"
 viewBox="0.00 0.00 2067.79 419.41" xmlns="http://www.w3.org/2000/svg" xmlns:xlink="http://www.w3.org/1999/xlink">
<g id="graph0" class="graph" transform="scale(1 1) rotate(0) translate(4 415.41)">
<title>%3</title>
<polygon fill="white" stroke="transparent" points="-4,4 -4,-415.41 2063.79,-415.41 2063.79,4 -4,4"/>
<!-- ball_left -->
<g id="node1" class="node">
<title>ball_left</title>
<polygon fill="lightgray" stroke="black" points="154.7,-346.87 101.7,-346.87 101.7,-328.87 154.7,-328.87 154.7,-346.87"/>
<text text-anchor="middle" x="128.2" y="-335.67" font-family="Times,serif" font-size="9.00">ball_left</text>
</g>
<!-- RIGHTFIRE -->
<g id="node8" class="node">
<title>RIGHTFIRE</title>
<ellipse fill="lightblue" stroke="black" cx="50.2" cy="-178.13" rx="50.41" ry="50.41"/>
<text text-anchor="middle" x="50.2" y="-175.93" font-family="Times,serif" font-size="9.00">RIGHTFIRE</text>
</g>
<!-- ball_left&#45;&gt;RIGHTFIRE -->
<g id="edge2" class="edge">
<title>ball_left&#45;&gt;RIGHTFIRE</title>
<path fill="none" stroke="red" stroke-width="0.41" d="M124.23,-328.83C115.54,-311.25 94.22,-268.14 76.68,-232.66"/>
<polygon fill="red" stroke="red" stroke-width="0.41" points="79.65,-230.77 72.08,-223.36 73.37,-233.88 79.65,-230.77"/>
</g>
<!-- LEFTFIRE -->
<g id="node15" class="node">
<title>LEFTFIRE</title>
<ellipse fill="lightblue" stroke="black" cx="156.2" cy="-45.96" rx="45.92" ry="45.92"/>
<text text-anchor="middle" x="156.2" y="-43.76" font-family="Times,serif" font-size="9.00">LEFTFIRE</text>
</g>
<!-- ball_left&#45;&gt;LEFTFIRE -->
<g id="edge1" class="edge">
<title>ball_left&#45;&gt;LEFTFIRE</title>
<path fill="none" stroke="green" stroke-width="1.24" stroke-dasharray="1,5" d="M128.9,-328.51C131.28,-300.26 139.33,-205.84 147.2,-127.92 148.05,-119.53 148.99,-110.65 149.94,-101.97"/>
<polygon fill="green" stroke="green" stroke-width="1.24" points="153.43,-102.23 151.05,-91.91 146.47,-101.47 153.43,-102.23"/>
</g>
<!-- 2429 -->
<g id="node21" class="node">
<title>2429</title>
<ellipse fill="white" stroke="black" cx="185.2" cy="-178.13" rx="28.98" ry="28.98"/>
<text text-anchor="middle" x="185.2" y="-175.93" font-family="Times,serif" font-size="9.00">2429</text>
</g>
<!-- ball_left&#45;&gt;2429 -->
<g id="edge3" class="edge">
<title>ball_left&#45;&gt;2429</title>
<path fill="none" stroke="green" stroke-width="0.42" d="M131.11,-328.83C138.57,-308.2 158.74,-252.38 172.23,-215.04"/>
<polygon fill="green" stroke="green" stroke-width="0.42" points="175.56,-216.11 175.67,-205.51 168.98,-213.73 175.56,-216.11"/>
</g>
<!-- ball_right -->
<g id="node2" class="node">
<title>ball_right</title>
<polygon fill="lightgray" stroke="black" points="235.2,-346.87 173.2,-346.87 173.2,-328.87 235.2,-328.87 235.2,-346.87"/>
<text text-anchor="middle" x="204.2" y="-335.67" font-family="Times,serif" font-size="9.00">ball_right</text>
</g>
<!-- ball_out_field -->
<g id="node3" class="node">
<title>ball_out_field</title>
<polygon fill="lightgray" stroke="black" points="331.2,-346.87 253.2,-346.87 253.2,-328.87 331.2,-328.87 331.2,-346.87"/>
<text text-anchor="middle" x="292.2" y="-335.67" font-family="Times,serif" font-size="9.00">ball_out_field</text>
</g>
<!-- NOOP -->
<g id="node4" class="node">
<title>NOOP</title>
<ellipse fill="lightblue" stroke="black" cx="382.2" cy="-337.87" rx="32.55" ry="32.55"/>
<text text-anchor="middle" x="382.2" y="-335.67" font-family="Times,serif" font-size="9.00">NOOP</text>
</g>
<!-- FIRE -->
<g id="node5" class="node">
<title>FIRE</title>
<ellipse fill="lightblue" stroke="black" cx="461.2" cy="-337.87" rx="28.07" ry="28.07"/>
<text text-anchor="middle" x="461.2" y="-335.67" font-family="Times,serif" font-size="9.00">FIRE</text>
</g>
<!-- RIGHT -->
<g id="node6" class="node">
<title>RIGHT</title>
<ellipse fill="lightblue" stroke="black" cx="541.2" cy="-337.87" rx="33.88" ry="33.88"/>
<text text-anchor="middle" x="541.2" y="-335.67" font-family="Times,serif" font-size="9.00">RIGHT</text>
</g>
<!-- LEFT -->
<g id="node7" class="node">
<title>LEFT</title>
<ellipse fill="lightblue" stroke="black" cx="622.2" cy="-337.87" rx="28.98" ry="28.98"/>
<text text-anchor="middle" x="622.2" y="-335.67" font-family="Times,serif" font-size="9.00">LEFT</text>
</g>
<!-- LEFTRIGHTFIRE -->
<g id="node9" class="node">
<title>LEFTRIGHTFIRE</title>
<ellipse fill="lightblue" stroke="black" cx="737.2" cy="-337.87" rx="67.76" ry="67.76"/>
<text text-anchor="middle" x="737.2" y="-335.67" font-family="Times,serif" font-size="9.00">LEFTRIGHTFIRE</text>
</g>
<!-- UPRIGHT -->
<g id="node10" class="node">
<title>UPRIGHT</title>
<ellipse fill="lightblue" stroke="black" cx="867.2" cy="-337.87" rx="43.68" ry="43.68"/>
<text text-anchor="middle" x="867.2" y="-335.67" font-family="Times,serif" font-size="9.00">UPRIGHT</text>
</g>
<!-- UPLEFT -->
<g id="node11" class="node">
<title>UPLEFT</title>
<ellipse fill="lightblue" stroke="black" cx="968.2" cy="-337.87" rx="38.78" ry="38.78"/>
<text text-anchor="middle" x="968.2" y="-335.67" font-family="Times,serif" font-size="9.00">UPLEFT</text>
</g>
<!-- DOWNRIGHT -->
<g id="node12" class="node">
<title>DOWNRIGHT</title>
<ellipse fill="lightblue" stroke="black" cx="1081.2" cy="-337.87" rx="56.64" ry="56.64"/>
<text text-anchor="middle" x="1081.2" y="-335.67" font-family="Times,serif" font-size="9.00">DOWNRIGHT</text>
</g>
<!-- DOWNLEFT -->
<g id="node13" class="node">
<title>DOWNLEFT</title>
<ellipse fill="lightblue" stroke="black" cx="1208.2" cy="-337.87" rx="52.15" ry="52.15"/>
<text text-anchor="middle" x="1208.2" y="-335.67" font-family="Times,serif" font-size="9.00">DOWNLEFT</text>
</g>
<!-- UPFIRE -->
<g id="node14" class="node">
<title>UPFIRE</title>
<ellipse fill="lightblue" stroke="black" cx="1316.2" cy="-337.87" rx="37.45" ry="37.45"/>
<text text-anchor="middle" x="1316.2" y="-335.67" font-family="Times,serif" font-size="9.00">UPFIRE</text>
</g>
<!-- DOWNFIRE -->
<g id="node16" class="node">
<title>DOWNFIRE</title>
<ellipse fill="lightblue" stroke="black" cx="1422.2" cy="-337.87" rx="50.82" ry="50.82"/>
<text text-anchor="middle" x="1422.2" y="-335.67" font-family="Times,serif" font-size="9.00">DOWNFIRE</text>
</g>
<!-- UPRIGHTFIRE -->
<g id="node17" class="node">
<title>UPRIGHTFIRE</title>
<ellipse fill="lightblue" stroke="black" cx="1551.2" cy="-337.87" rx="60.21" ry="60.21"/>
<text text-anchor="middle" x="1551.2" y="-335.67" font-family="Times,serif" font-size="9.00">UPRIGHTFIRE</text>
</g>
<!-- UPLEFTFIRE -->
<g id="node18" class="node">
<title>UPLEFTFIRE</title>
<ellipse fill="lightblue" stroke="black" cx="1684.2" cy="-337.87" rx="55.31" ry="55.31"/>
<text text-anchor="middle" x="1684.2" y="-335.67" font-family="Times,serif" font-size="9.00">UPLEFTFIRE</text>
</g>
<!-- DOWNRIGHTFIRE -->
<g id="node19" class="node">
<title>DOWNRIGHTFIRE</title>
<ellipse fill="lightblue" stroke="black" cx="1831.2" cy="-337.87" rx="73.58" ry="73.58"/>
<text text-anchor="middle" x="1831.2" y="-335.67" font-family="Times,serif" font-size="9.00">DOWNRIGHTFIRE</text>
</g>
<!-- DOWNLEFTFIRE -->
<g id="node20" class="node">
<title>DOWNLEFTFIRE</title>
<ellipse fill="lightblue" stroke="black" cx="1991.2" cy="-337.87" rx="68.68" ry="68.68"/>
<text text-anchor="middle" x="1991.2" y="-335.67" font-family="Times,serif" font-size="9.00">DOWNLEFTFIRE</text>
</g>
<!-- 2429&#45;&gt;LEFTFIRE -->
<g id="edge4" class="edge">
<title>2429&#45;&gt;LEFTFIRE</title>
<path fill="none" stroke="green" stroke-width="1.23" d="M179.05,-149.52C175.92,-135.43 171.98,-117.79 168.27,-101.12"/>
<polygon fill="green" stroke="green" stroke-width="1.23" points="171.59,-99.92 166,-90.92 164.76,-101.44 171.59,-99.92"/>
</g>
</g>
</svg>
