<?xml version="1.0" encoding="UTF-8" standalone="no"?>
<!DOCTYPE svg PUBLIC "-//W3C//DTD SVG 1.1//EN"
 "http://www.w3.org/Graphics/SVG/1.1/DTD/svg11.dtd">
<!-- Generated by graphviz version 2.43.0 (0)
 -->
<!-- Title: %3 Pages: 1 -->
<svg width="1836pt" height="328pt"
 viewBox="0.00 0.00 1835.82 328.26" xmlns="http://www.w3.org/2000/svg" xmlns:xlink="http://www.w3.org/1999/xlink">
<g id="graph0" class="graph" transform="scale(1 1) rotate(0) translate(4 324.26)">
<title>%3</title>
<polygon fill="white" stroke="transparent" points="-4,4 -4,-324.26 1831.82,-324.26 1831.82,4 -4,4"/>
<!-- player_x -->
<g id="node1" class="node">
<title>player_x</title>
<polygon fill="lightgray" stroke="black" points="56.28,-255.72 0.28,-255.72 0.28,-237.72 56.28,-237.72 56.28,-255.72"/>
<text text-anchor="middle" x="28.28" y="-244.52" font-family="Times,serif" font-size="9.00">player_x</text>
</g>
<!-- FIRE -->
<g id="node6" class="node">
<title>FIRE</title>
<ellipse fill="lightblue" stroke="black" cx="28.28" cy="-68.59" rx="28.07" ry="28.07"/>
<text text-anchor="middle" x="28.28" y="-66.39" font-family="Times,serif" font-size="9.00">FIRE</text>
</g>
<!-- player_x&#45;&gt;FIRE -->
<g id="edge6" class="edge">
<title>player_x&#45;&gt;FIRE</title>
<path fill="none" stroke="red" stroke-width="0.15" d="M28.28,-237.69C28.28,-215.05 28.28,-149.56 28.28,-107.33"/>
<polygon fill="red" stroke="red" stroke-width="0.15" points="31.78,-107.13 28.28,-97.13 24.78,-107.13 31.78,-107.13"/>
</g>
<!-- player_y -->
<g id="node2" class="node">
<title>player_y</title>
<polygon fill="lightgray" stroke="black" points="170.28,-255.72 114.28,-255.72 114.28,-237.72 170.28,-237.72 170.28,-255.72"/>
<text text-anchor="middle" x="142.28" y="-244.52" font-family="Times,serif" font-size="9.00">player_y</text>
</g>
<!-- LEFTRIGHTFIRE -->
<g id="node10" class="node">
<title>LEFTRIGHTFIRE</title>
<ellipse fill="lightblue" stroke="black" cx="142.28" cy="-68.59" rx="67.76" ry="67.76"/>
<text text-anchor="middle" x="142.28" y="-66.39" font-family="Times,serif" font-size="9.00">LEFTRIGHTFIRE</text>
</g>
<!-- player_y&#45;&gt;LEFTRIGHTFIRE -->
<g id="edge2" class="edge">
<title>player_y&#45;&gt;LEFTRIGHTFIRE</title>
<path fill="none" stroke="green" stroke-width="0.57" d="M142.28,-237.69C142.28,-221.39 142.28,-182.89 142.28,-146.84"/>
<polygon fill="green" stroke="green" stroke-width="0.57" points="145.78,-146.76 142.28,-136.76 138.78,-146.76 145.78,-146.76"/>
</g>
<!-- ball_x -->
<g id="node3" class="node">
<title>ball_x</title>
<polygon fill="lightgray" stroke="black" points="318.28,-255.72 274.28,-255.72 274.28,-237.72 318.28,-237.72 318.28,-255.72"/>
<text text-anchor="middle" x="296.28" y="-244.52" font-family="Times,serif" font-size="9.00">ball_x</text>
</g>
<!-- DOWNLEFTFIRE -->
<g id="node21" class="node">
<title>DOWNLEFTFIRE</title>
<ellipse fill="lightblue" stroke="black" cx="296.28" cy="-68.59" rx="68.68" ry="68.68"/>
<text text-anchor="middle" x="296.28" y="-66.39" font-family="Times,serif" font-size="9.00">DOWNLEFTFIRE</text>
</g>
<!-- ball_x&#45;&gt;DOWNLEFTFIRE -->
<g id="edge5" class="edge">
<title>ball_x&#45;&gt;DOWNLEFTFIRE</title>
<path fill="none" stroke="green" stroke-width="0.26" d="M296.28,-237.69C296.28,-221.45 296.28,-183.18 296.28,-147.25"/>
<polygon fill="green" stroke="green" stroke-width="0.26" points="299.78,-147.2 296.28,-137.2 292.78,-147.2 299.78,-147.2"/>
</g>
<!-- ball_y -->
<g id="node4" class="node">
<title>ball_y</title>
<polygon fill="lightgray" stroke="black" points="562.28,-255.72 518.28,-255.72 518.28,-237.72 562.28,-237.72 562.28,-255.72"/>
<text text-anchor="middle" x="540.28" y="-244.52" font-family="Times,serif" font-size="9.00">ball_y</text>
</g>
<!-- RIGHTFIRE -->
<g id="node9" class="node">
<title>RIGHTFIRE</title>
<ellipse fill="lightblue" stroke="black" cx="433.28" cy="-68.59" rx="50.41" ry="50.41"/>
<text text-anchor="middle" x="433.28" y="-66.39" font-family="Times,serif" font-size="9.00">RIGHTFIRE</text>
</g>
<!-- ball_y&#45;&gt;RIGHTFIRE -->
<g id="edge4" class="edge">
<title>ball_y&#45;&gt;RIGHTFIRE</title>
<path fill="none" stroke="red" stroke-width="0.12" d="M535.41,-237.69C523.04,-217.34 489.64,-162.36 464.38,-120.77"/>
<polygon fill="red" stroke="red" stroke-width="0.12" points="467.31,-118.85 459.12,-112.12 461.32,-122.48 467.31,-118.85"/>
</g>
<!-- UPLEFT -->
<g id="node12" class="node">
<title>UPLEFT</title>
<ellipse fill="lightblue" stroke="black" cx="540.28" cy="-68.59" rx="38.78" ry="38.78"/>
<text text-anchor="middle" x="540.28" y="-66.39" font-family="Times,serif" font-size="9.00">UPLEFT</text>
</g>
<!-- ball_y&#45;&gt;UPLEFT -->
<g id="edge3" class="edge">
<title>ball_y&#45;&gt;UPLEFT</title>
<path fill="none" stroke="green" stroke-width="0.2" d="M540.28,-237.69C540.28,-216.8 540.28,-159.46 540.28,-117.53"/>
<polygon fill="green" stroke="green" stroke-width="0.2" points="543.78,-117.51 540.28,-107.51 536.78,-117.51 543.78,-117.51"/>
</g>
<!-- UPFIRE -->
<g id="node15" class="node">
<title>UPFIRE</title>
<ellipse fill="lightblue" stroke="black" cx="634.28" cy="-68.59" rx="37.45" ry="37.45"/>
<text text-anchor="middle" x="634.28" y="-66.39" font-family="Times,serif" font-size="9.00">UPFIRE</text>
</g>
<!-- ball_y&#45;&gt;UPFIRE -->
<g id="edge1" class="edge">
<title>ball_y&#45;&gt;UPFIRE</title>
<path fill="none" stroke="green" stroke-width="1.02" d="M543.36,-237.49C548.55,-223.86 559.63,-195.83 571.28,-173.18 582.51,-151.36 596.57,-127.94 608.56,-108.9"/>
<polygon fill="green" stroke="green" stroke-width="1.02" points="611.67,-110.52 614.08,-100.2 605.76,-106.77 611.67,-110.52"/>
</g>
<!-- NOOP -->
<g id="node5" class="node">
<title>NOOP</title>
<ellipse fill="lightblue" stroke="black" cx="613.28" cy="-246.72" rx="32.55" ry="32.55"/>
<text text-anchor="middle" x="613.28" y="-244.52" font-family="Times,serif" font-size="9.00">NOOP</text>
</g>
<!-- RIGHT -->
<g id="node7" class="node">
<title>RIGHT</title>
<ellipse fill="lightblue" stroke="black" cx="697.28" cy="-246.72" rx="33.88" ry="33.88"/>
<text text-anchor="middle" x="697.28" y="-244.52" font-family="Times,serif" font-size="9.00">RIGHT</text>
</g>
<!-- LEFT -->
<g id="node8" class="node">
<title>LEFT</title>
<ellipse fill="lightblue" stroke="black" cx="778.28" cy="-246.72" rx="28.98" ry="28.98"/>
<text text-anchor="middle" x="778.28" y="-244.52" font-family="Times,serif" font-size="9.00">LEFT</text>
</g>
<!-- UPRIGHT -->
<g id="node11" class="node">
<title>UPRIGHT</title>
<ellipse fill="lightblue" stroke="black" cx="869.28" cy="-246.72" rx="43.68" ry="43.68"/>
<text text-anchor="middle" x="869.28" y="-244.52" font-family="Times,serif" font-size="9.00">UPRIGHT</text>
</g>
<!-- DOWNRIGHT -->
<g id="node13" class="node">
<title>DOWNRIGHT</title>
<ellipse fill="lightblue" stroke="black" cx="987.28" cy="-246.72" rx="56.64" ry="56.64"/>
<text text-anchor="middle" x="987.28" y="-244.52" font-family="Times,serif" font-size="9.00">DOWNRIGHT</text>
</g>
<!-- DOWNLEFT -->
<g id="node14" class="node">
<title>DOWNLEFT</title>
<ellipse fill="lightblue" stroke="black" cx="1114.28" cy="-246.72" rx="52.15" ry="52.15"/>
<text text-anchor="middle" x="1114.28" y="-244.52" font-family="Times,serif" font-size="9.00">DOWNLEFT</text>
</g>
<!-- LEFTFIRE -->
<g id="node16" class="node">
<title>LEFTFIRE</title>
<ellipse fill="lightblue" stroke="black" cx="1230.28" cy="-246.72" rx="45.92" ry="45.92"/>
<text text-anchor="middle" x="1230.28" y="-244.52" font-family="Times,serif" font-size="9.00">LEFTFIRE</text>
</g>
<!-- DOWNFIRE -->
<g id="node17" class="node">
<title>DOWNFIRE</title>
<ellipse fill="lightblue" stroke="black" cx="1345.28" cy="-246.72" rx="50.82" ry="50.82"/>
<text text-anchor="middle" x="1345.28" y="-244.52" font-family="Times,serif" font-size="9.00">DOWNFIRE</text>
</g>
<!-- UPRIGHTFIRE -->
<g id="node18" class="node">
<title>UPRIGHTFIRE</title>
<ellipse fill="lightblue" stroke="black" cx="1474.28" cy="-246.72" rx="60.21" ry="60.21"/>
<text text-anchor="middle" x="1474.28" y="-244.52" font-family="Times,serif" font-size="9.00">UPRIGHTFIRE</text>
</g>
<!-- UPLEFTFIRE -->
<g id="node19" class="node">
<title>UPLEFTFIRE</title>
<ellipse fill="lightblue" stroke="black" cx="1607.28" cy="-246.72" rx="55.31" ry="55.31"/>
<text text-anchor="middle" x="1607.28" y="-244.52" font-family="Times,serif" font-size="9.00">UPLEFTFIRE</text>
</g>
<!-- DOWNRIGHTFIRE -->
<g id="node20" class="node">
<title>DOWNRIGHTFIRE</title>
<ellipse fill="lightblue" stroke="black" cx="1754.28" cy="-246.72" rx="73.58" ry="73.58"/>
<text text-anchor="middle" x="1754.28" y="-244.52" font-family="Times,serif" font-size="9.00">DOWNRIGHTFIRE</text>
</g>
</g>
</svg>
