<?xml version="1.0" encoding="UTF-8" standalone="no"?>
<!DOCTYPE svg PUBLIC "-//W3C//DTD SVG 1.1//EN"
 "http://www.w3.org/Graphics/SVG/1.1/DTD/svg11.dtd">
<!-- Generated by graphviz version 2.43.0 (0)
 -->
<!-- Title: %3 Pages: 1 -->
<svg width="514pt" height="264pt"
 viewBox="0.00 0.00 514.28 263.85" xmlns="http://www.w3.org/2000/svg" xmlns:xlink="http://www.w3.org/1999/xlink">
<g id="graph0" class="graph" transform="scale(1 1) rotate(0) translate(4 259.85)">
<title>%3</title>
<polygon fill="white" stroke="transparent" points="-4,4 -4,-259.85 510.28,-259.85 510.28,4 -4,4"/>
<!-- player_x -->
<g id="node1" class="node">
<title>player_x</title>
<polygon fill="lightgray" stroke="black" points="60.28,-230.91 4.28,-230.91 4.28,-212.91 60.28,-212.91 60.28,-230.91"/>
<text text-anchor="middle" x="32.28" y="-219.71" font-family="Times,serif" font-size="9.00">player_x</text>
</g>
<!-- FIRE -->
<g id="node6" class="node">
<title>FIRE</title>
<ellipse fill="lightblue" stroke="black" cx="28.28" cy="-122.97" rx="28.07" ry="28.07"/>
<text text-anchor="middle" x="28.28" y="-120.77" font-family="Times,serif" font-size="9.00">FIRE</text>
</g>
<!-- player_x&#45;&gt;FIRE -->
<g id="edge1" class="edge">
<title>player_x&#45;&gt;FIRE</title>
<path fill="none" stroke="green" stroke-width="0.24" d="M31.94,-212.64C31.48,-201.36 30.61,-180.41 29.84,-161.7"/>
<polygon fill="green" stroke="green" stroke-width="0.24" points="33.33,-161.46 29.42,-151.61 26.34,-161.75 33.33,-161.46"/>
</g>
<!-- LEFT -->
<g id="node8" class="node">
<title>LEFT</title>
<ellipse fill="lightblue" stroke="black" cx="103.28" cy="-122.97" rx="28.98" ry="28.98"/>
<text text-anchor="middle" x="103.28" y="-120.77" font-family="Times,serif" font-size="9.00">LEFT</text>
</g>
<!-- player_x&#45;&gt;LEFT -->
<g id="edge3" class="edge">
<title>player_x&#45;&gt;LEFT</title>
<path fill="none" stroke="green" stroke-width="0.28" d="M38.34,-212.64C47.55,-200.06 65.58,-175.45 80.31,-155.34"/>
<polygon fill="green" stroke="green" stroke-width="0.28" points="83.3,-157.19 86.38,-147.05 77.65,-153.05 83.3,-157.19"/>
</g>
<!-- player_y -->
<g id="node2" class="node">
<title>player_y</title>
<polygon fill="lightgray" stroke="black" points="199.28,-230.91 143.28,-230.91 143.28,-212.91 199.28,-212.91 199.28,-230.91"/>
<text text-anchor="middle" x="171.28" y="-219.71" font-family="Times,serif" font-size="9.00">player_y</text>
</g>
<!-- ball_x -->
<g id="node3" class="node">
<title>ball_x</title>
<polygon fill="lightgray" stroke="black" points="125.28,-230.91 81.28,-230.91 81.28,-212.91 125.28,-212.91 125.28,-230.91"/>
<text text-anchor="middle" x="103.28" y="-219.71" font-family="Times,serif" font-size="9.00">ball_x</text>
</g>
<!-- ball_x&#45;&gt;LEFT -->
<g id="edge2" class="edge">
<title>ball_x&#45;&gt;LEFT</title>
<path fill="none" stroke="red" stroke-width="0.62" d="M103.28,-212.64C103.28,-201.44 103.28,-180.69 103.28,-162.08"/>
<polygon fill="red" stroke="red" stroke-width="0.62" points="106.78,-162.04 103.28,-152.04 99.78,-162.04 106.78,-162.04"/>
</g>
<!-- ball_y -->
<g id="node4" class="node">
<title>ball_y</title>
<polygon fill="lightgray" stroke="black" points="261.28,-230.91 217.28,-230.91 217.28,-212.91 261.28,-212.91 261.28,-230.91"/>
<text text-anchor="middle" x="239.28" y="-219.71" font-family="Times,serif" font-size="9.00">ball_y</text>
</g>
<!-- NOOP -->
<g id="node5" class="node">
<title>NOOP</title>
<ellipse fill="lightblue" stroke="black" cx="312.28" cy="-221.91" rx="32.55" ry="32.55"/>
<text text-anchor="middle" x="312.28" y="-219.71" font-family="Times,serif" font-size="9.00">NOOP</text>
</g>
<!-- RIGHT -->
<g id="node7" class="node">
<title>RIGHT</title>
<ellipse fill="lightblue" stroke="black" cx="396.28" cy="-221.91" rx="33.88" ry="33.88"/>
<text text-anchor="middle" x="396.28" y="-219.71" font-family="Times,serif" font-size="9.00">RIGHT</text>
</g>
<!-- 1259 -->
<g id="node9" class="node">
<title>1259</title>
<ellipse fill="white" stroke="black" cx="395.28" cy="-28.99" rx="28.98" ry="28.98"/>
<text text-anchor="middle" x="395.28" y="-26.79" font-family="Times,serif" font-size="9.00">1259</text>
</g>
<!-- RIGHT&#45;&gt;1259 -->
<g id="edge4" class="edge">
<title>RIGHT&#45;&gt;1259</title>
<path fill="none" stroke="red" stroke-width="0.35" stroke-dasharray="1,5" d="M390.59,-188.4C388.84,-176.92 387.15,-163.91 386.28,-151.97 384.43,-126.26 384.49,-119.69 386.28,-93.98 386.88,-85.47 387.92,-76.37 389.08,-67.77"/>
<polygon fill="red" stroke="red" stroke-width="0.35" points="392.58,-68.02 390.54,-57.62 385.65,-67.02 392.58,-68.02"/>
</g>
<!-- 1389 -->
<g id="node11" class="node">
<title>1389</title>
<ellipse fill="white" stroke="black" cx="424.28" cy="-122.97" rx="28.98" ry="28.98"/>
<text text-anchor="middle" x="424.28" y="-120.77" font-family="Times,serif" font-size="9.00">1389</text>
</g>
<!-- RIGHT&#45;&gt;1389 -->
<g id="edge5" class="edge">
<title>RIGHT&#45;&gt;1389</title>
<path fill="none" stroke="green" stroke-width="0.35" d="M405.45,-189.17C408.08,-180.08 410.96,-170.11 413.66,-160.75"/>
<polygon fill="green" stroke="green" stroke-width="0.35" points="417.09,-161.49 416.5,-150.91 410.37,-159.55 417.09,-161.49"/>
</g>
<!-- 1302 -->
<g id="node10" class="node">
<title>1302</title>
<ellipse fill="white" stroke="black" cx="477.28" cy="-221.91" rx="28.98" ry="28.98"/>
<text text-anchor="middle" x="477.28" y="-219.71" font-family="Times,serif" font-size="9.00">1302</text>
</g>
<!-- 1389&#45;&gt;1259 -->
<g id="edge6" class="edge">
<title>1389&#45;&gt;1259</title>
<path fill="none" stroke="red" stroke-width="0.45" stroke-dasharray="1,5" d="M415.74,-94.87C412.94,-85.98 409.78,-75.96 406.79,-66.49"/>
<polygon fill="red" stroke="red" stroke-width="0.45" points="410.11,-65.38 403.77,-56.9 403.44,-67.49 410.11,-65.38"/>
</g>
</g>
</svg>
