<?xml version="1.0" encoding="UTF-8" standalone="no"?>
<!DOCTYPE svg PUBLIC "-//W3C//DTD SVG 1.1//EN"
 "http://www.w3.org/Graphics/SVG/1.1/DTD/svg11.dtd">
<!-- Generated by graphviz version 2.43.0 (0)
 -->
<!-- Title: %3 Pages: 1 -->
<svg width="2189pt" height="249pt"
 viewBox="0.00 0.00 2189.28 249.06" xmlns="http://www.w3.org/2000/svg" xmlns:xlink="http://www.w3.org/1999/xlink">
<g id="graph0" class="graph" transform="scale(1 1) rotate(0) translate(4 245.06)">
<title>%3</title>
<polygon fill="white" stroke="transparent" points="-4,4 -4,-245.06 2185.28,-245.06 2185.28,4 -4,4"/>
<!-- player_x -->
<g id="node1" class="node">
<title>player_x</title>
<polygon fill="lightgray" stroke="black" points="68.28,-176.52 12.28,-176.52 12.28,-158.52 68.28,-158.52 68.28,-176.52"/>
<text text-anchor="middle" x="40.28" y="-165.32" font-family="Times,serif" font-size="9.00">player_x</text>
</g>
<!-- FIRE -->
<g id="node6" class="node">
<title>FIRE</title>
<ellipse fill="lightblue" stroke="black" cx="28.28" cy="-28.99" rx="28.07" ry="28.07"/>
<text text-anchor="middle" x="28.28" y="-26.79" font-family="Times,serif" font-size="9.00">FIRE</text>
</g>
<!-- player_x&#45;&gt;FIRE -->
<g id="edge1" class="edge">
<title>player_x&#45;&gt;FIRE</title>
<path fill="none" stroke="green" stroke-width="0.26" d="M39.57,-158.39C38.03,-140.91 34.33,-98.79 31.58,-67.53"/>
<polygon fill="green" stroke="green" stroke-width="0.26" points="35.06,-67.05 30.69,-57.4 28.08,-67.67 35.06,-67.05"/>
</g>
<!-- 1899 -->
<g id="node24" class="node">
<title>1899</title>
<ellipse fill="white" stroke="black" cx="103.28" cy="-28.99" rx="28.98" ry="28.98"/>
<text text-anchor="middle" x="103.28" y="-26.79" font-family="Times,serif" font-size="9.00">1899</text>
</g>
<!-- player_x&#45;&gt;1899 -->
<g id="edge5" class="edge">
<title>player_x&#45;&gt;1899</title>
<path fill="none" stroke="red" stroke-width="0.11" d="M44.04,-158.39C52.32,-140.44 72.58,-96.53 87.1,-65.06"/>
<polygon fill="red" stroke="red" stroke-width="0.11" points="90.39,-66.29 91.4,-55.74 84.04,-63.35 90.39,-66.29"/>
</g>
<!-- player_y -->
<g id="node2" class="node">
<title>player_y</title>
<polygon fill="lightgray" stroke="black" points="163.28,-176.52 107.28,-176.52 107.28,-158.52 163.28,-158.52 163.28,-176.52"/>
<text text-anchor="middle" x="135.28" y="-165.32" font-family="Times,serif" font-size="9.00">player_y</text>
</g>
<!-- ball_x -->
<g id="node3" class="node">
<title>ball_x</title>
<polygon fill="lightgray" stroke="black" points="235.28,-176.52 191.28,-176.52 191.28,-158.52 235.28,-158.52 235.28,-176.52"/>
<text text-anchor="middle" x="213.28" y="-165.32" font-family="Times,serif" font-size="9.00">ball_x</text>
</g>
<!-- LEFT -->
<g id="node8" class="node">
<title>LEFT</title>
<ellipse fill="lightblue" stroke="black" cx="212.28" cy="-28.99" rx="28.98" ry="28.98"/>
<text text-anchor="middle" x="212.28" y="-26.79" font-family="Times,serif" font-size="9.00">LEFT</text>
</g>
<!-- ball_x&#45;&gt;LEFT -->
<g id="edge2" class="edge">
<title>ball_x&#45;&gt;LEFT</title>
<path fill="none" stroke="green" stroke-width="0.24" d="M213.22,-158.39C213.1,-141.06 212.79,-99.53 212.57,-68.36"/>
<polygon fill="green" stroke="green" stroke-width="0.24" points="216.06,-68.21 212.49,-58.24 209.06,-68.26 216.06,-68.21"/>
</g>
<!-- 1554 -->
<g id="node23" class="node">
<title>1554</title>
<ellipse fill="white" stroke="black" cx="288.28" cy="-28.99" rx="28.98" ry="28.98"/>
<text text-anchor="middle" x="288.28" y="-26.79" font-family="Times,serif" font-size="9.00">1554</text>
</g>
<!-- ball_x&#45;&gt;1554 -->
<g id="edge3" class="edge">
<title>ball_x&#45;&gt;1554</title>
<path fill="none" stroke="green" stroke-width="0.41" stroke-dasharray="1,5" d="M216.38,-158.25C221.64,-144.54 232.93,-116.41 245.28,-93.98 251.39,-82.9 258.85,-71.28 265.83,-61.02"/>
<polygon fill="green" stroke="green" stroke-width="0.41" points="268.73,-62.99 271.54,-52.77 262.97,-59 268.73,-62.99"/>
</g>
<!-- ball_y -->
<g id="node4" class="node">
<title>ball_y</title>
<polygon fill="lightgray" stroke="black" points="384.28,-176.52 340.28,-176.52 340.28,-158.52 384.28,-158.52 384.28,-176.52"/>
<text text-anchor="middle" x="362.28" y="-165.32" font-family="Times,serif" font-size="9.00">ball_y</text>
</g>
<!-- NOOP -->
<g id="node5" class="node">
<title>NOOP</title>
<ellipse fill="lightblue" stroke="black" cx="435.28" cy="-167.52" rx="32.55" ry="32.55"/>
<text text-anchor="middle" x="435.28" y="-165.32" font-family="Times,serif" font-size="9.00">NOOP</text>
</g>
<!-- RIGHT -->
<g id="node7" class="node">
<title>RIGHT</title>
<ellipse fill="lightblue" stroke="black" cx="288.28" cy="-167.52" rx="33.88" ry="33.88"/>
<text text-anchor="middle" x="288.28" y="-165.32" font-family="Times,serif" font-size="9.00">RIGHT</text>
</g>
<!-- RIGHT&#45;&gt;1554 -->
<g id="edge4" class="edge">
<title>RIGHT&#45;&gt;1554</title>
<path fill="none" stroke="red" stroke-width="0.13" d="M288.28,-133.47C288.28,-113.85 288.28,-88.88 288.28,-68.38"/>
<polygon fill="red" stroke="red" stroke-width="0.13" points="291.78,-68.13 288.28,-58.13 284.78,-68.13 291.78,-68.13"/>
</g>
<!-- RIGHTFIRE -->
<g id="node9" class="node">
<title>RIGHTFIRE</title>
<ellipse fill="lightblue" stroke="black" cx="536.28" cy="-167.52" rx="50.41" ry="50.41"/>
<text text-anchor="middle" x="536.28" y="-165.32" font-family="Times,serif" font-size="9.00">RIGHTFIRE</text>
</g>
<!-- LEFTRIGHTFIRE -->
<g id="node10" class="node">
<title>LEFTRIGHTFIRE</title>
<ellipse fill="lightblue" stroke="black" cx="672.28" cy="-167.52" rx="67.76" ry="67.76"/>
<text text-anchor="middle" x="672.28" y="-165.32" font-family="Times,serif" font-size="9.00">LEFTRIGHTFIRE</text>
</g>
<!-- UPRIGHT -->
<g id="node11" class="node">
<title>UPRIGHT</title>
<ellipse fill="lightblue" stroke="black" cx="802.28" cy="-167.52" rx="43.68" ry="43.68"/>
<text text-anchor="middle" x="802.28" y="-165.32" font-family="Times,serif" font-size="9.00">UPRIGHT</text>
</g>
<!-- UPLEFT -->
<g id="node12" class="node">
<title>UPLEFT</title>
<ellipse fill="lightblue" stroke="black" cx="903.28" cy="-167.52" rx="38.78" ry="38.78"/>
<text text-anchor="middle" x="903.28" y="-165.32" font-family="Times,serif" font-size="9.00">UPLEFT</text>
</g>
<!-- DOWNRIGHT -->
<g id="node13" class="node">
<title>DOWNRIGHT</title>
<ellipse fill="lightblue" stroke="black" cx="1016.28" cy="-167.52" rx="56.64" ry="56.64"/>
<text text-anchor="middle" x="1016.28" y="-165.32" font-family="Times,serif" font-size="9.00">DOWNRIGHT</text>
</g>
<!-- DOWNLEFT -->
<g id="node14" class="node">
<title>DOWNLEFT</title>
<ellipse fill="lightblue" stroke="black" cx="1143.28" cy="-167.52" rx="52.15" ry="52.15"/>
<text text-anchor="middle" x="1143.28" y="-165.32" font-family="Times,serif" font-size="9.00">DOWNLEFT</text>
</g>
<!-- UPFIRE -->
<g id="node15" class="node">
<title>UPFIRE</title>
<ellipse fill="lightblue" stroke="black" cx="1251.28" cy="-167.52" rx="37.45" ry="37.45"/>
<text text-anchor="middle" x="1251.28" y="-165.32" font-family="Times,serif" font-size="9.00">UPFIRE</text>
</g>
<!-- LEFTFIRE -->
<g id="node16" class="node">
<title>LEFTFIRE</title>
<ellipse fill="lightblue" stroke="black" cx="1352.28" cy="-167.52" rx="45.92" ry="45.92"/>
<text text-anchor="middle" x="1352.28" y="-165.32" font-family="Times,serif" font-size="9.00">LEFTFIRE</text>
</g>
<!-- DOWNFIRE -->
<g id="node17" class="node">
<title>DOWNFIRE</title>
<ellipse fill="lightblue" stroke="black" cx="1467.28" cy="-167.52" rx="50.82" ry="50.82"/>
<text text-anchor="middle" x="1467.28" y="-165.32" font-family="Times,serif" font-size="9.00">DOWNFIRE</text>
</g>
<!-- UPRIGHTFIRE -->
<g id="node18" class="node">
<title>UPRIGHTFIRE</title>
<ellipse fill="lightblue" stroke="black" cx="1596.28" cy="-167.52" rx="60.21" ry="60.21"/>
<text text-anchor="middle" x="1596.28" y="-165.32" font-family="Times,serif" font-size="9.00">UPRIGHTFIRE</text>
</g>
<!-- UPLEFTFIRE -->
<g id="node19" class="node">
<title>UPLEFTFIRE</title>
<ellipse fill="lightblue" stroke="black" cx="1729.28" cy="-167.52" rx="55.31" ry="55.31"/>
<text text-anchor="middle" x="1729.28" y="-165.32" font-family="Times,serif" font-size="9.00">UPLEFTFIRE</text>
</g>
<!-- DOWNRIGHTFIRE -->
<g id="node20" class="node">
<title>DOWNRIGHTFIRE</title>
<ellipse fill="lightblue" stroke="black" cx="1876.28" cy="-167.52" rx="73.58" ry="73.58"/>
<text text-anchor="middle" x="1876.28" y="-165.32" font-family="Times,serif" font-size="9.00">DOWNRIGHTFIRE</text>
</g>
<!-- DOWNLEFTFIRE -->
<g id="node21" class="node">
<title>DOWNLEFTFIRE</title>
<ellipse fill="lightblue" stroke="black" cx="2036.28" cy="-167.52" rx="68.68" ry="68.68"/>
<text text-anchor="middle" x="2036.28" y="-165.32" font-family="Times,serif" font-size="9.00">DOWNLEFTFIRE</text>
</g>
<!-- 1064 -->
<g id="node22" class="node">
<title>1064</title>
<ellipse fill="white" stroke="black" cx="2152.28" cy="-167.52" rx="28.98" ry="28.98"/>
<text text-anchor="middle" x="2152.28" y="-165.32" font-family="Times,serif" font-size="9.00">1064</text>
</g>
</g>
</svg>
