<?xml version="1.0" encoding="UTF-8" standalone="no"?>
<!DOCTYPE svg PUBLIC "-//W3C//DTD SVG 1.1//EN"
 "http://www.w3.org/Graphics/SVG/1.1/DTD/svg11.dtd">
<!-- Generated by graphviz version 2.43.0 (0)
 -->
<!-- Title: %3 Pages: 1 -->
<svg width="601pt" height="76pt"
 viewBox="0.00 0.00 601.49 75.88" xmlns="http://www.w3.org/2000/svg" xmlns:xlink="http://www.w3.org/1999/xlink">
<g id="graph0" class="graph" transform="scale(1 1) rotate(0) translate(4 71.88)">
<title>%3</title>
<polygon fill="white" stroke="transparent" points="-4,4 -4,-71.88 597.49,-71.88 597.49,4 -4,4"/>
<!-- ball_left -->
<g id="node1" class="node">
<title>ball_left</title>
<polygon fill="lightgray" stroke="black" points="53,-42.94 0,-42.94 0,-24.94 53,-24.94 53,-42.94"/>
<text text-anchor="middle" x="26.5" y="-31.74" font-family="Times,serif" font-size="9.00">ball_left</text>
</g>
<!-- ball_right -->
<g id="node2" class="node">
<title>ball_right</title>
<polygon fill="lightgray" stroke="black" points="133.5,-42.94 71.5,-42.94 71.5,-24.94 133.5,-24.94 133.5,-42.94"/>
<text text-anchor="middle" x="102.5" y="-31.74" font-family="Times,serif" font-size="9.00">ball_right</text>
</g>
<!-- ball_out_field -->
<g id="node3" class="node">
<title>ball_out_field</title>
<polygon fill="lightgray" stroke="black" points="229.5,-42.94 151.5,-42.94 151.5,-24.94 229.5,-24.94 229.5,-42.94"/>
<text text-anchor="middle" x="190.5" y="-31.74" font-family="Times,serif" font-size="9.00">ball_out_field</text>
</g>
<!-- &#45;4 -->
<g id="node4" class="node">
<title>&#45;4</title>
<polygon fill="lightgray" stroke="black" points="273.5,-42.94 247.5,-42.94 247.5,-24.94 273.5,-24.94 273.5,-42.94"/>
<text text-anchor="middle" x="260.5" y="-31.74" font-family="Times,serif" font-size="9.00">&#45;4</text>
</g>
<!-- NOOP -->
<g id="node5" class="node">
<title>NOOP</title>
<ellipse fill="lightblue" stroke="black" cx="324.5" cy="-33.94" rx="32.55" ry="32.55"/>
<text text-anchor="middle" x="324.5" y="-31.74" font-family="Times,serif" font-size="9.00">NOOP</text>
</g>
<!-- FIRE -->
<g id="node6" class="node">
<title>FIRE</title>
<ellipse fill="lightblue" stroke="black" cx="403.5" cy="-33.94" rx="28.07" ry="28.07"/>
<text text-anchor="middle" x="403.5" y="-31.74" font-family="Times,serif" font-size="9.00">FIRE</text>
</g>
<!-- RIGHT -->
<g id="node7" class="node">
<title>RIGHT</title>
<ellipse fill="lightblue" stroke="black" cx="483.5" cy="-33.94" rx="33.88" ry="33.88"/>
<text text-anchor="middle" x="483.5" y="-31.74" font-family="Times,serif" font-size="9.00">RIGHT</text>
</g>
<!-- LEFT -->
<g id="node8" class="node">
<title>LEFT</title>
<ellipse fill="lightblue" stroke="black" cx="564.5" cy="-33.94" rx="28.98" ry="28.98"/>
<text text-anchor="middle" x="564.5" y="-31.74" font-family="Times,serif" font-size="9.00">LEFT</text>
</g>
</g>
</svg>
