<?xml version="1.0" encoding="UTF-8" standalone="no"?>
<!DOCTYPE svg PUBLIC "-//W3C//DTD SVG 1.1//EN"
 "http://www.w3.org/Graphics/SVG/1.1/DTD/svg11.dtd">
<!-- Generated by graphviz version 2.43.0 (0)
 -->
<!-- Title: %3 Pages: 1 -->
<svg width="2049pt" height="484pt"
 viewBox="0.00 0.00 2049.13 484.47" xmlns="http://www.w3.org/2000/svg" xmlns:xlink="http://www.w3.org/1999/xlink">
<g id="graph0" class="graph" transform="scale(1 1) rotate(0) translate(4 480.47)">
<title>%3</title>
<polygon fill="white" stroke="transparent" points="-4,4 -4,-480.47 2045.13,-480.47 2045.13,4 -4,4"/>
<!-- ball_left -->
<g id="node1" class="node">
<title>ball_left</title>
<polygon fill="lightgray" stroke="black" points="153.09,-411.93 100.09,-411.93 100.09,-393.93 153.09,-393.93 153.09,-411.93"/>
<text text-anchor="middle" x="126.59" y="-400.73" font-family="Times,serif" font-size="9.00">ball_left</text>
</g>
<!-- DOWNLEFTFIRE -->
<g id="node20" class="node">
<title>DOWNLEFTFIRE</title>
<ellipse fill="lightblue" stroke="black" cx="68.59" cy="-224.8" rx="68.68" ry="68.68"/>
<text text-anchor="middle" x="68.59" y="-222.6" font-family="Times,serif" font-size="9.00">DOWNLEFTFIRE</text>
</g>
<!-- ball_left&#45;&gt;DOWNLEFTFIRE -->
<g id="edge1" class="edge">
<title>ball_left&#45;&gt;DOWNLEFTFIRE</title>
<path fill="none" stroke="green" stroke-width="0.73" d="M123.95,-393.9C118.43,-377.16 105.21,-337 93.07,-300.13"/>
<polygon fill="green" stroke="green" stroke-width="0.73" points="96.3,-298.75 89.85,-290.35 89.65,-300.94 96.3,-298.75"/>
</g>
<!-- 2628 -->
<g id="node21" class="node">
<title>2628</title>
<ellipse fill="white" stroke="black" cx="184.59" cy="-224.8" rx="28.98" ry="28.98"/>
<text text-anchor="middle" x="184.59" y="-222.6" font-family="Times,serif" font-size="9.00">2628</text>
</g>
<!-- ball_left&#45;&gt;2628 -->
<g id="edge3" class="edge">
<title>ball_left&#45;&gt;2628</title>
<path fill="none" stroke="red" stroke-width="0.23" d="M129.23,-393.9C136.76,-371.04 158.68,-304.49 172.57,-262.31"/>
<polygon fill="red" stroke="red" stroke-width="0.23" points="175.94,-263.26 175.74,-252.67 169.29,-261.07 175.94,-263.26"/>
</g>
<!-- ball_right -->
<g id="node2" class="node">
<title>ball_right</title>
<polygon fill="lightgray" stroke="black" points="367.59,-411.93 305.59,-411.93 305.59,-393.93 367.59,-393.93 367.59,-411.93"/>
<text text-anchor="middle" x="336.59" y="-400.73" font-family="Times,serif" font-size="9.00">ball_right</text>
</g>
<!-- RIGHT -->
<g id="node6" class="node">
<title>RIGHT</title>
<ellipse fill="lightblue" stroke="black" cx="298.59" cy="-60.1" rx="33.88" ry="33.88"/>
<text text-anchor="middle" x="298.59" y="-57.9" font-family="Times,serif" font-size="9.00">RIGHT</text>
</g>
<!-- ball_right&#45;&gt;RIGHT -->
<g id="edge2" class="edge">
<title>ball_right&#45;&gt;RIGHT</title>
<path fill="none" stroke="green" stroke-width="0.53" d="M328.26,-393.92C311.49,-377.17 274.15,-336.39 260.59,-293.39 242.26,-235.24 249.07,-216.08 260.59,-156.21 264.27,-137.09 271.75,-116.92 279.11,-100.11"/>
<polygon fill="green" stroke="green" stroke-width="0.53" points="282.47,-101.18 283.4,-90.62 276.09,-98.29 282.47,-101.18"/>
</g>
<!-- 2682 -->
<g id="node22" class="node">
<title>2682</title>
<ellipse fill="white" stroke="black" cx="298.59" cy="-224.8" rx="28.98" ry="28.98"/>
<text text-anchor="middle" x="298.59" y="-222.6" font-family="Times,serif" font-size="9.00">2682</text>
</g>
<!-- ball_right&#45;&gt;2682 -->
<g id="edge5" class="edge">
<title>ball_right&#45;&gt;2682</title>
<path fill="none" stroke="green" stroke-width="0.2" d="M334.86,-393.9C329.96,-371.21 315.78,-305.49 306.67,-263.27"/>
<polygon fill="green" stroke="green" stroke-width="0.2" points="310.06,-262.37 304.53,-253.34 303.22,-263.85 310.06,-262.37"/>
</g>
<!-- 2718 -->
<g id="node23" class="node">
<title>2718</title>
<ellipse fill="white" stroke="black" cx="374.59" cy="-224.8" rx="28.98" ry="28.98"/>
<text text-anchor="middle" x="374.59" y="-222.6" font-family="Times,serif" font-size="9.00">2718</text>
</g>
<!-- ball_right&#45;&gt;2718 -->
<g id="edge7" class="edge">
<title>ball_right&#45;&gt;2718</title>
<path fill="none" stroke="green" stroke-width="0.29" d="M338.32,-393.9C343.22,-371.21 357.39,-305.49 366.51,-263.27"/>
<polygon fill="green" stroke="green" stroke-width="0.29" points="369.96,-263.85 368.65,-253.34 363.12,-262.37 369.96,-263.85"/>
</g>
<!-- 2720 -->
<g id="node24" class="node">
<title>2720</title>
<ellipse fill="white" stroke="black" cx="450.59" cy="-224.8" rx="28.98" ry="28.98"/>
<text text-anchor="middle" x="450.59" y="-222.6" font-family="Times,serif" font-size="9.00">2720</text>
</g>
<!-- ball_right&#45;&gt;2720 -->
<g id="edge8" class="edge">
<title>ball_right&#45;&gt;2720</title>
<path fill="none" stroke="green" stroke-width="0.66" stroke-dasharray="1,5" d="M340.12,-393.86C346.39,-379.99 360.34,-351 376.59,-329.39 390.19,-311.3 398.92,-311.42 412.59,-293.39 420.34,-283.16 427.59,-271.18 433.63,-260.17"/>
<polygon fill="green" stroke="green" stroke-width="0.66" points="436.79,-261.68 438.41,-251.21 430.62,-258.39 436.79,-261.68"/>
</g>
<!-- ball_out_field -->
<g id="node3" class="node">
<title>ball_out_field</title>
<polygon fill="lightgray" stroke="black" points="463.59,-411.93 385.59,-411.93 385.59,-393.93 463.59,-393.93 463.59,-411.93"/>
<text text-anchor="middle" x="424.59" y="-400.73" font-family="Times,serif" font-size="9.00">ball_out_field</text>
</g>
<!-- NOOP -->
<g id="node4" class="node">
<title>NOOP</title>
<ellipse fill="lightblue" stroke="black" cx="514.59" cy="-402.93" rx="32.55" ry="32.55"/>
<text text-anchor="middle" x="514.59" y="-400.73" font-family="Times,serif" font-size="9.00">NOOP</text>
</g>
<!-- FIRE -->
<g id="node5" class="node">
<title>FIRE</title>
<ellipse fill="lightblue" stroke="black" cx="593.59" cy="-402.93" rx="28.07" ry="28.07"/>
<text text-anchor="middle" x="593.59" y="-400.73" font-family="Times,serif" font-size="9.00">FIRE</text>
</g>
<!-- LEFT -->
<g id="node7" class="node">
<title>LEFT</title>
<ellipse fill="lightblue" stroke="black" cx="668.59" cy="-402.93" rx="28.98" ry="28.98"/>
<text text-anchor="middle" x="668.59" y="-400.73" font-family="Times,serif" font-size="9.00">LEFT</text>
</g>
<!-- RIGHTFIRE -->
<g id="node8" class="node">
<title>RIGHTFIRE</title>
<ellipse fill="lightblue" stroke="black" cx="765.59" cy="-402.93" rx="50.41" ry="50.41"/>
<text text-anchor="middle" x="765.59" y="-400.73" font-family="Times,serif" font-size="9.00">RIGHTFIRE</text>
</g>
<!-- LEFTRIGHTFIRE -->
<g id="node9" class="node">
<title>LEFTRIGHTFIRE</title>
<ellipse fill="lightblue" stroke="black" cx="901.59" cy="-402.93" rx="67.76" ry="67.76"/>
<text text-anchor="middle" x="901.59" y="-400.73" font-family="Times,serif" font-size="9.00">LEFTRIGHTFIRE</text>
</g>
<!-- UPRIGHT -->
<g id="node10" class="node">
<title>UPRIGHT</title>
<ellipse fill="lightblue" stroke="black" cx="1031.59" cy="-402.93" rx="43.68" ry="43.68"/>
<text text-anchor="middle" x="1031.59" y="-400.73" font-family="Times,serif" font-size="9.00">UPRIGHT</text>
</g>
<!-- UPLEFT -->
<g id="node11" class="node">
<title>UPLEFT</title>
<ellipse fill="lightblue" stroke="black" cx="1132.59" cy="-402.93" rx="38.78" ry="38.78"/>
<text text-anchor="middle" x="1132.59" y="-400.73" font-family="Times,serif" font-size="9.00">UPLEFT</text>
</g>
<!-- DOWNRIGHT -->
<g id="node12" class="node">
<title>DOWNRIGHT</title>
<ellipse fill="lightblue" stroke="black" cx="1245.59" cy="-402.93" rx="56.64" ry="56.64"/>
<text text-anchor="middle" x="1245.59" y="-400.73" font-family="Times,serif" font-size="9.00">DOWNRIGHT</text>
</g>
<!-- DOWNLEFT -->
<g id="node13" class="node">
<title>DOWNLEFT</title>
<ellipse fill="lightblue" stroke="black" cx="1372.59" cy="-402.93" rx="52.15" ry="52.15"/>
<text text-anchor="middle" x="1372.59" y="-400.73" font-family="Times,serif" font-size="9.00">DOWNLEFT</text>
</g>
<!-- UPFIRE -->
<g id="node14" class="node">
<title>UPFIRE</title>
<ellipse fill="lightblue" stroke="black" cx="1480.59" cy="-402.93" rx="37.45" ry="37.45"/>
<text text-anchor="middle" x="1480.59" y="-400.73" font-family="Times,serif" font-size="9.00">UPFIRE</text>
</g>
<!-- LEFTFIRE -->
<g id="node15" class="node">
<title>LEFTFIRE</title>
<ellipse fill="lightblue" stroke="black" cx="1581.59" cy="-402.93" rx="45.92" ry="45.92"/>
<text text-anchor="middle" x="1581.59" y="-400.73" font-family="Times,serif" font-size="9.00">LEFTFIRE</text>
</g>
<!-- DOWNFIRE -->
<g id="node16" class="node">
<title>DOWNFIRE</title>
<ellipse fill="lightblue" stroke="black" cx="1696.59" cy="-402.93" rx="50.82" ry="50.82"/>
<text text-anchor="middle" x="1696.59" y="-400.73" font-family="Times,serif" font-size="9.00">DOWNFIRE</text>
</g>
<!-- UPRIGHTFIRE -->
<g id="node17" class="node">
<title>UPRIGHTFIRE</title>
<ellipse fill="lightblue" stroke="black" cx="184.59" cy="-60.1" rx="60.21" ry="60.21"/>
<text text-anchor="middle" x="184.59" y="-57.9" font-family="Times,serif" font-size="9.00">UPRIGHTFIRE</text>
</g>
<!-- UPLEFTFIRE -->
<g id="node18" class="node">
<title>UPLEFTFIRE</title>
<ellipse fill="lightblue" stroke="black" cx="1820.59" cy="-402.93" rx="55.31" ry="55.31"/>
<text text-anchor="middle" x="1820.59" y="-400.73" font-family="Times,serif" font-size="9.00">UPLEFTFIRE</text>
</g>
<!-- DOWNRIGHTFIRE -->
<g id="node19" class="node">
<title>DOWNRIGHTFIRE</title>
<ellipse fill="lightblue" stroke="black" cx="1967.59" cy="-402.93" rx="73.58" ry="73.58"/>
<text text-anchor="middle" x="1967.59" y="-400.73" font-family="Times,serif" font-size="9.00">DOWNRIGHTFIRE</text>
</g>
<!-- 2628&#45;&gt;UPRIGHTFIRE -->
<g id="edge4" class="edge">
<title>2628&#45;&gt;UPRIGHTFIRE</title>
<path fill="none" stroke="green" stroke-width="0.15" d="M184.59,-195.46C184.59,-177.46 184.59,-153.32 184.59,-130.47"/>
<polygon fill="green" stroke="green" stroke-width="0.15" points="188.09,-130.44 184.59,-120.44 181.09,-130.44 188.09,-130.44"/>
</g>
<!-- 2682&#45;&gt;RIGHT -->
<g id="edge6" class="edge">
<title>2682&#45;&gt;RIGHT</title>
<path fill="none" stroke="green" stroke-width="0.66" d="M298.59,-195.46C298.59,-170.32 298.59,-133.23 298.59,-104.38"/>
<polygon fill="green" stroke="green" stroke-width="0.66" points="302.09,-104.16 298.59,-94.16 295.09,-104.16 302.09,-104.16"/>
</g>
<!-- 2720&#45;&gt;RIGHT -->
<g id="edge9" class="edge">
<title>2720&#45;&gt;RIGHT</title>
<path fill="none" stroke="green" stroke-width="0.39" d="M438.89,-198.01C432.21,-184.78 423.09,-168.83 412.59,-156.21 389.88,-128.91 358.6,-103.45 334.55,-85.76"/>
<polygon fill="green" stroke="green" stroke-width="0.39" points="336.52,-82.87 326.37,-79.83 332.42,-88.53 336.52,-82.87"/>
</g>
</g>
</svg>
