<?xml version="1.0" encoding="utf-8" standalone="no"?>
<!DOCTYPE svg PUBLIC "-//W3C//DTD SVG 1.1//EN"
  "http://www.w3.org/Graphics/SVG/1.1/DTD/svg11.dtd">
<svg xmlns:xlink="http://www.w3.org/1999/xlink" width="460.8pt" height="345.6pt" viewBox="0 0 460.8 345.6" xmlns="http://www.w3.org/2000/svg" version="1.1">
 <metadata>
  <rdf:RDF xmlns:dc="http://purl.org/dc/elements/1.1/" xmlns:cc="http://creativecommons.org/ns#" xmlns:rdf="http://www.w3.org/1999/02/22-rdf-syntax-ns#">
   <cc:Work>
    <dc:type rdf:resource="http://purl.org/dc/dcmitype/StillImage"/>
    <dc:date>2023-02-17T20:00:46.753493</dc:date>
    <dc:format>image/svg+xml</dc:format>
    <dc:creator>
     <cc:Agent>
      <dc:title>Matplotlib v3.6.2, https://matplotlib.org/</dc:title>
     </cc:Agent>
    </dc:creator>
   </cc:Work>
  </rdf:RDF>
 </metadata>
 <defs>
  <style type="text/css">*{stroke-linejoin: round; stroke-linecap: butt}</style>
 </defs>
 <g id="figure_1">
  <g id="patch_1">
   <path d="M 0 345.6 
L 460.8 345.6 
L 460.8 0 
L 0 0 
z
" style="fill: #ffffff"/>
  </g>
  <g id="axes_1">
   <g id="patch_2">
    <path d="M 57.6 307.584 
L 414.72 307.584 
L 414.72 41.472 
L 57.6 41.472 
z
" style="fill: #ffffff"/>
   </g>
   <g id="PolyCollection_1">
    <path d="M 73.832727 82.637254 
L 73.832727 307.584 
L 85.027712 307.584 
L 96.222696 307.584 
L 107.41768 307.584 
L 118.612665 307.584 
L 129.807649 307.584 
L 141.002633 307.584 
L 152.197618 307.584 
L 163.392602 307.584 
L 174.587586 307.584 
L 185.782571 307.584 
L 196.977555 307.584 
L 208.172539 307.584 
L 219.367524 307.584 
L 230.562508 307.584 
L 241.757492 307.584 
L 252.952476 307.584 
L 264.147461 307.584 
L 275.342445 307.584 
L 286.537429 307.584 
L 297.732414 307.584 
L 308.927398 307.584 
L 320.122382 307.584 
L 331.317367 307.584 
L 342.512351 307.584 
L 353.707335 307.584 
L 364.90232 307.584 
L 376.097304 307.584 
L 387.292288 307.584 
L 398.487273 307.584 
L 398.487273 303.085065 
L 398.487273 303.085065 
L 387.292288 303.085065 
L 376.097304 303.085065 
L 364.90232 303.085065 
L 353.707335 303.085065 
L 342.512351 303.085065 
L 331.317367 303.085065 
L 320.122382 303.085065 
L 308.927398 303.085065 
L 297.732414 303.085065 
L 286.537429 303.085065 
L 275.342445 303.085065 
L 264.147461 301.58542 
L 252.952476 306.084355 
L 241.757492 298.58613 
L 230.562508 300.085775 
L 219.367524 288.088615 
L 208.172539 291.087905 
L 196.977555 298.58613 
L 185.782571 297.086485 
L 174.587586 226.603172 
L 163.392602 273.092166 
L 152.197618 256.596071 
L 141.002633 214.606012 
L 129.807649 217.605302 
L 118.612665 229.602462 
L 107.41768 217.605302 
L 96.222696 181.613822 
L 85.027712 85.636544 
L 73.832727 82.637254 
z
" clip-path="url(#pe31036cd73)" style="fill: #1f77b4"/>
   </g>
   <g id="PolyCollection_2">
    <path d="M 73.832727 82.637254 
L 73.832727 82.637254 
L 85.027712 85.636544 
L 96.222696 181.613822 
L 107.41768 217.605302 
L 118.612665 229.602462 
L 129.807649 217.605302 
L 141.002633 214.606012 
L 152.197618 256.596071 
L 163.392602 273.092166 
L 174.587586 226.603172 
L 185.782571 297.086485 
L 196.977555 298.58613 
L 208.172539 291.087905 
L 219.367524 288.088615 
L 230.562508 300.085775 
L 241.757492 298.58613 
L 252.952476 306.084355 
L 264.147461 301.58542 
L 275.342445 303.085065 
L 286.537429 303.085065 
L 297.732414 303.085065 
L 308.927398 303.085065 
L 320.122382 303.085065 
L 331.317367 303.085065 
L 342.512351 303.085065 
L 353.707335 303.085065 
L 364.90232 303.085065 
L 376.097304 303.085065 
L 387.292288 303.085065 
L 398.487273 303.085065 
L 398.487273 292.58755 
L 398.487273 292.58755 
L 387.292288 295.58684 
L 376.097304 295.58684 
L 364.90232 295.58684 
L 353.707335 292.58755 
L 342.512351 292.58755 
L 331.317367 295.58684 
L 320.122382 291.087905 
L 308.927398 292.58755 
L 297.732414 294.087195 
L 286.537429 291.087905 
L 275.342445 291.087905 
L 264.147461 285.089325 
L 252.952476 289.58826 
L 241.757492 289.58826 
L 230.562508 292.58755 
L 219.367524 277.591101 
L 208.172539 273.092166 
L 196.977555 216.105657 
L 185.782571 274.591811 
L 174.587586 216.105657 
L 163.392602 262.594651 
L 152.197618 243.099266 
L 141.002633 198.109917 
L 129.807649 207.107787 
L 118.612665 222.104237 
L 107.41768 201.109207 
L 96.222696 151.620923 
L 85.027712 84.136899 
L 73.832727 82.637254 
z
" clip-path="url(#pe31036cd73)" style="fill: #ff7f0e"/>
   </g>
   <g id="PolyCollection_3">
    <path d="M 73.832727 82.637254 
L 73.832727 82.637254 
L 85.027712 84.136899 
L 96.222696 151.620923 
L 107.41768 201.109207 
L 118.612665 222.104237 
L 129.807649 207.107787 
L 141.002633 198.109917 
L 152.197618 243.099266 
L 163.392602 262.594651 
L 174.587586 216.105657 
L 185.782571 274.591811 
L 196.977555 216.105657 
L 208.172539 273.092166 
L 219.367524 277.591101 
L 230.562508 292.58755 
L 241.757492 289.58826 
L 252.952476 289.58826 
L 264.147461 285.089325 
L 275.342445 291.087905 
L 286.537429 291.087905 
L 297.732414 294.087195 
L 308.927398 292.58755 
L 320.122382 291.087905 
L 331.317367 295.58684 
L 342.512351 292.58755 
L 353.707335 292.58755 
L 364.90232 295.58684 
L 376.097304 295.58684 
L 387.292288 295.58684 
L 398.487273 292.58755 
L 398.487273 285.089325 
L 398.487273 285.089325 
L 387.292288 286.58897 
L 376.097304 289.58826 
L 364.90232 286.58897 
L 353.707335 283.58968 
L 342.512351 285.089325 
L 331.317367 286.58897 
L 320.122382 286.58897 
L 308.927398 285.089325 
L 297.732414 288.088615 
L 286.537429 286.58897 
L 275.342445 282.090036 
L 264.147461 276.091456 
L 252.952476 280.590391 
L 241.757492 274.591811 
L 230.562508 280.590391 
L 219.367524 271.592521 
L 208.172539 264.094296 
L 196.977555 207.107787 
L 185.782571 268.593231 
L 174.587586 210.107077 
L 163.392602 259.595361 
L 152.197618 237.100686 
L 141.002633 183.113467 
L 129.807649 187.612402 
L 118.612665 199.609562 
L 107.41768 178.614533 
L 96.222696 109.630864 
L 85.027712 82.637254 
L 73.832727 82.637254 
z
" clip-path="url(#pe31036cd73)" style="fill: #2ca02c"/>
   </g>
   <g id="PolyCollection_4">
    <path d="M 73.832727 82.637254 
L 73.832727 82.637254 
L 85.027712 82.637254 
L 96.222696 109.630864 
L 107.41768 178.614533 
L 118.612665 199.609562 
L 129.807649 187.612402 
L 141.002633 183.113467 
L 152.197618 237.100686 
L 163.392602 259.595361 
L 174.587586 210.107077 
L 185.782571 268.593231 
L 196.977555 207.107787 
L 208.172539 264.094296 
L 219.367524 271.592521 
L 230.562508 280.590391 
L 241.757492 274.591811 
L 252.952476 280.590391 
L 264.147461 276.091456 
L 275.342445 282.090036 
L 286.537429 286.58897 
L 297.732414 288.088615 
L 308.927398 285.089325 
L 320.122382 286.58897 
L 331.317367 286.58897 
L 342.512351 285.089325 
L 353.707335 283.58968 
L 364.90232 286.58897 
L 376.097304 289.58826 
L 387.292288 286.58897 
L 398.487273 285.089325 
L 398.487273 271.592521 
L 398.487273 271.592521 
L 387.292288 277.591101 
L 376.097304 283.58968 
L 364.90232 279.090746 
L 353.707335 274.591811 
L 342.512351 276.091456 
L 331.317367 279.090746 
L 320.122382 277.591101 
L 308.927398 274.591811 
L 297.732414 277.591101 
L 286.537429 285.089325 
L 275.342445 270.092876 
L 264.147461 265.593941 
L 252.952476 264.094296 
L 241.757492 256.596071 
L 230.562508 252.097136 
L 219.367524 243.099266 
L 208.172539 238.600331 
L 196.977555 195.110627 
L 185.782571 256.596071 
L 174.587586 205.608142 
L 163.392602 255.096426 
L 152.197618 232.601751 
L 141.002633 177.114888 
L 129.807649 183.113467 
L 118.612665 192.111337 
L 107.41768 169.616663 
L 96.222696 99.133349 
L 85.027712 82.637254 
L 73.832727 82.637254 
z
" clip-path="url(#pe31036cd73)" style="fill: #d62728"/>
   </g>
   <g id="PolyCollection_5">
    <path d="M 73.832727 82.637254 
L 73.832727 82.637254 
L 85.027712 82.637254 
L 96.222696 99.133349 
L 107.41768 169.616663 
L 118.612665 192.111337 
L 129.807649 183.113467 
L 141.002633 177.114888 
L 152.197618 232.601751 
L 163.392602 255.096426 
L 174.587586 205.608142 
L 185.782571 256.596071 
L 196.977555 195.110627 
L 208.172539 238.600331 
L 219.367524 243.099266 
L 230.562508 252.097136 
L 241.757492 256.596071 
L 252.952476 264.094296 
L 264.147461 265.593941 
L 275.342445 270.092876 
L 286.537429 285.089325 
L 297.732414 277.591101 
L 308.927398 274.591811 
L 320.122382 277.591101 
L 331.317367 279.090746 
L 342.512351 276.091456 
L 353.707335 274.591811 
L 364.90232 279.090746 
L 376.097304 283.58968 
L 387.292288 277.591101 
L 398.487273 271.592521 
L 398.487273 261.095006 
L 398.487273 261.095006 
L 387.292288 271.592521 
L 376.097304 273.092166 
L 364.90232 270.092876 
L 353.707335 265.593941 
L 342.512351 270.092876 
L 331.317367 274.591811 
L 320.122382 267.093586 
L 308.927398 265.593941 
L 297.732414 265.593941 
L 286.537429 265.593941 
L 275.342445 261.095006 
L 264.147461 259.595361 
L 252.952476 258.095716 
L 241.757492 252.097136 
L 230.562508 238.600331 
L 219.367524 238.600331 
L 208.172539 231.102107 
L 196.977555 177.114888 
L 185.782571 250.597491 
L 174.587586 199.609562 
L 163.392602 237.100686 
L 152.197618 214.606012 
L 141.002633 156.119858 
L 129.807649 160.618793 
L 118.612665 172.615953 
L 107.41768 150.121278 
L 96.222696 93.134769 
L 85.027712 82.637254 
L 73.832727 82.637254 
z
" clip-path="url(#pe31036cd73)" style="fill: #9467bd"/>
   </g>
   <g id="PolyCollection_6">
    <path d="M 73.832727 82.637254 
L 73.832727 82.637254 
L 85.027712 82.637254 
L 96.222696 93.134769 
L 107.41768 150.121278 
L 118.612665 172.615953 
L 129.807649 160.618793 
L 141.002633 156.119858 
L 152.197618 214.606012 
L 163.392602 237.100686 
L 174.587586 199.609562 
L 185.782571 250.597491 
L 196.977555 177.114888 
L 208.172539 231.102107 
L 219.367524 238.600331 
L 230.562508 238.600331 
L 241.757492 252.097136 
L 252.952476 258.095716 
L 264.147461 259.595361 
L 275.342445 261.095006 
L 286.537429 265.593941 
L 297.732414 265.593941 
L 308.927398 265.593941 
L 320.122382 267.093586 
L 331.317367 274.591811 
L 342.512351 270.092876 
L 353.707335 265.593941 
L 364.90232 270.092876 
L 376.097304 273.092166 
L 387.292288 271.592521 
L 398.487273 261.095006 
L 398.487273 256.596071 
L 398.487273 256.596071 
L 387.292288 267.093586 
L 376.097304 268.593231 
L 364.90232 265.593941 
L 353.707335 261.095006 
L 342.512351 265.593941 
L 331.317367 270.092876 
L 320.122382 262.594651 
L 308.927398 261.095006 
L 297.732414 261.095006 
L 286.537429 261.095006 
L 275.342445 256.596071 
L 264.147461 255.096426 
L 252.952476 255.096426 
L 241.757492 247.598201 
L 230.562508 237.100686 
L 219.367524 237.100686 
L 208.172539 228.102817 
L 196.977555 171.116308 
L 185.782571 246.098556 
L 174.587586 195.110627 
L 163.392602 232.601751 
L 152.197618 210.107077 
L 141.002633 154.620213 
L 129.807649 147.121988 
L 118.612665 165.117728 
L 107.41768 141.123408 
L 96.222696 87.136189 
L 85.027712 82.637254 
L 73.832727 82.637254 
z
" clip-path="url(#pe31036cd73)" style="fill: #8c564b"/>
   </g>
   <g id="PolyCollection_7">
    <path d="M 73.832727 82.637254 
L 73.832727 82.637254 
L 85.027712 82.637254 
L 96.222696 87.136189 
L 107.41768 141.123408 
L 118.612665 165.117728 
L 129.807649 147.121988 
L 141.002633 154.620213 
L 152.197618 210.107077 
L 163.392602 232.601751 
L 174.587586 195.110627 
L 185.782571 246.098556 
L 196.977555 171.116308 
L 208.172539 228.102817 
L 219.367524 237.100686 
L 230.562508 237.100686 
L 241.757492 247.598201 
L 252.952476 255.096426 
L 264.147461 255.096426 
L 275.342445 256.596071 
L 286.537429 261.095006 
L 297.732414 261.095006 
L 308.927398 261.095006 
L 320.122382 262.594651 
L 331.317367 270.092876 
L 342.512351 265.593941 
L 353.707335 261.095006 
L 364.90232 265.593941 
L 376.097304 268.593231 
L 387.292288 267.093586 
L 398.487273 256.596071 
L 398.487273 249.097846 
L 398.487273 249.097846 
L 387.292288 259.595361 
L 376.097304 261.095006 
L 364.90232 258.095716 
L 353.707335 255.096426 
L 342.512351 256.596071 
L 331.317367 262.594651 
L 320.122382 253.596781 
L 308.927398 252.097136 
L 297.732414 249.097846 
L 286.537429 250.597491 
L 275.342445 246.098556 
L 264.147461 243.099266 
L 252.952476 226.603172 
L 241.757492 225.103527 
L 230.562508 207.107787 
L 219.367524 223.603882 
L 208.172539 184.613112 
L 196.977555 112.630154 
L 185.782571 145.622343 
L 174.587586 139.623763 
L 163.392602 126.126959 
L 152.197618 166.617373 
L 141.002633 120.128379 
L 129.807649 117.129089 
L 118.612665 130.625893 
L 107.41768 99.133349 
L 96.222696 85.636544 
L 85.027712 82.637254 
L 73.832727 82.637254 
z
" clip-path="url(#pe31036cd73)" style="fill: #e377c2"/>
   </g>
   <g id="PolyCollection_8">
    <path d="M 73.832727 82.637254 
L 73.832727 82.637254 
L 85.027712 82.637254 
L 96.222696 85.636544 
L 107.41768 99.133349 
L 118.612665 130.625893 
L 129.807649 117.129089 
L 141.002633 120.128379 
L 152.197618 166.617373 
L 163.392602 126.126959 
L 174.587586 139.623763 
L 185.782571 145.622343 
L 196.977555 112.630154 
L 208.172539 184.613112 
L 219.367524 223.603882 
L 230.562508 207.107787 
L 241.757492 225.103527 
L 252.952476 226.603172 
L 264.147461 243.099266 
L 275.342445 246.098556 
L 286.537429 250.597491 
L 297.732414 249.097846 
L 308.927398 252.097136 
L 320.122382 253.596781 
L 331.317367 262.594651 
L 342.512351 256.596071 
L 353.707335 255.096426 
L 364.90232 258.095716 
L 376.097304 261.095006 
L 387.292288 259.595361 
L 398.487273 249.097846 
L 398.487273 241.599621 
L 398.487273 241.599621 
L 387.292288 253.596781 
L 376.097304 253.596781 
L 364.90232 252.097136 
L 353.707335 249.097846 
L 342.512351 249.097846 
L 331.317367 256.596071 
L 320.122382 249.097846 
L 308.927398 241.599621 
L 297.732414 244.598911 
L 286.537429 243.099266 
L 275.342445 232.601751 
L 264.147461 231.102107 
L 252.952476 217.605302 
L 241.757492 211.606722 
L 230.562508 193.610982 
L 219.367524 216.105657 
L 208.172539 181.613822 
L 196.977555 108.131219 
L 185.782571 106.631574 
L 174.587586 129.126249 
L 163.392602 102.132639 
L 152.197618 105.131929 
L 141.002633 109.630864 
L 129.807649 111.130509 
L 118.612665 124.627314 
L 107.41768 91.635124 
L 96.222696 84.136899 
L 85.027712 82.637254 
L 73.832727 82.637254 
z
" clip-path="url(#pe31036cd73)" style="fill: #7f7f7f"/>
   </g>
   <g id="PolyCollection_9">
    <path d="M 73.832727 82.637254 
L 73.832727 82.637254 
L 85.027712 82.637254 
L 96.222696 84.136899 
L 107.41768 91.635124 
L 118.612665 124.627314 
L 129.807649 111.130509 
L 141.002633 109.630864 
L 152.197618 105.131929 
L 163.392602 102.132639 
L 174.587586 129.126249 
L 185.782571 106.631574 
L 196.977555 108.131219 
L 208.172539 181.613822 
L 219.367524 216.105657 
L 230.562508 193.610982 
L 241.757492 211.606722 
L 252.952476 217.605302 
L 264.147461 231.102107 
L 275.342445 232.601751 
L 286.537429 243.099266 
L 297.732414 244.598911 
L 308.927398 241.599621 
L 320.122382 249.097846 
L 331.317367 256.596071 
L 342.512351 249.097846 
L 353.707335 249.097846 
L 364.90232 252.097136 
L 376.097304 253.596781 
L 387.292288 253.596781 
L 398.487273 241.599621 
L 398.487273 237.100686 
L 398.487273 237.100686 
L 387.292288 246.098556 
L 376.097304 244.598911 
L 364.90232 244.598911 
L 353.707335 243.099266 
L 342.512351 243.099266 
L 331.317367 249.097846 
L 320.122382 240.099976 
L 308.927398 240.099976 
L 297.732414 229.602462 
L 286.537429 225.103527 
L 275.342445 220.604592 
L 264.147461 219.104947 
L 252.952476 205.608142 
L 241.757492 205.608142 
L 230.562508 186.112757 
L 219.367524 201.109207 
L 208.172539 172.615953 
L 196.977555 103.632284 
L 185.782571 97.633704 
L 174.587586 100.632994 
L 163.392602 93.134769 
L 152.197618 91.635124 
L 141.002633 94.634414 
L 129.807649 96.134059 
L 118.612665 93.134769 
L 107.41768 84.136899 
L 96.222696 82.637254 
L 85.027712 82.637254 
L 73.832727 82.637254 
z
" clip-path="url(#pe31036cd73)" style="fill: #bcbd22"/>
   </g>
   <g id="PolyCollection_10">
    <path d="M 73.832727 82.637254 
L 73.832727 82.637254 
L 85.027712 82.637254 
L 96.222696 82.637254 
L 107.41768 84.136899 
L 118.612665 93.134769 
L 129.807649 96.134059 
L 141.002633 94.634414 
L 152.197618 91.635124 
L 163.392602 93.134769 
L 174.587586 100.632994 
L 185.782571 97.633704 
L 196.977555 103.632284 
L 208.172539 172.615953 
L 219.367524 201.109207 
L 230.562508 186.112757 
L 241.757492 205.608142 
L 252.952476 205.608142 
L 264.147461 219.104947 
L 275.342445 220.604592 
L 286.537429 225.103527 
L 297.732414 229.602462 
L 308.927398 240.099976 
L 320.122382 240.099976 
L 331.317367 249.097846 
L 342.512351 243.099266 
L 353.707335 243.099266 
L 364.90232 244.598911 
L 376.097304 244.598911 
L 387.292288 246.098556 
L 398.487273 237.100686 
L 398.487273 228.102817 
L 398.487273 228.102817 
L 387.292288 238.600331 
L 376.097304 237.100686 
L 364.90232 237.100686 
L 353.707335 237.100686 
L 342.512351 237.100686 
L 331.317367 240.099976 
L 320.122382 229.602462 
L 308.927398 226.603172 
L 297.732414 220.604592 
L 286.537429 216.105657 
L 275.342445 213.106367 
L 264.147461 211.606722 
L 252.952476 196.610272 
L 241.757492 198.109917 
L 230.562508 181.613822 
L 219.367524 196.610272 
L 208.172539 169.616663 
L 196.977555 100.632994 
L 185.782571 91.635124 
L 174.587586 96.134059 
L 163.392602 88.635834 
L 152.197618 87.136189 
L 141.002633 90.135479 
L 129.807649 90.135479 
L 118.612665 85.636544 
L 107.41768 82.637254 
L 96.222696 82.637254 
L 85.027712 82.637254 
L 73.832727 82.637254 
z
" clip-path="url(#pe31036cd73)" style="fill: #17becf"/>
   </g>
   <g id="PolyCollection_11">
    <path d="M 73.832727 82.637254 
L 73.832727 82.637254 
L 85.027712 82.637254 
L 96.222696 82.637254 
L 107.41768 82.637254 
L 118.612665 85.636544 
L 129.807649 90.135479 
L 141.002633 90.135479 
L 152.197618 87.136189 
L 163.392602 88.635834 
L 174.587586 96.134059 
L 185.782571 91.635124 
L 196.977555 100.632994 
L 208.172539 169.616663 
L 219.367524 196.610272 
L 230.562508 181.613822 
L 241.757492 198.109917 
L 252.952476 196.610272 
L 264.147461 211.606722 
L 275.342445 213.106367 
L 286.537429 216.105657 
L 297.732414 220.604592 
L 308.927398 226.603172 
L 320.122382 229.602462 
L 331.317367 240.099976 
L 342.512351 237.100686 
L 353.707335 237.100686 
L 364.90232 237.100686 
L 376.097304 237.100686 
L 387.292288 238.600331 
L 398.487273 228.102817 
L 398.487273 223.603882 
L 398.487273 223.603882 
L 387.292288 234.101396 
L 376.097304 232.601751 
L 364.90232 232.601751 
L 353.707335 232.601751 
L 342.512351 232.601751 
L 331.317367 234.101396 
L 320.122382 223.603882 
L 308.927398 222.104237 
L 297.732414 216.105657 
L 286.537429 211.606722 
L 275.342445 208.607432 
L 264.147461 205.608142 
L 252.952476 192.111337 
L 241.757492 193.610982 
L 230.562508 177.114888 
L 219.367524 192.111337 
L 208.172539 165.117728 
L 196.977555 96.134059 
L 185.782571 87.136189 
L 174.587586 93.134769 
L 163.392602 84.136899 
L 152.197618 84.136899 
L 141.002633 87.136189 
L 129.807649 87.136189 
L 118.612665 82.637254 
L 107.41768 81.137609 
L 96.222696 82.637254 
L 85.027712 82.637254 
L 73.832727 82.637254 
z
" clip-path="url(#pe31036cd73)" style="fill: #1f77b4"/>
   </g>
   <g id="PolyCollection_12">
    <path d="M 73.832727 82.637254 
L 73.832727 82.637254 
L 85.027712 82.637254 
L 96.222696 82.637254 
L 107.41768 81.137609 
L 118.612665 82.637254 
L 129.807649 87.136189 
L 141.002633 87.136189 
L 152.197618 84.136899 
L 163.392602 84.136899 
L 174.587586 93.134769 
L 185.782571 87.136189 
L 196.977555 96.134059 
L 208.172539 165.117728 
L 219.367524 192.111337 
L 230.562508 177.114888 
L 241.757492 193.610982 
L 252.952476 192.111337 
L 264.147461 205.608142 
L 275.342445 208.607432 
L 286.537429 211.606722 
L 297.732414 216.105657 
L 308.927398 222.104237 
L 320.122382 223.603882 
L 331.317367 234.101396 
L 342.512351 232.601751 
L 353.707335 232.601751 
L 364.90232 232.601751 
L 376.097304 232.601751 
L 387.292288 234.101396 
L 398.487273 223.603882 
L 398.487273 219.104947 
L 398.487273 219.104947 
L 387.292288 229.602462 
L 376.097304 228.102817 
L 364.90232 228.102817 
L 353.707335 228.102817 
L 342.512351 228.102817 
L 331.317367 229.602462 
L 320.122382 219.104947 
L 308.927398 217.605302 
L 297.732414 211.606722 
L 286.537429 208.607432 
L 275.342445 202.608852 
L 264.147461 201.109207 
L 252.952476 189.112047 
L 241.757492 187.612402 
L 230.562508 172.615953 
L 219.367524 187.612402 
L 208.172539 160.618793 
L 196.977555 91.635124 
L 185.782571 82.637254 
L 174.587586 88.635834 
L 163.392602 79.637964 
L 152.197618 78.13832 
L 141.002633 79.637964 
L 129.807649 81.137609 
L 118.612665 81.137609 
L 107.41768 81.137609 
L 96.222696 82.637254 
L 85.027712 82.637254 
L 73.832727 82.637254 
z
" clip-path="url(#pe31036cd73)" style="fill: #ff7f0e"/>
   </g>
   <g id="PolyCollection_13">
    <path d="M 73.832727 82.637254 
L 73.832727 82.637254 
L 85.027712 82.637254 
L 96.222696 82.637254 
L 107.41768 81.137609 
L 118.612665 81.137609 
L 129.807649 81.137609 
L 141.002633 79.637964 
L 152.197618 78.13832 
L 163.392602 79.637964 
L 174.587586 88.635834 
L 185.782571 82.637254 
L 196.977555 91.635124 
L 208.172539 160.618793 
L 219.367524 187.612402 
L 230.562508 172.615953 
L 241.757492 187.612402 
L 252.952476 189.112047 
L 264.147461 201.109207 
L 275.342445 202.608852 
L 286.537429 208.607432 
L 297.732414 211.606722 
L 308.927398 217.605302 
L 320.122382 219.104947 
L 331.317367 229.602462 
L 342.512351 228.102817 
L 353.707335 228.102817 
L 364.90232 228.102817 
L 376.097304 228.102817 
L 387.292288 229.602462 
L 398.487273 219.104947 
L 398.487273 211.606722 
L 398.487273 211.606722 
L 387.292288 223.603882 
L 376.097304 222.104237 
L 364.90232 219.104947 
L 353.707335 220.604592 
L 342.512351 220.604592 
L 331.317367 223.603882 
L 320.122382 211.606722 
L 308.927398 211.606722 
L 297.732414 204.108497 
L 286.537429 202.608852 
L 275.342445 192.111337 
L 264.147461 189.112047 
L 252.952476 181.613822 
L 241.757492 172.615953 
L 230.562508 163.618083 
L 219.367524 154.620213 
L 208.172539 145.622343 
L 196.977555 82.637254 
L 185.782571 79.637964 
L 174.587586 81.137609 
L 163.392602 79.637964 
L 152.197618 78.13832 
L 141.002633 79.637964 
L 129.807649 81.137609 
L 118.612665 81.137609 
L 107.41768 81.137609 
L 96.222696 82.637254 
L 85.027712 82.637254 
L 73.832727 82.637254 
z
" clip-path="url(#pe31036cd73)" style="fill: #2ca02c"/>
   </g>
   <g id="PolyCollection_14">
    <path d="M 73.832727 82.637254 
L 73.832727 82.637254 
L 85.027712 82.637254 
L 96.222696 82.637254 
L 107.41768 81.137609 
L 118.612665 81.137609 
L 129.807649 81.137609 
L 141.002633 79.637964 
L 152.197618 78.13832 
L 163.392602 79.637964 
L 174.587586 81.137609 
L 185.782571 79.637964 
L 196.977555 82.637254 
L 208.172539 145.622343 
L 219.367524 154.620213 
L 230.562508 163.618083 
L 241.757492 172.615953 
L 252.952476 181.613822 
L 264.147461 189.112047 
L 275.342445 192.111337 
L 286.537429 202.608852 
L 297.732414 204.108497 
L 308.927398 211.606722 
L 320.122382 211.606722 
L 331.317367 223.603882 
L 342.512351 220.604592 
L 353.707335 220.604592 
L 364.90232 219.104947 
L 376.097304 222.104237 
L 387.292288 223.603882 
L 398.487273 211.606722 
L 398.487273 205.608142 
L 398.487273 205.608142 
L 387.292288 214.606012 
L 376.097304 214.606012 
L 364.90232 211.606722 
L 353.707335 213.106367 
L 342.512351 214.606012 
L 331.317367 214.606012 
L 320.122382 201.109207 
L 308.927398 201.109207 
L 297.732414 192.111337 
L 286.537429 189.112047 
L 275.342445 178.614533 
L 264.147461 171.116308 
L 252.952476 163.618083 
L 241.757492 142.623053 
L 230.562508 133.625183 
L 219.367524 111.130509 
L 208.172539 93.134769 
L 196.977555 81.137609 
L 185.782571 79.637964 
L 174.587586 81.137609 
L 163.392602 79.637964 
L 152.197618 78.13832 
L 141.002633 79.637964 
L 129.807649 81.137609 
L 118.612665 81.137609 
L 107.41768 81.137609 
L 96.222696 82.637254 
L 85.027712 82.637254 
L 73.832727 82.637254 
z
" clip-path="url(#pe31036cd73)" style="fill: #d62728"/>
   </g>
   <g id="PolyCollection_15">
    <path d="M 73.832727 82.637254 
L 73.832727 82.637254 
L 85.027712 82.637254 
L 96.222696 82.637254 
L 107.41768 81.137609 
L 118.612665 81.137609 
L 129.807649 81.137609 
L 141.002633 79.637964 
L 152.197618 78.13832 
L 163.392602 79.637964 
L 174.587586 81.137609 
L 185.782571 79.637964 
L 196.977555 81.137609 
L 208.172539 93.134769 
L 219.367524 111.130509 
L 230.562508 133.625183 
L 241.757492 142.623053 
L 252.952476 163.618083 
L 264.147461 171.116308 
L 275.342445 178.614533 
L 286.537429 189.112047 
L 297.732414 192.111337 
L 308.927398 201.109207 
L 320.122382 201.109207 
L 331.317367 214.606012 
L 342.512351 214.606012 
L 353.707335 213.106367 
L 364.90232 211.606722 
L 376.097304 214.606012 
L 387.292288 214.606012 
L 398.487273 205.608142 
L 398.487273 201.109207 
L 398.487273 201.109207 
L 387.292288 210.107077 
L 376.097304 210.107077 
L 364.90232 207.107787 
L 353.707335 208.607432 
L 342.512351 210.107077 
L 331.317367 210.107077 
L 320.122382 196.610272 
L 308.927398 196.610272 
L 297.732414 187.612402 
L 286.537429 184.613112 
L 275.342445 177.114888 
L 264.147461 168.117018 
L 252.952476 160.618793 
L 241.757492 139.623763 
L 230.562508 127.626604 
L 219.367524 105.131929 
L 208.172539 88.635834 
L 196.977555 81.137609 
L 185.782571 79.637964 
L 174.587586 81.137609 
L 163.392602 79.637964 
L 152.197618 78.13832 
L 141.002633 79.637964 
L 129.807649 81.137609 
L 118.612665 81.137609 
L 107.41768 81.137609 
L 96.222696 82.637254 
L 85.027712 82.637254 
L 73.832727 82.637254 
z
" clip-path="url(#pe31036cd73)" style="fill: #9467bd"/>
   </g>
   <g id="PolyCollection_16">
    <path d="M 73.832727 82.637254 
L 73.832727 82.637254 
L 85.027712 82.637254 
L 96.222696 82.637254 
L 107.41768 81.137609 
L 118.612665 81.137609 
L 129.807649 81.137609 
L 141.002633 79.637964 
L 152.197618 78.13832 
L 163.392602 79.637964 
L 174.587586 81.137609 
L 185.782571 79.637964 
L 196.977555 81.137609 
L 208.172539 88.635834 
L 219.367524 105.131929 
L 230.562508 127.626604 
L 241.757492 139.623763 
L 252.952476 160.618793 
L 264.147461 168.117018 
L 275.342445 177.114888 
L 286.537429 184.613112 
L 297.732414 187.612402 
L 308.927398 196.610272 
L 320.122382 196.610272 
L 331.317367 210.107077 
L 342.512351 210.107077 
L 353.707335 208.607432 
L 364.90232 207.107787 
L 376.097304 210.107077 
L 387.292288 210.107077 
L 398.487273 201.109207 
L 398.487273 196.610272 
L 398.487273 196.610272 
L 387.292288 205.608142 
L 376.097304 205.608142 
L 364.90232 202.608852 
L 353.707335 204.108497 
L 342.512351 205.608142 
L 331.317367 205.608142 
L 320.122382 192.111337 
L 308.927398 192.111337 
L 297.732414 183.113467 
L 286.537429 180.114178 
L 275.342445 172.615953 
L 264.147461 163.618083 
L 252.952476 156.119858 
L 241.757492 138.124118 
L 230.562508 115.629444 
L 219.367524 99.133349 
L 208.172539 81.137609 
L 196.977555 81.137609 
L 185.782571 79.637964 
L 174.587586 81.137609 
L 163.392602 79.637964 
L 152.197618 78.13832 
L 141.002633 79.637964 
L 129.807649 81.137609 
L 118.612665 81.137609 
L 107.41768 81.137609 
L 96.222696 82.637254 
L 85.027712 82.637254 
L 73.832727 82.637254 
z
" clip-path="url(#pe31036cd73)" style="fill: #8c564b"/>
   </g>
   <g id="PolyCollection_17">
    <path d="M 73.832727 82.637254 
L 73.832727 82.637254 
L 85.027712 82.637254 
L 96.222696 82.637254 
L 107.41768 81.137609 
L 118.612665 81.137609 
L 129.807649 81.137609 
L 141.002633 79.637964 
L 152.197618 78.13832 
L 163.392602 79.637964 
L 174.587586 81.137609 
L 185.782571 79.637964 
L 196.977555 81.137609 
L 208.172539 81.137609 
L 219.367524 99.133349 
L 230.562508 115.629444 
L 241.757492 138.124118 
L 252.952476 156.119858 
L 264.147461 163.618083 
L 275.342445 172.615953 
L 286.537429 180.114178 
L 297.732414 183.113467 
L 308.927398 192.111337 
L 320.122382 192.111337 
L 331.317367 205.608142 
L 342.512351 205.608142 
L 353.707335 204.108497 
L 364.90232 202.608852 
L 376.097304 205.608142 
L 387.292288 205.608142 
L 398.487273 196.610272 
L 398.487273 192.111337 
L 398.487273 192.111337 
L 387.292288 201.109207 
L 376.097304 201.109207 
L 364.90232 198.109917 
L 353.707335 199.609562 
L 342.512351 201.109207 
L 331.317367 201.109207 
L 320.122382 187.612402 
L 308.927398 187.612402 
L 297.732414 178.614533 
L 286.537429 175.615243 
L 275.342445 168.117018 
L 264.147461 159.119148 
L 252.952476 151.620923 
L 241.757492 133.625183 
L 230.562508 111.130509 
L 219.367524 94.634414 
L 208.172539 79.637964 
L 196.977555 81.137609 
L 185.782571 79.637964 
L 174.587586 81.137609 
L 163.392602 79.637964 
L 152.197618 78.13832 
L 141.002633 79.637964 
L 129.807649 81.137609 
L 118.612665 81.137609 
L 107.41768 81.137609 
L 96.222696 82.637254 
L 85.027712 82.637254 
L 73.832727 82.637254 
z
" clip-path="url(#pe31036cd73)" style="fill: #e377c2"/>
   </g>
   <g id="PolyCollection_18">
    <path d="M 73.832727 82.637254 
L 73.832727 82.637254 
L 85.027712 82.637254 
L 96.222696 82.637254 
L 107.41768 81.137609 
L 118.612665 81.137609 
L 129.807649 81.137609 
L 141.002633 79.637964 
L 152.197618 78.13832 
L 163.392602 79.637964 
L 174.587586 81.137609 
L 185.782571 79.637964 
L 196.977555 81.137609 
L 208.172539 79.637964 
L 219.367524 94.634414 
L 230.562508 111.130509 
L 241.757492 133.625183 
L 252.952476 151.620923 
L 264.147461 159.119148 
L 275.342445 168.117018 
L 286.537429 175.615243 
L 297.732414 178.614533 
L 308.927398 187.612402 
L 320.122382 187.612402 
L 331.317367 201.109207 
L 342.512351 201.109207 
L 353.707335 199.609562 
L 364.90232 198.109917 
L 376.097304 201.109207 
L 387.292288 201.109207 
L 398.487273 192.111337 
L 398.487273 187.612402 
L 398.487273 187.612402 
L 387.292288 196.610272 
L 376.097304 196.610272 
L 364.90232 193.610982 
L 353.707335 195.110627 
L 342.512351 196.610272 
L 331.317367 196.610272 
L 320.122382 183.113467 
L 308.927398 183.113467 
L 297.732414 174.115598 
L 286.537429 171.116308 
L 275.342445 163.618083 
L 264.147461 154.620213 
L 252.952476 147.121988 
L 241.757492 129.126249 
L 230.562508 106.631574 
L 219.367524 90.135479 
L 208.172539 79.637964 
L 196.977555 81.137609 
L 185.782571 79.637964 
L 174.587586 81.137609 
L 163.392602 79.637964 
L 152.197618 78.13832 
L 141.002633 79.637964 
L 129.807649 81.137609 
L 118.612665 81.137609 
L 107.41768 81.137609 
L 96.222696 82.637254 
L 85.027712 82.637254 
L 73.832727 82.637254 
z
" clip-path="url(#pe31036cd73)" style="fill: #7f7f7f"/>
   </g>
   <g id="PolyCollection_19">
    <path d="M 73.832727 82.637254 
L 73.832727 82.637254 
L 85.027712 82.637254 
L 96.222696 82.637254 
L 107.41768 81.137609 
L 118.612665 81.137609 
L 129.807649 81.137609 
L 141.002633 79.637964 
L 152.197618 78.13832 
L 163.392602 79.637964 
L 174.587586 81.137609 
L 185.782571 79.637964 
L 196.977555 81.137609 
L 208.172539 79.637964 
L 219.367524 90.135479 
L 230.562508 106.631574 
L 241.757492 129.126249 
L 252.952476 147.121988 
L 264.147461 154.620213 
L 275.342445 163.618083 
L 286.537429 171.116308 
L 297.732414 174.115598 
L 308.927398 183.113467 
L 320.122382 183.113467 
L 331.317367 196.610272 
L 342.512351 196.610272 
L 353.707335 195.110627 
L 364.90232 193.610982 
L 376.097304 196.610272 
L 387.292288 196.610272 
L 398.487273 187.612402 
L 398.487273 181.613822 
L 398.487273 181.613822 
L 387.292288 192.111337 
L 376.097304 192.111337 
L 364.90232 189.112047 
L 353.707335 190.611692 
L 342.512351 192.111337 
L 331.317367 190.611692 
L 320.122382 178.614533 
L 308.927398 180.114178 
L 297.732414 169.616663 
L 286.537429 163.618083 
L 275.342445 159.119148 
L 264.147461 150.121278 
L 252.952476 142.623053 
L 241.757492 124.627314 
L 230.562508 102.132639 
L 219.367524 88.635834 
L 208.172539 79.637964 
L 196.977555 81.137609 
L 185.782571 79.637964 
L 174.587586 81.137609 
L 163.392602 79.637964 
L 152.197618 78.13832 
L 141.002633 79.637964 
L 129.807649 81.137609 
L 118.612665 81.137609 
L 107.41768 81.137609 
L 96.222696 82.637254 
L 85.027712 82.637254 
L 73.832727 82.637254 
z
" clip-path="url(#pe31036cd73)" style="fill: #bcbd22"/>
   </g>
   <g id="PolyCollection_20">
    <path d="M 73.832727 82.637254 
L 73.832727 82.637254 
L 85.027712 82.637254 
L 96.222696 82.637254 
L 107.41768 81.137609 
L 118.612665 81.137609 
L 129.807649 81.137609 
L 141.002633 79.637964 
L 152.197618 78.13832 
L 163.392602 79.637964 
L 174.587586 81.137609 
L 185.782571 79.637964 
L 196.977555 81.137609 
L 208.172539 79.637964 
L 219.367524 88.635834 
L 230.562508 102.132639 
L 241.757492 124.627314 
L 252.952476 142.623053 
L 264.147461 150.121278 
L 275.342445 159.119148 
L 286.537429 163.618083 
L 297.732414 169.616663 
L 308.927398 180.114178 
L 320.122382 178.614533 
L 331.317367 190.611692 
L 342.512351 192.111337 
L 353.707335 190.611692 
L 364.90232 189.112047 
L 376.097304 192.111337 
L 387.292288 192.111337 
L 398.487273 181.613822 
L 398.487273 177.114888 
L 398.487273 177.114888 
L 387.292288 187.612402 
L 376.097304 186.112757 
L 364.90232 184.613112 
L 353.707335 186.112757 
L 342.512351 187.612402 
L 331.317367 186.112757 
L 320.122382 174.115598 
L 308.927398 175.615243 
L 297.732414 168.117018 
L 286.537429 160.618793 
L 275.342445 154.620213 
L 264.147461 145.622343 
L 252.952476 138.124118 
L 241.757492 120.128379 
L 230.562508 97.633704 
L 219.367524 87.136189 
L 208.172539 79.637964 
L 196.977555 81.137609 
L 185.782571 79.637964 
L 174.587586 81.137609 
L 163.392602 79.637964 
L 152.197618 78.13832 
L 141.002633 79.637964 
L 129.807649 81.137609 
L 118.612665 81.137609 
L 107.41768 81.137609 
L 96.222696 82.637254 
L 85.027712 82.637254 
L 73.832727 82.637254 
z
" clip-path="url(#pe31036cd73)" style="fill: #17becf"/>
   </g>
   <g id="PolyCollection_21">
    <path d="M 73.832727 82.637254 
L 73.832727 82.637254 
L 85.027712 82.637254 
L 96.222696 82.637254 
L 107.41768 81.137609 
L 118.612665 81.137609 
L 129.807649 81.137609 
L 141.002633 79.637964 
L 152.197618 78.13832 
L 163.392602 79.637964 
L 174.587586 81.137609 
L 185.782571 79.637964 
L 196.977555 81.137609 
L 208.172539 79.637964 
L 219.367524 87.136189 
L 230.562508 97.633704 
L 241.757492 120.128379 
L 252.952476 138.124118 
L 264.147461 145.622343 
L 275.342445 154.620213 
L 286.537429 160.618793 
L 297.732414 168.117018 
L 308.927398 175.615243 
L 320.122382 174.115598 
L 331.317367 186.112757 
L 342.512351 187.612402 
L 353.707335 186.112757 
L 364.90232 184.613112 
L 376.097304 186.112757 
L 387.292288 187.612402 
L 398.487273 177.114888 
L 398.487273 174.115598 
L 398.487273 174.115598 
L 387.292288 183.113467 
L 376.097304 181.613822 
L 364.90232 180.114178 
L 353.707335 181.613822 
L 342.512351 183.113467 
L 331.317367 181.613822 
L 320.122382 169.616663 
L 308.927398 171.116308 
L 297.732414 163.618083 
L 286.537429 156.119858 
L 275.342445 150.121278 
L 264.147461 141.123408 
L 252.952476 133.625183 
L 241.757492 115.629444 
L 230.562508 93.134769 
L 219.367524 84.136899 
L 208.172539 79.637964 
L 196.977555 81.137609 
L 185.782571 79.637964 
L 174.587586 81.137609 
L 163.392602 79.637964 
L 152.197618 78.13832 
L 141.002633 79.637964 
L 129.807649 81.137609 
L 118.612665 81.137609 
L 107.41768 81.137609 
L 96.222696 82.637254 
L 85.027712 82.637254 
L 73.832727 82.637254 
z
" clip-path="url(#pe31036cd73)" style="fill: #1f77b4"/>
   </g>
   <g id="PolyCollection_22">
    <path d="M 73.832727 82.637254 
L 73.832727 82.637254 
L 85.027712 82.637254 
L 96.222696 82.637254 
L 107.41768 81.137609 
L 118.612665 81.137609 
L 129.807649 81.137609 
L 141.002633 79.637964 
L 152.197618 78.13832 
L 163.392602 79.637964 
L 174.587586 81.137609 
L 185.782571 79.637964 
L 196.977555 81.137609 
L 208.172539 79.637964 
L 219.367524 84.136899 
L 230.562508 93.134769 
L 241.757492 115.629444 
L 252.952476 133.625183 
L 264.147461 141.123408 
L 275.342445 150.121278 
L 286.537429 156.119858 
L 297.732414 163.618083 
L 308.927398 171.116308 
L 320.122382 169.616663 
L 331.317367 181.613822 
L 342.512351 183.113467 
L 353.707335 181.613822 
L 364.90232 180.114178 
L 376.097304 181.613822 
L 387.292288 183.113467 
L 398.487273 174.115598 
L 398.487273 166.617373 
L 398.487273 166.617373 
L 387.292288 172.615953 
L 376.097304 172.615953 
L 364.90232 172.615953 
L 353.707335 171.116308 
L 342.512351 177.114888 
L 331.317367 174.115598 
L 320.122382 160.618793 
L 308.927398 160.618793 
L 297.732414 150.121278 
L 286.537429 144.122698 
L 275.342445 138.124118 
L 264.147461 130.625893 
L 252.952476 114.129799 
L 241.757492 106.631574 
L 230.562508 82.637254 
L 219.367524 79.637964 
L 208.172539 79.637964 
L 196.977555 81.137609 
L 185.782571 79.637964 
L 174.587586 81.137609 
L 163.392602 79.637964 
L 152.197618 78.13832 
L 141.002633 79.637964 
L 129.807649 81.137609 
L 118.612665 81.137609 
L 107.41768 81.137609 
L 96.222696 82.637254 
L 85.027712 82.637254 
L 73.832727 82.637254 
z
" clip-path="url(#pe31036cd73)" style="fill: #ff7f0e"/>
   </g>
   <g id="PolyCollection_23">
    <path d="M 73.832727 82.637254 
L 73.832727 82.637254 
L 85.027712 82.637254 
L 96.222696 82.637254 
L 107.41768 81.137609 
L 118.612665 81.137609 
L 129.807649 81.137609 
L 141.002633 79.637964 
L 152.197618 78.13832 
L 163.392602 79.637964 
L 174.587586 81.137609 
L 185.782571 79.637964 
L 196.977555 81.137609 
L 208.172539 79.637964 
L 219.367524 79.637964 
L 230.562508 82.637254 
L 241.757492 106.631574 
L 252.952476 114.129799 
L 264.147461 130.625893 
L 275.342445 138.124118 
L 286.537429 144.122698 
L 297.732414 150.121278 
L 308.927398 160.618793 
L 320.122382 160.618793 
L 331.317367 174.115598 
L 342.512351 177.114888 
L 353.707335 171.116308 
L 364.90232 172.615953 
L 376.097304 172.615953 
L 387.292288 172.615953 
L 398.487273 166.617373 
L 398.487273 162.118438 
L 398.487273 162.118438 
L 387.292288 168.117018 
L 376.097304 168.117018 
L 364.90232 168.117018 
L 353.707335 166.617373 
L 342.512351 172.615953 
L 331.317367 168.117018 
L 320.122382 156.119858 
L 308.927398 156.119858 
L 297.732414 145.622343 
L 286.537429 139.623763 
L 275.342445 133.625183 
L 264.147461 126.126959 
L 252.952476 106.631574 
L 241.757492 103.632284 
L 230.562508 79.637964 
L 219.367524 79.637964 
L 208.172539 79.637964 
L 196.977555 81.137609 
L 185.782571 79.637964 
L 174.587586 81.137609 
L 163.392602 79.637964 
L 152.197618 78.13832 
L 141.002633 79.637964 
L 129.807649 81.137609 
L 118.612665 81.137609 
L 107.41768 81.137609 
L 96.222696 82.637254 
L 85.027712 82.637254 
L 73.832727 82.637254 
z
" clip-path="url(#pe31036cd73)" style="fill: #2ca02c"/>
   </g>
   <g id="PolyCollection_24">
    <path d="M 73.832727 82.637254 
L 73.832727 82.637254 
L 85.027712 82.637254 
L 96.222696 82.637254 
L 107.41768 81.137609 
L 118.612665 81.137609 
L 129.807649 81.137609 
L 141.002633 79.637964 
L 152.197618 78.13832 
L 163.392602 79.637964 
L 174.587586 81.137609 
L 185.782571 79.637964 
L 196.977555 81.137609 
L 208.172539 79.637964 
L 219.367524 79.637964 
L 230.562508 79.637964 
L 241.757492 103.632284 
L 252.952476 106.631574 
L 264.147461 126.126959 
L 275.342445 133.625183 
L 286.537429 139.623763 
L 297.732414 145.622343 
L 308.927398 156.119858 
L 320.122382 156.119858 
L 331.317367 168.117018 
L 342.512351 172.615953 
L 353.707335 166.617373 
L 364.90232 168.117018 
L 376.097304 168.117018 
L 387.292288 168.117018 
L 398.487273 162.118438 
L 398.487273 156.119858 
L 398.487273 156.119858 
L 387.292288 163.618083 
L 376.097304 157.619503 
L 364.90232 160.618793 
L 353.707335 160.618793 
L 342.512351 165.117728 
L 331.317367 162.118438 
L 320.122382 150.121278 
L 308.927398 148.621633 
L 297.732414 138.124118 
L 286.537429 132.125538 
L 275.342445 124.627314 
L 264.147461 118.628734 
L 252.952476 97.633704 
L 241.757492 82.637254 
L 230.562508 78.13832 
L 219.367524 79.637964 
L 208.172539 79.637964 
L 196.977555 81.137609 
L 185.782571 79.637964 
L 174.587586 81.137609 
L 163.392602 79.637964 
L 152.197618 78.13832 
L 141.002633 79.637964 
L 129.807649 81.137609 
L 118.612665 81.137609 
L 107.41768 81.137609 
L 96.222696 82.637254 
L 85.027712 82.637254 
L 73.832727 82.637254 
z
" clip-path="url(#pe31036cd73)" style="fill: #d62728"/>
   </g>
   <g id="PolyCollection_25">
    <path d="M 73.832727 82.637254 
L 73.832727 82.637254 
L 85.027712 82.637254 
L 96.222696 82.637254 
L 107.41768 81.137609 
L 118.612665 81.137609 
L 129.807649 81.137609 
L 141.002633 79.637964 
L 152.197618 78.13832 
L 163.392602 79.637964 
L 174.587586 81.137609 
L 185.782571 79.637964 
L 196.977555 81.137609 
L 208.172539 79.637964 
L 219.367524 79.637964 
L 230.562508 78.13832 
L 241.757492 82.637254 
L 252.952476 97.633704 
L 264.147461 118.628734 
L 275.342445 124.627314 
L 286.537429 132.125538 
L 297.732414 138.124118 
L 308.927398 148.621633 
L 320.122382 150.121278 
L 331.317367 162.118438 
L 342.512351 165.117728 
L 353.707335 160.618793 
L 364.90232 160.618793 
L 376.097304 157.619503 
L 387.292288 163.618083 
L 398.487273 156.119858 
L 398.487273 151.620923 
L 398.487273 151.620923 
L 387.292288 159.119148 
L 376.097304 153.120568 
L 364.90232 156.119858 
L 353.707335 156.119858 
L 342.512351 160.618793 
L 331.317367 157.619503 
L 320.122382 145.622343 
L 308.927398 144.122698 
L 297.732414 133.625183 
L 286.537429 127.626604 
L 275.342445 120.128379 
L 264.147461 114.129799 
L 252.952476 93.134769 
L 241.757492 76.638675 
L 230.562508 76.638675 
L 219.367524 79.637964 
L 208.172539 79.637964 
L 196.977555 81.137609 
L 185.782571 79.637964 
L 174.587586 81.137609 
L 163.392602 79.637964 
L 152.197618 78.13832 
L 141.002633 79.637964 
L 129.807649 81.137609 
L 118.612665 81.137609 
L 107.41768 81.137609 
L 96.222696 82.637254 
L 85.027712 82.637254 
L 73.832727 82.637254 
z
" clip-path="url(#pe31036cd73)" style="fill: #9467bd"/>
   </g>
   <g id="PolyCollection_26">
    <path d="M 73.832727 82.637254 
L 73.832727 82.637254 
L 85.027712 82.637254 
L 96.222696 82.637254 
L 107.41768 81.137609 
L 118.612665 81.137609 
L 129.807649 81.137609 
L 141.002633 79.637964 
L 152.197618 78.13832 
L 163.392602 79.637964 
L 174.587586 81.137609 
L 185.782571 79.637964 
L 196.977555 81.137609 
L 208.172539 79.637964 
L 219.367524 79.637964 
L 230.562508 76.638675 
L 241.757492 76.638675 
L 252.952476 93.134769 
L 264.147461 114.129799 
L 275.342445 120.128379 
L 286.537429 127.626604 
L 297.732414 133.625183 
L 308.927398 144.122698 
L 320.122382 145.622343 
L 331.317367 157.619503 
L 342.512351 160.618793 
L 353.707335 156.119858 
L 364.90232 156.119858 
L 376.097304 153.120568 
L 387.292288 159.119148 
L 398.487273 151.620923 
L 398.487273 148.621633 
L 398.487273 148.621633 
L 387.292288 154.620213 
L 376.097304 148.621633 
L 364.90232 151.620923 
L 353.707335 151.620923 
L 342.512351 156.119858 
L 331.317367 153.120568 
L 320.122382 141.123408 
L 308.927398 139.623763 
L 297.732414 129.126249 
L 286.537429 123.127669 
L 275.342445 115.629444 
L 264.147461 109.630864 
L 252.952476 88.635834 
L 241.757492 72.13974 
L 230.562508 75.13903 
L 219.367524 79.637964 
L 208.172539 79.637964 
L 196.977555 81.137609 
L 185.782571 79.637964 
L 174.587586 81.137609 
L 163.392602 79.637964 
L 152.197618 78.13832 
L 141.002633 79.637964 
L 129.807649 81.137609 
L 118.612665 81.137609 
L 107.41768 81.137609 
L 96.222696 82.637254 
L 85.027712 82.637254 
L 73.832727 82.637254 
z
" clip-path="url(#pe31036cd73)" style="fill: #8c564b"/>
   </g>
   <g id="PolyCollection_27">
    <path d="M 73.832727 82.637254 
L 73.832727 82.637254 
L 85.027712 82.637254 
L 96.222696 82.637254 
L 107.41768 81.137609 
L 118.612665 81.137609 
L 129.807649 81.137609 
L 141.002633 79.637964 
L 152.197618 78.13832 
L 163.392602 79.637964 
L 174.587586 81.137609 
L 185.782571 79.637964 
L 196.977555 81.137609 
L 208.172539 79.637964 
L 219.367524 79.637964 
L 230.562508 75.13903 
L 241.757492 72.13974 
L 252.952476 88.635834 
L 264.147461 109.630864 
L 275.342445 115.629444 
L 286.537429 123.127669 
L 297.732414 129.126249 
L 308.927398 139.623763 
L 320.122382 141.123408 
L 331.317367 153.120568 
L 342.512351 156.119858 
L 353.707335 151.620923 
L 364.90232 151.620923 
L 376.097304 148.621633 
L 387.292288 154.620213 
L 398.487273 148.621633 
L 398.487273 145.622343 
L 398.487273 145.622343 
L 387.292288 150.121278 
L 376.097304 144.122698 
L 364.90232 147.121988 
L 353.707335 147.121988 
L 342.512351 151.620923 
L 331.317367 148.621633 
L 320.122382 136.624473 
L 308.927398 133.625183 
L 297.732414 124.627314 
L 286.537429 118.628734 
L 275.342445 111.130509 
L 264.147461 103.632284 
L 252.952476 78.13832 
L 241.757492 70.640095 
L 230.562508 75.13903 
L 219.367524 79.637964 
L 208.172539 79.637964 
L 196.977555 81.137609 
L 185.782571 79.637964 
L 174.587586 81.137609 
L 163.392602 79.637964 
L 152.197618 78.13832 
L 141.002633 79.637964 
L 129.807649 81.137609 
L 118.612665 81.137609 
L 107.41768 81.137609 
L 96.222696 82.637254 
L 85.027712 82.637254 
L 73.832727 82.637254 
z
" clip-path="url(#pe31036cd73)" style="fill: #e377c2"/>
   </g>
   <g id="PolyCollection_28">
    <path d="M 73.832727 82.637254 
L 73.832727 82.637254 
L 85.027712 82.637254 
L 96.222696 82.637254 
L 107.41768 81.137609 
L 118.612665 81.137609 
L 129.807649 81.137609 
L 141.002633 79.637964 
L 152.197618 78.13832 
L 163.392602 79.637964 
L 174.587586 81.137609 
L 185.782571 79.637964 
L 196.977555 81.137609 
L 208.172539 79.637964 
L 219.367524 79.637964 
L 230.562508 75.13903 
L 241.757492 70.640095 
L 252.952476 78.13832 
L 264.147461 103.632284 
L 275.342445 111.130509 
L 286.537429 118.628734 
L 297.732414 124.627314 
L 308.927398 133.625183 
L 320.122382 136.624473 
L 331.317367 148.621633 
L 342.512351 151.620923 
L 353.707335 147.121988 
L 364.90232 147.121988 
L 376.097304 144.122698 
L 387.292288 150.121278 
L 398.487273 145.622343 
L 398.487273 141.123408 
L 398.487273 141.123408 
L 387.292288 145.622343 
L 376.097304 139.623763 
L 364.90232 142.623053 
L 353.707335 142.623053 
L 342.512351 147.121988 
L 331.317367 144.122698 
L 320.122382 132.125538 
L 308.927398 129.126249 
L 297.732414 120.128379 
L 286.537429 111.130509 
L 275.342445 105.131929 
L 264.147461 94.634414 
L 252.952476 76.638675 
L 241.757492 70.640095 
L 230.562508 75.13903 
L 219.367524 79.637964 
L 208.172539 79.637964 
L 196.977555 81.137609 
L 185.782571 79.637964 
L 174.587586 81.137609 
L 163.392602 79.637964 
L 152.197618 78.13832 
L 141.002633 79.637964 
L 129.807649 81.137609 
L 118.612665 81.137609 
L 107.41768 81.137609 
L 96.222696 82.637254 
L 85.027712 82.637254 
L 73.832727 82.637254 
z
" clip-path="url(#pe31036cd73)" style="fill: #7f7f7f"/>
   </g>
   <g id="PolyCollection_29">
    <path d="M 73.832727 82.637254 
L 73.832727 82.637254 
L 85.027712 82.637254 
L 96.222696 82.637254 
L 107.41768 81.137609 
L 118.612665 81.137609 
L 129.807649 81.137609 
L 141.002633 79.637964 
L 152.197618 78.13832 
L 163.392602 79.637964 
L 174.587586 81.137609 
L 185.782571 79.637964 
L 196.977555 81.137609 
L 208.172539 79.637964 
L 219.367524 79.637964 
L 230.562508 75.13903 
L 241.757492 70.640095 
L 252.952476 76.638675 
L 264.147461 94.634414 
L 275.342445 105.131929 
L 286.537429 111.130509 
L 297.732414 120.128379 
L 308.927398 129.126249 
L 320.122382 132.125538 
L 331.317367 144.122698 
L 342.512351 147.121988 
L 353.707335 142.623053 
L 364.90232 142.623053 
L 376.097304 139.623763 
L 387.292288 145.622343 
L 398.487273 141.123408 
L 398.487273 136.624473 
L 398.487273 136.624473 
L 387.292288 141.123408 
L 376.097304 135.124828 
L 364.90232 138.124118 
L 353.707335 136.624473 
L 342.512351 142.623053 
L 331.317367 139.623763 
L 320.122382 127.626604 
L 308.927398 124.627314 
L 297.732414 114.129799 
L 286.537429 105.131929 
L 275.342445 99.133349 
L 264.147461 90.135479 
L 252.952476 75.13903 
L 241.757492 70.640095 
L 230.562508 75.13903 
L 219.367524 79.637964 
L 208.172539 79.637964 
L 196.977555 81.137609 
L 185.782571 79.637964 
L 174.587586 81.137609 
L 163.392602 79.637964 
L 152.197618 78.13832 
L 141.002633 79.637964 
L 129.807649 81.137609 
L 118.612665 81.137609 
L 107.41768 81.137609 
L 96.222696 82.637254 
L 85.027712 82.637254 
L 73.832727 82.637254 
z
" clip-path="url(#pe31036cd73)" style="fill: #bcbd22"/>
   </g>
   <g id="PolyCollection_30">
    <path d="M 73.832727 82.637254 
L 73.832727 82.637254 
L 85.027712 82.637254 
L 96.222696 82.637254 
L 107.41768 81.137609 
L 118.612665 81.137609 
L 129.807649 81.137609 
L 141.002633 79.637964 
L 152.197618 78.13832 
L 163.392602 79.637964 
L 174.587586 81.137609 
L 185.782571 79.637964 
L 196.977555 81.137609 
L 208.172539 79.637964 
L 219.367524 79.637964 
L 230.562508 75.13903 
L 241.757492 70.640095 
L 252.952476 75.13903 
L 264.147461 90.135479 
L 275.342445 99.133349 
L 286.537429 105.131929 
L 297.732414 114.129799 
L 308.927398 124.627314 
L 320.122382 127.626604 
L 331.317367 139.623763 
L 342.512351 142.623053 
L 353.707335 136.624473 
L 364.90232 138.124118 
L 376.097304 135.124828 
L 387.292288 141.123408 
L 398.487273 136.624473 
L 398.487273 132.125538 
L 398.487273 132.125538 
L 387.292288 133.625183 
L 376.097304 129.126249 
L 364.90232 132.125538 
L 353.707335 129.126249 
L 342.512351 138.124118 
L 331.317367 132.125538 
L 320.122382 120.128379 
L 308.927398 117.129089 
L 297.732414 106.631574 
L 286.537429 99.133349 
L 275.342445 85.636544 
L 264.147461 78.13832 
L 252.952476 70.640095 
L 241.757492 70.640095 
L 230.562508 75.13903 
L 219.367524 79.637964 
L 208.172539 79.637964 
L 196.977555 81.137609 
L 185.782571 79.637964 
L 174.587586 81.137609 
L 163.392602 79.637964 
L 152.197618 78.13832 
L 141.002633 79.637964 
L 129.807649 81.137609 
L 118.612665 81.137609 
L 107.41768 81.137609 
L 96.222696 82.637254 
L 85.027712 82.637254 
L 73.832727 82.637254 
z
" clip-path="url(#pe31036cd73)" style="fill: #17becf"/>
   </g>
   <g id="PolyCollection_31">
    <path d="M 73.832727 82.637254 
L 73.832727 82.637254 
L 85.027712 82.637254 
L 96.222696 82.637254 
L 107.41768 81.137609 
L 118.612665 81.137609 
L 129.807649 81.137609 
L 141.002633 79.637964 
L 152.197618 78.13832 
L 163.392602 79.637964 
L 174.587586 81.137609 
L 185.782571 79.637964 
L 196.977555 81.137609 
L 208.172539 79.637964 
L 219.367524 79.637964 
L 230.562508 75.13903 
L 241.757492 70.640095 
L 252.952476 70.640095 
L 264.147461 78.13832 
L 275.342445 85.636544 
L 286.537429 99.133349 
L 297.732414 106.631574 
L 308.927398 117.129089 
L 320.122382 120.128379 
L 331.317367 132.125538 
L 342.512351 138.124118 
L 353.707335 129.126249 
L 364.90232 132.125538 
L 376.097304 129.126249 
L 387.292288 133.625183 
L 398.487273 132.125538 
L 398.487273 127.626604 
L 398.487273 127.626604 
L 387.292288 129.126249 
L 376.097304 124.627314 
L 364.90232 127.626604 
L 353.707335 124.627314 
L 342.512351 133.625183 
L 331.317367 127.626604 
L 320.122382 115.629444 
L 308.927398 111.130509 
L 297.732414 100.632994 
L 286.537429 93.134769 
L 275.342445 79.637964 
L 264.147461 75.13903 
L 252.952476 70.640095 
L 241.757492 70.640095 
L 230.562508 75.13903 
L 219.367524 79.637964 
L 208.172539 79.637964 
L 196.977555 81.137609 
L 185.782571 79.637964 
L 174.587586 81.137609 
L 163.392602 79.637964 
L 152.197618 78.13832 
L 141.002633 79.637964 
L 129.807649 81.137609 
L 118.612665 81.137609 
L 107.41768 81.137609 
L 96.222696 82.637254 
L 85.027712 82.637254 
L 73.832727 82.637254 
z
" clip-path="url(#pe31036cd73)" style="fill: #1f77b4"/>
   </g>
   <g id="PolyCollection_32">
    <path d="M 73.832727 82.637254 
L 73.832727 82.637254 
L 85.027712 82.637254 
L 96.222696 82.637254 
L 107.41768 81.137609 
L 118.612665 81.137609 
L 129.807649 81.137609 
L 141.002633 79.637964 
L 152.197618 78.13832 
L 163.392602 79.637964 
L 174.587586 81.137609 
L 185.782571 79.637964 
L 196.977555 81.137609 
L 208.172539 79.637964 
L 219.367524 79.637964 
L 230.562508 75.13903 
L 241.757492 70.640095 
L 252.952476 70.640095 
L 264.147461 75.13903 
L 275.342445 79.637964 
L 286.537429 93.134769 
L 297.732414 100.632994 
L 308.927398 111.130509 
L 320.122382 115.629444 
L 331.317367 127.626604 
L 342.512351 133.625183 
L 353.707335 124.627314 
L 364.90232 127.626604 
L 376.097304 124.627314 
L 387.292288 129.126249 
L 398.487273 127.626604 
L 398.487273 123.127669 
L 398.487273 123.127669 
L 387.292288 124.627314 
L 376.097304 120.128379 
L 364.90232 123.127669 
L 353.707335 120.128379 
L 342.512351 129.126249 
L 331.317367 123.127669 
L 320.122382 111.130509 
L 308.927398 106.631574 
L 297.732414 96.134059 
L 286.537429 88.635834 
L 275.342445 73.639385 
L 264.147461 73.639385 
L 252.952476 70.640095 
L 241.757492 70.640095 
L 230.562508 75.13903 
L 219.367524 79.637964 
L 208.172539 79.637964 
L 196.977555 81.137609 
L 185.782571 79.637964 
L 174.587586 81.137609 
L 163.392602 79.637964 
L 152.197618 78.13832 
L 141.002633 79.637964 
L 129.807649 81.137609 
L 118.612665 81.137609 
L 107.41768 81.137609 
L 96.222696 82.637254 
L 85.027712 82.637254 
L 73.832727 82.637254 
z
" clip-path="url(#pe31036cd73)" style="fill: #ff7f0e"/>
   </g>
   <g id="PolyCollection_33">
    <path d="M 73.832727 82.637254 
L 73.832727 82.637254 
L 85.027712 82.637254 
L 96.222696 82.637254 
L 107.41768 81.137609 
L 118.612665 81.137609 
L 129.807649 81.137609 
L 141.002633 79.637964 
L 152.197618 78.13832 
L 163.392602 79.637964 
L 174.587586 81.137609 
L 185.782571 79.637964 
L 196.977555 81.137609 
L 208.172539 79.637964 
L 219.367524 79.637964 
L 230.562508 75.13903 
L 241.757492 70.640095 
L 252.952476 70.640095 
L 264.147461 73.639385 
L 275.342445 73.639385 
L 286.537429 88.635834 
L 297.732414 96.134059 
L 308.927398 106.631574 
L 320.122382 111.130509 
L 331.317367 123.127669 
L 342.512351 129.126249 
L 353.707335 120.128379 
L 364.90232 123.127669 
L 376.097304 120.128379 
L 387.292288 124.627314 
L 398.487273 123.127669 
L 398.487273 118.628734 
L 398.487273 118.628734 
L 387.292288 120.128379 
L 376.097304 115.629444 
L 364.90232 118.628734 
L 353.707335 115.629444 
L 342.512351 124.627314 
L 331.317367 118.628734 
L 320.122382 106.631574 
L 308.927398 102.132639 
L 297.732414 91.635124 
L 286.537429 82.637254 
L 275.342445 69.14045 
L 264.147461 72.13974 
L 252.952476 70.640095 
L 241.757492 70.640095 
L 230.562508 75.13903 
L 219.367524 79.637964 
L 208.172539 79.637964 
L 196.977555 81.137609 
L 185.782571 79.637964 
L 174.587586 81.137609 
L 163.392602 79.637964 
L 152.197618 78.13832 
L 141.002633 79.637964 
L 129.807649 81.137609 
L 118.612665 81.137609 
L 107.41768 81.137609 
L 96.222696 82.637254 
L 85.027712 82.637254 
L 73.832727 82.637254 
z
" clip-path="url(#pe31036cd73)" style="fill: #2ca02c"/>
   </g>
   <g id="PolyCollection_34">
    <path d="M 73.832727 82.637254 
L 73.832727 82.637254 
L 85.027712 82.637254 
L 96.222696 82.637254 
L 107.41768 81.137609 
L 118.612665 81.137609 
L 129.807649 81.137609 
L 141.002633 79.637964 
L 152.197618 78.13832 
L 163.392602 79.637964 
L 174.587586 81.137609 
L 185.782571 79.637964 
L 196.977555 81.137609 
L 208.172539 79.637964 
L 219.367524 79.637964 
L 230.562508 75.13903 
L 241.757492 70.640095 
L 252.952476 70.640095 
L 264.147461 72.13974 
L 275.342445 69.14045 
L 286.537429 82.637254 
L 297.732414 91.635124 
L 308.927398 102.132639 
L 320.122382 106.631574 
L 331.317367 118.628734 
L 342.512351 124.627314 
L 353.707335 115.629444 
L 364.90232 118.628734 
L 376.097304 115.629444 
L 387.292288 120.128379 
L 398.487273 118.628734 
L 398.487273 114.129799 
L 398.487273 114.129799 
L 387.292288 115.629444 
L 376.097304 111.130509 
L 364.90232 114.129799 
L 353.707335 114.129799 
L 342.512351 118.628734 
L 331.317367 114.129799 
L 320.122382 102.132639 
L 308.927398 97.633704 
L 297.732414 87.136189 
L 286.537429 78.13832 
L 275.342445 66.14116 
L 264.147461 69.14045 
L 252.952476 70.640095 
L 241.757492 70.640095 
L 230.562508 75.13903 
L 219.367524 79.637964 
L 208.172539 79.637964 
L 196.977555 81.137609 
L 185.782571 79.637964 
L 174.587586 81.137609 
L 163.392602 79.637964 
L 152.197618 78.13832 
L 141.002633 79.637964 
L 129.807649 81.137609 
L 118.612665 81.137609 
L 107.41768 81.137609 
L 96.222696 82.637254 
L 85.027712 82.637254 
L 73.832727 82.637254 
z
" clip-path="url(#pe31036cd73)" style="fill: #d62728"/>
   </g>
   <g id="PolyCollection_35">
    <path d="M 73.832727 82.637254 
L 73.832727 82.637254 
L 85.027712 82.637254 
L 96.222696 82.637254 
L 107.41768 81.137609 
L 118.612665 81.137609 
L 129.807649 81.137609 
L 141.002633 79.637964 
L 152.197618 78.13832 
L 163.392602 79.637964 
L 174.587586 81.137609 
L 185.782571 79.637964 
L 196.977555 81.137609 
L 208.172539 79.637964 
L 219.367524 79.637964 
L 230.562508 75.13903 
L 241.757492 70.640095 
L 252.952476 70.640095 
L 264.147461 69.14045 
L 275.342445 66.14116 
L 286.537429 78.13832 
L 297.732414 87.136189 
L 308.927398 97.633704 
L 320.122382 102.132639 
L 331.317367 114.129799 
L 342.512351 118.628734 
L 353.707335 114.129799 
L 364.90232 114.129799 
L 376.097304 111.130509 
L 387.292288 115.629444 
L 398.487273 114.129799 
L 398.487273 111.130509 
L 398.487273 111.130509 
L 387.292288 108.131219 
L 376.097304 105.131929 
L 364.90232 108.131219 
L 353.707335 108.131219 
L 342.512351 111.130509 
L 331.317367 106.631574 
L 320.122382 93.134769 
L 308.927398 88.635834 
L 297.732414 79.637964 
L 286.537429 64.641515 
L 275.342445 64.641515 
L 264.147461 69.14045 
L 252.952476 70.640095 
L 241.757492 70.640095 
L 230.562508 75.13903 
L 219.367524 79.637964 
L 208.172539 79.637964 
L 196.977555 81.137609 
L 185.782571 79.637964 
L 174.587586 81.137609 
L 163.392602 79.637964 
L 152.197618 78.13832 
L 141.002633 79.637964 
L 129.807649 81.137609 
L 118.612665 81.137609 
L 107.41768 81.137609 
L 96.222696 82.637254 
L 85.027712 82.637254 
L 73.832727 82.637254 
z
" clip-path="url(#pe31036cd73)" style="fill: #9467bd"/>
   </g>
   <g id="PolyCollection_36">
    <path d="M 73.832727 82.637254 
L 73.832727 82.637254 
L 85.027712 82.637254 
L 96.222696 82.637254 
L 107.41768 81.137609 
L 118.612665 81.137609 
L 129.807649 81.137609 
L 141.002633 79.637964 
L 152.197618 78.13832 
L 163.392602 79.637964 
L 174.587586 81.137609 
L 185.782571 79.637964 
L 196.977555 81.137609 
L 208.172539 79.637964 
L 219.367524 79.637964 
L 230.562508 75.13903 
L 241.757492 70.640095 
L 252.952476 70.640095 
L 264.147461 69.14045 
L 275.342445 64.641515 
L 286.537429 64.641515 
L 297.732414 79.637964 
L 308.927398 88.635834 
L 320.122382 93.134769 
L 331.317367 106.631574 
L 342.512351 111.130509 
L 353.707335 108.131219 
L 364.90232 108.131219 
L 376.097304 105.131929 
L 387.292288 108.131219 
L 398.487273 111.130509 
L 398.487273 106.631574 
L 398.487273 106.631574 
L 387.292288 103.632284 
L 376.097304 100.632994 
L 364.90232 103.632284 
L 353.707335 103.632284 
L 342.512351 106.631574 
L 331.317367 102.132639 
L 320.122382 88.635834 
L 308.927398 84.136899 
L 297.732414 75.13903 
L 286.537429 61.642225 
L 275.342445 64.641515 
L 264.147461 69.14045 
L 252.952476 70.640095 
L 241.757492 70.640095 
L 230.562508 75.13903 
L 219.367524 79.637964 
L 208.172539 79.637964 
L 196.977555 81.137609 
L 185.782571 79.637964 
L 174.587586 81.137609 
L 163.392602 79.637964 
L 152.197618 78.13832 
L 141.002633 79.637964 
L 129.807649 81.137609 
L 118.612665 81.137609 
L 107.41768 81.137609 
L 96.222696 82.637254 
L 85.027712 82.637254 
L 73.832727 82.637254 
z
" clip-path="url(#pe31036cd73)" style="fill: #8c564b"/>
   </g>
   <g id="PolyCollection_37">
    <path d="M 73.832727 82.637254 
L 73.832727 82.637254 
L 85.027712 82.637254 
L 96.222696 82.637254 
L 107.41768 81.137609 
L 118.612665 81.137609 
L 129.807649 81.137609 
L 141.002633 79.637964 
L 152.197618 78.13832 
L 163.392602 79.637964 
L 174.587586 81.137609 
L 185.782571 79.637964 
L 196.977555 81.137609 
L 208.172539 79.637964 
L 219.367524 79.637964 
L 230.562508 75.13903 
L 241.757492 70.640095 
L 252.952476 70.640095 
L 264.147461 69.14045 
L 275.342445 64.641515 
L 286.537429 61.642225 
L 297.732414 75.13903 
L 308.927398 84.136899 
L 320.122382 88.635834 
L 331.317367 102.132639 
L 342.512351 106.631574 
L 353.707335 103.632284 
L 364.90232 103.632284 
L 376.097304 100.632994 
L 387.292288 103.632284 
L 398.487273 106.631574 
L 398.487273 102.132639 
L 398.487273 102.132639 
L 387.292288 99.133349 
L 376.097304 96.134059 
L 364.90232 99.133349 
L 353.707335 99.133349 
L 342.512351 102.132639 
L 331.317367 97.633704 
L 320.122382 84.136899 
L 308.927398 79.637964 
L 297.732414 72.13974 
L 286.537429 61.642225 
L 275.342445 64.641515 
L 264.147461 69.14045 
L 252.952476 70.640095 
L 241.757492 70.640095 
L 230.562508 75.13903 
L 219.367524 79.637964 
L 208.172539 79.637964 
L 196.977555 81.137609 
L 185.782571 79.637964 
L 174.587586 81.137609 
L 163.392602 79.637964 
L 152.197618 78.13832 
L 141.002633 79.637964 
L 129.807649 81.137609 
L 118.612665 81.137609 
L 107.41768 81.137609 
L 96.222696 82.637254 
L 85.027712 82.637254 
L 73.832727 82.637254 
z
" clip-path="url(#pe31036cd73)" style="fill: #e377c2"/>
   </g>
   <g id="PolyCollection_38">
    <path d="M 73.832727 82.637254 
L 73.832727 82.637254 
L 85.027712 82.637254 
L 96.222696 82.637254 
L 107.41768 81.137609 
L 118.612665 81.137609 
L 129.807649 81.137609 
L 141.002633 79.637964 
L 152.197618 78.13832 
L 163.392602 79.637964 
L 174.587586 81.137609 
L 185.782571 79.637964 
L 196.977555 81.137609 
L 208.172539 79.637964 
L 219.367524 79.637964 
L 230.562508 75.13903 
L 241.757492 70.640095 
L 252.952476 70.640095 
L 264.147461 69.14045 
L 275.342445 64.641515 
L 286.537429 61.642225 
L 297.732414 72.13974 
L 308.927398 79.637964 
L 320.122382 84.136899 
L 331.317367 97.633704 
L 342.512351 102.132639 
L 353.707335 99.133349 
L 364.90232 99.133349 
L 376.097304 96.134059 
L 387.292288 99.133349 
L 398.487273 102.132639 
L 398.487273 96.134059 
L 398.487273 96.134059 
L 387.292288 90.135479 
L 376.097304 90.135479 
L 364.90232 93.134769 
L 353.707335 93.134769 
L 342.512351 96.134059 
L 331.317367 90.135479 
L 320.122382 73.639385 
L 308.927398 70.640095 
L 297.732414 69.14045 
L 286.537429 61.642225 
L 275.342445 64.641515 
L 264.147461 69.14045 
L 252.952476 70.640095 
L 241.757492 70.640095 
L 230.562508 75.13903 
L 219.367524 79.637964 
L 208.172539 79.637964 
L 196.977555 81.137609 
L 185.782571 79.637964 
L 174.587586 81.137609 
L 163.392602 79.637964 
L 152.197618 78.13832 
L 141.002633 79.637964 
L 129.807649 81.137609 
L 118.612665 81.137609 
L 107.41768 81.137609 
L 96.222696 82.637254 
L 85.027712 82.637254 
L 73.832727 82.637254 
z
" clip-path="url(#pe31036cd73)" style="fill: #7f7f7f"/>
   </g>
   <g id="PolyCollection_39">
    <path d="M 73.832727 82.637254 
L 73.832727 82.637254 
L 85.027712 82.637254 
L 96.222696 82.637254 
L 107.41768 81.137609 
L 118.612665 81.137609 
L 129.807649 81.137609 
L 141.002633 79.637964 
L 152.197618 78.13832 
L 163.392602 79.637964 
L 174.587586 81.137609 
L 185.782571 79.637964 
L 196.977555 81.137609 
L 208.172539 79.637964 
L 219.367524 79.637964 
L 230.562508 75.13903 
L 241.757492 70.640095 
L 252.952476 70.640095 
L 264.147461 69.14045 
L 275.342445 64.641515 
L 286.537429 61.642225 
L 297.732414 69.14045 
L 308.927398 70.640095 
L 320.122382 73.639385 
L 331.317367 90.135479 
L 342.512351 96.134059 
L 353.707335 93.134769 
L 364.90232 93.134769 
L 376.097304 90.135479 
L 387.292288 90.135479 
L 398.487273 96.134059 
L 398.487273 88.635834 
L 398.487273 88.635834 
L 387.292288 82.637254 
L 376.097304 84.136899 
L 364.90232 84.136899 
L 353.707335 85.636544 
L 342.512351 90.135479 
L 331.317367 84.136899 
L 320.122382 69.14045 
L 308.927398 67.640805 
L 297.732414 69.14045 
L 286.537429 61.642225 
L 275.342445 64.641515 
L 264.147461 69.14045 
L 252.952476 70.640095 
L 241.757492 70.640095 
L 230.562508 75.13903 
L 219.367524 79.637964 
L 208.172539 79.637964 
L 196.977555 81.137609 
L 185.782571 79.637964 
L 174.587586 81.137609 
L 163.392602 79.637964 
L 152.197618 78.13832 
L 141.002633 79.637964 
L 129.807649 81.137609 
L 118.612665 81.137609 
L 107.41768 81.137609 
L 96.222696 82.637254 
L 85.027712 82.637254 
L 73.832727 82.637254 
z
" clip-path="url(#pe31036cd73)" style="fill: #bcbd22"/>
   </g>
   <g id="PolyCollection_40">
    <path d="M 73.832727 82.637254 
L 73.832727 82.637254 
L 85.027712 82.637254 
L 96.222696 82.637254 
L 107.41768 81.137609 
L 118.612665 81.137609 
L 129.807649 81.137609 
L 141.002633 79.637964 
L 152.197618 78.13832 
L 163.392602 79.637964 
L 174.587586 81.137609 
L 185.782571 79.637964 
L 196.977555 81.137609 
L 208.172539 79.637964 
L 219.367524 79.637964 
L 230.562508 75.13903 
L 241.757492 70.640095 
L 252.952476 70.640095 
L 264.147461 69.14045 
L 275.342445 64.641515 
L 286.537429 61.642225 
L 297.732414 69.14045 
L 308.927398 67.640805 
L 320.122382 69.14045 
L 331.317367 84.136899 
L 342.512351 90.135479 
L 353.707335 85.636544 
L 364.90232 84.136899 
L 376.097304 84.136899 
L 387.292288 82.637254 
L 398.487273 88.635834 
L 398.487273 82.637254 
L 398.487273 82.637254 
L 387.292288 78.13832 
L 376.097304 82.637254 
L 364.90232 79.637964 
L 353.707335 81.137609 
L 342.512351 85.636544 
L 331.317367 78.13832 
L 320.122382 64.641515 
L 308.927398 66.14116 
L 297.732414 69.14045 
L 286.537429 61.642225 
L 275.342445 64.641515 
L 264.147461 69.14045 
L 252.952476 70.640095 
L 241.757492 70.640095 
L 230.562508 75.13903 
L 219.367524 79.637964 
L 208.172539 79.637964 
L 196.977555 81.137609 
L 185.782571 79.637964 
L 174.587586 81.137609 
L 163.392602 79.637964 
L 152.197618 78.13832 
L 141.002633 79.637964 
L 129.807649 81.137609 
L 118.612665 81.137609 
L 107.41768 81.137609 
L 96.222696 82.637254 
L 85.027712 82.637254 
L 73.832727 82.637254 
z
" clip-path="url(#pe31036cd73)" style="fill: #17becf"/>
   </g>
   <g id="PolyCollection_41">
    <path d="M 73.832727 82.637254 
L 73.832727 82.637254 
L 85.027712 82.637254 
L 96.222696 82.637254 
L 107.41768 81.137609 
L 118.612665 81.137609 
L 129.807649 81.137609 
L 141.002633 79.637964 
L 152.197618 78.13832 
L 163.392602 79.637964 
L 174.587586 81.137609 
L 185.782571 79.637964 
L 196.977555 81.137609 
L 208.172539 79.637964 
L 219.367524 79.637964 
L 230.562508 75.13903 
L 241.757492 70.640095 
L 252.952476 70.640095 
L 264.147461 69.14045 
L 275.342445 64.641515 
L 286.537429 61.642225 
L 297.732414 69.14045 
L 308.927398 66.14116 
L 320.122382 64.641515 
L 331.317367 78.13832 
L 342.512351 85.636544 
L 353.707335 81.137609 
L 364.90232 79.637964 
L 376.097304 82.637254 
L 387.292288 78.13832 
L 398.487273 82.637254 
L 398.487273 78.13832 
L 398.487273 78.13832 
L 387.292288 73.639385 
L 376.097304 78.13832 
L 364.90232 75.13903 
L 353.707335 76.638675 
L 342.512351 81.137609 
L 331.317367 72.13974 
L 320.122382 61.642225 
L 308.927398 66.14116 
L 297.732414 69.14045 
L 286.537429 61.642225 
L 275.342445 64.641515 
L 264.147461 69.14045 
L 252.952476 70.640095 
L 241.757492 70.640095 
L 230.562508 75.13903 
L 219.367524 79.637964 
L 208.172539 79.637964 
L 196.977555 81.137609 
L 185.782571 79.637964 
L 174.587586 81.137609 
L 163.392602 79.637964 
L 152.197618 78.13832 
L 141.002633 79.637964 
L 129.807649 81.137609 
L 118.612665 81.137609 
L 107.41768 81.137609 
L 96.222696 82.637254 
L 85.027712 82.637254 
L 73.832727 82.637254 
z
" clip-path="url(#pe31036cd73)" style="fill: #1f77b4"/>
   </g>
   <g id="PolyCollection_42">
    <path d="M 73.832727 82.637254 
L 73.832727 82.637254 
L 85.027712 82.637254 
L 96.222696 82.637254 
L 107.41768 81.137609 
L 118.612665 81.137609 
L 129.807649 81.137609 
L 141.002633 79.637964 
L 152.197618 78.13832 
L 163.392602 79.637964 
L 174.587586 81.137609 
L 185.782571 79.637964 
L 196.977555 81.137609 
L 208.172539 79.637964 
L 219.367524 79.637964 
L 230.562508 75.13903 
L 241.757492 70.640095 
L 252.952476 70.640095 
L 264.147461 69.14045 
L 275.342445 64.641515 
L 286.537429 61.642225 
L 297.732414 69.14045 
L 308.927398 66.14116 
L 320.122382 61.642225 
L 331.317367 72.13974 
L 342.512351 81.137609 
L 353.707335 76.638675 
L 364.90232 75.13903 
L 376.097304 78.13832 
L 387.292288 73.639385 
L 398.487273 78.13832 
L 398.487273 73.639385 
L 398.487273 73.639385 
L 387.292288 69.14045 
L 376.097304 73.639385 
L 364.90232 69.14045 
L 353.707335 72.13974 
L 342.512351 76.638675 
L 331.317367 67.640805 
L 320.122382 60.14258 
L 308.927398 66.14116 
L 297.732414 69.14045 
L 286.537429 61.642225 
L 275.342445 64.641515 
L 264.147461 69.14045 
L 252.952476 70.640095 
L 241.757492 70.640095 
L 230.562508 75.13903 
L 219.367524 79.637964 
L 208.172539 79.637964 
L 196.977555 81.137609 
L 185.782571 79.637964 
L 174.587586 81.137609 
L 163.392602 79.637964 
L 152.197618 78.13832 
L 141.002633 79.637964 
L 129.807649 81.137609 
L 118.612665 81.137609 
L 107.41768 81.137609 
L 96.222696 82.637254 
L 85.027712 82.637254 
L 73.832727 82.637254 
z
" clip-path="url(#pe31036cd73)" style="fill: #ff7f0e"/>
   </g>
   <g id="PolyCollection_43">
    <path d="M 73.832727 82.637254 
L 73.832727 82.637254 
L 85.027712 82.637254 
L 96.222696 82.637254 
L 107.41768 81.137609 
L 118.612665 81.137609 
L 129.807649 81.137609 
L 141.002633 79.637964 
L 152.197618 78.13832 
L 163.392602 79.637964 
L 174.587586 81.137609 
L 185.782571 79.637964 
L 196.977555 81.137609 
L 208.172539 79.637964 
L 219.367524 79.637964 
L 230.562508 75.13903 
L 241.757492 70.640095 
L 252.952476 70.640095 
L 264.147461 69.14045 
L 275.342445 64.641515 
L 286.537429 61.642225 
L 297.732414 69.14045 
L 308.927398 66.14116 
L 320.122382 60.14258 
L 331.317367 67.640805 
L 342.512351 76.638675 
L 353.707335 72.13974 
L 364.90232 69.14045 
L 376.097304 73.639385 
L 387.292288 69.14045 
L 398.487273 73.639385 
L 398.487273 69.14045 
L 398.487273 69.14045 
L 387.292288 64.641515 
L 376.097304 69.14045 
L 364.90232 64.641515 
L 353.707335 67.640805 
L 342.512351 69.14045 
L 331.317367 66.14116 
L 320.122382 60.14258 
L 308.927398 66.14116 
L 297.732414 69.14045 
L 286.537429 61.642225 
L 275.342445 64.641515 
L 264.147461 69.14045 
L 252.952476 70.640095 
L 241.757492 70.640095 
L 230.562508 75.13903 
L 219.367524 79.637964 
L 208.172539 79.637964 
L 196.977555 81.137609 
L 185.782571 79.637964 
L 174.587586 81.137609 
L 163.392602 79.637964 
L 152.197618 78.13832 
L 141.002633 79.637964 
L 129.807649 81.137609 
L 118.612665 81.137609 
L 107.41768 81.137609 
L 96.222696 82.637254 
L 85.027712 82.637254 
L 73.832727 82.637254 
z
" clip-path="url(#pe31036cd73)" style="fill: #2ca02c"/>
   </g>
   <g id="PolyCollection_44">
    <path d="M 73.832727 82.637254 
L 73.832727 82.637254 
L 85.027712 82.637254 
L 96.222696 82.637254 
L 107.41768 81.137609 
L 118.612665 81.137609 
L 129.807649 81.137609 
L 141.002633 79.637964 
L 152.197618 78.13832 
L 163.392602 79.637964 
L 174.587586 81.137609 
L 185.782571 79.637964 
L 196.977555 81.137609 
L 208.172539 79.637964 
L 219.367524 79.637964 
L 230.562508 75.13903 
L 241.757492 70.640095 
L 252.952476 70.640095 
L 264.147461 69.14045 
L 275.342445 64.641515 
L 286.537429 61.642225 
L 297.732414 69.14045 
L 308.927398 66.14116 
L 320.122382 60.14258 
L 331.317367 66.14116 
L 342.512351 69.14045 
L 353.707335 67.640805 
L 364.90232 64.641515 
L 376.097304 69.14045 
L 387.292288 64.641515 
L 398.487273 69.14045 
L 398.487273 64.641515 
L 398.487273 64.641515 
L 387.292288 60.14258 
L 376.097304 64.641515 
L 364.90232 58.642935 
L 353.707335 63.14187 
L 342.512351 66.14116 
L 331.317367 66.14116 
L 320.122382 60.14258 
L 308.927398 66.14116 
L 297.732414 69.14045 
L 286.537429 61.642225 
L 275.342445 64.641515 
L 264.147461 69.14045 
L 252.952476 70.640095 
L 241.757492 70.640095 
L 230.562508 75.13903 
L 219.367524 79.637964 
L 208.172539 79.637964 
L 196.977555 81.137609 
L 185.782571 79.637964 
L 174.587586 81.137609 
L 163.392602 79.637964 
L 152.197618 78.13832 
L 141.002633 79.637964 
L 129.807649 81.137609 
L 118.612665 81.137609 
L 107.41768 81.137609 
L 96.222696 82.637254 
L 85.027712 82.637254 
L 73.832727 82.637254 
z
" clip-path="url(#pe31036cd73)" style="fill: #d62728"/>
   </g>
   <g id="PolyCollection_45">
    <path d="M 73.832727 82.637254 
L 73.832727 82.637254 
L 85.027712 82.637254 
L 96.222696 82.637254 
L 107.41768 81.137609 
L 118.612665 81.137609 
L 129.807649 81.137609 
L 141.002633 79.637964 
L 152.197618 78.13832 
L 163.392602 79.637964 
L 174.587586 81.137609 
L 185.782571 79.637964 
L 196.977555 81.137609 
L 208.172539 79.637964 
L 219.367524 79.637964 
L 230.562508 75.13903 
L 241.757492 70.640095 
L 252.952476 70.640095 
L 264.147461 69.14045 
L 275.342445 64.641515 
L 286.537429 61.642225 
L 297.732414 69.14045 
L 308.927398 66.14116 
L 320.122382 60.14258 
L 331.317367 66.14116 
L 342.512351 66.14116 
L 353.707335 63.14187 
L 364.90232 58.642935 
L 376.097304 64.641515 
L 387.292288 60.14258 
L 398.487273 64.641515 
L 398.487273 60.14258 
L 398.487273 60.14258 
L 387.292288 55.643645 
L 376.097304 60.14258 
L 364.90232 54.144 
L 353.707335 58.642935 
L 342.512351 64.641515 
L 331.317367 66.14116 
L 320.122382 60.14258 
L 308.927398 66.14116 
L 297.732414 69.14045 
L 286.537429 61.642225 
L 275.342445 64.641515 
L 264.147461 69.14045 
L 252.952476 70.640095 
L 241.757492 70.640095 
L 230.562508 75.13903 
L 219.367524 79.637964 
L 208.172539 79.637964 
L 196.977555 81.137609 
L 185.782571 79.637964 
L 174.587586 81.137609 
L 163.392602 79.637964 
L 152.197618 78.13832 
L 141.002633 79.637964 
L 129.807649 81.137609 
L 118.612665 81.137609 
L 107.41768 81.137609 
L 96.222696 82.637254 
L 85.027712 82.637254 
L 73.832727 82.637254 
z
" clip-path="url(#pe31036cd73)" style="fill: #9467bd"/>
   </g>
   <g id="matplotlib.axis_1">
    <g id="xtick_1">
     <g id="line2d_1">
      <defs>
       <path id="m39bca92558" d="M 0 0 
L 0 3.5 
" style="stroke: #000000; stroke-width: 0.8"/>
      </defs>
      <g>
       <use xlink:href="#m39bca92558" x="73.832727" y="307.584" style="stroke: #000000; stroke-width: 0.8"/>
      </g>
     </g>
     <g id="text_1">
      <!-- 0 -->
      <g transform="translate(70.651477 322.182437) scale(0.1 -0.1)">
       <defs>
        <path id="DejaVuSans-30" d="M 2034 4250 
Q 1547 4250 1301 3770 
Q 1056 3291 1056 2328 
Q 1056 1369 1301 889 
Q 1547 409 2034 409 
Q 2525 409 2770 889 
Q 3016 1369 3016 2328 
Q 3016 3291 2770 3770 
Q 2525 4250 2034 4250 
z
M 2034 4750 
Q 2819 4750 3233 4129 
Q 3647 3509 3647 2328 
Q 3647 1150 3233 529 
Q 2819 -91 2034 -91 
Q 1250 -91 836 529 
Q 422 1150 422 2328 
Q 422 3509 836 4129 
Q 1250 4750 2034 4750 
z
" transform="scale(0.015625)"/>
       </defs>
       <use xlink:href="#DejaVuSans-30"/>
      </g>
     </g>
    </g>
    <g id="xtick_2">
     <g id="line2d_2">
      <g>
       <use xlink:href="#m39bca92558" x="129.807649" y="307.584" style="stroke: #000000; stroke-width: 0.8"/>
      </g>
     </g>
     <g id="text_2">
      <!-- 5 -->
      <g transform="translate(126.626399 322.182437) scale(0.1 -0.1)">
       <defs>
        <path id="DejaVuSans-35" d="M 691 4666 
L 3169 4666 
L 3169 4134 
L 1269 4134 
L 1269 2991 
Q 1406 3038 1543 3061 
Q 1681 3084 1819 3084 
Q 2600 3084 3056 2656 
Q 3513 2228 3513 1497 
Q 3513 744 3044 326 
Q 2575 -91 1722 -91 
Q 1428 -91 1123 -41 
Q 819 9 494 109 
L 494 744 
Q 775 591 1075 516 
Q 1375 441 1709 441 
Q 2250 441 2565 725 
Q 2881 1009 2881 1497 
Q 2881 1984 2565 2268 
Q 2250 2553 1709 2553 
Q 1456 2553 1204 2497 
Q 953 2441 691 2322 
L 691 4666 
z
" transform="scale(0.015625)"/>
       </defs>
       <use xlink:href="#DejaVuSans-35"/>
      </g>
     </g>
    </g>
    <g id="xtick_3">
     <g id="line2d_3">
      <g>
       <use xlink:href="#m39bca92558" x="185.782571" y="307.584" style="stroke: #000000; stroke-width: 0.8"/>
      </g>
     </g>
     <g id="text_3">
      <!-- 10 -->
      <g transform="translate(179.420071 322.182437) scale(0.1 -0.1)">
       <defs>
        <path id="DejaVuSans-31" d="M 794 531 
L 1825 531 
L 1825 4091 
L 703 3866 
L 703 4441 
L 1819 4666 
L 2450 4666 
L 2450 531 
L 3481 531 
L 3481 0 
L 794 0 
L 794 531 
z
" transform="scale(0.015625)"/>
       </defs>
       <use xlink:href="#DejaVuSans-31"/>
       <use xlink:href="#DejaVuSans-30" x="63.623047"/>
      </g>
     </g>
    </g>
    <g id="xtick_4">
     <g id="line2d_4">
      <g>
       <use xlink:href="#m39bca92558" x="241.757492" y="307.584" style="stroke: #000000; stroke-width: 0.8"/>
      </g>
     </g>
     <g id="text_4">
      <!-- 15 -->
      <g transform="translate(235.394992 322.182437) scale(0.1 -0.1)">
       <use xlink:href="#DejaVuSans-31"/>
       <use xlink:href="#DejaVuSans-35" x="63.623047"/>
      </g>
     </g>
    </g>
    <g id="xtick_5">
     <g id="line2d_5">
      <g>
       <use xlink:href="#m39bca92558" x="297.732414" y="307.584" style="stroke: #000000; stroke-width: 0.8"/>
      </g>
     </g>
     <g id="text_5">
      <!-- 20 -->
      <g transform="translate(291.369914 322.182437) scale(0.1 -0.1)">
       <defs>
        <path id="DejaVuSans-32" d="M 1228 531 
L 3431 531 
L 3431 0 
L 469 0 
L 469 531 
Q 828 903 1448 1529 
Q 2069 2156 2228 2338 
Q 2531 2678 2651 2914 
Q 2772 3150 2772 3378 
Q 2772 3750 2511 3984 
Q 2250 4219 1831 4219 
Q 1534 4219 1204 4116 
Q 875 4013 500 3803 
L 500 4441 
Q 881 4594 1212 4672 
Q 1544 4750 1819 4750 
Q 2544 4750 2975 4387 
Q 3406 4025 3406 3419 
Q 3406 3131 3298 2873 
Q 3191 2616 2906 2266 
Q 2828 2175 2409 1742 
Q 1991 1309 1228 531 
z
" transform="scale(0.015625)"/>
       </defs>
       <use xlink:href="#DejaVuSans-32"/>
       <use xlink:href="#DejaVuSans-30" x="63.623047"/>
      </g>
     </g>
    </g>
    <g id="xtick_6">
     <g id="line2d_6">
      <g>
       <use xlink:href="#m39bca92558" x="353.707335" y="307.584" style="stroke: #000000; stroke-width: 0.8"/>
      </g>
     </g>
     <g id="text_6">
      <!-- 25 -->
      <g transform="translate(347.344835 322.182437) scale(0.1 -0.1)">
       <use xlink:href="#DejaVuSans-32"/>
       <use xlink:href="#DejaVuSans-35" x="63.623047"/>
      </g>
     </g>
    </g>
    <g id="xtick_7">
     <g id="line2d_7">
      <g>
       <use xlink:href="#m39bca92558" x="409.682257" y="307.584" style="stroke: #000000; stroke-width: 0.8"/>
      </g>
     </g>
     <g id="text_7">
      <!-- 30 -->
      <g transform="translate(403.319757 322.182437) scale(0.1 -0.1)">
       <defs>
        <path id="DejaVuSans-33" d="M 2597 2516 
Q 3050 2419 3304 2112 
Q 3559 1806 3559 1356 
Q 3559 666 3084 287 
Q 2609 -91 1734 -91 
Q 1441 -91 1130 -33 
Q 819 25 488 141 
L 488 750 
Q 750 597 1062 519 
Q 1375 441 1716 441 
Q 2309 441 2620 675 
Q 2931 909 2931 1356 
Q 2931 1769 2642 2001 
Q 2353 2234 1838 2234 
L 1294 2234 
L 1294 2753 
L 1863 2753 
Q 2328 2753 2575 2939 
Q 2822 3125 2822 3475 
Q 2822 3834 2567 4026 
Q 2313 4219 1838 4219 
Q 1578 4219 1281 4162 
Q 984 4106 628 3988 
L 628 4550 
Q 988 4650 1302 4700 
Q 1616 4750 1894 4750 
Q 2613 4750 3031 4423 
Q 3450 4097 3450 3541 
Q 3450 3153 3228 2886 
Q 3006 2619 2597 2516 
z
" transform="scale(0.015625)"/>
       </defs>
       <use xlink:href="#DejaVuSans-33"/>
       <use xlink:href="#DejaVuSans-30" x="63.623047"/>
      </g>
     </g>
    </g>
    <g id="text_8">
     <!-- Generations -->
     <g transform="translate(205.662344 335.860562) scale(0.1 -0.1)">
      <defs>
       <path id="DejaVuSans-47" d="M 3809 666 
L 3809 1919 
L 2778 1919 
L 2778 2438 
L 4434 2438 
L 4434 434 
Q 4069 175 3628 42 
Q 3188 -91 2688 -91 
Q 1594 -91 976 548 
Q 359 1188 359 2328 
Q 359 3472 976 4111 
Q 1594 4750 2688 4750 
Q 3144 4750 3555 4637 
Q 3966 4525 4313 4306 
L 4313 3634 
Q 3963 3931 3569 4081 
Q 3175 4231 2741 4231 
Q 1884 4231 1454 3753 
Q 1025 3275 1025 2328 
Q 1025 1384 1454 906 
Q 1884 428 2741 428 
Q 3075 428 3337 486 
Q 3600 544 3809 666 
z
" transform="scale(0.015625)"/>
       <path id="DejaVuSans-65" d="M 3597 1894 
L 3597 1613 
L 953 1613 
Q 991 1019 1311 708 
Q 1631 397 2203 397 
Q 2534 397 2845 478 
Q 3156 559 3463 722 
L 3463 178 
Q 3153 47 2828 -22 
Q 2503 -91 2169 -91 
Q 1331 -91 842 396 
Q 353 884 353 1716 
Q 353 2575 817 3079 
Q 1281 3584 2069 3584 
Q 2775 3584 3186 3129 
Q 3597 2675 3597 1894 
z
M 3022 2063 
Q 3016 2534 2758 2815 
Q 2500 3097 2075 3097 
Q 1594 3097 1305 2825 
Q 1016 2553 972 2059 
L 3022 2063 
z
" transform="scale(0.015625)"/>
       <path id="DejaVuSans-6e" d="M 3513 2113 
L 3513 0 
L 2938 0 
L 2938 2094 
Q 2938 2591 2744 2837 
Q 2550 3084 2163 3084 
Q 1697 3084 1428 2787 
Q 1159 2491 1159 1978 
L 1159 0 
L 581 0 
L 581 3500 
L 1159 3500 
L 1159 2956 
Q 1366 3272 1645 3428 
Q 1925 3584 2291 3584 
Q 2894 3584 3203 3211 
Q 3513 2838 3513 2113 
z
" transform="scale(0.015625)"/>
       <path id="DejaVuSans-72" d="M 2631 2963 
Q 2534 3019 2420 3045 
Q 2306 3072 2169 3072 
Q 1681 3072 1420 2755 
Q 1159 2438 1159 1844 
L 1159 0 
L 581 0 
L 581 3500 
L 1159 3500 
L 1159 2956 
Q 1341 3275 1631 3429 
Q 1922 3584 2338 3584 
Q 2397 3584 2469 3576 
Q 2541 3569 2628 3553 
L 2631 2963 
z
" transform="scale(0.015625)"/>
       <path id="DejaVuSans-61" d="M 2194 1759 
Q 1497 1759 1228 1600 
Q 959 1441 959 1056 
Q 959 750 1161 570 
Q 1363 391 1709 391 
Q 2188 391 2477 730 
Q 2766 1069 2766 1631 
L 2766 1759 
L 2194 1759 
z
M 3341 1997 
L 3341 0 
L 2766 0 
L 2766 531 
Q 2569 213 2275 61 
Q 1981 -91 1556 -91 
Q 1019 -91 701 211 
Q 384 513 384 1019 
Q 384 1609 779 1909 
Q 1175 2209 1959 2209 
L 2766 2209 
L 2766 2266 
Q 2766 2663 2505 2880 
Q 2244 3097 1772 3097 
Q 1472 3097 1187 3025 
Q 903 2953 641 2809 
L 641 3341 
Q 956 3463 1253 3523 
Q 1550 3584 1831 3584 
Q 2591 3584 2966 3190 
Q 3341 2797 3341 1997 
z
" transform="scale(0.015625)"/>
       <path id="DejaVuSans-74" d="M 1172 4494 
L 1172 3500 
L 2356 3500 
L 2356 3053 
L 1172 3053 
L 1172 1153 
Q 1172 725 1289 603 
Q 1406 481 1766 481 
L 2356 481 
L 2356 0 
L 1766 0 
Q 1100 0 847 248 
Q 594 497 594 1153 
L 594 3053 
L 172 3053 
L 172 3500 
L 594 3500 
L 594 4494 
L 1172 4494 
z
" transform="scale(0.015625)"/>
       <path id="DejaVuSans-69" d="M 603 3500 
L 1178 3500 
L 1178 0 
L 603 0 
L 603 3500 
z
M 603 4863 
L 1178 4863 
L 1178 4134 
L 603 4134 
L 603 4863 
z
" transform="scale(0.015625)"/>
       <path id="DejaVuSans-6f" d="M 1959 3097 
Q 1497 3097 1228 2736 
Q 959 2375 959 1747 
Q 959 1119 1226 758 
Q 1494 397 1959 397 
Q 2419 397 2687 759 
Q 2956 1122 2956 1747 
Q 2956 2369 2687 2733 
Q 2419 3097 1959 3097 
z
M 1959 3584 
Q 2709 3584 3137 3096 
Q 3566 2609 3566 1747 
Q 3566 888 3137 398 
Q 2709 -91 1959 -91 
Q 1206 -91 779 398 
Q 353 888 353 1747 
Q 353 2609 779 3096 
Q 1206 3584 1959 3584 
z
" transform="scale(0.015625)"/>
       <path id="DejaVuSans-73" d="M 2834 3397 
L 2834 2853 
Q 2591 2978 2328 3040 
Q 2066 3103 1784 3103 
Q 1356 3103 1142 2972 
Q 928 2841 928 2578 
Q 928 2378 1081 2264 
Q 1234 2150 1697 2047 
L 1894 2003 
Q 2506 1872 2764 1633 
Q 3022 1394 3022 966 
Q 3022 478 2636 193 
Q 2250 -91 1575 -91 
Q 1294 -91 989 -36 
Q 684 19 347 128 
L 347 722 
Q 666 556 975 473 
Q 1284 391 1588 391 
Q 1994 391 2212 530 
Q 2431 669 2431 922 
Q 2431 1156 2273 1281 
Q 2116 1406 1581 1522 
L 1381 1569 
Q 847 1681 609 1914 
Q 372 2147 372 2553 
Q 372 3047 722 3315 
Q 1072 3584 1716 3584 
Q 2034 3584 2315 3537 
Q 2597 3491 2834 3397 
z
" transform="scale(0.015625)"/>
      </defs>
      <use xlink:href="#DejaVuSans-47"/>
      <use xlink:href="#DejaVuSans-65" x="77.490234"/>
      <use xlink:href="#DejaVuSans-6e" x="139.013672"/>
      <use xlink:href="#DejaVuSans-65" x="202.392578"/>
      <use xlink:href="#DejaVuSans-72" x="263.916016"/>
      <use xlink:href="#DejaVuSans-61" x="305.029297"/>
      <use xlink:href="#DejaVuSans-74" x="366.308594"/>
      <use xlink:href="#DejaVuSans-69" x="405.517578"/>
      <use xlink:href="#DejaVuSans-6f" x="433.300781"/>
      <use xlink:href="#DejaVuSans-6e" x="494.482422"/>
      <use xlink:href="#DejaVuSans-73" x="557.861328"/>
     </g>
    </g>
   </g>
   <g id="matplotlib.axis_2">
    <g id="ytick_1">
     <g id="line2d_8">
      <defs>
       <path id="md06aacf168" d="M 0 0 
L -3.5 0 
" style="stroke: #000000; stroke-width: 0.8"/>
      </defs>
      <g>
       <use xlink:href="#md06aacf168" x="57.6" y="307.584" style="stroke: #000000; stroke-width: 0.8"/>
      </g>
     </g>
     <g id="text_9">
      <!-- 0 -->
      <g transform="translate(44.2375 311.383219) scale(0.1 -0.1)">
       <use xlink:href="#DejaVuSans-30"/>
      </g>
     </g>
    </g>
    <g id="ytick_2">
     <g id="line2d_9">
      <g>
       <use xlink:href="#md06aacf168" x="57.6" y="277.591101" style="stroke: #000000; stroke-width: 0.8"/>
      </g>
     </g>
     <g id="text_10">
      <!-- 20 -->
      <g transform="translate(37.875 281.390319) scale(0.1 -0.1)">
       <use xlink:href="#DejaVuSans-32"/>
       <use xlink:href="#DejaVuSans-30" x="63.623047"/>
      </g>
     </g>
    </g>
    <g id="ytick_3">
     <g id="line2d_10">
      <g>
       <use xlink:href="#md06aacf168" x="57.6" y="247.598201" style="stroke: #000000; stroke-width: 0.8"/>
      </g>
     </g>
     <g id="text_11">
      <!-- 40 -->
      <g transform="translate(37.875 251.39742) scale(0.1 -0.1)">
       <defs>
        <path id="DejaVuSans-34" d="M 2419 4116 
L 825 1625 
L 2419 1625 
L 2419 4116 
z
M 2253 4666 
L 3047 4666 
L 3047 1625 
L 3713 1625 
L 3713 1100 
L 3047 1100 
L 3047 0 
L 2419 0 
L 2419 1100 
L 313 1100 
L 313 1709 
L 2253 4666 
z
" transform="scale(0.015625)"/>
       </defs>
       <use xlink:href="#DejaVuSans-34"/>
       <use xlink:href="#DejaVuSans-30" x="63.623047"/>
      </g>
     </g>
    </g>
    <g id="ytick_4">
     <g id="line2d_11">
      <g>
       <use xlink:href="#md06aacf168" x="57.6" y="217.605302" style="stroke: #000000; stroke-width: 0.8"/>
      </g>
     </g>
     <g id="text_12">
      <!-- 60 -->
      <g transform="translate(37.875 221.404521) scale(0.1 -0.1)">
       <defs>
        <path id="DejaVuSans-36" d="M 2113 2584 
Q 1688 2584 1439 2293 
Q 1191 2003 1191 1497 
Q 1191 994 1439 701 
Q 1688 409 2113 409 
Q 2538 409 2786 701 
Q 3034 994 3034 1497 
Q 3034 2003 2786 2293 
Q 2538 2584 2113 2584 
z
M 3366 4563 
L 3366 3988 
Q 3128 4100 2886 4159 
Q 2644 4219 2406 4219 
Q 1781 4219 1451 3797 
Q 1122 3375 1075 2522 
Q 1259 2794 1537 2939 
Q 1816 3084 2150 3084 
Q 2853 3084 3261 2657 
Q 3669 2231 3669 1497 
Q 3669 778 3244 343 
Q 2819 -91 2113 -91 
Q 1303 -91 875 529 
Q 447 1150 447 2328 
Q 447 3434 972 4092 
Q 1497 4750 2381 4750 
Q 2619 4750 2861 4703 
Q 3103 4656 3366 4563 
z
" transform="scale(0.015625)"/>
       </defs>
       <use xlink:href="#DejaVuSans-36"/>
       <use xlink:href="#DejaVuSans-30" x="63.623047"/>
      </g>
     </g>
    </g>
    <g id="ytick_5">
     <g id="line2d_12">
      <g>
       <use xlink:href="#md06aacf168" x="57.6" y="187.612402" style="stroke: #000000; stroke-width: 0.8"/>
      </g>
     </g>
     <g id="text_13">
      <!-- 80 -->
      <g transform="translate(37.875 191.411621) scale(0.1 -0.1)">
       <defs>
        <path id="DejaVuSans-38" d="M 2034 2216 
Q 1584 2216 1326 1975 
Q 1069 1734 1069 1313 
Q 1069 891 1326 650 
Q 1584 409 2034 409 
Q 2484 409 2743 651 
Q 3003 894 3003 1313 
Q 3003 1734 2745 1975 
Q 2488 2216 2034 2216 
z
M 1403 2484 
Q 997 2584 770 2862 
Q 544 3141 544 3541 
Q 544 4100 942 4425 
Q 1341 4750 2034 4750 
Q 2731 4750 3128 4425 
Q 3525 4100 3525 3541 
Q 3525 3141 3298 2862 
Q 3072 2584 2669 2484 
Q 3125 2378 3379 2068 
Q 3634 1759 3634 1313 
Q 3634 634 3220 271 
Q 2806 -91 2034 -91 
Q 1263 -91 848 271 
Q 434 634 434 1313 
Q 434 1759 690 2068 
Q 947 2378 1403 2484 
z
M 1172 3481 
Q 1172 3119 1398 2916 
Q 1625 2713 2034 2713 
Q 2441 2713 2670 2916 
Q 2900 3119 2900 3481 
Q 2900 3844 2670 4047 
Q 2441 4250 2034 4250 
Q 1625 4250 1398 4047 
Q 1172 3844 1172 3481 
z
" transform="scale(0.015625)"/>
       </defs>
       <use xlink:href="#DejaVuSans-38"/>
       <use xlink:href="#DejaVuSans-30" x="63.623047"/>
      </g>
     </g>
    </g>
    <g id="ytick_6">
     <g id="line2d_13">
      <g>
       <use xlink:href="#md06aacf168" x="57.6" y="157.619503" style="stroke: #000000; stroke-width: 0.8"/>
      </g>
     </g>
     <g id="text_14">
      <!-- 100 -->
      <g transform="translate(31.5125 161.418722) scale(0.1 -0.1)">
       <use xlink:href="#DejaVuSans-31"/>
       <use xlink:href="#DejaVuSans-30" x="63.623047"/>
       <use xlink:href="#DejaVuSans-30" x="127.246094"/>
      </g>
     </g>
    </g>
    <g id="ytick_7">
     <g id="line2d_14">
      <g>
       <use xlink:href="#md06aacf168" x="57.6" y="127.626604" style="stroke: #000000; stroke-width: 0.8"/>
      </g>
     </g>
     <g id="text_15">
      <!-- 120 -->
      <g transform="translate(31.5125 131.425822) scale(0.1 -0.1)">
       <use xlink:href="#DejaVuSans-31"/>
       <use xlink:href="#DejaVuSans-32" x="63.623047"/>
       <use xlink:href="#DejaVuSans-30" x="127.246094"/>
      </g>
     </g>
    </g>
    <g id="ytick_8">
     <g id="line2d_15">
      <g>
       <use xlink:href="#md06aacf168" x="57.6" y="97.633704" style="stroke: #000000; stroke-width: 0.8"/>
      </g>
     </g>
     <g id="text_16">
      <!-- 140 -->
      <g transform="translate(31.5125 101.432923) scale(0.1 -0.1)">
       <use xlink:href="#DejaVuSans-31"/>
       <use xlink:href="#DejaVuSans-34" x="63.623047"/>
       <use xlink:href="#DejaVuSans-30" x="127.246094"/>
      </g>
     </g>
    </g>
    <g id="ytick_9">
     <g id="line2d_16">
      <g>
       <use xlink:href="#md06aacf168" x="57.6" y="67.640805" style="stroke: #000000; stroke-width: 0.8"/>
      </g>
     </g>
     <g id="text_17">
      <!-- 160 -->
      <g transform="translate(31.5125 71.440023) scale(0.1 -0.1)">
       <use xlink:href="#DejaVuSans-31"/>
       <use xlink:href="#DejaVuSans-36" x="63.623047"/>
       <use xlink:href="#DejaVuSans-30" x="127.246094"/>
      </g>
     </g>
    </g>
    <g id="text_18">
     <!-- Size per Species -->
     <g transform="translate(25.432812 215.520969) rotate(-90) scale(0.1 -0.1)">
      <defs>
       <path id="DejaVuSans-53" d="M 3425 4513 
L 3425 3897 
Q 3066 4069 2747 4153 
Q 2428 4238 2131 4238 
Q 1616 4238 1336 4038 
Q 1056 3838 1056 3469 
Q 1056 3159 1242 3001 
Q 1428 2844 1947 2747 
L 2328 2669 
Q 3034 2534 3370 2195 
Q 3706 1856 3706 1288 
Q 3706 609 3251 259 
Q 2797 -91 1919 -91 
Q 1588 -91 1214 -16 
Q 841 59 441 206 
L 441 856 
Q 825 641 1194 531 
Q 1563 422 1919 422 
Q 2459 422 2753 634 
Q 3047 847 3047 1241 
Q 3047 1584 2836 1778 
Q 2625 1972 2144 2069 
L 1759 2144 
Q 1053 2284 737 2584 
Q 422 2884 422 3419 
Q 422 4038 858 4394 
Q 1294 4750 2059 4750 
Q 2388 4750 2728 4690 
Q 3069 4631 3425 4513 
z
" transform="scale(0.015625)"/>
       <path id="DejaVuSans-7a" d="M 353 3500 
L 3084 3500 
L 3084 2975 
L 922 459 
L 3084 459 
L 3084 0 
L 275 0 
L 275 525 
L 2438 3041 
L 353 3041 
L 353 3500 
z
" transform="scale(0.015625)"/>
       <path id="DejaVuSans-20" transform="scale(0.015625)"/>
       <path id="DejaVuSans-70" d="M 1159 525 
L 1159 -1331 
L 581 -1331 
L 581 3500 
L 1159 3500 
L 1159 2969 
Q 1341 3281 1617 3432 
Q 1894 3584 2278 3584 
Q 2916 3584 3314 3078 
Q 3713 2572 3713 1747 
Q 3713 922 3314 415 
Q 2916 -91 2278 -91 
Q 1894 -91 1617 61 
Q 1341 213 1159 525 
z
M 3116 1747 
Q 3116 2381 2855 2742 
Q 2594 3103 2138 3103 
Q 1681 3103 1420 2742 
Q 1159 2381 1159 1747 
Q 1159 1113 1420 752 
Q 1681 391 2138 391 
Q 2594 391 2855 752 
Q 3116 1113 3116 1747 
z
" transform="scale(0.015625)"/>
       <path id="DejaVuSans-63" d="M 3122 3366 
L 3122 2828 
Q 2878 2963 2633 3030 
Q 2388 3097 2138 3097 
Q 1578 3097 1268 2742 
Q 959 2388 959 1747 
Q 959 1106 1268 751 
Q 1578 397 2138 397 
Q 2388 397 2633 464 
Q 2878 531 3122 666 
L 3122 134 
Q 2881 22 2623 -34 
Q 2366 -91 2075 -91 
Q 1284 -91 818 406 
Q 353 903 353 1747 
Q 353 2603 823 3093 
Q 1294 3584 2113 3584 
Q 2378 3584 2631 3529 
Q 2884 3475 3122 3366 
z
" transform="scale(0.015625)"/>
      </defs>
      <use xlink:href="#DejaVuSans-53"/>
      <use xlink:href="#DejaVuSans-69" x="63.476562"/>
      <use xlink:href="#DejaVuSans-7a" x="91.259766"/>
      <use xlink:href="#DejaVuSans-65" x="143.75"/>
      <use xlink:href="#DejaVuSans-20" x="205.273438"/>
      <use xlink:href="#DejaVuSans-70" x="237.060547"/>
      <use xlink:href="#DejaVuSans-65" x="300.537109"/>
      <use xlink:href="#DejaVuSans-72" x="362.060547"/>
      <use xlink:href="#DejaVuSans-20" x="403.173828"/>
      <use xlink:href="#DejaVuSans-53" x="434.960938"/>
      <use xlink:href="#DejaVuSans-70" x="498.4375"/>
      <use xlink:href="#DejaVuSans-65" x="561.914062"/>
      <use xlink:href="#DejaVuSans-63" x="623.4375"/>
      <use xlink:href="#DejaVuSans-69" x="678.417969"/>
      <use xlink:href="#DejaVuSans-65" x="706.201172"/>
      <use xlink:href="#DejaVuSans-73" x="767.724609"/>
     </g>
    </g>
   </g>
   <g id="patch_3">
    <path d="M 57.6 307.584 
L 57.6 41.472 
" style="fill: none; stroke: #000000; stroke-width: 0.8; stroke-linejoin: miter; stroke-linecap: square"/>
   </g>
   <g id="patch_4">
    <path d="M 414.72 307.584 
L 414.72 41.472 
" style="fill: none; stroke: #000000; stroke-width: 0.8; stroke-linejoin: miter; stroke-linecap: square"/>
   </g>
   <g id="patch_5">
    <path d="M 57.6 307.584 
L 414.72 307.584 
" style="fill: none; stroke: #000000; stroke-width: 0.8; stroke-linejoin: miter; stroke-linecap: square"/>
   </g>
   <g id="patch_6">
    <path d="M 57.6 41.472 
L 414.72 41.472 
" style="fill: none; stroke: #000000; stroke-width: 0.8; stroke-linejoin: miter; stroke-linecap: square"/>
   </g>
   <g id="text_19">
    <!-- Speciation -->
    <g transform="translate(204.714375 35.472) scale(0.12 -0.12)">
     <use xlink:href="#DejaVuSans-53"/>
     <use xlink:href="#DejaVuSans-70" x="63.476562"/>
     <use xlink:href="#DejaVuSans-65" x="126.953125"/>
     <use xlink:href="#DejaVuSans-63" x="188.476562"/>
     <use xlink:href="#DejaVuSans-69" x="243.457031"/>
     <use xlink:href="#DejaVuSans-61" x="271.240234"/>
     <use xlink:href="#DejaVuSans-74" x="332.519531"/>
     <use xlink:href="#DejaVuSans-69" x="371.728516"/>
     <use xlink:href="#DejaVuSans-6f" x="399.511719"/>
     <use xlink:href="#DejaVuSans-6e" x="460.693359"/>
    </g>
   </g>
  </g>
 </g>
 <defs>
  <clipPath id="pe31036cd73">
   <rect x="57.6" y="41.472" width="357.12" height="266.112"/>
  </clipPath>
 </defs>
</svg>
