<?xml version="1.0" encoding="UTF-8" standalone="no"?>
<!DOCTYPE svg PUBLIC "-//W3C//DTD SVG 1.1//EN"
 "http://www.w3.org/Graphics/SVG/1.1/DTD/svg11.dtd">
<!-- Generated by graphviz version 2.43.0 (0)
 -->
<!-- Title: %3 Pages: 1 -->
<svg width="396pt" height="177pt"
 viewBox="0.00 0.00 395.78 176.94" xmlns="http://www.w3.org/2000/svg" xmlns:xlink="http://www.w3.org/1999/xlink">
<g id="graph0" class="graph" transform="scale(1 1) rotate(0) translate(4 172.94)">
<title>%3</title>
<polygon fill="white" stroke="transparent" points="-4,4 -4,-172.94 391.78,-172.94 391.78,4 -4,4"/>
<!-- ball_left -->
<g id="node1" class="node">
<title>ball_left</title>
<polygon fill="lightgray" stroke="black" points="53,-145.41 0,-145.41 0,-127.41 53,-127.41 53,-145.41"/>
<text text-anchor="middle" x="26.5" y="-134.21" font-family="Times,serif" font-size="9.00">ball_left</text>
</g>
<!-- LEFT -->
<g id="node7" class="node">
<title>LEFT</title>
<ellipse fill="lightblue" stroke="black" cx="64.5" cy="-33.94" rx="28.98" ry="28.98"/>
<text text-anchor="middle" x="64.5" y="-31.74" font-family="Times,serif" font-size="9.00">LEFT</text>
</g>
<!-- ball_left&#45;&gt;LEFT -->
<g id="edge3" class="edge">
<title>ball_left&#45;&gt;LEFT</title>
<path fill="none" stroke="red" stroke-width="0.17" d="M29.61,-127.19C34.26,-114.89 43.31,-90.96 51.03,-70.56"/>
<polygon fill="red" stroke="red" stroke-width="0.17" points="54.31,-71.78 54.57,-61.19 47.76,-69.31 54.31,-71.78"/>
</g>
<!-- ball_right -->
<g id="node2" class="node">
<title>ball_right</title>
<polygon fill="lightgray" stroke="black" points="133.5,-145.41 71.5,-145.41 71.5,-127.41 133.5,-127.41 133.5,-145.41"/>
<text text-anchor="middle" x="102.5" y="-134.21" font-family="Times,serif" font-size="9.00">ball_right</text>
</g>
<!-- ball_right&#45;&gt;LEFT -->
<g id="edge1" class="edge">
<title>ball_right&#45;&gt;LEFT</title>
<path fill="none" stroke="green" stroke-width="0.74" d="M99.39,-127.19C94.74,-114.89 85.69,-90.96 77.97,-70.56"/>
<polygon fill="green" stroke="green" stroke-width="0.74" points="81.24,-69.31 74.43,-61.19 74.69,-71.78 81.24,-69.31"/>
</g>
<!-- ball_out_field -->
<g id="node3" class="node">
<title>ball_out_field</title>
<polygon fill="lightgray" stroke="black" points="229.5,-145.41 151.5,-145.41 151.5,-127.41 229.5,-127.41 229.5,-145.41"/>
<text text-anchor="middle" x="190.5" y="-134.21" font-family="Times,serif" font-size="9.00">ball_out_field</text>
</g>
<!-- RIGHT -->
<g id="node6" class="node">
<title>RIGHT</title>
<ellipse fill="lightblue" stroke="black" cx="190.5" cy="-33.94" rx="33.88" ry="33.88"/>
<text text-anchor="middle" x="190.5" y="-31.74" font-family="Times,serif" font-size="9.00">RIGHT</text>
</g>
<!-- ball_out_field&#45;&gt;RIGHT -->
<g id="edge2" class="edge">
<title>ball_out_field&#45;&gt;RIGHT</title>
<path fill="none" stroke="red" stroke-width="0.55" d="M190.5,-127.19C190.5,-116.35 190.5,-96.5 190.5,-77.97"/>
<polygon fill="red" stroke="red" stroke-width="0.55" points="194,-77.88 190.5,-67.88 187,-77.88 194,-77.88"/>
</g>
<!-- NOOP -->
<g id="node4" class="node">
<title>NOOP</title>
<ellipse fill="lightblue" stroke="black" cx="280.5" cy="-136.41" rx="32.55" ry="32.55"/>
<text text-anchor="middle" x="280.5" y="-134.21" font-family="Times,serif" font-size="9.00">NOOP</text>
</g>
<!-- FIRE -->
<g id="node5" class="node">
<title>FIRE</title>
<ellipse fill="lightblue" stroke="black" cx="359.5" cy="-136.41" rx="28.07" ry="28.07"/>
<text text-anchor="middle" x="359.5" y="-134.21" font-family="Times,serif" font-size="9.00">FIRE</text>
</g>
</g>
</svg>
