<?xml version="1.0" encoding="UTF-8" standalone="no"?>
<!DOCTYPE svg PUBLIC "-//W3C//DTD SVG 1.1//EN"
 "http://www.w3.org/Graphics/SVG/1.1/DTD/svg11.dtd">
<!-- Generated by graphviz version 2.43.0 (0)
 -->
<!-- Title: %3 Pages: 1 -->
<svg width="1642pt" height="570pt"
 viewBox="0.00 0.00 1641.74 569.96" xmlns="http://www.w3.org/2000/svg" xmlns:xlink="http://www.w3.org/1999/xlink">
<g id="graph0" class="graph" transform="scale(1 1) rotate(0) translate(4 565.96)">
<title>%3</title>
<polygon fill="white" stroke="transparent" points="-4,4 -4,-565.96 1637.74,-565.96 1637.74,4 -4,4"/>
<!-- ball_direction -->
<g id="node1" class="node">
<title>ball_direction</title>
<polygon fill="lightgray" stroke="black" points="218.2,-497.42 138.2,-497.42 138.2,-479.42 218.2,-479.42 218.2,-497.42"/>
<text text-anchor="middle" x="178.2" y="-486.22" font-family="Times,serif" font-size="9.00">ball_direction</text>
</g>
<!-- RIGHTFIRE -->
<g id="node13" class="node">
<title>RIGHTFIRE</title>
<ellipse fill="lightblue" stroke="black" cx="50.2" cy="-318.78" rx="50.41" ry="50.41"/>
<text text-anchor="middle" x="50.2" y="-316.58" font-family="Times,serif" font-size="9.00">RIGHTFIRE</text>
</g>
<!-- ball_direction&#45;&gt;RIGHTFIRE -->
<g id="edge2" class="edge">
<title>ball_direction&#45;&gt;RIGHTFIRE</title>
<path fill="none" stroke="red" stroke-width="0.17" stroke-dasharray="1,5" d="M172.03,-479.34C156.83,-459.43 116.65,-406.81 86.57,-367.4"/>
<polygon fill="red" stroke="red" stroke-width="0.17" points="89.16,-365.04 80.31,-359.21 83.6,-369.28 89.16,-365.04"/>
</g>
<!-- UPRIGHTFIRE -->
<g id="node16" class="node">
<title>UPRIGHTFIRE</title>
<ellipse fill="lightblue" stroke="black" cx="178.2" cy="-318.78" rx="60.21" ry="60.21"/>
<text text-anchor="middle" x="178.2" y="-316.58" font-family="Times,serif" font-size="9.00">UPRIGHTFIRE</text>
</g>
<!-- ball_direction&#45;&gt;UPRIGHTFIRE -->
<g id="edge1" class="edge">
<title>ball_direction&#45;&gt;UPRIGHTFIRE</title>
<path fill="none" stroke="red" stroke-width="0.48" d="M178.2,-479.34C178.2,-462.97 178.2,-424.47 178.2,-389.39"/>
<polygon fill="red" stroke="red" stroke-width="0.48" points="181.7,-389.13 178.2,-379.13 174.7,-389.13 181.7,-389.13"/>
</g>
<!-- 687 -->
<g id="node22" class="node">
<title>687</title>
<ellipse fill="white" stroke="black" cx="281.2" cy="-318.78" rx="25" ry="25"/>
<text text-anchor="middle" x="281.2" y="-316.58" font-family="Times,serif" font-size="9.00">687</text>
</g>
<!-- ball_direction&#45;&gt;687 -->
<g id="edge4" class="edge">
<title>ball_direction&#45;&gt;687</title>
<path fill="none" stroke="red" stroke-width="0.28" d="M183.52,-479.33C195.27,-461.4 224.2,-416.9 247.2,-378.88 252.96,-369.37 259.08,-358.87 264.51,-349.4"/>
<polygon fill="red" stroke="red" stroke-width="0.28" points="267.55,-351.12 269.47,-340.7 261.47,-347.65 267.55,-351.12"/>
</g>
<!-- NOOP -->
<g id="node2" class="node">
<title>NOOP</title>
<ellipse fill="lightblue" stroke="black" cx="269.2" cy="-488.42" rx="32.55" ry="32.55"/>
<text text-anchor="middle" x="269.2" y="-486.22" font-family="Times,serif" font-size="9.00">NOOP</text>
</g>
<!-- FIRE -->
<g id="node3" class="node">
<title>FIRE</title>
<ellipse fill="lightblue" stroke="black" cx="348.2" cy="-488.42" rx="28.07" ry="28.07"/>
<text text-anchor="middle" x="348.2" y="-486.22" font-family="Times,serif" font-size="9.00">FIRE</text>
</g>
<!-- UP -->
<g id="node4" class="node">
<title>UP</title>
<ellipse fill="lightblue" stroke="black" cx="415.2" cy="-488.42" rx="21.43" ry="21.43"/>
<text text-anchor="middle" x="415.2" y="-486.22" font-family="Times,serif" font-size="9.00">UP</text>
</g>
<!-- RIGHT -->
<g id="node5" class="node">
<title>RIGHT</title>
<ellipse fill="lightblue" stroke="black" cx="488.2" cy="-488.42" rx="33.88" ry="33.88"/>
<text text-anchor="middle" x="488.2" y="-486.22" font-family="Times,serif" font-size="9.00">RIGHT</text>
</g>
<!-- LEFT -->
<g id="node6" class="node">
<title>LEFT</title>
<ellipse fill="lightblue" stroke="black" cx="569.2" cy="-488.42" rx="28.98" ry="28.98"/>
<text text-anchor="middle" x="569.2" y="-486.22" font-family="Times,serif" font-size="9.00">LEFT</text>
</g>
<!-- DOWN -->
<g id="node7" class="node">
<title>DOWN</title>
<ellipse fill="lightblue" stroke="black" cx="651.2" cy="-488.42" rx="34.8" ry="34.8"/>
<text text-anchor="middle" x="651.2" y="-486.22" font-family="Times,serif" font-size="9.00">DOWN</text>
</g>
<!-- 380 -->
<g id="node20" class="node">
<title>380</title>
<ellipse fill="white" stroke="black" cx="651.2" cy="-318.78" rx="25" ry="25"/>
<text text-anchor="middle" x="651.2" y="-316.58" font-family="Times,serif" font-size="9.00">380</text>
</g>
<!-- DOWN&#45;&gt;380 -->
<g id="edge6" class="edge">
<title>DOWN&#45;&gt;380</title>
<path fill="none" stroke="green" stroke-width="0.37" d="M651.2,-453.5C651.2,-424.44 651.2,-382.81 651.2,-353.74"/>
<polygon fill="green" stroke="green" stroke-width="0.37" points="654.7,-353.65 651.2,-343.65 647.7,-353.65 654.7,-353.65"/>
</g>
<!-- UPRIGHT -->
<g id="node8" class="node">
<title>UPRIGHT</title>
<ellipse fill="lightblue" stroke="black" cx="747.2" cy="-488.42" rx="43.68" ry="43.68"/>
<text text-anchor="middle" x="747.2" y="-486.22" font-family="Times,serif" font-size="9.00">UPRIGHT</text>
</g>
<!-- UPLEFT -->
<g id="node9" class="node">
<title>UPLEFT</title>
<ellipse fill="lightblue" stroke="black" cx="848.2" cy="-488.42" rx="38.78" ry="38.78"/>
<text text-anchor="middle" x="848.2" y="-486.22" font-family="Times,serif" font-size="9.00">UPLEFT</text>
</g>
<!-- DOWNRIGHT -->
<g id="node10" class="node">
<title>DOWNRIGHT</title>
<ellipse fill="lightblue" stroke="black" cx="961.2" cy="-488.42" rx="56.64" ry="56.64"/>
<text text-anchor="middle" x="961.2" y="-486.22" font-family="Times,serif" font-size="9.00">DOWNRIGHT</text>
</g>
<!-- DOWNLEFT -->
<g id="node11" class="node">
<title>DOWNLEFT</title>
<ellipse fill="lightblue" stroke="black" cx="228.2" cy="-68.59" rx="52.15" ry="52.15"/>
<text text-anchor="middle" x="228.2" y="-66.39" font-family="Times,serif" font-size="9.00">DOWNLEFT</text>
</g>
<!-- UPFIRE -->
<g id="node12" class="node">
<title>UPFIRE</title>
<ellipse fill="lightblue" stroke="black" cx="1073.2" cy="-488.42" rx="37.45" ry="37.45"/>
<text text-anchor="middle" x="1073.2" y="-486.22" font-family="Times,serif" font-size="9.00">UPFIRE</text>
</g>
<!-- LEFTFIRE -->
<g id="node14" class="node">
<title>LEFTFIRE</title>
<ellipse fill="lightblue" stroke="black" cx="1174.2" cy="-488.42" rx="45.92" ry="45.92"/>
<text text-anchor="middle" x="1174.2" y="-486.22" font-family="Times,serif" font-size="9.00">LEFTFIRE</text>
</g>
<!-- DOWNFIRE -->
<g id="node15" class="node">
<title>DOWNFIRE</title>
<ellipse fill="lightblue" stroke="black" cx="1289.2" cy="-488.42" rx="50.82" ry="50.82"/>
<text text-anchor="middle" x="1289.2" y="-486.22" font-family="Times,serif" font-size="9.00">DOWNFIRE</text>
</g>
<!-- UPLEFTFIRE -->
<g id="node17" class="node">
<title>UPLEFTFIRE</title>
<ellipse fill="lightblue" stroke="black" cx="1413.2" cy="-488.42" rx="55.31" ry="55.31"/>
<text text-anchor="middle" x="1413.2" y="-486.22" font-family="Times,serif" font-size="9.00">UPLEFTFIRE</text>
</g>
<!-- DOWNRIGHTFIRE -->
<g id="node18" class="node">
<title>DOWNRIGHTFIRE</title>
<ellipse fill="lightblue" stroke="black" cx="1560.2" cy="-488.42" rx="73.58" ry="73.58"/>
<text text-anchor="middle" x="1560.2" y="-486.22" font-family="Times,serif" font-size="9.00">DOWNRIGHTFIRE</text>
</g>
<!-- DOWNLEFTFIRE -->
<g id="node19" class="node">
<title>DOWNLEFTFIRE</title>
<ellipse fill="lightblue" stroke="black" cx="367.2" cy="-68.59" rx="68.68" ry="68.68"/>
<text text-anchor="middle" x="367.2" y="-66.39" font-family="Times,serif" font-size="9.00">DOWNLEFTFIRE</text>
</g>
<!-- 648 -->
<g id="node21" class="node">
<title>648</title>
<ellipse fill="white" stroke="black" cx="357.2" cy="-197.93" rx="25" ry="25"/>
<text text-anchor="middle" x="357.2" y="-195.73" font-family="Times,serif" font-size="9.00">648</text>
</g>
<!-- 648&#45;&gt;DOWNLEFTFIRE -->
<g id="edge3" class="edge">
<title>648&#45;&gt;DOWNLEFTFIRE</title>
<path fill="none" stroke="green" stroke-width="0.37" d="M359.09,-172.98C359.68,-165.41 360.37,-156.6 361.1,-147.37"/>
<polygon fill="green" stroke="green" stroke-width="0.37" points="364.6,-147.48 361.89,-137.23 357.62,-146.93 364.6,-147.48"/>
</g>
<!-- 687&#45;&gt;DOWNLEFT -->
<g id="edge7" class="edge">
<title>687&#45;&gt;DOWNLEFT</title>
<path fill="none" stroke="red" stroke-width="0.11" stroke-dasharray="1,5" d="M271.67,-295.53C263.92,-276.52 253.29,-248.26 247.2,-222.68 240.14,-192.97 235.6,-159.37 232.74,-131.22"/>
<polygon fill="red" stroke="red" stroke-width="0.11" points="236.21,-130.73 231.76,-121.12 229.24,-131.41 236.21,-130.73"/>
</g>
<!-- 687&#45;&gt;648 -->
<g id="edge5" class="edge">
<title>687&#45;&gt;648</title>
<path fill="none" stroke="green" stroke-width="0.27" d="M294.1,-297.62C306.38,-278.41 325,-249.29 338.83,-227.66"/>
<polygon fill="green" stroke="green" stroke-width="0.27" points="341.81,-229.5 344.25,-219.19 335.91,-225.73 341.81,-229.5"/>
</g>
<!-- 895 -->
<g id="node23" class="node">
<title>895</title>
<ellipse fill="white" stroke="black" cx="281.2" cy="-197.93" rx="25" ry="25"/>
<text text-anchor="middle" x="281.2" y="-195.73" font-family="Times,serif" font-size="9.00">895</text>
</g>
<!-- 687&#45;&gt;895 -->
<g id="edge8" class="edge">
<title>687&#45;&gt;895</title>
<path fill="none" stroke="green" stroke-width="0.25" d="M281.2,-294.01C281.2,-276.56 281.2,-252.59 281.2,-233.08"/>
<polygon fill="green" stroke="green" stroke-width="0.25" points="284.7,-233.06 281.2,-223.06 277.7,-233.06 284.7,-233.06"/>
</g>
<!-- 895&#45;&gt;DOWNLEFT -->
<g id="edge9" class="edge">
<title>895&#45;&gt;DOWNLEFT</title>
<path fill="none" stroke="red" stroke-width="0.28" d="M271.97,-174.75C266.39,-161.34 259,-143.58 251.89,-126.49"/>
<polygon fill="red" stroke="red" stroke-width="0.28" points="255.05,-124.98 247.98,-117.09 248.59,-127.67 255.05,-124.98"/>
</g>
</g>
</svg>
