<?xml version="1.0" encoding="UTF-8" standalone="no"?>
<!DOCTYPE svg PUBLIC "-//W3C//DTD SVG 1.1//EN"
 "http://www.w3.org/Graphics/SVG/1.1/DTD/svg11.dtd">
<!-- Generated by graphviz version 2.43.0 (0)
 -->
<!-- Title: %3 Pages: 1 -->
<svg width="1884pt" height="498pt"
 viewBox="0.00 0.00 1883.50 497.84" xmlns="http://www.w3.org/2000/svg" xmlns:xlink="http://www.w3.org/1999/xlink">
<g id="graph0" class="graph" transform="scale(1 1) rotate(0) translate(4 493.84)">
<title>%3</title>
<polygon fill="white" stroke="transparent" points="-4,4 -4,-493.84 1879.5,-493.84 1879.5,4 -4,4"/>
<!-- ball_direction -->
<g id="node1" class="node">
<title>ball_direction</title>
<polygon fill="lightgray" stroke="black" points="131.91,-425.3 51.91,-425.3 51.91,-407.3 131.91,-407.3 131.91,-425.3"/>
<text text-anchor="middle" x="91.91" y="-414.1" font-family="Times,serif" font-size="9.00">ball_direction</text>
</g>
<!-- 62 -->
<g id="node19" class="node">
<title>62</title>
<ellipse fill="white" stroke="black" cx="58.91" cy="-277.77" rx="20.51" ry="20.51"/>
<text text-anchor="middle" x="58.91" y="-275.57" font-family="Times,serif" font-size="9.00">62</text>
</g>
<!-- ball_direction&#45;&gt;62 -->
<g id="edge1" class="edge">
<title>ball_direction&#45;&gt;62</title>
<path fill="none" stroke="green" stroke-width="1.26" d="M89.95,-407.17C85.33,-388.08 73.63,-339.65 65.98,-308.03"/>
<polygon fill="green" stroke="green" stroke-width="1.26" points="69.32,-306.92 63.56,-298.02 62.51,-308.56 69.32,-306.92"/>
</g>
<!-- 1304 -->
<g id="node20" class="node">
<title>1304</title>
<ellipse fill="white" stroke="black" cx="129.91" cy="-277.77" rx="28.98" ry="28.98"/>
<text text-anchor="middle" x="129.91" y="-275.57" font-family="Times,serif" font-size="9.00">1304</text>
</g>
<!-- ball_direction&#45;&gt;1304 -->
<g id="edge2" class="edge">
<title>ball_direction&#45;&gt;1304</title>
<path fill="none" stroke="red" stroke-width="0.2" d="M94.17,-407.17C99.08,-389.55 110.94,-346.95 119.65,-315.62"/>
<polygon fill="red" stroke="red" stroke-width="0.2" points="123.05,-316.47 122.36,-305.9 116.31,-314.59 123.05,-316.47"/>
</g>
<!-- NOOP -->
<g id="node2" class="node">
<title>NOOP</title>
<ellipse fill="lightblue" stroke="black" cx="182.91" cy="-416.3" rx="32.55" ry="32.55"/>
<text text-anchor="middle" x="182.91" y="-414.1" font-family="Times,serif" font-size="9.00">NOOP</text>
</g>
<!-- FIRE -->
<g id="node3" class="node">
<title>FIRE</title>
<ellipse fill="lightblue" stroke="black" cx="261.91" cy="-416.3" rx="28.07" ry="28.07"/>
<text text-anchor="middle" x="261.91" y="-414.1" font-family="Times,serif" font-size="9.00">FIRE</text>
</g>
<!-- RIGHT -->
<g id="node4" class="node">
<title>RIGHT</title>
<ellipse fill="lightblue" stroke="black" cx="341.91" cy="-416.3" rx="33.88" ry="33.88"/>
<text text-anchor="middle" x="341.91" y="-414.1" font-family="Times,serif" font-size="9.00">RIGHT</text>
</g>
<!-- LEFT -->
<g id="node5" class="node">
<title>LEFT</title>
<ellipse fill="lightblue" stroke="black" cx="422.91" cy="-416.3" rx="28.98" ry="28.98"/>
<text text-anchor="middle" x="422.91" y="-414.1" font-family="Times,serif" font-size="9.00">LEFT</text>
</g>
<!-- RIGHTFIRE -->
<g id="node6" class="node">
<title>RIGHTFIRE</title>
<ellipse fill="lightblue" stroke="black" cx="519.91" cy="-416.3" rx="50.41" ry="50.41"/>
<text text-anchor="middle" x="519.91" y="-414.1" font-family="Times,serif" font-size="9.00">RIGHTFIRE</text>
</g>
<!-- LEFTRIGHTFIRE -->
<g id="node7" class="node">
<title>LEFTRIGHTFIRE</title>
<ellipse fill="lightblue" stroke="black" cx="655.91" cy="-416.3" rx="67.76" ry="67.76"/>
<text text-anchor="middle" x="655.91" y="-414.1" font-family="Times,serif" font-size="9.00">LEFTRIGHTFIRE</text>
</g>
<!-- UPRIGHT -->
<g id="node8" class="node">
<title>UPRIGHT</title>
<ellipse fill="lightblue" stroke="black" cx="785.91" cy="-416.3" rx="43.68" ry="43.68"/>
<text text-anchor="middle" x="785.91" y="-414.1" font-family="Times,serif" font-size="9.00">UPRIGHT</text>
</g>
<!-- UPLEFT -->
<g id="node9" class="node">
<title>UPLEFT</title>
<ellipse fill="lightblue" stroke="black" cx="886.91" cy="-416.3" rx="38.78" ry="38.78"/>
<text text-anchor="middle" x="886.91" y="-414.1" font-family="Times,serif" font-size="9.00">UPLEFT</text>
</g>
<!-- DOWNRIGHT -->
<g id="node10" class="node">
<title>DOWNRIGHT</title>
<ellipse fill="lightblue" stroke="black" cx="999.91" cy="-416.3" rx="56.64" ry="56.64"/>
<text text-anchor="middle" x="999.91" y="-414.1" font-family="Times,serif" font-size="9.00">DOWNRIGHT</text>
</g>
<!-- DOWNLEFT -->
<g id="node11" class="node">
<title>DOWNLEFT</title>
<ellipse fill="lightblue" stroke="black" cx="1126.91" cy="-416.3" rx="52.15" ry="52.15"/>
<text text-anchor="middle" x="1126.91" y="-414.1" font-family="Times,serif" font-size="9.00">DOWNLEFT</text>
</g>
<!-- UPFIRE -->
<g id="node12" class="node">
<title>UPFIRE</title>
<ellipse fill="lightblue" stroke="black" cx="134.91" cy="-175.3" rx="37.45" ry="37.45"/>
<text text-anchor="middle" x="134.91" y="-173.1" font-family="Times,serif" font-size="9.00">UPFIRE</text>
</g>
<!-- LEFTFIRE -->
<g id="node13" class="node">
<title>LEFTFIRE</title>
<ellipse fill="lightblue" stroke="black" cx="1242.91" cy="-416.3" rx="45.92" ry="45.92"/>
<text text-anchor="middle" x="1242.91" y="-414.1" font-family="Times,serif" font-size="9.00">LEFTFIRE</text>
</g>
<!-- DOWNFIRE -->
<g id="node14" class="node">
<title>DOWNFIRE</title>
<ellipse fill="lightblue" stroke="black" cx="50.91" cy="-50.91" rx="50.82" ry="50.82"/>
<text text-anchor="middle" x="50.91" y="-48.71" font-family="Times,serif" font-size="9.00">DOWNFIRE</text>
</g>
<!-- UPRIGHTFIRE -->
<g id="node15" class="node">
<title>UPRIGHTFIRE</title>
<ellipse fill="lightblue" stroke="black" cx="1366.91" cy="-416.3" rx="60.21" ry="60.21"/>
<text text-anchor="middle" x="1366.91" y="-414.1" font-family="Times,serif" font-size="9.00">UPRIGHTFIRE</text>
</g>
<!-- UPLEFTFIRE -->
<g id="node16" class="node">
<title>UPLEFTFIRE</title>
<ellipse fill="lightblue" stroke="black" cx="1499.91" cy="-416.3" rx="55.31" ry="55.31"/>
<text text-anchor="middle" x="1499.91" y="-414.1" font-family="Times,serif" font-size="9.00">UPLEFTFIRE</text>
</g>
<!-- DOWNRIGHTFIRE -->
<g id="node17" class="node">
<title>DOWNRIGHTFIRE</title>
<ellipse fill="lightblue" stroke="black" cx="1646.91" cy="-416.3" rx="73.58" ry="73.58"/>
<text text-anchor="middle" x="1646.91" y="-414.1" font-family="Times,serif" font-size="9.00">DOWNRIGHTFIRE</text>
</g>
<!-- DOWNLEFTFIRE -->
<g id="node18" class="node">
<title>DOWNLEFTFIRE</title>
<ellipse fill="lightblue" stroke="black" cx="1806.91" cy="-416.3" rx="68.68" ry="68.68"/>
<text text-anchor="middle" x="1806.91" y="-414.1" font-family="Times,serif" font-size="9.00">DOWNLEFTFIRE</text>
</g>
<!-- 1423 -->
<g id="node21" class="node">
<title>1423</title>
<ellipse fill="white" stroke="black" cx="50.91" cy="-175.3" rx="28.98" ry="28.98"/>
<text text-anchor="middle" x="50.91" y="-173.1" font-family="Times,serif" font-size="9.00">1423</text>
</g>
<!-- 62&#45;&gt;1423 -->
<g id="edge4" class="edge">
<title>62&#45;&gt;1423</title>
<path fill="none" stroke="green" stroke-width="0.65" d="M57.33,-256.92C56.37,-244.86 55.11,-229.07 53.97,-214.65"/>
<polygon fill="green" stroke="green" stroke-width="0.65" points="57.44,-214.17 53.16,-204.48 50.46,-214.72 57.44,-214.17"/>
</g>
<!-- 1304&#45;&gt;UPFIRE -->
<g id="edge3" class="edge">
<title>1304&#45;&gt;UPFIRE</title>
<path fill="none" stroke="green" stroke-width="0.23" d="M131.3,-248.78C131.7,-240.77 132.15,-231.81 132.59,-223"/>
<polygon fill="green" stroke="green" stroke-width="0.23" points="136.09,-222.95 133.1,-212.78 129.1,-222.6 136.09,-222.95"/>
</g>
<!-- 1423&#45;&gt;DOWNFIRE -->
<g id="edge5" class="edge">
<title>1423&#45;&gt;DOWNFIRE</title>
<path fill="none" stroke="green" stroke-width="0.65" d="M50.91,-146.22C50.91,-135.97 50.91,-123.94 50.91,-111.96"/>
<polygon fill="green" stroke="green" stroke-width="0.65" points="54.41,-111.96 50.91,-101.96 47.41,-111.96 54.41,-111.96"/>
</g>
</g>
</svg>
