<?xml version="1.0" encoding="UTF-8" standalone="no"?>
<!DOCTYPE svg PUBLIC "-//W3C//DTD SVG 1.1//EN"
 "http://www.w3.org/Graphics/SVG/1.1/DTD/svg11.dtd">
<!-- Generated by graphviz version 2.43.0 (0)
 -->
<!-- Title: %3 Pages: 1 -->
<svg width="2072pt" height="296pt"
 viewBox="0.00 0.00 2071.83 295.73" xmlns="http://www.w3.org/2000/svg" xmlns:xlink="http://www.w3.org/1999/xlink">
<g id="graph0" class="graph" transform="scale(1 1) rotate(0) translate(4 291.73)">
<title>%3</title>
<polygon fill="white" stroke="transparent" points="-4,4 -4,-291.73 2067.83,-291.73 2067.83,4 -4,4"/>
<!-- ball_left -->
<g id="node1" class="node">
<title>ball_left</title>
<polygon fill="lightgray" stroke="black" points="70.34,-223.19 17.34,-223.19 17.34,-205.19 70.34,-205.19 70.34,-223.19"/>
<text text-anchor="middle" x="43.84" y="-211.99" font-family="Times,serif" font-size="9.00">ball_left</text>
</g>
<!-- UPRIGHT -->
<g id="node10" class="node">
<title>UPRIGHT</title>
<ellipse fill="lightblue" stroke="black" cx="43.84" cy="-52.33" rx="43.68" ry="43.68"/>
<text text-anchor="middle" x="43.84" y="-50.13" font-family="Times,serif" font-size="9.00">UPRIGHT</text>
</g>
<!-- ball_left&#45;&gt;UPRIGHT -->
<g id="edge2" class="edge">
<title>ball_left&#45;&gt;UPRIGHT</title>
<path fill="none" stroke="green" stroke-width="0.62" d="M43.84,-205.04C43.84,-187.09 43.84,-142.85 43.84,-106.75"/>
<polygon fill="green" stroke="green" stroke-width="0.62" points="47.34,-106.33 43.84,-96.33 40.34,-106.33 47.34,-106.33"/>
</g>
<!-- ball_right -->
<g id="node2" class="node">
<title>ball_right</title>
<polygon fill="lightgray" stroke="black" points="188.84,-223.19 126.84,-223.19 126.84,-205.19 188.84,-205.19 188.84,-223.19"/>
<text text-anchor="middle" x="157.84" y="-211.99" font-family="Times,serif" font-size="9.00">ball_right</text>
</g>
<!-- DOWNLEFT -->
<g id="node13" class="node">
<title>DOWNLEFT</title>
<ellipse fill="lightblue" stroke="black" cx="157.84" cy="-52.33" rx="52.15" ry="52.15"/>
<text text-anchor="middle" x="157.84" y="-50.13" font-family="Times,serif" font-size="9.00">DOWNLEFT</text>
</g>
<!-- ball_right&#45;&gt;DOWNLEFT -->
<g id="edge1" class="edge">
<title>ball_right&#45;&gt;DOWNLEFT</title>
<path fill="none" stroke="green" stroke-width="1.09" d="M157.84,-205.04C157.84,-188.42 157.84,-149.27 157.84,-114.9"/>
<polygon fill="green" stroke="green" stroke-width="1.09" points="161.34,-114.89 157.84,-104.89 154.34,-114.89 161.34,-114.89"/>
</g>
<!-- ball_out_field -->
<g id="node3" class="node">
<title>ball_out_field</title>
<polygon fill="lightgray" stroke="black" points="284.84,-223.19 206.84,-223.19 206.84,-205.19 284.84,-205.19 284.84,-223.19"/>
<text text-anchor="middle" x="245.84" y="-211.99" font-family="Times,serif" font-size="9.00">ball_out_field</text>
</g>
<!-- NOOP -->
<g id="node4" class="node">
<title>NOOP</title>
<ellipse fill="lightblue" stroke="black" cx="335.84" cy="-214.19" rx="32.55" ry="32.55"/>
<text text-anchor="middle" x="335.84" y="-211.99" font-family="Times,serif" font-size="9.00">NOOP</text>
</g>
<!-- FIRE -->
<g id="node5" class="node">
<title>FIRE</title>
<ellipse fill="lightblue" stroke="black" cx="414.84" cy="-214.19" rx="28.07" ry="28.07"/>
<text text-anchor="middle" x="414.84" y="-211.99" font-family="Times,serif" font-size="9.00">FIRE</text>
</g>
<!-- RIGHT -->
<g id="node6" class="node">
<title>RIGHT</title>
<ellipse fill="lightblue" stroke="black" cx="494.84" cy="-214.19" rx="33.88" ry="33.88"/>
<text text-anchor="middle" x="494.84" y="-211.99" font-family="Times,serif" font-size="9.00">RIGHT</text>
</g>
<!-- LEFT -->
<g id="node7" class="node">
<title>LEFT</title>
<ellipse fill="lightblue" stroke="black" cx="575.84" cy="-214.19" rx="28.98" ry="28.98"/>
<text text-anchor="middle" x="575.84" y="-211.99" font-family="Times,serif" font-size="9.00">LEFT</text>
</g>
<!-- RIGHTFIRE -->
<g id="node8" class="node">
<title>RIGHTFIRE</title>
<ellipse fill="lightblue" stroke="black" cx="672.84" cy="-214.19" rx="50.41" ry="50.41"/>
<text text-anchor="middle" x="672.84" y="-211.99" font-family="Times,serif" font-size="9.00">RIGHTFIRE</text>
</g>
<!-- LEFTRIGHTFIRE -->
<g id="node9" class="node">
<title>LEFTRIGHTFIRE</title>
<ellipse fill="lightblue" stroke="black" cx="808.84" cy="-214.19" rx="67.76" ry="67.76"/>
<text text-anchor="middle" x="808.84" y="-211.99" font-family="Times,serif" font-size="9.00">LEFTRIGHTFIRE</text>
</g>
<!-- UPLEFT -->
<g id="node11" class="node">
<title>UPLEFT</title>
<ellipse fill="lightblue" stroke="black" cx="933.84" cy="-214.19" rx="38.78" ry="38.78"/>
<text text-anchor="middle" x="933.84" y="-211.99" font-family="Times,serif" font-size="9.00">UPLEFT</text>
</g>
<!-- DOWNRIGHT -->
<g id="node12" class="node">
<title>DOWNRIGHT</title>
<ellipse fill="lightblue" stroke="black" cx="1046.84" cy="-214.19" rx="56.64" ry="56.64"/>
<text text-anchor="middle" x="1046.84" y="-211.99" font-family="Times,serif" font-size="9.00">DOWNRIGHT</text>
</g>
<!-- UPFIRE -->
<g id="node14" class="node">
<title>UPFIRE</title>
<ellipse fill="lightblue" stroke="black" cx="1145.84" cy="-52.33" rx="37.45" ry="37.45"/>
<text text-anchor="middle" x="1145.84" y="-50.13" font-family="Times,serif" font-size="9.00">UPFIRE</text>
</g>
<!-- LEFTFIRE -->
<g id="node15" class="node">
<title>LEFTFIRE</title>
<ellipse fill="lightblue" stroke="black" cx="1234.84" cy="-214.19" rx="45.92" ry="45.92"/>
<text text-anchor="middle" x="1234.84" y="-211.99" font-family="Times,serif" font-size="9.00">LEFTFIRE</text>
</g>
<!-- DOWNFIRE -->
<g id="node16" class="node">
<title>DOWNFIRE</title>
<ellipse fill="lightblue" stroke="black" cx="1349.84" cy="-214.19" rx="50.82" ry="50.82"/>
<text text-anchor="middle" x="1349.84" y="-211.99" font-family="Times,serif" font-size="9.00">DOWNFIRE</text>
</g>
<!-- UPRIGHTFIRE -->
<g id="node17" class="node">
<title>UPRIGHTFIRE</title>
<ellipse fill="lightblue" stroke="black" cx="1478.84" cy="-214.19" rx="60.21" ry="60.21"/>
<text text-anchor="middle" x="1478.84" y="-211.99" font-family="Times,serif" font-size="9.00">UPRIGHTFIRE</text>
</g>
<!-- UPLEFTFIRE -->
<g id="node18" class="node">
<title>UPLEFTFIRE</title>
<ellipse fill="lightblue" stroke="black" cx="1611.84" cy="-214.19" rx="55.31" ry="55.31"/>
<text text-anchor="middle" x="1611.84" y="-211.99" font-family="Times,serif" font-size="9.00">UPLEFTFIRE</text>
</g>
<!-- DOWNRIGHTFIRE -->
<g id="node19" class="node">
<title>DOWNRIGHTFIRE</title>
<ellipse fill="lightblue" stroke="black" cx="1758.84" cy="-214.19" rx="73.58" ry="73.58"/>
<text text-anchor="middle" x="1758.84" y="-211.99" font-family="Times,serif" font-size="9.00">DOWNRIGHTFIRE</text>
</g>
<!-- DOWNLEFTFIRE -->
<g id="node20" class="node">
<title>DOWNLEFTFIRE</title>
<ellipse fill="lightblue" stroke="black" cx="1918.84" cy="-214.19" rx="68.68" ry="68.68"/>
<text text-anchor="middle" x="1918.84" y="-211.99" font-family="Times,serif" font-size="9.00">DOWNLEFTFIRE</text>
</g>
<!-- 978 -->
<g id="node21" class="node">
<title>978</title>
<ellipse fill="white" stroke="black" cx="1145.84" cy="-214.19" rx="25" ry="25"/>
<text text-anchor="middle" x="1145.84" y="-211.99" font-family="Times,serif" font-size="9.00">978</text>
</g>
<!-- 978&#45;&gt;UPFIRE -->
<g id="edge3" class="edge">
<title>978&#45;&gt;UPFIRE</title>
<path fill="none" stroke="green" stroke-width="0.33" stroke-dasharray="1,5" d="M1145.84,-189.26C1145.84,-165.73 1145.84,-129.18 1145.84,-99.91"/>
<polygon fill="green" stroke="green" stroke-width="0.33" points="1149.34,-99.89 1145.84,-89.89 1142.34,-99.89 1149.34,-99.89"/>
</g>
<!-- 1395 -->
<g id="node22" class="node">
<title>1395</title>
<ellipse fill="white" stroke="black" cx="2034.84" cy="-214.19" rx="28.98" ry="28.98"/>
<text text-anchor="middle" x="2034.84" y="-211.99" font-family="Times,serif" font-size="9.00">1395</text>
</g>
</g>
</svg>
