<?xml version="1.0" encoding="UTF-8" standalone="no"?>
<!DOCTYPE svg PUBLIC "-//W3C//DTD SVG 1.1//EN"
 "http://www.w3.org/Graphics/SVG/1.1/DTD/svg11.dtd">
<!-- Generated by graphviz version 2.43.0 (0)
 -->
<!-- Title: %3 Pages: 1 -->
<svg width="1682pt" height="570pt"
 viewBox="0.00 0.00 1681.99 569.96" xmlns="http://www.w3.org/2000/svg" xmlns:xlink="http://www.w3.org/1999/xlink">
<g id="graph0" class="graph" transform="scale(1 1) rotate(0) translate(4 565.96)">
<title>%3</title>
<polygon fill="white" stroke="transparent" points="-4,4 -4,-565.96 1677.99,-565.96 1677.99,4 -4,4"/>
<!-- ball_direction -->
<g id="node1" class="node">
<title>ball_direction</title>
<polygon fill="lightgray" stroke="black" points="180.41,-497.42 100.41,-497.42 100.41,-479.42 180.41,-479.42 180.41,-497.42"/>
<text text-anchor="middle" x="140.41" y="-486.22" font-family="Times,serif" font-size="9.00">ball_direction</text>
</g>
<!-- LEFT -->
<g id="node6" class="node">
<title>LEFT</title>
<ellipse fill="lightblue" stroke="black" cx="107.41" cy="-56.57" rx="28.98" ry="28.98"/>
<text text-anchor="middle" x="107.41" y="-54.37" font-family="Times,serif" font-size="9.00">LEFT</text>
</g>
<!-- ball_direction&#45;&gt;LEFT -->
<g id="edge1" class="edge">
<title>ball_direction&#45;&gt;LEFT</title>
<path fill="none" stroke="green" stroke-width="0.69" d="M126.31,-479.2C100.99,-463.49 48.57,-426.51 28.41,-378.88 -11.41,-284.86 -7.18,-244.85 28.41,-149.14 38.26,-122.62 59.63,-98.65 77.66,-81.89"/>
<polygon fill="green" stroke="green" stroke-width="0.69" points="80.05,-84.45 85.14,-75.16 75.37,-79.25 80.05,-84.45"/>
</g>
<!-- LEFTFIRE -->
<g id="node14" class="node">
<title>LEFTFIRE</title>
<ellipse fill="lightblue" stroke="black" cx="83.41" cy="-332.92" rx="45.92" ry="45.92"/>
<text text-anchor="middle" x="83.41" y="-330.72" font-family="Times,serif" font-size="9.00">LEFTFIRE</text>
</g>
<!-- ball_direction&#45;&gt;LEFTFIRE -->
<g id="edge12" class="edge">
<title>ball_direction&#45;&gt;LEFTFIRE</title>
<path fill="none" stroke="green" stroke-width="0.2" d="M137.34,-479.17C130.87,-461.75 115.38,-420.02 102.64,-385.73"/>
<polygon fill="green" stroke="green" stroke-width="0.2" points="105.9,-384.44 99.14,-376.29 99.34,-386.88 105.9,-384.44"/>
</g>
<!-- 314 -->
<g id="node21" class="node">
<title>314</title>
<ellipse fill="white" stroke="black" cx="172.41" cy="-332.92" rx="25" ry="25"/>
<text text-anchor="middle" x="172.41" y="-330.72" font-family="Times,serif" font-size="9.00">314</text>
</g>
<!-- ball_direction&#45;&gt;314 -->
<g id="edge2" class="edge">
<title>ball_direction&#45;&gt;314</title>
<path fill="none" stroke="red" stroke-width="0.26" d="M142.13,-479.17C146.44,-458.48 157.9,-403.49 165.42,-367.42"/>
<polygon fill="red" stroke="red" stroke-width="0.26" points="168.91,-367.85 167.52,-357.35 162.06,-366.42 168.91,-367.85"/>
</g>
<!-- 496 -->
<g id="node22" class="node">
<title>496</title>
<ellipse fill="white" stroke="black" cx="259.41" cy="-332.92" rx="25" ry="25"/>
<text text-anchor="middle" x="259.41" y="-330.72" font-family="Times,serif" font-size="9.00">496</text>
</g>
<!-- ball_direction&#45;&gt;496 -->
<g id="edge4" class="edge">
<title>ball_direction&#45;&gt;496</title>
<path fill="none" stroke="green" stroke-width="0.16" d="M146.8,-479.17C163.83,-457.21 210.84,-396.57 238.44,-360.97"/>
<polygon fill="green" stroke="green" stroke-width="0.16" points="241.32,-362.97 244.68,-352.92 235.78,-358.68 241.32,-362.97"/>
</g>
<!-- NOOP -->
<g id="node2" class="node">
<title>NOOP</title>
<ellipse fill="lightblue" stroke="black" cx="334.41" cy="-488.42" rx="32.55" ry="32.55"/>
<text text-anchor="middle" x="334.41" y="-486.22" font-family="Times,serif" font-size="9.00">NOOP</text>
</g>
<!-- FIRE -->
<g id="node3" class="node">
<title>FIRE</title>
<ellipse fill="lightblue" stroke="black" cx="413.41" cy="-488.42" rx="28.07" ry="28.07"/>
<text text-anchor="middle" x="413.41" y="-486.22" font-family="Times,serif" font-size="9.00">FIRE</text>
</g>
<!-- UP -->
<g id="node4" class="node">
<title>UP</title>
<ellipse fill="lightblue" stroke="black" cx="480.41" cy="-488.42" rx="21.43" ry="21.43"/>
<text text-anchor="middle" x="480.41" y="-486.22" font-family="Times,serif" font-size="9.00">UP</text>
</g>
<!-- RIGHT -->
<g id="node5" class="node">
<title>RIGHT</title>
<ellipse fill="lightblue" stroke="black" cx="71.41" cy="-200.05" rx="33.88" ry="33.88"/>
<text text-anchor="middle" x="71.41" y="-197.85" font-family="Times,serif" font-size="9.00">RIGHT</text>
</g>
<!-- DOWN -->
<g id="node7" class="node">
<title>DOWN</title>
<ellipse fill="lightblue" stroke="black" cx="554.41" cy="-488.42" rx="34.8" ry="34.8"/>
<text text-anchor="middle" x="554.41" y="-486.22" font-family="Times,serif" font-size="9.00">DOWN</text>
</g>
<!-- UPRIGHT -->
<g id="node8" class="node">
<title>UPRIGHT</title>
<ellipse fill="lightblue" stroke="black" cx="650.41" cy="-488.42" rx="43.68" ry="43.68"/>
<text text-anchor="middle" x="650.41" y="-486.22" font-family="Times,serif" font-size="9.00">UPRIGHT</text>
</g>
<!-- UPLEFT -->
<g id="node9" class="node">
<title>UPLEFT</title>
<ellipse fill="lightblue" stroke="black" cx="732.41" cy="-332.92" rx="38.78" ry="38.78"/>
<text text-anchor="middle" x="732.41" y="-330.72" font-family="Times,serif" font-size="9.00">UPLEFT</text>
</g>
<!-- DOWNRIGHT -->
<g id="node10" class="node">
<title>DOWNRIGHT</title>
<ellipse fill="lightblue" stroke="black" cx="211.41" cy="-56.57" rx="56.64" ry="56.64"/>
<text text-anchor="middle" x="211.41" y="-54.37" font-family="Times,serif" font-size="9.00">DOWNRIGHT</text>
</g>
<!-- DOWNLEFT -->
<g id="node11" class="node">
<title>DOWNLEFT</title>
<ellipse fill="lightblue" stroke="black" cx="823.41" cy="-488.42" rx="52.15" ry="52.15"/>
<text text-anchor="middle" x="823.41" y="-486.22" font-family="Times,serif" font-size="9.00">DOWNLEFT</text>
</g>
<!-- UPFIRE -->
<g id="node12" class="node">
<title>UPFIRE</title>
<ellipse fill="lightblue" stroke="black" cx="931.41" cy="-488.42" rx="37.45" ry="37.45"/>
<text text-anchor="middle" x="931.41" y="-486.22" font-family="Times,serif" font-size="9.00">UPFIRE</text>
</g>
<!-- RIGHTFIRE -->
<g id="node13" class="node">
<title>RIGHTFIRE</title>
<ellipse fill="lightblue" stroke="black" cx="1037.41" cy="-488.42" rx="50.41" ry="50.41"/>
<text text-anchor="middle" x="1037.41" y="-486.22" font-family="Times,serif" font-size="9.00">RIGHTFIRE</text>
</g>
<!-- DOWNFIRE -->
<g id="node15" class="node">
<title>DOWNFIRE</title>
<ellipse fill="lightblue" stroke="black" cx="280.41" cy="-200.05" rx="50.82" ry="50.82"/>
<text text-anchor="middle" x="280.41" y="-197.85" font-family="Times,serif" font-size="9.00">DOWNFIRE</text>
</g>
<!-- UPRIGHTFIRE -->
<g id="node16" class="node">
<title>UPRIGHTFIRE</title>
<ellipse fill="lightblue" stroke="black" cx="1165.41" cy="-488.42" rx="60.21" ry="60.21"/>
<text text-anchor="middle" x="1165.41" y="-486.22" font-family="Times,serif" font-size="9.00">UPRIGHTFIRE</text>
</g>
<!-- UPLEFTFIRE -->
<g id="node17" class="node">
<title>UPLEFTFIRE</title>
<ellipse fill="lightblue" stroke="black" cx="1298.41" cy="-488.42" rx="55.31" ry="55.31"/>
<text text-anchor="middle" x="1298.41" y="-486.22" font-family="Times,serif" font-size="9.00">UPLEFTFIRE</text>
</g>
<!-- DOWNRIGHTFIRE -->
<g id="node18" class="node">
<title>DOWNRIGHTFIRE</title>
<ellipse fill="lightblue" stroke="black" cx="1445.41" cy="-488.42" rx="73.58" ry="73.58"/>
<text text-anchor="middle" x="1445.41" y="-486.22" font-family="Times,serif" font-size="9.00">DOWNRIGHTFIRE</text>
</g>
<!-- DOWNLEFTFIRE -->
<g id="node19" class="node">
<title>DOWNLEFTFIRE</title>
<ellipse fill="lightblue" stroke="black" cx="1605.41" cy="-488.42" rx="68.68" ry="68.68"/>
<text text-anchor="middle" x="1605.41" y="-486.22" font-family="Times,serif" font-size="9.00">DOWNLEFTFIRE</text>
</g>
<!-- 91 -->
<g id="node20" class="node">
<title>91</title>
<ellipse fill="white" stroke="black" cx="732.41" cy="-488.42" rx="20.51" ry="20.51"/>
<text text-anchor="middle" x="732.41" y="-486.22" font-family="Times,serif" font-size="9.00">91</text>
</g>
<!-- 91&#45;&gt;UPLEFT -->
<g id="edge6" class="edge">
<title>91&#45;&gt;UPLEFT</title>
<path fill="none" stroke="green" stroke-width="0.31" d="M732.41,-467.67C732.41,-446.18 732.41,-411.03 732.41,-382.16"/>
<polygon fill="green" stroke="green" stroke-width="0.31" points="735.91,-381.84 732.41,-371.84 728.91,-381.84 735.91,-381.84"/>
</g>
<!-- 314&#45;&gt;RIGHT -->
<g id="edge5" class="edge">
<title>314&#45;&gt;RIGHT</title>
<path fill="none" stroke="green" stroke-width="0.17" d="M157.91,-312.62C151.9,-304.66 144.84,-295.34 138.41,-286.96 125.26,-269.84 110.52,-250.92 98.22,-235.19"/>
<polygon fill="green" stroke="green" stroke-width="0.17" points="100.95,-233.01 92.03,-227.29 95.44,-237.32 100.95,-233.01"/>
</g>
<!-- 314&#45;&gt;LEFT -->
<g id="edge3" class="edge">
<title>314&#45;&gt;LEFT</title>
<path fill="none" stroke="red" stroke-width="0.14" stroke-dasharray="1,5" d="M166.55,-308.56C162.51,-292.4 157.07,-270.39 152.41,-250.96 139.42,-196.8 124.9,-133.98 115.96,-94.99"/>
<polygon fill="red" stroke="red" stroke-width="0.14" points="119.34,-94.1 113.7,-85.14 112.52,-95.67 119.34,-94.1"/>
</g>
<!-- 773 -->
<g id="node23" class="node">
<title>773</title>
<ellipse fill="white" stroke="black" cx="186.41" cy="-200.05" rx="25" ry="25"/>
<text text-anchor="middle" x="186.41" y="-197.85" font-family="Times,serif" font-size="9.00">773</text>
</g>
<!-- 314&#45;&gt;773 -->
<g id="edge7" class="edge">
<title>314&#45;&gt;773</title>
<path fill="none" stroke="green" stroke-width="0.44" d="M174.94,-308.22C177.13,-287.78 180.31,-258.02 182.77,-235.04"/>
<polygon fill="green" stroke="green" stroke-width="0.44" points="186.26,-235.33 183.84,-225.01 179.3,-234.59 186.26,-235.33"/>
</g>
<!-- 496&#45;&gt;DOWNFIRE -->
<g id="edge11" class="edge">
<title>496&#45;&gt;DOWNFIRE</title>
<path fill="none" stroke="red" stroke-width="0.35" d="M263.21,-308.22C265.34,-294.92 268.11,-277.68 270.8,-260.92"/>
<polygon fill="red" stroke="red" stroke-width="0.35" points="274.33,-261.02 272.46,-250.59 267.42,-259.91 274.33,-261.02"/>
</g>
<!-- 773&#45;&gt;LEFT -->
<g id="edge8" class="edge">
<title>773&#45;&gt;LEFT</title>
<path fill="none" stroke="green" stroke-width="0.64" d="M174.75,-178.17C161.95,-155.25 141.2,-118.1 126.12,-91.08"/>
<polygon fill="green" stroke="green" stroke-width="0.64" points="129.17,-89.37 121.24,-82.34 123.06,-92.78 129.17,-89.37"/>
</g>
<!-- 773&#45;&gt;DOWNRIGHT -->
<g id="edge10" class="edge">
<title>773&#45;&gt;DOWNRIGHT</title>
<path fill="none" stroke="red" stroke-width="0.2" d="M190.59,-175.37C193.16,-160.83 196.58,-141.44 199.91,-122.6"/>
<polygon fill="red" stroke="red" stroke-width="0.2" points="203.4,-122.98 201.69,-112.52 196.51,-121.76 203.4,-122.98"/>
</g>
<!-- 881 -->
<g id="node24" class="node">
<title>881</title>
<ellipse fill="white" stroke="black" cx="259.41" cy="-488.42" rx="25" ry="25"/>
<text text-anchor="middle" x="259.41" y="-486.22" font-family="Times,serif" font-size="9.00">881</text>
</g>
<!-- 881&#45;&gt;496 -->
<g id="edge9" class="edge">
<title>881&#45;&gt;496</title>
<path fill="none" stroke="red" stroke-width="0.28" d="M259.41,-463.44C259.41,-437.76 259.41,-396.79 259.41,-367.82"/>
<polygon fill="red" stroke="red" stroke-width="0.28" points="262.91,-367.74 259.41,-357.74 255.91,-367.74 262.91,-367.74"/>
</g>
</g>
</svg>
