<?xml version="1.0" encoding="UTF-8" standalone="no"?>
<!DOCTYPE svg PUBLIC "-//W3C//DTD SVG 1.1//EN"
 "http://www.w3.org/Graphics/SVG/1.1/DTD/svg11.dtd">
<!-- Generated by graphviz version 2.43.0 (0)
 -->
<!-- Title: %3 Pages: 1 -->
<svg width="2013pt" height="687pt"
 viewBox="0.00 0.00 2013.25 687.22" xmlns="http://www.w3.org/2000/svg" xmlns:xlink="http://www.w3.org/1999/xlink">
<g id="graph0" class="graph" transform="scale(1 1) rotate(0) translate(4 683.22)">
<title>%3</title>
<polygon fill="white" stroke="transparent" points="-4,4 -4,-683.22 2009.25,-683.22 2009.25,4 -4,4"/>
<!-- ball_left -->
<g id="node1" class="node">
<title>ball_left</title>
<polygon fill="lightgray" stroke="black" points="53,-614.68 0,-614.68 0,-596.68 53,-596.68 53,-614.68"/>
<text text-anchor="middle" x="26.5" y="-603.48" font-family="Times,serif" font-size="9.00">ball_left</text>
</g>
<!-- ball_right -->
<g id="node2" class="node">
<title>ball_right</title>
<polygon fill="lightgray" stroke="black" points="133.5,-614.68 71.5,-614.68 71.5,-596.68 133.5,-596.68 133.5,-614.68"/>
<text text-anchor="middle" x="102.5" y="-603.48" font-family="Times,serif" font-size="9.00">ball_right</text>
</g>
<!-- DOWNLEFTFIRE -->
<g id="node20" class="node">
<title>DOWNLEFTFIRE</title>
<ellipse fill="lightblue" stroke="black" cx="199.5" cy="-427.55" rx="68.68" ry="68.68"/>
<text text-anchor="middle" x="199.5" y="-425.35" font-family="Times,serif" font-size="9.00">DOWNLEFTFIRE</text>
</g>
<!-- ball_right&#45;&gt;DOWNLEFTFIRE -->
<g id="edge1" class="edge">
<title>ball_right&#45;&gt;DOWNLEFTFIRE</title>
<path fill="none" stroke="red" stroke-width="0.63" d="M106.92,-596.65C116.63,-579.02 140.64,-535.42 161.78,-497.04"/>
<polygon fill="red" stroke="red" stroke-width="0.63" points="165.04,-498.37 166.8,-487.92 158.91,-494.99 165.04,-498.37"/>
</g>
<!-- 936 -->
<g id="node23" class="node">
<title>936</title>
<ellipse fill="white" stroke="black" cx="74.5" cy="-204.23" rx="25" ry="25"/>
<text text-anchor="middle" x="74.5" y="-202.03" font-family="Times,serif" font-size="9.00">936</text>
</g>
<!-- ball_right&#45;&gt;936 -->
<g id="edge3" class="edge">
<title>ball_right&#45;&gt;936</title>
<path fill="none" stroke="red" stroke-width="0.29" d="M99.81,-596.51C88.96,-563.09 48.47,-433.33 36.5,-322.96 33.72,-297.34 29.3,-289.72 36.5,-264.98 39.87,-253.41 46.22,-241.94 52.79,-232.2"/>
<polygon fill="red" stroke="red" stroke-width="0.29" points="55.84,-233.95 58.8,-223.77 50.14,-229.88 55.84,-233.95"/>
</g>
<!-- 1037 -->
<g id="node24" class="node">
<title>1037</title>
<ellipse fill="white" stroke="black" cx="150.5" cy="-293.97" rx="28.98" ry="28.98"/>
<text text-anchor="middle" x="150.5" y="-291.77" font-family="Times,serif" font-size="9.00">1037</text>
</g>
<!-- ball_right&#45;&gt;1037 -->
<g id="edge5" class="edge">
<title>ball_right&#45;&gt;1037</title>
<path fill="none" stroke="green" stroke-width="0.29" stroke-dasharray="1,5" d="M102.12,-596.45C100.86,-565.02 98.2,-449.72 121.5,-358.96 124.09,-348.86 128.19,-338.37 132.5,-328.87"/>
<polygon fill="green" stroke="green" stroke-width="0.29" points="135.69,-330.3 136.82,-319.76 129.37,-327.29 135.69,-330.3"/>
</g>
<!-- 1140 -->
<g id="node25" class="node">
<title>1140</title>
<ellipse fill="white" stroke="black" cx="74.5" cy="-293.97" rx="28.98" ry="28.98"/>
<text text-anchor="middle" x="74.5" y="-291.77" font-family="Times,serif" font-size="9.00">1140</text>
</g>
<!-- ball_right&#45;&gt;1140 -->
<g id="edge7" class="edge">
<title>ball_right&#45;&gt;1140</title>
<path fill="none" stroke="green" stroke-width="0.26" d="M101.28,-596.53C98.62,-578.48 92.23,-533.76 88.5,-496.14 82.88,-439.53 78.76,-373.74 76.49,-333.23"/>
<polygon fill="green" stroke="green" stroke-width="0.26" points="79.97,-332.79 75.93,-323 72.98,-333.18 79.97,-332.79"/>
</g>
<!-- 1147 -->
<g id="node26" class="node">
<title>1147</title>
<ellipse fill="white" stroke="black" cx="315.5" cy="-427.55" rx="28.98" ry="28.98"/>
<text text-anchor="middle" x="315.5" y="-425.35" font-family="Times,serif" font-size="9.00">1147</text>
</g>
<!-- ball_right&#45;&gt;1147 -->
<g id="edge10" class="edge">
<title>ball_right&#45;&gt;1147</title>
<path fill="none" stroke="green" stroke-width="0.46" d="M121.75,-596.66C156.49,-581.41 230.39,-545.32 277.5,-496.14 286.45,-486.8 294.03,-474.95 300.02,-463.78"/>
<polygon fill="green" stroke="green" stroke-width="0.46" points="303.25,-465.14 304.66,-454.64 297.01,-461.97 303.25,-465.14"/>
</g>
<!-- ball_out_field -->
<g id="node3" class="node">
<title>ball_out_field</title>
<polygon fill="lightgray" stroke="black" points="461.5,-614.68 383.5,-614.68 383.5,-596.68 461.5,-596.68 461.5,-614.68"/>
<text text-anchor="middle" x="422.5" y="-603.48" font-family="Times,serif" font-size="9.00">ball_out_field</text>
</g>
<!-- DOWNRIGHT -->
<g id="node12" class="node">
<title>DOWNRIGHT</title>
<ellipse fill="lightblue" stroke="black" cx="422.5" cy="-427.55" rx="56.64" ry="56.64"/>
<text text-anchor="middle" x="422.5" y="-425.35" font-family="Times,serif" font-size="9.00">DOWNRIGHT</text>
</g>
<!-- ball_out_field&#45;&gt;DOWNRIGHT -->
<g id="edge2" class="edge">
<title>ball_out_field&#45;&gt;DOWNRIGHT</title>
<path fill="none" stroke="green" stroke-width="0.17" d="M422.5,-596.65C422.5,-578.68 422.5,-533.7 422.5,-494.79"/>
<polygon fill="green" stroke="green" stroke-width="0.17" points="426,-494.53 422.5,-484.53 419,-494.53 426,-494.53"/>
</g>
<!-- NOOP -->
<g id="node4" class="node">
<title>NOOP</title>
<ellipse fill="lightblue" stroke="black" cx="512.5" cy="-605.68" rx="32.55" ry="32.55"/>
<text text-anchor="middle" x="512.5" y="-603.48" font-family="Times,serif" font-size="9.00">NOOP</text>
</g>
<!-- FIRE -->
<g id="node5" class="node">
<title>FIRE</title>
<ellipse fill="lightblue" stroke="black" cx="591.5" cy="-605.68" rx="28.07" ry="28.07"/>
<text text-anchor="middle" x="591.5" y="-603.48" font-family="Times,serif" font-size="9.00">FIRE</text>
</g>
<!-- RIGHT -->
<g id="node6" class="node">
<title>RIGHT</title>
<ellipse fill="lightblue" stroke="black" cx="671.5" cy="-605.68" rx="33.88" ry="33.88"/>
<text text-anchor="middle" x="671.5" y="-603.48" font-family="Times,serif" font-size="9.00">RIGHT</text>
</g>
<!-- LEFT -->
<g id="node7" class="node">
<title>LEFT</title>
<ellipse fill="lightblue" stroke="black" cx="74.5" cy="-28.99" rx="28.98" ry="28.98"/>
<text text-anchor="middle" x="74.5" y="-26.79" font-family="Times,serif" font-size="9.00">LEFT</text>
</g>
<!-- RIGHTFIRE -->
<g id="node8" class="node">
<title>RIGHTFIRE</title>
<ellipse fill="lightblue" stroke="black" cx="315.5" cy="-605.68" rx="50.41" ry="50.41"/>
<text text-anchor="middle" x="315.5" y="-603.48" font-family="Times,serif" font-size="9.00">RIGHTFIRE</text>
</g>
<!-- RIGHTFIRE&#45;&gt;1147 -->
<g id="edge12" class="edge">
<title>RIGHTFIRE&#45;&gt;1147</title>
<path fill="none" stroke="green" stroke-width="0.21" stroke-dasharray="1,5" d="M315.5,-555.15C315.5,-527.16 315.5,-492.7 315.5,-466.8"/>
<polygon fill="green" stroke="green" stroke-width="0.21" points="319,-466.62 315.5,-456.62 312,-466.62 319,-466.62"/>
</g>
<!-- LEFTRIGHTFIRE -->
<g id="node9" class="node">
<title>LEFTRIGHTFIRE</title>
<ellipse fill="lightblue" stroke="black" cx="791.5" cy="-605.68" rx="67.76" ry="67.76"/>
<text text-anchor="middle" x="791.5" y="-603.48" font-family="Times,serif" font-size="9.00">LEFTRIGHTFIRE</text>
</g>
<!-- UPRIGHT -->
<g id="node10" class="node">
<title>UPRIGHT</title>
<ellipse fill="lightblue" stroke="black" cx="921.5" cy="-605.68" rx="43.68" ry="43.68"/>
<text text-anchor="middle" x="921.5" y="-603.48" font-family="Times,serif" font-size="9.00">UPRIGHT</text>
</g>
<!-- UPLEFT -->
<g id="node11" class="node">
<title>UPLEFT</title>
<ellipse fill="lightblue" stroke="black" cx="1022.5" cy="-605.68" rx="38.78" ry="38.78"/>
<text text-anchor="middle" x="1022.5" y="-603.48" font-family="Times,serif" font-size="9.00">UPLEFT</text>
</g>
<!-- DOWNLEFT -->
<g id="node13" class="node">
<title>DOWNLEFT</title>
<ellipse fill="lightblue" stroke="black" cx="1131.5" cy="-605.68" rx="52.15" ry="52.15"/>
<text text-anchor="middle" x="1131.5" y="-603.48" font-family="Times,serif" font-size="9.00">DOWNLEFT</text>
</g>
<!-- UPFIRE -->
<g id="node14" class="node">
<title>UPFIRE</title>
<ellipse fill="lightblue" stroke="black" cx="1239.5" cy="-605.68" rx="37.45" ry="37.45"/>
<text text-anchor="middle" x="1239.5" y="-603.48" font-family="Times,serif" font-size="9.00">UPFIRE</text>
</g>
<!-- LEFTFIRE -->
<g id="node15" class="node">
<title>LEFTFIRE</title>
<ellipse fill="lightblue" stroke="black" cx="1340.5" cy="-605.68" rx="45.92" ry="45.92"/>
<text text-anchor="middle" x="1340.5" y="-603.48" font-family="Times,serif" font-size="9.00">LEFTFIRE</text>
</g>
<!-- DOWNFIRE -->
<g id="node16" class="node">
<title>DOWNFIRE</title>
<ellipse fill="lightblue" stroke="black" cx="1455.5" cy="-605.68" rx="50.82" ry="50.82"/>
<text text-anchor="middle" x="1455.5" y="-603.48" font-family="Times,serif" font-size="9.00">DOWNFIRE</text>
</g>
<!-- UPRIGHTFIRE -->
<g id="node17" class="node">
<title>UPRIGHTFIRE</title>
<ellipse fill="lightblue" stroke="black" cx="1584.5" cy="-605.68" rx="60.21" ry="60.21"/>
<text text-anchor="middle" x="1584.5" y="-603.48" font-family="Times,serif" font-size="9.00">UPRIGHTFIRE</text>
</g>
<!-- UPLEFTFIRE -->
<g id="node18" class="node">
<title>UPLEFTFIRE</title>
<ellipse fill="lightblue" stroke="black" cx="1717.5" cy="-605.68" rx="55.31" ry="55.31"/>
<text text-anchor="middle" x="1717.5" y="-603.48" font-family="Times,serif" font-size="9.00">UPLEFTFIRE</text>
</g>
<!-- DOWNRIGHTFIRE -->
<g id="node19" class="node">
<title>DOWNRIGHTFIRE</title>
<ellipse fill="lightblue" stroke="black" cx="1864.5" cy="-605.68" rx="73.58" ry="73.58"/>
<text text-anchor="middle" x="1864.5" y="-603.48" font-family="Times,serif" font-size="9.00">DOWNRIGHTFIRE</text>
</g>
<!-- 280 -->
<g id="node21" class="node">
<title>280</title>
<ellipse fill="white" stroke="black" cx="1980.5" cy="-605.68" rx="25" ry="25"/>
<text text-anchor="middle" x="1980.5" y="-603.48" font-family="Times,serif" font-size="9.00">280</text>
</g>
<!-- 777 -->
<g id="node22" class="node">
<title>777</title>
<ellipse fill="white" stroke="black" cx="74.5" cy="-118.73" rx="25" ry="25"/>
<text text-anchor="middle" x="74.5" y="-116.53" font-family="Times,serif" font-size="9.00">777</text>
</g>
<!-- 777&#45;&gt;LEFT -->
<g id="edge9" class="edge">
<title>777&#45;&gt;LEFT</title>
<path fill="none" stroke="red" stroke-width="0.31" d="M74.5,-93.76C74.5,-85.96 74.5,-77.11 74.5,-68.53"/>
<polygon fill="red" stroke="red" stroke-width="0.31" points="78,-68.3 74.5,-58.3 71,-68.3 78,-68.3"/>
</g>
<!-- 936&#45;&gt;777 -->
<g id="edge4" class="edge">
<title>936&#45;&gt;777</title>
<path fill="none" stroke="green" stroke-width="0.32" d="M74.5,-179.08C74.5,-171.13 74.5,-162.15 74.5,-153.62"/>
<polygon fill="green" stroke="green" stroke-width="0.32" points="78,-153.54 74.5,-143.54 71,-153.54 78,-153.54"/>
</g>
<!-- 1037&#45;&gt;936 -->
<g id="edge6" class="edge">
<title>1037&#45;&gt;936</title>
<path fill="none" stroke="red" stroke-width="0.18" d="M131.71,-271.28C121.16,-259.09 107.92,-243.81 96.83,-231.01"/>
<polygon fill="red" stroke="red" stroke-width="0.18" points="99.44,-228.68 90.25,-223.41 94.15,-233.26 99.44,-228.68"/>
</g>
<!-- 1140&#45;&gt;936 -->
<g id="edge8" class="edge">
<title>1140&#45;&gt;936</title>
<path fill="none" stroke="red" stroke-width="0.23" d="M74.5,-264.72C74.5,-256.53 74.5,-247.51 74.5,-239.01"/>
<polygon fill="red" stroke="red" stroke-width="0.23" points="78,-239.01 74.5,-229.01 71,-239.01 78,-239.01"/>
</g>
<!-- 1147&#45;&gt;1037 -->
<g id="edge11" class="edge">
<title>1147&#45;&gt;1037</title>
<path fill="none" stroke="green" stroke-width="0.16" stroke-dasharray="1,5" d="M305.24,-400.37C298.86,-386.71 289.57,-370.49 277.5,-358.96 251.9,-334.5 215.14,-317.37 187.74,-307.02"/>
<polygon fill="green" stroke="green" stroke-width="0.16" points="188.71,-303.65 178.11,-303.52 186.32,-310.23 188.71,-303.65"/>
</g>
</g>
</svg>
