<?xml version="1.0" encoding="UTF-8" standalone="no"?>
<!DOCTYPE svg PUBLIC "-//W3C//DTD SVG 1.1//EN"
 "http://www.w3.org/Graphics/SVG/1.1/DTD/svg11.dtd">
<!-- Generated by graphviz version 2.43.0 (0)
 -->
<!-- Title: %3 Pages: 1 -->
<svg width="448pt" height="177pt"
 viewBox="0.00 0.00 447.53 176.94" xmlns="http://www.w3.org/2000/svg" xmlns:xlink="http://www.w3.org/1999/xlink">
<g id="graph0" class="graph" transform="scale(1 1) rotate(0) translate(4 172.94)">
<title>%3</title>
<polygon fill="white" stroke="transparent" points="-4,4 -4,-172.94 443.53,-172.94 443.53,4 -4,4"/>
<!-- player_x -->
<g id="node1" class="node">
<title>player_x</title>
<polygon fill="lightgray" stroke="black" points="56,-145.41 0,-145.41 0,-127.41 56,-127.41 56,-145.41"/>
<text text-anchor="middle" x="28" y="-134.21" font-family="Times,serif" font-size="9.00">player_x</text>
</g>
<!-- player_y -->
<g id="node2" class="node">
<title>player_y</title>
<polygon fill="lightgray" stroke="black" points="130,-145.41 74,-145.41 74,-127.41 130,-127.41 130,-145.41"/>
<text text-anchor="middle" x="102" y="-134.21" font-family="Times,serif" font-size="9.00">player_y</text>
</g>
<!-- RIGHT -->
<g id="node7" class="node">
<title>RIGHT</title>
<ellipse fill="lightblue" stroke="black" cx="102" cy="-33.94" rx="33.88" ry="33.88"/>
<text text-anchor="middle" x="102" y="-31.74" font-family="Times,serif" font-size="9.00">RIGHT</text>
</g>
<!-- player_y&#45;&gt;RIGHT -->
<g id="edge5" class="edge">
<title>player_y&#45;&gt;RIGHT</title>
<path fill="none" stroke="green" stroke-width="0.24" d="M102,-127.19C102,-116.35 102,-96.5 102,-77.97"/>
<polygon fill="green" stroke="green" stroke-width="0.24" points="105.5,-77.88 102,-67.88 98.5,-77.88 105.5,-77.88"/>
</g>
<!-- ball_x -->
<g id="node3" class="node">
<title>ball_x</title>
<polygon fill="lightgray" stroke="black" points="356,-145.41 312,-145.41 312,-127.41 356,-127.41 356,-145.41"/>
<text text-anchor="middle" x="334" y="-134.21" font-family="Times,serif" font-size="9.00">ball_x</text>
</g>
<!-- FIRE -->
<g id="node6" class="node">
<title>FIRE</title>
<ellipse fill="lightblue" stroke="black" cx="334" cy="-33.94" rx="28.07" ry="28.07"/>
<text text-anchor="middle" x="334" y="-31.74" font-family="Times,serif" font-size="9.00">FIRE</text>
</g>
<!-- ball_x&#45;&gt;FIRE -->
<g id="edge1" class="edge">
<title>ball_x&#45;&gt;FIRE</title>
<path fill="none" stroke="green" stroke-width="0.62" d="M334,-127.19C334,-115.29 334,-92.53 334,-72.59"/>
<polygon fill="green" stroke="green" stroke-width="0.62" points="337.5,-72.5 334,-62.5 330.5,-72.5 337.5,-72.5"/>
</g>
<!-- ball_y -->
<g id="node4" class="node">
<title>ball_y</title>
<polygon fill="lightgray" stroke="black" points="205,-145.41 161,-145.41 161,-127.41 205,-127.41 205,-145.41"/>
<text text-anchor="middle" x="183" y="-134.21" font-family="Times,serif" font-size="9.00">ball_y</text>
</g>
<!-- ball_y&#45;&gt;RIGHT -->
<g id="edge2" class="edge">
<title>ball_y&#45;&gt;RIGHT</title>
<path fill="none" stroke="green" stroke-width="0.42" stroke-dasharray="1,5" d="M176.37,-127.19C166.16,-114.53 146.02,-89.55 129.28,-68.77"/>
<polygon fill="green" stroke="green" stroke-width="0.42" points="131.82,-66.35 122.82,-60.76 126.37,-70.74 131.82,-66.35"/>
</g>
<!-- LEFT -->
<g id="node8" class="node">
<title>LEFT</title>
<ellipse fill="lightblue" stroke="black" cx="183" cy="-33.94" rx="28.98" ry="28.98"/>
<text text-anchor="middle" x="183" y="-31.74" font-family="Times,serif" font-size="9.00">LEFT</text>
</g>
<!-- ball_y&#45;&gt;LEFT -->
<g id="edge3" class="edge">
<title>ball_y&#45;&gt;LEFT</title>
<path fill="none" stroke="green" stroke-width="0.32" d="M183,-127.19C183,-115.37 183,-92.84 183,-72.99"/>
<polygon fill="green" stroke="green" stroke-width="0.32" points="186.5,-72.94 183,-62.94 179.5,-72.94 186.5,-72.94"/>
</g>
<!-- 1467 -->
<g id="node9" class="node">
<title>1467</title>
<ellipse fill="white" stroke="black" cx="259" cy="-33.94" rx="28.98" ry="28.98"/>
<text text-anchor="middle" x="259" y="-31.74" font-family="Times,serif" font-size="9.00">1467</text>
</g>
<!-- ball_y&#45;&gt;1467 -->
<g id="edge4" class="edge">
<title>ball_y&#45;&gt;1467</title>
<path fill="none" stroke="green" stroke-width="0.16" d="M189.22,-127.19C199.23,-113.95 219.44,-87.24 235.54,-65.95"/>
<polygon fill="green" stroke="green" stroke-width="0.16" points="238.47,-67.89 241.71,-57.8 232.88,-63.67 238.47,-67.89"/>
</g>
<!-- NOOP -->
<g id="node5" class="node">
<title>NOOP</title>
<ellipse fill="lightblue" stroke="black" cx="407" cy="-136.41" rx="32.55" ry="32.55"/>
<text text-anchor="middle" x="407" y="-134.21" font-family="Times,serif" font-size="9.00">NOOP</text>
</g>
</g>
</svg>
