<?xml version="1.0" encoding="UTF-8" standalone="no"?>
<!DOCTYPE svg PUBLIC "-//W3C//DTD SVG 1.1//EN"
 "http://www.w3.org/Graphics/SVG/1.1/DTD/svg11.dtd">
<!-- Generated by graphviz version 2.43.0 (0)
 -->
<!-- Title: %3 Pages: 1 -->
<svg width="1329pt" height="280pt"
 viewBox="0.00 0.00 1329.39 280.17" xmlns="http://www.w3.org/2000/svg" xmlns:xlink="http://www.w3.org/1999/xlink">
<g id="graph0" class="graph" transform="scale(1 1) rotate(0) translate(4 276.17)">
<title>%3</title>
<polygon fill="white" stroke="transparent" points="-4,4 -4,-276.17 1325.39,-276.17 1325.39,4 -4,4"/>
<!-- player_x -->
<g id="node1" class="node">
<title>player_x</title>
<polygon fill="lightgray" stroke="black" points="95.88,-230.97 39.88,-230.97 39.88,-212.97 95.88,-212.97 95.88,-230.97"/>
<text text-anchor="middle" x="67.88" y="-219.77" font-family="Times,serif" font-size="9.00">player_x</text>
</g>
<!-- LEFTRIGHTFIRE -->
<g id="node10" class="node">
<title>LEFTRIGHTFIRE</title>
<ellipse fill="lightblue" stroke="black" cx="67.88" cy="-67.88" rx="67.76" ry="67.76"/>
<text text-anchor="middle" x="67.88" y="-65.68" font-family="Times,serif" font-size="9.00">LEFTRIGHTFIRE</text>
</g>
<!-- player_x&#45;&gt;LEFTRIGHTFIRE -->
<g id="edge1" class="edge">
<title>player_x&#45;&gt;LEFTRIGHTFIRE</title>
<path fill="none" stroke="green" stroke-width="0.7" d="M67.88,-212.79C67.88,-199.77 67.88,-173.03 67.88,-146.1"/>
<polygon fill="green" stroke="green" stroke-width="0.7" points="71.38,-145.8 67.88,-135.8 64.38,-145.8 71.38,-145.8"/>
</g>
<!-- player_y -->
<g id="node2" class="node">
<title>player_y</title>
<polygon fill="lightgray" stroke="black" points="169.88,-230.97 113.88,-230.97 113.88,-212.97 169.88,-212.97 169.88,-230.97"/>
<text text-anchor="middle" x="141.88" y="-219.77" font-family="Times,serif" font-size="9.00">player_y</text>
</g>
<!-- ball_x -->
<g id="node3" class="node">
<title>ball_x</title>
<polygon fill="lightgray" stroke="black" points="231.88,-230.97 187.88,-230.97 187.88,-212.97 231.88,-212.97 231.88,-230.97"/>
<text text-anchor="middle" x="209.88" y="-219.77" font-family="Times,serif" font-size="9.00">ball_x</text>
</g>
<!-- ball_y -->
<g id="node4" class="node">
<title>ball_y</title>
<polygon fill="lightgray" stroke="black" points="293.88,-230.97 249.88,-230.97 249.88,-212.97 293.88,-212.97 293.88,-230.97"/>
<text text-anchor="middle" x="271.88" y="-219.77" font-family="Times,serif" font-size="9.00">ball_y</text>
</g>
<!-- RIGHT -->
<g id="node7" class="node">
<title>RIGHT</title>
<ellipse fill="lightblue" stroke="black" cx="271.88" cy="-67.88" rx="33.88" ry="33.88"/>
<text text-anchor="middle" x="271.88" y="-65.68" font-family="Times,serif" font-size="9.00">RIGHT</text>
</g>
<!-- ball_y&#45;&gt;RIGHT -->
<g id="edge2" class="edge">
<title>ball_y&#45;&gt;RIGHT</title>
<path fill="none" stroke="green" stroke-width="0.66" d="M271.88,-212.79C271.88,-194.15 271.88,-147.39 271.88,-112.19"/>
<polygon fill="green" stroke="green" stroke-width="0.66" points="275.38,-112.14 271.88,-102.14 268.38,-112.14 275.38,-112.14"/>
</g>
<!-- NOOP -->
<g id="node5" class="node">
<title>NOOP</title>
<ellipse fill="lightblue" stroke="black" cx="344.88" cy="-221.97" rx="32.55" ry="32.55"/>
<text text-anchor="middle" x="344.88" y="-219.77" font-family="Times,serif" font-size="9.00">NOOP</text>
</g>
<!-- FIRE -->
<g id="node6" class="node">
<title>FIRE</title>
<ellipse fill="lightblue" stroke="black" cx="423.88" cy="-221.97" rx="28.07" ry="28.07"/>
<text text-anchor="middle" x="423.88" y="-219.77" font-family="Times,serif" font-size="9.00">FIRE</text>
</g>
<!-- LEFT -->
<g id="node8" class="node">
<title>LEFT</title>
<ellipse fill="lightblue" stroke="black" cx="498.88" cy="-221.97" rx="28.98" ry="28.98"/>
<text text-anchor="middle" x="498.88" y="-219.77" font-family="Times,serif" font-size="9.00">LEFT</text>
</g>
<!-- RIGHTFIRE -->
<g id="node9" class="node">
<title>RIGHTFIRE</title>
<ellipse fill="lightblue" stroke="black" cx="595.88" cy="-221.97" rx="50.41" ry="50.41"/>
<text text-anchor="middle" x="595.88" y="-219.77" font-family="Times,serif" font-size="9.00">RIGHTFIRE</text>
</g>
<!-- 6 -->
<g id="node11" class="node">
<title>6</title>
<ellipse fill="white" stroke="black" cx="679.88" cy="-221.97" rx="16.03" ry="16.03"/>
<text text-anchor="middle" x="679.88" y="-219.77" font-family="Times,serif" font-size="9.00">6</text>
</g>
<!-- 7 -->
<g id="node12" class="node">
<title>7</title>
<ellipse fill="white" stroke="black" cx="730.88" cy="-221.97" rx="16.03" ry="16.03"/>
<text text-anchor="middle" x="730.88" y="-219.77" font-family="Times,serif" font-size="9.00">7</text>
</g>
<!-- 8 -->
<g id="node13" class="node">
<title>8</title>
<ellipse fill="white" stroke="black" cx="781.88" cy="-221.97" rx="16.03" ry="16.03"/>
<text text-anchor="middle" x="781.88" y="-219.77" font-family="Times,serif" font-size="9.00">8</text>
</g>
<!-- 9 -->
<g id="node14" class="node">
<title>9</title>
<ellipse fill="white" stroke="black" cx="832.88" cy="-221.97" rx="16.03" ry="16.03"/>
<text text-anchor="middle" x="832.88" y="-219.77" font-family="Times,serif" font-size="9.00">9</text>
</g>
<!-- 10 -->
<g id="node15" class="node">
<title>10</title>
<ellipse fill="white" stroke="black" cx="887.88" cy="-221.97" rx="20.51" ry="20.51"/>
<text text-anchor="middle" x="887.88" y="-219.77" font-family="Times,serif" font-size="9.00">10</text>
</g>
<!-- 11 -->
<g id="node16" class="node">
<title>11</title>
<ellipse fill="white" stroke="black" cx="946.88" cy="-221.97" rx="20.51" ry="20.51"/>
<text text-anchor="middle" x="946.88" y="-219.77" font-family="Times,serif" font-size="9.00">11</text>
</g>
<!-- 12 -->
<g id="node17" class="node">
<title>12</title>
<ellipse fill="white" stroke="black" cx="1005.88" cy="-221.97" rx="20.51" ry="20.51"/>
<text text-anchor="middle" x="1005.88" y="-219.77" font-family="Times,serif" font-size="9.00">12</text>
</g>
<!-- 13 -->
<g id="node18" class="node">
<title>13</title>
<ellipse fill="white" stroke="black" cx="1064.88" cy="-221.97" rx="20.51" ry="20.51"/>
<text text-anchor="middle" x="1064.88" y="-219.77" font-family="Times,serif" font-size="9.00">13</text>
</g>
<!-- 14 -->
<g id="node19" class="node">
<title>14</title>
<ellipse fill="white" stroke="black" cx="1123.88" cy="-221.97" rx="20.51" ry="20.51"/>
<text text-anchor="middle" x="1123.88" y="-219.77" font-family="Times,serif" font-size="9.00">14</text>
</g>
<!-- 15 -->
<g id="node20" class="node">
<title>15</title>
<ellipse fill="white" stroke="black" cx="1182.88" cy="-221.97" rx="20.51" ry="20.51"/>
<text text-anchor="middle" x="1182.88" y="-219.77" font-family="Times,serif" font-size="9.00">15</text>
</g>
<!-- 16 -->
<g id="node21" class="node">
<title>16</title>
<ellipse fill="white" stroke="black" cx="1241.88" cy="-221.97" rx="20.51" ry="20.51"/>
<text text-anchor="middle" x="1241.88" y="-219.77" font-family="Times,serif" font-size="9.00">16</text>
</g>
<!-- 17 -->
<g id="node22" class="node">
<title>17</title>
<ellipse fill="white" stroke="black" cx="1300.88" cy="-221.97" rx="20.51" ry="20.51"/>
<text text-anchor="middle" x="1300.88" y="-219.77" font-family="Times,serif" font-size="9.00">17</text>
</g>
</g>
</svg>
