<?xml version="1.0" encoding="UTF-8" standalone="no"?>
<!DOCTYPE svg PUBLIC "-//W3C//DTD SVG 1.1//EN"
 "http://www.w3.org/Graphics/SVG/1.1/DTD/svg11.dtd">
<!-- Generated by graphviz version 2.43.0 (0)
 -->
<!-- Title: %3 Pages: 1 -->
<svg width="396pt" height="348pt"
 viewBox="0.00 0.00 396.23 347.93" xmlns="http://www.w3.org/2000/svg" xmlns:xlink="http://www.w3.org/1999/xlink">
<g id="graph0" class="graph" transform="scale(1 1) rotate(0) translate(4 343.93)">
<title>%3</title>
<polygon fill="white" stroke="transparent" points="-4,4 -4,-343.93 392.23,-343.93 392.23,4 -4,4"/>
<!-- ball_left -->
<g id="node1" class="node">
<title>ball_left</title>
<polygon fill="lightgray" stroke="black" points="133.44,-316.4 80.44,-316.4 80.44,-298.4 133.44,-298.4 133.44,-316.4"/>
<text text-anchor="middle" x="106.94" y="-305.2" font-family="Times,serif" font-size="9.00">ball_left</text>
</g>
<!-- RIGHT -->
<g id="node6" class="node">
<title>RIGHT</title>
<ellipse fill="lightblue" stroke="black" cx="33.94" cy="-127.92" rx="33.88" ry="33.88"/>
<text text-anchor="middle" x="33.94" y="-125.72" font-family="Times,serif" font-size="9.00">RIGHT</text>
</g>
<!-- ball_left&#45;&gt;RIGHT -->
<g id="edge8" class="edge">
<title>ball_left&#45;&gt;RIGHT</title>
<path fill="none" stroke="green" stroke-width="0.44" d="M98.01,-298.2C85.73,-286.37 63.91,-263.24 52.94,-238.88 43.56,-218.02 38.79,-193.02 36.37,-172.13"/>
<polygon fill="green" stroke="green" stroke-width="0.44" points="39.83,-171.53 35.34,-161.93 32.86,-172.23 39.83,-171.53"/>
</g>
<!-- LEFT -->
<g id="node7" class="node">
<title>LEFT</title>
<ellipse fill="lightblue" stroke="black" cx="175.94" cy="-28.99" rx="28.98" ry="28.98"/>
<text text-anchor="middle" x="175.94" y="-26.79" font-family="Times,serif" font-size="9.00">LEFT</text>
</g>
<!-- ball_left&#45;&gt;LEFT -->
<g id="edge1" class="edge">
<title>ball_left&#45;&gt;LEFT</title>
<path fill="none" stroke="green" stroke-width="0.26" stroke-dasharray="1,5" d="M116.42,-298.16C139.02,-277.8 195.69,-222.37 215.94,-161.87 225.52,-133.26 224.26,-122.98 215.94,-93.98 212.56,-82.2 206.31,-70.48 199.73,-60.35"/>
<polygon fill="green" stroke="green" stroke-width="0.26" points="202.48,-58.16 193.93,-51.9 196.7,-62.12 202.48,-58.16"/>
</g>
<!-- 13 -->
<g id="node8" class="node">
<title>13</title>
<ellipse fill="white" stroke="black" cx="105.94" cy="-127.92" rx="20.51" ry="20.51"/>
<text text-anchor="middle" x="105.94" y="-125.72" font-family="Times,serif" font-size="9.00">13</text>
</g>
<!-- ball_left&#45;&gt;13 -->
<g id="edge7" class="edge">
<title>ball_left&#45;&gt;13</title>
<path fill="none" stroke="green" stroke-width="0.18" stroke-dasharray="1,5" d="M107.92,-298.1C109.36,-285.38 111.99,-260.28 112.94,-238.88 113.75,-220.67 113.86,-216.07 112.94,-197.87 112.29,-184.95 110.95,-170.72 109.61,-158.56"/>
<polygon fill="green" stroke="green" stroke-width="0.18" points="113.08,-158.03 108.46,-148.5 106.12,-158.83 113.08,-158.03"/>
</g>
<!-- 81 -->
<g id="node9" class="node">
<title>81</title>
<ellipse fill="white" stroke="black" cx="82.94" cy="-218.37" rx="20.51" ry="20.51"/>
<text text-anchor="middle" x="82.94" y="-216.17" font-family="Times,serif" font-size="9.00">81</text>
</g>
<!-- ball_left&#45;&gt;81 -->
<g id="edge4" class="edge">
<title>ball_left&#45;&gt;81</title>
<path fill="none" stroke="green" stroke-width="0.56" d="M104.73,-298.37C101.6,-287.05 95.74,-265.79 90.89,-248.18"/>
<polygon fill="green" stroke="green" stroke-width="0.56" points="94.2,-247.05 88.17,-238.34 87.46,-248.91 94.2,-247.05"/>
</g>
<!-- ball_right -->
<g id="node2" class="node">
<title>ball_right</title>
<polygon fill="lightgray" stroke="black" points="206.94,-136.92 144.94,-136.92 144.94,-118.92 206.94,-118.92 206.94,-136.92"/>
<text text-anchor="middle" x="175.94" y="-125.72" font-family="Times,serif" font-size="9.00">ball_right</text>
</g>
<!-- ball_right&#45;&gt;LEFT -->
<g id="edge3" class="edge">
<title>ball_right&#45;&gt;LEFT</title>
<path fill="none" stroke="red" stroke-width="0.18" stroke-dasharray="1,5" d="M175.94,-118.66C175.94,-107.46 175.94,-86.71 175.94,-68.1"/>
<polygon fill="red" stroke="red" stroke-width="0.18" points="179.44,-68.06 175.94,-58.06 172.44,-68.06 179.44,-68.06"/>
</g>
<!-- ball_out_field -->
<g id="node3" class="node">
<title>ball_out_field</title>
<polygon fill="lightgray" stroke="black" points="229.94,-316.4 151.94,-316.4 151.94,-298.4 229.94,-298.4 229.94,-316.4"/>
<text text-anchor="middle" x="190.94" y="-305.2" font-family="Times,serif" font-size="9.00">ball_out_field</text>
</g>
<!-- NOOP -->
<g id="node4" class="node">
<title>NOOP</title>
<ellipse fill="lightblue" stroke="black" cx="280.94" cy="-307.4" rx="32.55" ry="32.55"/>
<text text-anchor="middle" x="280.94" y="-305.2" font-family="Times,serif" font-size="9.00">NOOP</text>
</g>
<!-- FIRE -->
<g id="node5" class="node">
<title>FIRE</title>
<ellipse fill="lightblue" stroke="black" cx="359.94" cy="-307.4" rx="28.07" ry="28.07"/>
<text text-anchor="middle" x="359.94" y="-305.2" font-family="Times,serif" font-size="9.00">FIRE</text>
</g>
<!-- 13&#45;&gt;LEFT -->
<g id="edge2" class="edge">
<title>13&#45;&gt;LEFT</title>
<path fill="none" stroke="green" stroke-width="0.71" d="M117.5,-110.92C127.22,-97.45 141.41,-77.81 153.37,-61.24"/>
<polygon fill="green" stroke="green" stroke-width="0.71" points="156.37,-63.07 159.39,-52.91 150.7,-58.97 156.37,-63.07"/>
</g>
<!-- 81&#45;&gt;RIGHT -->
<g id="edge6" class="edge">
<title>81&#45;&gt;RIGHT</title>
<path fill="none" stroke="green" stroke-width="0.54" d="M73.26,-199.9C68.02,-190.44 61.34,-178.38 54.97,-166.88"/>
<polygon fill="green" stroke="green" stroke-width="0.54" points="57.88,-164.9 49.97,-157.85 51.75,-168.3 57.88,-164.9"/>
</g>
<!-- 81&#45;&gt;13 -->
<g id="edge5" class="edge">
<title>81&#45;&gt;13</title>
<path fill="none" stroke="green" stroke-width="0.1" d="M87.93,-198.18C90.98,-186.47 94.93,-171.28 98.35,-158.1"/>
<polygon fill="green" stroke="green" stroke-width="0.1" points="101.83,-158.64 100.96,-148.08 95.06,-156.88 101.83,-158.64"/>
</g>
</g>
</svg>
