<?xml version="1.0" encoding="UTF-8" standalone="no"?>
<!DOCTYPE svg PUBLIC "-//W3C//DTD SVG 1.1//EN"
 "http://www.w3.org/Graphics/SVG/1.1/DTD/svg11.dtd">
<!-- Generated by graphviz version 2.43.0 (0)
 -->
<!-- Title: %3 Pages: 1 -->
<svg width="2142pt" height="560pt"
 viewBox="0.00 0.00 2141.90 560.06" xmlns="http://www.w3.org/2000/svg" xmlns:xlink="http://www.w3.org/1999/xlink">
<g id="graph0" class="graph" transform="scale(1 1) rotate(0) translate(4 556.06)">
<title>%3</title>
<polygon fill="white" stroke="transparent" points="-4,4 -4,-556.06 2137.9,-556.06 2137.9,4 -4,4"/>
<!-- ball_left -->
<g id="node1" class="node">
<title>ball_left</title>
<polygon fill="lightgray" stroke="black" points="147.41,-487.52 94.41,-487.52 94.41,-469.52 147.41,-469.52 147.41,-487.52"/>
<text text-anchor="middle" x="120.91" y="-476.32" font-family="Times,serif" font-size="9.00">ball_left</text>
</g>
<!-- ball_right -->
<g id="node2" class="node">
<title>ball_right</title>
<polygon fill="lightgray" stroke="black" points="227.91,-487.52 165.91,-487.52 165.91,-469.52 227.91,-469.52 227.91,-487.52"/>
<text text-anchor="middle" x="196.91" y="-476.32" font-family="Times,serif" font-size="9.00">ball_right</text>
</g>
<!-- RIGHTFIRE -->
<g id="node8" class="node">
<title>RIGHTFIRE</title>
<ellipse fill="lightblue" stroke="black" cx="321.91" cy="-224.09" rx="50.41" ry="50.41"/>
<text text-anchor="middle" x="321.91" y="-221.89" font-family="Times,serif" font-size="9.00">RIGHTFIRE</text>
</g>
<!-- ball_right&#45;&gt;RIGHTFIRE -->
<g id="edge1" class="edge">
<title>ball_right&#45;&gt;RIGHTFIRE</title>
<path fill="none" stroke="green" stroke-width="0.43" d="M200.93,-469.41C215.23,-440.53 264.45,-341.13 295.53,-278.37"/>
<polygon fill="green" stroke="green" stroke-width="0.43" points="298.68,-279.9 299.98,-269.39 292.4,-276.8 298.68,-279.9"/>
</g>
<!-- DOWNLEFTFIRE -->
<g id="node20" class="node">
<title>DOWNLEFTFIRE</title>
<ellipse fill="lightblue" stroke="black" cx="167.91" cy="-68.59" rx="68.68" ry="68.68"/>
<text text-anchor="middle" x="167.91" y="-66.39" font-family="Times,serif" font-size="9.00">DOWNLEFTFIRE</text>
</g>
<!-- ball_right&#45;&gt;DOWNLEFTFIRE -->
<g id="edge2" class="edge">
<title>ball_right&#45;&gt;DOWNLEFTFIRE</title>
<path fill="none" stroke="red" stroke-width="0.24" d="M192.96,-469.34C184.65,-451.57 165.54,-407.96 158.91,-368.98 146.22,-294.35 150.88,-207.78 157.25,-146.99"/>
<polygon fill="red" stroke="red" stroke-width="0.24" points="160.77,-147.02 158.37,-136.7 153.81,-146.26 160.77,-147.02"/>
</g>
<!-- 2435 -->
<g id="node22" class="node">
<title>2435</title>
<ellipse fill="white" stroke="black" cx="61.91" cy="-339.99" rx="28.98" ry="28.98"/>
<text text-anchor="middle" x="61.91" y="-337.79" font-family="Times,serif" font-size="9.00">2435</text>
</g>
<!-- ball_right&#45;&gt;2435 -->
<g id="edge3" class="edge">
<title>ball_right&#45;&gt;2435</title>
<path fill="none" stroke="green" stroke-width="0.22" d="M193.67,-469.12C187.81,-454.74 174.33,-425 155.91,-404.98 138.83,-386.42 115.39,-370.45 96.19,-359.1"/>
<polygon fill="green" stroke="green" stroke-width="0.22" points="97.84,-356.02 87.42,-354.07 94.35,-362.09 97.84,-356.02"/>
</g>
<!-- 2576 -->
<g id="node23" class="node">
<title>2576</title>
<ellipse fill="white" stroke="black" cx="318.91" cy="-339.99" rx="28.98" ry="28.98"/>
<text text-anchor="middle" x="318.91" y="-337.79" font-family="Times,serif" font-size="9.00">2576</text>
</g>
<!-- ball_right&#45;&gt;2576 -->
<g id="edge4" class="edge">
<title>ball_right&#45;&gt;2576</title>
<path fill="none" stroke="green" stroke-width="0.25" d="M204.18,-469.39C221.3,-450.23 264.84,-401.5 293.09,-369.89"/>
<polygon fill="green" stroke="green" stroke-width="0.25" points="295.87,-372.04 299.92,-362.25 290.65,-367.37 295.87,-372.04"/>
</g>
<!-- 2864 -->
<g id="node27" class="node">
<title>2864</title>
<ellipse fill="white" stroke="black" cx="196.91" cy="-339.99" rx="28.98" ry="28.98"/>
<text text-anchor="middle" x="196.91" y="-337.79" font-family="Times,serif" font-size="9.00">2864</text>
</g>
<!-- ball_right&#45;&gt;2864 -->
<g id="edge8" class="edge">
<title>ball_right&#45;&gt;2864</title>
<path fill="none" stroke="green" stroke-width="0.18" d="M196.91,-469.39C196.91,-452.06 196.91,-410.53 196.91,-379.36"/>
<polygon fill="green" stroke="green" stroke-width="0.18" points="200.41,-379.24 196.91,-369.24 193.41,-379.24 200.41,-379.24"/>
</g>
<!-- ball_out -->
<g id="node3" class="node">
<title>ball_out</title>
<polygon fill="lightgray" stroke="black" points="418.41,-487.52 365.41,-487.52 365.41,-469.52 418.41,-469.52 418.41,-487.52"/>
<text text-anchor="middle" x="391.91" y="-476.32" font-family="Times,serif" font-size="9.00">ball_out</text>
</g>
<!-- NOOP -->
<g id="node4" class="node">
<title>NOOP</title>
<ellipse fill="lightblue" stroke="black" cx="468.91" cy="-478.52" rx="32.55" ry="32.55"/>
<text text-anchor="middle" x="468.91" y="-476.32" font-family="Times,serif" font-size="9.00">NOOP</text>
</g>
<!-- FIRE -->
<g id="node5" class="node">
<title>FIRE</title>
<ellipse fill="lightblue" stroke="black" cx="547.91" cy="-478.52" rx="28.07" ry="28.07"/>
<text text-anchor="middle" x="547.91" y="-476.32" font-family="Times,serif" font-size="9.00">FIRE</text>
</g>
<!-- RIGHT -->
<g id="node6" class="node">
<title>RIGHT</title>
<ellipse fill="lightblue" stroke="black" cx="627.91" cy="-478.52" rx="33.88" ry="33.88"/>
<text text-anchor="middle" x="627.91" y="-476.32" font-family="Times,serif" font-size="9.00">RIGHT</text>
</g>
<!-- LEFT -->
<g id="node7" class="node">
<title>LEFT</title>
<ellipse fill="lightblue" stroke="black" cx="708.91" cy="-478.52" rx="28.98" ry="28.98"/>
<text text-anchor="middle" x="708.91" y="-476.32" font-family="Times,serif" font-size="9.00">LEFT</text>
</g>
<!-- LEFTRIGHTFIRE -->
<g id="node9" class="node">
<title>LEFTRIGHTFIRE</title>
<ellipse fill="lightblue" stroke="black" cx="823.91" cy="-478.52" rx="67.76" ry="67.76"/>
<text text-anchor="middle" x="823.91" y="-476.32" font-family="Times,serif" font-size="9.00">LEFTRIGHTFIRE</text>
</g>
<!-- UPRIGHT -->
<g id="node10" class="node">
<title>UPRIGHT</title>
<ellipse fill="lightblue" stroke="black" cx="953.91" cy="-478.52" rx="43.68" ry="43.68"/>
<text text-anchor="middle" x="953.91" y="-476.32" font-family="Times,serif" font-size="9.00">UPRIGHT</text>
</g>
<!-- UPLEFT -->
<g id="node11" class="node">
<title>UPLEFT</title>
<ellipse fill="lightblue" stroke="black" cx="1054.91" cy="-478.52" rx="38.78" ry="38.78"/>
<text text-anchor="middle" x="1054.91" y="-476.32" font-family="Times,serif" font-size="9.00">UPLEFT</text>
</g>
<!-- DOWNRIGHT -->
<g id="node12" class="node">
<title>DOWNRIGHT</title>
<ellipse fill="lightblue" stroke="black" cx="1167.91" cy="-478.52" rx="56.64" ry="56.64"/>
<text text-anchor="middle" x="1167.91" y="-476.32" font-family="Times,serif" font-size="9.00">DOWNRIGHT</text>
</g>
<!-- DOWNLEFT -->
<g id="node13" class="node">
<title>DOWNLEFT</title>
<ellipse fill="lightblue" stroke="black" cx="1294.91" cy="-478.52" rx="52.15" ry="52.15"/>
<text text-anchor="middle" x="1294.91" y="-476.32" font-family="Times,serif" font-size="9.00">DOWNLEFT</text>
</g>
<!-- UPFIRE -->
<g id="node14" class="node">
<title>UPFIRE</title>
<ellipse fill="lightblue" stroke="black" cx="1402.91" cy="-478.52" rx="37.45" ry="37.45"/>
<text text-anchor="middle" x="1402.91" y="-476.32" font-family="Times,serif" font-size="9.00">UPFIRE</text>
</g>
<!-- LEFTFIRE -->
<g id="node15" class="node">
<title>LEFTFIRE</title>
<ellipse fill="lightblue" stroke="black" cx="1503.91" cy="-478.52" rx="45.92" ry="45.92"/>
<text text-anchor="middle" x="1503.91" y="-476.32" font-family="Times,serif" font-size="9.00">LEFTFIRE</text>
</g>
<!-- DOWNFIRE -->
<g id="node16" class="node">
<title>DOWNFIRE</title>
<ellipse fill="lightblue" stroke="black" cx="50.91" cy="-224.09" rx="50.82" ry="50.82"/>
<text text-anchor="middle" x="50.91" y="-221.89" font-family="Times,serif" font-size="9.00">DOWNFIRE</text>
</g>
<!-- 2777 -->
<g id="node26" class="node">
<title>2777</title>
<ellipse fill="white" stroke="black" cx="50.91" cy="-68.59" rx="28.98" ry="28.98"/>
<text text-anchor="middle" x="50.91" y="-66.39" font-family="Times,serif" font-size="9.00">2777</text>
</g>
<!-- DOWNFIRE&#45;&gt;2777 -->
<g id="edge7" class="edge">
<title>DOWNFIRE&#45;&gt;2777</title>
<path fill="none" stroke="red" stroke-width="0.2" d="M50.91,-172.83C50.91,-151.78 50.91,-127.7 50.91,-108.1"/>
<polygon fill="red" stroke="red" stroke-width="0.2" points="54.41,-108 50.91,-98 47.41,-108 54.41,-108"/>
</g>
<!-- UPRIGHTFIRE -->
<g id="node17" class="node">
<title>UPRIGHTFIRE</title>
<ellipse fill="lightblue" stroke="black" cx="1627.91" cy="-478.52" rx="60.21" ry="60.21"/>
<text text-anchor="middle" x="1627.91" y="-476.32" font-family="Times,serif" font-size="9.00">UPRIGHTFIRE</text>
</g>
<!-- UPLEFTFIRE -->
<g id="node18" class="node">
<title>UPLEFTFIRE</title>
<ellipse fill="lightblue" stroke="black" cx="1760.91" cy="-478.52" rx="55.31" ry="55.31"/>
<text text-anchor="middle" x="1760.91" y="-476.32" font-family="Times,serif" font-size="9.00">UPLEFTFIRE</text>
</g>
<!-- DOWNRIGHTFIRE -->
<g id="node19" class="node">
<title>DOWNRIGHTFIRE</title>
<ellipse fill="lightblue" stroke="black" cx="1907.91" cy="-478.52" rx="73.58" ry="73.58"/>
<text text-anchor="middle" x="1907.91" y="-476.32" font-family="Times,serif" font-size="9.00">DOWNRIGHTFIRE</text>
</g>
<!-- 1323 -->
<g id="node21" class="node">
<title>1323</title>
<ellipse fill="white" stroke="black" cx="2028.91" cy="-478.52" rx="28.98" ry="28.98"/>
<text text-anchor="middle" x="2028.91" y="-476.32" font-family="Times,serif" font-size="9.00">1323</text>
</g>
<!-- 2435&#45;&gt;DOWNFIRE -->
<g id="edge12" class="edge">
<title>2435&#45;&gt;DOWNFIRE</title>
<path fill="none" stroke="red" stroke-width="0.35" d="M59.19,-310.84C58.43,-302.99 57.58,-294.15 56.72,-285.2"/>
<polygon fill="red" stroke="red" stroke-width="0.35" points="60.19,-284.72 55.74,-275.11 53.22,-285.4 60.19,-284.72"/>
</g>
<!-- 2576&#45;&gt;RIGHTFIRE -->
<g id="edge5" class="edge">
<title>2576&#45;&gt;RIGHTFIRE</title>
<path fill="none" stroke="green" stroke-width="0.14" stroke-dasharray="1,5" d="M319.65,-310.84C319.86,-302.89 320.1,-293.93 320.34,-284.88"/>
<polygon fill="green" stroke="green" stroke-width="0.14" points="323.84,-284.75 320.61,-274.66 316.84,-284.56 323.84,-284.75"/>
</g>
<!-- 2696 -->
<g id="node24" class="node">
<title>2696</title>
<ellipse fill="white" stroke="black" cx="2104.91" cy="-478.52" rx="28.98" ry="28.98"/>
<text text-anchor="middle" x="2104.91" y="-476.32" font-family="Times,serif" font-size="9.00">2696</text>
</g>
<!-- 2710 -->
<g id="node25" class="node">
<title>2710</title>
<ellipse fill="white" stroke="black" cx="318.91" cy="-478.52" rx="28.98" ry="28.98"/>
<text text-anchor="middle" x="318.91" y="-476.32" font-family="Times,serif" font-size="9.00">2710</text>
</g>
<!-- 2710&#45;&gt;2576 -->
<g id="edge6" class="edge">
<title>2710&#45;&gt;2576</title>
<path fill="none" stroke="green" stroke-width="0.16" stroke-dasharray="1,5" d="M318.91,-449.23C318.91,-429.01 318.91,-401.55 318.91,-379.35"/>
<polygon fill="green" stroke="green" stroke-width="0.16" points="322.41,-379.25 318.91,-369.25 315.41,-379.25 322.41,-379.25"/>
</g>
<!-- 2864&#45;&gt;DOWNLEFTFIRE -->
<g id="edge9" class="edge">
<title>2864&#45;&gt;DOWNLEFTFIRE</title>
<path fill="none" stroke="red" stroke-width="0.13" stroke-dasharray="1,5" d="M192.2,-311.33C190.39,-300.08 188.4,-286.94 186.91,-275 181.68,-232.92 177.23,-185.81 173.94,-147.34"/>
<polygon fill="red" stroke="red" stroke-width="0.13" points="177.42,-146.91 173.09,-137.24 170.45,-147.5 177.42,-146.91"/>
</g>
<!-- 3101 -->
<g id="node28" class="node">
<title>3101</title>
<ellipse fill="white" stroke="black" cx="224.91" cy="-224.09" rx="28.98" ry="28.98"/>
<text text-anchor="middle" x="224.91" y="-221.89" font-family="Times,serif" font-size="9.00">3101</text>
</g>
<!-- 2864&#45;&gt;3101 -->
<g id="edge10" class="edge">
<title>2864&#45;&gt;3101</title>
<path fill="none" stroke="green" stroke-width="0.26" d="M203.62,-311.71C207.23,-297.03 211.74,-278.69 215.67,-262.67"/>
<polygon fill="green" stroke="green" stroke-width="0.26" points="219.17,-263.09 218.16,-252.55 212.38,-261.42 219.17,-263.09"/>
</g>
<!-- 3101&#45;&gt;DOWNLEFTFIRE -->
<g id="edge11" class="edge">
<title>3101&#45;&gt;DOWNLEFTFIRE</title>
<path fill="none" stroke="red" stroke-width="0.23" stroke-dasharray="1,5" d="M215.11,-196.7C209.53,-181.67 202.24,-162.04 195.06,-142.7"/>
<polygon fill="red" stroke="red" stroke-width="0.23" points="198.32,-141.42 191.55,-133.26 191.75,-143.85 198.32,-141.42"/>
</g>
</g>
</svg>
