<?xml version="1.0" encoding="UTF-8" standalone="no"?>
<!DOCTYPE svg PUBLIC "-//W3C//DTD SVG 1.1//EN"
 "http://www.w3.org/Graphics/SVG/1.1/DTD/svg11.dtd">
<!-- Generated by graphviz version 2.43.0 (0)
 -->
<!-- Title: %3 Pages: 1 -->
<svg width="960pt" height="161pt"
 viewBox="0.00 0.00 960.25 161.38" xmlns="http://www.w3.org/2000/svg" xmlns:xlink="http://www.w3.org/1999/xlink">
<g id="graph0" class="graph" transform="scale(1 1) rotate(0) translate(4 157.38)">
<title>%3</title>
<polygon fill="white" stroke="transparent" points="-4,4 -4,-157.38 956.25,-157.38 956.25,4 -4,4"/>
<!-- ball_left -->
<g id="node1" class="node">
<title>ball_left</title>
<polygon fill="lightgray" stroke="black" points="53,-128.44 0,-128.44 0,-110.44 53,-110.44 53,-128.44"/>
<text text-anchor="middle" x="26.5" y="-117.24" font-family="Times,serif" font-size="9.00">ball_left</text>
</g>
<!-- ball_right -->
<g id="node2" class="node">
<title>ball_right</title>
<polygon fill="lightgray" stroke="black" points="133.5,-128.44 71.5,-128.44 71.5,-110.44 133.5,-110.44 133.5,-128.44"/>
<text text-anchor="middle" x="102.5" y="-117.24" font-family="Times,serif" font-size="9.00">ball_right</text>
</g>
<!-- ball_out_field -->
<g id="node3" class="node">
<title>ball_out_field</title>
<polygon fill="lightgray" stroke="black" points="229.5,-128.44 151.5,-128.44 151.5,-110.44 229.5,-110.44 229.5,-128.44"/>
<text text-anchor="middle" x="190.5" y="-117.24" font-family="Times,serif" font-size="9.00">ball_out_field</text>
</g>
<!-- NOOP -->
<g id="node4" class="node">
<title>NOOP</title>
<ellipse fill="lightblue" stroke="black" cx="280.5" cy="-119.44" rx="32.55" ry="32.55"/>
<text text-anchor="middle" x="280.5" y="-117.24" font-family="Times,serif" font-size="9.00">NOOP</text>
</g>
<!-- 195 -->
<g id="node10" class="node">
<title>195</title>
<ellipse fill="white" stroke="black" cx="280.5" cy="-24.75" rx="25" ry="25"/>
<text text-anchor="middle" x="280.5" y="-22.55" font-family="Times,serif" font-size="9.00">195</text>
</g>
<!-- NOOP&#45;&gt;195 -->
<g id="edge1" class="edge">
<title>NOOP&#45;&gt;195</title>
<path fill="none" stroke="red" stroke-width="0.58" stroke-dasharray="1,5" d="M280.5,-86.8C280.5,-78.05 280.5,-68.53 280.5,-59.66"/>
<polygon fill="red" stroke="red" stroke-width="0.58" points="284,-59.64 280.5,-49.64 277,-59.64 284,-59.64"/>
</g>
<!-- FIRE -->
<g id="node5" class="node">
<title>FIRE</title>
<ellipse fill="lightblue" stroke="black" cx="359.5" cy="-119.44" rx="28.07" ry="28.07"/>
<text text-anchor="middle" x="359.5" y="-117.24" font-family="Times,serif" font-size="9.00">FIRE</text>
</g>
<!-- RIGHT -->
<g id="node6" class="node">
<title>RIGHT</title>
<ellipse fill="lightblue" stroke="black" cx="439.5" cy="-119.44" rx="33.88" ry="33.88"/>
<text text-anchor="middle" x="439.5" y="-117.24" font-family="Times,serif" font-size="9.00">RIGHT</text>
</g>
<!-- LEFT -->
<g id="node7" class="node">
<title>LEFT</title>
<ellipse fill="lightblue" stroke="black" cx="520.5" cy="-119.44" rx="28.98" ry="28.98"/>
<text text-anchor="middle" x="520.5" y="-117.24" font-family="Times,serif" font-size="9.00">LEFT</text>
</g>
<!-- 193 -->
<g id="node8" class="node">
<title>193</title>
<ellipse fill="white" stroke="black" cx="592.5" cy="-119.44" rx="25" ry="25"/>
<text text-anchor="middle" x="592.5" y="-117.24" font-family="Times,serif" font-size="9.00">193</text>
</g>
<!-- 194 -->
<g id="node9" class="node">
<title>194</title>
<ellipse fill="white" stroke="black" cx="659.5" cy="-119.44" rx="25" ry="25"/>
<text text-anchor="middle" x="659.5" y="-117.24" font-family="Times,serif" font-size="9.00">194</text>
</g>
<!-- 196 -->
<g id="node11" class="node">
<title>196</title>
<ellipse fill="white" stroke="black" cx="726.5" cy="-119.44" rx="25" ry="25"/>
<text text-anchor="middle" x="726.5" y="-117.24" font-family="Times,serif" font-size="9.00">196</text>
</g>
<!-- 197 -->
<g id="node12" class="node">
<title>197</title>
<ellipse fill="white" stroke="black" cx="793.5" cy="-119.44" rx="25" ry="25"/>
<text text-anchor="middle" x="793.5" y="-117.24" font-family="Times,serif" font-size="9.00">197</text>
</g>
<!-- 198 -->
<g id="node13" class="node">
<title>198</title>
<ellipse fill="white" stroke="black" cx="860.5" cy="-119.44" rx="25" ry="25"/>
<text text-anchor="middle" x="860.5" y="-117.24" font-family="Times,serif" font-size="9.00">198</text>
</g>
<!-- 201 -->
<g id="node14" class="node">
<title>201</title>
<ellipse fill="white" stroke="black" cx="927.5" cy="-119.44" rx="25" ry="25"/>
<text text-anchor="middle" x="927.5" y="-117.24" font-family="Times,serif" font-size="9.00">201</text>
</g>
</g>
</svg>
