<?xml version="1.0" encoding="UTF-8" standalone="no"?>
<!DOCTYPE svg PUBLIC "-//W3C//DTD SVG 1.1//EN"
 "http://www.w3.org/Graphics/SVG/1.1/DTD/svg11.dtd">
<!-- Generated by graphviz version 2.43.0 (0)
 -->
<!-- Title: %3 Pages: 1 -->
<svg width="407pt" height="271pt"
 viewBox="0.00 0.00 406.78 270.92" xmlns="http://www.w3.org/2000/svg" xmlns:xlink="http://www.w3.org/1999/xlink">
<g id="graph0" class="graph" transform="scale(1 1) rotate(0) translate(4 266.92)">
<title>%3</title>
<polygon fill="white" stroke="transparent" points="-4,4 -4,-266.92 402.78,-266.92 402.78,4 -4,4"/>
<!-- ball_left -->
<g id="node1" class="node">
<title>ball_left</title>
<polygon fill="lightgray" stroke="black" points="53,-239.39 0,-239.39 0,-221.39 53,-221.39 53,-239.39"/>
<text text-anchor="middle" x="26.5" y="-228.19" font-family="Times,serif" font-size="9.00">ball_left</text>
</g>
<!-- LEFT -->
<g id="node7" class="node">
<title>LEFT</title>
<ellipse fill="lightblue" stroke="black" cx="80.5" cy="-132.87" rx="28.98" ry="28.98"/>
<text text-anchor="middle" x="80.5" y="-130.67" font-family="Times,serif" font-size="9.00">LEFT</text>
</g>
<!-- ball_left&#45;&gt;LEFT -->
<g id="edge3" class="edge">
<title>ball_left&#45;&gt;LEFT</title>
<path fill="none" stroke="red" stroke-width="0.19" stroke-dasharray="1,5" d="M31.1,-221.25C37.8,-209.41 50.61,-186.75 61.5,-167.47"/>
<polygon fill="red" stroke="red" stroke-width="0.19" points="64.63,-169.05 66.51,-158.63 58.54,-165.61 64.63,-169.05"/>
</g>
<!-- ball_right -->
<g id="node2" class="node">
<title>ball_right</title>
<polygon fill="lightgray" stroke="black" points="133.5,-239.39 71.5,-239.39 71.5,-221.39 133.5,-221.39 133.5,-239.39"/>
<text text-anchor="middle" x="102.5" y="-228.19" font-family="Times,serif" font-size="9.00">ball_right</text>
</g>
<!-- ball_right&#45;&gt;LEFT -->
<g id="edge1" class="edge">
<title>ball_right&#45;&gt;LEFT</title>
<path fill="none" stroke="green" stroke-width="0.59" d="M100.62,-221.25C98.08,-210.21 93.37,-189.77 89.15,-171.43"/>
<polygon fill="green" stroke="green" stroke-width="0.59" points="92.53,-170.49 86.87,-161.53 85.7,-172.06 92.53,-170.49"/>
</g>
<!-- ball_out_field -->
<g id="node3" class="node">
<title>ball_out_field</title>
<polygon fill="lightgray" stroke="black" points="240.5,-239.39 162.5,-239.39 162.5,-221.39 240.5,-221.39 240.5,-239.39"/>
<text text-anchor="middle" x="201.5" y="-228.19" font-family="Times,serif" font-size="9.00">ball_out_field</text>
</g>
<!-- RIGHT -->
<g id="node6" class="node">
<title>RIGHT</title>
<ellipse fill="lightblue" stroke="black" cx="195.5" cy="-33.94" rx="33.88" ry="33.88"/>
<text text-anchor="middle" x="195.5" y="-31.74" font-family="Times,serif" font-size="9.00">RIGHT</text>
</g>
<!-- ball_out_field&#45;&gt;RIGHT -->
<g id="edge2" class="edge">
<title>ball_out_field&#45;&gt;RIGHT</title>
<path fill="none" stroke="red" stroke-width="0.31" stroke-dasharray="1,5" d="M199.39,-221.15C196.26,-208.5 190.56,-183.5 188.5,-161.87 185.83,-133.9 187.55,-102.35 189.95,-77.71"/>
<polygon fill="red" stroke="red" stroke-width="0.31" points="193.45,-77.91 191.01,-67.6 186.49,-77.18 193.45,-77.91"/>
</g>
<!-- 565 -->
<g id="node8" class="node">
<title>565</title>
<ellipse fill="white" stroke="black" cx="222.5" cy="-132.87" rx="25" ry="25"/>
<text text-anchor="middle" x="222.5" y="-130.67" font-family="Times,serif" font-size="9.00">565</text>
</g>
<!-- ball_out_field&#45;&gt;565 -->
<g id="edge4" class="edge">
<title>ball_out_field&#45;&gt;565</title>
<path fill="none" stroke="green" stroke-width="0.42" d="M203.29,-221.25C205.9,-209.39 210.89,-186.69 215.13,-167.4"/>
<polygon fill="green" stroke="green" stroke-width="0.42" points="218.6,-167.93 217.32,-157.41 211.76,-166.43 218.6,-167.93"/>
</g>
<!-- NOOP -->
<g id="node4" class="node">
<title>NOOP</title>
<ellipse fill="lightblue" stroke="black" cx="291.5" cy="-230.39" rx="32.55" ry="32.55"/>
<text text-anchor="middle" x="291.5" y="-228.19" font-family="Times,serif" font-size="9.00">NOOP</text>
</g>
<!-- FIRE -->
<g id="node5" class="node">
<title>FIRE</title>
<ellipse fill="lightblue" stroke="black" cx="370.5" cy="-230.39" rx="28.07" ry="28.07"/>
<text text-anchor="middle" x="370.5" y="-228.19" font-family="Times,serif" font-size="9.00">FIRE</text>
</g>
<!-- 565&#45;&gt;RIGHT -->
<g id="edge5" class="edge">
<title>565&#45;&gt;RIGHT</title>
<path fill="none" stroke="red" stroke-width="0.36" d="M216.1,-108.9C213.43,-99.3 210.23,-87.83 207.17,-76.83"/>
<polygon fill="red" stroke="red" stroke-width="0.36" points="210.46,-75.61 204.41,-66.92 203.72,-77.49 210.46,-75.61"/>
</g>
</g>
</svg>
