<?xml version="1.0" encoding="utf-8" standalone="no"?>
<!DOCTYPE svg PUBLIC "-//W3C//DTD SVG 1.1//EN"
  "http://www.w3.org/Graphics/SVG/1.1/DTD/svg11.dtd">
<svg xmlns:xlink="http://www.w3.org/1999/xlink" width="460.8pt" height="345.6pt" viewBox="0 0 460.8 345.6" xmlns="http://www.w3.org/2000/svg" version="1.1">
 <metadata>
  <rdf:RDF xmlns:dc="http://purl.org/dc/elements/1.1/" xmlns:cc="http://creativecommons.org/ns#" xmlns:rdf="http://www.w3.org/1999/02/22-rdf-syntax-ns#">
   <cc:Work>
    <dc:type rdf:resource="http://purl.org/dc/dcmitype/StillImage"/>
    <dc:date>2023-02-17T20:09:13.511095</dc:date>
    <dc:format>image/svg+xml</dc:format>
    <dc:creator>
     <cc:Agent>
      <dc:title>Matplotlib v3.6.2, https://matplotlib.org/</dc:title>
     </cc:Agent>
    </dc:creator>
   </cc:Work>
  </rdf:RDF>
 </metadata>
 <defs>
  <style type="text/css">*{stroke-linejoin: round; stroke-linecap: butt}</style>
 </defs>
 <g id="figure_1">
  <g id="patch_1">
   <path d="M 0 345.6 
L 460.8 345.6 
L 460.8 0 
L 0 0 
z
" style="fill: #ffffff"/>
  </g>
  <g id="axes_1">
   <g id="patch_2">
    <path d="M 57.6 307.584 
L 414.72 307.584 
L 414.72 41.472 
L 57.6 41.472 
z
" style="fill: #ffffff"/>
   </g>
   <g id="PolyCollection_1">
    <path d="M 73.832727 71.459776 
L 73.832727 307.584 
L 85.027712 307.584 
L 96.222696 307.584 
L 107.41768 307.584 
L 118.612665 307.584 
L 129.807649 307.584 
L 141.002633 307.584 
L 152.197618 307.584 
L 163.392602 307.584 
L 174.587586 307.584 
L 185.782571 307.584 
L 196.977555 307.584 
L 208.172539 307.584 
L 219.367524 307.584 
L 230.562508 307.584 
L 241.757492 307.584 
L 252.952476 307.584 
L 264.147461 307.584 
L 275.342445 307.584 
L 286.537429 307.584 
L 297.732414 307.584 
L 308.927398 307.584 
L 320.122382 307.584 
L 331.317367 307.584 
L 342.512351 307.584 
L 353.707335 307.584 
L 364.90232 307.584 
L 376.097304 307.584 
L 387.292288 307.584 
L 398.487273 307.584 
L 398.487273 298.139031 
L 398.487273 298.139031 
L 387.292288 296.56487 
L 376.097304 296.56487 
L 364.90232 299.713193 
L 353.707335 294.990708 
L 342.512351 302.861516 
L 331.317367 288.694062 
L 320.122382 290.268224 
L 308.927398 287.119901 
L 297.732414 291.842385 
L 286.537429 296.56487 
L 275.342445 288.694062 
L 264.147461 296.56487 
L 252.952476 299.713193 
L 241.757492 304.435677 
L 230.562508 252.488348 
L 219.367524 257.210832 
L 208.172539 246.191702 
L 196.977555 258.784994 
L 185.782571 227.301764 
L 174.587586 228.875925 
L 163.392602 203.689342 
L 152.197618 164.335304 
L 141.002633 194.244373 
L 129.807649 180.076919 
L 118.612665 136.000398 
L 107.41768 140.722882 
L 96.222696 112.387975 
L 85.027712 76.182261 
L 73.832727 71.459776 
z
" clip-path="url(#p39b2ca62c1)" style="fill: #1f77b4"/>
   </g>
   <g id="PolyCollection_2">
    <path d="M 73.832727 71.459776 
L 73.832727 71.459776 
L 85.027712 76.182261 
L 96.222696 112.387975 
L 107.41768 140.722882 
L 118.612665 136.000398 
L 129.807649 180.076919 
L 141.002633 194.244373 
L 152.197618 164.335304 
L 163.392602 203.689342 
L 174.587586 228.875925 
L 185.782571 227.301764 
L 196.977555 258.784994 
L 208.172539 246.191702 
L 219.367524 257.210832 
L 230.562508 252.488348 
L 241.757492 304.435677 
L 252.952476 299.713193 
L 264.147461 296.56487 
L 275.342445 288.694062 
L 286.537429 296.56487 
L 297.732414 291.842385 
L 308.927398 287.119901 
L 320.122382 290.268224 
L 331.317367 288.694062 
L 342.512351 302.861516 
L 353.707335 294.990708 
L 364.90232 299.713193 
L 376.097304 296.56487 
L 387.292288 296.56487 
L 398.487273 298.139031 
L 398.487273 288.694062 
L 398.487273 288.694062 
L 387.292288 288.694062 
L 376.097304 287.119901 
L 364.90232 293.416547 
L 353.707335 285.545739 
L 342.512351 291.842385 
L 331.317367 274.526609 
L 320.122382 287.119901 
L 308.927398 274.526609 
L 297.732414 276.10077 
L 286.537429 280.823255 
L 275.342445 282.397416 
L 264.147461 263.507478 
L 252.952476 255.636671 
L 241.757492 285.545739 
L 230.562508 195.818534 
L 219.367524 202.11518 
L 208.172539 200.541019 
L 196.977555 194.244373 
L 185.782571 198.966857 
L 174.587586 167.483627 
L 163.392602 164.335304 
L 152.197618 132.852075 
L 141.002633 129.703752 
L 129.807649 93.498037 
L 118.612665 73.033938 
L 107.41768 71.459776 
L 96.222696 71.459776 
L 85.027712 71.459776 
L 73.832727 71.459776 
z
" clip-path="url(#p39b2ca62c1)" style="fill: #ff7f0e"/>
   </g>
   <g id="PolyCollection_3">
    <path d="M 73.832727 71.459776 
L 73.832727 71.459776 
L 85.027712 71.459776 
L 96.222696 71.459776 
L 107.41768 71.459776 
L 118.612665 73.033938 
L 129.807649 93.498037 
L 141.002633 129.703752 
L 152.197618 132.852075 
L 163.392602 164.335304 
L 174.587586 167.483627 
L 185.782571 198.966857 
L 196.977555 194.244373 
L 208.172539 200.541019 
L 219.367524 202.11518 
L 230.562508 195.818534 
L 241.757492 285.545739 
L 252.952476 255.636671 
L 264.147461 263.507478 
L 275.342445 282.397416 
L 286.537429 280.823255 
L 297.732414 276.10077 
L 308.927398 274.526609 
L 320.122382 287.119901 
L 331.317367 274.526609 
L 342.512351 291.842385 
L 353.707335 285.545739 
L 364.90232 293.416547 
L 376.097304 287.119901 
L 387.292288 288.694062 
L 398.487273 288.694062 
L 398.487273 283.971578 
L 398.487273 283.971578 
L 387.292288 283.971578 
L 376.097304 282.397416 
L 364.90232 288.694062 
L 353.707335 280.823255 
L 342.512351 287.119901 
L 331.317367 269.804124 
L 320.122382 282.397416 
L 308.927398 269.804124 
L 297.732414 271.378286 
L 286.537429 276.10077 
L 275.342445 277.674932 
L 264.147461 258.784994 
L 252.952476 250.914186 
L 241.757492 280.823255 
L 230.562508 191.09605 
L 219.367524 197.392696 
L 208.172539 195.818534 
L 196.977555 189.521888 
L 185.782571 194.244373 
L 174.587586 162.761143 
L 163.392602 158.038658 
L 152.197618 121.832944 
L 141.002633 120.258783 
L 129.807649 85.62723 
L 118.612665 71.459776 
L 107.41768 71.459776 
L 96.222696 71.459776 
L 85.027712 71.459776 
L 73.832727 71.459776 
z
" clip-path="url(#p39b2ca62c1)" style="fill: #2ca02c"/>
   </g>
   <g id="PolyCollection_4">
    <path d="M 73.832727 71.459776 
L 73.832727 71.459776 
L 85.027712 71.459776 
L 96.222696 71.459776 
L 107.41768 71.459776 
L 118.612665 71.459776 
L 129.807649 85.62723 
L 141.002633 120.258783 
L 152.197618 121.832944 
L 163.392602 158.038658 
L 174.587586 162.761143 
L 185.782571 194.244373 
L 196.977555 189.521888 
L 208.172539 195.818534 
L 219.367524 197.392696 
L 230.562508 191.09605 
L 241.757492 280.823255 
L 252.952476 250.914186 
L 264.147461 258.784994 
L 275.342445 277.674932 
L 286.537429 276.10077 
L 297.732414 271.378286 
L 308.927398 269.804124 
L 320.122382 282.397416 
L 331.317367 269.804124 
L 342.512351 287.119901 
L 353.707335 280.823255 
L 364.90232 288.694062 
L 376.097304 282.397416 
L 387.292288 283.971578 
L 398.487273 283.971578 
L 398.487273 279.249093 
L 398.487273 279.249093 
L 387.292288 279.249093 
L 376.097304 277.674932 
L 364.90232 283.971578 
L 353.707335 276.10077 
L 342.512351 282.397416 
L 331.317367 265.08164 
L 320.122382 277.674932 
L 308.927398 265.08164 
L 297.732414 266.655801 
L 286.537429 271.378286 
L 275.342445 272.952447 
L 264.147461 252.488348 
L 252.952476 243.043379 
L 241.757492 269.804124 
L 230.562508 180.076919 
L 219.367524 186.373565 
L 208.172539 183.225242 
L 196.977555 178.502758 
L 185.782571 181.651081 
L 174.587586 143.871205 
L 163.392602 123.407106 
L 152.197618 88.775553 
L 141.002633 77.756422 
L 129.807649 74.608099 
L 118.612665 71.459776 
L 107.41768 71.459776 
L 96.222696 71.459776 
L 85.027712 71.459776 
L 73.832727 71.459776 
z
" clip-path="url(#p39b2ca62c1)" style="fill: #d62728"/>
   </g>
   <g id="PolyCollection_5">
    <path d="M 73.832727 71.459776 
L 73.832727 71.459776 
L 85.027712 71.459776 
L 96.222696 71.459776 
L 107.41768 71.459776 
L 118.612665 71.459776 
L 129.807649 74.608099 
L 141.002633 77.756422 
L 152.197618 88.775553 
L 163.392602 123.407106 
L 174.587586 143.871205 
L 185.782571 181.651081 
L 196.977555 178.502758 
L 208.172539 183.225242 
L 219.367524 186.373565 
L 230.562508 180.076919 
L 241.757492 269.804124 
L 252.952476 243.043379 
L 264.147461 252.488348 
L 275.342445 272.952447 
L 286.537429 271.378286 
L 297.732414 266.655801 
L 308.927398 265.08164 
L 320.122382 277.674932 
L 331.317367 265.08164 
L 342.512351 282.397416 
L 353.707335 276.10077 
L 364.90232 283.971578 
L 376.097304 277.674932 
L 387.292288 279.249093 
L 398.487273 279.249093 
L 398.487273 274.526609 
L 398.487273 274.526609 
L 387.292288 271.378286 
L 376.097304 272.952447 
L 364.90232 277.674932 
L 353.707335 269.804124 
L 342.512351 271.378286 
L 331.317367 249.340025 
L 320.122382 266.655801 
L 308.927398 257.210832 
L 297.732414 261.933317 
L 286.537429 268.229963 
L 275.342445 268.229963 
L 264.147461 246.191702 
L 252.952476 235.172571 
L 241.757492 260.359155 
L 230.562508 169.057789 
L 219.367524 172.206112 
L 208.172539 173.780273 
L 196.977555 167.483627 
L 185.782571 165.909466 
L 174.587586 131.277913 
L 163.392602 87.201391 
L 152.197618 74.608099 
L 141.002633 71.459776 
L 129.807649 71.459776 
L 118.612665 71.459776 
L 107.41768 71.459776 
L 96.222696 71.459776 
L 85.027712 71.459776 
L 73.832727 71.459776 
z
" clip-path="url(#p39b2ca62c1)" style="fill: #9467bd"/>
   </g>
   <g id="PolyCollection_6">
    <path d="M 73.832727 71.459776 
L 73.832727 71.459776 
L 85.027712 71.459776 
L 96.222696 71.459776 
L 107.41768 71.459776 
L 118.612665 71.459776 
L 129.807649 71.459776 
L 141.002633 71.459776 
L 152.197618 74.608099 
L 163.392602 87.201391 
L 174.587586 131.277913 
L 185.782571 165.909466 
L 196.977555 167.483627 
L 208.172539 173.780273 
L 219.367524 172.206112 
L 230.562508 169.057789 
L 241.757492 260.359155 
L 252.952476 235.172571 
L 264.147461 246.191702 
L 275.342445 268.229963 
L 286.537429 268.229963 
L 297.732414 261.933317 
L 308.927398 257.210832 
L 320.122382 266.655801 
L 331.317367 249.340025 
L 342.512351 271.378286 
L 353.707335 269.804124 
L 364.90232 277.674932 
L 376.097304 272.952447 
L 387.292288 271.378286 
L 398.487273 274.526609 
L 398.487273 255.636671 
L 398.487273 255.636671 
L 387.292288 258.784994 
L 376.097304 261.933317 
L 364.90232 266.655801 
L 353.707335 255.636671 
L 342.512351 255.636671 
L 331.317367 227.301764 
L 320.122382 249.340025 
L 308.927398 243.043379 
L 297.732414 250.914186 
L 286.537429 241.469217 
L 275.342445 241.469217 
L 264.147461 214.708472 
L 252.952476 206.837665 
L 241.757492 239.895056 
L 230.562508 162.761143 
L 219.367524 154.890335 
L 208.172539 150.167851 
L 196.977555 154.890335 
L 185.782571 136.000398 
L 174.587586 107.665491 
L 163.392602 79.330584 
L 152.197618 69.885615 
L 141.002633 71.459776 
L 129.807649 71.459776 
L 118.612665 71.459776 
L 107.41768 71.459776 
L 96.222696 71.459776 
L 85.027712 71.459776 
L 73.832727 71.459776 
z
" clip-path="url(#p39b2ca62c1)" style="fill: #8c564b"/>
   </g>
   <g id="PolyCollection_7">
    <path d="M 73.832727 71.459776 
L 73.832727 71.459776 
L 85.027712 71.459776 
L 96.222696 71.459776 
L 107.41768 71.459776 
L 118.612665 71.459776 
L 129.807649 71.459776 
L 141.002633 71.459776 
L 152.197618 69.885615 
L 163.392602 79.330584 
L 174.587586 107.665491 
L 185.782571 136.000398 
L 196.977555 154.890335 
L 208.172539 150.167851 
L 219.367524 154.890335 
L 230.562508 162.761143 
L 241.757492 239.895056 
L 252.952476 206.837665 
L 264.147461 214.708472 
L 275.342445 241.469217 
L 286.537429 241.469217 
L 297.732414 250.914186 
L 308.927398 243.043379 
L 320.122382 249.340025 
L 331.317367 227.301764 
L 342.512351 255.636671 
L 353.707335 255.636671 
L 364.90232 266.655801 
L 376.097304 261.933317 
L 387.292288 258.784994 
L 398.487273 255.636671 
L 398.487273 255.636671 
L 398.487273 255.636671 
L 387.292288 254.062509 
L 376.097304 257.210832 
L 364.90232 261.933317 
L 353.707335 250.914186 
L 342.512351 250.914186 
L 331.317367 222.57928 
L 320.122382 244.61754 
L 308.927398 238.320894 
L 297.732414 246.191702 
L 286.537429 236.746733 
L 275.342445 236.746733 
L 264.147461 208.411826 
L 252.952476 202.11518 
L 241.757492 233.59841 
L 230.562508 153.316174 
L 219.367524 142.297043 
L 208.172539 134.426236 
L 196.977555 140.722882 
L 185.782571 120.258783 
L 174.587586 85.62723 
L 163.392602 77.756422 
L 152.197618 69.885615 
L 141.002633 71.459776 
L 129.807649 71.459776 
L 118.612665 71.459776 
L 107.41768 71.459776 
L 96.222696 71.459776 
L 85.027712 71.459776 
L 73.832727 71.459776 
z
" clip-path="url(#p39b2ca62c1)" style="fill: #e377c2"/>
   </g>
   <g id="PolyCollection_8">
    <path d="M 73.832727 71.459776 
L 73.832727 71.459776 
L 85.027712 71.459776 
L 96.222696 71.459776 
L 107.41768 71.459776 
L 118.612665 71.459776 
L 129.807649 71.459776 
L 141.002633 71.459776 
L 152.197618 69.885615 
L 163.392602 77.756422 
L 174.587586 85.62723 
L 185.782571 120.258783 
L 196.977555 140.722882 
L 208.172539 134.426236 
L 219.367524 142.297043 
L 230.562508 153.316174 
L 241.757492 233.59841 
L 252.952476 202.11518 
L 264.147461 208.411826 
L 275.342445 236.746733 
L 286.537429 236.746733 
L 297.732414 246.191702 
L 308.927398 238.320894 
L 320.122382 244.61754 
L 331.317367 222.57928 
L 342.512351 250.914186 
L 353.707335 250.914186 
L 364.90232 261.933317 
L 376.097304 257.210832 
L 387.292288 254.062509 
L 398.487273 255.636671 
L 398.487273 241.469217 
L 398.487273 241.469217 
L 387.292288 241.469217 
L 376.097304 247.765863 
L 364.90232 247.765863 
L 353.707335 246.191702 
L 342.512351 238.320894 
L 331.317367 209.985988 
L 320.122382 236.746733 
L 308.927398 217.856795 
L 297.732414 233.59841 
L 286.537429 224.153441 
L 275.342445 230.450087 
L 264.147461 198.966857 
L 252.952476 184.799404 
L 241.757492 189.521888 
L 230.562508 102.943006 
L 219.367524 99.794683 
L 208.172539 85.62723 
L 196.977555 82.478907 
L 185.782571 80.904745 
L 174.587586 76.182261 
L 163.392602 73.033938 
L 152.197618 69.885615 
L 141.002633 71.459776 
L 129.807649 71.459776 
L 118.612665 71.459776 
L 107.41768 71.459776 
L 96.222696 71.459776 
L 85.027712 71.459776 
L 73.832727 71.459776 
z
" clip-path="url(#p39b2ca62c1)" style="fill: #7f7f7f"/>
   </g>
   <g id="PolyCollection_9">
    <path d="M 73.832727 71.459776 
L 73.832727 71.459776 
L 85.027712 71.459776 
L 96.222696 71.459776 
L 107.41768 71.459776 
L 118.612665 71.459776 
L 129.807649 71.459776 
L 141.002633 71.459776 
L 152.197618 69.885615 
L 163.392602 73.033938 
L 174.587586 76.182261 
L 185.782571 80.904745 
L 196.977555 82.478907 
L 208.172539 85.62723 
L 219.367524 99.794683 
L 230.562508 102.943006 
L 241.757492 189.521888 
L 252.952476 184.799404 
L 264.147461 198.966857 
L 275.342445 230.450087 
L 286.537429 224.153441 
L 297.732414 233.59841 
L 308.927398 217.856795 
L 320.122382 236.746733 
L 331.317367 209.985988 
L 342.512351 238.320894 
L 353.707335 246.191702 
L 364.90232 247.765863 
L 376.097304 247.765863 
L 387.292288 241.469217 
L 398.487273 241.469217 
L 398.487273 236.746733 
L 398.487273 236.746733 
L 387.292288 235.172571 
L 376.097304 243.043379 
L 364.90232 243.043379 
L 353.707335 241.469217 
L 342.512351 233.59841 
L 331.317367 205.263503 
L 320.122382 232.024248 
L 308.927398 213.134311 
L 297.732414 228.875925 
L 286.537429 219.430957 
L 275.342445 225.727602 
L 264.147461 194.244373 
L 252.952476 180.076919 
L 241.757492 184.799404 
L 230.562508 98.220522 
L 219.367524 91.923876 
L 208.172539 80.904745 
L 196.977555 77.756422 
L 185.782571 76.182261 
L 174.587586 74.608099 
L 163.392602 69.885615 
L 152.197618 69.885615 
L 141.002633 71.459776 
L 129.807649 71.459776 
L 118.612665 71.459776 
L 107.41768 71.459776 
L 96.222696 71.459776 
L 85.027712 71.459776 
L 73.832727 71.459776 
z
" clip-path="url(#p39b2ca62c1)" style="fill: #bcbd22"/>
   </g>
   <g id="PolyCollection_10">
    <path d="M 73.832727 71.459776 
L 73.832727 71.459776 
L 85.027712 71.459776 
L 96.222696 71.459776 
L 107.41768 71.459776 
L 118.612665 71.459776 
L 129.807649 71.459776 
L 141.002633 71.459776 
L 152.197618 69.885615 
L 163.392602 69.885615 
L 174.587586 74.608099 
L 185.782571 76.182261 
L 196.977555 77.756422 
L 208.172539 80.904745 
L 219.367524 91.923876 
L 230.562508 98.220522 
L 241.757492 184.799404 
L 252.952476 180.076919 
L 264.147461 194.244373 
L 275.342445 225.727602 
L 286.537429 219.430957 
L 297.732414 228.875925 
L 308.927398 213.134311 
L 320.122382 232.024248 
L 331.317367 205.263503 
L 342.512351 233.59841 
L 353.707335 241.469217 
L 364.90232 243.043379 
L 376.097304 243.043379 
L 387.292288 235.172571 
L 398.487273 236.746733 
L 398.487273 232.024248 
L 398.487273 232.024248 
L 387.292288 230.450087 
L 376.097304 238.320894 
L 364.90232 238.320894 
L 353.707335 236.746733 
L 342.512351 228.875925 
L 331.317367 200.541019 
L 320.122382 227.301764 
L 308.927398 208.411826 
L 297.732414 224.153441 
L 286.537429 214.708472 
L 275.342445 221.005118 
L 264.147461 189.521888 
L 252.952476 176.928596 
L 241.757492 178.502758 
L 230.562508 93.498037 
L 219.367524 87.201391 
L 208.172539 77.756422 
L 196.977555 73.033938 
L 185.782571 69.885615 
L 174.587586 73.033938 
L 163.392602 69.885615 
L 152.197618 69.885615 
L 141.002633 71.459776 
L 129.807649 71.459776 
L 118.612665 71.459776 
L 107.41768 71.459776 
L 96.222696 71.459776 
L 85.027712 71.459776 
L 73.832727 71.459776 
z
" clip-path="url(#p39b2ca62c1)" style="fill: #17becf"/>
   </g>
   <g id="PolyCollection_11">
    <path d="M 73.832727 71.459776 
L 73.832727 71.459776 
L 85.027712 71.459776 
L 96.222696 71.459776 
L 107.41768 71.459776 
L 118.612665 71.459776 
L 129.807649 71.459776 
L 141.002633 71.459776 
L 152.197618 69.885615 
L 163.392602 69.885615 
L 174.587586 73.033938 
L 185.782571 69.885615 
L 196.977555 73.033938 
L 208.172539 77.756422 
L 219.367524 87.201391 
L 230.562508 93.498037 
L 241.757492 178.502758 
L 252.952476 176.928596 
L 264.147461 189.521888 
L 275.342445 221.005118 
L 286.537429 214.708472 
L 297.732414 224.153441 
L 308.927398 208.411826 
L 320.122382 227.301764 
L 331.317367 200.541019 
L 342.512351 228.875925 
L 353.707335 236.746733 
L 364.90232 238.320894 
L 376.097304 238.320894 
L 387.292288 230.450087 
L 398.487273 232.024248 
L 398.487273 227.301764 
L 398.487273 227.301764 
L 387.292288 225.727602 
L 376.097304 233.59841 
L 364.90232 233.59841 
L 353.707335 232.024248 
L 342.512351 224.153441 
L 331.317367 195.818534 
L 320.122382 222.57928 
L 308.927398 203.689342 
L 297.732414 219.430957 
L 286.537429 211.560149 
L 275.342445 217.856795 
L 264.147461 184.799404 
L 252.952476 172.206112 
L 241.757492 173.780273 
L 230.562508 87.201391 
L 219.367524 82.478907 
L 208.172539 73.033938 
L 196.977555 69.885615 
L 185.782571 68.311453 
L 174.587586 73.033938 
L 163.392602 69.885615 
L 152.197618 69.885615 
L 141.002633 71.459776 
L 129.807649 71.459776 
L 118.612665 71.459776 
L 107.41768 71.459776 
L 96.222696 71.459776 
L 85.027712 71.459776 
L 73.832727 71.459776 
z
" clip-path="url(#p39b2ca62c1)" style="fill: #1f77b4"/>
   </g>
   <g id="PolyCollection_12">
    <path d="M 73.832727 71.459776 
L 73.832727 71.459776 
L 85.027712 71.459776 
L 96.222696 71.459776 
L 107.41768 71.459776 
L 118.612665 71.459776 
L 129.807649 71.459776 
L 141.002633 71.459776 
L 152.197618 69.885615 
L 163.392602 69.885615 
L 174.587586 73.033938 
L 185.782571 68.311453 
L 196.977555 69.885615 
L 208.172539 73.033938 
L 219.367524 82.478907 
L 230.562508 87.201391 
L 241.757492 173.780273 
L 252.952476 172.206112 
L 264.147461 184.799404 
L 275.342445 217.856795 
L 286.537429 211.560149 
L 297.732414 219.430957 
L 308.927398 203.689342 
L 320.122382 222.57928 
L 331.317367 195.818534 
L 342.512351 224.153441 
L 353.707335 232.024248 
L 364.90232 233.59841 
L 376.097304 233.59841 
L 387.292288 225.727602 
L 398.487273 227.301764 
L 398.487273 222.57928 
L 398.487273 222.57928 
L 387.292288 221.005118 
L 376.097304 228.875925 
L 364.90232 227.301764 
L 353.707335 224.153441 
L 342.512351 217.856795 
L 331.317367 191.09605 
L 320.122382 216.282634 
L 308.927398 198.966857 
L 297.732414 214.708472 
L 286.537429 205.263503 
L 275.342445 208.411826 
L 264.147461 173.780273 
L 252.952476 165.909466 
L 241.757492 167.483627 
L 230.562508 76.182261 
L 219.367524 71.459776 
L 208.172539 69.885615 
L 196.977555 69.885615 
L 185.782571 68.311453 
L 174.587586 73.033938 
L 163.392602 69.885615 
L 152.197618 69.885615 
L 141.002633 71.459776 
L 129.807649 71.459776 
L 118.612665 71.459776 
L 107.41768 71.459776 
L 96.222696 71.459776 
L 85.027712 71.459776 
L 73.832727 71.459776 
z
" clip-path="url(#p39b2ca62c1)" style="fill: #ff7f0e"/>
   </g>
   <g id="PolyCollection_13">
    <path d="M 73.832727 71.459776 
L 73.832727 71.459776 
L 85.027712 71.459776 
L 96.222696 71.459776 
L 107.41768 71.459776 
L 118.612665 71.459776 
L 129.807649 71.459776 
L 141.002633 71.459776 
L 152.197618 69.885615 
L 163.392602 69.885615 
L 174.587586 73.033938 
L 185.782571 68.311453 
L 196.977555 69.885615 
L 208.172539 69.885615 
L 219.367524 71.459776 
L 230.562508 76.182261 
L 241.757492 167.483627 
L 252.952476 165.909466 
L 264.147461 173.780273 
L 275.342445 208.411826 
L 286.537429 205.263503 
L 297.732414 214.708472 
L 308.927398 198.966857 
L 320.122382 216.282634 
L 331.317367 191.09605 
L 342.512351 217.856795 
L 353.707335 224.153441 
L 364.90232 227.301764 
L 376.097304 228.875925 
L 387.292288 221.005118 
L 398.487273 222.57928 
L 398.487273 217.856795 
L 398.487273 217.856795 
L 387.292288 216.282634 
L 376.097304 224.153441 
L 364.90232 222.57928 
L 353.707335 219.430957 
L 342.512351 213.134311 
L 331.317367 186.373565 
L 320.122382 211.560149 
L 308.927398 194.244373 
L 297.732414 209.985988 
L 286.537429 200.541019 
L 275.342445 203.689342 
L 264.147461 169.057789 
L 252.952476 161.186981 
L 241.757492 162.761143 
L 230.562508 71.459776 
L 219.367524 69.885615 
L 208.172539 69.885615 
L 196.977555 69.885615 
L 185.782571 68.311453 
L 174.587586 73.033938 
L 163.392602 69.885615 
L 152.197618 69.885615 
L 141.002633 71.459776 
L 129.807649 71.459776 
L 118.612665 71.459776 
L 107.41768 71.459776 
L 96.222696 71.459776 
L 85.027712 71.459776 
L 73.832727 71.459776 
z
" clip-path="url(#p39b2ca62c1)" style="fill: #2ca02c"/>
   </g>
   <g id="PolyCollection_14">
    <path d="M 73.832727 71.459776 
L 73.832727 71.459776 
L 85.027712 71.459776 
L 96.222696 71.459776 
L 107.41768 71.459776 
L 118.612665 71.459776 
L 129.807649 71.459776 
L 141.002633 71.459776 
L 152.197618 69.885615 
L 163.392602 69.885615 
L 174.587586 73.033938 
L 185.782571 68.311453 
L 196.977555 69.885615 
L 208.172539 69.885615 
L 219.367524 69.885615 
L 230.562508 71.459776 
L 241.757492 162.761143 
L 252.952476 161.186981 
L 264.147461 169.057789 
L 275.342445 203.689342 
L 286.537429 200.541019 
L 297.732414 209.985988 
L 308.927398 194.244373 
L 320.122382 211.560149 
L 331.317367 186.373565 
L 342.512351 213.134311 
L 353.707335 219.430957 
L 364.90232 222.57928 
L 376.097304 224.153441 
L 387.292288 216.282634 
L 398.487273 217.856795 
L 398.487273 205.263503 
L 398.487273 205.263503 
L 387.292288 205.263503 
L 376.097304 213.134311 
L 364.90232 214.708472 
L 353.707335 206.837665 
L 342.512351 203.689342 
L 331.317367 175.354435 
L 320.122382 200.541019 
L 308.927398 180.076919 
L 297.732414 194.244373 
L 286.537429 183.225242 
L 275.342445 183.225242 
L 264.147461 159.61282 
L 252.952476 117.11046 
L 241.757492 113.962137 
L 230.562508 66.737292 
L 219.367524 69.885615 
L 208.172539 69.885615 
L 196.977555 69.885615 
L 185.782571 68.311453 
L 174.587586 73.033938 
L 163.392602 69.885615 
L 152.197618 69.885615 
L 141.002633 71.459776 
L 129.807649 71.459776 
L 118.612665 71.459776 
L 107.41768 71.459776 
L 96.222696 71.459776 
L 85.027712 71.459776 
L 73.832727 71.459776 
z
" clip-path="url(#p39b2ca62c1)" style="fill: #d62728"/>
   </g>
   <g id="PolyCollection_15">
    <path d="M 73.832727 71.459776 
L 73.832727 71.459776 
L 85.027712 71.459776 
L 96.222696 71.459776 
L 107.41768 71.459776 
L 118.612665 71.459776 
L 129.807649 71.459776 
L 141.002633 71.459776 
L 152.197618 69.885615 
L 163.392602 69.885615 
L 174.587586 73.033938 
L 185.782571 68.311453 
L 196.977555 69.885615 
L 208.172539 69.885615 
L 219.367524 69.885615 
L 230.562508 66.737292 
L 241.757492 113.962137 
L 252.952476 117.11046 
L 264.147461 159.61282 
L 275.342445 183.225242 
L 286.537429 183.225242 
L 297.732414 194.244373 
L 308.927398 180.076919 
L 320.122382 200.541019 
L 331.317367 175.354435 
L 342.512351 203.689342 
L 353.707335 206.837665 
L 364.90232 214.708472 
L 376.097304 213.134311 
L 387.292288 205.263503 
L 398.487273 205.263503 
L 398.487273 194.244373 
L 398.487273 194.244373 
L 387.292288 191.09605 
L 376.097304 205.263503 
L 364.90232 203.689342 
L 353.707335 195.818534 
L 342.512351 178.502758 
L 331.317367 164.335304 
L 320.122382 167.483627 
L 308.927398 161.186981 
L 297.732414 183.225242 
L 286.537429 164.335304 
L 275.342445 161.186981 
L 264.147461 140.722882 
L 252.952476 91.923876 
L 241.757492 69.885615 
L 230.562508 66.737292 
L 219.367524 69.885615 
L 208.172539 69.885615 
L 196.977555 69.885615 
L 185.782571 68.311453 
L 174.587586 73.033938 
L 163.392602 69.885615 
L 152.197618 69.885615 
L 141.002633 71.459776 
L 129.807649 71.459776 
L 118.612665 71.459776 
L 107.41768 71.459776 
L 96.222696 71.459776 
L 85.027712 71.459776 
L 73.832727 71.459776 
z
" clip-path="url(#p39b2ca62c1)" style="fill: #9467bd"/>
   </g>
   <g id="PolyCollection_16">
    <path d="M 73.832727 71.459776 
L 73.832727 71.459776 
L 85.027712 71.459776 
L 96.222696 71.459776 
L 107.41768 71.459776 
L 118.612665 71.459776 
L 129.807649 71.459776 
L 141.002633 71.459776 
L 152.197618 69.885615 
L 163.392602 69.885615 
L 174.587586 73.033938 
L 185.782571 68.311453 
L 196.977555 69.885615 
L 208.172539 69.885615 
L 219.367524 69.885615 
L 230.562508 66.737292 
L 241.757492 69.885615 
L 252.952476 91.923876 
L 264.147461 140.722882 
L 275.342445 161.186981 
L 286.537429 164.335304 
L 297.732414 183.225242 
L 308.927398 161.186981 
L 320.122382 167.483627 
L 331.317367 164.335304 
L 342.512351 178.502758 
L 353.707335 195.818534 
L 364.90232 203.689342 
L 376.097304 205.263503 
L 387.292288 191.09605 
L 398.487273 194.244373 
L 398.487273 189.521888 
L 398.487273 189.521888 
L 387.292288 186.373565 
L 376.097304 200.541019 
L 364.90232 198.966857 
L 353.707335 191.09605 
L 342.512351 173.780273 
L 331.317367 159.61282 
L 320.122382 162.761143 
L 308.927398 156.464497 
L 297.732414 178.502758 
L 286.537429 159.61282 
L 275.342445 156.464497 
L 264.147461 137.574559 
L 252.952476 88.775553 
L 241.757492 68.311453 
L 230.562508 66.737292 
L 219.367524 69.885615 
L 208.172539 69.885615 
L 196.977555 69.885615 
L 185.782571 68.311453 
L 174.587586 73.033938 
L 163.392602 69.885615 
L 152.197618 69.885615 
L 141.002633 71.459776 
L 129.807649 71.459776 
L 118.612665 71.459776 
L 107.41768 71.459776 
L 96.222696 71.459776 
L 85.027712 71.459776 
L 73.832727 71.459776 
z
" clip-path="url(#p39b2ca62c1)" style="fill: #8c564b"/>
   </g>
   <g id="PolyCollection_17">
    <path d="M 73.832727 71.459776 
L 73.832727 71.459776 
L 85.027712 71.459776 
L 96.222696 71.459776 
L 107.41768 71.459776 
L 118.612665 71.459776 
L 129.807649 71.459776 
L 141.002633 71.459776 
L 152.197618 69.885615 
L 163.392602 69.885615 
L 174.587586 73.033938 
L 185.782571 68.311453 
L 196.977555 69.885615 
L 208.172539 69.885615 
L 219.367524 69.885615 
L 230.562508 66.737292 
L 241.757492 68.311453 
L 252.952476 88.775553 
L 264.147461 137.574559 
L 275.342445 156.464497 
L 286.537429 159.61282 
L 297.732414 178.502758 
L 308.927398 156.464497 
L 320.122382 162.761143 
L 331.317367 159.61282 
L 342.512351 173.780273 
L 353.707335 191.09605 
L 364.90232 198.966857 
L 376.097304 200.541019 
L 387.292288 186.373565 
L 398.487273 189.521888 
L 398.487273 184.799404 
L 398.487273 184.799404 
L 387.292288 181.651081 
L 376.097304 195.818534 
L 364.90232 194.244373 
L 353.707335 186.373565 
L 342.512351 169.057789 
L 331.317367 154.890335 
L 320.122382 158.038658 
L 308.927398 151.742012 
L 297.732414 173.780273 
L 286.537429 154.890335 
L 275.342445 151.742012 
L 264.147461 132.852075 
L 252.952476 87.201391 
L 241.757492 68.311453 
L 230.562508 66.737292 
L 219.367524 69.885615 
L 208.172539 69.885615 
L 196.977555 69.885615 
L 185.782571 68.311453 
L 174.587586 73.033938 
L 163.392602 69.885615 
L 152.197618 69.885615 
L 141.002633 71.459776 
L 129.807649 71.459776 
L 118.612665 71.459776 
L 107.41768 71.459776 
L 96.222696 71.459776 
L 85.027712 71.459776 
L 73.832727 71.459776 
z
" clip-path="url(#p39b2ca62c1)" style="fill: #e377c2"/>
   </g>
   <g id="PolyCollection_18">
    <path d="M 73.832727 71.459776 
L 73.832727 71.459776 
L 85.027712 71.459776 
L 96.222696 71.459776 
L 107.41768 71.459776 
L 118.612665 71.459776 
L 129.807649 71.459776 
L 141.002633 71.459776 
L 152.197618 69.885615 
L 163.392602 69.885615 
L 174.587586 73.033938 
L 185.782571 68.311453 
L 196.977555 69.885615 
L 208.172539 69.885615 
L 219.367524 69.885615 
L 230.562508 66.737292 
L 241.757492 68.311453 
L 252.952476 87.201391 
L 264.147461 132.852075 
L 275.342445 151.742012 
L 286.537429 154.890335 
L 297.732414 173.780273 
L 308.927398 151.742012 
L 320.122382 158.038658 
L 331.317367 154.890335 
L 342.512351 169.057789 
L 353.707335 186.373565 
L 364.90232 194.244373 
L 376.097304 195.818534 
L 387.292288 181.651081 
L 398.487273 184.799404 
L 398.487273 172.206112 
L 398.487273 172.206112 
L 387.292288 172.206112 
L 376.097304 186.373565 
L 364.90232 184.799404 
L 353.707335 175.354435 
L 342.512351 158.038658 
L 331.317367 136.000398 
L 320.122382 139.14872 
L 308.927398 142.297043 
L 297.732414 154.890335 
L 286.537429 136.000398 
L 275.342445 134.426236 
L 264.147461 107.665491 
L 252.952476 80.904745 
L 241.757492 68.311453 
L 230.562508 66.737292 
L 219.367524 69.885615 
L 208.172539 69.885615 
L 196.977555 69.885615 
L 185.782571 68.311453 
L 174.587586 73.033938 
L 163.392602 69.885615 
L 152.197618 69.885615 
L 141.002633 71.459776 
L 129.807649 71.459776 
L 118.612665 71.459776 
L 107.41768 71.459776 
L 96.222696 71.459776 
L 85.027712 71.459776 
L 73.832727 71.459776 
z
" clip-path="url(#p39b2ca62c1)" style="fill: #7f7f7f"/>
   </g>
   <g id="PolyCollection_19">
    <path d="M 73.832727 71.459776 
L 73.832727 71.459776 
L 85.027712 71.459776 
L 96.222696 71.459776 
L 107.41768 71.459776 
L 118.612665 71.459776 
L 129.807649 71.459776 
L 141.002633 71.459776 
L 152.197618 69.885615 
L 163.392602 69.885615 
L 174.587586 73.033938 
L 185.782571 68.311453 
L 196.977555 69.885615 
L 208.172539 69.885615 
L 219.367524 69.885615 
L 230.562508 66.737292 
L 241.757492 68.311453 
L 252.952476 80.904745 
L 264.147461 107.665491 
L 275.342445 134.426236 
L 286.537429 136.000398 
L 297.732414 154.890335 
L 308.927398 142.297043 
L 320.122382 139.14872 
L 331.317367 136.000398 
L 342.512351 158.038658 
L 353.707335 175.354435 
L 364.90232 184.799404 
L 376.097304 186.373565 
L 387.292288 172.206112 
L 398.487273 172.206112 
L 398.487273 164.335304 
L 398.487273 164.335304 
L 387.292288 167.483627 
L 376.097304 178.502758 
L 364.90232 175.354435 
L 353.707335 165.909466 
L 342.512351 147.019528 
L 331.317367 128.12959 
L 320.122382 124.981267 
L 308.927398 126.555429 
L 297.732414 132.852075 
L 286.537429 126.555429 
L 275.342445 123.407106 
L 264.147461 91.923876 
L 252.952476 74.608099 
L 241.757492 68.311453 
L 230.562508 66.737292 
L 219.367524 69.885615 
L 208.172539 69.885615 
L 196.977555 69.885615 
L 185.782571 68.311453 
L 174.587586 73.033938 
L 163.392602 69.885615 
L 152.197618 69.885615 
L 141.002633 71.459776 
L 129.807649 71.459776 
L 118.612665 71.459776 
L 107.41768 71.459776 
L 96.222696 71.459776 
L 85.027712 71.459776 
L 73.832727 71.459776 
z
" clip-path="url(#p39b2ca62c1)" style="fill: #bcbd22"/>
   </g>
   <g id="PolyCollection_20">
    <path d="M 73.832727 71.459776 
L 73.832727 71.459776 
L 85.027712 71.459776 
L 96.222696 71.459776 
L 107.41768 71.459776 
L 118.612665 71.459776 
L 129.807649 71.459776 
L 141.002633 71.459776 
L 152.197618 69.885615 
L 163.392602 69.885615 
L 174.587586 73.033938 
L 185.782571 68.311453 
L 196.977555 69.885615 
L 208.172539 69.885615 
L 219.367524 69.885615 
L 230.562508 66.737292 
L 241.757492 68.311453 
L 252.952476 74.608099 
L 264.147461 91.923876 
L 275.342445 123.407106 
L 286.537429 126.555429 
L 297.732414 132.852075 
L 308.927398 126.555429 
L 320.122382 124.981267 
L 331.317367 128.12959 
L 342.512351 147.019528 
L 353.707335 165.909466 
L 364.90232 175.354435 
L 376.097304 178.502758 
L 387.292288 167.483627 
L 398.487273 164.335304 
L 398.487273 159.61282 
L 398.487273 159.61282 
L 387.292288 162.761143 
L 376.097304 173.780273 
L 364.90232 170.63195 
L 353.707335 161.186981 
L 342.512351 142.297043 
L 331.317367 123.407106 
L 320.122382 120.258783 
L 308.927398 121.832944 
L 297.732414 128.12959 
L 286.537429 121.832944 
L 275.342445 120.258783 
L 264.147461 87.201391 
L 252.952476 71.459776 
L 241.757492 68.311453 
L 230.562508 66.737292 
L 219.367524 69.885615 
L 208.172539 69.885615 
L 196.977555 69.885615 
L 185.782571 68.311453 
L 174.587586 73.033938 
L 163.392602 69.885615 
L 152.197618 69.885615 
L 141.002633 71.459776 
L 129.807649 71.459776 
L 118.612665 71.459776 
L 107.41768 71.459776 
L 96.222696 71.459776 
L 85.027712 71.459776 
L 73.832727 71.459776 
z
" clip-path="url(#p39b2ca62c1)" style="fill: #17becf"/>
   </g>
   <g id="PolyCollection_21">
    <path d="M 73.832727 71.459776 
L 73.832727 71.459776 
L 85.027712 71.459776 
L 96.222696 71.459776 
L 107.41768 71.459776 
L 118.612665 71.459776 
L 129.807649 71.459776 
L 141.002633 71.459776 
L 152.197618 69.885615 
L 163.392602 69.885615 
L 174.587586 73.033938 
L 185.782571 68.311453 
L 196.977555 69.885615 
L 208.172539 69.885615 
L 219.367524 69.885615 
L 230.562508 66.737292 
L 241.757492 68.311453 
L 252.952476 71.459776 
L 264.147461 87.201391 
L 275.342445 120.258783 
L 286.537429 121.832944 
L 297.732414 128.12959 
L 308.927398 121.832944 
L 320.122382 120.258783 
L 331.317367 123.407106 
L 342.512351 142.297043 
L 353.707335 161.186981 
L 364.90232 170.63195 
L 376.097304 173.780273 
L 387.292288 162.761143 
L 398.487273 159.61282 
L 398.487273 148.593689 
L 398.487273 148.593689 
L 387.292288 148.593689 
L 376.097304 156.464497 
L 364.90232 154.890335 
L 353.707335 145.445366 
L 342.512351 128.12959 
L 331.317367 102.943006 
L 320.122382 101.368845 
L 308.927398 101.368845 
L 297.732414 106.091329 
L 286.537429 99.794683 
L 275.342445 98.220522 
L 264.147461 71.459776 
L 252.952476 68.311453 
L 241.757492 68.311453 
L 230.562508 66.737292 
L 219.367524 69.885615 
L 208.172539 69.885615 
L 196.977555 69.885615 
L 185.782571 68.311453 
L 174.587586 73.033938 
L 163.392602 69.885615 
L 152.197618 69.885615 
L 141.002633 71.459776 
L 129.807649 71.459776 
L 118.612665 71.459776 
L 107.41768 71.459776 
L 96.222696 71.459776 
L 85.027712 71.459776 
L 73.832727 71.459776 
z
" clip-path="url(#p39b2ca62c1)" style="fill: #1f77b4"/>
   </g>
   <g id="PolyCollection_22">
    <path d="M 73.832727 71.459776 
L 73.832727 71.459776 
L 85.027712 71.459776 
L 96.222696 71.459776 
L 107.41768 71.459776 
L 118.612665 71.459776 
L 129.807649 71.459776 
L 141.002633 71.459776 
L 152.197618 69.885615 
L 163.392602 69.885615 
L 174.587586 73.033938 
L 185.782571 68.311453 
L 196.977555 69.885615 
L 208.172539 69.885615 
L 219.367524 69.885615 
L 230.562508 66.737292 
L 241.757492 68.311453 
L 252.952476 68.311453 
L 264.147461 71.459776 
L 275.342445 98.220522 
L 286.537429 99.794683 
L 297.732414 106.091329 
L 308.927398 101.368845 
L 320.122382 101.368845 
L 331.317367 102.943006 
L 342.512351 128.12959 
L 353.707335 145.445366 
L 364.90232 154.890335 
L 376.097304 156.464497 
L 387.292288 148.593689 
L 398.487273 148.593689 
L 398.487273 136.000398 
L 398.487273 136.000398 
L 387.292288 136.000398 
L 376.097304 145.445366 
L 364.90232 139.14872 
L 353.707335 128.12959 
L 342.512351 110.813814 
L 331.317367 88.775553 
L 320.122382 84.053068 
L 308.927398 85.62723 
L 297.732414 88.775553 
L 286.537429 82.478907 
L 275.342445 82.478907 
L 264.147461 69.885615 
L 252.952476 68.311453 
L 241.757492 68.311453 
L 230.562508 66.737292 
L 219.367524 69.885615 
L 208.172539 69.885615 
L 196.977555 69.885615 
L 185.782571 68.311453 
L 174.587586 73.033938 
L 163.392602 69.885615 
L 152.197618 69.885615 
L 141.002633 71.459776 
L 129.807649 71.459776 
L 118.612665 71.459776 
L 107.41768 71.459776 
L 96.222696 71.459776 
L 85.027712 71.459776 
L 73.832727 71.459776 
z
" clip-path="url(#p39b2ca62c1)" style="fill: #ff7f0e"/>
   </g>
   <g id="PolyCollection_23">
    <path d="M 73.832727 71.459776 
L 73.832727 71.459776 
L 85.027712 71.459776 
L 96.222696 71.459776 
L 107.41768 71.459776 
L 118.612665 71.459776 
L 129.807649 71.459776 
L 141.002633 71.459776 
L 152.197618 69.885615 
L 163.392602 69.885615 
L 174.587586 73.033938 
L 185.782571 68.311453 
L 196.977555 69.885615 
L 208.172539 69.885615 
L 219.367524 69.885615 
L 230.562508 66.737292 
L 241.757492 68.311453 
L 252.952476 68.311453 
L 264.147461 69.885615 
L 275.342445 82.478907 
L 286.537429 82.478907 
L 297.732414 88.775553 
L 308.927398 85.62723 
L 320.122382 84.053068 
L 331.317367 88.775553 
L 342.512351 110.813814 
L 353.707335 128.12959 
L 364.90232 139.14872 
L 376.097304 145.445366 
L 387.292288 136.000398 
L 398.487273 136.000398 
L 398.487273 132.852075 
L 398.487273 132.852075 
L 387.292288 131.277913 
L 376.097304 140.722882 
L 364.90232 134.426236 
L 353.707335 123.407106 
L 342.512351 107.665491 
L 331.317367 84.053068 
L 320.122382 79.330584 
L 308.927398 79.330584 
L 297.732414 84.053068 
L 286.537429 77.756422 
L 275.342445 76.182261 
L 264.147461 65.16313 
L 252.952476 68.311453 
L 241.757492 68.311453 
L 230.562508 66.737292 
L 219.367524 69.885615 
L 208.172539 69.885615 
L 196.977555 69.885615 
L 185.782571 68.311453 
L 174.587586 73.033938 
L 163.392602 69.885615 
L 152.197618 69.885615 
L 141.002633 71.459776 
L 129.807649 71.459776 
L 118.612665 71.459776 
L 107.41768 71.459776 
L 96.222696 71.459776 
L 85.027712 71.459776 
L 73.832727 71.459776 
z
" clip-path="url(#p39b2ca62c1)" style="fill: #2ca02c"/>
   </g>
   <g id="PolyCollection_24">
    <path d="M 73.832727 71.459776 
L 73.832727 71.459776 
L 85.027712 71.459776 
L 96.222696 71.459776 
L 107.41768 71.459776 
L 118.612665 71.459776 
L 129.807649 71.459776 
L 141.002633 71.459776 
L 152.197618 69.885615 
L 163.392602 69.885615 
L 174.587586 73.033938 
L 185.782571 68.311453 
L 196.977555 69.885615 
L 208.172539 69.885615 
L 219.367524 69.885615 
L 230.562508 66.737292 
L 241.757492 68.311453 
L 252.952476 68.311453 
L 264.147461 65.16313 
L 275.342445 76.182261 
L 286.537429 77.756422 
L 297.732414 84.053068 
L 308.927398 79.330584 
L 320.122382 79.330584 
L 331.317367 84.053068 
L 342.512351 107.665491 
L 353.707335 123.407106 
L 364.90232 134.426236 
L 376.097304 140.722882 
L 387.292288 131.277913 
L 398.487273 132.852075 
L 398.487273 128.12959 
L 398.487273 128.12959 
L 387.292288 126.555429 
L 376.097304 136.000398 
L 364.90232 129.703752 
L 353.707335 118.684621 
L 342.512351 102.943006 
L 331.317367 79.330584 
L 320.122382 74.608099 
L 308.927398 74.608099 
L 297.732414 79.330584 
L 286.537429 73.033938 
L 275.342445 71.459776 
L 264.147461 63.588969 
L 252.952476 68.311453 
L 241.757492 68.311453 
L 230.562508 66.737292 
L 219.367524 69.885615 
L 208.172539 69.885615 
L 196.977555 69.885615 
L 185.782571 68.311453 
L 174.587586 73.033938 
L 163.392602 69.885615 
L 152.197618 69.885615 
L 141.002633 71.459776 
L 129.807649 71.459776 
L 118.612665 71.459776 
L 107.41768 71.459776 
L 96.222696 71.459776 
L 85.027712 71.459776 
L 73.832727 71.459776 
z
" clip-path="url(#p39b2ca62c1)" style="fill: #d62728"/>
   </g>
   <g id="PolyCollection_25">
    <path d="M 73.832727 71.459776 
L 73.832727 71.459776 
L 85.027712 71.459776 
L 96.222696 71.459776 
L 107.41768 71.459776 
L 118.612665 71.459776 
L 129.807649 71.459776 
L 141.002633 71.459776 
L 152.197618 69.885615 
L 163.392602 69.885615 
L 174.587586 73.033938 
L 185.782571 68.311453 
L 196.977555 69.885615 
L 208.172539 69.885615 
L 219.367524 69.885615 
L 230.562508 66.737292 
L 241.757492 68.311453 
L 252.952476 68.311453 
L 264.147461 63.588969 
L 275.342445 71.459776 
L 286.537429 73.033938 
L 297.732414 79.330584 
L 308.927398 74.608099 
L 320.122382 74.608099 
L 331.317367 79.330584 
L 342.512351 102.943006 
L 353.707335 118.684621 
L 364.90232 129.703752 
L 376.097304 136.000398 
L 387.292288 126.555429 
L 398.487273 128.12959 
L 398.487273 123.407106 
L 398.487273 123.407106 
L 387.292288 118.684621 
L 376.097304 129.703752 
L 364.90232 123.407106 
L 353.707335 113.962137 
L 342.512351 98.220522 
L 331.317367 73.033938 
L 320.122382 69.885615 
L 308.927398 69.885615 
L 297.732414 73.033938 
L 286.537429 66.737292 
L 275.342445 63.588969 
L 264.147461 60.440646 
L 252.952476 68.311453 
L 241.757492 68.311453 
L 230.562508 66.737292 
L 219.367524 69.885615 
L 208.172539 69.885615 
L 196.977555 69.885615 
L 185.782571 68.311453 
L 174.587586 73.033938 
L 163.392602 69.885615 
L 152.197618 69.885615 
L 141.002633 71.459776 
L 129.807649 71.459776 
L 118.612665 71.459776 
L 107.41768 71.459776 
L 96.222696 71.459776 
L 85.027712 71.459776 
L 73.832727 71.459776 
z
" clip-path="url(#p39b2ca62c1)" style="fill: #9467bd"/>
   </g>
   <g id="PolyCollection_26">
    <path d="M 73.832727 71.459776 
L 73.832727 71.459776 
L 85.027712 71.459776 
L 96.222696 71.459776 
L 107.41768 71.459776 
L 118.612665 71.459776 
L 129.807649 71.459776 
L 141.002633 71.459776 
L 152.197618 69.885615 
L 163.392602 69.885615 
L 174.587586 73.033938 
L 185.782571 68.311453 
L 196.977555 69.885615 
L 208.172539 69.885615 
L 219.367524 69.885615 
L 230.562508 66.737292 
L 241.757492 68.311453 
L 252.952476 68.311453 
L 264.147461 60.440646 
L 275.342445 63.588969 
L 286.537429 66.737292 
L 297.732414 73.033938 
L 308.927398 69.885615 
L 320.122382 69.885615 
L 331.317367 73.033938 
L 342.512351 98.220522 
L 353.707335 113.962137 
L 364.90232 123.407106 
L 376.097304 129.703752 
L 387.292288 118.684621 
L 398.487273 123.407106 
L 398.487273 118.684621 
L 398.487273 118.684621 
L 387.292288 113.962137 
L 376.097304 124.981267 
L 364.90232 118.684621 
L 353.707335 109.239652 
L 342.512351 93.498037 
L 331.317367 69.885615 
L 320.122382 66.737292 
L 308.927398 65.16313 
L 297.732414 68.311453 
L 286.537429 63.588969 
L 275.342445 60.440646 
L 264.147461 60.440646 
L 252.952476 68.311453 
L 241.757492 68.311453 
L 230.562508 66.737292 
L 219.367524 69.885615 
L 208.172539 69.885615 
L 196.977555 69.885615 
L 185.782571 68.311453 
L 174.587586 73.033938 
L 163.392602 69.885615 
L 152.197618 69.885615 
L 141.002633 71.459776 
L 129.807649 71.459776 
L 118.612665 71.459776 
L 107.41768 71.459776 
L 96.222696 71.459776 
L 85.027712 71.459776 
L 73.832727 71.459776 
z
" clip-path="url(#p39b2ca62c1)" style="fill: #8c564b"/>
   </g>
   <g id="PolyCollection_27">
    <path d="M 73.832727 71.459776 
L 73.832727 71.459776 
L 85.027712 71.459776 
L 96.222696 71.459776 
L 107.41768 71.459776 
L 118.612665 71.459776 
L 129.807649 71.459776 
L 141.002633 71.459776 
L 152.197618 69.885615 
L 163.392602 69.885615 
L 174.587586 73.033938 
L 185.782571 68.311453 
L 196.977555 69.885615 
L 208.172539 69.885615 
L 219.367524 69.885615 
L 230.562508 66.737292 
L 241.757492 68.311453 
L 252.952476 68.311453 
L 264.147461 60.440646 
L 275.342445 60.440646 
L 286.537429 63.588969 
L 297.732414 68.311453 
L 308.927398 65.16313 
L 320.122382 66.737292 
L 331.317367 69.885615 
L 342.512351 93.498037 
L 353.707335 109.239652 
L 364.90232 118.684621 
L 376.097304 124.981267 
L 387.292288 113.962137 
L 398.487273 118.684621 
L 398.487273 113.962137 
L 398.487273 113.962137 
L 387.292288 109.239652 
L 376.097304 120.258783 
L 364.90232 113.962137 
L 353.707335 104.517168 
L 342.512351 87.201391 
L 331.317367 66.737292 
L 320.122382 62.014807 
L 308.927398 58.866484 
L 297.732414 66.737292 
L 286.537429 63.588969 
L 275.342445 60.440646 
L 264.147461 60.440646 
L 252.952476 68.311453 
L 241.757492 68.311453 
L 230.562508 66.737292 
L 219.367524 69.885615 
L 208.172539 69.885615 
L 196.977555 69.885615 
L 185.782571 68.311453 
L 174.587586 73.033938 
L 163.392602 69.885615 
L 152.197618 69.885615 
L 141.002633 71.459776 
L 129.807649 71.459776 
L 118.612665 71.459776 
L 107.41768 71.459776 
L 96.222696 71.459776 
L 85.027712 71.459776 
L 73.832727 71.459776 
z
" clip-path="url(#p39b2ca62c1)" style="fill: #e377c2"/>
   </g>
   <g id="PolyCollection_28">
    <path d="M 73.832727 71.459776 
L 73.832727 71.459776 
L 85.027712 71.459776 
L 96.222696 71.459776 
L 107.41768 71.459776 
L 118.612665 71.459776 
L 129.807649 71.459776 
L 141.002633 71.459776 
L 152.197618 69.885615 
L 163.392602 69.885615 
L 174.587586 73.033938 
L 185.782571 68.311453 
L 196.977555 69.885615 
L 208.172539 69.885615 
L 219.367524 69.885615 
L 230.562508 66.737292 
L 241.757492 68.311453 
L 252.952476 68.311453 
L 264.147461 60.440646 
L 275.342445 60.440646 
L 286.537429 63.588969 
L 297.732414 66.737292 
L 308.927398 58.866484 
L 320.122382 62.014807 
L 331.317367 66.737292 
L 342.512351 87.201391 
L 353.707335 104.517168 
L 364.90232 113.962137 
L 376.097304 120.258783 
L 387.292288 109.239652 
L 398.487273 113.962137 
L 398.487273 109.239652 
L 398.487273 109.239652 
L 387.292288 104.517168 
L 376.097304 115.536298 
L 364.90232 109.239652 
L 353.707335 99.794683 
L 342.512351 82.478907 
L 331.317367 62.014807 
L 320.122382 60.440646 
L 308.927398 58.866484 
L 297.732414 66.737292 
L 286.537429 63.588969 
L 275.342445 60.440646 
L 264.147461 60.440646 
L 252.952476 68.311453 
L 241.757492 68.311453 
L 230.562508 66.737292 
L 219.367524 69.885615 
L 208.172539 69.885615 
L 196.977555 69.885615 
L 185.782571 68.311453 
L 174.587586 73.033938 
L 163.392602 69.885615 
L 152.197618 69.885615 
L 141.002633 71.459776 
L 129.807649 71.459776 
L 118.612665 71.459776 
L 107.41768 71.459776 
L 96.222696 71.459776 
L 85.027712 71.459776 
L 73.832727 71.459776 
z
" clip-path="url(#p39b2ca62c1)" style="fill: #7f7f7f"/>
   </g>
   <g id="PolyCollection_29">
    <path d="M 73.832727 71.459776 
L 73.832727 71.459776 
L 85.027712 71.459776 
L 96.222696 71.459776 
L 107.41768 71.459776 
L 118.612665 71.459776 
L 129.807649 71.459776 
L 141.002633 71.459776 
L 152.197618 69.885615 
L 163.392602 69.885615 
L 174.587586 73.033938 
L 185.782571 68.311453 
L 196.977555 69.885615 
L 208.172539 69.885615 
L 219.367524 69.885615 
L 230.562508 66.737292 
L 241.757492 68.311453 
L 252.952476 68.311453 
L 264.147461 60.440646 
L 275.342445 60.440646 
L 286.537429 63.588969 
L 297.732414 66.737292 
L 308.927398 58.866484 
L 320.122382 60.440646 
L 331.317367 62.014807 
L 342.512351 82.478907 
L 353.707335 99.794683 
L 364.90232 109.239652 
L 376.097304 115.536298 
L 387.292288 104.517168 
L 398.487273 109.239652 
L 398.487273 104.517168 
L 398.487273 104.517168 
L 387.292288 99.794683 
L 376.097304 110.813814 
L 364.90232 104.517168 
L 353.707335 95.072199 
L 342.512351 80.904745 
L 331.317367 55.718161 
L 320.122382 58.866484 
L 308.927398 58.866484 
L 297.732414 66.737292 
L 286.537429 63.588969 
L 275.342445 60.440646 
L 264.147461 60.440646 
L 252.952476 68.311453 
L 241.757492 68.311453 
L 230.562508 66.737292 
L 219.367524 69.885615 
L 208.172539 69.885615 
L 196.977555 69.885615 
L 185.782571 68.311453 
L 174.587586 73.033938 
L 163.392602 69.885615 
L 152.197618 69.885615 
L 141.002633 71.459776 
L 129.807649 71.459776 
L 118.612665 71.459776 
L 107.41768 71.459776 
L 96.222696 71.459776 
L 85.027712 71.459776 
L 73.832727 71.459776 
z
" clip-path="url(#p39b2ca62c1)" style="fill: #bcbd22"/>
   </g>
   <g id="PolyCollection_30">
    <path d="M 73.832727 71.459776 
L 73.832727 71.459776 
L 85.027712 71.459776 
L 96.222696 71.459776 
L 107.41768 71.459776 
L 118.612665 71.459776 
L 129.807649 71.459776 
L 141.002633 71.459776 
L 152.197618 69.885615 
L 163.392602 69.885615 
L 174.587586 73.033938 
L 185.782571 68.311453 
L 196.977555 69.885615 
L 208.172539 69.885615 
L 219.367524 69.885615 
L 230.562508 66.737292 
L 241.757492 68.311453 
L 252.952476 68.311453 
L 264.147461 60.440646 
L 275.342445 60.440646 
L 286.537429 63.588969 
L 297.732414 66.737292 
L 308.927398 58.866484 
L 320.122382 58.866484 
L 331.317367 55.718161 
L 342.512351 80.904745 
L 353.707335 95.072199 
L 364.90232 104.517168 
L 376.097304 110.813814 
L 387.292288 99.794683 
L 398.487273 104.517168 
L 398.487273 99.794683 
L 398.487273 99.794683 
L 387.292288 95.072199 
L 376.097304 102.943006 
L 364.90232 101.368845 
L 353.707335 90.349714 
L 342.512351 71.459776 
L 331.317367 55.718161 
L 320.122382 58.866484 
L 308.927398 58.866484 
L 297.732414 66.737292 
L 286.537429 63.588969 
L 275.342445 60.440646 
L 264.147461 60.440646 
L 252.952476 68.311453 
L 241.757492 68.311453 
L 230.562508 66.737292 
L 219.367524 69.885615 
L 208.172539 69.885615 
L 196.977555 69.885615 
L 185.782571 68.311453 
L 174.587586 73.033938 
L 163.392602 69.885615 
L 152.197618 69.885615 
L 141.002633 71.459776 
L 129.807649 71.459776 
L 118.612665 71.459776 
L 107.41768 71.459776 
L 96.222696 71.459776 
L 85.027712 71.459776 
L 73.832727 71.459776 
z
" clip-path="url(#p39b2ca62c1)" style="fill: #17becf"/>
   </g>
   <g id="PolyCollection_31">
    <path d="M 73.832727 71.459776 
L 73.832727 71.459776 
L 85.027712 71.459776 
L 96.222696 71.459776 
L 107.41768 71.459776 
L 118.612665 71.459776 
L 129.807649 71.459776 
L 141.002633 71.459776 
L 152.197618 69.885615 
L 163.392602 69.885615 
L 174.587586 73.033938 
L 185.782571 68.311453 
L 196.977555 69.885615 
L 208.172539 69.885615 
L 219.367524 69.885615 
L 230.562508 66.737292 
L 241.757492 68.311453 
L 252.952476 68.311453 
L 264.147461 60.440646 
L 275.342445 60.440646 
L 286.537429 63.588969 
L 297.732414 66.737292 
L 308.927398 58.866484 
L 320.122382 58.866484 
L 331.317367 55.718161 
L 342.512351 71.459776 
L 353.707335 90.349714 
L 364.90232 101.368845 
L 376.097304 102.943006 
L 387.292288 95.072199 
L 398.487273 99.794683 
L 398.487273 91.923876 
L 398.487273 91.923876 
L 387.292288 84.053068 
L 376.097304 91.923876 
L 364.90232 88.775553 
L 353.707335 71.459776 
L 342.512351 63.588969 
L 331.317367 55.718161 
L 320.122382 58.866484 
L 308.927398 58.866484 
L 297.732414 66.737292 
L 286.537429 63.588969 
L 275.342445 60.440646 
L 264.147461 60.440646 
L 252.952476 68.311453 
L 241.757492 68.311453 
L 230.562508 66.737292 
L 219.367524 69.885615 
L 208.172539 69.885615 
L 196.977555 69.885615 
L 185.782571 68.311453 
L 174.587586 73.033938 
L 163.392602 69.885615 
L 152.197618 69.885615 
L 141.002633 71.459776 
L 129.807649 71.459776 
L 118.612665 71.459776 
L 107.41768 71.459776 
L 96.222696 71.459776 
L 85.027712 71.459776 
L 73.832727 71.459776 
z
" clip-path="url(#p39b2ca62c1)" style="fill: #1f77b4"/>
   </g>
   <g id="PolyCollection_32">
    <path d="M 73.832727 71.459776 
L 73.832727 71.459776 
L 85.027712 71.459776 
L 96.222696 71.459776 
L 107.41768 71.459776 
L 118.612665 71.459776 
L 129.807649 71.459776 
L 141.002633 71.459776 
L 152.197618 69.885615 
L 163.392602 69.885615 
L 174.587586 73.033938 
L 185.782571 68.311453 
L 196.977555 69.885615 
L 208.172539 69.885615 
L 219.367524 69.885615 
L 230.562508 66.737292 
L 241.757492 68.311453 
L 252.952476 68.311453 
L 264.147461 60.440646 
L 275.342445 60.440646 
L 286.537429 63.588969 
L 297.732414 66.737292 
L 308.927398 58.866484 
L 320.122382 58.866484 
L 331.317367 55.718161 
L 342.512351 63.588969 
L 353.707335 71.459776 
L 364.90232 88.775553 
L 376.097304 91.923876 
L 387.292288 84.053068 
L 398.487273 91.923876 
L 398.487273 79.330584 
L 398.487273 79.330584 
L 387.292288 71.459776 
L 376.097304 80.904745 
L 364.90232 66.737292 
L 353.707335 60.440646 
L 342.512351 60.440646 
L 331.317367 55.718161 
L 320.122382 58.866484 
L 308.927398 58.866484 
L 297.732414 66.737292 
L 286.537429 63.588969 
L 275.342445 60.440646 
L 264.147461 60.440646 
L 252.952476 68.311453 
L 241.757492 68.311453 
L 230.562508 66.737292 
L 219.367524 69.885615 
L 208.172539 69.885615 
L 196.977555 69.885615 
L 185.782571 68.311453 
L 174.587586 73.033938 
L 163.392602 69.885615 
L 152.197618 69.885615 
L 141.002633 71.459776 
L 129.807649 71.459776 
L 118.612665 71.459776 
L 107.41768 71.459776 
L 96.222696 71.459776 
L 85.027712 71.459776 
L 73.832727 71.459776 
z
" clip-path="url(#p39b2ca62c1)" style="fill: #ff7f0e"/>
   </g>
   <g id="PolyCollection_33">
    <path d="M 73.832727 71.459776 
L 73.832727 71.459776 
L 85.027712 71.459776 
L 96.222696 71.459776 
L 107.41768 71.459776 
L 118.612665 71.459776 
L 129.807649 71.459776 
L 141.002633 71.459776 
L 152.197618 69.885615 
L 163.392602 69.885615 
L 174.587586 73.033938 
L 185.782571 68.311453 
L 196.977555 69.885615 
L 208.172539 69.885615 
L 219.367524 69.885615 
L 230.562508 66.737292 
L 241.757492 68.311453 
L 252.952476 68.311453 
L 264.147461 60.440646 
L 275.342445 60.440646 
L 286.537429 63.588969 
L 297.732414 66.737292 
L 308.927398 58.866484 
L 320.122382 58.866484 
L 331.317367 55.718161 
L 342.512351 60.440646 
L 353.707335 60.440646 
L 364.90232 66.737292 
L 376.097304 80.904745 
L 387.292288 71.459776 
L 398.487273 79.330584 
L 398.487273 74.608099 
L 398.487273 74.608099 
L 387.292288 66.737292 
L 376.097304 76.182261 
L 364.90232 62.014807 
L 353.707335 55.718161 
L 342.512351 58.866484 
L 331.317367 55.718161 
L 320.122382 58.866484 
L 308.927398 58.866484 
L 297.732414 66.737292 
L 286.537429 63.588969 
L 275.342445 60.440646 
L 264.147461 60.440646 
L 252.952476 68.311453 
L 241.757492 68.311453 
L 230.562508 66.737292 
L 219.367524 69.885615 
L 208.172539 69.885615 
L 196.977555 69.885615 
L 185.782571 68.311453 
L 174.587586 73.033938 
L 163.392602 69.885615 
L 152.197618 69.885615 
L 141.002633 71.459776 
L 129.807649 71.459776 
L 118.612665 71.459776 
L 107.41768 71.459776 
L 96.222696 71.459776 
L 85.027712 71.459776 
L 73.832727 71.459776 
z
" clip-path="url(#p39b2ca62c1)" style="fill: #2ca02c"/>
   </g>
   <g id="PolyCollection_34">
    <path d="M 73.832727 71.459776 
L 73.832727 71.459776 
L 85.027712 71.459776 
L 96.222696 71.459776 
L 107.41768 71.459776 
L 118.612665 71.459776 
L 129.807649 71.459776 
L 141.002633 71.459776 
L 152.197618 69.885615 
L 163.392602 69.885615 
L 174.587586 73.033938 
L 185.782571 68.311453 
L 196.977555 69.885615 
L 208.172539 69.885615 
L 219.367524 69.885615 
L 230.562508 66.737292 
L 241.757492 68.311453 
L 252.952476 68.311453 
L 264.147461 60.440646 
L 275.342445 60.440646 
L 286.537429 63.588969 
L 297.732414 66.737292 
L 308.927398 58.866484 
L 320.122382 58.866484 
L 331.317367 55.718161 
L 342.512351 58.866484 
L 353.707335 55.718161 
L 364.90232 62.014807 
L 376.097304 76.182261 
L 387.292288 66.737292 
L 398.487273 74.608099 
L 398.487273 63.588969 
L 398.487273 63.588969 
L 387.292288 60.440646 
L 376.097304 62.014807 
L 364.90232 60.440646 
L 353.707335 55.718161 
L 342.512351 58.866484 
L 331.317367 55.718161 
L 320.122382 58.866484 
L 308.927398 58.866484 
L 297.732414 66.737292 
L 286.537429 63.588969 
L 275.342445 60.440646 
L 264.147461 60.440646 
L 252.952476 68.311453 
L 241.757492 68.311453 
L 230.562508 66.737292 
L 219.367524 69.885615 
L 208.172539 69.885615 
L 196.977555 69.885615 
L 185.782571 68.311453 
L 174.587586 73.033938 
L 163.392602 69.885615 
L 152.197618 69.885615 
L 141.002633 71.459776 
L 129.807649 71.459776 
L 118.612665 71.459776 
L 107.41768 71.459776 
L 96.222696 71.459776 
L 85.027712 71.459776 
L 73.832727 71.459776 
z
" clip-path="url(#p39b2ca62c1)" style="fill: #d62728"/>
   </g>
   <g id="PolyCollection_35">
    <path d="M 73.832727 71.459776 
L 73.832727 71.459776 
L 85.027712 71.459776 
L 96.222696 71.459776 
L 107.41768 71.459776 
L 118.612665 71.459776 
L 129.807649 71.459776 
L 141.002633 71.459776 
L 152.197618 69.885615 
L 163.392602 69.885615 
L 174.587586 73.033938 
L 185.782571 68.311453 
L 196.977555 69.885615 
L 208.172539 69.885615 
L 219.367524 69.885615 
L 230.562508 66.737292 
L 241.757492 68.311453 
L 252.952476 68.311453 
L 264.147461 60.440646 
L 275.342445 60.440646 
L 286.537429 63.588969 
L 297.732414 66.737292 
L 308.927398 58.866484 
L 320.122382 58.866484 
L 331.317367 55.718161 
L 342.512351 58.866484 
L 353.707335 55.718161 
L 364.90232 60.440646 
L 376.097304 62.014807 
L 387.292288 60.440646 
L 398.487273 63.588969 
L 398.487273 58.866484 
L 398.487273 58.866484 
L 387.292288 57.292323 
L 376.097304 54.144 
L 364.90232 58.866484 
L 353.707335 55.718161 
L 342.512351 58.866484 
L 331.317367 55.718161 
L 320.122382 58.866484 
L 308.927398 58.866484 
L 297.732414 66.737292 
L 286.537429 63.588969 
L 275.342445 60.440646 
L 264.147461 60.440646 
L 252.952476 68.311453 
L 241.757492 68.311453 
L 230.562508 66.737292 
L 219.367524 69.885615 
L 208.172539 69.885615 
L 196.977555 69.885615 
L 185.782571 68.311453 
L 174.587586 73.033938 
L 163.392602 69.885615 
L 152.197618 69.885615 
L 141.002633 71.459776 
L 129.807649 71.459776 
L 118.612665 71.459776 
L 107.41768 71.459776 
L 96.222696 71.459776 
L 85.027712 71.459776 
L 73.832727 71.459776 
z
" clip-path="url(#p39b2ca62c1)" style="fill: #9467bd"/>
   </g>
   <g id="PolyCollection_36">
    <path d="M 73.832727 71.459776 
L 73.832727 71.459776 
L 85.027712 71.459776 
L 96.222696 71.459776 
L 107.41768 71.459776 
L 118.612665 71.459776 
L 129.807649 71.459776 
L 141.002633 71.459776 
L 152.197618 69.885615 
L 163.392602 69.885615 
L 174.587586 73.033938 
L 185.782571 68.311453 
L 196.977555 69.885615 
L 208.172539 69.885615 
L 219.367524 69.885615 
L 230.562508 66.737292 
L 241.757492 68.311453 
L 252.952476 68.311453 
L 264.147461 60.440646 
L 275.342445 60.440646 
L 286.537429 63.588969 
L 297.732414 66.737292 
L 308.927398 58.866484 
L 320.122382 58.866484 
L 331.317367 55.718161 
L 342.512351 58.866484 
L 353.707335 55.718161 
L 364.90232 58.866484 
L 376.097304 54.144 
L 387.292288 57.292323 
L 398.487273 58.866484 
L 398.487273 57.292323 
L 398.487273 57.292323 
L 387.292288 57.292323 
L 376.097304 54.144 
L 364.90232 58.866484 
L 353.707335 55.718161 
L 342.512351 58.866484 
L 331.317367 55.718161 
L 320.122382 58.866484 
L 308.927398 58.866484 
L 297.732414 66.737292 
L 286.537429 63.588969 
L 275.342445 60.440646 
L 264.147461 60.440646 
L 252.952476 68.311453 
L 241.757492 68.311453 
L 230.562508 66.737292 
L 219.367524 69.885615 
L 208.172539 69.885615 
L 196.977555 69.885615 
L 185.782571 68.311453 
L 174.587586 73.033938 
L 163.392602 69.885615 
L 152.197618 69.885615 
L 141.002633 71.459776 
L 129.807649 71.459776 
L 118.612665 71.459776 
L 107.41768 71.459776 
L 96.222696 71.459776 
L 85.027712 71.459776 
L 73.832727 71.459776 
z
" clip-path="url(#p39b2ca62c1)" style="fill: #8c564b"/>
   </g>
   <g id="matplotlib.axis_1">
    <g id="xtick_1">
     <g id="line2d_1">
      <defs>
       <path id="meb7435174c" d="M 0 0 
L 0 3.5 
" style="stroke: #000000; stroke-width: 0.8"/>
      </defs>
      <g>
       <use xlink:href="#meb7435174c" x="73.832727" y="307.584" style="stroke: #000000; stroke-width: 0.8"/>
      </g>
     </g>
     <g id="text_1">
      <!-- 0 -->
      <g transform="translate(70.651477 322.182437) scale(0.1 -0.1)">
       <defs>
        <path id="DejaVuSans-30" d="M 2034 4250 
Q 1547 4250 1301 3770 
Q 1056 3291 1056 2328 
Q 1056 1369 1301 889 
Q 1547 409 2034 409 
Q 2525 409 2770 889 
Q 3016 1369 3016 2328 
Q 3016 3291 2770 3770 
Q 2525 4250 2034 4250 
z
M 2034 4750 
Q 2819 4750 3233 4129 
Q 3647 3509 3647 2328 
Q 3647 1150 3233 529 
Q 2819 -91 2034 -91 
Q 1250 -91 836 529 
Q 422 1150 422 2328 
Q 422 3509 836 4129 
Q 1250 4750 2034 4750 
z
" transform="scale(0.015625)"/>
       </defs>
       <use xlink:href="#DejaVuSans-30"/>
      </g>
     </g>
    </g>
    <g id="xtick_2">
     <g id="line2d_2">
      <g>
       <use xlink:href="#meb7435174c" x="129.807649" y="307.584" style="stroke: #000000; stroke-width: 0.8"/>
      </g>
     </g>
     <g id="text_2">
      <!-- 5 -->
      <g transform="translate(126.626399 322.182437) scale(0.1 -0.1)">
       <defs>
        <path id="DejaVuSans-35" d="M 691 4666 
L 3169 4666 
L 3169 4134 
L 1269 4134 
L 1269 2991 
Q 1406 3038 1543 3061 
Q 1681 3084 1819 3084 
Q 2600 3084 3056 2656 
Q 3513 2228 3513 1497 
Q 3513 744 3044 326 
Q 2575 -91 1722 -91 
Q 1428 -91 1123 -41 
Q 819 9 494 109 
L 494 744 
Q 775 591 1075 516 
Q 1375 441 1709 441 
Q 2250 441 2565 725 
Q 2881 1009 2881 1497 
Q 2881 1984 2565 2268 
Q 2250 2553 1709 2553 
Q 1456 2553 1204 2497 
Q 953 2441 691 2322 
L 691 4666 
z
" transform="scale(0.015625)"/>
       </defs>
       <use xlink:href="#DejaVuSans-35"/>
      </g>
     </g>
    </g>
    <g id="xtick_3">
     <g id="line2d_3">
      <g>
       <use xlink:href="#meb7435174c" x="185.782571" y="307.584" style="stroke: #000000; stroke-width: 0.8"/>
      </g>
     </g>
     <g id="text_3">
      <!-- 10 -->
      <g transform="translate(179.420071 322.182437) scale(0.1 -0.1)">
       <defs>
        <path id="DejaVuSans-31" d="M 794 531 
L 1825 531 
L 1825 4091 
L 703 3866 
L 703 4441 
L 1819 4666 
L 2450 4666 
L 2450 531 
L 3481 531 
L 3481 0 
L 794 0 
L 794 531 
z
" transform="scale(0.015625)"/>
       </defs>
       <use xlink:href="#DejaVuSans-31"/>
       <use xlink:href="#DejaVuSans-30" x="63.623047"/>
      </g>
     </g>
    </g>
    <g id="xtick_4">
     <g id="line2d_4">
      <g>
       <use xlink:href="#meb7435174c" x="241.757492" y="307.584" style="stroke: #000000; stroke-width: 0.8"/>
      </g>
     </g>
     <g id="text_4">
      <!-- 15 -->
      <g transform="translate(235.394992 322.182437) scale(0.1 -0.1)">
       <use xlink:href="#DejaVuSans-31"/>
       <use xlink:href="#DejaVuSans-35" x="63.623047"/>
      </g>
     </g>
    </g>
    <g id="xtick_5">
     <g id="line2d_5">
      <g>
       <use xlink:href="#meb7435174c" x="297.732414" y="307.584" style="stroke: #000000; stroke-width: 0.8"/>
      </g>
     </g>
     <g id="text_5">
      <!-- 20 -->
      <g transform="translate(291.369914 322.182437) scale(0.1 -0.1)">
       <defs>
        <path id="DejaVuSans-32" d="M 1228 531 
L 3431 531 
L 3431 0 
L 469 0 
L 469 531 
Q 828 903 1448 1529 
Q 2069 2156 2228 2338 
Q 2531 2678 2651 2914 
Q 2772 3150 2772 3378 
Q 2772 3750 2511 3984 
Q 2250 4219 1831 4219 
Q 1534 4219 1204 4116 
Q 875 4013 500 3803 
L 500 4441 
Q 881 4594 1212 4672 
Q 1544 4750 1819 4750 
Q 2544 4750 2975 4387 
Q 3406 4025 3406 3419 
Q 3406 3131 3298 2873 
Q 3191 2616 2906 2266 
Q 2828 2175 2409 1742 
Q 1991 1309 1228 531 
z
" transform="scale(0.015625)"/>
       </defs>
       <use xlink:href="#DejaVuSans-32"/>
       <use xlink:href="#DejaVuSans-30" x="63.623047"/>
      </g>
     </g>
    </g>
    <g id="xtick_6">
     <g id="line2d_6">
      <g>
       <use xlink:href="#meb7435174c" x="353.707335" y="307.584" style="stroke: #000000; stroke-width: 0.8"/>
      </g>
     </g>
     <g id="text_6">
      <!-- 25 -->
      <g transform="translate(347.344835 322.182437) scale(0.1 -0.1)">
       <use xlink:href="#DejaVuSans-32"/>
       <use xlink:href="#DejaVuSans-35" x="63.623047"/>
      </g>
     </g>
    </g>
    <g id="xtick_7">
     <g id="line2d_7">
      <g>
       <use xlink:href="#meb7435174c" x="409.682257" y="307.584" style="stroke: #000000; stroke-width: 0.8"/>
      </g>
     </g>
     <g id="text_7">
      <!-- 30 -->
      <g transform="translate(403.319757 322.182437) scale(0.1 -0.1)">
       <defs>
        <path id="DejaVuSans-33" d="M 2597 2516 
Q 3050 2419 3304 2112 
Q 3559 1806 3559 1356 
Q 3559 666 3084 287 
Q 2609 -91 1734 -91 
Q 1441 -91 1130 -33 
Q 819 25 488 141 
L 488 750 
Q 750 597 1062 519 
Q 1375 441 1716 441 
Q 2309 441 2620 675 
Q 2931 909 2931 1356 
Q 2931 1769 2642 2001 
Q 2353 2234 1838 2234 
L 1294 2234 
L 1294 2753 
L 1863 2753 
Q 2328 2753 2575 2939 
Q 2822 3125 2822 3475 
Q 2822 3834 2567 4026 
Q 2313 4219 1838 4219 
Q 1578 4219 1281 4162 
Q 984 4106 628 3988 
L 628 4550 
Q 988 4650 1302 4700 
Q 1616 4750 1894 4750 
Q 2613 4750 3031 4423 
Q 3450 4097 3450 3541 
Q 3450 3153 3228 2886 
Q 3006 2619 2597 2516 
z
" transform="scale(0.015625)"/>
       </defs>
       <use xlink:href="#DejaVuSans-33"/>
       <use xlink:href="#DejaVuSans-30" x="63.623047"/>
      </g>
     </g>
    </g>
    <g id="text_8">
     <!-- Generations -->
     <g transform="translate(205.662344 335.860562) scale(0.1 -0.1)">
      <defs>
       <path id="DejaVuSans-47" d="M 3809 666 
L 3809 1919 
L 2778 1919 
L 2778 2438 
L 4434 2438 
L 4434 434 
Q 4069 175 3628 42 
Q 3188 -91 2688 -91 
Q 1594 -91 976 548 
Q 359 1188 359 2328 
Q 359 3472 976 4111 
Q 1594 4750 2688 4750 
Q 3144 4750 3555 4637 
Q 3966 4525 4313 4306 
L 4313 3634 
Q 3963 3931 3569 4081 
Q 3175 4231 2741 4231 
Q 1884 4231 1454 3753 
Q 1025 3275 1025 2328 
Q 1025 1384 1454 906 
Q 1884 428 2741 428 
Q 3075 428 3337 486 
Q 3600 544 3809 666 
z
" transform="scale(0.015625)"/>
       <path id="DejaVuSans-65" d="M 3597 1894 
L 3597 1613 
L 953 1613 
Q 991 1019 1311 708 
Q 1631 397 2203 397 
Q 2534 397 2845 478 
Q 3156 559 3463 722 
L 3463 178 
Q 3153 47 2828 -22 
Q 2503 -91 2169 -91 
Q 1331 -91 842 396 
Q 353 884 353 1716 
Q 353 2575 817 3079 
Q 1281 3584 2069 3584 
Q 2775 3584 3186 3129 
Q 3597 2675 3597 1894 
z
M 3022 2063 
Q 3016 2534 2758 2815 
Q 2500 3097 2075 3097 
Q 1594 3097 1305 2825 
Q 1016 2553 972 2059 
L 3022 2063 
z
" transform="scale(0.015625)"/>
       <path id="DejaVuSans-6e" d="M 3513 2113 
L 3513 0 
L 2938 0 
L 2938 2094 
Q 2938 2591 2744 2837 
Q 2550 3084 2163 3084 
Q 1697 3084 1428 2787 
Q 1159 2491 1159 1978 
L 1159 0 
L 581 0 
L 581 3500 
L 1159 3500 
L 1159 2956 
Q 1366 3272 1645 3428 
Q 1925 3584 2291 3584 
Q 2894 3584 3203 3211 
Q 3513 2838 3513 2113 
z
" transform="scale(0.015625)"/>
       <path id="DejaVuSans-72" d="M 2631 2963 
Q 2534 3019 2420 3045 
Q 2306 3072 2169 3072 
Q 1681 3072 1420 2755 
Q 1159 2438 1159 1844 
L 1159 0 
L 581 0 
L 581 3500 
L 1159 3500 
L 1159 2956 
Q 1341 3275 1631 3429 
Q 1922 3584 2338 3584 
Q 2397 3584 2469 3576 
Q 2541 3569 2628 3553 
L 2631 2963 
z
" transform="scale(0.015625)"/>
       <path id="DejaVuSans-61" d="M 2194 1759 
Q 1497 1759 1228 1600 
Q 959 1441 959 1056 
Q 959 750 1161 570 
Q 1363 391 1709 391 
Q 2188 391 2477 730 
Q 2766 1069 2766 1631 
L 2766 1759 
L 2194 1759 
z
M 3341 1997 
L 3341 0 
L 2766 0 
L 2766 531 
Q 2569 213 2275 61 
Q 1981 -91 1556 -91 
Q 1019 -91 701 211 
Q 384 513 384 1019 
Q 384 1609 779 1909 
Q 1175 2209 1959 2209 
L 2766 2209 
L 2766 2266 
Q 2766 2663 2505 2880 
Q 2244 3097 1772 3097 
Q 1472 3097 1187 3025 
Q 903 2953 641 2809 
L 641 3341 
Q 956 3463 1253 3523 
Q 1550 3584 1831 3584 
Q 2591 3584 2966 3190 
Q 3341 2797 3341 1997 
z
" transform="scale(0.015625)"/>
       <path id="DejaVuSans-74" d="M 1172 4494 
L 1172 3500 
L 2356 3500 
L 2356 3053 
L 1172 3053 
L 1172 1153 
Q 1172 725 1289 603 
Q 1406 481 1766 481 
L 2356 481 
L 2356 0 
L 1766 0 
Q 1100 0 847 248 
Q 594 497 594 1153 
L 594 3053 
L 172 3053 
L 172 3500 
L 594 3500 
L 594 4494 
L 1172 4494 
z
" transform="scale(0.015625)"/>
       <path id="DejaVuSans-69" d="M 603 3500 
L 1178 3500 
L 1178 0 
L 603 0 
L 603 3500 
z
M 603 4863 
L 1178 4863 
L 1178 4134 
L 603 4134 
L 603 4863 
z
" transform="scale(0.015625)"/>
       <path id="DejaVuSans-6f" d="M 1959 3097 
Q 1497 3097 1228 2736 
Q 959 2375 959 1747 
Q 959 1119 1226 758 
Q 1494 397 1959 397 
Q 2419 397 2687 759 
Q 2956 1122 2956 1747 
Q 2956 2369 2687 2733 
Q 2419 3097 1959 3097 
z
M 1959 3584 
Q 2709 3584 3137 3096 
Q 3566 2609 3566 1747 
Q 3566 888 3137 398 
Q 2709 -91 1959 -91 
Q 1206 -91 779 398 
Q 353 888 353 1747 
Q 353 2609 779 3096 
Q 1206 3584 1959 3584 
z
" transform="scale(0.015625)"/>
       <path id="DejaVuSans-73" d="M 2834 3397 
L 2834 2853 
Q 2591 2978 2328 3040 
Q 2066 3103 1784 3103 
Q 1356 3103 1142 2972 
Q 928 2841 928 2578 
Q 928 2378 1081 2264 
Q 1234 2150 1697 2047 
L 1894 2003 
Q 2506 1872 2764 1633 
Q 3022 1394 3022 966 
Q 3022 478 2636 193 
Q 2250 -91 1575 -91 
Q 1294 -91 989 -36 
Q 684 19 347 128 
L 347 722 
Q 666 556 975 473 
Q 1284 391 1588 391 
Q 1994 391 2212 530 
Q 2431 669 2431 922 
Q 2431 1156 2273 1281 
Q 2116 1406 1581 1522 
L 1381 1569 
Q 847 1681 609 1914 
Q 372 2147 372 2553 
Q 372 3047 722 3315 
Q 1072 3584 1716 3584 
Q 2034 3584 2315 3537 
Q 2597 3491 2834 3397 
z
" transform="scale(0.015625)"/>
      </defs>
      <use xlink:href="#DejaVuSans-47"/>
      <use xlink:href="#DejaVuSans-65" x="77.490234"/>
      <use xlink:href="#DejaVuSans-6e" x="139.013672"/>
      <use xlink:href="#DejaVuSans-65" x="202.392578"/>
      <use xlink:href="#DejaVuSans-72" x="263.916016"/>
      <use xlink:href="#DejaVuSans-61" x="305.029297"/>
      <use xlink:href="#DejaVuSans-74" x="366.308594"/>
      <use xlink:href="#DejaVuSans-69" x="405.517578"/>
      <use xlink:href="#DejaVuSans-6f" x="433.300781"/>
      <use xlink:href="#DejaVuSans-6e" x="494.482422"/>
      <use xlink:href="#DejaVuSans-73" x="557.861328"/>
     </g>
    </g>
   </g>
   <g id="matplotlib.axis_2">
    <g id="ytick_1">
     <g id="line2d_8">
      <defs>
       <path id="m7e735e50e8" d="M 0 0 
L -3.5 0 
" style="stroke: #000000; stroke-width: 0.8"/>
      </defs>
      <g>
       <use xlink:href="#m7e735e50e8" x="57.6" y="307.584" style="stroke: #000000; stroke-width: 0.8"/>
      </g>
     </g>
     <g id="text_9">
      <!-- 0 -->
      <g transform="translate(44.2375 311.383219) scale(0.1 -0.1)">
       <use xlink:href="#DejaVuSans-30"/>
      </g>
     </g>
    </g>
    <g id="ytick_2">
     <g id="line2d_9">
      <g>
       <use xlink:href="#m7e735e50e8" x="57.6" y="276.10077" style="stroke: #000000; stroke-width: 0.8"/>
      </g>
     </g>
     <g id="text_10">
      <!-- 20 -->
      <g transform="translate(37.875 279.899989) scale(0.1 -0.1)">
       <use xlink:href="#DejaVuSans-32"/>
       <use xlink:href="#DejaVuSans-30" x="63.623047"/>
      </g>
     </g>
    </g>
    <g id="ytick_3">
     <g id="line2d_10">
      <g>
       <use xlink:href="#m7e735e50e8" x="57.6" y="244.61754" style="stroke: #000000; stroke-width: 0.8"/>
      </g>
     </g>
     <g id="text_11">
      <!-- 40 -->
      <g transform="translate(37.875 248.416759) scale(0.1 -0.1)">
       <defs>
        <path id="DejaVuSans-34" d="M 2419 4116 
L 825 1625 
L 2419 1625 
L 2419 4116 
z
M 2253 4666 
L 3047 4666 
L 3047 1625 
L 3713 1625 
L 3713 1100 
L 3047 1100 
L 3047 0 
L 2419 0 
L 2419 1100 
L 313 1100 
L 313 1709 
L 2253 4666 
z
" transform="scale(0.015625)"/>
       </defs>
       <use xlink:href="#DejaVuSans-34"/>
       <use xlink:href="#DejaVuSans-30" x="63.623047"/>
      </g>
     </g>
    </g>
    <g id="ytick_4">
     <g id="line2d_11">
      <g>
       <use xlink:href="#m7e735e50e8" x="57.6" y="213.134311" style="stroke: #000000; stroke-width: 0.8"/>
      </g>
     </g>
     <g id="text_12">
      <!-- 60 -->
      <g transform="translate(37.875 216.933529) scale(0.1 -0.1)">
       <defs>
        <path id="DejaVuSans-36" d="M 2113 2584 
Q 1688 2584 1439 2293 
Q 1191 2003 1191 1497 
Q 1191 994 1439 701 
Q 1688 409 2113 409 
Q 2538 409 2786 701 
Q 3034 994 3034 1497 
Q 3034 2003 2786 2293 
Q 2538 2584 2113 2584 
z
M 3366 4563 
L 3366 3988 
Q 3128 4100 2886 4159 
Q 2644 4219 2406 4219 
Q 1781 4219 1451 3797 
Q 1122 3375 1075 2522 
Q 1259 2794 1537 2939 
Q 1816 3084 2150 3084 
Q 2853 3084 3261 2657 
Q 3669 2231 3669 1497 
Q 3669 778 3244 343 
Q 2819 -91 2113 -91 
Q 1303 -91 875 529 
Q 447 1150 447 2328 
Q 447 3434 972 4092 
Q 1497 4750 2381 4750 
Q 2619 4750 2861 4703 
Q 3103 4656 3366 4563 
z
" transform="scale(0.015625)"/>
       </defs>
       <use xlink:href="#DejaVuSans-36"/>
       <use xlink:href="#DejaVuSans-30" x="63.623047"/>
      </g>
     </g>
    </g>
    <g id="ytick_5">
     <g id="line2d_12">
      <g>
       <use xlink:href="#m7e735e50e8" x="57.6" y="181.651081" style="stroke: #000000; stroke-width: 0.8"/>
      </g>
     </g>
     <g id="text_13">
      <!-- 80 -->
      <g transform="translate(37.875 185.450299) scale(0.1 -0.1)">
       <defs>
        <path id="DejaVuSans-38" d="M 2034 2216 
Q 1584 2216 1326 1975 
Q 1069 1734 1069 1313 
Q 1069 891 1326 650 
Q 1584 409 2034 409 
Q 2484 409 2743 651 
Q 3003 894 3003 1313 
Q 3003 1734 2745 1975 
Q 2488 2216 2034 2216 
z
M 1403 2484 
Q 997 2584 770 2862 
Q 544 3141 544 3541 
Q 544 4100 942 4425 
Q 1341 4750 2034 4750 
Q 2731 4750 3128 4425 
Q 3525 4100 3525 3541 
Q 3525 3141 3298 2862 
Q 3072 2584 2669 2484 
Q 3125 2378 3379 2068 
Q 3634 1759 3634 1313 
Q 3634 634 3220 271 
Q 2806 -91 2034 -91 
Q 1263 -91 848 271 
Q 434 634 434 1313 
Q 434 1759 690 2068 
Q 947 2378 1403 2484 
z
M 1172 3481 
Q 1172 3119 1398 2916 
Q 1625 2713 2034 2713 
Q 2441 2713 2670 2916 
Q 2900 3119 2900 3481 
Q 2900 3844 2670 4047 
Q 2441 4250 2034 4250 
Q 1625 4250 1398 4047 
Q 1172 3844 1172 3481 
z
" transform="scale(0.015625)"/>
       </defs>
       <use xlink:href="#DejaVuSans-38"/>
       <use xlink:href="#DejaVuSans-30" x="63.623047"/>
      </g>
     </g>
    </g>
    <g id="ytick_6">
     <g id="line2d_13">
      <g>
       <use xlink:href="#m7e735e50e8" x="57.6" y="150.167851" style="stroke: #000000; stroke-width: 0.8"/>
      </g>
     </g>
     <g id="text_14">
      <!-- 100 -->
      <g transform="translate(31.5125 153.96707) scale(0.1 -0.1)">
       <use xlink:href="#DejaVuSans-31"/>
       <use xlink:href="#DejaVuSans-30" x="63.623047"/>
       <use xlink:href="#DejaVuSans-30" x="127.246094"/>
      </g>
     </g>
    </g>
    <g id="ytick_7">
     <g id="line2d_14">
      <g>
       <use xlink:href="#m7e735e50e8" x="57.6" y="118.684621" style="stroke: #000000; stroke-width: 0.8"/>
      </g>
     </g>
     <g id="text_15">
      <!-- 120 -->
      <g transform="translate(31.5125 122.48384) scale(0.1 -0.1)">
       <use xlink:href="#DejaVuSans-31"/>
       <use xlink:href="#DejaVuSans-32" x="63.623047"/>
       <use xlink:href="#DejaVuSans-30" x="127.246094"/>
      </g>
     </g>
    </g>
    <g id="ytick_8">
     <g id="line2d_15">
      <g>
       <use xlink:href="#m7e735e50e8" x="57.6" y="87.201391" style="stroke: #000000; stroke-width: 0.8"/>
      </g>
     </g>
     <g id="text_16">
      <!-- 140 -->
      <g transform="translate(31.5125 91.00061) scale(0.1 -0.1)">
       <use xlink:href="#DejaVuSans-31"/>
       <use xlink:href="#DejaVuSans-34" x="63.623047"/>
       <use xlink:href="#DejaVuSans-30" x="127.246094"/>
      </g>
     </g>
    </g>
    <g id="ytick_9">
     <g id="line2d_16">
      <g>
       <use xlink:href="#m7e735e50e8" x="57.6" y="55.718161" style="stroke: #000000; stroke-width: 0.8"/>
      </g>
     </g>
     <g id="text_17">
      <!-- 160 -->
      <g transform="translate(31.5125 59.51738) scale(0.1 -0.1)">
       <use xlink:href="#DejaVuSans-31"/>
       <use xlink:href="#DejaVuSans-36" x="63.623047"/>
       <use xlink:href="#DejaVuSans-30" x="127.246094"/>
      </g>
     </g>
    </g>
    <g id="text_18">
     <!-- Size per Species -->
     <g transform="translate(25.432812 215.520969) rotate(-90) scale(0.1 -0.1)">
      <defs>
       <path id="DejaVuSans-53" d="M 3425 4513 
L 3425 3897 
Q 3066 4069 2747 4153 
Q 2428 4238 2131 4238 
Q 1616 4238 1336 4038 
Q 1056 3838 1056 3469 
Q 1056 3159 1242 3001 
Q 1428 2844 1947 2747 
L 2328 2669 
Q 3034 2534 3370 2195 
Q 3706 1856 3706 1288 
Q 3706 609 3251 259 
Q 2797 -91 1919 -91 
Q 1588 -91 1214 -16 
Q 841 59 441 206 
L 441 856 
Q 825 641 1194 531 
Q 1563 422 1919 422 
Q 2459 422 2753 634 
Q 3047 847 3047 1241 
Q 3047 1584 2836 1778 
Q 2625 1972 2144 2069 
L 1759 2144 
Q 1053 2284 737 2584 
Q 422 2884 422 3419 
Q 422 4038 858 4394 
Q 1294 4750 2059 4750 
Q 2388 4750 2728 4690 
Q 3069 4631 3425 4513 
z
" transform="scale(0.015625)"/>
       <path id="DejaVuSans-7a" d="M 353 3500 
L 3084 3500 
L 3084 2975 
L 922 459 
L 3084 459 
L 3084 0 
L 275 0 
L 275 525 
L 2438 3041 
L 353 3041 
L 353 3500 
z
" transform="scale(0.015625)"/>
       <path id="DejaVuSans-20" transform="scale(0.015625)"/>
       <path id="DejaVuSans-70" d="M 1159 525 
L 1159 -1331 
L 581 -1331 
L 581 3500 
L 1159 3500 
L 1159 2969 
Q 1341 3281 1617 3432 
Q 1894 3584 2278 3584 
Q 2916 3584 3314 3078 
Q 3713 2572 3713 1747 
Q 3713 922 3314 415 
Q 2916 -91 2278 -91 
Q 1894 -91 1617 61 
Q 1341 213 1159 525 
z
M 3116 1747 
Q 3116 2381 2855 2742 
Q 2594 3103 2138 3103 
Q 1681 3103 1420 2742 
Q 1159 2381 1159 1747 
Q 1159 1113 1420 752 
Q 1681 391 2138 391 
Q 2594 391 2855 752 
Q 3116 1113 3116 1747 
z
" transform="scale(0.015625)"/>
       <path id="DejaVuSans-63" d="M 3122 3366 
L 3122 2828 
Q 2878 2963 2633 3030 
Q 2388 3097 2138 3097 
Q 1578 3097 1268 2742 
Q 959 2388 959 1747 
Q 959 1106 1268 751 
Q 1578 397 2138 397 
Q 2388 397 2633 464 
Q 2878 531 3122 666 
L 3122 134 
Q 2881 22 2623 -34 
Q 2366 -91 2075 -91 
Q 1284 -91 818 406 
Q 353 903 353 1747 
Q 353 2603 823 3093 
Q 1294 3584 2113 3584 
Q 2378 3584 2631 3529 
Q 2884 3475 3122 3366 
z
" transform="scale(0.015625)"/>
      </defs>
      <use xlink:href="#DejaVuSans-53"/>
      <use xlink:href="#DejaVuSans-69" x="63.476562"/>
      <use xlink:href="#DejaVuSans-7a" x="91.259766"/>
      <use xlink:href="#DejaVuSans-65" x="143.75"/>
      <use xlink:href="#DejaVuSans-20" x="205.273438"/>
      <use xlink:href="#DejaVuSans-70" x="237.060547"/>
      <use xlink:href="#DejaVuSans-65" x="300.537109"/>
      <use xlink:href="#DejaVuSans-72" x="362.060547"/>
      <use xlink:href="#DejaVuSans-20" x="403.173828"/>
      <use xlink:href="#DejaVuSans-53" x="434.960938"/>
      <use xlink:href="#DejaVuSans-70" x="498.4375"/>
      <use xlink:href="#DejaVuSans-65" x="561.914062"/>
      <use xlink:href="#DejaVuSans-63" x="623.4375"/>
      <use xlink:href="#DejaVuSans-69" x="678.417969"/>
      <use xlink:href="#DejaVuSans-65" x="706.201172"/>
      <use xlink:href="#DejaVuSans-73" x="767.724609"/>
     </g>
    </g>
   </g>
   <g id="patch_3">
    <path d="M 57.6 307.584 
L 57.6 41.472 
" style="fill: none; stroke: #000000; stroke-width: 0.8; stroke-linejoin: miter; stroke-linecap: square"/>
   </g>
   <g id="patch_4">
    <path d="M 414.72 307.584 
L 414.72 41.472 
" style="fill: none; stroke: #000000; stroke-width: 0.8; stroke-linejoin: miter; stroke-linecap: square"/>
   </g>
   <g id="patch_5">
    <path d="M 57.6 307.584 
L 414.72 307.584 
" style="fill: none; stroke: #000000; stroke-width: 0.8; stroke-linejoin: miter; stroke-linecap: square"/>
   </g>
   <g id="patch_6">
    <path d="M 57.6 41.472 
L 414.72 41.472 
" style="fill: none; stroke: #000000; stroke-width: 0.8; stroke-linejoin: miter; stroke-linecap: square"/>
   </g>
   <g id="text_19">
    <!-- Speciation -->
    <g transform="translate(204.714375 35.472) scale(0.12 -0.12)">
     <use xlink:href="#DejaVuSans-53"/>
     <use xlink:href="#DejaVuSans-70" x="63.476562"/>
     <use xlink:href="#DejaVuSans-65" x="126.953125"/>
     <use xlink:href="#DejaVuSans-63" x="188.476562"/>
     <use xlink:href="#DejaVuSans-69" x="243.457031"/>
     <use xlink:href="#DejaVuSans-61" x="271.240234"/>
     <use xlink:href="#DejaVuSans-74" x="332.519531"/>
     <use xlink:href="#DejaVuSans-69" x="371.728516"/>
     <use xlink:href="#DejaVuSans-6f" x="399.511719"/>
     <use xlink:href="#DejaVuSans-6e" x="460.693359"/>
    </g>
   </g>
  </g>
 </g>
 <defs>
  <clipPath id="p39b2ca62c1">
   <rect x="57.6" y="41.472" width="357.12" height="266.112"/>
  </clipPath>
 </defs>
</svg>
