<?xml version="1.0" encoding="UTF-8" standalone="no"?>
<!DOCTYPE svg PUBLIC "-//W3C//DTD SVG 1.1//EN"
 "http://www.w3.org/Graphics/SVG/1.1/DTD/svg11.dtd">
<!-- Generated by graphviz version 2.43.0 (0)
 -->
<!-- Title: %3 Pages: 1 -->
<svg width="411pt" height="309pt"
 viewBox="0.00 0.00 410.53 309.36" xmlns="http://www.w3.org/2000/svg" xmlns:xlink="http://www.w3.org/1999/xlink">
<g id="graph0" class="graph" transform="scale(1 1) rotate(0) translate(4 305.36)">
<title>%3</title>
<polygon fill="white" stroke="transparent" points="-4,4 -4,-305.36 406.53,-305.36 406.53,4 -4,4"/>
<!-- ball_left -->
<g id="node1" class="node">
<title>ball_left</title>
<polygon fill="lightgray" stroke="black" points="191.03,-137.63 138.03,-137.63 138.03,-119.63 191.03,-119.63 191.03,-137.63"/>
<text text-anchor="middle" x="164.53" y="-126.43" font-family="Times,serif" font-size="9.00">ball_left</text>
</g>
<!-- NOOP -->
<g id="node4" class="node">
<title>NOOP</title>
<ellipse fill="lightblue" stroke="black" cx="32.53" cy="-33.94" rx="32.55" ry="32.55"/>
<text text-anchor="middle" x="32.53" y="-31.74" font-family="Times,serif" font-size="9.00">NOOP</text>
</g>
<!-- ball_left&#45;&gt;NOOP -->
<g id="edge4" class="edge">
<title>ball_left&#45;&gt;NOOP</title>
<path fill="none" stroke="red" stroke-width="0.41" d="M151.79,-119.63C134.16,-108.44 101.44,-87.32 74.53,-67.88 71.66,-65.81 68.72,-63.63 65.78,-61.41"/>
<polygon fill="red" stroke="red" stroke-width="0.41" points="67.66,-58.44 57.6,-55.13 63.4,-63.99 67.66,-58.44"/>
</g>
<!-- FIRE -->
<g id="node5" class="node">
<title>FIRE</title>
<ellipse fill="lightblue" stroke="black" cx="111.53" cy="-33.94" rx="28.07" ry="28.07"/>
<text text-anchor="middle" x="111.53" y="-31.74" font-family="Times,serif" font-size="9.00">FIRE</text>
</g>
<!-- ball_left&#45;&gt;FIRE -->
<g id="edge3" class="edge">
<title>ball_left&#45;&gt;FIRE</title>
<path fill="none" stroke="green" stroke-width="0.4" stroke-dasharray="1,5" d="M159.82,-119.41C153.2,-107.83 140.77,-86.08 130.17,-67.55"/>
<polygon fill="green" stroke="green" stroke-width="0.4" points="133.15,-65.71 125.15,-58.77 127.08,-69.18 133.15,-65.71"/>
</g>
<!-- RIGHT -->
<g id="node6" class="node">
<title>RIGHT</title>
<ellipse fill="lightblue" stroke="black" cx="191.53" cy="-33.94" rx="33.88" ry="33.88"/>
<text text-anchor="middle" x="191.53" y="-31.74" font-family="Times,serif" font-size="9.00">RIGHT</text>
</g>
<!-- ball_left&#45;&gt;RIGHT -->
<g id="edge7" class="edge">
<title>ball_left&#45;&gt;RIGHT</title>
<path fill="none" stroke="green" stroke-width="0.4" d="M166.92,-119.41C169.74,-109.72 174.64,-92.9 179.33,-76.82"/>
<polygon fill="green" stroke="green" stroke-width="0.4" points="182.76,-77.54 182.2,-66.96 176.04,-75.58 182.76,-77.54"/>
</g>
<!-- LEFT -->
<g id="node7" class="node">
<title>LEFT</title>
<ellipse fill="lightblue" stroke="black" cx="272.53" cy="-33.94" rx="28.98" ry="28.98"/>
<text text-anchor="middle" x="272.53" y="-31.74" font-family="Times,serif" font-size="9.00">LEFT</text>
</g>
<!-- ball_left&#45;&gt;LEFT -->
<g id="edge1" class="edge">
<title>ball_left&#45;&gt;LEFT</title>
<path fill="none" stroke="red" stroke-width="0.22" d="M174.06,-119.54C187.55,-108.07 212.97,-86.43 234.53,-67.88 237.34,-65.46 240.27,-62.94 243.19,-60.41"/>
<polygon fill="red" stroke="red" stroke-width="0.22" points="245.58,-62.97 250.85,-53.78 241,-57.68 245.58,-62.97"/>
</g>
<!-- ball_right -->
<g id="node2" class="node">
<title>ball_right</title>
<polygon fill="lightgray" stroke="black" points="402.53,-301.36 340.53,-301.36 340.53,-283.36 402.53,-283.36 402.53,-301.36"/>
<text text-anchor="middle" x="371.53" y="-290.16" font-family="Times,serif" font-size="9.00">ball_right</text>
</g>
<!-- ball_out_field -->
<g id="node3" class="node">
<title>ball_out_field</title>
<polygon fill="lightgray" stroke="black" points="322.53,-301.36 244.53,-301.36 244.53,-283.36 322.53,-283.36 322.53,-301.36"/>
<text text-anchor="middle" x="283.53" y="-290.16" font-family="Times,serif" font-size="9.00">ball_out_field</text>
</g>
<!-- ball_out_field&#45;&gt;LEFT -->
<g id="edge2" class="edge">
<title>ball_out_field&#45;&gt;LEFT</title>
<path fill="none" stroke="green" stroke-width="0.6" stroke-dasharray="1,5" d="M282.03,-283.32C278.16,-262.14 267.93,-203.08 264.53,-153.38 263.02,-131.43 263.26,-125.84 264.53,-103.88 265.11,-93.79 266.17,-82.92 267.33,-72.85"/>
<polygon fill="green" stroke="green" stroke-width="0.6" points="270.83,-73.07 268.56,-62.72 263.88,-72.22 270.83,-73.07"/>
</g>
<!-- 975 -->
<g id="node8" class="node">
<title>975</title>
<ellipse fill="white" stroke="black" cx="298.53" cy="-128.63" rx="25" ry="25"/>
<text text-anchor="middle" x="298.53" y="-126.43" font-family="Times,serif" font-size="9.00">975</text>
</g>
<!-- ball_out_field&#45;&gt;975 -->
<g id="edge5" class="edge">
<title>ball_out_field&#45;&gt;975</title>
<path fill="none" stroke="green" stroke-width="0.22" stroke-dasharray="1,5" d="M284.29,-283.12C286.31,-261.41 291.84,-201.69 295.39,-163.47"/>
<polygon fill="green" stroke="green" stroke-width="0.22" points="298.89,-163.58 296.33,-153.3 291.92,-162.94 298.89,-163.58"/>
</g>
<!-- 1702 -->
<g id="node9" class="node">
<title>1702</title>
<ellipse fill="white" stroke="black" cx="340.53" cy="-218.37" rx="28.98" ry="28.98"/>
<text text-anchor="middle" x="340.53" y="-216.17" font-family="Times,serif" font-size="9.00">1702</text>
</g>
<!-- ball_out_field&#45;&gt;1702 -->
<g id="edge8" class="edge">
<title>ball_out_field&#45;&gt;1702</title>
<path fill="none" stroke="green" stroke-width="0.59" d="M290.07,-283.1C296.59,-274.86 307.01,-261.7 316.69,-249.47"/>
<polygon fill="green" stroke="green" stroke-width="0.59" points="319.44,-251.64 322.9,-241.63 313.95,-247.3 319.44,-251.64"/>
</g>
<!-- 975&#45;&gt;LEFT -->
<g id="edge6" class="edge">
<title>975&#45;&gt;LEFT</title>
<path fill="none" stroke="red" stroke-width="0.24" d="M292.1,-104.72C289.34,-94.87 286.04,-83.1 282.94,-72.06"/>
<polygon fill="red" stroke="red" stroke-width="0.24" points="286.24,-70.89 280.17,-62.2 279.5,-72.78 286.24,-70.89"/>
</g>
<!-- 1702&#45;&gt;975 -->
<g id="edge9" class="edge">
<title>1702&#45;&gt;975</title>
<path fill="none" stroke="green" stroke-width="0.12" d="M328.38,-191.99C323.67,-182.15 318.23,-170.79 313.29,-160.48"/>
<polygon fill="green" stroke="green" stroke-width="0.12" points="316.41,-158.89 308.94,-151.38 310.1,-161.92 316.41,-158.89"/>
</g>
</g>
</svg>
