<?xml version="1.0" encoding="utf-8" standalone="no"?>
<!DOCTYPE svg PUBLIC "-//W3C//DTD SVG 1.1//EN"
  "http://www.w3.org/Graphics/SVG/1.1/DTD/svg11.dtd">
<!-- Created with matplotlib (https://matplotlib.org/) -->
<svg height="345.6pt" version="1.1" viewBox="0 0 460.8 345.6" width="460.8pt" xmlns="http://www.w3.org/2000/svg" xmlns:xlink="http://www.w3.org/1999/xlink">
 <metadata>
  <rdf:RDF xmlns:cc="http://creativecommons.org/ns#" xmlns:dc="http://purl.org/dc/elements/1.1/" xmlns:rdf="http://www.w3.org/1999/02/22-rdf-syntax-ns#">
   <cc:Work>
    <dc:type rdf:resource="http://purl.org/dc/dcmitype/StillImage"/>
    <dc:date>2023-02-02T17:46:05.740309</dc:date>
    <dc:format>image/svg+xml</dc:format>
    <dc:creator>
     <cc:Agent>
      <dc:title>Matplotlib v3.3.4, https://matplotlib.org/</dc:title>
     </cc:Agent>
    </dc:creator>
   </cc:Work>
  </rdf:RDF>
 </metadata>
 <defs>
  <style type="text/css">*{stroke-linecap:butt;stroke-linejoin:round;}</style>
 </defs>
 <g id="figure_1">
  <g id="patch_1">
   <path d="M 0 345.6 
L 460.8 345.6 
L 460.8 0 
L 0 0 
z
" style="fill:#ffffff;"/>
  </g>
  <g id="axes_1">
   <g id="patch_2">
    <path d="M 57.6 307.584 
L 414.72 307.584 
L 414.72 41.472 
L 57.6 41.472 
z
" style="fill:#ffffff;"/>
   </g>
   <g id="matplotlib.axis_1">
    <g id="xtick_1">
     <g id="line2d_1">
      <path clip-path="url(#p4d79a86af3)" d="M 73.832727 307.584 
L 73.832727 41.472 
" style="fill:none;stroke:#b0b0b0;stroke-linecap:square;stroke-width:0.8;"/>
     </g>
     <g id="line2d_2">
      <defs>
       <path d="M 0 0 
L 0 3.5 
" id="mfbf4707f56" style="stroke:#000000;stroke-width:0.8;"/>
      </defs>
      <g>
       <use style="stroke:#000000;stroke-width:0.8;" x="73.832727" xlink:href="#mfbf4707f56" y="307.584"/>
      </g>
     </g>
     <g id="text_1">
      <!-- 0 -->
      <g transform="translate(70.651477 322.182437)scale(0.1 -0.1)">
       <defs>
        <path d="M 31.78125 66.40625 
Q 24.171875 66.40625 20.328125 58.90625 
Q 16.5 51.421875 16.5 36.375 
Q 16.5 21.390625 20.328125 13.890625 
Q 24.171875 6.390625 31.78125 6.390625 
Q 39.453125 6.390625 43.28125 13.890625 
Q 47.125 21.390625 47.125 36.375 
Q 47.125 51.421875 43.28125 58.90625 
Q 39.453125 66.40625 31.78125 66.40625 
z
M 31.78125 74.21875 
Q 44.046875 74.21875 50.515625 64.515625 
Q 56.984375 54.828125 56.984375 36.375 
Q 56.984375 17.96875 50.515625 8.265625 
Q 44.046875 -1.421875 31.78125 -1.421875 
Q 19.53125 -1.421875 13.0625 8.265625 
Q 6.59375 17.96875 6.59375 36.375 
Q 6.59375 54.828125 13.0625 64.515625 
Q 19.53125 74.21875 31.78125 74.21875 
z
" id="DejaVuSans-48"/>
       </defs>
       <use xlink:href="#DejaVuSans-48"/>
      </g>
     </g>
    </g>
    <g id="xtick_2">
     <g id="line2d_3">
      <path clip-path="url(#p4d79a86af3)" d="M 128.122785 307.584 
L 128.122785 41.472 
" style="fill:none;stroke:#b0b0b0;stroke-linecap:square;stroke-width:0.8;"/>
     </g>
     <g id="line2d_4">
      <g>
       <use style="stroke:#000000;stroke-width:0.8;" x="128.122785" xlink:href="#mfbf4707f56" y="307.584"/>
      </g>
     </g>
     <g id="text_2">
      <!-- 50 -->
      <g transform="translate(121.760285 322.182437)scale(0.1 -0.1)">
       <defs>
        <path d="M 10.796875 72.90625 
L 49.515625 72.90625 
L 49.515625 64.59375 
L 19.828125 64.59375 
L 19.828125 46.734375 
Q 21.96875 47.46875 24.109375 47.828125 
Q 26.265625 48.1875 28.421875 48.1875 
Q 40.625 48.1875 47.75 41.5 
Q 54.890625 34.8125 54.890625 23.390625 
Q 54.890625 11.625 47.5625 5.09375 
Q 40.234375 -1.421875 26.90625 -1.421875 
Q 22.3125 -1.421875 17.546875 -0.640625 
Q 12.796875 0.140625 7.71875 1.703125 
L 7.71875 11.625 
Q 12.109375 9.234375 16.796875 8.0625 
Q 21.484375 6.890625 26.703125 6.890625 
Q 35.15625 6.890625 40.078125 11.328125 
Q 45.015625 15.765625 45.015625 23.390625 
Q 45.015625 31 40.078125 35.4375 
Q 35.15625 39.890625 26.703125 39.890625 
Q 22.75 39.890625 18.8125 39.015625 
Q 14.890625 38.140625 10.796875 36.28125 
z
" id="DejaVuSans-53"/>
       </defs>
       <use xlink:href="#DejaVuSans-53"/>
       <use x="63.623047" xlink:href="#DejaVuSans-48"/>
      </g>
     </g>
    </g>
    <g id="xtick_3">
     <g id="line2d_5">
      <path clip-path="url(#p4d79a86af3)" d="M 182.412843 307.584 
L 182.412843 41.472 
" style="fill:none;stroke:#b0b0b0;stroke-linecap:square;stroke-width:0.8;"/>
     </g>
     <g id="line2d_6">
      <g>
       <use style="stroke:#000000;stroke-width:0.8;" x="182.412843" xlink:href="#mfbf4707f56" y="307.584"/>
      </g>
     </g>
     <g id="text_3">
      <!-- 100 -->
      <g transform="translate(172.869093 322.182437)scale(0.1 -0.1)">
       <defs>
        <path d="M 12.40625 8.296875 
L 28.515625 8.296875 
L 28.515625 63.921875 
L 10.984375 60.40625 
L 10.984375 69.390625 
L 28.421875 72.90625 
L 38.28125 72.90625 
L 38.28125 8.296875 
L 54.390625 8.296875 
L 54.390625 0 
L 12.40625 0 
z
" id="DejaVuSans-49"/>
       </defs>
       <use xlink:href="#DejaVuSans-49"/>
       <use x="63.623047" xlink:href="#DejaVuSans-48"/>
       <use x="127.246094" xlink:href="#DejaVuSans-48"/>
      </g>
     </g>
    </g>
    <g id="xtick_4">
     <g id="line2d_7">
      <path clip-path="url(#p4d79a86af3)" d="M 236.702901 307.584 
L 236.702901 41.472 
" style="fill:none;stroke:#b0b0b0;stroke-linecap:square;stroke-width:0.8;"/>
     </g>
     <g id="line2d_8">
      <g>
       <use style="stroke:#000000;stroke-width:0.8;" x="236.702901" xlink:href="#mfbf4707f56" y="307.584"/>
      </g>
     </g>
     <g id="text_4">
      <!-- 150 -->
      <g transform="translate(227.159151 322.182437)scale(0.1 -0.1)">
       <use xlink:href="#DejaVuSans-49"/>
       <use x="63.623047" xlink:href="#DejaVuSans-53"/>
       <use x="127.246094" xlink:href="#DejaVuSans-48"/>
      </g>
     </g>
    </g>
    <g id="xtick_5">
     <g id="line2d_9">
      <path clip-path="url(#p4d79a86af3)" d="M 290.992958 307.584 
L 290.992958 41.472 
" style="fill:none;stroke:#b0b0b0;stroke-linecap:square;stroke-width:0.8;"/>
     </g>
     <g id="line2d_10">
      <g>
       <use style="stroke:#000000;stroke-width:0.8;" x="290.992958" xlink:href="#mfbf4707f56" y="307.584"/>
      </g>
     </g>
     <g id="text_5">
      <!-- 200 -->
      <g transform="translate(281.449208 322.182437)scale(0.1 -0.1)">
       <defs>
        <path d="M 19.1875 8.296875 
L 53.609375 8.296875 
L 53.609375 0 
L 7.328125 0 
L 7.328125 8.296875 
Q 12.9375 14.109375 22.625 23.890625 
Q 32.328125 33.6875 34.8125 36.53125 
Q 39.546875 41.84375 41.421875 45.53125 
Q 43.3125 49.21875 43.3125 52.78125 
Q 43.3125 58.59375 39.234375 62.25 
Q 35.15625 65.921875 28.609375 65.921875 
Q 23.96875 65.921875 18.8125 64.3125 
Q 13.671875 62.703125 7.8125 59.421875 
L 7.8125 69.390625 
Q 13.765625 71.78125 18.9375 73 
Q 24.125 74.21875 28.421875 74.21875 
Q 39.75 74.21875 46.484375 68.546875 
Q 53.21875 62.890625 53.21875 53.421875 
Q 53.21875 48.921875 51.53125 44.890625 
Q 49.859375 40.875 45.40625 35.40625 
Q 44.1875 33.984375 37.640625 27.21875 
Q 31.109375 20.453125 19.1875 8.296875 
z
" id="DejaVuSans-50"/>
       </defs>
       <use xlink:href="#DejaVuSans-50"/>
       <use x="63.623047" xlink:href="#DejaVuSans-48"/>
       <use x="127.246094" xlink:href="#DejaVuSans-48"/>
      </g>
     </g>
    </g>
    <g id="xtick_6">
     <g id="line2d_11">
      <path clip-path="url(#p4d79a86af3)" d="M 345.283016 307.584 
L 345.283016 41.472 
" style="fill:none;stroke:#b0b0b0;stroke-linecap:square;stroke-width:0.8;"/>
     </g>
     <g id="line2d_12">
      <g>
       <use style="stroke:#000000;stroke-width:0.8;" x="345.283016" xlink:href="#mfbf4707f56" y="307.584"/>
      </g>
     </g>
     <g id="text_6">
      <!-- 250 -->
      <g transform="translate(335.739266 322.182437)scale(0.1 -0.1)">
       <use xlink:href="#DejaVuSans-50"/>
       <use x="63.623047" xlink:href="#DejaVuSans-53"/>
       <use x="127.246094" xlink:href="#DejaVuSans-48"/>
      </g>
     </g>
    </g>
    <g id="xtick_7">
     <g id="line2d_13">
      <path clip-path="url(#p4d79a86af3)" d="M 399.573074 307.584 
L 399.573074 41.472 
" style="fill:none;stroke:#b0b0b0;stroke-linecap:square;stroke-width:0.8;"/>
     </g>
     <g id="line2d_14">
      <g>
       <use style="stroke:#000000;stroke-width:0.8;" x="399.573074" xlink:href="#mfbf4707f56" y="307.584"/>
      </g>
     </g>
     <g id="text_7">
      <!-- 300 -->
      <g transform="translate(390.029324 322.182437)scale(0.1 -0.1)">
       <defs>
        <path d="M 40.578125 39.3125 
Q 47.65625 37.796875 51.625 33 
Q 55.609375 28.21875 55.609375 21.1875 
Q 55.609375 10.40625 48.1875 4.484375 
Q 40.765625 -1.421875 27.09375 -1.421875 
Q 22.515625 -1.421875 17.65625 -0.515625 
Q 12.796875 0.390625 7.625 2.203125 
L 7.625 11.71875 
Q 11.71875 9.328125 16.59375 8.109375 
Q 21.484375 6.890625 26.8125 6.890625 
Q 36.078125 6.890625 40.9375 10.546875 
Q 45.796875 14.203125 45.796875 21.1875 
Q 45.796875 27.640625 41.28125 31.265625 
Q 36.765625 34.90625 28.71875 34.90625 
L 20.21875 34.90625 
L 20.21875 43.015625 
L 29.109375 43.015625 
Q 36.375 43.015625 40.234375 45.921875 
Q 44.09375 48.828125 44.09375 54.296875 
Q 44.09375 59.90625 40.109375 62.90625 
Q 36.140625 65.921875 28.71875 65.921875 
Q 24.65625 65.921875 20.015625 65.03125 
Q 15.375 64.15625 9.8125 62.3125 
L 9.8125 71.09375 
Q 15.4375 72.65625 20.34375 73.4375 
Q 25.25 74.21875 29.59375 74.21875 
Q 40.828125 74.21875 47.359375 69.109375 
Q 53.90625 64.015625 53.90625 55.328125 
Q 53.90625 49.265625 50.4375 45.09375 
Q 46.96875 40.921875 40.578125 39.3125 
z
" id="DejaVuSans-51"/>
       </defs>
       <use xlink:href="#DejaVuSans-51"/>
       <use x="63.623047" xlink:href="#DejaVuSans-48"/>
       <use x="127.246094" xlink:href="#DejaVuSans-48"/>
      </g>
     </g>
    </g>
    <g id="text_8">
     <!-- Generations -->
     <g transform="translate(205.662344 335.860562)scale(0.1 -0.1)">
      <defs>
       <path d="M 59.515625 10.40625 
L 59.515625 29.984375 
L 43.40625 29.984375 
L 43.40625 38.09375 
L 69.28125 38.09375 
L 69.28125 6.78125 
Q 63.578125 2.734375 56.6875 0.65625 
Q 49.8125 -1.421875 42 -1.421875 
Q 24.90625 -1.421875 15.25 8.5625 
Q 5.609375 18.5625 5.609375 36.375 
Q 5.609375 54.25 15.25 64.234375 
Q 24.90625 74.21875 42 74.21875 
Q 49.125 74.21875 55.546875 72.453125 
Q 61.96875 70.703125 67.390625 67.28125 
L 67.390625 56.78125 
Q 61.921875 61.421875 55.765625 63.765625 
Q 49.609375 66.109375 42.828125 66.109375 
Q 29.4375 66.109375 22.71875 58.640625 
Q 16.015625 51.171875 16.015625 36.375 
Q 16.015625 21.625 22.71875 14.15625 
Q 29.4375 6.6875 42.828125 6.6875 
Q 48.046875 6.6875 52.140625 7.59375 
Q 56.25 8.5 59.515625 10.40625 
z
" id="DejaVuSans-71"/>
       <path d="M 56.203125 29.59375 
L 56.203125 25.203125 
L 14.890625 25.203125 
Q 15.484375 15.921875 20.484375 11.0625 
Q 25.484375 6.203125 34.421875 6.203125 
Q 39.59375 6.203125 44.453125 7.46875 
Q 49.3125 8.734375 54.109375 11.28125 
L 54.109375 2.78125 
Q 49.265625 0.734375 44.1875 -0.34375 
Q 39.109375 -1.421875 33.890625 -1.421875 
Q 20.796875 -1.421875 13.15625 6.1875 
Q 5.515625 13.8125 5.515625 26.8125 
Q 5.515625 40.234375 12.765625 48.109375 
Q 20.015625 56 32.328125 56 
Q 43.359375 56 49.78125 48.890625 
Q 56.203125 41.796875 56.203125 29.59375 
z
M 47.21875 32.234375 
Q 47.125 39.59375 43.09375 43.984375 
Q 39.0625 48.390625 32.421875 48.390625 
Q 24.90625 48.390625 20.390625 44.140625 
Q 15.875 39.890625 15.1875 32.171875 
z
" id="DejaVuSans-101"/>
       <path d="M 54.890625 33.015625 
L 54.890625 0 
L 45.90625 0 
L 45.90625 32.71875 
Q 45.90625 40.484375 42.875 44.328125 
Q 39.84375 48.1875 33.796875 48.1875 
Q 26.515625 48.1875 22.3125 43.546875 
Q 18.109375 38.921875 18.109375 30.90625 
L 18.109375 0 
L 9.078125 0 
L 9.078125 54.6875 
L 18.109375 54.6875 
L 18.109375 46.1875 
Q 21.34375 51.125 25.703125 53.5625 
Q 30.078125 56 35.796875 56 
Q 45.21875 56 50.046875 50.171875 
Q 54.890625 44.34375 54.890625 33.015625 
z
" id="DejaVuSans-110"/>
       <path d="M 41.109375 46.296875 
Q 39.59375 47.171875 37.8125 47.578125 
Q 36.03125 48 33.890625 48 
Q 26.265625 48 22.1875 43.046875 
Q 18.109375 38.09375 18.109375 28.8125 
L 18.109375 0 
L 9.078125 0 
L 9.078125 54.6875 
L 18.109375 54.6875 
L 18.109375 46.1875 
Q 20.953125 51.171875 25.484375 53.578125 
Q 30.03125 56 36.53125 56 
Q 37.453125 56 38.578125 55.875 
Q 39.703125 55.765625 41.0625 55.515625 
z
" id="DejaVuSans-114"/>
       <path d="M 34.28125 27.484375 
Q 23.390625 27.484375 19.1875 25 
Q 14.984375 22.515625 14.984375 16.5 
Q 14.984375 11.71875 18.140625 8.90625 
Q 21.296875 6.109375 26.703125 6.109375 
Q 34.1875 6.109375 38.703125 11.40625 
Q 43.21875 16.703125 43.21875 25.484375 
L 43.21875 27.484375 
z
M 52.203125 31.203125 
L 52.203125 0 
L 43.21875 0 
L 43.21875 8.296875 
Q 40.140625 3.328125 35.546875 0.953125 
Q 30.953125 -1.421875 24.3125 -1.421875 
Q 15.921875 -1.421875 10.953125 3.296875 
Q 6 8.015625 6 15.921875 
Q 6 25.140625 12.171875 29.828125 
Q 18.359375 34.515625 30.609375 34.515625 
L 43.21875 34.515625 
L 43.21875 35.40625 
Q 43.21875 41.609375 39.140625 45 
Q 35.0625 48.390625 27.6875 48.390625 
Q 23 48.390625 18.546875 47.265625 
Q 14.109375 46.140625 10.015625 43.890625 
L 10.015625 52.203125 
Q 14.9375 54.109375 19.578125 55.046875 
Q 24.21875 56 28.609375 56 
Q 40.484375 56 46.34375 49.84375 
Q 52.203125 43.703125 52.203125 31.203125 
z
" id="DejaVuSans-97"/>
       <path d="M 18.3125 70.21875 
L 18.3125 54.6875 
L 36.8125 54.6875 
L 36.8125 47.703125 
L 18.3125 47.703125 
L 18.3125 18.015625 
Q 18.3125 11.328125 20.140625 9.421875 
Q 21.96875 7.515625 27.59375 7.515625 
L 36.8125 7.515625 
L 36.8125 0 
L 27.59375 0 
Q 17.1875 0 13.234375 3.875 
Q 9.28125 7.765625 9.28125 18.015625 
L 9.28125 47.703125 
L 2.6875 47.703125 
L 2.6875 54.6875 
L 9.28125 54.6875 
L 9.28125 70.21875 
z
" id="DejaVuSans-116"/>
       <path d="M 9.421875 54.6875 
L 18.40625 54.6875 
L 18.40625 0 
L 9.421875 0 
z
M 9.421875 75.984375 
L 18.40625 75.984375 
L 18.40625 64.59375 
L 9.421875 64.59375 
z
" id="DejaVuSans-105"/>
       <path d="M 30.609375 48.390625 
Q 23.390625 48.390625 19.1875 42.75 
Q 14.984375 37.109375 14.984375 27.296875 
Q 14.984375 17.484375 19.15625 11.84375 
Q 23.34375 6.203125 30.609375 6.203125 
Q 37.796875 6.203125 41.984375 11.859375 
Q 46.1875 17.53125 46.1875 27.296875 
Q 46.1875 37.015625 41.984375 42.703125 
Q 37.796875 48.390625 30.609375 48.390625 
z
M 30.609375 56 
Q 42.328125 56 49.015625 48.375 
Q 55.71875 40.765625 55.71875 27.296875 
Q 55.71875 13.875 49.015625 6.21875 
Q 42.328125 -1.421875 30.609375 -1.421875 
Q 18.84375 -1.421875 12.171875 6.21875 
Q 5.515625 13.875 5.515625 27.296875 
Q 5.515625 40.765625 12.171875 48.375 
Q 18.84375 56 30.609375 56 
z
" id="DejaVuSans-111"/>
       <path d="M 44.28125 53.078125 
L 44.28125 44.578125 
Q 40.484375 46.53125 36.375 47.5 
Q 32.28125 48.484375 27.875 48.484375 
Q 21.1875 48.484375 17.84375 46.4375 
Q 14.5 44.390625 14.5 40.28125 
Q 14.5 37.15625 16.890625 35.375 
Q 19.28125 33.59375 26.515625 31.984375 
L 29.59375 31.296875 
Q 39.15625 29.25 43.1875 25.515625 
Q 47.21875 21.78125 47.21875 15.09375 
Q 47.21875 7.46875 41.1875 3.015625 
Q 35.15625 -1.421875 24.609375 -1.421875 
Q 20.21875 -1.421875 15.453125 -0.5625 
Q 10.6875 0.296875 5.421875 2 
L 5.421875 11.28125 
Q 10.40625 8.6875 15.234375 7.390625 
Q 20.0625 6.109375 24.8125 6.109375 
Q 31.15625 6.109375 34.5625 8.28125 
Q 37.984375 10.453125 37.984375 14.40625 
Q 37.984375 18.0625 35.515625 20.015625 
Q 33.0625 21.96875 24.703125 23.78125 
L 21.578125 24.515625 
Q 13.234375 26.265625 9.515625 29.90625 
Q 5.8125 33.546875 5.8125 39.890625 
Q 5.8125 47.609375 11.28125 51.796875 
Q 16.75 56 26.8125 56 
Q 31.78125 56 36.171875 55.265625 
Q 40.578125 54.546875 44.28125 53.078125 
z
" id="DejaVuSans-115"/>
      </defs>
      <use xlink:href="#DejaVuSans-71"/>
      <use x="77.490234" xlink:href="#DejaVuSans-101"/>
      <use x="139.013672" xlink:href="#DejaVuSans-110"/>
      <use x="202.392578" xlink:href="#DejaVuSans-101"/>
      <use x="263.916016" xlink:href="#DejaVuSans-114"/>
      <use x="305.029297" xlink:href="#DejaVuSans-97"/>
      <use x="366.308594" xlink:href="#DejaVuSans-116"/>
      <use x="405.517578" xlink:href="#DejaVuSans-105"/>
      <use x="433.300781" xlink:href="#DejaVuSans-111"/>
      <use x="494.482422" xlink:href="#DejaVuSans-110"/>
      <use x="557.861328" xlink:href="#DejaVuSans-115"/>
     </g>
    </g>
   </g>
   <g id="matplotlib.axis_2">
    <g id="ytick_1">
     <g id="line2d_15">
      <path clip-path="url(#p4d79a86af3)" d="M 57.6 295.488 
L 414.72 295.488 
" style="fill:none;stroke:#b0b0b0;stroke-linecap:square;stroke-width:0.8;"/>
     </g>
     <g id="line2d_16">
      <defs>
       <path d="M 0 0 
L -3.5 0 
" id="m5ffdebe744" style="stroke:#000000;stroke-width:0.8;"/>
      </defs>
      <g>
       <use style="stroke:#000000;stroke-width:0.8;" x="57.6" xlink:href="#m5ffdebe744" y="295.488"/>
      </g>
     </g>
     <g id="text_9">
      <!-- 0 -->
      <g transform="translate(44.2375 299.287219)scale(0.1 -0.1)">
       <use xlink:href="#DejaVuSans-48"/>
      </g>
     </g>
    </g>
    <g id="ytick_2">
     <g id="line2d_17">
      <path clip-path="url(#p4d79a86af3)" d="M 57.6 262.312993 
L 414.72 262.312993 
" style="fill:none;stroke:#b0b0b0;stroke-linecap:square;stroke-width:0.8;"/>
     </g>
     <g id="line2d_18">
      <g>
       <use style="stroke:#000000;stroke-width:0.8;" x="57.6" xlink:href="#m5ffdebe744" y="262.312993"/>
      </g>
     </g>
     <g id="text_10">
      <!-- 500 -->
      <g transform="translate(31.5125 266.112212)scale(0.1 -0.1)">
       <use xlink:href="#DejaVuSans-53"/>
       <use x="63.623047" xlink:href="#DejaVuSans-48"/>
       <use x="127.246094" xlink:href="#DejaVuSans-48"/>
      </g>
     </g>
    </g>
    <g id="ytick_3">
     <g id="line2d_19">
      <path clip-path="url(#p4d79a86af3)" d="M 57.6 229.137986 
L 414.72 229.137986 
" style="fill:none;stroke:#b0b0b0;stroke-linecap:square;stroke-width:0.8;"/>
     </g>
     <g id="line2d_20">
      <g>
       <use style="stroke:#000000;stroke-width:0.8;" x="57.6" xlink:href="#m5ffdebe744" y="229.137986"/>
      </g>
     </g>
     <g id="text_11">
      <!-- 1000 -->
      <g transform="translate(25.15 232.937205)scale(0.1 -0.1)">
       <use xlink:href="#DejaVuSans-49"/>
       <use x="63.623047" xlink:href="#DejaVuSans-48"/>
       <use x="127.246094" xlink:href="#DejaVuSans-48"/>
       <use x="190.869141" xlink:href="#DejaVuSans-48"/>
      </g>
     </g>
    </g>
    <g id="ytick_4">
     <g id="line2d_21">
      <path clip-path="url(#p4d79a86af3)" d="M 57.6 195.962979 
L 414.72 195.962979 
" style="fill:none;stroke:#b0b0b0;stroke-linecap:square;stroke-width:0.8;"/>
     </g>
     <g id="line2d_22">
      <g>
       <use style="stroke:#000000;stroke-width:0.8;" x="57.6" xlink:href="#m5ffdebe744" y="195.962979"/>
      </g>
     </g>
     <g id="text_12">
      <!-- 1500 -->
      <g transform="translate(25.15 199.762198)scale(0.1 -0.1)">
       <use xlink:href="#DejaVuSans-49"/>
       <use x="63.623047" xlink:href="#DejaVuSans-53"/>
       <use x="127.246094" xlink:href="#DejaVuSans-48"/>
       <use x="190.869141" xlink:href="#DejaVuSans-48"/>
      </g>
     </g>
    </g>
    <g id="ytick_5">
     <g id="line2d_23">
      <path clip-path="url(#p4d79a86af3)" d="M 57.6 162.787972 
L 414.72 162.787972 
" style="fill:none;stroke:#b0b0b0;stroke-linecap:square;stroke-width:0.8;"/>
     </g>
     <g id="line2d_24">
      <g>
       <use style="stroke:#000000;stroke-width:0.8;" x="57.6" xlink:href="#m5ffdebe744" y="162.787972"/>
      </g>
     </g>
     <g id="text_13">
      <!-- 2000 -->
      <g transform="translate(25.15 166.587191)scale(0.1 -0.1)">
       <use xlink:href="#DejaVuSans-50"/>
       <use x="63.623047" xlink:href="#DejaVuSans-48"/>
       <use x="127.246094" xlink:href="#DejaVuSans-48"/>
       <use x="190.869141" xlink:href="#DejaVuSans-48"/>
      </g>
     </g>
    </g>
    <g id="ytick_6">
     <g id="line2d_25">
      <path clip-path="url(#p4d79a86af3)" d="M 57.6 129.612965 
L 414.72 129.612965 
" style="fill:none;stroke:#b0b0b0;stroke-linecap:square;stroke-width:0.8;"/>
     </g>
     <g id="line2d_26">
      <g>
       <use style="stroke:#000000;stroke-width:0.8;" x="57.6" xlink:href="#m5ffdebe744" y="129.612965"/>
      </g>
     </g>
     <g id="text_14">
      <!-- 2500 -->
      <g transform="translate(25.15 133.412184)scale(0.1 -0.1)">
       <use xlink:href="#DejaVuSans-50"/>
       <use x="63.623047" xlink:href="#DejaVuSans-53"/>
       <use x="127.246094" xlink:href="#DejaVuSans-48"/>
       <use x="190.869141" xlink:href="#DejaVuSans-48"/>
      </g>
     </g>
    </g>
    <g id="ytick_7">
     <g id="line2d_27">
      <path clip-path="url(#p4d79a86af3)" d="M 57.6 96.437958 
L 414.72 96.437958 
" style="fill:none;stroke:#b0b0b0;stroke-linecap:square;stroke-width:0.8;"/>
     </g>
     <g id="line2d_28">
      <g>
       <use style="stroke:#000000;stroke-width:0.8;" x="57.6" xlink:href="#m5ffdebe744" y="96.437958"/>
      </g>
     </g>
     <g id="text_15">
      <!-- 3000 -->
      <g transform="translate(25.15 100.237177)scale(0.1 -0.1)">
       <use xlink:href="#DejaVuSans-51"/>
       <use x="63.623047" xlink:href="#DejaVuSans-48"/>
       <use x="127.246094" xlink:href="#DejaVuSans-48"/>
       <use x="190.869141" xlink:href="#DejaVuSans-48"/>
      </g>
     </g>
    </g>
    <g id="ytick_8">
     <g id="line2d_29">
      <path clip-path="url(#p4d79a86af3)" d="M 57.6 63.262951 
L 414.72 63.262951 
" style="fill:none;stroke:#b0b0b0;stroke-linecap:square;stroke-width:0.8;"/>
     </g>
     <g id="line2d_30">
      <g>
       <use style="stroke:#000000;stroke-width:0.8;" x="57.6" xlink:href="#m5ffdebe744" y="63.262951"/>
      </g>
     </g>
     <g id="text_16">
      <!-- 3500 -->
      <g transform="translate(25.15 67.06217)scale(0.1 -0.1)">
       <use xlink:href="#DejaVuSans-51"/>
       <use x="63.623047" xlink:href="#DejaVuSans-53"/>
       <use x="127.246094" xlink:href="#DejaVuSans-48"/>
       <use x="190.869141" xlink:href="#DejaVuSans-48"/>
      </g>
     </g>
    </g>
    <g id="text_17">
     <!-- Fitness -->
     <g transform="translate(19.070312 191.845187)rotate(-90)scale(0.1 -0.1)">
      <defs>
       <path d="M 9.8125 72.90625 
L 51.703125 72.90625 
L 51.703125 64.59375 
L 19.671875 64.59375 
L 19.671875 43.109375 
L 48.578125 43.109375 
L 48.578125 34.8125 
L 19.671875 34.8125 
L 19.671875 0 
L 9.8125 0 
z
" id="DejaVuSans-70"/>
      </defs>
      <use xlink:href="#DejaVuSans-70"/>
      <use x="50.269531" xlink:href="#DejaVuSans-105"/>
      <use x="78.052734" xlink:href="#DejaVuSans-116"/>
      <use x="117.261719" xlink:href="#DejaVuSans-110"/>
      <use x="180.640625" xlink:href="#DejaVuSans-101"/>
      <use x="242.164062" xlink:href="#DejaVuSans-115"/>
      <use x="294.263672" xlink:href="#DejaVuSans-115"/>
     </g>
    </g>
   </g>
   <g id="line2d_31">
    <path clip-path="url(#p4d79a86af3)" d="M 73.832727 295.488 
L 80.347534 295.383151 
L 81.433335 295.133212 
L 82.519137 295.288028 
L 83.604938 294.996764 
L 84.690739 295.27001 
L 89.033943 294.640448 
L 90.119745 293.514948 
L 91.205546 292.166285 
L 92.291347 294.470608 
L 93.377148 293.177699 
L 94.462949 292.876331 
L 95.54875 291.180669 
L 96.634552 292.886734 
L 97.720353 292.006508 
L 98.806154 291.592244 
L 99.891955 290.29671 
L 100.977756 287.874563 
L 102.063557 285.768291 
L 103.149358 284.87309 
L 104.23516 280.978655 
L 105.320961 283.291754 
L 106.406762 282.581491 
L 107.492563 282.162302 
L 108.578364 280.511275 
L 109.664165 277.254771 
L 110.749967 278.681787 
L 111.835768 277.904208 
L 112.921569 280.587444 
L 114.00737 276.726416 
L 115.093171 277.810719 
L 116.178972 274.290491 
L 117.264773 276.205024 
L 118.350575 270.985457 
L 119.436376 269.944532 
L 120.522177 270.013139 
L 121.607978 268.492775 
L 122.693779 268.229567 
L 123.77958 267.689965 
L 124.865382 268.479595 
L 125.951183 268.30653 
L 127.036984 264.532944 
L 128.122785 263.156948 
L 129.208586 265.937179 
L 131.380189 263.409706 
L 132.46599 260.241861 
L 133.551791 262.449571 
L 134.637592 259.451629 
L 135.723393 260.747252 
L 136.809194 260.430661 
L 137.894995 260.496164 
L 138.980797 258.675344 
L 140.066598 257.11062 
L 141.152399 259.594311 
L 142.2382 256.337215 
L 143.324001 258.292249 
L 144.409802 258.74049 
L 145.495604 257.587334 
L 146.581405 258.541984 
L 147.667206 256.81669 
L 148.753007 255.887451 
L 149.838808 255.724171 
L 150.924609 254.124717 
L 152.01041 256.229781 
L 153.096212 252.358846 
L 154.182013 254.220881 
L 156.353615 247.116232 
L 157.439416 246.33274 
L 158.525217 248.378856 
L 159.611019 247.608193 
L 160.69682 248.610054 
L 161.782621 238.857442 
L 162.868422 241.306136 
L 163.954223 241.557265 
L 165.040024 242.904251 
L 166.125825 241.359721 
L 167.211627 241.49426 
L 168.297428 243.298632 
L 169.383229 240.50688 
L 170.46903 241.959393 
L 171.554831 236.606182 
L 172.640632 241.439803 
L 173.726434 238.275443 
L 174.812235 237.404662 
L 175.898036 240.783441 
L 176.983837 234.207774 
L 178.069638 238.269343 
L 180.24124 233.319269 
L 181.327042 234.410687 
L 182.412843 233.951038 
L 183.498644 231.180912 
L 184.584445 229.688132 
L 185.670246 223.651891 
L 186.756047 229.158547 
L 187.841849 233.135141 
L 188.92765 230.497569 
L 190.013451 232.066789 
L 191.099252 232.229264 
L 192.185053 231.479554 
L 193.270854 226.384607 
L 194.356656 228.588376 
L 195.442457 225.543677 
L 196.528258 226.336522 
L 197.614059 217.426495 
L 198.69986 222.162515 
L 199.785661 225.606735 
L 200.871462 223.396647 
L 201.957264 220.205312 
L 203.043065 219.084575 
L 204.128866 224.293187 
L 205.214667 223.621763 
L 206.300468 226.548508 
L 207.386269 224.406422 
L 208.472071 217.460395 
L 209.557872 217.272182 
L 210.643673 213.660266 
L 211.729474 218.174841 
L 212.815275 220.341855 
L 213.901076 220.050689 
L 214.986877 217.166407 
L 216.072679 217.730593 
L 217.15848 211.988896 
L 218.244281 213.910194 
L 219.330082 212.478872 
L 220.415883 206.617597 
L 221.501684 211.498653 
L 222.587486 212.79737 
L 223.673287 216.931624 
L 224.759088 212.631322 
L 225.844889 208.93985 
L 226.93069 209.235311 
L 228.016491 216.861556 
L 229.102292 213.717687 
L 230.188094 209.863806 
L 231.273895 209.62888 
L 232.359696 206.436341 
L 233.445497 210.542132 
L 234.531298 213.713125 
L 235.617099 211.636196 
L 236.702901 211.002245 
L 237.788702 209.970893 
L 238.874503 209.787665 
L 239.960304 208.902744 
L 241.046105 210.978544 
L 242.131906 204.070953 
L 243.217708 211.140078 
L 244.303509 210.382824 
L 245.38931 211.098522 
L 246.475111 211.050397 
L 247.560912 206.969915 
L 248.646713 206.147997 
L 249.732514 205.475331 
L 250.818316 205.542045 
L 251.904117 199.853337 
L 252.989918 203.84213 
L 254.075719 199.913147 
L 255.16152 201.030819 
L 256.247321 200.980587 
L 257.333123 200.067136 
L 258.418924 200.129065 
L 260.590526 198.808459 
L 261.676327 191.761582 
L 262.762128 194.811161 
L 263.847929 193.243938 
L 264.933731 193.88397 
L 266.019532 195.093759 
L 267.105333 193.14102 
L 268.191134 193.812171 
L 269.276935 194.074385 
L 270.362736 191.670996 
L 271.448538 192.265212 
L 272.534339 186.879974 
L 273.62014 184.664449 
L 274.705941 190.628814 
L 275.791742 188.823316 
L 276.877543 191.284228 
L 277.963344 187.593459 
L 279.049146 185.521203 
L 280.134947 188.160882 
L 282.306549 188.802081 
L 283.39235 186.247234 
L 284.478151 183.220898 
L 285.563953 184.096493 
L 286.649754 186.423121 
L 287.735555 181.787224 
L 288.821356 181.500779 
L 289.907157 183.007762 
L 290.992958 180.501722 
L 292.07876 181.768393 
L 293.164561 183.860773 
L 295.336163 181.431119 
L 297.507765 186.036603 
L 298.593566 174.867265 
L 299.679368 178.918996 
L 300.765169 182.535544 
L 301.85097 177.945117 
L 302.936771 177.403378 
L 304.022572 181.111296 
L 305.108373 177.737141 
L 306.194175 175.397861 
L 307.279976 176.294735 
L 308.365777 170.026593 
L 309.451578 176.533791 
L 310.537379 173.504972 
L 311.62318 167.437534 
L 312.708981 170.009054 
L 313.794783 167.464977 
L 314.880584 173.729599 
L 315.966385 174.283029 
L 317.052186 173.38323 
L 319.223788 166.735013 
L 320.30959 166.801832 
L 321.395391 169.764527 
L 322.481192 169.014943 
L 323.566993 167.414342 
L 324.652794 162.146587 
L 325.738595 164.6674 
L 326.824396 166.686164 
L 327.910198 160.824601 
L 328.995999 164.666141 
L 330.0818 158.415412 
L 331.167601 164.032531 
L 332.253402 162.182083 
L 333.339203 158.853584 
L 334.425005 160.071285 
L 335.510806 157.844722 
L 336.596607 157.887761 
L 337.682408 154.137143 
L 338.768209 158.156737 
L 339.85401 148.06158 
L 340.939811 158.756118 
L 342.025613 149.412464 
L 343.111414 150.204956 
L 344.197215 148.405062 
L 345.283016 146.921852 
L 346.368817 153.548693 
L 347.454618 149.19171 
L 348.54042 151.604907 
L 349.626221 150.876638 
L 350.712022 147.714566 
L 351.797823 147.276737 
L 352.883624 146.464802 
L 353.969425 144.068547 
L 355.055227 145.850481 
L 356.141028 144.383554 
L 357.226829 136.545664 
L 358.31263 139.999326 
L 359.398431 141.534469 
L 360.484232 138.973732 
L 361.570033 137.800463 
L 362.655835 138.473323 
L 363.741636 142.521528 
L 364.827437 141.731888 
L 365.913238 135.579669 
L 366.999039 136.304157 
L 368.08484 136.388931 
L 369.170642 139.502808 
L 370.256443 138.608572 
L 371.342244 140.508817 
L 372.428045 143.135147 
L 373.513846 136.013111 
L 374.599647 135.150154 
L 375.685448 130.593444 
L 376.77125 133.891049 
L 377.857051 125.487593 
L 378.942852 131.147756 
L 380.028653 133.165041 
L 381.114454 130.257746 
L 382.200255 130.5775 
L 383.286057 129.368358 
L 384.371858 133.70601 
L 385.457659 129.402666 
L 386.54346 129.964658 
L 387.629261 130.301772 
L 388.715062 126.26989 
L 389.800863 127.869765 
L 390.886665 125.886636 
L 391.972466 125.912538 
L 393.058267 121.093671 
L 394.144068 124.257139 
L 395.229869 125.390914 
L 396.31567 125.605204 
L 397.401472 124.33564 
L 398.487273 116.311045 
L 398.487273 116.311045 
" style="fill:none;stroke:#0000ff;stroke-linecap:square;stroke-width:1.5;"/>
   </g>
   <g id="line2d_32">
    <path clip-path="url(#p4d79a86af3)" d="M 73.832727 295.488 
L 76.00433 295.379524 
L 77.090131 295.233089 
L 78.175932 295.477443 
L 80.347534 294.798287 
L 81.433335 293.648873 
L 82.519137 294.195328 
L 83.604938 291.72518 
L 84.690739 294.085796 
L 85.77654 292.425116 
L 86.862341 292.411656 
L 87.948142 292.2839 
L 89.033943 290.644499 
L 90.119745 286.090287 
L 91.205546 278.809542 
L 92.291347 289.689047 
L 93.377148 283.176391 
L 94.462949 282.376221 
L 95.54875 276.243149 
L 96.634552 286.533269 
L 97.720353 281.322089 
L 98.806154 282.357177 
L 99.891955 279.107327 
L 100.977756 272.676817 
L 102.063557 267.994169 
L 103.149358 267.870163 
L 104.23516 261.182315 
L 105.320961 265.498569 
L 106.406762 265.208017 
L 107.492563 264.207866 
L 108.578364 260.720068 
L 109.664165 258.74986 
L 110.749967 261.039174 
L 111.835768 259.047881 
L 112.921569 263.549141 
L 114.00737 255.328408 
L 115.093171 257.760213 
L 116.178972 254.430765 
L 117.264773 257.977333 
L 118.350575 250.840805 
L 119.436376 246.219353 
L 120.522177 249.657607 
L 121.607978 247.166523 
L 122.693779 247.177843 
L 123.77958 246.040679 
L 124.865382 245.727311 
L 125.951183 244.804764 
L 127.036984 239.765401 
L 128.122785 238.379988 
L 129.208586 242.842581 
L 130.294387 240.155554 
L 131.380189 241.461621 
L 132.46599 237.088185 
L 133.551791 237.926136 
L 134.637592 235.456281 
L 135.723393 238.209372 
L 136.809194 238.102324 
L 137.894995 238.318716 
L 140.066598 233.219173 
L 141.152399 235.913691 
L 142.2382 233.854978 
L 143.324001 236.049937 
L 144.409802 233.707503 
L 145.495604 233.336771 
L 146.581405 234.088681 
L 147.667206 233.304303 
L 148.753007 231.441831 
L 149.838808 232.231654 
L 150.924609 231.499326 
L 152.01041 233.172958 
L 153.096212 228.516092 
L 154.182013 230.341027 
L 155.267814 228.044721 
L 156.353615 223.278971 
L 157.439416 222.088476 
L 158.525217 223.857172 
L 159.611019 224.657622 
L 160.69682 224.943175 
L 161.782621 212.580821 
L 162.868422 216.699737 
L 163.954223 215.816895 
L 165.040024 217.583668 
L 166.125825 218.498355 
L 167.211627 217.055584 
L 168.297428 219.527717 
L 169.383229 215.9273 
L 170.46903 217.429572 
L 171.554831 210.278059 
L 172.640632 215.922597 
L 173.726434 213.144297 
L 174.812235 213.573746 
L 175.898036 217.557333 
L 176.983837 209.810329 
L 178.069638 212.932788 
L 179.155439 210.054852 
L 180.24124 209.26782 
L 181.327042 209.06867 
L 182.412843 209.795366 
L 183.498644 207.036741 
L 184.584445 203.412274 
L 185.670246 196.560247 
L 187.841849 206.353266 
L 188.92765 203.658207 
L 191.099252 209.274495 
L 192.185053 208.263987 
L 193.270854 200.764664 
L 194.356656 204.026171 
L 195.442457 198.830121 
L 196.528258 199.711969 
L 197.614059 190.944995 
L 198.69986 196.892901 
L 199.785661 199.675264 
L 200.871462 196.533371 
L 201.957264 192.116313 
L 203.043065 191.531319 
L 204.128866 201.825128 
L 205.214667 198.280521 
L 206.300468 201.324808 
L 207.386269 200.051501 
L 208.472071 190.213846 
L 209.557872 193.152283 
L 210.643673 189.546293 
L 211.729474 195.504317 
L 212.815275 196.41664 
L 213.901076 197.006456 
L 214.986877 191.373077 
L 216.072679 193.891406 
L 217.15848 186.368648 
L 218.244281 188.88681 
L 219.330082 187.056889 
L 220.415883 180.496608 
L 221.501684 186.770301 
L 222.587486 187.982893 
L 223.673287 192.871678 
L 224.759088 188.483708 
L 225.844889 183.124063 
L 226.93069 181.9636 
L 228.016491 194.469611 
L 229.102292 190.192887 
L 230.188094 185.389691 
L 231.273895 184.501578 
L 232.359696 180.598112 
L 234.531298 191.565358 
L 235.617099 187.576499 
L 236.702901 187.994692 
L 237.788702 187.905965 
L 238.874503 186.862721 
L 239.960304 186.918871 
L 241.046105 189.065847 
L 242.131906 177.878557 
L 243.217708 190.009221 
L 244.303509 187.373976 
L 245.38931 188.577316 
L 246.475111 188.975622 
L 247.560912 184.63875 
L 248.646713 183.554416 
L 249.732514 182.640129 
L 250.818316 181.156253 
L 251.904117 176.241577 
L 252.989918 180.404456 
L 254.075719 172.701277 
L 255.16152 178.284384 
L 256.247321 177.969327 
L 257.333123 175.032068 
L 258.418924 175.47392 
L 259.504725 174.005156 
L 260.590526 175.887848 
L 261.676327 163.900921 
L 262.762128 169.912847 
L 263.847929 169.168117 
L 264.933731 168.850509 
L 266.019532 171.495417 
L 267.105333 170.446837 
L 268.191134 170.935488 
L 269.276935 169.123019 
L 270.362736 166.646053 
L 271.448538 168.703667 
L 272.534339 162.430113 
L 273.62014 159.038791 
L 274.705941 166.838921 
L 275.791742 163.265599 
L 276.877543 166.864222 
L 279.049146 160.426174 
L 280.134947 164.084328 
L 281.220748 164.610061 
L 282.306549 164.070251 
L 283.39235 163.403349 
L 284.478151 161.225364 
L 285.563953 160.313889 
L 286.649754 164.034318 
L 287.735555 154.615913 
L 288.821356 155.201777 
L 289.907157 158.456194 
L 290.992958 156.09675 
L 292.07876 157.163555 
L 293.164561 161.16895 
L 294.250362 161.328014 
L 295.336163 158.121714 
L 296.421964 160.089885 
L 297.507765 162.782375 
L 298.593566 149.431475 
L 300.765169 158.972607 
L 301.85097 152.734596 
L 302.936771 153.51552 
L 304.022572 158.115424 
L 305.108373 156.372052 
L 306.194175 150.281729 
L 307.279976 153.451602 
L 308.365777 141.77171 
L 309.451578 152.987443 
L 311.62318 142.401255 
L 312.708981 142.276831 
L 313.794783 140.704615 
L 314.880584 148.466711 
L 315.966385 151.864332 
L 317.052186 148.640772 
L 318.137987 141.648157 
L 319.223788 140.808648 
L 320.30959 138.662066 
L 321.395391 143.487858 
L 322.481192 144.028761 
L 323.566993 142.354199 
L 324.652794 135.304551 
L 325.738595 137.105194 
L 326.824396 140.184376 
L 327.910198 132.813553 
L 328.995999 140.637301 
L 330.0818 131.006231 
L 331.167601 138.613225 
L 333.339203 130.820728 
L 334.425005 133.593923 
L 335.510806 131.796693 
L 336.596607 130.696537 
L 337.682408 124.700152 
L 338.768209 132.728661 
L 339.85401 119.776789 
L 340.939811 133.034593 
L 342.025613 120.52948 
L 343.111414 123.661657 
L 344.197215 124.048261 
L 345.283016 119.363494 
L 346.368817 127.413427 
L 347.454618 123.363009 
L 348.54042 123.952834 
L 349.626221 126.054486 
L 350.712022 120.349863 
L 351.797823 122.447116 
L 353.969425 118.434012 
L 355.055227 119.831092 
L 356.141028 118.798279 
L 357.226829 110.408269 
L 358.31263 114.832651 
L 359.398431 114.041968 
L 360.484232 114.214522 
L 361.570033 112.286477 
L 362.655835 114.102345 
L 363.741636 116.473683 
L 364.827437 116.373652 
L 365.913238 110.72383 
L 366.999039 112.33025 
L 368.08484 110.686754 
L 369.170642 115.865119 
L 370.256443 112.966893 
L 372.428045 117.597688 
L 373.513846 110.931437 
L 374.599647 108.885269 
L 375.685448 102.608662 
L 376.77125 106.4779 
L 377.857051 98.487681 
L 378.942852 106.02887 
L 380.028653 108.913649 
L 381.114454 104.872826 
L 382.200255 105.19528 
L 383.286057 102.864041 
L 384.371858 108.528682 
L 385.457659 103.077572 
L 386.54346 105.857787 
L 387.629261 104.53692 
L 388.715062 99.217339 
L 389.800863 101.941747 
L 390.886665 101.667102 
L 391.972466 101.524972 
L 393.058267 95.720234 
L 394.144068 98.818462 
L 395.229869 101.483359 
L 396.31567 100.994537 
L 397.401472 97.116993 
L 398.487273 88.392255 
L 398.487273 88.392255 
" style="fill:none;stroke:#008000;stroke-dasharray:9.6,2.4,1.5,2.4;stroke-dashoffset:0;stroke-width:1.5;"/>
   </g>
   <g id="line2d_33">
    <path clip-path="url(#p4d79a86af3)" d="M 73.832727 295.488 
L 74.918528 295.488 
L 76.00433 294.497341 
L 77.090131 293.171456 
L 78.175932 295.391587 
L 79.261733 292.715339 
L 80.347534 290.519611 
L 81.433335 286.521758 
L 82.519137 287.312643 
L 83.604938 263.89485 
L 84.690739 286.58763 
L 85.77654 269.38122 
L 86.862341 277.689496 
L 87.948142 273.638211 
L 89.033943 266.026942 
L 90.119745 243.548658 
L 91.205546 193.052244 
L 92.291347 249.769941 
L 93.377148 212.86106 
L 94.462949 214.415542 
L 95.54875 190.4604 
L 96.634552 252.959917 
L 97.720353 209.591517 
L 98.806154 240.708314 
L 99.891955 244.743416 
L 100.977756 229.854533 
L 102.063557 225.201798 
L 103.149358 230.109237 
L 104.23516 222.449188 
L 105.320961 224.157064 
L 106.406762 235.322823 
L 107.492563 221.668647 
L 108.578364 212.068881 
L 109.664165 220.694516 
L 110.749967 231.924547 
L 111.835768 221.391085 
L 112.921569 217.03372 
L 114.00737 210.186763 
L 115.093171 209.983613 
L 116.178972 225.365537 
L 117.264773 217.130724 
L 118.350575 218.010485 
L 119.436376 197.865201 
L 120.522177 212.809068 
L 121.607978 215.377544 
L 122.693779 201.151544 
L 123.77958 213.921473 
L 124.865382 195.761713 
L 125.951183 198.205371 
L 127.036984 186.139183 
L 128.122785 192.839731 
L 129.208586 198.829771 
L 130.294387 186.338857 
L 131.380189 199.969923 
L 132.46599 195.807309 
L 133.551791 192.847819 
L 134.637592 192.549158 
L 135.723393 201.425602 
L 136.809194 202.131666 
L 137.894995 189.844771 
L 138.980797 193.416167 
L 140.066598 186.739531 
L 141.152399 185.970667 
L 142.2382 198.087135 
L 143.324001 191.966207 
L 144.409802 189.907485 
L 145.495604 190.332915 
L 146.581405 184.823528 
L 147.667206 188.294722 
L 148.753007 187.178708 
L 149.838808 186.655804 
L 150.924609 188.401937 
L 152.01041 194.076257 
L 153.096212 192.580522 
L 154.182013 189.366899 
L 155.267814 183.459883 
L 156.353615 186.343766 
L 157.439416 182.8906 
L 158.525217 183.82792 
L 159.611019 186.680353 
L 160.69682 186.756112 
L 161.782621 179.972685 
L 162.868422 183.165189 
L 163.954223 191.641205 
L 165.040024 180.607808 
L 166.125825 183.235952 
L 167.211627 181.002093 
L 168.297428 173.297469 
L 169.383229 178.9093 
L 170.46903 183.49051 
L 171.554831 176.374252 
L 172.640632 176.771417 
L 173.726434 182.609422 
L 174.812235 180.044708 
L 175.898036 188.827805 
L 176.983837 173.304423 
L 178.069638 173.491039 
L 179.155439 176.219889 
L 180.24124 166.996607 
L 181.327042 174.754841 
L 182.412843 176.467613 
L 183.498644 174.433056 
L 184.584445 164.196623 
L 185.670246 166.752439 
L 186.756047 170.431348 
L 187.841849 164.456682 
L 188.92765 156.007193 
L 190.013451 154.894211 
L 191.099252 173.257918 
L 192.185053 172.415213 
L 193.270854 171.836236 
L 194.356656 164.741595 
L 195.442457 164.569769 
L 196.528258 154.085431 
L 197.614059 164.189065 
L 198.69986 159.436978 
L 199.785661 156.196403 
L 200.871462 150.731286 
L 201.957264 163.823769 
L 203.043065 158.875929 
L 204.128866 175.690814 
L 205.214667 153.024919 
L 206.300468 148.76627 
L 207.386269 159.157863 
L 208.472071 152.058803 
L 209.557872 152.57419 
L 211.729474 165.190427 
L 212.815275 156.847821 
L 213.901076 164.423692 
L 214.986877 150.296129 
L 216.072679 153.88796 
L 217.15848 154.352769 
L 218.244281 157.774054 
L 219.330082 156.21392 
L 220.415883 142.073212 
L 221.501684 153.889958 
L 222.587486 152.8669 
L 223.673287 144.756274 
L 224.759088 148.154297 
L 225.844889 150.180302 
L 226.93069 142.951322 
L 228.016491 148.608981 
L 229.102292 135.15558 
L 230.188094 153.519459 
L 231.273895 150.699583 
L 232.359696 146.204085 
L 233.445497 143.896809 
L 234.531298 148.318029 
L 235.617099 148.589175 
L 236.702901 152.533591 
L 237.788702 145.136977 
L 238.874503 140.328333 
L 239.960304 161.447377 
L 241.046105 154.040824 
L 242.131906 128.707175 
L 243.217708 161.491413 
L 244.303509 151.964666 
L 245.38931 153.714415 
L 246.475111 146.14015 
L 247.560912 142.943711 
L 248.646713 151.594612 
L 249.732514 146.213374 
L 250.818316 135.027631 
L 251.904117 140.175748 
L 252.989918 139.223333 
L 254.075719 123.673823 
L 255.16152 133.905924 
L 256.247321 138.078471 
L 257.333123 138.305043 
L 258.418924 140.1103 
L 259.504725 130.780022 
L 260.590526 123.547081 
L 261.676327 125.990361 
L 262.762128 134.140478 
L 263.847929 128.903299 
L 264.933731 131.298601 
L 266.019532 131.910301 
L 267.105333 138.689017 
L 268.191134 123.176755 
L 269.276935 128.175313 
L 270.362736 128.678392 
L 271.448538 142.827506 
L 272.534339 126.050003 
L 273.62014 125.517424 
L 274.705941 129.906989 
L 275.791742 125.778074 
L 276.877543 125.109531 
L 277.963344 132.024224 
L 279.049146 121.556037 
L 280.134947 137.163272 
L 281.220748 124.781417 
L 282.306549 125.056929 
L 284.478151 137.162927 
L 285.563953 122.776173 
L 286.649754 137.945717 
L 287.735555 124.756774 
L 289.907157 105.452722 
L 290.992958 130.448995 
L 292.07876 118.589753 
L 293.164561 129.549375 
L 294.250362 122.951059 
L 295.336163 108.972504 
L 296.421964 102.40313 
L 297.507765 116.528517 
L 298.593566 109.209467 
L 299.679368 125.016289 
L 300.765169 113.24656 
L 301.85097 110.046047 
L 302.936771 127.916276 
L 304.022572 115.528111 
L 305.108373 133.501142 
L 306.194175 115.994645 
L 307.279976 123.76242 
L 308.365777 108.686403 
L 309.451578 115.416285 
L 310.537379 120.309194 
L 311.62318 109.11858 
L 312.708981 94.894604 
L 313.794783 99.329532 
L 314.880584 104.570168 
L 315.966385 106.86333 
L 317.052186 108.110664 
L 318.137987 91.98992 
L 319.223788 103.039499 
L 320.30959 107.41379 
L 321.395391 102.671648 
L 322.481192 101.31278 
L 324.652794 105.707022 
L 325.738595 91.629566 
L 326.824396 98.585157 
L 327.910198 95.447963 
L 328.995999 88.13448 
L 331.167601 98.835496 
L 332.253402 87.705593 
L 333.339203 83.94502 
L 334.425005 94.253265 
L 335.510806 96.848207 
L 336.596607 96.417549 
L 337.682408 83.071224 
L 338.768209 97.36153 
L 339.85401 87.208877 
L 340.939811 90.154055 
L 342.025613 82.81088 
L 343.111414 86.615204 
L 344.197215 86.140609 
L 345.283016 86.859498 
L 346.368817 84.732668 
L 347.454618 100.612409 
L 348.54042 83.447674 
L 349.626221 100.037188 
L 350.712022 84.511119 
L 351.797823 86.06199 
L 352.883624 89.653623 
L 353.969425 85.067988 
L 355.055227 83.872155 
L 356.141028 83.300576 
L 357.226829 77.572115 
L 358.31263 84.158415 
L 360.484232 77.526937 
L 361.570033 80.154046 
L 362.655835 84.501604 
L 363.741636 67.06206 
L 364.827437 82.423707 
L 365.913238 78.959527 
L 366.999039 80.240785 
L 368.08484 82.221181 
L 369.170642 81.710325 
L 370.256443 81.537092 
L 371.342244 74.936407 
L 372.428045 76.64072 
L 373.513846 88.033329 
L 374.599647 71.322507 
L 375.685448 74.626274 
L 376.77125 70.294175 
L 377.857051 62.027083 
L 378.942852 71.85137 
L 380.028653 73.4543 
L 381.114454 60.509472 
L 382.200255 78.488256 
L 383.286057 56.586295 
L 384.371858 79.620698 
L 385.457659 68.809507 
L 386.54346 71.724768 
L 388.715062 64.952707 
L 389.800863 63.671017 
L 390.886665 67.719755 
L 391.972466 79.654012 
L 393.058267 71.093752 
L 394.144068 53.568 
L 395.229869 67.846483 
L 396.31567 61.006301 
L 397.401472 62.809018 
L 398.487273 63.953124 
L 398.487273 63.953124 
" style="fill:none;stroke:#ff0000;stroke-linecap:square;stroke-width:1.5;"/>
   </g>
   <g id="patch_3">
    <path d="M 57.6 307.584 
L 57.6 41.472 
" style="fill:none;stroke:#000000;stroke-linecap:square;stroke-linejoin:miter;stroke-width:0.8;"/>
   </g>
   <g id="patch_4">
    <path d="M 414.72 307.584 
L 414.72 41.472 
" style="fill:none;stroke:#000000;stroke-linecap:square;stroke-linejoin:miter;stroke-width:0.8;"/>
   </g>
   <g id="patch_5">
    <path d="M 57.6 307.584 
L 414.72 307.584 
" style="fill:none;stroke:#000000;stroke-linecap:square;stroke-linejoin:miter;stroke-width:0.8;"/>
   </g>
   <g id="patch_6">
    <path d="M 57.6 41.472 
L 414.72 41.472 
" style="fill:none;stroke:#000000;stroke-linecap:square;stroke-linejoin:miter;stroke-width:0.8;"/>
   </g>
   <g id="text_18">
    <!-- Population's average and best fitness -->
    <g transform="translate(123.529687 35.472)scale(0.12 -0.12)">
     <defs>
      <path d="M 19.671875 64.796875 
L 19.671875 37.40625 
L 32.078125 37.40625 
Q 38.96875 37.40625 42.71875 40.96875 
Q 46.484375 44.53125 46.484375 51.125 
Q 46.484375 57.671875 42.71875 61.234375 
Q 38.96875 64.796875 32.078125 64.796875 
z
M 9.8125 72.90625 
L 32.078125 72.90625 
Q 44.34375 72.90625 50.609375 67.359375 
Q 56.890625 61.8125 56.890625 51.125 
Q 56.890625 40.328125 50.609375 34.8125 
Q 44.34375 29.296875 32.078125 29.296875 
L 19.671875 29.296875 
L 19.671875 0 
L 9.8125 0 
z
" id="DejaVuSans-80"/>
      <path d="M 18.109375 8.203125 
L 18.109375 -20.796875 
L 9.078125 -20.796875 
L 9.078125 54.6875 
L 18.109375 54.6875 
L 18.109375 46.390625 
Q 20.953125 51.265625 25.265625 53.625 
Q 29.59375 56 35.59375 56 
Q 45.5625 56 51.78125 48.09375 
Q 58.015625 40.1875 58.015625 27.296875 
Q 58.015625 14.40625 51.78125 6.484375 
Q 45.5625 -1.421875 35.59375 -1.421875 
Q 29.59375 -1.421875 25.265625 0.953125 
Q 20.953125 3.328125 18.109375 8.203125 
z
M 48.6875 27.296875 
Q 48.6875 37.203125 44.609375 42.84375 
Q 40.53125 48.484375 33.40625 48.484375 
Q 26.265625 48.484375 22.1875 42.84375 
Q 18.109375 37.203125 18.109375 27.296875 
Q 18.109375 17.390625 22.1875 11.75 
Q 26.265625 6.109375 33.40625 6.109375 
Q 40.53125 6.109375 44.609375 11.75 
Q 48.6875 17.390625 48.6875 27.296875 
z
" id="DejaVuSans-112"/>
      <path d="M 8.5 21.578125 
L 8.5 54.6875 
L 17.484375 54.6875 
L 17.484375 21.921875 
Q 17.484375 14.15625 20.5 10.265625 
Q 23.53125 6.390625 29.59375 6.390625 
Q 36.859375 6.390625 41.078125 11.03125 
Q 45.3125 15.671875 45.3125 23.6875 
L 45.3125 54.6875 
L 54.296875 54.6875 
L 54.296875 0 
L 45.3125 0 
L 45.3125 8.40625 
Q 42.046875 3.421875 37.71875 1 
Q 33.40625 -1.421875 27.6875 -1.421875 
Q 18.265625 -1.421875 13.375 4.4375 
Q 8.5 10.296875 8.5 21.578125 
z
M 31.109375 56 
z
" id="DejaVuSans-117"/>
      <path d="M 9.421875 75.984375 
L 18.40625 75.984375 
L 18.40625 0 
L 9.421875 0 
z
" id="DejaVuSans-108"/>
      <path d="M 17.921875 72.90625 
L 17.921875 45.796875 
L 9.625 45.796875 
L 9.625 72.90625 
z
" id="DejaVuSans-39"/>
      <path id="DejaVuSans-32"/>
      <path d="M 2.984375 54.6875 
L 12.5 54.6875 
L 29.59375 8.796875 
L 46.6875 54.6875 
L 56.203125 54.6875 
L 35.6875 0 
L 23.484375 0 
z
" id="DejaVuSans-118"/>
      <path d="M 45.40625 27.984375 
Q 45.40625 37.75 41.375 43.109375 
Q 37.359375 48.484375 30.078125 48.484375 
Q 22.859375 48.484375 18.828125 43.109375 
Q 14.796875 37.75 14.796875 27.984375 
Q 14.796875 18.265625 18.828125 12.890625 
Q 22.859375 7.515625 30.078125 7.515625 
Q 37.359375 7.515625 41.375 12.890625 
Q 45.40625 18.265625 45.40625 27.984375 
z
M 54.390625 6.78125 
Q 54.390625 -7.171875 48.1875 -13.984375 
Q 42 -20.796875 29.203125 -20.796875 
Q 24.46875 -20.796875 20.265625 -20.09375 
Q 16.0625 -19.390625 12.109375 -17.921875 
L 12.109375 -9.1875 
Q 16.0625 -11.328125 19.921875 -12.34375 
Q 23.78125 -13.375 27.78125 -13.375 
Q 36.625 -13.375 41.015625 -8.765625 
Q 45.40625 -4.15625 45.40625 5.171875 
L 45.40625 9.625 
Q 42.625 4.78125 38.28125 2.390625 
Q 33.9375 0 27.875 0 
Q 17.828125 0 11.671875 7.65625 
Q 5.515625 15.328125 5.515625 27.984375 
Q 5.515625 40.671875 11.671875 48.328125 
Q 17.828125 56 27.875 56 
Q 33.9375 56 38.28125 53.609375 
Q 42.625 51.21875 45.40625 46.390625 
L 45.40625 54.6875 
L 54.390625 54.6875 
z
" id="DejaVuSans-103"/>
      <path d="M 45.40625 46.390625 
L 45.40625 75.984375 
L 54.390625 75.984375 
L 54.390625 0 
L 45.40625 0 
L 45.40625 8.203125 
Q 42.578125 3.328125 38.25 0.953125 
Q 33.9375 -1.421875 27.875 -1.421875 
Q 17.96875 -1.421875 11.734375 6.484375 
Q 5.515625 14.40625 5.515625 27.296875 
Q 5.515625 40.1875 11.734375 48.09375 
Q 17.96875 56 27.875 56 
Q 33.9375 56 38.25 53.625 
Q 42.578125 51.265625 45.40625 46.390625 
z
M 14.796875 27.296875 
Q 14.796875 17.390625 18.875 11.75 
Q 22.953125 6.109375 30.078125 6.109375 
Q 37.203125 6.109375 41.296875 11.75 
Q 45.40625 17.390625 45.40625 27.296875 
Q 45.40625 37.203125 41.296875 42.84375 
Q 37.203125 48.484375 30.078125 48.484375 
Q 22.953125 48.484375 18.875 42.84375 
Q 14.796875 37.203125 14.796875 27.296875 
z
" id="DejaVuSans-100"/>
      <path d="M 48.6875 27.296875 
Q 48.6875 37.203125 44.609375 42.84375 
Q 40.53125 48.484375 33.40625 48.484375 
Q 26.265625 48.484375 22.1875 42.84375 
Q 18.109375 37.203125 18.109375 27.296875 
Q 18.109375 17.390625 22.1875 11.75 
Q 26.265625 6.109375 33.40625 6.109375 
Q 40.53125 6.109375 44.609375 11.75 
Q 48.6875 17.390625 48.6875 27.296875 
z
M 18.109375 46.390625 
Q 20.953125 51.265625 25.265625 53.625 
Q 29.59375 56 35.59375 56 
Q 45.5625 56 51.78125 48.09375 
Q 58.015625 40.1875 58.015625 27.296875 
Q 58.015625 14.40625 51.78125 6.484375 
Q 45.5625 -1.421875 35.59375 -1.421875 
Q 29.59375 -1.421875 25.265625 0.953125 
Q 20.953125 3.328125 18.109375 8.203125 
L 18.109375 0 
L 9.078125 0 
L 9.078125 75.984375 
L 18.109375 75.984375 
z
" id="DejaVuSans-98"/>
      <path d="M 37.109375 75.984375 
L 37.109375 68.5 
L 28.515625 68.5 
Q 23.6875 68.5 21.796875 66.546875 
Q 19.921875 64.59375 19.921875 59.515625 
L 19.921875 54.6875 
L 34.71875 54.6875 
L 34.71875 47.703125 
L 19.921875 47.703125 
L 19.921875 0 
L 10.890625 0 
L 10.890625 47.703125 
L 2.296875 47.703125 
L 2.296875 54.6875 
L 10.890625 54.6875 
L 10.890625 58.5 
Q 10.890625 67.625 15.140625 71.796875 
Q 19.390625 75.984375 28.609375 75.984375 
z
" id="DejaVuSans-102"/>
     </defs>
     <use xlink:href="#DejaVuSans-80"/>
     <use x="56.677734" xlink:href="#DejaVuSans-111"/>
     <use x="117.859375" xlink:href="#DejaVuSans-112"/>
     <use x="181.335938" xlink:href="#DejaVuSans-117"/>
     <use x="244.714844" xlink:href="#DejaVuSans-108"/>
     <use x="272.498047" xlink:href="#DejaVuSans-97"/>
     <use x="333.777344" xlink:href="#DejaVuSans-116"/>
     <use x="372.986328" xlink:href="#DejaVuSans-105"/>
     <use x="400.769531" xlink:href="#DejaVuSans-111"/>
     <use x="461.951172" xlink:href="#DejaVuSans-110"/>
     <use x="525.330078" xlink:href="#DejaVuSans-39"/>
     <use x="552.820312" xlink:href="#DejaVuSans-115"/>
     <use x="604.919922" xlink:href="#DejaVuSans-32"/>
     <use x="636.707031" xlink:href="#DejaVuSans-97"/>
     <use x="697.986328" xlink:href="#DejaVuSans-118"/>
     <use x="757.166016" xlink:href="#DejaVuSans-101"/>
     <use x="818.689453" xlink:href="#DejaVuSans-114"/>
     <use x="859.802734" xlink:href="#DejaVuSans-97"/>
     <use x="921.082031" xlink:href="#DejaVuSans-103"/>
     <use x="984.558594" xlink:href="#DejaVuSans-101"/>
     <use x="1046.082031" xlink:href="#DejaVuSans-32"/>
     <use x="1077.869141" xlink:href="#DejaVuSans-97"/>
     <use x="1139.148438" xlink:href="#DejaVuSans-110"/>
     <use x="1202.527344" xlink:href="#DejaVuSans-100"/>
     <use x="1266.003906" xlink:href="#DejaVuSans-32"/>
     <use x="1297.791016" xlink:href="#DejaVuSans-98"/>
     <use x="1361.267578" xlink:href="#DejaVuSans-101"/>
     <use x="1422.791016" xlink:href="#DejaVuSans-115"/>
     <use x="1474.890625" xlink:href="#DejaVuSans-116"/>
     <use x="1514.099609" xlink:href="#DejaVuSans-32"/>
     <use x="1545.886719" xlink:href="#DejaVuSans-102"/>
     <use x="1581.091797" xlink:href="#DejaVuSans-105"/>
     <use x="1608.875" xlink:href="#DejaVuSans-116"/>
     <use x="1648.083984" xlink:href="#DejaVuSans-110"/>
     <use x="1711.462891" xlink:href="#DejaVuSans-101"/>
     <use x="1772.986328" xlink:href="#DejaVuSans-115"/>
     <use x="1825.085938" xlink:href="#DejaVuSans-115"/>
    </g>
   </g>
   <g id="legend_1">
    <g id="patch_7">
     <path d="M 64.6 93.506375 
L 137.540625 93.506375 
Q 139.540625 93.506375 139.540625 91.506375 
L 139.540625 48.472 
Q 139.540625 46.472 137.540625 46.472 
L 64.6 46.472 
Q 62.6 46.472 62.6 48.472 
L 62.6 91.506375 
Q 62.6 93.506375 64.6 93.506375 
z
" style="fill:#ffffff;opacity:0.8;stroke:#cccccc;stroke-linejoin:miter;"/>
    </g>
    <g id="line2d_34">
     <path d="M 66.6 54.570438 
L 86.6 54.570438 
" style="fill:none;stroke:#0000ff;stroke-linecap:square;stroke-width:1.5;"/>
    </g>
    <g id="line2d_35"/>
    <g id="text_19">
     <!-- average -->
     <g transform="translate(94.6 58.070438)scale(0.1 -0.1)">
      <use xlink:href="#DejaVuSans-97"/>
      <use x="61.279297" xlink:href="#DejaVuSans-118"/>
      <use x="120.458984" xlink:href="#DejaVuSans-101"/>
      <use x="181.982422" xlink:href="#DejaVuSans-114"/>
      <use x="223.095703" xlink:href="#DejaVuSans-97"/>
      <use x="284.375" xlink:href="#DejaVuSans-103"/>
      <use x="347.851562" xlink:href="#DejaVuSans-101"/>
     </g>
    </g>
    <g id="line2d_36">
     <path d="M 66.6 69.248563 
L 86.6 69.248563 
" style="fill:none;stroke:#008000;stroke-dasharray:9.6,2.4,1.5,2.4;stroke-dashoffset:0;stroke-width:1.5;"/>
    </g>
    <g id="line2d_37"/>
    <g id="text_20">
     <!-- +1 sd -->
     <g transform="translate(94.6 72.748563)scale(0.1 -0.1)">
      <defs>
       <path d="M 46 62.703125 
L 46 35.5 
L 73.1875 35.5 
L 73.1875 27.203125 
L 46 27.203125 
L 46 0 
L 37.796875 0 
L 37.796875 27.203125 
L 10.59375 27.203125 
L 10.59375 35.5 
L 37.796875 35.5 
L 37.796875 62.703125 
z
" id="DejaVuSans-43"/>
      </defs>
      <use xlink:href="#DejaVuSans-43"/>
      <use x="83.789062" xlink:href="#DejaVuSans-49"/>
      <use x="147.412109" xlink:href="#DejaVuSans-32"/>
      <use x="179.199219" xlink:href="#DejaVuSans-115"/>
      <use x="231.298828" xlink:href="#DejaVuSans-100"/>
     </g>
    </g>
    <g id="line2d_38">
     <path d="M 66.6 83.926688 
L 86.6 83.926688 
" style="fill:none;stroke:#ff0000;stroke-linecap:square;stroke-width:1.5;"/>
    </g>
    <g id="line2d_39"/>
    <g id="text_21">
     <!-- best -->
     <g transform="translate(94.6 87.426688)scale(0.1 -0.1)">
      <use xlink:href="#DejaVuSans-98"/>
      <use x="63.476562" xlink:href="#DejaVuSans-101"/>
      <use x="125" xlink:href="#DejaVuSans-115"/>
      <use x="177.099609" xlink:href="#DejaVuSans-116"/>
     </g>
    </g>
   </g>
  </g>
 </g>
 <defs>
  <clipPath id="p4d79a86af3">
   <rect height="266.112" width="357.12" x="57.6" y="41.472"/>
  </clipPath>
 </defs>
</svg>
