<?xml version="1.0" encoding="UTF-8" standalone="no"?>
<!DOCTYPE svg PUBLIC "-//W3C//DTD SVG 1.1//EN"
 "http://www.w3.org/Graphics/SVG/1.1/DTD/svg11.dtd">
<!-- Generated by graphviz version 2.43.0 (0)
 -->
<!-- Title: %3 Pages: 1 -->
<svg width="1239pt" height="160pt"
 viewBox="0.00 0.00 1239.25 159.97" xmlns="http://www.w3.org/2000/svg" xmlns:xlink="http://www.w3.org/1999/xlink">
<g id="graph0" class="graph" transform="scale(1 1) rotate(0) translate(4 155.97)">
<title>%3</title>
<polygon fill="white" stroke="transparent" points="-4,4 -4,-155.97 1235.25,-155.97 1235.25,4 -4,4"/>
<!-- &#45;1 -->
<g id="node1" class="node">
<title>&#45;1</title>
<polygon fill="lightgray" stroke="black" points="29.26,-131.97 3.26,-131.97 3.26,-113.97 29.26,-113.97 29.26,-131.97"/>
<text text-anchor="middle" x="16.26" y="-120.77" font-family="Times,serif" font-size="9.00">&#45;1</text>
</g>
<!-- 2 -->
<g id="node5" class="node">
<title>2</title>
<ellipse fill="lightblue" stroke="black" cx="16.26" cy="-28.99" rx="16.03" ry="16.03"/>
<text text-anchor="middle" x="16.26" y="-26.79" font-family="Times,serif" font-size="9.00">2</text>
</g>
<!-- &#45;1&#45;&gt;2 -->
<g id="edge4" class="edge">
<title>&#45;1&#45;&gt;2</title>
<path fill="none" stroke="red" stroke-width="0.14" d="M16.26,-113.81C16.26,-100.9 16.26,-75.23 16.26,-55.68"/>
<polygon fill="red" stroke="red" stroke-width="0.14" points="19.76,-55.57 16.26,-45.57 12.76,-55.57 19.76,-55.57"/>
</g>
<!-- &#45;2 -->
<g id="node2" class="node">
<title>&#45;2</title>
<polygon fill="lightgray" stroke="black" points="107.26,-131.97 81.26,-131.97 81.26,-113.97 107.26,-113.97 107.26,-131.97"/>
<text text-anchor="middle" x="94.26" y="-120.77" font-family="Times,serif" font-size="9.00">&#45;2</text>
</g>
<!-- 9 -->
<g id="node12" class="node">
<title>9</title>
<ellipse fill="lightblue" stroke="black" cx="67.26" cy="-28.99" rx="16.03" ry="16.03"/>
<text text-anchor="middle" x="67.26" y="-26.79" font-family="Times,serif" font-size="9.00">9</text>
</g>
<!-- &#45;2&#45;&gt;9 -->
<g id="edge2" class="edge">
<title>&#45;2&#45;&gt;9</title>
<path fill="none" stroke="green" stroke-width="0.72" d="M91.87,-113.81C88.02,-100.69 80.3,-74.4 74.53,-54.74"/>
<polygon fill="green" stroke="green" stroke-width="0.72" points="77.81,-53.51 71.64,-44.9 71.1,-55.48 77.81,-53.51"/>
</g>
<!-- 14 -->
<g id="node17" class="node">
<title>14</title>
<ellipse fill="lightblue" stroke="black" cx="122.26" cy="-28.99" rx="20.51" ry="20.51"/>
<text text-anchor="middle" x="122.26" y="-26.79" font-family="Times,serif" font-size="9.00">14</text>
</g>
<!-- &#45;2&#45;&gt;14 -->
<g id="edge1" class="edge">
<title>&#45;2&#45;&gt;14</title>
<path fill="none" stroke="red" stroke-width="1.12" d="M96.75,-113.81C100.49,-101.51 107.76,-77.63 113.59,-58.5"/>
<polygon fill="red" stroke="red" stroke-width="1.12" points="116.99,-59.32 116.56,-48.74 110.3,-57.28 116.99,-59.32"/>
</g>
<!-- 0 -->
<g id="node3" class="node">
<title>0</title>
<ellipse fill="lightblue" stroke="black" cx="141.26" cy="-122.97" rx="16.03" ry="16.03"/>
<text text-anchor="middle" x="141.26" y="-120.77" font-family="Times,serif" font-size="9.00">0</text>
</g>
<!-- 1 -->
<g id="node4" class="node">
<title>1</title>
<ellipse fill="lightblue" stroke="black" cx="192.26" cy="-122.97" rx="16.03" ry="16.03"/>
<text text-anchor="middle" x="192.26" y="-120.77" font-family="Times,serif" font-size="9.00">1</text>
</g>
<!-- 3 -->
<g id="node6" class="node">
<title>3</title>
<ellipse fill="lightblue" stroke="black" cx="243.26" cy="-122.97" rx="16.03" ry="16.03"/>
<text text-anchor="middle" x="243.26" y="-120.77" font-family="Times,serif" font-size="9.00">3</text>
</g>
<!-- 4 -->
<g id="node7" class="node">
<title>4</title>
<ellipse fill="lightblue" stroke="black" cx="294.26" cy="-122.97" rx="16.03" ry="16.03"/>
<text text-anchor="middle" x="294.26" y="-120.77" font-family="Times,serif" font-size="9.00">4</text>
</g>
<!-- 5 -->
<g id="node8" class="node">
<title>5</title>
<ellipse fill="lightblue" stroke="black" cx="345.26" cy="-122.97" rx="16.03" ry="16.03"/>
<text text-anchor="middle" x="345.26" y="-120.77" font-family="Times,serif" font-size="9.00">5</text>
</g>
<!-- 6 -->
<g id="node9" class="node">
<title>6</title>
<ellipse fill="lightblue" stroke="black" cx="396.26" cy="-122.97" rx="16.03" ry="16.03"/>
<text text-anchor="middle" x="396.26" y="-120.77" font-family="Times,serif" font-size="9.00">6</text>
</g>
<!-- 1853 -->
<g id="node24" class="node">
<title>1853</title>
<ellipse fill="white" stroke="black" cx="423.26" cy="-28.99" rx="28.98" ry="28.98"/>
<text text-anchor="middle" x="423.26" y="-26.79" font-family="Times,serif" font-size="9.00">1853</text>
</g>
<!-- 6&#45;&gt;1853 -->
<g id="edge3" class="edge">
<title>6&#45;&gt;1853</title>
<path fill="none" stroke="red" stroke-width="0.29" d="M400.6,-107.2C403.79,-96.33 408.28,-81.05 412.41,-66.95"/>
<polygon fill="red" stroke="red" stroke-width="0.29" points="415.88,-67.56 415.34,-56.98 409.17,-65.59 415.88,-67.56"/>
</g>
<!-- 7 -->
<g id="node10" class="node">
<title>7</title>
<ellipse fill="lightblue" stroke="black" cx="506.26" cy="-122.97" rx="16.03" ry="16.03"/>
<text text-anchor="middle" x="506.26" y="-120.77" font-family="Times,serif" font-size="9.00">7</text>
</g>
<!-- 8 -->
<g id="node11" class="node">
<title>8</title>
<ellipse fill="lightblue" stroke="black" cx="557.26" cy="-122.97" rx="16.03" ry="16.03"/>
<text text-anchor="middle" x="557.26" y="-120.77" font-family="Times,serif" font-size="9.00">8</text>
</g>
<!-- 10 -->
<g id="node13" class="node">
<title>10</title>
<ellipse fill="lightblue" stroke="black" cx="612.26" cy="-122.97" rx="20.51" ry="20.51"/>
<text text-anchor="middle" x="612.26" y="-120.77" font-family="Times,serif" font-size="9.00">10</text>
</g>
<!-- 11 -->
<g id="node14" class="node">
<title>11</title>
<ellipse fill="lightblue" stroke="black" cx="671.26" cy="-122.97" rx="20.51" ry="20.51"/>
<text text-anchor="middle" x="671.26" y="-120.77" font-family="Times,serif" font-size="9.00">11</text>
</g>
<!-- 12 -->
<g id="node15" class="node">
<title>12</title>
<ellipse fill="lightblue" stroke="black" cx="730.26" cy="-122.97" rx="20.51" ry="20.51"/>
<text text-anchor="middle" x="730.26" y="-120.77" font-family="Times,serif" font-size="9.00">12</text>
</g>
<!-- 13 -->
<g id="node16" class="node">
<title>13</title>
<ellipse fill="lightblue" stroke="black" cx="451.26" cy="-122.97" rx="20.51" ry="20.51"/>
<text text-anchor="middle" x="451.26" y="-120.77" font-family="Times,serif" font-size="9.00">13</text>
</g>
<!-- 13&#45;&gt;1853 -->
<g id="edge5" class="edge">
<title>13&#45;&gt;1853</title>
<path fill="none" stroke="red" stroke-width="0.29" d="M445.46,-102.92C442.28,-92.45 438.22,-79.12 434.44,-66.72"/>
<polygon fill="red" stroke="red" stroke-width="0.29" points="437.76,-65.6 431.5,-57.05 431.06,-67.63 437.76,-65.6"/>
</g>
<!-- 15 -->
<g id="node18" class="node">
<title>15</title>
<ellipse fill="lightblue" stroke="black" cx="789.26" cy="-122.97" rx="20.51" ry="20.51"/>
<text text-anchor="middle" x="789.26" y="-120.77" font-family="Times,serif" font-size="9.00">15</text>
</g>
<!-- 16 -->
<g id="node19" class="node">
<title>16</title>
<ellipse fill="lightblue" stroke="black" cx="848.26" cy="-122.97" rx="20.51" ry="20.51"/>
<text text-anchor="middle" x="848.26" y="-120.77" font-family="Times,serif" font-size="9.00">16</text>
</g>
<!-- 17 -->
<g id="node20" class="node">
<title>17</title>
<ellipse fill="lightblue" stroke="black" cx="907.26" cy="-122.97" rx="20.51" ry="20.51"/>
<text text-anchor="middle" x="907.26" y="-120.77" font-family="Times,serif" font-size="9.00">17</text>
</g>
<!-- 1245 -->
<g id="node21" class="node">
<title>1245</title>
<ellipse fill="white" stroke="black" cx="974.26" cy="-122.97" rx="28.98" ry="28.98"/>
<text text-anchor="middle" x="974.26" y="-120.77" font-family="Times,serif" font-size="9.00">1245</text>
</g>
<!-- 1333 -->
<g id="node22" class="node">
<title>1333</title>
<ellipse fill="white" stroke="black" cx="1050.26" cy="-122.97" rx="28.98" ry="28.98"/>
<text text-anchor="middle" x="1050.26" y="-120.77" font-family="Times,serif" font-size="9.00">1333</text>
</g>
<!-- 1775 -->
<g id="node23" class="node">
<title>1775</title>
<ellipse fill="white" stroke="black" cx="1126.26" cy="-122.97" rx="28.98" ry="28.98"/>
<text text-anchor="middle" x="1126.26" y="-120.77" font-family="Times,serif" font-size="9.00">1775</text>
</g>
<!-- 1914 -->
<g id="node25" class="node">
<title>1914</title>
<ellipse fill="white" stroke="black" cx="1202.26" cy="-122.97" rx="28.98" ry="28.98"/>
<text text-anchor="middle" x="1202.26" y="-120.77" font-family="Times,serif" font-size="9.00">1914</text>
</g>
</g>
</svg>
