<?xml version="1.0" encoding="UTF-8" standalone="no"?>
<!DOCTYPE svg PUBLIC "-//W3C//DTD SVG 1.1//EN"
 "http://www.w3.org/Graphics/SVG/1.1/DTD/svg11.dtd">
<!-- Generated by graphviz version 2.43.0 (0)
 -->
<!-- Title: %3 Pages: 1 -->
<svg width="1278pt" height="254pt"
 viewBox="0.00 0.00 1278.25 253.95" xmlns="http://www.w3.org/2000/svg" xmlns:xlink="http://www.w3.org/1999/xlink">
<g id="graph0" class="graph" transform="scale(1 1) rotate(0) translate(4 249.95)">
<title>%3</title>
<polygon fill="white" stroke="transparent" points="-4,4 -4,-249.95 1274.25,-249.95 1274.25,4 -4,4"/>
<!-- &#45;1 -->
<g id="node1" class="node">
<title>&#45;1</title>
<polygon fill="lightgray" stroke="black" points="88.26,-225.96 62.26,-225.96 62.26,-207.96 88.26,-207.96 88.26,-225.96"/>
<text text-anchor="middle" x="75.26" y="-214.76" font-family="Times,serif" font-size="9.00">&#45;1</text>
</g>
<!-- &#45;2 -->
<g id="node2" class="node">
<title>&#45;2</title>
<polygon fill="lightgray" stroke="black" points="71.26,-131.97 45.26,-131.97 45.26,-113.97 71.26,-113.97 71.26,-131.97"/>
<text text-anchor="middle" x="58.26" y="-120.77" font-family="Times,serif" font-size="9.00">&#45;2</text>
</g>
<!-- 3 -->
<g id="node6" class="node">
<title>3</title>
<ellipse fill="lightblue" stroke="black" cx="16.26" cy="-28.99" rx="16.03" ry="16.03"/>
<text text-anchor="middle" x="16.26" y="-26.79" font-family="Times,serif" font-size="9.00">3</text>
</g>
<!-- &#45;2&#45;&gt;3 -->
<g id="edge6" class="edge">
<title>&#45;2&#45;&gt;3</title>
<path fill="none" stroke="red" stroke-width="0.28" d="M54.54,-113.81C48.42,-100.42 36.04,-73.3 27.01,-53.53"/>
<polygon fill="red" stroke="red" stroke-width="0.28" points="30.1,-51.88 22.77,-44.23 23.74,-54.78 30.1,-51.88"/>
</g>
<!-- 4 -->
<g id="node7" class="node">
<title>4</title>
<ellipse fill="lightblue" stroke="black" cx="67.26" cy="-28.99" rx="16.03" ry="16.03"/>
<text text-anchor="middle" x="67.26" y="-26.79" font-family="Times,serif" font-size="9.00">4</text>
</g>
<!-- &#45;2&#45;&gt;4 -->
<g id="edge1" class="edge">
<title>&#45;2&#45;&gt;4</title>
<path fill="none" stroke="green" stroke-width="2.55" d="M59.06,-113.81C60.33,-100.83 62.87,-74.94 64.78,-55.35"/>
<polygon fill="green" stroke="green" stroke-width="2.55" points="68.28,-55.53 65.77,-45.23 61.31,-54.85 68.28,-55.53"/>
</g>
<!-- 7599 -->
<g id="node22" class="node">
<title>7599</title>
<ellipse fill="white" stroke="black" cx="147.26" cy="-28.99" rx="28.98" ry="28.98"/>
<text text-anchor="middle" x="147.26" y="-26.79" font-family="Times,serif" font-size="9.00">7599</text>
</g>
<!-- &#45;2&#45;&gt;7599 -->
<g id="edge2" class="edge">
<title>&#45;2&#45;&gt;7599</title>
<path fill="none" stroke="green" stroke-width="0.41" d="M66.29,-113.64C71.66,-108.07 78.88,-100.58 85.26,-93.98 96.71,-82.15 109.35,-69.09 120.22,-57.87"/>
<polygon fill="green" stroke="green" stroke-width="0.41" points="122.98,-60.06 127.43,-50.44 117.95,-55.19 122.98,-60.06"/>
</g>
<!-- 0 -->
<g id="node3" class="node">
<title>0</title>
<ellipse fill="lightblue" stroke="black" cx="308.26" cy="-216.96" rx="16.03" ry="16.03"/>
<text text-anchor="middle" x="308.26" y="-214.76" font-family="Times,serif" font-size="9.00">0</text>
</g>
<!-- 8815 -->
<g id="node27" class="node">
<title>8815</title>
<ellipse fill="white" stroke="black" cx="308.26" cy="-122.97" rx="28.98" ry="28.98"/>
<text text-anchor="middle" x="308.26" y="-120.77" font-family="Times,serif" font-size="9.00">8815</text>
</g>
<!-- 0&#45;&gt;8815 -->
<g id="edge12" class="edge">
<title>0&#45;&gt;8815</title>
<path fill="none" stroke="green" stroke-width="0.15" d="M308.26,-200.35C308.26,-190 308.26,-175.93 308.26,-162.68"/>
<polygon fill="green" stroke="green" stroke-width="0.15" points="311.76,-162.32 308.26,-152.32 304.76,-162.32 311.76,-162.32"/>
</g>
<!-- 1 -->
<g id="node4" class="node">
<title>1</title>
<ellipse fill="lightblue" stroke="black" cx="359.26" cy="-216.96" rx="16.03" ry="16.03"/>
<text text-anchor="middle" x="359.26" y="-214.76" font-family="Times,serif" font-size="9.00">1</text>
</g>
<!-- 2 -->
<g id="node5" class="node">
<title>2</title>
<ellipse fill="lightblue" stroke="black" cx="410.26" cy="-216.96" rx="16.03" ry="16.03"/>
<text text-anchor="middle" x="410.26" y="-214.76" font-family="Times,serif" font-size="9.00">2</text>
</g>
<!-- 5 -->
<g id="node8" class="node">
<title>5</title>
<ellipse fill="lightblue" stroke="black" cx="461.26" cy="-216.96" rx="16.03" ry="16.03"/>
<text text-anchor="middle" x="461.26" y="-214.76" font-family="Times,serif" font-size="9.00">5</text>
</g>
<!-- 6 -->
<g id="node9" class="node">
<title>6</title>
<ellipse fill="lightblue" stroke="black" cx="492.26" cy="-28.99" rx="16.03" ry="16.03"/>
<text text-anchor="middle" x="492.26" y="-26.79" font-family="Times,serif" font-size="9.00">6</text>
</g>
<!-- 7 -->
<g id="node10" class="node">
<title>7</title>
<ellipse fill="lightblue" stroke="black" cx="587.26" cy="-216.96" rx="16.03" ry="16.03"/>
<text text-anchor="middle" x="587.26" y="-214.76" font-family="Times,serif" font-size="9.00">7</text>
</g>
<!-- 8 -->
<g id="node11" class="node">
<title>8</title>
<ellipse fill="lightblue" stroke="black" cx="638.26" cy="-216.96" rx="16.03" ry="16.03"/>
<text text-anchor="middle" x="638.26" y="-214.76" font-family="Times,serif" font-size="9.00">8</text>
</g>
<!-- 9 -->
<g id="node12" class="node">
<title>9</title>
<ellipse fill="lightblue" stroke="black" cx="689.26" cy="-216.96" rx="16.03" ry="16.03"/>
<text text-anchor="middle" x="689.26" y="-214.76" font-family="Times,serif" font-size="9.00">9</text>
</g>
<!-- 10 -->
<g id="node13" class="node">
<title>10</title>
<ellipse fill="lightblue" stroke="black" cx="127.26" cy="-216.96" rx="20.51" ry="20.51"/>
<text text-anchor="middle" x="127.26" y="-214.76" font-family="Times,serif" font-size="9.00">10</text>
</g>
<!-- 10&#45;&gt;7599 -->
<g id="edge7" class="edge">
<title>10&#45;&gt;7599</title>
<path fill="none" stroke="red" stroke-width="0.44" stroke-dasharray="1,5" d="M122.5,-196.71C117.27,-172.47 110.55,-129.68 118.26,-93.98 120.47,-83.79 124.43,-73.27 128.74,-63.77"/>
<polygon fill="red" stroke="red" stroke-width="0.44" points="131.93,-65.2 133.1,-54.67 125.62,-62.17 131.93,-65.2"/>
</g>
<!-- 9333 -->
<g id="node30" class="node">
<title>9333</title>
<ellipse fill="white" stroke="black" cx="156.26" cy="-122.97" rx="28.98" ry="28.98"/>
<text text-anchor="middle" x="156.26" y="-120.77" font-family="Times,serif" font-size="9.00">9333</text>
</g>
<!-- 10&#45;&gt;9333 -->
<g id="edge10" class="edge">
<title>10&#45;&gt;9333</title>
<path fill="none" stroke="red" stroke-width="0.12" d="M133.27,-196.9C136.57,-186.43 140.78,-173.1 144.68,-160.7"/>
<polygon fill="red" stroke="red" stroke-width="0.12" points="148.06,-161.62 147.73,-151.03 141.39,-159.52 148.06,-161.62"/>
</g>
<!-- 11 -->
<g id="node14" class="node">
<title>11</title>
<ellipse fill="lightblue" stroke="black" cx="744.26" cy="-216.96" rx="20.51" ry="20.51"/>
<text text-anchor="middle" x="744.26" y="-214.76" font-family="Times,serif" font-size="9.00">11</text>
</g>
<!-- 12 -->
<g id="node15" class="node">
<title>12</title>
<ellipse fill="lightblue" stroke="black" cx="803.26" cy="-216.96" rx="20.51" ry="20.51"/>
<text text-anchor="middle" x="803.26" y="-214.76" font-family="Times,serif" font-size="9.00">12</text>
</g>
<!-- 13 -->
<g id="node16" class="node">
<title>13</title>
<ellipse fill="lightblue" stroke="black" cx="862.26" cy="-216.96" rx="20.51" ry="20.51"/>
<text text-anchor="middle" x="862.26" y="-214.76" font-family="Times,serif" font-size="9.00">13</text>
</g>
<!-- 14 -->
<g id="node17" class="node">
<title>14</title>
<ellipse fill="lightblue" stroke="black" cx="921.26" cy="-216.96" rx="20.51" ry="20.51"/>
<text text-anchor="middle" x="921.26" y="-214.76" font-family="Times,serif" font-size="9.00">14</text>
</g>
<!-- 15 -->
<g id="node18" class="node">
<title>15</title>
<ellipse fill="lightblue" stroke="black" cx="980.26" cy="-216.96" rx="20.51" ry="20.51"/>
<text text-anchor="middle" x="980.26" y="-214.76" font-family="Times,serif" font-size="9.00">15</text>
</g>
<!-- 16 -->
<g id="node19" class="node">
<title>16</title>
<ellipse fill="lightblue" stroke="black" cx="1039.26" cy="-216.96" rx="20.51" ry="20.51"/>
<text text-anchor="middle" x="1039.26" y="-214.76" font-family="Times,serif" font-size="9.00">16</text>
</g>
<!-- 17 -->
<g id="node20" class="node">
<title>17</title>
<ellipse fill="lightblue" stroke="black" cx="1098.26" cy="-216.96" rx="20.51" ry="20.51"/>
<text text-anchor="middle" x="1098.26" y="-214.76" font-family="Times,serif" font-size="9.00">17</text>
</g>
<!-- 6616 -->
<g id="node21" class="node">
<title>6616</title>
<ellipse fill="white" stroke="black" cx="524.26" cy="-216.96" rx="28.98" ry="28.98"/>
<text text-anchor="middle" x="524.26" y="-214.76" font-family="Times,serif" font-size="9.00">6616</text>
</g>
<!-- 7705 -->
<g id="node23" class="node">
<title>7705</title>
<ellipse fill="white" stroke="black" cx="524.26" cy="-122.97" rx="28.98" ry="28.98"/>
<text text-anchor="middle" x="524.26" y="-120.77" font-family="Times,serif" font-size="9.00">7705</text>
</g>
<!-- 6616&#45;&gt;7705 -->
<g id="edge3" class="edge">
<title>6616&#45;&gt;7705</title>
<path fill="none" stroke="green" stroke-width="0.71" stroke-dasharray="1,5" d="M524.26,-187.86C524.26,-179.82 524.26,-170.92 524.26,-162.38"/>
<polygon fill="green" stroke="green" stroke-width="0.71" points="527.76,-162.22 524.26,-152.22 520.76,-162.22 527.76,-162.22"/>
</g>
<!-- 7705&#45;&gt;6 -->
<g id="edge5" class="edge">
<title>7705&#45;&gt;6</title>
<path fill="none" stroke="green" stroke-width="0.39" stroke-dasharray="1,5" d="M515.01,-95.37C510.46,-82.31 505.03,-66.69 500.61,-54"/>
<polygon fill="green" stroke="green" stroke-width="0.39" points="503.92,-52.84 497.33,-44.55 497.31,-55.14 503.92,-52.84"/>
</g>
<!-- 9198 -->
<g id="node28" class="node">
<title>9198</title>
<ellipse fill="white" stroke="black" cx="555.26" cy="-28.99" rx="28.98" ry="28.98"/>
<text text-anchor="middle" x="555.26" y="-26.79" font-family="Times,serif" font-size="9.00">9198</text>
</g>
<!-- 7705&#45;&gt;9198 -->
<g id="edge8" class="edge">
<title>7705&#45;&gt;9198</title>
<path fill="none" stroke="green" stroke-width="0.19" d="M533.23,-95.37C536.26,-86.39 539.69,-76.21 542.93,-66.59"/>
<polygon fill="green" stroke="green" stroke-width="0.19" points="546.33,-67.45 546.21,-56.86 539.7,-65.21 546.33,-67.45"/>
</g>
<!-- 8014 -->
<g id="node24" class="node">
<title>8014</title>
<ellipse fill="white" stroke="black" cx="1165.26" cy="-216.96" rx="28.98" ry="28.98"/>
<text text-anchor="middle" x="1165.26" y="-214.76" font-family="Times,serif" font-size="9.00">8014</text>
</g>
<!-- 8483 -->
<g id="node26" class="node">
<title>8483</title>
<ellipse fill="white" stroke="black" cx="1165.26" cy="-122.97" rx="28.98" ry="28.98"/>
<text text-anchor="middle" x="1165.26" y="-120.77" font-family="Times,serif" font-size="9.00">8483</text>
</g>
<!-- 8014&#45;&gt;8483 -->
<g id="edge4" class="edge">
<title>8014&#45;&gt;8483</title>
<path fill="none" stroke="green" stroke-width="0.48" d="M1165.26,-187.86C1165.26,-179.82 1165.26,-170.92 1165.26,-162.38"/>
<polygon fill="green" stroke="green" stroke-width="0.48" points="1168.76,-162.22 1165.26,-152.22 1161.76,-162.22 1168.76,-162.22"/>
</g>
<!-- 8302 -->
<g id="node25" class="node">
<title>8302</title>
<ellipse fill="white" stroke="black" cx="1241.26" cy="-216.96" rx="28.98" ry="28.98"/>
<text text-anchor="middle" x="1241.26" y="-214.76" font-family="Times,serif" font-size="9.00">8302</text>
</g>
<!-- 9298 -->
<g id="node29" class="node">
<title>9298</title>
<ellipse fill="white" stroke="black" cx="232.26" cy="-122.97" rx="28.98" ry="28.98"/>
<text text-anchor="middle" x="232.26" y="-120.77" font-family="Times,serif" font-size="9.00">9298</text>
</g>
<!-- 9298&#45;&gt;7599 -->
<g id="edge9" class="edge">
<title>9298&#45;&gt;7599</title>
<path fill="none" stroke="red" stroke-width="0.17" d="M212.98,-101.1C201.24,-88.4 186.09,-72.01 173.3,-58.17"/>
<polygon fill="red" stroke="red" stroke-width="0.17" points="175.83,-55.75 166.47,-50.78 170.69,-60.5 175.83,-55.75"/>
</g>
<!-- 9333&#45;&gt;7599 -->
<g id="edge11" class="edge">
<title>9333&#45;&gt;7599</title>
<path fill="none" stroke="red" stroke-width="0.41" d="M153.51,-93.88C152.71,-85.67 151.82,-76.57 150.97,-67.87"/>
<polygon fill="red" stroke="red" stroke-width="0.41" points="154.45,-67.53 150,-57.92 147.49,-68.21 154.45,-67.53"/>
</g>
</g>
</svg>
