<?xml version="1.0" encoding="UTF-8" standalone="no"?>
<!DOCTYPE svg PUBLIC "-//W3C//DTD SVG 1.1//EN"
 "http://www.w3.org/Graphics/SVG/1.1/DTD/svg11.dtd">
<!-- Generated by graphviz version 2.43.0 (0)
 -->
<!-- Title: %3 Pages: 1 -->
<svg width="1388pt" height="442pt"
 viewBox="0.00 0.00 1388.18 441.91" xmlns="http://www.w3.org/2000/svg" xmlns:xlink="http://www.w3.org/1999/xlink">
<g id="graph0" class="graph" transform="scale(1 1) rotate(0) translate(4 437.91)">
<title>%3</title>
<polygon fill="white" stroke="transparent" points="-4,4 -4,-437.91 1384.18,-437.91 1384.18,4 -4,4"/>
<!-- &#45;1 -->
<g id="node1" class="node">
<title>&#45;1</title>
<polygon fill="lightgray" stroke="black" points="41.19,-413.92 15.19,-413.92 15.19,-395.92 41.19,-395.92 41.19,-413.92"/>
<text text-anchor="middle" x="28.19" y="-402.72" font-family="Times,serif" font-size="9.00">&#45;1</text>
</g>
<!-- 1 -->
<g id="node6" class="node">
<title>1</title>
<ellipse fill="lightblue" stroke="black" cx="56.19" cy="-122.97" rx="16.03" ry="16.03"/>
<text text-anchor="middle" x="56.19" y="-120.77" font-family="Times,serif" font-size="9.00">1</text>
</g>
<!-- &#45;1&#45;&gt;1 -->
<g id="edge7" class="edge">
<title>&#45;1&#45;&gt;1</title>
<path fill="none" stroke="green" stroke-width="0.1" stroke-dasharray="1,5" d="M23.74,-395.53C17.67,-383.58 7.12,-360.79 3.19,-339.93 -10.25,-268.58 24.66,-185.52 44.14,-146.46"/>
<polygon fill="green" stroke="green" stroke-width="0.1" points="47.28,-148 48.72,-137.51 41.04,-144.81 47.28,-148"/>
</g>
<!-- 4 -->
<g id="node9" class="node">
<title>4</title>
<ellipse fill="lightblue" stroke="black" cx="28.19" cy="-310.94" rx="16.03" ry="16.03"/>
<text text-anchor="middle" x="28.19" y="-308.74" font-family="Times,serif" font-size="9.00">4</text>
</g>
<!-- &#45;1&#45;&gt;4 -->
<g id="edge2" class="edge">
<title>&#45;1&#45;&gt;4</title>
<path fill="none" stroke="green" stroke-width="2.49" d="M28.19,-395.76C28.19,-382.85 28.19,-357.18 28.19,-337.63"/>
<polygon fill="green" stroke="green" stroke-width="2.49" points="31.69,-337.52 28.19,-327.52 24.69,-337.52 31.69,-337.52"/>
</g>
<!-- 5361 -->
<g id="node42" class="node">
<title>5361</title>
<ellipse fill="white" stroke="black" cx="91.19" cy="-310.94" rx="28.98" ry="28.98"/>
<text text-anchor="middle" x="91.19" y="-308.74" font-family="Times,serif" font-size="9.00">5361</text>
</g>
<!-- &#45;1&#45;&gt;5361 -->
<g id="edge25" class="edge">
<title>&#45;1&#45;&gt;5361</title>
<path fill="none" stroke="red" stroke-width="0.32" d="M33.78,-395.76C41.74,-384.14 56.77,-362.2 69.45,-343.68"/>
<polygon fill="red" stroke="red" stroke-width="0.32" points="72.5,-345.42 75.27,-335.19 66.73,-341.47 72.5,-345.42"/>
</g>
<!-- &#45;2 -->
<g id="node2" class="node">
<title>&#45;2</title>
<polygon fill="lightgray" stroke="black" points="204.19,-413.92 178.19,-413.92 178.19,-395.92 204.19,-395.92 204.19,-413.92"/>
<text text-anchor="middle" x="191.19" y="-402.72" font-family="Times,serif" font-size="9.00">&#45;2</text>
</g>
<!-- &#45;3 -->
<g id="node3" class="node">
<title>&#45;3</title>
<polygon fill="lightgray" stroke="black" points="355.19,-413.92 329.19,-413.92 329.19,-395.92 355.19,-395.92 355.19,-413.92"/>
<text text-anchor="middle" x="342.19" y="-402.72" font-family="Times,serif" font-size="9.00">&#45;3</text>
</g>
<!-- 3 -->
<g id="node8" class="node">
<title>3</title>
<ellipse fill="lightblue" stroke="black" cx="335.19" cy="-310.94" rx="16.03" ry="16.03"/>
<text text-anchor="middle" x="335.19" y="-308.74" font-family="Times,serif" font-size="9.00">3</text>
</g>
<!-- &#45;3&#45;&gt;3 -->
<g id="edge1" class="edge">
<title>&#45;3&#45;&gt;3</title>
<path fill="none" stroke="green" stroke-width="2.29" d="M341.57,-395.76C340.58,-382.78 338.61,-356.88 337.12,-337.29"/>
<polygon fill="green" stroke="green" stroke-width="2.29" points="340.6,-336.89 336.35,-327.18 333.62,-337.42 340.6,-336.89"/>
</g>
<!-- 13 -->
<g id="node18" class="node">
<title>13</title>
<ellipse fill="lightblue" stroke="black" cx="478.19" cy="-310.94" rx="20.51" ry="20.51"/>
<text text-anchor="middle" x="478.19" y="-308.74" font-family="Times,serif" font-size="9.00">13</text>
</g>
<!-- &#45;3&#45;&gt;13 -->
<g id="edge13" class="edge">
<title>&#45;3&#45;&gt;13</title>
<path fill="none" stroke="red" stroke-width="0.14" d="M348.34,-395.77C353.21,-389.71 360.47,-381.56 368.19,-375.93 398.72,-353.68 413.4,-360.33 445.19,-339.93 448.82,-337.6 452.48,-334.91 455.97,-332.14"/>
<polygon fill="red" stroke="red" stroke-width="0.14" points="458.31,-334.75 463.74,-325.65 453.82,-329.38 458.31,-334.75"/>
</g>
<!-- &#45;4 -->
<g id="node4" class="node">
<title>&#45;4</title>
<polygon fill="lightgray" stroke="black" points="403.19,-413.92 377.19,-413.92 377.19,-395.92 403.19,-395.92 403.19,-413.92"/>
<text text-anchor="middle" x="390.19" y="-402.72" font-family="Times,serif" font-size="9.00">&#45;4</text>
</g>
<!-- 0 -->
<g id="node5" class="node">
<title>0</title>
<ellipse fill="lightblue" stroke="black" cx="459.19" cy="-404.92" rx="16.03" ry="16.03"/>
<text text-anchor="middle" x="459.19" y="-402.72" font-family="Times,serif" font-size="9.00">0</text>
</g>
<!-- 4083 -->
<g id="node32" class="node">
<title>4083</title>
<ellipse fill="white" stroke="black" cx="103.19" cy="-28.99" rx="28.98" ry="28.98"/>
<text text-anchor="middle" x="103.19" y="-26.79" font-family="Times,serif" font-size="9.00">4083</text>
</g>
<!-- 1&#45;&gt;4083 -->
<g id="edge8" class="edge">
<title>1&#45;&gt;4083</title>
<path fill="none" stroke="green" stroke-width="0.3" d="M63.33,-108C69.24,-96.43 77.9,-79.5 85.63,-64.36"/>
<polygon fill="green" stroke="green" stroke-width="0.3" points="88.86,-65.72 90.3,-55.23 82.63,-62.54 88.86,-65.72"/>
</g>
<!-- 2 -->
<g id="node7" class="node">
<title>2</title>
<ellipse fill="lightblue" stroke="black" cx="533.19" cy="-310.94" rx="16.03" ry="16.03"/>
<text text-anchor="middle" x="533.19" y="-308.74" font-family="Times,serif" font-size="9.00">2</text>
</g>
<!-- 4157 -->
<g id="node33" class="node">
<title>4157</title>
<ellipse fill="white" stroke="black" cx="407.19" cy="-216.96" rx="28.98" ry="28.98"/>
<text text-anchor="middle" x="407.19" y="-214.76" font-family="Times,serif" font-size="9.00">4157</text>
</g>
<!-- 3&#45;&gt;4157 -->
<g id="edge3" class="edge">
<title>3&#45;&gt;4157</title>
<path fill="none" stroke="green" stroke-width="0.26" stroke-dasharray="1,5" d="M344.9,-297.53C354.73,-284.98 370.31,-265.07 383.43,-248.31"/>
<polygon fill="green" stroke="green" stroke-width="0.26" points="386.23,-250.41 389.64,-240.38 380.72,-246.1 386.23,-250.41"/>
</g>
<!-- 4934 -->
<g id="node37" class="node">
<title>4934</title>
<ellipse fill="white" stroke="black" cx="331.19" cy="-122.97" rx="28.98" ry="28.98"/>
<text text-anchor="middle" x="331.19" y="-120.77" font-family="Times,serif" font-size="9.00">4934</text>
</g>
<!-- 3&#45;&gt;4934 -->
<g id="edge12" class="edge">
<title>3&#45;&gt;4934</title>
<path fill="none" stroke="red" stroke-width="0.61" stroke-dasharray="1,5" d="M324.47,-298.29C314.17,-286.22 299.28,-266.32 293.19,-245.95 285.81,-221.26 286.37,-212.82 293.19,-187.97 296.37,-176.4 302.24,-164.81 308.43,-154.73"/>
<polygon fill="red" stroke="red" stroke-width="0.61" points="311.39,-156.6 313.89,-146.31 305.51,-152.79 311.39,-156.6"/>
</g>
<!-- 5197 -->
<g id="node39" class="node">
<title>5197</title>
<ellipse fill="white" stroke="black" cx="331.19" cy="-216.96" rx="28.98" ry="28.98"/>
<text text-anchor="middle" x="331.19" y="-214.76" font-family="Times,serif" font-size="9.00">5197</text>
</g>
<!-- 3&#45;&gt;5197 -->
<g id="edge16" class="edge">
<title>3&#45;&gt;5197</title>
<path fill="none" stroke="green" stroke-width="0.51" d="M334.51,-294.34C334.06,-283.8 333.43,-269.41 332.85,-255.96"/>
<polygon fill="green" stroke="green" stroke-width="0.51" points="336.34,-255.77 332.41,-245.94 329.35,-256.08 336.34,-255.77"/>
</g>
<!-- 5 -->
<g id="node10" class="node">
<title>5</title>
<ellipse fill="lightblue" stroke="black" cx="596.19" cy="-404.92" rx="16.03" ry="16.03"/>
<text text-anchor="middle" x="596.19" y="-402.72" font-family="Times,serif" font-size="9.00">5</text>
</g>
<!-- 6 -->
<g id="node11" class="node">
<title>6</title>
<ellipse fill="lightblue" stroke="black" cx="647.19" cy="-404.92" rx="16.03" ry="16.03"/>
<text text-anchor="middle" x="647.19" y="-402.72" font-family="Times,serif" font-size="9.00">6</text>
</g>
<!-- 7 -->
<g id="node12" class="node">
<title>7</title>
<ellipse fill="lightblue" stroke="black" cx="698.19" cy="-404.92" rx="16.03" ry="16.03"/>
<text text-anchor="middle" x="698.19" y="-402.72" font-family="Times,serif" font-size="9.00">7</text>
</g>
<!-- 8 -->
<g id="node13" class="node">
<title>8</title>
<ellipse fill="lightblue" stroke="black" cx="154.19" cy="-216.96" rx="16.03" ry="16.03"/>
<text text-anchor="middle" x="154.19" y="-214.76" font-family="Times,serif" font-size="9.00">8</text>
</g>
<!-- 9 -->
<g id="node14" class="node">
<title>9</title>
<ellipse fill="lightblue" stroke="black" cx="749.19" cy="-404.92" rx="16.03" ry="16.03"/>
<text text-anchor="middle" x="749.19" y="-402.72" font-family="Times,serif" font-size="9.00">9</text>
</g>
<!-- 10 -->
<g id="node15" class="node">
<title>10</title>
<ellipse fill="lightblue" stroke="black" cx="812.19" cy="-310.94" rx="20.51" ry="20.51"/>
<text text-anchor="middle" x="812.19" y="-308.74" font-family="Times,serif" font-size="9.00">10</text>
</g>
<!-- 11 -->
<g id="node16" class="node">
<title>11</title>
<ellipse fill="lightblue" stroke="black" cx="879.19" cy="-404.92" rx="20.51" ry="20.51"/>
<text text-anchor="middle" x="879.19" y="-402.72" font-family="Times,serif" font-size="9.00">11</text>
</g>
<!-- 12 -->
<g id="node17" class="node">
<title>12</title>
<ellipse fill="lightblue" stroke="black" cx="236.19" cy="-28.99" rx="20.51" ry="20.51"/>
<text text-anchor="middle" x="236.19" y="-26.79" font-family="Times,serif" font-size="9.00">12</text>
</g>
<!-- 4897 -->
<g id="node36" class="node">
<title>4897</title>
<ellipse fill="white" stroke="black" cx="483.19" cy="-216.96" rx="28.98" ry="28.98"/>
<text text-anchor="middle" x="483.19" y="-214.76" font-family="Times,serif" font-size="9.00">4897</text>
</g>
<!-- 13&#45;&gt;4897 -->
<g id="edge9" class="edge">
<title>13&#45;&gt;4897</title>
<path fill="none" stroke="green" stroke-width="0.15" d="M479.25,-290.43C479.79,-280.48 480.47,-268.02 481.11,-256.25"/>
<polygon fill="green" stroke="green" stroke-width="0.15" points="484.61,-256.34 481.66,-246.16 477.62,-255.96 484.61,-256.34"/>
</g>
<!-- 14 -->
<g id="node19" class="node">
<title>14</title>
<ellipse fill="lightblue" stroke="black" cx="530.19" cy="-28.99" rx="20.51" ry="20.51"/>
<text text-anchor="middle" x="530.19" y="-26.79" font-family="Times,serif" font-size="9.00">14</text>
</g>
<!-- 15 -->
<g id="node20" class="node">
<title>15</title>
<ellipse fill="lightblue" stroke="black" cx="938.19" cy="-404.92" rx="20.51" ry="20.51"/>
<text text-anchor="middle" x="938.19" y="-402.72" font-family="Times,serif" font-size="9.00">15</text>
</g>
<!-- 16 -->
<g id="node21" class="node">
<title>16</title>
<ellipse fill="lightblue" stroke="black" cx="997.19" cy="-404.92" rx="20.51" ry="20.51"/>
<text text-anchor="middle" x="997.19" y="-402.72" font-family="Times,serif" font-size="9.00">16</text>
</g>
<!-- 17 -->
<g id="node22" class="node">
<title>17</title>
<ellipse fill="lightblue" stroke="black" cx="1056.19" cy="-404.92" rx="20.51" ry="20.51"/>
<text text-anchor="middle" x="1056.19" y="-402.72" font-family="Times,serif" font-size="9.00">17</text>
</g>
<!-- 1597 -->
<g id="node23" class="node">
<title>1597</title>
<ellipse fill="white" stroke="black" cx="1123.19" cy="-404.92" rx="28.98" ry="28.98"/>
<text text-anchor="middle" x="1123.19" y="-402.72" font-family="Times,serif" font-size="9.00">1597</text>
</g>
<!-- 1621 -->
<g id="node24" class="node">
<title>1621</title>
<ellipse fill="white" stroke="black" cx="473.19" cy="-122.97" rx="28.98" ry="28.98"/>
<text text-anchor="middle" x="473.19" y="-120.77" font-family="Times,serif" font-size="9.00">1621</text>
</g>
<!-- 2132 -->
<g id="node25" class="node">
<title>2132</title>
<ellipse fill="white" stroke="black" cx="1199.19" cy="-404.92" rx="28.98" ry="28.98"/>
<text text-anchor="middle" x="1199.19" y="-402.72" font-family="Times,serif" font-size="9.00">2132</text>
</g>
<!-- 2545 -->
<g id="node26" class="node">
<title>2545</title>
<ellipse fill="white" stroke="black" cx="1275.19" cy="-404.92" rx="28.98" ry="28.98"/>
<text text-anchor="middle" x="1275.19" y="-402.72" font-family="Times,serif" font-size="9.00">2545</text>
</g>
<!-- 2801 -->
<g id="node27" class="node">
<title>2801</title>
<ellipse fill="white" stroke="black" cx="407.19" cy="-310.94" rx="28.98" ry="28.98"/>
<text text-anchor="middle" x="407.19" y="-308.74" font-family="Times,serif" font-size="9.00">2801</text>
</g>
<!-- 2801&#45;&gt;4157 -->
<g id="edge23" class="edge">
<title>2801&#45;&gt;4157</title>
<path fill="none" stroke="red" stroke-width="0.19" d="M407.19,-281.84C407.19,-273.8 407.19,-264.9 407.19,-256.36"/>
<polygon fill="red" stroke="red" stroke-width="0.19" points="410.69,-256.2 407.19,-246.2 403.69,-256.2 410.69,-256.2"/>
</g>
<!-- 3298 -->
<g id="node28" class="node">
<title>3298</title>
<ellipse fill="white" stroke="black" cx="533.19" cy="-404.92" rx="28.98" ry="28.98"/>
<text text-anchor="middle" x="533.19" y="-402.72" font-family="Times,serif" font-size="9.00">3298</text>
</g>
<!-- 3298&#45;&gt;2 -->
<g id="edge6" class="edge">
<title>3298&#45;&gt;2</title>
<path fill="none" stroke="red" stroke-width="0.34" d="M533.19,-375.82C533.19,-363.61 533.19,-349.4 533.19,-337.48"/>
<polygon fill="red" stroke="red" stroke-width="0.34" points="536.69,-337.31 533.19,-327.31 529.69,-337.31 536.69,-337.31"/>
</g>
<!-- 3720 -->
<g id="node29" class="node">
<title>3720</title>
<ellipse fill="white" stroke="black" cx="812.19" cy="-404.92" rx="28.98" ry="28.98"/>
<text text-anchor="middle" x="812.19" y="-402.72" font-family="Times,serif" font-size="9.00">3720</text>
</g>
<!-- 3720&#45;&gt;10 -->
<g id="edge4" class="edge">
<title>3720&#45;&gt;10</title>
<path fill="none" stroke="green" stroke-width="0.45" stroke-dasharray="1,5" d="M812.19,-375.82C812.19,-365.13 812.19,-352.9 812.19,-342.02"/>
<polygon fill="green" stroke="green" stroke-width="0.45" points="815.69,-341.7 812.19,-331.7 808.69,-341.7 815.69,-341.7"/>
</g>
<!-- 3895 -->
<g id="node30" class="node">
<title>3895</title>
<ellipse fill="white" stroke="black" cx="192.19" cy="-310.94" rx="28.98" ry="28.98"/>
<text text-anchor="middle" x="192.19" y="-308.74" font-family="Times,serif" font-size="9.00">3895</text>
</g>
<!-- 3895&#45;&gt;8 -->
<g id="edge14" class="edge">
<title>3895&#45;&gt;8</title>
<path fill="none" stroke="red" stroke-width="0.85" d="M181.41,-283.83C175.93,-270.58 169.34,-254.62 164.01,-241.72"/>
<polygon fill="red" stroke="red" stroke-width="0.85" points="167.11,-240.05 160.05,-232.15 160.64,-242.73 167.11,-240.05"/>
</g>
<!-- 4251 -->
<g id="node35" class="node">
<title>4251</title>
<ellipse fill="white" stroke="black" cx="217.19" cy="-216.96" rx="28.98" ry="28.98"/>
<text text-anchor="middle" x="217.19" y="-214.76" font-family="Times,serif" font-size="9.00">4251</text>
</g>
<!-- 3895&#45;&gt;4251 -->
<g id="edge15" class="edge">
<title>3895&#45;&gt;4251</title>
<path fill="none" stroke="green" stroke-width="0.18" d="M199.56,-282.84C201.93,-274.12 204.59,-264.31 207.12,-255"/>
<polygon fill="green" stroke="green" stroke-width="0.18" points="210.55,-255.75 209.79,-245.18 203.79,-253.91 210.55,-255.75"/>
</g>
<!-- 3990 -->
<g id="node31" class="node">
<title>3990</title>
<ellipse fill="white" stroke="black" cx="1351.19" cy="-404.92" rx="28.98" ry="28.98"/>
<text text-anchor="middle" x="1351.19" y="-402.72" font-family="Times,serif" font-size="9.00">3990</text>
</g>
<!-- 4241 -->
<g id="node34" class="node">
<title>4241</title>
<ellipse fill="white" stroke="black" cx="236.19" cy="-122.97" rx="28.98" ry="28.98"/>
<text text-anchor="middle" x="236.19" y="-120.77" font-family="Times,serif" font-size="9.00">4241</text>
</g>
<!-- 4241&#45;&gt;12 -->
<g id="edge11" class="edge">
<title>4241&#45;&gt;12</title>
<path fill="none" stroke="green" stroke-width="0.3" d="M236.19,-93.88C236.19,-83.18 236.19,-70.95 236.19,-60.07"/>
<polygon fill="green" stroke="green" stroke-width="0.3" points="239.69,-59.76 236.19,-49.76 232.69,-59.76 239.69,-59.76"/>
</g>
<!-- 4251&#45;&gt;4083 -->
<g id="edge5" class="edge">
<title>4251&#45;&gt;4083</title>
<path fill="none" stroke="red" stroke-width="0.13" stroke-dasharray="1,5" d="M194.48,-198.81C189.49,-195.17 184.2,-191.38 179.19,-187.97 154.45,-171.07 138.64,-177.01 122.19,-151.97 105.96,-127.25 101.71,-93.74 101.24,-68.09"/>
<polygon fill="red" stroke="red" stroke-width="0.13" points="104.74,-67.99 101.23,-57.99 97.74,-67.99 104.74,-67.99"/>
</g>
<!-- 4251&#45;&gt;4241 -->
<g id="edge21" class="edge">
<title>4251&#45;&gt;4241</title>
<path fill="none" stroke="green" stroke-width="0.37" d="M222.89,-188.36C224.64,-179.9 226.59,-170.45 228.45,-161.45"/>
<polygon fill="green" stroke="green" stroke-width="0.37" points="231.9,-162.05 230.5,-151.55 225.05,-160.64 231.9,-162.05"/>
</g>
<!-- 5241 -->
<g id="node40" class="node">
<title>5241</title>
<ellipse fill="white" stroke="black" cx="160.19" cy="-122.97" rx="28.98" ry="28.98"/>
<text text-anchor="middle" x="160.19" y="-120.77" font-family="Times,serif" font-size="9.00">5241</text>
</g>
<!-- 4251&#45;&gt;5241 -->
<g id="edge19" class="edge">
<title>4251&#45;&gt;5241</title>
<path fill="none" stroke="red" stroke-width="0.26" d="M202.22,-191.79C195.54,-181.02 187.58,-168.16 180.38,-156.56"/>
<polygon fill="red" stroke="red" stroke-width="0.26" points="183.31,-154.64 175.07,-147.98 177.36,-158.32 183.31,-154.64"/>
</g>
<!-- 4897&#45;&gt;1621 -->
<g id="edge10" class="edge">
<title>4897&#45;&gt;1621</title>
<path fill="none" stroke="green" stroke-width="0.11" d="M480.14,-187.86C479.25,-179.66 478.26,-170.56 477.31,-161.85"/>
<polygon fill="green" stroke="green" stroke-width="0.11" points="480.79,-161.46 476.23,-151.9 473.83,-162.22 480.79,-161.46"/>
</g>
<!-- 4934&#45;&gt;14 -->
<g id="edge24" class="edge">
<title>4934&#45;&gt;14</title>
<path fill="none" stroke="red" stroke-width="0.54" d="M357.21,-109.95C394.73,-92.6 463.76,-60.7 502.3,-42.88"/>
<polygon fill="red" stroke="red" stroke-width="0.54" points="504.25,-45.84 511.86,-38.46 501.32,-39.48 504.25,-45.84"/>
</g>
<!-- 5287 -->
<g id="node41" class="node">
<title>5287</title>
<ellipse fill="white" stroke="black" cx="331.19" cy="-28.99" rx="28.98" ry="28.98"/>
<text text-anchor="middle" x="331.19" y="-26.79" font-family="Times,serif" font-size="9.00">5287</text>
</g>
<!-- 4934&#45;&gt;5287 -->
<g id="edge22" class="edge">
<title>4934&#45;&gt;5287</title>
<path fill="none" stroke="green" stroke-width="0.18" d="M331.19,-93.88C331.19,-85.84 331.19,-76.94 331.19,-68.39"/>
<polygon fill="green" stroke="green" stroke-width="0.18" points="334.69,-68.23 331.19,-58.23 327.69,-68.23 334.69,-68.23"/>
</g>
<!-- 5160 -->
<g id="node38" class="node">
<title>5160</title>
<ellipse fill="white" stroke="black" cx="578.19" cy="-216.96" rx="28.98" ry="28.98"/>
<text text-anchor="middle" x="578.19" y="-214.76" font-family="Times,serif" font-size="9.00">5160</text>
</g>
<!-- 5160&#45;&gt;14 -->
<g id="edge18" class="edge">
<title>5160&#45;&gt;14</title>
<path fill="none" stroke="red" stroke-width="0.15" stroke-dasharray="1,5" d="M564.99,-191.03C559.35,-179.44 553.17,-165.29 549.19,-151.97 540.02,-121.24 535.08,-84.76 532.56,-59.75"/>
<polygon fill="red" stroke="red" stroke-width="0.15" points="536.04,-59.42 531.62,-49.79 529.07,-60.07 536.04,-59.42"/>
</g>
<!-- 5488 -->
<g id="node44" class="node">
<title>5488</title>
<ellipse fill="white" stroke="black" cx="587.19" cy="-122.97" rx="28.98" ry="28.98"/>
<text text-anchor="middle" x="587.19" y="-120.77" font-family="Times,serif" font-size="9.00">5488</text>
</g>
<!-- 5160&#45;&gt;5488 -->
<g id="edge29" class="edge">
<title>5160&#45;&gt;5488</title>
<path fill="none" stroke="green" stroke-width="0.34" d="M580.94,-187.86C581.74,-179.66 582.64,-170.56 583.49,-161.85"/>
<polygon fill="green" stroke="green" stroke-width="0.34" points="586.97,-162.19 584.46,-151.9 580,-161.51 586.97,-162.19"/>
</g>
<!-- 5197&#45;&gt;4934 -->
<g id="edge17" class="edge">
<title>5197&#45;&gt;4934</title>
<path fill="none" stroke="green" stroke-width="0.51" d="M331.19,-187.86C331.19,-179.82 331.19,-170.92 331.19,-162.38"/>
<polygon fill="green" stroke="green" stroke-width="0.51" points="334.69,-162.22 331.19,-152.22 327.69,-162.22 334.69,-162.22"/>
</g>
<!-- 5241&#45;&gt;4083 -->
<g id="edge20" class="edge">
<title>5241&#45;&gt;4083</title>
<path fill="none" stroke="green" stroke-width="0.25" d="M145.22,-97.81C138.54,-87.03 130.58,-74.18 123.38,-62.57"/>
<polygon fill="green" stroke="green" stroke-width="0.25" points="126.31,-60.65 118.07,-54 120.36,-64.34 126.31,-60.65"/>
</g>
<!-- 5361&#45;&gt;1 -->
<g id="edge26" class="edge">
<title>5361&#45;&gt;1</title>
<path fill="none" stroke="green" stroke-width="0.41" d="M73.89,-287.61C65.9,-275.9 57.3,-260.9 53.19,-245.95 44.25,-213.39 47.61,-174.08 51.42,-149.06"/>
<polygon fill="green" stroke="green" stroke-width="0.41" points="54.91,-149.39 53.1,-138.95 48,-148.24 54.91,-149.39"/>
</g>
<!-- 5394 -->
<g id="node43" class="node">
<title>5394</title>
<ellipse fill="white" stroke="black" cx="91.19" cy="-216.96" rx="28.98" ry="28.98"/>
<text text-anchor="middle" x="91.19" y="-214.76" font-family="Times,serif" font-size="9.00">5394</text>
</g>
<!-- 5361&#45;&gt;5394 -->
<g id="edge27" class="edge">
<title>5361&#45;&gt;5394</title>
<path fill="none" stroke="red" stroke-width="0.16" d="M91.19,-281.84C91.19,-273.8 91.19,-264.9 91.19,-256.36"/>
<polygon fill="red" stroke="red" stroke-width="0.16" points="94.69,-256.2 91.19,-246.2 87.69,-256.2 94.69,-256.2"/>
</g>
<!-- 5394&#45;&gt;1 -->
<g id="edge28" class="edge">
<title>5394&#45;&gt;1</title>
<path fill="none" stroke="red" stroke-width="0.52" d="M81.07,-189.35C76.1,-176.29 70.16,-160.67 65.33,-147.98"/>
<polygon fill="red" stroke="red" stroke-width="0.52" points="68.56,-146.63 61.73,-138.53 62.02,-149.12 68.56,-146.63"/>
</g>
<!-- 5488&#45;&gt;14 -->
<g id="edge30" class="edge">
<title>5488&#45;&gt;14</title>
<path fill="none" stroke="green" stroke-width="0.27" d="M572.22,-97.81C564.12,-84.75 554.14,-68.63 545.93,-55.38"/>
<polygon fill="green" stroke="green" stroke-width="0.27" points="548.82,-53.4 540.57,-46.75 542.87,-57.09 548.82,-53.4"/>
</g>
</g>
</svg>
