<?xml version="1.0" encoding="utf-8" standalone="no"?>
<!DOCTYPE svg PUBLIC "-//W3C//DTD SVG 1.1//EN"
  "http://www.w3.org/Graphics/SVG/1.1/DTD/svg11.dtd">
<svg xmlns:xlink="http://www.w3.org/1999/xlink" width="460.8pt" height="345.6pt" viewBox="0 0 460.8 345.6" xmlns="http://www.w3.org/2000/svg" version="1.1">
 <metadata>
  <rdf:RDF xmlns:dc="http://purl.org/dc/elements/1.1/" xmlns:cc="http://creativecommons.org/ns#" xmlns:rdf="http://www.w3.org/1999/02/22-rdf-syntax-ns#">
   <cc:Work>
    <dc:type rdf:resource="http://purl.org/dc/dcmitype/StillImage"/>
    <dc:date>2023-02-04T00:19:17.047276</dc:date>
    <dc:format>image/svg+xml</dc:format>
    <dc:creator>
     <cc:Agent>
      <dc:title>Matplotlib v3.6.2, https://matplotlib.org/</dc:title>
     </cc:Agent>
    </dc:creator>
   </cc:Work>
  </rdf:RDF>
 </metadata>
 <defs>
  <style type="text/css">*{stroke-linejoin: round; stroke-linecap: butt}</style>
 </defs>
 <g id="figure_1">
  <g id="patch_1">
   <path d="M 0 345.6 
L 460.8 345.6 
L 460.8 0 
L 0 0 
z
" style="fill: #ffffff"/>
  </g>
  <g id="axes_1">
   <g id="patch_2">
    <path d="M 57.6 307.584 
L 414.72 307.584 
L 414.72 41.472 
L 57.6 41.472 
z
" style="fill: #ffffff"/>
   </g>
   <g id="matplotlib.axis_1">
    <g id="xtick_1">
     <g id="line2d_1">
      <path d="M 73.832727 307.584 
L 73.832727 41.472 
" clip-path="url(#p4476984a30)" style="fill: none; stroke: #b0b0b0; stroke-width: 0.8; stroke-linecap: square"/>
     </g>
     <g id="line2d_2">
      <defs>
       <path id="m9c83905a3e" d="M 0 0 
L 0 3.5 
" style="stroke: #000000; stroke-width: 0.8"/>
      </defs>
      <g>
       <use xlink:href="#m9c83905a3e" x="73.832727" y="307.584" style="stroke: #000000; stroke-width: 0.8"/>
      </g>
     </g>
     <g id="text_1">
      <!-- 0 -->
      <g transform="translate(70.651477 322.182437) scale(0.1 -0.1)">
       <defs>
        <path id="DejaVuSans-30" d="M 2034 4250 
Q 1547 4250 1301 3770 
Q 1056 3291 1056 2328 
Q 1056 1369 1301 889 
Q 1547 409 2034 409 
Q 2525 409 2770 889 
Q 3016 1369 3016 2328 
Q 3016 3291 2770 3770 
Q 2525 4250 2034 4250 
z
M 2034 4750 
Q 2819 4750 3233 4129 
Q 3647 3509 3647 2328 
Q 3647 1150 3233 529 
Q 2819 -91 2034 -91 
Q 1250 -91 836 529 
Q 422 1150 422 2328 
Q 422 3509 836 4129 
Q 1250 4750 2034 4750 
z
" transform="scale(0.015625)"/>
       </defs>
       <use xlink:href="#DejaVuSans-30"/>
      </g>
     </g>
    </g>
    <g id="xtick_2">
     <g id="line2d_3">
      <path d="M 128.122785 307.584 
L 128.122785 41.472 
" clip-path="url(#p4476984a30)" style="fill: none; stroke: #b0b0b0; stroke-width: 0.8; stroke-linecap: square"/>
     </g>
     <g id="line2d_4">
      <g>
       <use xlink:href="#m9c83905a3e" x="128.122785" y="307.584" style="stroke: #000000; stroke-width: 0.8"/>
      </g>
     </g>
     <g id="text_2">
      <!-- 50 -->
      <g transform="translate(121.760285 322.182437) scale(0.1 -0.1)">
       <defs>
        <path id="DejaVuSans-35" d="M 691 4666 
L 3169 4666 
L 3169 4134 
L 1269 4134 
L 1269 2991 
Q 1406 3038 1543 3061 
Q 1681 3084 1819 3084 
Q 2600 3084 3056 2656 
Q 3513 2228 3513 1497 
Q 3513 744 3044 326 
Q 2575 -91 1722 -91 
Q 1428 -91 1123 -41 
Q 819 9 494 109 
L 494 744 
Q 775 591 1075 516 
Q 1375 441 1709 441 
Q 2250 441 2565 725 
Q 2881 1009 2881 1497 
Q 2881 1984 2565 2268 
Q 2250 2553 1709 2553 
Q 1456 2553 1204 2497 
Q 953 2441 691 2322 
L 691 4666 
z
" transform="scale(0.015625)"/>
       </defs>
       <use xlink:href="#DejaVuSans-35"/>
       <use xlink:href="#DejaVuSans-30" x="63.623047"/>
      </g>
     </g>
    </g>
    <g id="xtick_3">
     <g id="line2d_5">
      <path d="M 182.412843 307.584 
L 182.412843 41.472 
" clip-path="url(#p4476984a30)" style="fill: none; stroke: #b0b0b0; stroke-width: 0.8; stroke-linecap: square"/>
     </g>
     <g id="line2d_6">
      <g>
       <use xlink:href="#m9c83905a3e" x="182.412843" y="307.584" style="stroke: #000000; stroke-width: 0.8"/>
      </g>
     </g>
     <g id="text_3">
      <!-- 100 -->
      <g transform="translate(172.869093 322.182437) scale(0.1 -0.1)">
       <defs>
        <path id="DejaVuSans-31" d="M 794 531 
L 1825 531 
L 1825 4091 
L 703 3866 
L 703 4441 
L 1819 4666 
L 2450 4666 
L 2450 531 
L 3481 531 
L 3481 0 
L 794 0 
L 794 531 
z
" transform="scale(0.015625)"/>
       </defs>
       <use xlink:href="#DejaVuSans-31"/>
       <use xlink:href="#DejaVuSans-30" x="63.623047"/>
       <use xlink:href="#DejaVuSans-30" x="127.246094"/>
      </g>
     </g>
    </g>
    <g id="xtick_4">
     <g id="line2d_7">
      <path d="M 236.702901 307.584 
L 236.702901 41.472 
" clip-path="url(#p4476984a30)" style="fill: none; stroke: #b0b0b0; stroke-width: 0.8; stroke-linecap: square"/>
     </g>
     <g id="line2d_8">
      <g>
       <use xlink:href="#m9c83905a3e" x="236.702901" y="307.584" style="stroke: #000000; stroke-width: 0.8"/>
      </g>
     </g>
     <g id="text_4">
      <!-- 150 -->
      <g transform="translate(227.159151 322.182437) scale(0.1 -0.1)">
       <use xlink:href="#DejaVuSans-31"/>
       <use xlink:href="#DejaVuSans-35" x="63.623047"/>
       <use xlink:href="#DejaVuSans-30" x="127.246094"/>
      </g>
     </g>
    </g>
    <g id="xtick_5">
     <g id="line2d_9">
      <path d="M 290.992958 307.584 
L 290.992958 41.472 
" clip-path="url(#p4476984a30)" style="fill: none; stroke: #b0b0b0; stroke-width: 0.8; stroke-linecap: square"/>
     </g>
     <g id="line2d_10">
      <g>
       <use xlink:href="#m9c83905a3e" x="290.992958" y="307.584" style="stroke: #000000; stroke-width: 0.8"/>
      </g>
     </g>
     <g id="text_5">
      <!-- 200 -->
      <g transform="translate(281.449208 322.182437) scale(0.1 -0.1)">
       <defs>
        <path id="DejaVuSans-32" d="M 1228 531 
L 3431 531 
L 3431 0 
L 469 0 
L 469 531 
Q 828 903 1448 1529 
Q 2069 2156 2228 2338 
Q 2531 2678 2651 2914 
Q 2772 3150 2772 3378 
Q 2772 3750 2511 3984 
Q 2250 4219 1831 4219 
Q 1534 4219 1204 4116 
Q 875 4013 500 3803 
L 500 4441 
Q 881 4594 1212 4672 
Q 1544 4750 1819 4750 
Q 2544 4750 2975 4387 
Q 3406 4025 3406 3419 
Q 3406 3131 3298 2873 
Q 3191 2616 2906 2266 
Q 2828 2175 2409 1742 
Q 1991 1309 1228 531 
z
" transform="scale(0.015625)"/>
       </defs>
       <use xlink:href="#DejaVuSans-32"/>
       <use xlink:href="#DejaVuSans-30" x="63.623047"/>
       <use xlink:href="#DejaVuSans-30" x="127.246094"/>
      </g>
     </g>
    </g>
    <g id="xtick_6">
     <g id="line2d_11">
      <path d="M 345.283016 307.584 
L 345.283016 41.472 
" clip-path="url(#p4476984a30)" style="fill: none; stroke: #b0b0b0; stroke-width: 0.8; stroke-linecap: square"/>
     </g>
     <g id="line2d_12">
      <g>
       <use xlink:href="#m9c83905a3e" x="345.283016" y="307.584" style="stroke: #000000; stroke-width: 0.8"/>
      </g>
     </g>
     <g id="text_6">
      <!-- 250 -->
      <g transform="translate(335.739266 322.182437) scale(0.1 -0.1)">
       <use xlink:href="#DejaVuSans-32"/>
       <use xlink:href="#DejaVuSans-35" x="63.623047"/>
       <use xlink:href="#DejaVuSans-30" x="127.246094"/>
      </g>
     </g>
    </g>
    <g id="xtick_7">
     <g id="line2d_13">
      <path d="M 399.573074 307.584 
L 399.573074 41.472 
" clip-path="url(#p4476984a30)" style="fill: none; stroke: #b0b0b0; stroke-width: 0.8; stroke-linecap: square"/>
     </g>
     <g id="line2d_14">
      <g>
       <use xlink:href="#m9c83905a3e" x="399.573074" y="307.584" style="stroke: #000000; stroke-width: 0.8"/>
      </g>
     </g>
     <g id="text_7">
      <!-- 300 -->
      <g transform="translate(390.029324 322.182437) scale(0.1 -0.1)">
       <defs>
        <path id="DejaVuSans-33" d="M 2597 2516 
Q 3050 2419 3304 2112 
Q 3559 1806 3559 1356 
Q 3559 666 3084 287 
Q 2609 -91 1734 -91 
Q 1441 -91 1130 -33 
Q 819 25 488 141 
L 488 750 
Q 750 597 1062 519 
Q 1375 441 1716 441 
Q 2309 441 2620 675 
Q 2931 909 2931 1356 
Q 2931 1769 2642 2001 
Q 2353 2234 1838 2234 
L 1294 2234 
L 1294 2753 
L 1863 2753 
Q 2328 2753 2575 2939 
Q 2822 3125 2822 3475 
Q 2822 3834 2567 4026 
Q 2313 4219 1838 4219 
Q 1578 4219 1281 4162 
Q 984 4106 628 3988 
L 628 4550 
Q 988 4650 1302 4700 
Q 1616 4750 1894 4750 
Q 2613 4750 3031 4423 
Q 3450 4097 3450 3541 
Q 3450 3153 3228 2886 
Q 3006 2619 2597 2516 
z
" transform="scale(0.015625)"/>
       </defs>
       <use xlink:href="#DejaVuSans-33"/>
       <use xlink:href="#DejaVuSans-30" x="63.623047"/>
       <use xlink:href="#DejaVuSans-30" x="127.246094"/>
      </g>
     </g>
    </g>
    <g id="text_8">
     <!-- Generations -->
     <g transform="translate(205.662344 335.860562) scale(0.1 -0.1)">
      <defs>
       <path id="DejaVuSans-47" d="M 3809 666 
L 3809 1919 
L 2778 1919 
L 2778 2438 
L 4434 2438 
L 4434 434 
Q 4069 175 3628 42 
Q 3188 -91 2688 -91 
Q 1594 -91 976 548 
Q 359 1188 359 2328 
Q 359 3472 976 4111 
Q 1594 4750 2688 4750 
Q 3144 4750 3555 4637 
Q 3966 4525 4313 4306 
L 4313 3634 
Q 3963 3931 3569 4081 
Q 3175 4231 2741 4231 
Q 1884 4231 1454 3753 
Q 1025 3275 1025 2328 
Q 1025 1384 1454 906 
Q 1884 428 2741 428 
Q 3075 428 3337 486 
Q 3600 544 3809 666 
z
" transform="scale(0.015625)"/>
       <path id="DejaVuSans-65" d="M 3597 1894 
L 3597 1613 
L 953 1613 
Q 991 1019 1311 708 
Q 1631 397 2203 397 
Q 2534 397 2845 478 
Q 3156 559 3463 722 
L 3463 178 
Q 3153 47 2828 -22 
Q 2503 -91 2169 -91 
Q 1331 -91 842 396 
Q 353 884 353 1716 
Q 353 2575 817 3079 
Q 1281 3584 2069 3584 
Q 2775 3584 3186 3129 
Q 3597 2675 3597 1894 
z
M 3022 2063 
Q 3016 2534 2758 2815 
Q 2500 3097 2075 3097 
Q 1594 3097 1305 2825 
Q 1016 2553 972 2059 
L 3022 2063 
z
" transform="scale(0.015625)"/>
       <path id="DejaVuSans-6e" d="M 3513 2113 
L 3513 0 
L 2938 0 
L 2938 2094 
Q 2938 2591 2744 2837 
Q 2550 3084 2163 3084 
Q 1697 3084 1428 2787 
Q 1159 2491 1159 1978 
L 1159 0 
L 581 0 
L 581 3500 
L 1159 3500 
L 1159 2956 
Q 1366 3272 1645 3428 
Q 1925 3584 2291 3584 
Q 2894 3584 3203 3211 
Q 3513 2838 3513 2113 
z
" transform="scale(0.015625)"/>
       <path id="DejaVuSans-72" d="M 2631 2963 
Q 2534 3019 2420 3045 
Q 2306 3072 2169 3072 
Q 1681 3072 1420 2755 
Q 1159 2438 1159 1844 
L 1159 0 
L 581 0 
L 581 3500 
L 1159 3500 
L 1159 2956 
Q 1341 3275 1631 3429 
Q 1922 3584 2338 3584 
Q 2397 3584 2469 3576 
Q 2541 3569 2628 3553 
L 2631 2963 
z
" transform="scale(0.015625)"/>
       <path id="DejaVuSans-61" d="M 2194 1759 
Q 1497 1759 1228 1600 
Q 959 1441 959 1056 
Q 959 750 1161 570 
Q 1363 391 1709 391 
Q 2188 391 2477 730 
Q 2766 1069 2766 1631 
L 2766 1759 
L 2194 1759 
z
M 3341 1997 
L 3341 0 
L 2766 0 
L 2766 531 
Q 2569 213 2275 61 
Q 1981 -91 1556 -91 
Q 1019 -91 701 211 
Q 384 513 384 1019 
Q 384 1609 779 1909 
Q 1175 2209 1959 2209 
L 2766 2209 
L 2766 2266 
Q 2766 2663 2505 2880 
Q 2244 3097 1772 3097 
Q 1472 3097 1187 3025 
Q 903 2953 641 2809 
L 641 3341 
Q 956 3463 1253 3523 
Q 1550 3584 1831 3584 
Q 2591 3584 2966 3190 
Q 3341 2797 3341 1997 
z
" transform="scale(0.015625)"/>
       <path id="DejaVuSans-74" d="M 1172 4494 
L 1172 3500 
L 2356 3500 
L 2356 3053 
L 1172 3053 
L 1172 1153 
Q 1172 725 1289 603 
Q 1406 481 1766 481 
L 2356 481 
L 2356 0 
L 1766 0 
Q 1100 0 847 248 
Q 594 497 594 1153 
L 594 3053 
L 172 3053 
L 172 3500 
L 594 3500 
L 594 4494 
L 1172 4494 
z
" transform="scale(0.015625)"/>
       <path id="DejaVuSans-69" d="M 603 3500 
L 1178 3500 
L 1178 0 
L 603 0 
L 603 3500 
z
M 603 4863 
L 1178 4863 
L 1178 4134 
L 603 4134 
L 603 4863 
z
" transform="scale(0.015625)"/>
       <path id="DejaVuSans-6f" d="M 1959 3097 
Q 1497 3097 1228 2736 
Q 959 2375 959 1747 
Q 959 1119 1226 758 
Q 1494 397 1959 397 
Q 2419 397 2687 759 
Q 2956 1122 2956 1747 
Q 2956 2369 2687 2733 
Q 2419 3097 1959 3097 
z
M 1959 3584 
Q 2709 3584 3137 3096 
Q 3566 2609 3566 1747 
Q 3566 888 3137 398 
Q 2709 -91 1959 -91 
Q 1206 -91 779 398 
Q 353 888 353 1747 
Q 353 2609 779 3096 
Q 1206 3584 1959 3584 
z
" transform="scale(0.015625)"/>
       <path id="DejaVuSans-73" d="M 2834 3397 
L 2834 2853 
Q 2591 2978 2328 3040 
Q 2066 3103 1784 3103 
Q 1356 3103 1142 2972 
Q 928 2841 928 2578 
Q 928 2378 1081 2264 
Q 1234 2150 1697 2047 
L 1894 2003 
Q 2506 1872 2764 1633 
Q 3022 1394 3022 966 
Q 3022 478 2636 193 
Q 2250 -91 1575 -91 
Q 1294 -91 989 -36 
Q 684 19 347 128 
L 347 722 
Q 666 556 975 473 
Q 1284 391 1588 391 
Q 1994 391 2212 530 
Q 2431 669 2431 922 
Q 2431 1156 2273 1281 
Q 2116 1406 1581 1522 
L 1381 1569 
Q 847 1681 609 1914 
Q 372 2147 372 2553 
Q 372 3047 722 3315 
Q 1072 3584 1716 3584 
Q 2034 3584 2315 3537 
Q 2597 3491 2834 3397 
z
" transform="scale(0.015625)"/>
      </defs>
      <use xlink:href="#DejaVuSans-47"/>
      <use xlink:href="#DejaVuSans-65" x="77.490234"/>
      <use xlink:href="#DejaVuSans-6e" x="139.013672"/>
      <use xlink:href="#DejaVuSans-65" x="202.392578"/>
      <use xlink:href="#DejaVuSans-72" x="263.916016"/>
      <use xlink:href="#DejaVuSans-61" x="305.029297"/>
      <use xlink:href="#DejaVuSans-74" x="366.308594"/>
      <use xlink:href="#DejaVuSans-69" x="405.517578"/>
      <use xlink:href="#DejaVuSans-6f" x="433.300781"/>
      <use xlink:href="#DejaVuSans-6e" x="494.482422"/>
      <use xlink:href="#DejaVuSans-73" x="557.861328"/>
     </g>
    </g>
   </g>
   <g id="matplotlib.axis_2">
    <g id="ytick_1">
     <g id="line2d_15">
      <path d="M 57.6 306.614523 
L 414.72 306.614523 
" clip-path="url(#p4476984a30)" style="fill: none; stroke: #b0b0b0; stroke-width: 0.8; stroke-linecap: square"/>
     </g>
     <g id="line2d_16">
      <defs>
       <path id="m569ce8c46b" d="M 0 0 
L -3.5 0 
" style="stroke: #000000; stroke-width: 0.8"/>
      </defs>
      <g>
       <use xlink:href="#m569ce8c46b" x="57.6" y="306.614523" style="stroke: #000000; stroke-width: 0.8"/>
      </g>
     </g>
     <g id="text_9">
      <!-- 0 -->
      <g transform="translate(44.2375 310.413741) scale(0.1 -0.1)">
       <use xlink:href="#DejaVuSans-30"/>
      </g>
     </g>
    </g>
    <g id="ytick_2">
     <g id="line2d_17">
      <path d="M 57.6 259.828108 
L 414.72 259.828108 
" clip-path="url(#p4476984a30)" style="fill: none; stroke: #b0b0b0; stroke-width: 0.8; stroke-linecap: square"/>
     </g>
     <g id="line2d_18">
      <g>
       <use xlink:href="#m569ce8c46b" x="57.6" y="259.828108" style="stroke: #000000; stroke-width: 0.8"/>
      </g>
     </g>
     <g id="text_10">
      <!-- 200 -->
      <g transform="translate(31.5125 263.627327) scale(0.1 -0.1)">
       <use xlink:href="#DejaVuSans-32"/>
       <use xlink:href="#DejaVuSans-30" x="63.623047"/>
       <use xlink:href="#DejaVuSans-30" x="127.246094"/>
      </g>
     </g>
    </g>
    <g id="ytick_3">
     <g id="line2d_19">
      <path d="M 57.6 213.041693 
L 414.72 213.041693 
" clip-path="url(#p4476984a30)" style="fill: none; stroke: #b0b0b0; stroke-width: 0.8; stroke-linecap: square"/>
     </g>
     <g id="line2d_20">
      <g>
       <use xlink:href="#m569ce8c46b" x="57.6" y="213.041693" style="stroke: #000000; stroke-width: 0.8"/>
      </g>
     </g>
     <g id="text_11">
      <!-- 400 -->
      <g transform="translate(31.5125 216.840912) scale(0.1 -0.1)">
       <defs>
        <path id="DejaVuSans-34" d="M 2419 4116 
L 825 1625 
L 2419 1625 
L 2419 4116 
z
M 2253 4666 
L 3047 4666 
L 3047 1625 
L 3713 1625 
L 3713 1100 
L 3047 1100 
L 3047 0 
L 2419 0 
L 2419 1100 
L 313 1100 
L 313 1709 
L 2253 4666 
z
" transform="scale(0.015625)"/>
       </defs>
       <use xlink:href="#DejaVuSans-34"/>
       <use xlink:href="#DejaVuSans-30" x="63.623047"/>
       <use xlink:href="#DejaVuSans-30" x="127.246094"/>
      </g>
     </g>
    </g>
    <g id="ytick_4">
     <g id="line2d_21">
      <path d="M 57.6 166.255279 
L 414.72 166.255279 
" clip-path="url(#p4476984a30)" style="fill: none; stroke: #b0b0b0; stroke-width: 0.8; stroke-linecap: square"/>
     </g>
     <g id="line2d_22">
      <g>
       <use xlink:href="#m569ce8c46b" x="57.6" y="166.255279" style="stroke: #000000; stroke-width: 0.8"/>
      </g>
     </g>
     <g id="text_12">
      <!-- 600 -->
      <g transform="translate(31.5125 170.054497) scale(0.1 -0.1)">
       <defs>
        <path id="DejaVuSans-36" d="M 2113 2584 
Q 1688 2584 1439 2293 
Q 1191 2003 1191 1497 
Q 1191 994 1439 701 
Q 1688 409 2113 409 
Q 2538 409 2786 701 
Q 3034 994 3034 1497 
Q 3034 2003 2786 2293 
Q 2538 2584 2113 2584 
z
M 3366 4563 
L 3366 3988 
Q 3128 4100 2886 4159 
Q 2644 4219 2406 4219 
Q 1781 4219 1451 3797 
Q 1122 3375 1075 2522 
Q 1259 2794 1537 2939 
Q 1816 3084 2150 3084 
Q 2853 3084 3261 2657 
Q 3669 2231 3669 1497 
Q 3669 778 3244 343 
Q 2819 -91 2113 -91 
Q 1303 -91 875 529 
Q 447 1150 447 2328 
Q 447 3434 972 4092 
Q 1497 4750 2381 4750 
Q 2619 4750 2861 4703 
Q 3103 4656 3366 4563 
z
" transform="scale(0.015625)"/>
       </defs>
       <use xlink:href="#DejaVuSans-36"/>
       <use xlink:href="#DejaVuSans-30" x="63.623047"/>
       <use xlink:href="#DejaVuSans-30" x="127.246094"/>
      </g>
     </g>
    </g>
    <g id="ytick_5">
     <g id="line2d_23">
      <path d="M 57.6 119.468864 
L 414.72 119.468864 
" clip-path="url(#p4476984a30)" style="fill: none; stroke: #b0b0b0; stroke-width: 0.8; stroke-linecap: square"/>
     </g>
     <g id="line2d_24">
      <g>
       <use xlink:href="#m569ce8c46b" x="57.6" y="119.468864" style="stroke: #000000; stroke-width: 0.8"/>
      </g>
     </g>
     <g id="text_13">
      <!-- 800 -->
      <g transform="translate(31.5125 123.268083) scale(0.1 -0.1)">
       <defs>
        <path id="DejaVuSans-38" d="M 2034 2216 
Q 1584 2216 1326 1975 
Q 1069 1734 1069 1313 
Q 1069 891 1326 650 
Q 1584 409 2034 409 
Q 2484 409 2743 651 
Q 3003 894 3003 1313 
Q 3003 1734 2745 1975 
Q 2488 2216 2034 2216 
z
M 1403 2484 
Q 997 2584 770 2862 
Q 544 3141 544 3541 
Q 544 4100 942 4425 
Q 1341 4750 2034 4750 
Q 2731 4750 3128 4425 
Q 3525 4100 3525 3541 
Q 3525 3141 3298 2862 
Q 3072 2584 2669 2484 
Q 3125 2378 3379 2068 
Q 3634 1759 3634 1313 
Q 3634 634 3220 271 
Q 2806 -91 2034 -91 
Q 1263 -91 848 271 
Q 434 634 434 1313 
Q 434 1759 690 2068 
Q 947 2378 1403 2484 
z
M 1172 3481 
Q 1172 3119 1398 2916 
Q 1625 2713 2034 2713 
Q 2441 2713 2670 2916 
Q 2900 3119 2900 3481 
Q 2900 3844 2670 4047 
Q 2441 4250 2034 4250 
Q 1625 4250 1398 4047 
Q 1172 3844 1172 3481 
z
" transform="scale(0.015625)"/>
       </defs>
       <use xlink:href="#DejaVuSans-38"/>
       <use xlink:href="#DejaVuSans-30" x="63.623047"/>
       <use xlink:href="#DejaVuSans-30" x="127.246094"/>
      </g>
     </g>
    </g>
    <g id="ytick_6">
     <g id="line2d_25">
      <path d="M 57.6 72.682449 
L 414.72 72.682449 
" clip-path="url(#p4476984a30)" style="fill: none; stroke: #b0b0b0; stroke-width: 0.8; stroke-linecap: square"/>
     </g>
     <g id="line2d_26">
      <g>
       <use xlink:href="#m569ce8c46b" x="57.6" y="72.682449" style="stroke: #000000; stroke-width: 0.8"/>
      </g>
     </g>
     <g id="text_14">
      <!-- 1000 -->
      <g transform="translate(25.15 76.481668) scale(0.1 -0.1)">
       <use xlink:href="#DejaVuSans-31"/>
       <use xlink:href="#DejaVuSans-30" x="63.623047"/>
       <use xlink:href="#DejaVuSans-30" x="127.246094"/>
       <use xlink:href="#DejaVuSans-30" x="190.869141"/>
      </g>
     </g>
    </g>
    <g id="text_15">
     <!-- Fitness -->
     <g transform="translate(19.070312 191.845187) rotate(-90) scale(0.1 -0.1)">
      <defs>
       <path id="DejaVuSans-46" d="M 628 4666 
L 3309 4666 
L 3309 4134 
L 1259 4134 
L 1259 2759 
L 3109 2759 
L 3109 2228 
L 1259 2228 
L 1259 0 
L 628 0 
L 628 4666 
z
" transform="scale(0.015625)"/>
      </defs>
      <use xlink:href="#DejaVuSans-46"/>
      <use xlink:href="#DejaVuSans-69" x="50.269531"/>
      <use xlink:href="#DejaVuSans-74" x="78.052734"/>
      <use xlink:href="#DejaVuSans-6e" x="117.261719"/>
      <use xlink:href="#DejaVuSans-65" x="180.640625"/>
      <use xlink:href="#DejaVuSans-73" x="242.164062"/>
      <use xlink:href="#DejaVuSans-73" x="294.263672"/>
     </g>
    </g>
   </g>
   <g id="line2d_27">
    <path d="M 73.832727 295.488 
L 74.918528 293.6233 
L 76.00433 294.250524 
L 77.090131 293.830495 
L 78.175932 290.647786 
L 79.261733 291.368417 
L 80.347534 290.640471 
L 81.433335 291.056081 
L 83.604938 288.853244 
L 84.690739 289.669521 
L 85.77654 287.101557 
L 86.862341 288.271461 
L 87.948142 287.668721 
L 89.033943 287.518075 
L 90.119745 287.088412 
L 91.205546 285.159459 
L 92.291347 284.591482 
L 93.377148 285.17653 
L 94.462949 283.74586 
L 95.54875 285.499156 
L 96.634552 284.656955 
L 97.720353 283.011721 
L 98.806154 280.893486 
L 99.891955 282.932249 
L 100.977756 283.391275 
L 102.063557 281.444139 
L 103.149358 279.005433 
L 104.23516 278.817146 
L 105.320961 276.133014 
L 106.406762 276.321122 
L 107.492563 275.739013 
L 108.578364 273.552874 
L 109.664165 275.7167 
L 110.749967 274.523583 
L 111.835768 275.239879 
L 112.921569 274.213147 
L 114.00737 271.700984 
L 115.093171 268.707945 
L 116.178972 269.987109 
L 117.264773 269.645082 
L 118.350575 268.812456 
L 119.436376 267.83268 
L 120.522177 266.024948 
L 121.607978 264.832788 
L 122.693779 264.532013 
L 123.77958 265.97092 
L 124.865382 265.287408 
L 127.036984 262.153576 
L 128.122785 261.936785 
L 129.208586 262.110181 
L 130.294387 261.064595 
L 131.380189 260.310474 
L 132.46599 260.805411 
L 133.551791 261.472217 
L 134.637592 259.55068 
L 135.723393 256.766983 
L 136.809194 256.455146 
L 138.980797 254.958591 
L 140.066598 255.212252 
L 141.152399 254.748095 
L 142.2382 250.976478 
L 143.324001 252.300459 
L 144.409802 251.552792 
L 145.495604 251.448464 
L 146.581405 249.26923 
L 147.667206 248.960613 
L 148.753007 249.446612 
L 149.838808 247.907198 
L 150.924609 246.603571 
L 152.01041 243.98961 
L 153.096212 245.338138 
L 154.182013 245.650074 
L 156.353615 243.631644 
L 157.439416 244.582322 
L 158.525217 242.306016 
L 159.611019 242.88503 
L 160.69682 241.271686 
L 161.782621 240.659581 
L 162.868422 239.123885 
L 165.040024 239.478268 
L 166.125825 238.724185 
L 167.211627 236.51667 
L 168.297428 238.010386 
L 169.383229 235.681483 
L 170.46903 235.877461 
L 171.554831 234.116928 
L 172.640632 233.583686 
L 174.812235 232.073722 
L 175.898036 231.574036 
L 176.983837 229.874509 
L 178.069638 229.899203 
L 179.155439 231.053262 
L 180.24124 228.739544 
L 181.327042 227.554501 
L 182.412843 227.827724 
L 183.498644 225.389589 
L 184.584445 226.200793 
L 185.670246 224.262548 
L 186.756047 223.662416 
L 187.841849 222.257502 
L 188.92765 223.040129 
L 190.013451 221.342689 
L 191.099252 220.07759 
L 192.185053 220.714814 
L 193.270854 219.944216 
L 194.356656 221.775618 
L 195.442457 218.68301 
L 196.528258 217.621164 
L 197.614059 218.164682 
L 198.69986 217.183128 
L 199.785661 217.055975 
L 200.871462 215.810435 
L 201.957264 216.011351 
L 204.128866 212.717766 
L 205.214667 212.375659 
L 206.300468 211.910173 
L 207.386269 212.477849 
L 208.472071 212.065794 
L 209.557872 210.803926 
L 210.643673 210.400107 
L 211.729474 209.521547 
L 212.815275 207.794316 
L 213.901076 207.568331 
L 214.986877 207.773074 
L 216.072679 205.77202 
L 217.15848 204.938975 
L 218.244281 205.545816 
L 219.330082 204.591835 
L 220.415883 205.233189 
L 221.501684 203.446927 
L 222.587486 202.175887 
L 223.673287 202.016585 
L 224.759088 200.375826 
L 225.844889 201.477012 
L 228.016491 200.165116 
L 229.102292 198.169422 
L 230.188094 198.553713 
L 231.273895 197.607184 
L 232.359696 195.769085 
L 233.445497 195.358845 
L 234.531298 195.728278 
L 235.617099 194.420171 
L 236.702901 193.382273 
L 237.788702 194.147639 
L 238.874503 194.193341 
L 239.960304 193.187987 
L 241.046105 190.306384 
L 242.131906 191.260904 
L 243.217708 190.944175 
L 244.303509 190.062753 
L 245.38931 187.165805 
L 246.475111 186.387439 
L 247.560912 185.876338 
L 248.646713 184.85798 
L 249.732514 185.824646 
L 250.818316 186.083292 
L 251.904117 184.804937 
L 252.989918 181.174021 
L 254.075719 181.618683 
L 255.16152 181.77201 
L 256.247321 180.202939 
L 258.418924 180.007069 
L 259.504725 178.536872 
L 260.590526 178.116524 
L 261.676327 177.347456 
L 262.762128 177.201022 
L 263.847929 176.369931 
L 264.933731 175.981107 
L 268.191134 172.618403 
L 269.276935 172.765854 
L 270.362736 173.603163 
L 271.448538 170.51113 
L 272.534339 169.377615 
L 273.62014 170.819093 
L 274.705941 168.852784 
L 275.791742 169.353299 
L 276.877543 168.043517 
L 277.963344 166.527435 
L 279.049146 167.020818 
L 280.134947 164.030065 
L 281.220748 165.623211 
L 282.306549 164.708089 
L 283.39235 162.824774 
L 284.478151 161.66053 
L 285.563953 162.891326 
L 286.649754 162.657985 
L 287.735555 160.929183 
L 288.821356 160.629912 
L 289.907157 161.39961 
L 290.992958 158.185029 
L 292.07876 159.548586 
L 293.164561 157.846371 
L 294.250362 156.567716 
L 295.336163 156.53807 
L 296.421964 155.543974 
L 299.679368 153.650977 
L 300.765169 152.805074 
L 301.85097 152.107391 
L 302.936771 149.922713 
L 304.022572 150.371534 
L 305.108373 149.788587 
L 306.194175 151.295272 
L 307.279976 148.204974 
L 308.365777 149.321998 
L 309.451578 148.979577 
L 310.537379 148.129035 
L 311.62318 143.896001 
L 312.708981 144.66815 
L 313.794783 144.734548 
L 314.880584 146.088061 
L 315.966385 144.541717 
L 317.052186 141.911543 
L 318.137987 142.052104 
L 319.223788 141.281738 
L 320.30959 140.261495 
L 321.395391 140.271763 
L 322.481192 139.237101 
L 323.566993 137.910254 
L 324.652794 137.930632 
L 325.738595 137.737997 
L 326.824396 137.106933 
L 327.910198 134.827295 
L 328.995999 136.030472 
L 330.0818 134.93771 
L 331.167601 135.031458 
L 332.253402 132.991689 
L 333.339203 133.36218 
L 334.425005 131.813035 
L 335.510806 130.86081 
L 336.596607 129.146479 
L 337.682408 129.720578 
L 338.768209 129.458096 
L 339.85401 128.08782 
L 340.939811 128.220048 
L 342.025613 126.897922 
L 343.111414 127.559095 
L 344.197215 123.839551 
L 345.283016 124.512014 
L 346.368817 123.734214 
L 347.454618 122.518241 
L 348.54042 122.543376 
L 349.626221 122.073615 
L 350.712022 121.057467 
L 351.797823 120.918986 
L 352.883624 120.397263 
L 355.055227 117.769867 
L 356.141028 119.592062 
L 357.226829 117.646291 
L 358.31263 117.984694 
L 359.398431 114.806281 
L 360.484232 116.089135 
L 361.570033 116.064897 
L 362.655835 113.385001 
L 363.741636 114.070977 
L 364.827437 112.140466 
L 365.913238 112.032558 
L 366.999039 112.379792 
L 368.08484 110.293996 
L 369.170642 110.210571 
L 370.256443 109.859704 
L 371.342244 109.300718 
L 372.428045 107.742655 
L 373.513846 108.967264 
L 374.599647 105.608467 
L 375.685448 107.065756 
L 377.857051 103.107902 
L 378.942852 104.757838 
L 380.028653 102.905003 
L 381.114454 102.421044 
L 382.200255 102.458379 
L 383.286057 101.47037 
L 384.371858 98.903968 
L 385.457659 100.372426 
L 386.54346 99.922294 
L 387.629261 99.29265 
L 388.715062 98.22462 
L 389.800863 97.756137 
L 390.886665 96.124563 
L 391.972466 95.499189 
L 393.058267 94.720862 
L 394.144068 94.214947 
L 395.229869 94.020807 
L 396.31567 91.192297 
L 397.401472 93.272604 
L 398.487273 92.401998 
L 398.487273 92.401998 
" clip-path="url(#p4476984a30)" style="fill: none; stroke: #0000ff; stroke-width: 1.5; stroke-linecap: square"/>
   </g>
   <g id="line2d_28">
    <path d="M 73.832727 287.461074 
L 74.918528 285.533771 
L 76.00433 285.949026 
L 77.090131 285.963617 
L 78.175932 282.301997 
L 80.347534 282.163127 
L 81.433335 283.336637 
L 82.519137 282.598658 
L 83.604938 281.078046 
L 84.690739 282.680138 
L 85.77654 277.075581 
L 86.862341 279.816563 
L 89.033943 279.190117 
L 90.119745 280.43033 
L 91.205546 277.066293 
L 92.291347 276.017523 
L 93.377148 277.759102 
L 94.462949 275.483508 
L 95.54875 278.563436 
L 96.634552 276.89596 
L 97.720353 273.986914 
L 98.806154 272.064007 
L 100.977756 276.97585 
L 102.063557 273.06729 
L 103.149358 270.889904 
L 104.23516 270.874554 
L 105.320961 267.416083 
L 106.406762 268.261791 
L 107.492563 266.118884 
L 108.578364 264.886822 
L 109.664165 267.188117 
L 110.749967 265.896358 
L 111.835768 267.706 
L 112.921569 267.299962 
L 114.00737 262.461356 
L 115.093171 260.838619 
L 116.178972 261.81649 
L 117.264773 261.307798 
L 118.350575 260.365052 
L 119.436376 259.058835 
L 120.522177 256.783563 
L 121.607978 255.206617 
L 122.693779 256.23057 
L 123.77958 257.976144 
L 124.865382 257.62601 
L 125.951183 255.84432 
L 127.036984 253.048751 
L 129.208586 254.46924 
L 130.294387 252.510932 
L 131.380189 251.722541 
L 132.46599 253.626314 
L 133.551791 254.370712 
L 134.637592 251.801863 
L 135.723393 244.942633 
L 136.809194 247.996319 
L 137.894995 246.726275 
L 138.980797 246.334603 
L 140.066598 247.166042 
L 141.152399 247.125851 
L 142.2382 241.925995 
L 143.324001 244.375728 
L 144.409802 243.148201 
L 145.495604 242.993193 
L 146.581405 239.162112 
L 147.667206 240.323841 
L 148.753007 241.856694 
L 149.838808 240.19349 
L 150.924609 238.156953 
L 152.01041 235.044999 
L 153.096212 237.188316 
L 154.182013 236.722926 
L 155.267814 235.790667 
L 156.353615 235.686766 
L 157.439416 237.095014 
L 158.525217 234.296246 
L 159.611019 235.208693 
L 160.69682 233.050556 
L 162.868422 230.94203 
L 163.954223 231.083655 
L 165.040024 231.931473 
L 166.125825 231.002857 
L 167.211627 228.33042 
L 168.297428 230.905576 
L 169.383229 227.47822 
L 170.46903 227.796454 
L 172.640632 224.990242 
L 174.812235 224.223989 
L 175.898036 222.68845 
L 176.983837 221.800924 
L 178.069638 221.950671 
L 179.155439 223.115783 
L 180.24124 220.341505 
L 181.327042 219.064378 
L 182.412843 220.567019 
L 183.498644 217.904154 
L 184.584445 218.327895 
L 185.670246 216.357019 
L 187.841849 214.084711 
L 188.92765 214.569853 
L 190.013451 214.48642 
L 191.099252 211.021124 
L 192.185053 212.600134 
L 193.270854 211.614585 
L 194.356656 214.30224 
L 195.442457 210.016529 
L 196.528258 209.161095 
L 197.614059 209.907295 
L 198.69986 209.056952 
L 199.785661 210.09663 
L 200.871462 207.507345 
L 201.957264 207.70893 
L 203.043065 205.93617 
L 204.128866 203.512053 
L 205.214667 204.115824 
L 206.300468 203.688618 
L 207.386269 204.253333 
L 208.472071 203.9545 
L 209.557872 202.827257 
L 210.643673 201.33003 
L 211.729474 201.521039 
L 212.815275 199.230942 
L 213.901076 198.406336 
L 214.986877 200.426668 
L 216.072679 197.032665 
L 218.244281 196.971981 
L 219.330082 196.273057 
L 220.415883 197.813455 
L 221.501684 195.986777 
L 222.587486 193.44027 
L 223.673287 194.041442 
L 224.759088 192.236154 
L 225.844889 194.061187 
L 226.93069 192.864283 
L 228.016491 192.251543 
L 229.102292 189.379465 
L 231.273895 190.300095 
L 232.359696 187.446372 
L 233.445497 187.461894 
L 234.531298 188.281444 
L 235.617099 185.997895 
L 236.702901 184.912336 
L 237.788702 186.258395 
L 238.874503 185.913596 
L 239.960304 185.357472 
L 241.046105 181.096189 
L 242.131906 182.699162 
L 243.217708 183.20724 
L 244.303509 182.388483 
L 245.38931 179.308184 
L 247.560912 176.281179 
L 248.646713 176.94292 
L 249.732514 177.435571 
L 250.818316 178.754681 
L 251.904117 177.091501 
L 252.989918 172.644317 
L 254.075719 173.189775 
L 255.16152 174.356317 
L 256.247321 171.408214 
L 257.333123 171.805766 
L 258.418924 172.793731 
L 259.504725 169.824659 
L 260.590526 170.615505 
L 261.676327 168.350321 
L 262.762128 169.22301 
L 263.847929 167.307305 
L 266.019532 166.782499 
L 267.105333 164.89513 
L 268.191134 163.571642 
L 269.276935 163.757643 
L 270.362736 166.470302 
L 271.448538 162.247504 
L 272.534339 160.910878 
L 273.62014 162.600491 
L 274.705941 160.321486 
L 275.791742 162.161308 
L 276.877543 159.575304 
L 277.963344 158.257489 
L 279.049146 159.210661 
L 280.134947 154.581951 
L 281.220748 157.055137 
L 282.306549 156.629917 
L 283.39235 154.713392 
L 284.478151 153.597885 
L 285.563953 154.472083 
L 286.649754 154.59345 
L 287.735555 153.000445 
L 288.821356 152.331708 
L 289.907157 154.172763 
L 290.992958 149.546219 
L 292.07876 151.167859 
L 293.164561 149.501084 
L 294.250362 148.206218 
L 295.336163 147.476437 
L 296.421964 147.706949 
L 297.507765 146.971857 
L 298.593566 147.237762 
L 299.679368 145.985329 
L 300.765169 144.024092 
L 301.85097 143.764727 
L 302.936771 140.755947 
L 304.022572 141.200926 
L 305.108373 142.018668 
L 306.194175 143.18628 
L 307.279976 139.156175 
L 308.365777 141.803529 
L 309.451578 140.458233 
L 310.537379 140.303885 
L 311.62318 134.614171 
L 312.708981 136.158382 
L 313.794783 136.999835 
L 314.880584 139.339796 
L 315.966385 137.287148 
L 317.052186 134.244359 
L 318.137987 133.261364 
L 319.223788 133.360322 
L 320.30959 132.180096 
L 321.395391 132.997077 
L 322.481192 130.872811 
L 323.566993 129.149683 
L 324.652794 130.178596 
L 325.738595 128.840305 
L 326.824396 128.65048 
L 327.910198 127.204689 
L 328.995999 128.051475 
L 330.0818 126.732495 
L 331.167601 127.961361 
L 332.253402 124.855859 
L 333.339203 125.783952 
L 334.425005 124.601293 
L 335.510806 123.101924 
L 336.596607 119.835417 
L 337.682408 120.858304 
L 338.768209 121.452304 
L 339.85401 120.001558 
L 340.939811 120.197193 
L 342.025613 118.382531 
L 343.111414 120.905756 
L 344.197215 115.504997 
L 345.283016 117.323069 
L 347.454618 114.119805 
L 348.54042 114.255812 
L 349.626221 113.879864 
L 350.712022 112.5072 
L 351.797823 112.767525 
L 352.883624 112.516419 
L 355.055227 109.407815 
L 356.141028 111.944986 
L 357.226829 109.526446 
L 358.31263 109.072697 
L 359.398431 106.270194 
L 360.484232 109.18797 
L 361.570033 107.780685 
L 362.655835 104.555389 
L 363.741636 105.218185 
L 364.827437 103.647342 
L 365.913238 104.601045 
L 366.999039 104.355751 
L 368.08484 101.887078 
L 369.170642 102.097066 
L 370.256443 100.805861 
L 371.342244 101.191347 
L 372.428045 99.635747 
L 373.513846 101.224258 
L 374.599647 97.151014 
L 375.685448 99.195212 
L 377.857051 93.840115 
L 378.942852 97.222284 
L 380.028653 94.163637 
L 381.114454 93.660809 
L 382.200255 94.583386 
L 383.286057 93.955758 
L 384.371858 90.254576 
L 385.457659 92.567655 
L 386.54346 92.211991 
L 388.715062 90.058954 
L 389.800863 89.907117 
L 390.886665 87.385344 
L 391.972466 86.521355 
L 393.058267 86.679861 
L 394.144068 87.250683 
L 395.229869 85.9535 
L 396.31567 82.766723 
L 397.401472 85.770519 
L 398.487273 85.200686 
L 398.487273 85.200686 
" clip-path="url(#p4476984a30)" style="fill: none; stroke-dasharray: 9.6,2.4,1.5,2.4; stroke-dashoffset: 0; stroke: #008000; stroke-width: 1.5"/>
   </g>
   <g id="line2d_29">
    <path d="M 73.832727 274.313299 
L 74.918528 273.17688 
L 76.00433 272.450685 
L 77.090131 270.535834 
L 78.175932 265.56466 
L 79.261733 264.54095 
L 80.347534 263.7788 
L 81.433335 273.765126 
L 82.519137 270.814049 
L 83.604938 268.302368 
L 84.690739 270.63722 
L 85.77654 249.484848 
L 86.862341 261.922104 
L 87.948142 256.724789 
L 89.033943 258.909059 
L 90.119745 268.002326 
L 91.205546 256.658211 
L 92.291347 264.452688 
L 93.377148 255.79926 
L 94.462949 260.207897 
L 95.54875 265.664105 
L 96.634552 260.120055 
L 97.720353 251.899565 
L 98.806154 253.945091 
L 99.891955 256.237134 
L 100.977756 264.883263 
L 102.063557 253.133417 
L 103.149358 255.382299 
L 104.23516 259.332663 
L 105.320961 253.339721 
L 106.406762 260.09072 
L 107.492563 244.193234 
L 108.578364 241.265925 
L 109.664165 246.118402 
L 110.749967 242.070067 
L 111.835768 252.265435 
L 112.921569 255.868948 
L 114.00737 243.55453 
L 115.093171 242.1209 
L 116.178972 244.074537 
L 117.264773 246.655416 
L 118.350575 241.077353 
L 119.436376 241.91628 
L 120.522177 230.814987 
L 121.607978 228.813768 
L 122.693779 242.749055 
L 123.77958 237.23034 
L 124.865382 245.635613 
L 125.951183 238.645442 
L 127.036984 227.64619 
L 128.122785 236.331058 
L 129.208586 242.196694 
L 130.294387 227.666518 
L 131.380189 239.003989 
L 132.46599 241.9109 
L 133.551791 234.149735 
L 134.637592 227.252061 
L 135.723393 177.482661 
L 136.809194 235.694669 
L 137.894995 218.165601 
L 138.980797 232.69931 
L 140.066598 237.517304 
L 141.152399 234.198744 
L 142.2382 228.186549 
L 143.324001 230.078101 
L 144.409802 224.985937 
L 145.495604 228.786889 
L 146.581405 211.867541 
L 147.667206 225.313372 
L 148.753007 221.149241 
L 149.838808 226.034047 
L 150.924609 222.94474 
L 152.01041 212.523136 
L 153.096212 221.198063 
L 154.182013 215.382581 
L 155.267814 216.671758 
L 156.353615 221.260195 
L 157.439416 219.223114 
L 158.525217 217.569004 
L 159.611019 221.395314 
L 160.69682 221.217245 
L 161.782621 214.091253 
L 162.868422 216.988455 
L 163.954223 209.445994 
L 165.040024 217.84205 
L 166.125825 217.887854 
L 167.211627 217.552348 
L 168.297428 217.862425 
L 169.383229 208.110195 
L 170.46903 214.374428 
L 171.554831 212.415761 
L 172.640632 195.13045 
L 173.726434 210.538877 
L 174.812235 211.728516 
L 175.898036 199.922759 
L 176.983837 202.958893 
L 178.069638 209.00433 
L 179.155439 203.329161 
L 180.24124 202.615809 
L 181.327042 201.542318 
L 182.412843 206.375846 
L 183.498644 209.751064 
L 184.584445 203.106902 
L 185.670246 198.731016 
L 186.756047 196.523001 
L 187.841849 202.478374 
L 188.92765 202.334763 
L 190.013451 207.133388 
L 191.099252 180.157254 
L 192.185053 196.386806 
L 193.270854 193.783446 
L 194.356656 199.029139 
L 195.442457 193.833157 
L 196.528258 195.270973 
L 197.614059 197.247465 
L 198.69986 189.601629 
L 199.785661 202.017317 
L 200.871462 191.508106 
L 201.957264 191.044429 
L 203.043065 193.420945 
L 204.128866 184.680681 
L 205.214667 192.273765 
L 207.386269 190.047247 
L 208.472071 178.290686 
L 209.557872 177.335542 
L 210.643673 180.624556 
L 211.729474 188.952725 
L 212.815275 186.732172 
L 213.901076 179.297904 
L 214.986877 188.5145 
L 216.072679 176.988152 
L 217.15848 185.082904 
L 218.244281 172.057168 
L 219.330082 176.163331 
L 220.415883 184.904811 
L 221.501684 182.659438 
L 222.587486 167.80171 
L 223.673287 172.669743 
L 224.759088 178.299014 
L 226.93069 176.2566 
L 228.016491 176.410527 
L 229.102292 161.047132 
L 230.188094 158.45217 
L 231.273895 179.414215 
L 232.359696 169.764845 
L 233.445497 172.509055 
L 234.531298 168.100535 
L 235.617099 166.374771 
L 236.702901 163.373025 
L 237.788702 174.095606 
L 238.874503 168.988354 
L 239.960304 164.653756 
L 241.046105 163.165691 
L 242.131906 163.035625 
L 243.217708 165.403181 
L 244.303509 165.632177 
L 245.38931 156.762736 
L 246.475111 168.675563 
L 247.560912 147.272931 
L 248.646713 155.52044 
L 249.732514 158.087657 
L 250.818316 165.719551 
L 251.904117 167.129155 
L 252.989918 156.717658 
L 254.075719 156.309212 
L 255.16152 163.115817 
L 256.247321 156.120522 
L 257.333123 158.118139 
L 258.418924 156.891142 
L 259.504725 147.662311 
L 260.590526 160.705217 
L 261.676327 146.26066 
L 262.762128 157.087855 
L 263.847929 140.739559 
L 266.019532 153.342509 
L 267.105333 146.67093 
L 268.191134 148.71028 
L 269.276935 142.899407 
L 270.362736 155.830915 
L 271.448538 136.238191 
L 272.534339 142.3459 
L 273.62014 144.424317 
L 274.705941 136.125904 
L 275.791742 151.931477 
L 276.877543 144.038258 
L 277.963344 138.197653 
L 279.049146 149.481367 
L 280.134947 125.245629 
L 281.220748 141.416652 
L 282.306549 142.226595 
L 283.39235 137.545801 
L 284.478151 136.15049 
L 285.563953 137.688289 
L 286.649754 141.002592 
L 287.735555 139.435785 
L 288.821356 133.784361 
L 289.907157 135.732617 
L 290.992958 138.051796 
L 292.07876 128.726141 
L 293.164561 128.965547 
L 294.250362 133.972582 
L 295.336163 121.705044 
L 296.421964 138.460873 
L 297.507765 133.827708 
L 298.593566 138.419771 
L 299.679368 137.026846 
L 300.765169 128.270231 
L 301.85097 128.958295 
L 302.936771 98.653822 
L 304.022572 119.776765 
L 305.108373 132.801729 
L 306.194175 122.01484 
L 307.279976 115.605593 
L 308.365777 127.434953 
L 309.451578 125.127517 
L 310.537379 123.790455 
L 311.62318 121.593458 
L 312.708981 121.755854 
L 313.794783 122.513934 
L 314.880584 125.247594 
L 315.966385 122.402232 
L 317.052186 120.767304 
L 318.137987 103.284203 
L 319.223788 111.581891 
L 320.30959 118.363114 
L 321.395391 123.759857 
L 322.481192 119.612007 
L 323.566993 118.187174 
L 324.652794 115.535203 
L 325.738595 77.578086 
L 326.824396 109.068993 
L 328.995999 114.111422 
L 330.0818 115.776691 
L 331.167601 115.501306 
L 332.253402 114.061243 
L 333.339203 112.208314 
L 334.425005 114.597463 
L 335.510806 110.887908 
L 336.596607 103.771531 
L 337.682408 106.466662 
L 338.768209 102.202104 
L 340.939811 106.795173 
L 342.025613 99.78879 
L 343.111414 109.314762 
L 344.197215 96.705893 
L 345.283016 107.377172 
L 346.368817 93.294158 
L 347.454618 101.580032 
L 348.54042 102.209917 
L 349.626221 97.713719 
L 350.712022 99.998534 
L 351.797823 98.501602 
L 352.883624 89.140015 
L 355.055227 92.134673 
L 356.141028 90.681745 
L 357.226829 86.474453 
L 358.31263 92.990654 
L 359.398431 90.063977 
L 360.484232 93.688637 
L 361.570033 88.011036 
L 362.655835 86.901847 
L 363.741636 83.708627 
L 364.827437 89.918518 
L 365.913238 93.468998 
L 366.999039 73.518733 
L 368.08484 80.124577 
L 369.170642 88.274513 
L 370.256443 80.46158 
L 371.342244 83.637559 
L 372.428045 77.0272 
L 373.513846 86.690185 
L 374.599647 84.904488 
L 375.685448 81.985881 
L 376.77125 73.90816 
L 377.857051 76.59246 
L 378.942852 84.917916 
L 380.028653 71.080319 
L 381.114454 78.861929 
L 382.200255 81.230608 
L 383.286057 81.882998 
L 384.371858 68.89661 
L 385.457659 82.41262 
L 386.54346 80.512741 
L 387.629261 77.570226 
L 388.715062 71.663418 
L 389.800863 75.313717 
L 390.886665 53.568 
L 391.972466 72.200315 
L 393.058267 65.39722 
L 394.144068 76.475658 
L 395.229869 69.121208 
L 396.31567 68.431974 
L 397.401472 71.557213 
L 398.487273 75.494757 
L 398.487273 75.494757 
" clip-path="url(#p4476984a30)" style="fill: none; stroke: #ff0000; stroke-width: 1.5; stroke-linecap: square"/>
   </g>
   <g id="patch_3">
    <path d="M 57.6 307.584 
L 57.6 41.472 
" style="fill: none; stroke: #000000; stroke-width: 0.8; stroke-linejoin: miter; stroke-linecap: square"/>
   </g>
   <g id="patch_4">
    <path d="M 414.72 307.584 
L 414.72 41.472 
" style="fill: none; stroke: #000000; stroke-width: 0.8; stroke-linejoin: miter; stroke-linecap: square"/>
   </g>
   <g id="patch_5">
    <path d="M 57.6 307.584 
L 414.72 307.584 
" style="fill: none; stroke: #000000; stroke-width: 0.8; stroke-linejoin: miter; stroke-linecap: square"/>
   </g>
   <g id="patch_6">
    <path d="M 57.6 41.472 
L 414.72 41.472 
" style="fill: none; stroke: #000000; stroke-width: 0.8; stroke-linejoin: miter; stroke-linecap: square"/>
   </g>
   <g id="text_16">
    <!-- Population's average and best fitness -->
    <g transform="translate(123.529687 35.472) scale(0.12 -0.12)">
     <defs>
      <path id="DejaVuSans-50" d="M 1259 4147 
L 1259 2394 
L 2053 2394 
Q 2494 2394 2734 2622 
Q 2975 2850 2975 3272 
Q 2975 3691 2734 3919 
Q 2494 4147 2053 4147 
L 1259 4147 
z
M 628 4666 
L 2053 4666 
Q 2838 4666 3239 4311 
Q 3641 3956 3641 3272 
Q 3641 2581 3239 2228 
Q 2838 1875 2053 1875 
L 1259 1875 
L 1259 0 
L 628 0 
L 628 4666 
z
" transform="scale(0.015625)"/>
      <path id="DejaVuSans-70" d="M 1159 525 
L 1159 -1331 
L 581 -1331 
L 581 3500 
L 1159 3500 
L 1159 2969 
Q 1341 3281 1617 3432 
Q 1894 3584 2278 3584 
Q 2916 3584 3314 3078 
Q 3713 2572 3713 1747 
Q 3713 922 3314 415 
Q 2916 -91 2278 -91 
Q 1894 -91 1617 61 
Q 1341 213 1159 525 
z
M 3116 1747 
Q 3116 2381 2855 2742 
Q 2594 3103 2138 3103 
Q 1681 3103 1420 2742 
Q 1159 2381 1159 1747 
Q 1159 1113 1420 752 
Q 1681 391 2138 391 
Q 2594 391 2855 752 
Q 3116 1113 3116 1747 
z
" transform="scale(0.015625)"/>
      <path id="DejaVuSans-75" d="M 544 1381 
L 544 3500 
L 1119 3500 
L 1119 1403 
Q 1119 906 1312 657 
Q 1506 409 1894 409 
Q 2359 409 2629 706 
Q 2900 1003 2900 1516 
L 2900 3500 
L 3475 3500 
L 3475 0 
L 2900 0 
L 2900 538 
Q 2691 219 2414 64 
Q 2138 -91 1772 -91 
Q 1169 -91 856 284 
Q 544 659 544 1381 
z
M 1991 3584 
L 1991 3584 
z
" transform="scale(0.015625)"/>
      <path id="DejaVuSans-6c" d="M 603 4863 
L 1178 4863 
L 1178 0 
L 603 0 
L 603 4863 
z
" transform="scale(0.015625)"/>
      <path id="DejaVuSans-27" d="M 1147 4666 
L 1147 2931 
L 616 2931 
L 616 4666 
L 1147 4666 
z
" transform="scale(0.015625)"/>
      <path id="DejaVuSans-20" transform="scale(0.015625)"/>
      <path id="DejaVuSans-76" d="M 191 3500 
L 800 3500 
L 1894 563 
L 2988 3500 
L 3597 3500 
L 2284 0 
L 1503 0 
L 191 3500 
z
" transform="scale(0.015625)"/>
      <path id="DejaVuSans-67" d="M 2906 1791 
Q 2906 2416 2648 2759 
Q 2391 3103 1925 3103 
Q 1463 3103 1205 2759 
Q 947 2416 947 1791 
Q 947 1169 1205 825 
Q 1463 481 1925 481 
Q 2391 481 2648 825 
Q 2906 1169 2906 1791 
z
M 3481 434 
Q 3481 -459 3084 -895 
Q 2688 -1331 1869 -1331 
Q 1566 -1331 1297 -1286 
Q 1028 -1241 775 -1147 
L 775 -588 
Q 1028 -725 1275 -790 
Q 1522 -856 1778 -856 
Q 2344 -856 2625 -561 
Q 2906 -266 2906 331 
L 2906 616 
Q 2728 306 2450 153 
Q 2172 0 1784 0 
Q 1141 0 747 490 
Q 353 981 353 1791 
Q 353 2603 747 3093 
Q 1141 3584 1784 3584 
Q 2172 3584 2450 3431 
Q 2728 3278 2906 2969 
L 2906 3500 
L 3481 3500 
L 3481 434 
z
" transform="scale(0.015625)"/>
      <path id="DejaVuSans-64" d="M 2906 2969 
L 2906 4863 
L 3481 4863 
L 3481 0 
L 2906 0 
L 2906 525 
Q 2725 213 2448 61 
Q 2172 -91 1784 -91 
Q 1150 -91 751 415 
Q 353 922 353 1747 
Q 353 2572 751 3078 
Q 1150 3584 1784 3584 
Q 2172 3584 2448 3432 
Q 2725 3281 2906 2969 
z
M 947 1747 
Q 947 1113 1208 752 
Q 1469 391 1925 391 
Q 2381 391 2643 752 
Q 2906 1113 2906 1747 
Q 2906 2381 2643 2742 
Q 2381 3103 1925 3103 
Q 1469 3103 1208 2742 
Q 947 2381 947 1747 
z
" transform="scale(0.015625)"/>
      <path id="DejaVuSans-62" d="M 3116 1747 
Q 3116 2381 2855 2742 
Q 2594 3103 2138 3103 
Q 1681 3103 1420 2742 
Q 1159 2381 1159 1747 
Q 1159 1113 1420 752 
Q 1681 391 2138 391 
Q 2594 391 2855 752 
Q 3116 1113 3116 1747 
z
M 1159 2969 
Q 1341 3281 1617 3432 
Q 1894 3584 2278 3584 
Q 2916 3584 3314 3078 
Q 3713 2572 3713 1747 
Q 3713 922 3314 415 
Q 2916 -91 2278 -91 
Q 1894 -91 1617 61 
Q 1341 213 1159 525 
L 1159 0 
L 581 0 
L 581 4863 
L 1159 4863 
L 1159 2969 
z
" transform="scale(0.015625)"/>
      <path id="DejaVuSans-66" d="M 2375 4863 
L 2375 4384 
L 1825 4384 
Q 1516 4384 1395 4259 
Q 1275 4134 1275 3809 
L 1275 3500 
L 2222 3500 
L 2222 3053 
L 1275 3053 
L 1275 0 
L 697 0 
L 697 3053 
L 147 3053 
L 147 3500 
L 697 3500 
L 697 3744 
Q 697 4328 969 4595 
Q 1241 4863 1831 4863 
L 2375 4863 
z
" transform="scale(0.015625)"/>
     </defs>
     <use xlink:href="#DejaVuSans-50"/>
     <use xlink:href="#DejaVuSans-6f" x="56.677734"/>
     <use xlink:href="#DejaVuSans-70" x="117.859375"/>
     <use xlink:href="#DejaVuSans-75" x="181.335938"/>
     <use xlink:href="#DejaVuSans-6c" x="244.714844"/>
     <use xlink:href="#DejaVuSans-61" x="272.498047"/>
     <use xlink:href="#DejaVuSans-74" x="333.777344"/>
     <use xlink:href="#DejaVuSans-69" x="372.986328"/>
     <use xlink:href="#DejaVuSans-6f" x="400.769531"/>
     <use xlink:href="#DejaVuSans-6e" x="461.951172"/>
     <use xlink:href="#DejaVuSans-27" x="525.330078"/>
     <use xlink:href="#DejaVuSans-73" x="552.820312"/>
     <use xlink:href="#DejaVuSans-20" x="604.919922"/>
     <use xlink:href="#DejaVuSans-61" x="636.707031"/>
     <use xlink:href="#DejaVuSans-76" x="697.986328"/>
     <use xlink:href="#DejaVuSans-65" x="757.166016"/>
     <use xlink:href="#DejaVuSans-72" x="818.689453"/>
     <use xlink:href="#DejaVuSans-61" x="859.802734"/>
     <use xlink:href="#DejaVuSans-67" x="921.082031"/>
     <use xlink:href="#DejaVuSans-65" x="984.558594"/>
     <use xlink:href="#DejaVuSans-20" x="1046.082031"/>
     <use xlink:href="#DejaVuSans-61" x="1077.869141"/>
     <use xlink:href="#DejaVuSans-6e" x="1139.148438"/>
     <use xlink:href="#DejaVuSans-64" x="1202.527344"/>
     <use xlink:href="#DejaVuSans-20" x="1266.003906"/>
     <use xlink:href="#DejaVuSans-62" x="1297.791016"/>
     <use xlink:href="#DejaVuSans-65" x="1361.267578"/>
     <use xlink:href="#DejaVuSans-73" x="1422.791016"/>
     <use xlink:href="#DejaVuSans-74" x="1474.890625"/>
     <use xlink:href="#DejaVuSans-20" x="1514.099609"/>
     <use xlink:href="#DejaVuSans-66" x="1545.886719"/>
     <use xlink:href="#DejaVuSans-69" x="1581.091797"/>
     <use xlink:href="#DejaVuSans-74" x="1608.875"/>
     <use xlink:href="#DejaVuSans-6e" x="1648.083984"/>
     <use xlink:href="#DejaVuSans-65" x="1711.462891"/>
     <use xlink:href="#DejaVuSans-73" x="1772.986328"/>
     <use xlink:href="#DejaVuSans-73" x="1825.085938"/>
    </g>
   </g>
   <g id="legend_1">
    <g id="patch_7">
     <path d="M 64.6 93.506375 
L 137.540625 93.506375 
Q 139.540625 93.506375 139.540625 91.506375 
L 139.540625 48.472 
Q 139.540625 46.472 137.540625 46.472 
L 64.6 46.472 
Q 62.6 46.472 62.6 48.472 
L 62.6 91.506375 
Q 62.6 93.506375 64.6 93.506375 
z
" style="fill: #ffffff; opacity: 0.8; stroke: #cccccc; stroke-linejoin: miter"/>
    </g>
    <g id="line2d_30">
     <path d="M 66.6 54.570438 
L 76.6 54.570438 
L 86.6 54.570438 
" style="fill: none; stroke: #0000ff; stroke-width: 1.5; stroke-linecap: square"/>
    </g>
    <g id="text_17">
     <!-- average -->
     <g transform="translate(94.6 58.070438) scale(0.1 -0.1)">
      <use xlink:href="#DejaVuSans-61"/>
      <use xlink:href="#DejaVuSans-76" x="61.279297"/>
      <use xlink:href="#DejaVuSans-65" x="120.458984"/>
      <use xlink:href="#DejaVuSans-72" x="181.982422"/>
      <use xlink:href="#DejaVuSans-61" x="223.095703"/>
      <use xlink:href="#DejaVuSans-67" x="284.375"/>
      <use xlink:href="#DejaVuSans-65" x="347.851562"/>
     </g>
    </g>
    <g id="line2d_31">
     <path d="M 66.6 69.248563 
L 76.6 69.248563 
L 86.6 69.248563 
" style="fill: none; stroke-dasharray: 9.6,2.4,1.5,2.4; stroke-dashoffset: 0; stroke: #008000; stroke-width: 1.5"/>
    </g>
    <g id="text_18">
     <!-- +1 sd -->
     <g transform="translate(94.6 72.748563) scale(0.1 -0.1)">
      <defs>
       <path id="DejaVuSans-2b" d="M 2944 4013 
L 2944 2272 
L 4684 2272 
L 4684 1741 
L 2944 1741 
L 2944 0 
L 2419 0 
L 2419 1741 
L 678 1741 
L 678 2272 
L 2419 2272 
L 2419 4013 
L 2944 4013 
z
" transform="scale(0.015625)"/>
      </defs>
      <use xlink:href="#DejaVuSans-2b"/>
      <use xlink:href="#DejaVuSans-31" x="83.789062"/>
      <use xlink:href="#DejaVuSans-20" x="147.412109"/>
      <use xlink:href="#DejaVuSans-73" x="179.199219"/>
      <use xlink:href="#DejaVuSans-64" x="231.298828"/>
     </g>
    </g>
    <g id="line2d_32">
     <path d="M 66.6 83.926688 
L 76.6 83.926688 
L 86.6 83.926688 
" style="fill: none; stroke: #ff0000; stroke-width: 1.5; stroke-linecap: square"/>
    </g>
    <g id="text_19">
     <!-- best -->
     <g transform="translate(94.6 87.426688) scale(0.1 -0.1)">
      <use xlink:href="#DejaVuSans-62"/>
      <use xlink:href="#DejaVuSans-65" x="63.476562"/>
      <use xlink:href="#DejaVuSans-73" x="125"/>
      <use xlink:href="#DejaVuSans-74" x="177.099609"/>
     </g>
    </g>
   </g>
  </g>
 </g>
 <defs>
  <clipPath id="p4476984a30">
   <rect x="57.6" y="41.472" width="357.12" height="266.112"/>
  </clipPath>
 </defs>
</svg>
