<?xml version="1.0" encoding="UTF-8" standalone="no"?>
<!DOCTYPE svg PUBLIC "-//W3C//DTD SVG 1.1//EN"
 "http://www.w3.org/Graphics/SVG/1.1/DTD/svg11.dtd">
<!-- Generated by graphviz version 2.43.0 (0)
 -->
<!-- Title: %3 Pages: 1 -->
<svg width="722pt" height="442pt"
 viewBox="0.00 0.00 721.99 441.91" xmlns="http://www.w3.org/2000/svg" xmlns:xlink="http://www.w3.org/1999/xlink">
<g id="graph0" class="graph" transform="scale(1 1) rotate(0) translate(4 437.91)">
<title>%3</title>
<polygon fill="white" stroke="transparent" points="-4,4 -4,-437.91 717.99,-437.91 717.99,4 -4,4"/>
<!-- &#45;1 -->
<g id="node1" class="node">
<title>&#45;1</title>
<polygon fill="lightgray" stroke="black" points="26,-413.92 0,-413.92 0,-395.92 26,-395.92 26,-413.92"/>
<text text-anchor="middle" x="13" y="-402.72" font-family="Times,serif" font-size="9.00">&#45;1</text>
</g>
<!-- &#45;2 -->
<g id="node2" class="node">
<title>&#45;2</title>
<polygon fill="lightgray" stroke="black" points="70,-413.92 44,-413.92 44,-395.92 70,-395.92 70,-413.92"/>
<text text-anchor="middle" x="57" y="-402.72" font-family="Times,serif" font-size="9.00">&#45;2</text>
</g>
<!-- 8634 -->
<g id="node16" class="node">
<title>8634</title>
<ellipse fill="white" stroke="black" cx="57" cy="-310.94" rx="28.98" ry="28.98"/>
<text text-anchor="middle" x="57" y="-308.74" font-family="Times,serif" font-size="9.00">8634</text>
</g>
<!-- &#45;2&#45;&gt;8634 -->
<g id="edge5" class="edge">
<title>&#45;2&#45;&gt;8634</title>
<path fill="none" stroke="red" stroke-width="0.43" d="M57,-395.76C57,-385.49 57,-367.15 57,-350.24"/>
<polygon fill="red" stroke="red" stroke-width="0.43" points="60.5,-349.98 57,-339.98 53.5,-349.98 60.5,-349.98"/>
</g>
<!-- 0 -->
<g id="node3" class="node">
<title>0</title>
<ellipse fill="lightblue" stroke="black" cx="171" cy="-216.96" rx="16.03" ry="16.03"/>
<text text-anchor="middle" x="171" y="-214.76" font-family="Times,serif" font-size="9.00">0</text>
</g>
<!-- 7171 -->
<g id="node7" class="node">
<title>7171</title>
<ellipse fill="white" stroke="black" cx="152" cy="-28.99" rx="28.98" ry="28.98"/>
<text text-anchor="middle" x="152" y="-26.79" font-family="Times,serif" font-size="9.00">7171</text>
</g>
<!-- 0&#45;&gt;7171 -->
<g id="edge8" class="edge">
<title>0&#45;&gt;7171</title>
<path fill="none" stroke="red" stroke-width="0.42" d="M169.45,-200.74C166.51,-172.01 160.07,-109.01 155.89,-68.09"/>
<polygon fill="red" stroke="red" stroke-width="0.42" points="159.35,-67.54 154.86,-57.95 152.39,-68.25 159.35,-67.54"/>
</g>
<!-- 8849 -->
<g id="node19" class="node">
<title>8849</title>
<ellipse fill="white" stroke="black" cx="209" cy="-122.97" rx="28.98" ry="28.98"/>
<text text-anchor="middle" x="209" y="-120.77" font-family="Times,serif" font-size="9.00">8849</text>
</g>
<!-- 0&#45;&gt;8849 -->
<g id="edge9" class="edge">
<title>0&#45;&gt;8849</title>
<path fill="none" stroke="green" stroke-width="0.2" d="M176.94,-201.58C181.6,-190.31 188.28,-174.12 194.35,-159.45"/>
<polygon fill="green" stroke="green" stroke-width="0.2" points="197.63,-160.67 198.21,-150.09 191.16,-157.99 197.63,-160.67"/>
</g>
<!-- 1 -->
<g id="node4" class="node">
<title>1</title>
<ellipse fill="lightblue" stroke="black" cx="240" cy="-310.94" rx="16.03" ry="16.03"/>
<text text-anchor="middle" x="240" y="-308.74" font-family="Times,serif" font-size="9.00">1</text>
</g>
<!-- 2 -->
<g id="node5" class="node">
<title>2</title>
<ellipse fill="lightblue" stroke="black" cx="57" cy="-122.97" rx="16.03" ry="16.03"/>
<text text-anchor="middle" x="57" y="-120.77" font-family="Times,serif" font-size="9.00">2</text>
</g>
<!-- 3 -->
<g id="node6" class="node">
<title>3</title>
<ellipse fill="lightblue" stroke="black" cx="318" cy="-404.92" rx="16.03" ry="16.03"/>
<text text-anchor="middle" x="318" y="-402.72" font-family="Times,serif" font-size="9.00">3</text>
</g>
<!-- 7696 -->
<g id="node8" class="node">
<title>7696</title>
<ellipse fill="white" stroke="black" cx="57" cy="-216.96" rx="28.98" ry="28.98"/>
<text text-anchor="middle" x="57" y="-214.76" font-family="Times,serif" font-size="9.00">7696</text>
</g>
<!-- 7696&#45;&gt;2 -->
<g id="edge1" class="edge">
<title>7696&#45;&gt;2</title>
<path fill="none" stroke="green" stroke-width="0.28" d="M57,-187.86C57,-175.64 57,-161.43 57,-149.52"/>
<polygon fill="green" stroke="green" stroke-width="0.28" points="60.5,-149.35 57,-139.35 53.5,-149.35 60.5,-149.35"/>
</g>
<!-- 7782 -->
<g id="node9" class="node">
<title>7782</title>
<ellipse fill="white" stroke="black" cx="303" cy="-310.94" rx="28.98" ry="28.98"/>
<text text-anchor="middle" x="303" y="-308.74" font-family="Times,serif" font-size="9.00">7782</text>
</g>
<!-- 8027 -->
<g id="node10" class="node">
<title>8027</title>
<ellipse fill="white" stroke="black" cx="381" cy="-404.92" rx="28.98" ry="28.98"/>
<text text-anchor="middle" x="381" y="-402.72" font-family="Times,serif" font-size="9.00">8027</text>
</g>
<!-- 8234 -->
<g id="node11" class="node">
<title>8234</title>
<ellipse fill="white" stroke="black" cx="457" cy="-404.92" rx="28.98" ry="28.98"/>
<text text-anchor="middle" x="457" y="-402.72" font-family="Times,serif" font-size="9.00">8234</text>
</g>
<!-- 8281 -->
<g id="node12" class="node">
<title>8281</title>
<ellipse fill="white" stroke="black" cx="533" cy="-404.92" rx="28.98" ry="28.98"/>
<text text-anchor="middle" x="533" y="-402.72" font-family="Times,serif" font-size="9.00">8281</text>
</g>
<!-- 8311 -->
<g id="node13" class="node">
<title>8311</title>
<ellipse fill="white" stroke="black" cx="171" cy="-310.94" rx="28.98" ry="28.98"/>
<text text-anchor="middle" x="171" y="-308.74" font-family="Times,serif" font-size="9.00">8311</text>
</g>
<!-- 8311&#45;&gt;0 -->
<g id="edge2" class="edge">
<title>8311&#45;&gt;0</title>
<path fill="none" stroke="green" stroke-width="0.3" stroke-dasharray="1,5" d="M171,-281.84C171,-269.63 171,-255.41 171,-243.5"/>
<polygon fill="green" stroke="green" stroke-width="0.3" points="174.5,-243.33 171,-233.33 167.5,-243.33 174.5,-243.33"/>
</g>
<!-- 8407 -->
<g id="node14" class="node">
<title>8407</title>
<ellipse fill="white" stroke="black" cx="156" cy="-404.92" rx="28.98" ry="28.98"/>
<text text-anchor="middle" x="156" y="-402.72" font-family="Times,serif" font-size="9.00">8407</text>
</g>
<!-- 8407&#45;&gt;7171 -->
<g id="edge3" class="edge">
<title>8407&#45;&gt;7171</title>
<path fill="none" stroke="green" stroke-width="0.49" d="M144.39,-378.01C139.87,-366.59 135.25,-352.84 133,-339.93 116.06,-242.73 133.05,-126.11 144.12,-67.51"/>
<polygon fill="green" stroke="green" stroke-width="0.49" points="147.57,-68.08 146.04,-57.59 140.7,-66.75 147.57,-68.08"/>
</g>
<!-- 8407&#45;&gt;8311 -->
<g id="edge4" class="edge">
<title>8407&#45;&gt;8311</title>
<path fill="none" stroke="red" stroke-width="0.29" d="M160.58,-375.82C161.92,-367.62 163.4,-358.52 164.82,-349.82"/>
<polygon fill="red" stroke="red" stroke-width="0.29" points="168.29,-350.3 166.45,-339.87 161.38,-349.17 168.29,-350.3"/>
</g>
<!-- 8544 -->
<g id="node15" class="node">
<title>8544</title>
<ellipse fill="white" stroke="black" cx="609" cy="-404.92" rx="28.98" ry="28.98"/>
<text text-anchor="middle" x="609" y="-402.72" font-family="Times,serif" font-size="9.00">8544</text>
</g>
<!-- 8634&#45;&gt;7696 -->
<g id="edge6" class="edge">
<title>8634&#45;&gt;7696</title>
<path fill="none" stroke="red" stroke-width="0.11" d="M57,-281.84C57,-273.8 57,-264.9 57,-256.36"/>
<polygon fill="red" stroke="red" stroke-width="0.11" points="60.5,-256.2 57,-246.2 53.5,-256.2 60.5,-256.2"/>
</g>
<!-- 8649 -->
<g id="node17" class="node">
<title>8649</title>
<ellipse fill="white" stroke="black" cx="685" cy="-404.92" rx="28.98" ry="28.98"/>
<text text-anchor="middle" x="685" y="-402.72" font-family="Times,serif" font-size="9.00">8649</text>
</g>
<!-- 8721 -->
<g id="node18" class="node">
<title>8721</title>
<ellipse fill="white" stroke="black" cx="255" cy="-404.92" rx="28.98" ry="28.98"/>
<text text-anchor="middle" x="255" y="-402.72" font-family="Times,serif" font-size="9.00">8721</text>
</g>
<!-- 8721&#45;&gt;1 -->
<g id="edge7" class="edge">
<title>8721&#45;&gt;1</title>
<path fill="none" stroke="red" stroke-width="0.2" d="M250.42,-375.82C248.41,-363.53 246.08,-349.21 244.13,-337.25"/>
<polygon fill="red" stroke="red" stroke-width="0.2" points="247.53,-336.36 242.46,-327.05 240.62,-337.48 247.53,-336.36"/>
</g>
<!-- 8721&#45;&gt;7782 -->
<g id="edge11" class="edge">
<title>8721&#45;&gt;7782</title>
<path fill="none" stroke="green" stroke-width="0.16" d="M268.12,-378.79C273.35,-368.75 279.47,-357.03 285.11,-346.23"/>
<polygon fill="green" stroke="green" stroke-width="0.16" points="288.38,-347.53 289.9,-337.04 282.17,-344.29 288.38,-347.53"/>
</g>
<!-- 8849&#45;&gt;7171 -->
<g id="edge10" class="edge">
<title>8849&#45;&gt;7171</title>
<path fill="none" stroke="red" stroke-width="0.52" d="M194.02,-97.81C187.35,-87.03 179.38,-74.18 172.19,-62.57"/>
<polygon fill="red" stroke="red" stroke-width="0.52" points="175.12,-60.65 166.88,-54 169.17,-64.34 175.12,-60.65"/>
</g>
</g>
</svg>
