<?xml version="1.0" encoding="UTF-8" standalone="no"?>
<!DOCTYPE svg PUBLIC "-//W3C//DTD SVG 1.1//EN"
 "http://www.w3.org/Graphics/SVG/1.1/DTD/svg11.dtd">
<!-- Generated by graphviz version 2.43.0 (0)
 -->
<!-- Title: %3 Pages: 1 -->
<svg width="2065pt" height="311pt"
 viewBox="0.00 0.00 2064.90 311.29" xmlns="http://www.w3.org/2000/svg" xmlns:xlink="http://www.w3.org/1999/xlink">
<g id="graph0" class="graph" transform="scale(1 1) rotate(0) translate(4 307.29)">
<title>%3</title>
<polygon fill="white" stroke="transparent" points="-4,4 -4,-307.29 2060.9,-307.29 2060.9,4 -4,4"/>
<!-- player_x -->
<g id="node1" class="node">
<title>player_x</title>
<polygon fill="lightgray" stroke="black" points="83.15,-238.75 27.15,-238.75 27.15,-220.75 83.15,-220.75 83.15,-238.75"/>
<text text-anchor="middle" x="55.15" y="-227.55" font-family="Times,serif" font-size="9.00">player_x</text>
</g>
<!-- UPLEFTFIRE -->
<g id="node19" class="node">
<title>UPLEFTFIRE</title>
<ellipse fill="lightblue" stroke="black" cx="55.15" cy="-60.1" rx="55.31" ry="55.31"/>
<text text-anchor="middle" x="55.15" y="-57.9" font-family="Times,serif" font-size="9.00">UPLEFTFIRE</text>
</g>
<!-- player_x&#45;&gt;UPLEFTFIRE -->
<g id="edge4" class="edge">
<title>player_x&#45;&gt;UPLEFTFIRE</title>
<path fill="none" stroke="green" stroke-width="0.42" d="M55.15,-220.66C55.15,-203.5 55.15,-162.04 55.15,-125.68"/>
<polygon fill="green" stroke="green" stroke-width="0.42" points="58.65,-125.59 55.15,-115.59 51.65,-125.59 58.65,-125.59"/>
</g>
<!-- player_y -->
<g id="node2" class="node">
<title>player_y</title>
<polygon fill="lightgray" stroke="black" points="254.15,-238.75 198.15,-238.75 198.15,-220.75 254.15,-220.75 254.15,-238.75"/>
<text text-anchor="middle" x="226.15" y="-227.55" font-family="Times,serif" font-size="9.00">player_y</text>
</g>
<!-- RIGHTFIRE -->
<g id="node9" class="node">
<title>RIGHTFIRE</title>
<ellipse fill="lightblue" stroke="black" cx="178.15" cy="-60.1" rx="50.41" ry="50.41"/>
<text text-anchor="middle" x="178.15" y="-57.9" font-family="Times,serif" font-size="9.00">RIGHTFIRE</text>
</g>
<!-- player_y&#45;&gt;RIGHTFIRE -->
<g id="edge1" class="edge">
<title>player_y&#45;&gt;RIGHTFIRE</title>
<path fill="none" stroke="red" stroke-width="0.53" stroke-dasharray="1,5" d="M223.84,-220.66C218.6,-202.35 205.43,-156.35 194.57,-118.42"/>
<polygon fill="red" stroke="red" stroke-width="0.53" points="197.84,-117.13 191.72,-108.48 191.11,-119.05 197.84,-117.13"/>
</g>
<!-- 1782 -->
<g id="node23" class="node">
<title>1782</title>
<ellipse fill="white" stroke="black" cx="275.15" cy="-60.1" rx="28.98" ry="28.98"/>
<text text-anchor="middle" x="275.15" y="-57.9" font-family="Times,serif" font-size="9.00">1782</text>
</g>
<!-- player_y&#45;&gt;1782 -->
<g id="edge3" class="edge">
<title>player_y&#45;&gt;1782</title>
<path fill="none" stroke="red" stroke-width="0.31" d="M228.52,-220.66C234.9,-198.83 252.77,-137.68 264.45,-97.73"/>
<polygon fill="red" stroke="red" stroke-width="0.31" points="267.83,-98.65 267.27,-88.07 261.11,-96.68 267.83,-98.65"/>
</g>
<!-- ball_x -->
<g id="node3" class="node">
<title>ball_x</title>
<polygon fill="lightgray" stroke="black" points="404.15,-238.75 360.15,-238.75 360.15,-220.75 404.15,-220.75 404.15,-238.75"/>
<text text-anchor="middle" x="382.15" y="-227.55" font-family="Times,serif" font-size="9.00">ball_x</text>
</g>
<!-- UPRIGHTFIRE -->
<g id="node18" class="node">
<title>UPRIGHTFIRE</title>
<ellipse fill="lightblue" stroke="black" cx="382.15" cy="-60.1" rx="60.21" ry="60.21"/>
<text text-anchor="middle" x="382.15" y="-57.9" font-family="Times,serif" font-size="9.00">UPRIGHTFIRE</text>
</g>
<!-- ball_x&#45;&gt;UPRIGHTFIRE -->
<g id="edge5" class="edge">
<title>ball_x&#45;&gt;UPRIGHTFIRE</title>
<path fill="none" stroke="green" stroke-width="0.41" d="M382.15,-220.66C382.15,-204.29 382.15,-165.8 382.15,-130.72"/>
<polygon fill="green" stroke="green" stroke-width="0.41" points="385.65,-130.46 382.15,-120.46 378.65,-130.46 385.65,-130.46"/>
</g>
<!-- ball_y -->
<g id="node4" class="node">
<title>ball_y</title>
<polygon fill="lightgray" stroke="black" points="528.15,-238.75 484.15,-238.75 484.15,-220.75 528.15,-220.75 528.15,-238.75"/>
<text text-anchor="middle" x="506.15" y="-227.55" font-family="Times,serif" font-size="9.00">ball_y</text>
</g>
<!-- LEFTFIRE -->
<g id="node16" class="node">
<title>LEFTFIRE</title>
<ellipse fill="lightblue" stroke="black" cx="506.15" cy="-60.1" rx="45.92" ry="45.92"/>
<text text-anchor="middle" x="506.15" y="-57.9" font-family="Times,serif" font-size="9.00">LEFTFIRE</text>
</g>
<!-- ball_y&#45;&gt;LEFTFIRE -->
<g id="edge2" class="edge">
<title>ball_y&#45;&gt;LEFTFIRE</title>
<path fill="none" stroke="red" stroke-width="0.14" stroke-dasharray="1,5" d="M506.15,-220.66C506.15,-201.99 506.15,-154.53 506.15,-116.2"/>
<polygon fill="red" stroke="red" stroke-width="0.14" points="509.65,-116.16 506.15,-106.16 502.65,-116.16 509.65,-116.16"/>
</g>
<!-- NOOP -->
<g id="node5" class="node">
<title>NOOP</title>
<ellipse fill="lightblue" stroke="black" cx="579.15" cy="-229.75" rx="32.55" ry="32.55"/>
<text text-anchor="middle" x="579.15" y="-227.55" font-family="Times,serif" font-size="9.00">NOOP</text>
</g>
<!-- FIRE -->
<g id="node6" class="node">
<title>FIRE</title>
<ellipse fill="lightblue" stroke="black" cx="658.15" cy="-229.75" rx="28.07" ry="28.07"/>
<text text-anchor="middle" x="658.15" y="-227.55" font-family="Times,serif" font-size="9.00">FIRE</text>
</g>
<!-- RIGHT -->
<g id="node7" class="node">
<title>RIGHT</title>
<ellipse fill="lightblue" stroke="black" cx="738.15" cy="-229.75" rx="33.88" ry="33.88"/>
<text text-anchor="middle" x="738.15" y="-227.55" font-family="Times,serif" font-size="9.00">RIGHT</text>
</g>
<!-- LEFT -->
<g id="node8" class="node">
<title>LEFT</title>
<ellipse fill="lightblue" stroke="black" cx="819.15" cy="-229.75" rx="28.98" ry="28.98"/>
<text text-anchor="middle" x="819.15" y="-227.55" font-family="Times,serif" font-size="9.00">LEFT</text>
</g>
<!-- LEFTRIGHTFIRE -->
<g id="node10" class="node">
<title>LEFTRIGHTFIRE</title>
<ellipse fill="lightblue" stroke="black" cx="934.15" cy="-229.75" rx="67.76" ry="67.76"/>
<text text-anchor="middle" x="934.15" y="-227.55" font-family="Times,serif" font-size="9.00">LEFTRIGHTFIRE</text>
</g>
<!-- UPRIGHT -->
<g id="node11" class="node">
<title>UPRIGHT</title>
<ellipse fill="lightblue" stroke="black" cx="1064.15" cy="-229.75" rx="43.68" ry="43.68"/>
<text text-anchor="middle" x="1064.15" y="-227.55" font-family="Times,serif" font-size="9.00">UPRIGHT</text>
</g>
<!-- UPLEFT -->
<g id="node12" class="node">
<title>UPLEFT</title>
<ellipse fill="lightblue" stroke="black" cx="1165.15" cy="-229.75" rx="38.78" ry="38.78"/>
<text text-anchor="middle" x="1165.15" y="-227.55" font-family="Times,serif" font-size="9.00">UPLEFT</text>
</g>
<!-- DOWNRIGHT -->
<g id="node13" class="node">
<title>DOWNRIGHT</title>
<ellipse fill="lightblue" stroke="black" cx="1278.15" cy="-229.75" rx="56.64" ry="56.64"/>
<text text-anchor="middle" x="1278.15" y="-227.55" font-family="Times,serif" font-size="9.00">DOWNRIGHT</text>
</g>
<!-- DOWNLEFT -->
<g id="node14" class="node">
<title>DOWNLEFT</title>
<ellipse fill="lightblue" stroke="black" cx="1405.15" cy="-229.75" rx="52.15" ry="52.15"/>
<text text-anchor="middle" x="1405.15" y="-227.55" font-family="Times,serif" font-size="9.00">DOWNLEFT</text>
</g>
<!-- UPFIRE -->
<g id="node15" class="node">
<title>UPFIRE</title>
<ellipse fill="lightblue" stroke="black" cx="1513.15" cy="-229.75" rx="37.45" ry="37.45"/>
<text text-anchor="middle" x="1513.15" y="-227.55" font-family="Times,serif" font-size="9.00">UPFIRE</text>
</g>
<!-- DOWNFIRE -->
<g id="node17" class="node">
<title>DOWNFIRE</title>
<ellipse fill="lightblue" stroke="black" cx="1619.15" cy="-229.75" rx="50.82" ry="50.82"/>
<text text-anchor="middle" x="1619.15" y="-227.55" font-family="Times,serif" font-size="9.00">DOWNFIRE</text>
</g>
<!-- DOWNRIGHTFIRE -->
<g id="node20" class="node">
<title>DOWNRIGHTFIRE</title>
<ellipse fill="lightblue" stroke="black" cx="1761.15" cy="-229.75" rx="73.58" ry="73.58"/>
<text text-anchor="middle" x="1761.15" y="-227.55" font-family="Times,serif" font-size="9.00">DOWNRIGHTFIRE</text>
</g>
<!-- DOWNLEFTFIRE -->
<g id="node21" class="node">
<title>DOWNLEFTFIRE</title>
<ellipse fill="lightblue" stroke="black" cx="1921.15" cy="-229.75" rx="68.68" ry="68.68"/>
<text text-anchor="middle" x="1921.15" y="-227.55" font-family="Times,serif" font-size="9.00">DOWNLEFTFIRE</text>
</g>
<!-- 505 -->
<g id="node22" class="node">
<title>505</title>
<ellipse fill="white" stroke="black" cx="2032.15" cy="-229.75" rx="25" ry="25"/>
<text text-anchor="middle" x="2032.15" y="-227.55" font-family="Times,serif" font-size="9.00">505</text>
</g>
</g>
</svg>
