<?xml version="1.0" encoding="UTF-8" standalone="no"?>
<!DOCTYPE svg PUBLIC "-//W3C//DTD SVG 1.1//EN"
 "http://www.w3.org/Graphics/SVG/1.1/DTD/svg11.dtd">
<!-- Generated by graphviz version 2.43.0 (0)
 -->
<!-- Title: %3 Pages: 1 -->
<svg width="569pt" height="65pt"
 viewBox="0.00 0.00 569.25 64.57" xmlns="http://www.w3.org/2000/svg" xmlns:xlink="http://www.w3.org/1999/xlink">
<g id="graph0" class="graph" transform="scale(1 1) rotate(0) translate(4 60.57)">
<title>%3</title>
<polygon fill="white" stroke="transparent" points="-4,4 -4,-60.57 565.25,-60.57 565.25,4 -4,4"/>
<!-- flag_is_on_right -->
<g id="node1" class="node">
<title>flag_is_on_right</title>
<polygon fill="lightgray" stroke="black" points="89,-37.28 0,-37.28 0,-19.28 89,-19.28 89,-37.28"/>
<text text-anchor="middle" x="44.5" y="-26.08" font-family="Times,serif" font-size="9.00">flag_is_on_right</text>
</g>
<!-- angle -->
<g id="node2" class="node">
<title>angle</title>
<polygon fill="lightgray" stroke="black" points="148.5,-37.28 106.5,-37.28 106.5,-19.28 148.5,-19.28 148.5,-37.28"/>
<text text-anchor="middle" x="127.5" y="-26.08" font-family="Times,serif" font-size="9.00">angle</text>
</g>
<!-- noop -->
<g id="node3" class="node">
<title>noop</title>
<ellipse fill="lightblue" stroke="black" cx="194.5" cy="-28.28" rx="27.65" ry="27.65"/>
<text text-anchor="middle" x="194.5" y="-26.08" font-family="Times,serif" font-size="9.00">noop</text>
</g>
<!-- right -->
<g id="node4" class="node">
<title>right</title>
<ellipse fill="lightblue" stroke="black" cx="268.5" cy="-28.28" rx="28.07" ry="28.07"/>
<text text-anchor="middle" x="268.5" y="-26.08" font-family="Times,serif" font-size="9.00">right</text>
</g>
<!-- left -->
<g id="node5" class="node">
<title>left</title>
<ellipse fill="lightblue" stroke="black" cx="337.5" cy="-28.28" rx="22.76" ry="22.76"/>
<text text-anchor="middle" x="337.5" y="-26.08" font-family="Times,serif" font-size="9.00">left</text>
</g>
<!-- 150 -->
<g id="node6" class="node">
<title>150</title>
<ellipse fill="white" stroke="black" cx="402.5" cy="-28.28" rx="25" ry="25"/>
<text text-anchor="middle" x="402.5" y="-26.08" font-family="Times,serif" font-size="9.00">150</text>
</g>
<!-- 343 -->
<g id="node7" class="node">
<title>343</title>
<ellipse fill="white" stroke="black" cx="469.5" cy="-28.28" rx="25" ry="25"/>
<text text-anchor="middle" x="469.5" y="-26.08" font-family="Times,serif" font-size="9.00">343</text>
</g>
<!-- 464 -->
<g id="node8" class="node">
<title>464</title>
<ellipse fill="white" stroke="black" cx="536.5" cy="-28.28" rx="25" ry="25"/>
<text text-anchor="middle" x="536.5" y="-26.08" font-family="Times,serif" font-size="9.00">464</text>
</g>
</g>
</svg>
