<?xml version="1.0" encoding="UTF-8" standalone="no"?>
<!DOCTYPE svg PUBLIC "-//W3C//DTD SVG 1.1//EN"
 "http://www.w3.org/Graphics/SVG/1.1/DTD/svg11.dtd">
<!-- Generated by graphviz version 2.43.0 (0)
 -->
<!-- Title: %3 Pages: 1 -->
<svg width="326pt" height="150pt"
 viewBox="0.00 0.00 326.13 150.07" xmlns="http://www.w3.org/2000/svg" xmlns:xlink="http://www.w3.org/1999/xlink">
<g id="graph0" class="graph" transform="scale(1 1) rotate(0) translate(4 146.07)">
<title>%3</title>
<polygon fill="white" stroke="transparent" points="-4,4 -4,-146.07 322.13,-146.07 322.13,4 -4,4"/>
<!-- flag_is_on_right -->
<g id="node1" class="node">
<title>flag_is_on_right</title>
<polygon fill="lightgray" stroke="black" points="89,-122.78 0,-122.78 0,-104.78 89,-104.78 89,-122.78"/>
<text text-anchor="middle" x="44.5" y="-111.58" font-family="Times,serif" font-size="9.00">flag_is_on_right</text>
</g>
<!-- noop -->
<g id="node2" class="node">
<title>noop</title>
<ellipse fill="lightblue" stroke="black" cx="134.5" cy="-113.78" rx="27.65" ry="27.65"/>
<text text-anchor="middle" x="134.5" y="-111.58" font-family="Times,serif" font-size="9.00">noop</text>
</g>
<!-- right -->
<g id="node3" class="node">
<title>right</title>
<ellipse fill="lightblue" stroke="black" cx="208.5" cy="-113.78" rx="28.07" ry="28.07"/>
<text text-anchor="middle" x="208.5" y="-111.58" font-family="Times,serif" font-size="9.00">right</text>
</g>
<!-- right&#45;&gt;right -->
<g id="edge1" class="edge">
<title>right&#45;&gt;right</title>
<path fill="none" stroke="red" stroke-width="0.31" d="M232.31,-129.79C244.19,-132.01 254.78,-126.67 254.78,-113.78 254.78,-104.92 249.78,-99.63 242.79,-97.9"/>
<polygon fill="red" stroke="red" stroke-width="0.31" points="242.36,-94.4 232.31,-97.77 242.27,-101.4 242.36,-94.4"/>
</g>
<!-- 252 -->
<g id="node5" class="node">
<title>252</title>
<ellipse fill="white" stroke="black" cx="251.5" cy="-24.75" rx="25" ry="25"/>
<text text-anchor="middle" x="251.5" y="-22.55" font-family="Times,serif" font-size="9.00">252</text>
</g>
<!-- right&#45;&gt;252 -->
<g id="edge3" class="edge">
<title>right&#45;&gt;252</title>
<path fill="none" stroke="green" stroke-width="0.53" d="M220.71,-88.07C225.57,-78.22 231.23,-66.78 236.35,-56.41"/>
<polygon fill="green" stroke="green" stroke-width="0.53" points="239.58,-57.78 240.87,-47.26 233.3,-54.68 239.58,-57.78"/>
</g>
<!-- left -->
<g id="node4" class="node">
<title>left</title>
<ellipse fill="lightblue" stroke="black" cx="295.5" cy="-113.78" rx="22.76" ry="22.76"/>
<text text-anchor="middle" x="295.5" y="-111.58" font-family="Times,serif" font-size="9.00">left</text>
</g>
<!-- left&#45;&gt;252 -->
<g id="edge2" class="edge">
<title>left&#45;&gt;252</title>
<path fill="none" stroke="green" stroke-width="0.12" stroke-dasharray="1,5" d="M285.52,-93.03C280.02,-82.16 273.08,-68.44 266.91,-56.22"/>
<polygon fill="green" stroke="green" stroke-width="0.12" points="270,-54.59 262.37,-47.25 263.76,-57.75 270,-54.59"/>
</g>
<!-- 252&#45;&gt;252 -->
<g id="edge4" class="edge">
<title>252&#45;&gt;252</title>
<path fill="none" stroke="green" stroke-width="0.48" d="M271.29,-40.22C283.12,-43.65 294.25,-38.5 294.25,-24.75 294.25,-15.08 288.75,-9.66 281.37,-8.49"/>
<polygon fill="green" stroke="green" stroke-width="0.48" points="280.98,-5.01 271.29,-9.28 281.53,-11.99 280.98,-5.01"/>
</g>
</g>
</svg>
