<?xml version="1.0" encoding="UTF-8" standalone="no"?>
<!DOCTYPE svg PUBLIC "-//W3C//DTD SVG 1.1//EN"
 "http://www.w3.org/Graphics/SVG/1.1/DTD/svg11.dtd">
<!-- Generated by graphviz version 2.43.0 (0)
 -->
<!-- Title: %3 Pages: 1 -->
<svg width="428pt" height="365pt"
 viewBox="0.00 0.00 427.81 364.90" xmlns="http://www.w3.org/2000/svg" xmlns:xlink="http://www.w3.org/1999/xlink">
<g id="graph0" class="graph" transform="scale(1 1) rotate(0) translate(4 360.9)">
<title>%3</title>
<polygon fill="white" stroke="transparent" points="-4,4 -4,-360.9 423.81,-360.9 423.81,4 -4,4"/>
<!-- ball_left -->
<g id="node1" class="node">
<title>ball_left</title>
<polygon fill="lightgray" stroke="black" points="110.78,-235.86 57.78,-235.86 57.78,-217.86 110.78,-217.86 110.78,-235.86"/>
<text text-anchor="middle" x="84.28" y="-224.66" font-family="Times,serif" font-size="9.00">ball_left</text>
</g>
<!-- FIRE -->
<g id="node5" class="node">
<title>FIRE</title>
<ellipse fill="lightblue" stroke="black" cx="28.28" cy="-132.87" rx="28.07" ry="28.07"/>
<text text-anchor="middle" x="28.28" y="-130.67" font-family="Times,serif" font-size="9.00">FIRE</text>
</g>
<!-- ball_left&#45;&gt;FIRE -->
<g id="edge1" class="edge">
<title>ball_left&#45;&gt;FIRE</title>
<path fill="none" stroke="red" stroke-width="0.57" d="M79.31,-217.69C72.32,-206.21 59.18,-184.62 47.98,-166.23"/>
<polygon fill="red" stroke="red" stroke-width="0.57" points="50.87,-164.24 42.68,-157.52 44.89,-167.88 50.87,-164.24"/>
</g>
<!-- RIGHT -->
<g id="node6" class="node">
<title>RIGHT</title>
<ellipse fill="lightblue" stroke="black" cx="141.28" cy="-33.94" rx="33.88" ry="33.88"/>
<text text-anchor="middle" x="141.28" y="-31.74" font-family="Times,serif" font-size="9.00">RIGHT</text>
</g>
<!-- ball_left&#45;&gt;RIGHT -->
<g id="edge3" class="edge">
<title>ball_left&#45;&gt;RIGHT</title>
<path fill="none" stroke="red" stroke-width="0.24" stroke-dasharray="1,5" d="M84.58,-217.63C85.51,-197.63 89.22,-145.05 103.28,-103.88 107,-92.99 112.39,-81.8 117.94,-71.69"/>
<polygon fill="red" stroke="red" stroke-width="0.24" points="121.13,-73.17 123.04,-62.75 115.05,-69.7 121.13,-73.17"/>
</g>
<!-- 1530 -->
<g id="node10" class="node">
<title>1530</title>
<ellipse fill="white" stroke="black" cx="141.28" cy="-132.87" rx="28.98" ry="28.98"/>
<text text-anchor="middle" x="141.28" y="-130.67" font-family="Times,serif" font-size="9.00">1530</text>
</g>
<!-- ball_left&#45;&gt;1530 -->
<g id="edge5" class="edge">
<title>ball_left&#45;&gt;1530</title>
<path fill="none" stroke="green" stroke-width="0.28" d="M89.34,-217.69C96.41,-206.28 109.66,-184.9 121.01,-166.59"/>
<polygon fill="green" stroke="green" stroke-width="0.28" points="124.1,-168.25 126.39,-157.91 118.15,-164.56 124.1,-168.25"/>
</g>
<!-- 1649 -->
<g id="node11" class="node">
<title>1649</title>
<ellipse fill="white" stroke="black" cx="217.28" cy="-132.87" rx="28.98" ry="28.98"/>
<text text-anchor="middle" x="217.28" y="-130.67" font-family="Times,serif" font-size="9.00">1649</text>
</g>
<!-- ball_left&#45;&gt;1649 -->
<g id="edge8" class="edge">
<title>ball_left&#45;&gt;1649</title>
<path fill="none" stroke="green" stroke-width="0.3" stroke-dasharray="1,5" d="M93.82,-217.65C100.71,-211.87 110.34,-204.08 119.28,-197.87 144.82,-180.11 153.4,-179.11 179.28,-161.87 181.65,-160.29 184.07,-158.63 186.49,-156.93"/>
<polygon fill="green" stroke="green" stroke-width="0.3" points="188.53,-159.77 194.63,-151.1 184.46,-154.08 188.53,-159.77"/>
</g>
<!-- ball_right -->
<g id="node2" class="node">
<title>ball_right</title>
<polygon fill="lightgray" stroke="black" points="336.28,-333.37 274.28,-333.37 274.28,-315.37 336.28,-315.37 336.28,-333.37"/>
<text text-anchor="middle" x="305.28" y="-322.17" font-family="Times,serif" font-size="9.00">ball_right</text>
</g>
<!-- ball_out -->
<g id="node3" class="node">
<title>ball_out</title>
<polygon fill="lightgray" stroke="black" points="255.78,-333.37 202.78,-333.37 202.78,-315.37 255.78,-315.37 255.78,-333.37"/>
<text text-anchor="middle" x="229.28" y="-322.17" font-family="Times,serif" font-size="9.00">ball_out</text>
</g>
<!-- LEFT -->
<g id="node7" class="node">
<title>LEFT</title>
<ellipse fill="lightblue" stroke="black" cx="157.28" cy="-226.86" rx="28.98" ry="28.98"/>
<text text-anchor="middle" x="157.28" y="-224.66" font-family="Times,serif" font-size="9.00">LEFT</text>
</g>
<!-- ball_out&#45;&gt;LEFT -->
<g id="edge4" class="edge">
<title>ball_out&#45;&gt;LEFT</title>
<path fill="none" stroke="green" stroke-width="0.38" d="M223.15,-315.23C213.8,-302.84 195.52,-278.58 180.58,-258.77"/>
<polygon fill="green" stroke="green" stroke-width="0.38" points="183.24,-256.47 174.42,-250.6 177.65,-260.69 183.24,-256.47"/>
</g>
<!-- 301 -->
<g id="node8" class="node">
<title>301</title>
<ellipse fill="white" stroke="black" cx="229.28" cy="-226.86" rx="25" ry="25"/>
<text text-anchor="middle" x="229.28" y="-224.66" font-family="Times,serif" font-size="9.00">301</text>
</g>
<!-- ball_out&#45;&gt;301 -->
<g id="edge2" class="edge">
<title>ball_out&#45;&gt;301</title>
<path fill="none" stroke="green" stroke-width="0.26" d="M229.28,-315.23C229.28,-303.51 229.28,-281.17 229.28,-262.02"/>
<polygon fill="green" stroke="green" stroke-width="0.26" points="232.78,-261.8 229.28,-251.8 225.78,-261.8 232.78,-261.8"/>
</g>
<!-- 589 -->
<g id="node9" class="node">
<title>589</title>
<ellipse fill="white" stroke="black" cx="296.28" cy="-226.86" rx="25" ry="25"/>
<text text-anchor="middle" x="296.28" y="-224.66" font-family="Times,serif" font-size="9.00">589</text>
</g>
<!-- ball_out&#45;&gt;589 -->
<g id="edge7" class="edge">
<title>ball_out&#45;&gt;589</title>
<path fill="none" stroke="red" stroke-width="0.56" stroke-dasharray="1,5" d="M235,-315.23C244.13,-302.2 262.46,-276.08 276.7,-255.78"/>
<polygon fill="red" stroke="red" stroke-width="0.56" points="279.64,-257.68 282.52,-247.49 273.91,-253.66 279.64,-257.68"/>
</g>
<!-- NOOP -->
<g id="node4" class="node">
<title>NOOP</title>
<ellipse fill="lightblue" stroke="black" cx="387.28" cy="-324.37" rx="32.55" ry="32.55"/>
<text text-anchor="middle" x="387.28" y="-322.17" font-family="Times,serif" font-size="9.00">NOOP</text>
</g>
<!-- 301&#45;&gt;1649 -->
<g id="edge10" class="edge">
<title>301&#45;&gt;1649</title>
<path fill="none" stroke="green" stroke-width="0.37" d="M226.19,-202.17C224.99,-192.91 223.57,-182.05 222.23,-171.76"/>
<polygon fill="green" stroke="green" stroke-width="0.37" points="225.68,-171.19 220.92,-161.73 218.74,-172.1 225.68,-171.19"/>
</g>
<!-- 1530&#45;&gt;RIGHT -->
<g id="edge6" class="edge">
<title>1530&#45;&gt;RIGHT</title>
<path fill="none" stroke="green" stroke-width="0.14" d="M141.28,-103.84C141.28,-95.8 141.28,-86.84 141.28,-78.12"/>
<polygon fill="green" stroke="green" stroke-width="0.14" points="144.78,-78.05 141.28,-68.05 137.78,-78.05 144.78,-78.05"/>
</g>
<!-- 1649&#45;&gt;RIGHT -->
<g id="edge9" class="edge">
<title>1649&#45;&gt;RIGHT</title>
<path fill="none" stroke="green" stroke-width="0.14" d="M199.66,-109.39C190.29,-97.44 178.57,-82.5 168.1,-69.15"/>
<polygon fill="green" stroke="green" stroke-width="0.14" points="170.7,-66.79 161.78,-61.08 165.19,-71.11 170.7,-66.79"/>
</g>
</g>
</svg>
