<?xml version="1.0" encoding="UTF-8" standalone="no"?>
<!DOCTYPE svg PUBLIC "-//W3C//DTD SVG 1.1//EN"
 "http://www.w3.org/Graphics/SVG/1.1/DTD/svg11.dtd">
<!-- Generated by graphviz version 2.43.0 (0)
 -->
<!-- Title: %3 Pages: 1 -->
<svg width="431pt" height="172pt"
 viewBox="0.00 0.00 430.50 171.54" xmlns="http://www.w3.org/2000/svg" xmlns:xlink="http://www.w3.org/1999/xlink">
<g id="graph0" class="graph" transform="scale(1 1) rotate(0) translate(4 167.54)">
<title>%3</title>
<polygon fill="white" stroke="transparent" points="-4,4 -4,-167.54 426.5,-167.54 426.5,4 -4,4"/>
<!-- &#45;1 -->
<g id="node1" class="node">
<title>&#45;1</title>
<polygon fill="lightgray" stroke="black" points="316.26,-163.54 290.26,-163.54 290.26,-145.54 316.26,-145.54 316.26,-163.54"/>
<text text-anchor="middle" x="303.26" y="-152.34" font-family="Times,serif" font-size="9.00">&#45;1</text>
</g>
<!-- 1 -->
<g id="node6" class="node">
<title>1</title>
<ellipse fill="lightblue" stroke="black" cx="173.26" cy="-89.03" rx="16.03" ry="16.03"/>
<text text-anchor="middle" x="173.26" y="-86.83" font-family="Times,serif" font-size="9.00">1</text>
</g>
<!-- &#45;1&#45;&gt;1 -->
<g id="edge1" class="edge">
<title>&#45;1&#45;&gt;1</title>
<path fill="none" stroke="red" stroke-width="0.12" d="M289.97,-149.09C269.71,-142.06 230.19,-127.33 199.26,-109.54 197.32,-108.42 195.35,-107.18 193.41,-105.87"/>
<polygon fill="red" stroke="red" stroke-width="0.12" points="195.43,-103.02 185.27,-100 191.33,-108.69 195.43,-103.02"/>
</g>
<!-- 2 -->
<g id="node7" class="node">
<title>2</title>
<ellipse fill="lightblue" stroke="black" cx="372.26" cy="-89.03" rx="16.03" ry="16.03"/>
<text text-anchor="middle" x="372.26" y="-86.83" font-family="Times,serif" font-size="9.00">2</text>
</g>
<!-- &#45;1&#45;&gt;2 -->
<g id="edge11" class="edge">
<title>&#45;1&#45;&gt;2</title>
<path fill="none" stroke="green" stroke-width="0.47" d="M312,-145.5C322.31,-136.01 339.74,-119.96 353.21,-107.57"/>
<polygon fill="green" stroke="green" stroke-width="0.47" points="355.62,-110.11 360.6,-100.76 350.88,-104.96 355.62,-110.11"/>
</g>
<!-- 3 -->
<g id="node8" class="node">
<title>3</title>
<ellipse fill="lightblue" stroke="black" cx="303.26" cy="-16.26" rx="16.03" ry="16.03"/>
<text text-anchor="middle" x="303.26" y="-14.06" font-family="Times,serif" font-size="9.00">3</text>
</g>
<!-- &#45;1&#45;&gt;3 -->
<g id="edge13" class="edge">
<title>&#45;1&#45;&gt;3</title>
<path fill="none" stroke="green" stroke-width="0.21" stroke-dasharray="1,5" d="M304.7,-145.46C306.19,-136.66 308.41,-122.15 309.26,-109.54 310.5,-91.35 310.32,-86.72 309.26,-68.53 308.77,-60.07 307.82,-50.86 306.82,-42.62"/>
<polygon fill="green" stroke="green" stroke-width="0.21" points="310.27,-41.95 305.51,-32.48 303.32,-42.84 310.27,-41.95"/>
</g>
<!-- 45 -->
<g id="node11" class="node">
<title>45</title>
<ellipse fill="white" stroke="black" cx="279.26" cy="-89.03" rx="20.51" ry="20.51"/>
<text text-anchor="middle" x="279.26" y="-86.83" font-family="Times,serif" font-size="9.00">45</text>
</g>
<!-- &#45;1&#45;&gt;45 -->
<g id="edge14" class="edge">
<title>&#45;1&#45;&gt;45</title>
<path fill="none" stroke="green" stroke-width="0.25" d="M300.22,-145.5C297.57,-138.46 293.55,-127.83 289.74,-117.75"/>
<polygon fill="green" stroke="green" stroke-width="0.25" points="293.01,-116.5 286.2,-108.38 286.46,-118.98 293.01,-116.5"/>
</g>
<!-- &#45;2 -->
<g id="node2" class="node">
<title>&#45;2</title>
<polygon fill="lightgray" stroke="black" points="416.26,-163.54 390.26,-163.54 390.26,-145.54 416.26,-145.54 416.26,-163.54"/>
<text text-anchor="middle" x="403.26" y="-152.34" font-family="Times,serif" font-size="9.00">&#45;2</text>
</g>
<!-- &#45;2&#45;&gt;2 -->
<g id="edge8" class="edge">
<title>&#45;2&#45;&gt;2</title>
<path fill="none" stroke="red" stroke-width="0.21" d="M399.34,-145.5C395.37,-137.36 389.04,-124.4 383.5,-113.05"/>
<polygon fill="red" stroke="red" stroke-width="0.21" points="386.63,-111.49 379.1,-104.04 380.34,-114.57 386.63,-111.49"/>
</g>
<!-- &#45;2&#45;&gt;3 -->
<g id="edge2" class="edge">
<title>&#45;2&#45;&gt;3</title>
<path fill="none" stroke="red" stroke-width="0.44" d="M407.78,-145.28C415.94,-129.13 430.89,-92.86 415.26,-68.53 396.39,-39.14 356.02,-26.38 329.25,-21"/>
<polygon fill="red" stroke="red" stroke-width="0.44" points="329.86,-17.55 319.4,-19.22 328.62,-24.44 329.86,-17.55"/>
</g>
<!-- &#45;3 -->
<g id="node3" class="node">
<title>&#45;3</title>
<polygon fill="lightgray" stroke="black" points="142.26,-163.54 116.26,-163.54 116.26,-145.54 142.26,-145.54 142.26,-163.54"/>
<text text-anchor="middle" x="129.26" y="-152.34" font-family="Times,serif" font-size="9.00">&#45;3</text>
</g>
<!-- 0 -->
<g id="node5" class="node">
<title>0</title>
<ellipse fill="lightblue" stroke="black" cx="85.26" cy="-89.03" rx="16.03" ry="16.03"/>
<text text-anchor="middle" x="85.26" y="-86.83" font-family="Times,serif" font-size="9.00">0</text>
</g>
<!-- &#45;3&#45;&gt;0 -->
<g id="edge6" class="edge">
<title>&#45;3&#45;&gt;0</title>
<path fill="none" stroke="red" stroke-width="0.24" d="M123.69,-145.5C117.79,-136.99 108.24,-123.19 100.13,-111.49"/>
<polygon fill="red" stroke="red" stroke-width="0.24" points="102.87,-109.3 94.3,-103.08 97.12,-113.29 102.87,-109.3"/>
</g>
<!-- &#45;3&#45;&gt;3 -->
<g id="edge5" class="edge">
<title>&#45;3&#45;&gt;3</title>
<path fill="none" stroke="green" stroke-width="0.38" d="M128.63,-145.34C127.8,-128.66 128.37,-90.5 148.26,-68.53 181.56,-31.74 241.8,-21.29 276.56,-18.36"/>
<polygon fill="green" stroke="green" stroke-width="0.38" points="277.15,-21.83 286.89,-17.65 276.67,-14.85 277.15,-21.83"/>
</g>
<!-- 4 -->
<g id="node9" class="node">
<title>4</title>
<ellipse fill="lightblue" stroke="black" cx="224.26" cy="-89.03" rx="16.03" ry="16.03"/>
<text text-anchor="middle" x="224.26" y="-86.83" font-family="Times,serif" font-size="9.00">4</text>
</g>
<!-- &#45;3&#45;&gt;4 -->
<g id="edge3" class="edge">
<title>&#45;3&#45;&gt;4</title>
<path fill="none" stroke="red" stroke-width="0.62" d="M142.43,-145.56C156.46,-136.96 179.22,-122.72 198.26,-109.54 199.93,-108.38 201.65,-107.17 203.36,-105.93"/>
<polygon fill="red" stroke="red" stroke-width="0.62" points="205.75,-108.51 211.71,-99.75 201.59,-102.89 205.75,-108.51"/>
</g>
<!-- &#45;4 -->
<g id="node4" class="node">
<title>&#45;4</title>
<polygon fill="lightgray" stroke="black" points="98.26,-163.54 72.26,-163.54 72.26,-145.54 98.26,-145.54 98.26,-163.54"/>
<text text-anchor="middle" x="85.26" y="-152.34" font-family="Times,serif" font-size="9.00">&#45;4</text>
</g>
<!-- &#45;4&#45;&gt;0 -->
<g id="edge10" class="edge">
<title>&#45;4&#45;&gt;0</title>
<path fill="none" stroke="green" stroke-width="0.12" d="M85.26,-145.5C85.26,-137.99 85.26,-126.37 85.26,-115.7"/>
<polygon fill="green" stroke="green" stroke-width="0.12" points="88.76,-115.54 85.26,-105.54 81.76,-115.54 88.76,-115.54"/>
</g>
<!-- &#45;4&#45;&gt;1 -->
<g id="edge9" class="edge">
<title>&#45;4&#45;&gt;1</title>
<path fill="none" stroke="red" stroke-width="0.18" d="M96.41,-145.5C110.35,-135.43 134.52,-117.99 152.04,-105.35"/>
<polygon fill="red" stroke="red" stroke-width="0.18" points="154.44,-107.93 160.5,-99.24 150.34,-102.26 154.44,-107.93"/>
</g>
<!-- 5 -->
<g id="node10" class="node">
<title>5</title>
<ellipse fill="lightblue" stroke="black" cx="16.26" cy="-89.03" rx="16.03" ry="16.03"/>
<text text-anchor="middle" x="16.26" y="-86.83" font-family="Times,serif" font-size="9.00">5</text>
</g>
<!-- &#45;4&#45;&gt;5 -->
<g id="edge12" class="edge">
<title>&#45;4&#45;&gt;5</title>
<path fill="none" stroke="green" stroke-width="0.36" d="M76.52,-145.5C66.22,-136.01 48.78,-119.96 35.31,-107.57"/>
<polygon fill="green" stroke="green" stroke-width="0.36" points="37.65,-104.96 27.92,-100.76 32.91,-110.11 37.65,-104.96"/>
</g>
<!-- 2&#45;&gt;2 -->
<g id="edge7" class="edge">
<title>2&#45;&gt;2</title>
<path fill="none" stroke="red" stroke-width="0.65" d="M385.27,-99.35C395.73,-103.47 406.53,-100.03 406.53,-89.03 406.53,-81.64 401.65,-77.67 395.28,-77.1"/>
<polygon fill="red" stroke="red" stroke-width="0.65" points="394.58,-73.67 385.27,-78.72 395.7,-80.58 394.58,-73.67"/>
</g>
<!-- 5&#45;&gt;5 -->
<g id="edge4" class="edge">
<title>5&#45;&gt;5</title>
<path fill="none" stroke="green" stroke-width="0.36" d="M29.27,-99.35C39.73,-103.47 50.53,-100.03 50.53,-89.03 50.53,-81.64 45.65,-77.67 39.28,-77.1"/>
<polygon fill="green" stroke="green" stroke-width="0.36" points="38.58,-73.67 29.27,-78.72 39.7,-80.58 38.58,-73.67"/>
</g>
<!-- 45&#45;&gt;3 -->
<g id="edge15" class="edge">
<title>45&#45;&gt;3</title>
<path fill="none" stroke="red" stroke-width="0.14" d="M285.57,-69.44C288.43,-60.99 291.86,-50.88 294.94,-41.81"/>
<polygon fill="red" stroke="red" stroke-width="0.14" points="298.31,-42.76 298.21,-32.17 291.68,-40.52 298.31,-42.76"/>
</g>
</g>
</svg>
