<?xml version="1.0" encoding="UTF-8" standalone="no"?>
<!DOCTYPE svg PUBLIC "-//W3C//DTD SVG 1.1//EN"
 "http://www.w3.org/Graphics/SVG/1.1/DTD/svg11.dtd">
<!-- Generated by graphviz version 2.43.0 (0)
 -->
<!-- Title: %3 Pages: 1 -->
<svg width="390pt" height="297pt"
 viewBox="0.00 0.00 390.26 297.02" xmlns="http://www.w3.org/2000/svg" xmlns:xlink="http://www.w3.org/1999/xlink">
<g id="graph0" class="graph" transform="scale(1 1) rotate(0) translate(4 293.02)">
<title>%3</title>
<polygon fill="white" stroke="transparent" points="-4,4 -4,-293.02 386.26,-293.02 386.26,4 -4,4"/>
<!-- &#45;1 -->
<g id="node1" class="node">
<title>&#45;1</title>
<polygon fill="lightgray" stroke="black" points="237,-281.76 211,-281.76 211,-263.76 237,-263.76 237,-281.76"/>
<text text-anchor="middle" x="224" y="-270.56" font-family="Times,serif" font-size="9.00">&#45;1</text>
</g>
<!-- 5 -->
<g id="node10" class="node">
<title>5</title>
<ellipse fill="lightblue" stroke="black" cx="112" cy="-16.26" rx="16.03" ry="16.03"/>
<text text-anchor="middle" x="112" y="-14.06" font-family="Times,serif" font-size="9.00">5</text>
</g>
<!-- &#45;1&#45;&gt;5 -->
<g id="edge12" class="edge">
<title>&#45;1&#45;&gt;5</title>
<path fill="none" stroke="red" stroke-width="0.24" d="M210.78,-263.85C196.43,-254.76 173.49,-238.74 158,-220.49 127.25,-184.26 118.69,-172.57 107,-126.51 99.85,-98.36 103.03,-64.84 106.75,-42.43"/>
<polygon fill="red" stroke="red" stroke-width="0.24" points="110.23,-42.85 108.57,-32.39 103.34,-41.6 110.23,-42.85"/>
</g>
<!-- 1974 -->
<g id="node13" class="node">
<title>1974</title>
<ellipse fill="white" stroke="black" cx="289" cy="-97.52" rx="28.98" ry="28.98"/>
<text text-anchor="middle" x="289" y="-95.32" font-family="Times,serif" font-size="9.00">1974</text>
</g>
<!-- &#45;1&#45;&gt;1974 -->
<g id="edge4" class="edge">
<title>&#45;1&#45;&gt;1974</title>
<path fill="none" stroke="green" stroke-width="0.34" stroke-dasharray="1,5" d="M227.14,-263.4C235.73,-240.5 260.04,-175.7 275.51,-134.48"/>
<polygon fill="green" stroke="green" stroke-width="0.34" points="278.81,-135.65 279.04,-125.06 272.25,-133.19 278.81,-135.65"/>
</g>
<!-- 2237 -->
<g id="node15" class="node">
<title>2237</title>
<ellipse fill="white" stroke="black" cx="196" cy="-191.5" rx="28.98" ry="28.98"/>
<text text-anchor="middle" x="196" y="-189.3" font-family="Times,serif" font-size="9.00">2237</text>
</g>
<!-- &#45;1&#45;&gt;2237 -->
<g id="edge8" class="edge">
<title>&#45;1&#45;&gt;2237</title>
<path fill="none" stroke="red" stroke-width="0.33" d="M221.11,-263.57C218.17,-255.25 213.41,-241.77 208.81,-228.77"/>
<polygon fill="red" stroke="red" stroke-width="0.33" points="212,-227.29 205.37,-219.02 205.4,-229.62 212,-227.29"/>
</g>
<!-- 2733 -->
<g id="node16" class="node">
<title>2733</title>
<ellipse fill="white" stroke="black" cx="310" cy="-191.5" rx="28.98" ry="28.98"/>
<text text-anchor="middle" x="310" y="-189.3" font-family="Times,serif" font-size="9.00">2733</text>
</g>
<!-- &#45;1&#45;&gt;2733 -->
<g id="edge14" class="edge">
<title>&#45;1&#45;&gt;2733</title>
<path fill="none" stroke="red" stroke-width="0.28" d="M232.88,-263.57C244.27,-253.08 264.57,-234.37 281.48,-218.78"/>
<polygon fill="red" stroke="red" stroke-width="0.28" points="283.99,-221.23 288.97,-211.88 279.25,-216.08 283.99,-221.23"/>
</g>
<!-- &#45;2 -->
<g id="node2" class="node">
<title>&#45;2</title>
<polygon fill="lightgray" stroke="black" points="26,-281.76 0,-281.76 0,-263.76 26,-263.76 26,-281.76"/>
<text text-anchor="middle" x="13" y="-270.56" font-family="Times,serif" font-size="9.00">&#45;2</text>
</g>
<!-- 940 -->
<g id="node12" class="node">
<title>940</title>
<ellipse fill="white" stroke="black" cx="35" cy="-191.5" rx="25" ry="25"/>
<text text-anchor="middle" x="35" y="-189.3" font-family="Times,serif" font-size="9.00">940</text>
</g>
<!-- &#45;2&#45;&gt;940 -->
<g id="edge3" class="edge">
<title>&#45;2&#45;&gt;940</title>
<path fill="none" stroke="red" stroke-width="1.4" d="M15.27,-263.57C17.78,-254.53 21.98,-239.41 25.86,-225.42"/>
<polygon fill="red" stroke="red" stroke-width="1.4" points="29.3,-226.12 28.6,-215.55 22.56,-224.25 29.3,-226.12"/>
</g>
<!-- &#45;3 -->
<g id="node3" class="node">
<title>&#45;3</title>
<polygon fill="lightgray" stroke="black" points="281,-281.76 255,-281.76 255,-263.76 281,-263.76 281,-281.76"/>
<text text-anchor="middle" x="268" y="-270.56" font-family="Times,serif" font-size="9.00">&#45;3</text>
</g>
<!-- &#45;4 -->
<g id="node4" class="node">
<title>&#45;4</title>
<polygon fill="lightgray" stroke="black" points="70,-281.76 44,-281.76 44,-263.76 70,-263.76 70,-281.76"/>
<text text-anchor="middle" x="57" y="-270.56" font-family="Times,serif" font-size="9.00">&#45;4</text>
</g>
<!-- &#45;4&#45;&gt;940 -->
<g id="edge2" class="edge">
<title>&#45;4&#45;&gt;940</title>
<path fill="none" stroke="green" stroke-width="1.43" d="M54.73,-263.57C52.22,-254.53 48.02,-239.41 44.14,-225.42"/>
<polygon fill="green" stroke="green" stroke-width="1.43" points="47.44,-224.25 41.4,-215.55 40.7,-226.12 47.44,-224.25"/>
</g>
<!-- 0 -->
<g id="node5" class="node">
<title>0</title>
<ellipse fill="lightblue" stroke="black" cx="227" cy="-16.26" rx="16.03" ry="16.03"/>
<text text-anchor="middle" x="227" y="-14.06" font-family="Times,serif" font-size="9.00">0</text>
</g>
<!-- 1 -->
<g id="node6" class="node">
<title>1</title>
<ellipse fill="lightblue" stroke="black" cx="315" cy="-272.76" rx="16.03" ry="16.03"/>
<text text-anchor="middle" x="315" y="-270.56" font-family="Times,serif" font-size="9.00">1</text>
</g>
<!-- 2 -->
<g id="node7" class="node">
<title>2</title>
<ellipse fill="lightblue" stroke="black" cx="176" cy="-16.26" rx="16.03" ry="16.03"/>
<text text-anchor="middle" x="176" y="-14.06" font-family="Times,serif" font-size="9.00">2</text>
</g>
<!-- 3 -->
<g id="node8" class="node">
<title>3</title>
<ellipse fill="lightblue" stroke="black" cx="289" cy="-16.26" rx="16.03" ry="16.03"/>
<text text-anchor="middle" x="289" y="-14.06" font-family="Times,serif" font-size="9.00">3</text>
</g>
<!-- 3&#45;&gt;1974 -->
<g id="edge7" class="edge">
<title>3&#45;&gt;1974</title>
<path fill="none" stroke="red" stroke-width="0.18" stroke-dasharray="1,5" d="M294.38,-31.89C295.36,-39.56 295.82,-49.35 295.74,-58.97"/>
<polygon fill="red" stroke="red" stroke-width="0.18" points="292.24,-59.15 295.45,-69.24 299.23,-59.35 292.24,-59.15"/>
</g>
<!-- 4 -->
<g id="node9" class="node">
<title>4</title>
<ellipse fill="lightblue" stroke="black" cx="366" cy="-272.76" rx="16.03" ry="16.03"/>
<text text-anchor="middle" x="366" y="-270.56" font-family="Times,serif" font-size="9.00">4</text>
</g>
<!-- 761 -->
<g id="node11" class="node">
<title>761</title>
<ellipse fill="white" stroke="black" cx="217" cy="-97.52" rx="25" ry="25"/>
<text text-anchor="middle" x="217" y="-95.32" font-family="Times,serif" font-size="9.00">761</text>
</g>
<!-- 761&#45;&gt;0 -->
<g id="edge13" class="edge">
<title>761&#45;&gt;0</title>
<path fill="none" stroke="green" stroke-width="0.23" d="M220,-72.74C221.19,-63.33 222.55,-52.5 223.76,-42.91"/>
<polygon fill="green" stroke="green" stroke-width="0.23" points="227.26,-43.12 225.04,-32.77 220.32,-42.25 227.26,-43.12"/>
</g>
<!-- 761&#45;&gt;2 -->
<g id="edge1" class="edge">
<title>761&#45;&gt;2</title>
<path fill="none" stroke="green" stroke-width="0.17" stroke-dasharray="1,5" d="M206.01,-75.28C200.44,-64.5 193.65,-51.38 187.94,-40.35"/>
<polygon fill="green" stroke="green" stroke-width="0.17" points="190.97,-38.58 183.27,-31.31 184.75,-41.8 190.97,-38.58"/>
</g>
<!-- 2131 -->
<g id="node14" class="node">
<title>2131</title>
<ellipse fill="white" stroke="black" cx="145" cy="-97.52" rx="28.98" ry="28.98"/>
<text text-anchor="middle" x="145" y="-95.32" font-family="Times,serif" font-size="9.00">2131</text>
</g>
<!-- 940&#45;&gt;2131 -->
<g id="edge5" class="edge">
<title>940&#45;&gt;2131</title>
<path fill="none" stroke="green" stroke-width="0.67" d="M53.66,-174.9C70.58,-160.75 95.79,-139.66 115.45,-123.23"/>
<polygon fill="green" stroke="green" stroke-width="0.67" points="117.79,-125.83 123.22,-116.73 113.3,-120.46 117.79,-125.83"/>
</g>
<!-- 1974&#45;&gt;2 -->
<g id="edge11" class="edge">
<title>1974&#45;&gt;2</title>
<path fill="none" stroke="green" stroke-width="0.11" stroke-dasharray="1,5" d="M266.19,-79.51C261.21,-75.86 255.94,-72.04 251,-68.53 233.21,-55.9 212.76,-41.96 197.7,-31.8"/>
<polygon fill="green" stroke="green" stroke-width="0.11" points="199.35,-28.69 189.1,-26.02 195.45,-34.5 199.35,-28.69"/>
</g>
<!-- 1974&#45;&gt;3 -->
<g id="edge16" class="edge">
<title>1974&#45;&gt;3</title>
<path fill="none" stroke="red" stroke-width="0.19" d="M282.55,-69.24C282.11,-60.43 282.15,-50.71 282.69,-42.08"/>
<polygon fill="red" stroke="red" stroke-width="0.19" points="286.19,-42.17 283.62,-31.89 279.22,-41.52 286.19,-42.17"/>
</g>
<!-- 2131&#45;&gt;2 -->
<g id="edge10" class="edge">
<title>2131&#45;&gt;2</title>
<path fill="none" stroke="red" stroke-width="0.23" d="M155.32,-70.13C158.96,-60.84 163.02,-50.45 166.58,-41.36"/>
<polygon fill="red" stroke="red" stroke-width="0.23" points="169.94,-42.36 170.33,-31.77 163.42,-39.81 169.94,-42.36"/>
</g>
<!-- 2131&#45;&gt;5 -->
<g id="edge6" class="edge">
<title>2131&#45;&gt;5</title>
<path fill="none" stroke="green" stroke-width="0.23" d="M134.19,-70.57C130.22,-61.02 125.74,-50.26 121.85,-40.93"/>
<polygon fill="green" stroke="green" stroke-width="0.23" points="124.99,-39.36 117.92,-31.48 118.53,-42.06 124.99,-39.36"/>
</g>
<!-- 2237&#45;&gt;761 -->
<g id="edge9" class="edge">
<title>2237&#45;&gt;761</title>
<path fill="none" stroke="green" stroke-width="0.13" d="M202.3,-162.9C204.55,-153.06 207.1,-141.87 209.44,-131.61"/>
<polygon fill="green" stroke="green" stroke-width="0.13" points="212.88,-132.28 211.7,-121.75 206.06,-130.72 212.88,-132.28"/>
</g>
<!-- 2733&#45;&gt;1974 -->
<g id="edge15" class="edge">
<title>2733&#45;&gt;1974</title>
<path fill="none" stroke="green" stroke-width="0.47" d="M303.7,-162.9C301.77,-154.44 299.61,-144.99 297.56,-135.99"/>
<polygon fill="green" stroke="green" stroke-width="0.47" points="300.93,-135.07 295.3,-126.1 294.11,-136.62 300.93,-135.07"/>
</g>
</g>
</svg>
