<?xml version="1.0" encoding="UTF-8" standalone="no"?>
<!DOCTYPE svg PUBLIC "-//W3C//DTD SVG 1.1//EN"
 "http://www.w3.org/Graphics/SVG/1.1/DTD/svg11.dtd">
<!-- Generated by graphviz version 2.43.0 (0)
 -->
<!-- Title: %3 Pages: 1 -->
<svg width="721pt" height="1006pt"
 viewBox="0.00 0.00 720.99 1005.81" xmlns="http://www.w3.org/2000/svg" xmlns:xlink="http://www.w3.org/1999/xlink">
<g id="graph0" class="graph" transform="scale(1 1) rotate(0) translate(4 1001.81)">
<title>%3</title>
<polygon fill="white" stroke="transparent" points="-4,4 -4,-1001.81 716.99,-1001.81 716.99,4 -4,4"/>
<!-- &#45;1 -->
<g id="node1" class="node">
<title>&#45;1</title>
<polygon fill="lightgray" stroke="black" points="119,-413.92 93,-413.92 93,-395.92 119,-395.92 119,-413.92"/>
<text text-anchor="middle" x="106" y="-402.72" font-family="Times,serif" font-size="9.00">&#45;1</text>
</g>
<!-- 7878 -->
<g id="node22" class="node">
<title>7878</title>
<ellipse fill="white" stroke="black" cx="171" cy="-310.94" rx="28.98" ry="28.98"/>
<text text-anchor="middle" x="171" y="-308.74" font-family="Times,serif" font-size="9.00">7878</text>
</g>
<!-- &#45;1&#45;&gt;7878 -->
<g id="edge26" class="edge">
<title>&#45;1&#45;&gt;7878</title>
<path fill="none" stroke="red" stroke-width="0.32" d="M111.77,-395.76C120.01,-384.09 135.62,-362 148.75,-343.43"/>
<polygon fill="red" stroke="red" stroke-width="0.32" points="151.65,-345.38 154.57,-335.19 145.94,-341.34 151.65,-345.38"/>
</g>
<!-- 8109 -->
<g id="node26" class="node">
<title>8109</title>
<ellipse fill="white" stroke="black" cx="124" cy="-28.99" rx="28.98" ry="28.98"/>
<text text-anchor="middle" x="124" y="-26.79" font-family="Times,serif" font-size="9.00">8109</text>
</g>
<!-- &#45;1&#45;&gt;8109 -->
<g id="edge28" class="edge">
<title>&#45;1&#45;&gt;8109</title>
<path fill="none" stroke="green" stroke-width="0.32" d="M101.65,-395.86C82.52,-359.33 9.01,-206.18 57,-93.98 61.1,-84.39 78.26,-68.08 94.19,-54.33"/>
<polygon fill="green" stroke="green" stroke-width="0.32" points="96.49,-56.96 101.84,-47.82 91.96,-51.63 96.49,-56.96"/>
</g>
<!-- &#45;2 -->
<g id="node2" class="node">
<title>&#45;2</title>
<polygon fill="lightgray" stroke="black" points="299,-977.82 273,-977.82 273,-959.82 299,-959.82 299,-977.82"/>
<text text-anchor="middle" x="286" y="-966.62" font-family="Times,serif" font-size="9.00">&#45;2</text>
</g>
<!-- 5 -->
<g id="node10" class="node">
<title>5</title>
<ellipse fill="lightblue" stroke="black" cx="242" cy="-874.84" rx="16.03" ry="16.03"/>
<text text-anchor="middle" x="242" y="-872.64" font-family="Times,serif" font-size="9.00">5</text>
</g>
<!-- &#45;2&#45;&gt;5 -->
<g id="edge1" class="edge">
<title>&#45;2&#45;&gt;5</title>
<path fill="none" stroke="red" stroke-width="4.65" d="M282.1,-959.66C275.65,-946.19 262.57,-918.84 253.1,-899.04"/>
<polygon fill="red" stroke="red" stroke-width="4.65" points="256.64,-897.02 248.66,-889.75 249.3,-900.53 256.64,-897.02"/>
</g>
<!-- 8565 -->
<g id="node31" class="node">
<title>8565</title>
<ellipse fill="white" stroke="black" cx="387" cy="-780.85" rx="28.98" ry="28.98"/>
<text text-anchor="middle" x="387" y="-778.65" font-family="Times,serif" font-size="9.00">8565</text>
</g>
<!-- &#45;2&#45;&gt;8565 -->
<g id="edge39" class="edge">
<title>&#45;2&#45;&gt;8565</title>
<path fill="none" stroke="red" stroke-width="0.42" stroke-dasharray="1,5" d="M285.31,-959.73C283.95,-939.15 282.74,-883.72 305,-845.84 316.22,-826.75 335.51,-811.27 352.56,-800.32"/>
<polygon fill="red" stroke="red" stroke-width="0.42" points="354.52,-803.22 361.21,-795.01 350.86,-797.25 354.52,-803.22"/>
</g>
<!-- 9017 -->
<g id="node39" class="node">
<title>9017</title>
<ellipse fill="white" stroke="black" cx="343" cy="-874.84" rx="28.98" ry="28.98"/>
<text text-anchor="middle" x="343" y="-872.64" font-family="Times,serif" font-size="9.00">9017</text>
</g>
<!-- &#45;2&#45;&gt;9017 -->
<g id="edge53" class="edge">
<title>&#45;2&#45;&gt;9017</title>
<path fill="none" stroke="green" stroke-width="0.3" d="M291.06,-959.66C298.13,-948.25 311.38,-926.87 322.72,-908.56"/>
<polygon fill="green" stroke="green" stroke-width="0.3" points="325.81,-910.21 328.11,-899.87 319.86,-906.53 325.81,-910.21"/>
</g>
<!-- &#45;3 -->
<g id="node3" class="node">
<title>&#45;3</title>
<polygon fill="lightgray" stroke="black" points="575,-601.89 549,-601.89 549,-583.89 575,-583.89 575,-601.89"/>
<text text-anchor="middle" x="562" y="-590.69" font-family="Times,serif" font-size="9.00">&#45;3</text>
</g>
<!-- 5935 -->
<g id="node11" class="node">
<title>5935</title>
<ellipse fill="white" stroke="black" cx="481" cy="-310.94" rx="28.98" ry="28.98"/>
<text text-anchor="middle" x="481" y="-308.74" font-family="Times,serif" font-size="9.00">5935</text>
</g>
<!-- &#45;3&#45;&gt;5935 -->
<g id="edge3" class="edge">
<title>&#45;3&#45;&gt;5935</title>
<path fill="none" stroke="red" stroke-width="0.28" stroke-dasharray="1,5" d="M566.08,-583.87C571.87,-572.01 582.19,-548.91 586,-527.9 598.12,-461.07 605.96,-433.54 570,-375.93 557.18,-355.4 535.13,-339.47 516.19,-328.64"/>
<polygon fill="red" stroke="red" stroke-width="0.28" points="517.65,-325.45 507.19,-323.74 514.3,-331.6 517.65,-325.45"/>
</g>
<!-- 8381 -->
<g id="node30" class="node">
<title>8381</title>
<ellipse fill="white" stroke="black" cx="532" cy="-404.92" rx="28.98" ry="28.98"/>
<text text-anchor="middle" x="532" y="-402.72" font-family="Times,serif" font-size="9.00">8381</text>
</g>
<!-- &#45;3&#45;&gt;8381 -->
<g id="edge20" class="edge">
<title>&#45;3&#45;&gt;8381</title>
<path fill="none" stroke="green" stroke-width="0.12" stroke-dasharray="1,5" d="M564.35,-583.71C569.69,-563.81 581.4,-511.46 570,-469.91 566.83,-458.35 560.96,-446.76 554.77,-436.68"/>
<polygon fill="green" stroke="green" stroke-width="0.12" points="557.68,-434.74 549.3,-428.25 551.81,-438.55 557.68,-434.74"/>
</g>
<!-- 8577 -->
<g id="node32" class="node">
<title>8577</title>
<ellipse fill="white" stroke="black" cx="532" cy="-498.91" rx="28.98" ry="28.98"/>
<text text-anchor="middle" x="532" y="-496.71" font-family="Times,serif" font-size="9.00">8577</text>
</g>
<!-- &#45;3&#45;&gt;8577 -->
<g id="edge31" class="edge">
<title>&#45;3&#45;&gt;8577</title>
<path fill="none" stroke="red" stroke-width="0.38" d="M559.34,-583.73C555.89,-573.14 549.64,-553.98 543.98,-536.64"/>
<polygon fill="red" stroke="red" stroke-width="0.38" points="547.18,-535.15 540.75,-526.73 540.52,-537.32 547.18,-535.15"/>
</g>
<!-- 8750 -->
<g id="node34" class="node">
<title>8750</title>
<ellipse fill="white" stroke="black" cx="405" cy="-310.94" rx="28.98" ry="28.98"/>
<text text-anchor="middle" x="405" y="-308.74" font-family="Times,serif" font-size="9.00">8750</text>
</g>
<!-- &#45;3&#45;&gt;8750 -->
<g id="edge37" class="edge">
<title>&#45;3&#45;&gt;8750</title>
<path fill="none" stroke="red" stroke-width="0.15" d="M550.72,-583.74C535.96,-572.58 510.1,-551.26 494,-527.9 488.58,-520.03 442.88,-406.65 419.17,-347.42"/>
<polygon fill="red" stroke="red" stroke-width="0.15" points="422.39,-346.04 415.42,-338.06 415.89,-348.64 422.39,-346.04"/>
</g>
<!-- &#45;4 -->
<g id="node4" class="node">
<title>&#45;4</title>
<polygon fill="lightgray" stroke="black" points="141,-977.82 115,-977.82 115,-959.82 141,-959.82 141,-977.82"/>
<text text-anchor="middle" x="128" y="-966.62" font-family="Times,serif" font-size="9.00">&#45;4</text>
</g>
<!-- &#45;4&#45;&gt;5 -->
<g id="edge2" class="edge">
<title>&#45;4&#45;&gt;5</title>
<path fill="none" stroke="green" stroke-width="4.56" d="M138.12,-959.66C156.83,-944.55 197.2,-911.99 221.73,-892.19"/>
<polygon fill="green" stroke="green" stroke-width="4.56" points="224.41,-895.15 229.69,-885.77 219.4,-888.94 224.41,-895.15"/>
</g>
<!-- 6742 -->
<g id="node13" class="node">
<title>6742</title>
<ellipse fill="white" stroke="black" cx="48" cy="-28.99" rx="28.98" ry="28.98"/>
<text text-anchor="middle" x="48" y="-26.79" font-family="Times,serif" font-size="9.00">6742</text>
</g>
<!-- &#45;4&#45;&gt;6742 -->
<g id="edge18" class="edge">
<title>&#45;4&#45;&gt;6742</title>
<path fill="none" stroke="green" stroke-width="0.1" d="M116.64,-959.6C85.31,-935.88 0,-863.77 0,-781.85 0,-781.85 0,-781.85 0,-215.96 0,-162.09 19.12,-102.14 33.22,-65.25"/>
<polygon fill="green" stroke="green" stroke-width="0.1" points="36.48,-66.52 36.87,-55.93 29.97,-63.97 36.48,-66.52"/>
</g>
<!-- 0 -->
<g id="node5" class="node">
<title>0</title>
<ellipse fill="lightblue" stroke="black" cx="298" cy="-122.97" rx="16.03" ry="16.03"/>
<text text-anchor="middle" x="298" y="-120.77" font-family="Times,serif" font-size="9.00">0</text>
</g>
<!-- 7471 -->
<g id="node17" class="node">
<title>7471</title>
<ellipse fill="white" stroke="black" cx="266" cy="-28.99" rx="28.98" ry="28.98"/>
<text text-anchor="middle" x="266" y="-26.79" font-family="Times,serif" font-size="9.00">7471</text>
</g>
<!-- 0&#45;&gt;7471 -->
<g id="edge27" class="edge">
<title>0&#45;&gt;7471</title>
<path fill="none" stroke="red" stroke-width="0.2" stroke-dasharray="1,5" d="M292.86,-107.2C289.01,-96.14 283.58,-80.52 278.6,-66.22"/>
<polygon fill="red" stroke="red" stroke-width="0.2" points="281.85,-64.9 275.26,-56.61 275.24,-67.2 281.85,-64.9"/>
</g>
<!-- 1 -->
<g id="node6" class="node">
<title>1</title>
<ellipse fill="lightblue" stroke="black" cx="446" cy="-28.99" rx="16.03" ry="16.03"/>
<text text-anchor="middle" x="446" y="-26.79" font-family="Times,serif" font-size="9.00">1</text>
</g>
<!-- 2 -->
<g id="node7" class="node">
<title>2</title>
<ellipse fill="lightblue" stroke="black" cx="405" cy="-404.92" rx="16.03" ry="16.03"/>
<text text-anchor="middle" x="405" y="-402.72" font-family="Times,serif" font-size="9.00">2</text>
</g>
<!-- 2&#45;&gt;5935 -->
<g id="edge33" class="edge">
<title>2&#45;&gt;5935</title>
<path fill="none" stroke="green" stroke-width="0.82" d="M414.94,-391.9C425.38,-379.26 442.21,-358.89 456.27,-341.87"/>
<polygon fill="green" stroke="green" stroke-width="0.82" points="459.24,-343.78 462.91,-333.84 453.84,-339.32 459.24,-343.78"/>
</g>
<!-- 2&#45;&gt;7878 -->
<g id="edge22" class="edge">
<title>2&#45;&gt;7878</title>
<path fill="none" stroke="green" stroke-width="0.43" d="M390.01,-398.03C353.62,-383.72 259.78,-346.84 207.52,-326.29"/>
<polygon fill="green" stroke="green" stroke-width="0.43" points="208.54,-322.94 197.96,-322.54 205.98,-329.45 208.54,-322.94"/>
</g>
<!-- 2&#45;&gt;8750 -->
<g id="edge48" class="edge">
<title>2&#45;&gt;8750</title>
<path fill="none" stroke="green" stroke-width="0.13" d="M405,-388.32C405,-377.97 405,-363.89 405,-350.65"/>
<polygon fill="green" stroke="green" stroke-width="0.13" points="408.5,-350.29 405,-340.29 401.5,-350.29 408.5,-350.29"/>
</g>
<!-- 3 -->
<g id="node8" class="node">
<title>3</title>
<ellipse fill="lightblue" stroke="black" cx="187" cy="-28.99" rx="16.03" ry="16.03"/>
<text text-anchor="middle" x="187" y="-26.79" font-family="Times,serif" font-size="9.00">3</text>
</g>
<!-- 4 -->
<g id="node9" class="node">
<title>4</title>
<ellipse fill="lightblue" stroke="black" cx="400" cy="-968.82" rx="16.03" ry="16.03"/>
<text text-anchor="middle" x="400" y="-966.62" font-family="Times,serif" font-size="9.00">4</text>
</g>
<!-- 4&#45;&gt;8565 -->
<g id="edge30" class="edge">
<title>4&#45;&gt;8565</title>
<path fill="none" stroke="green" stroke-width="0.17" d="M398.91,-952.28C396.9,-923.45 392.53,-860.91 389.68,-820.14"/>
<polygon fill="green" stroke="green" stroke-width="0.17" points="393.16,-819.75 388.97,-810.02 386.17,-820.24 393.16,-819.75"/>
</g>
<!-- 8833 -->
<g id="node35" class="node">
<title>8833</title>
<ellipse fill="white" stroke="black" cx="457" cy="-874.84" rx="28.98" ry="28.98"/>
<text text-anchor="middle" x="457" y="-872.64" font-family="Times,serif" font-size="9.00">8833</text>
</g>
<!-- 4&#45;&gt;8833 -->
<g id="edge41" class="edge">
<title>4&#45;&gt;8833</title>
<path fill="none" stroke="red" stroke-width="0.63" stroke-dasharray="1,5" d="M408.17,-954.64C415.6,-942.65 426.87,-924.46 436.71,-908.57"/>
<polygon fill="red" stroke="red" stroke-width="0.63" points="439.71,-910.38 442,-900.04 433.76,-906.7 439.71,-910.38"/>
</g>
<!-- 7402 -->
<g id="node16" class="node">
<title>7402</title>
<ellipse fill="white" stroke="black" cx="323" cy="-686.87" rx="28.98" ry="28.98"/>
<text text-anchor="middle" x="323" y="-684.67" font-family="Times,serif" font-size="9.00">7402</text>
</g>
<!-- 5&#45;&gt;7402 -->
<g id="edge24" class="edge">
<title>5&#45;&gt;7402</title>
<path fill="none" stroke="green" stroke-width="0.27" stroke-dasharray="1,5" d="M250.64,-861.01C258.9,-848.38 271.35,-828.34 280,-809.84 292.96,-782.14 304.3,-749.38 312.08,-724.79"/>
<polygon fill="green" stroke="green" stroke-width="0.27" points="315.46,-725.71 315.09,-715.13 308.77,-723.63 315.46,-725.71"/>
</g>
<!-- 8696 -->
<g id="node33" class="node">
<title>8696</title>
<ellipse fill="white" stroke="black" cx="242" cy="-780.85" rx="28.98" ry="28.98"/>
<text text-anchor="middle" x="242" y="-778.65" font-family="Times,serif" font-size="9.00">8696</text>
</g>
<!-- 5&#45;&gt;8696 -->
<g id="edge34" class="edge">
<title>5&#45;&gt;8696</title>
<path fill="none" stroke="green" stroke-width="0.29" d="M242,-858.23C242,-847.88 242,-833.81 242,-820.56"/>
<polygon fill="green" stroke="green" stroke-width="0.29" points="245.5,-820.2 242,-810.2 238.5,-820.2 245.5,-820.2"/>
</g>
<!-- 5944 -->
<g id="node12" class="node">
<title>5944</title>
<ellipse fill="white" stroke="black" cx="399" cy="-216.96" rx="28.98" ry="28.98"/>
<text text-anchor="middle" x="399" y="-214.76" font-family="Times,serif" font-size="9.00">5944</text>
</g>
<!-- 5935&#45;&gt;5944 -->
<g id="edge40" class="edge">
<title>5935&#45;&gt;5944</title>
<path fill="none" stroke="green" stroke-width="0.47" stroke-dasharray="1,5" d="M461.98,-288.61C450.91,-276.18 436.8,-260.35 424.74,-246.83"/>
<polygon fill="green" stroke="green" stroke-width="0.47" points="427.18,-244.31 417.92,-239.18 421.96,-248.97 427.18,-244.31"/>
</g>
<!-- 8035 -->
<g id="node24" class="node">
<title>8035</title>
<ellipse fill="white" stroke="black" cx="323" cy="-216.96" rx="28.98" ry="28.98"/>
<text text-anchor="middle" x="323" y="-214.76" font-family="Times,serif" font-size="9.00">8035</text>
</g>
<!-- 5935&#45;&gt;8035 -->
<g id="edge12" class="edge">
<title>5935&#45;&gt;8035</title>
<path fill="none" stroke="green" stroke-width="0.12" d="M458.65,-292.22C453.64,-288.6 448.25,-284.98 443,-281.95 408.54,-262.02 395.46,-265.87 361,-245.95 358.7,-244.62 356.38,-243.18 354.07,-241.68"/>
<polygon fill="green" stroke="green" stroke-width="0.12" points="355.57,-238.46 345.35,-235.68 351.61,-244.23 355.57,-238.46"/>
</g>
<!-- 8124 -->
<g id="node27" class="node">
<title>8124</title>
<ellipse fill="white" stroke="black" cx="171" cy="-216.96" rx="28.98" ry="28.98"/>
<text text-anchor="middle" x="171" y="-214.76" font-family="Times,serif" font-size="9.00">8124</text>
</g>
<!-- 5935&#45;&gt;8124 -->
<g id="edge23" class="edge">
<title>5935&#45;&gt;8124</title>
<path fill="none" stroke="green" stroke-width="0.51" stroke-dasharray="1,5" d="M459.05,-291.44C454.01,-287.88 448.51,-284.47 443,-281.95 377.52,-251.96 355.09,-262.54 285,-245.95 259.55,-239.92 230.96,-232.9 208.78,-227.4"/>
<polygon fill="green" stroke="green" stroke-width="0.51" points="209.63,-224.01 199.08,-224.99 207.94,-230.8 209.63,-224.01"/>
</g>
<!-- 6807 -->
<g id="node14" class="node">
<title>6807</title>
<ellipse fill="white" stroke="black" cx="171" cy="-122.97" rx="28.98" ry="28.98"/>
<text text-anchor="middle" x="171" y="-120.77" font-family="Times,serif" font-size="9.00">6807</text>
</g>
<!-- 6807&#45;&gt;3 -->
<g id="edge11" class="edge">
<title>6807&#45;&gt;3</title>
<path fill="none" stroke="green" stroke-width="0.34" d="M175.8,-94.38C177.96,-81.93 180.5,-67.34 182.62,-55.2"/>
<polygon fill="green" stroke="green" stroke-width="0.34" points="186.08,-55.72 184.34,-45.27 179.18,-54.52 186.08,-55.72"/>
</g>
<!-- 6807&#45;&gt;6742 -->
<g id="edge46" class="edge">
<title>6807&#45;&gt;6742</title>
<path fill="none" stroke="green" stroke-width="0.27" stroke-dasharray="1,5" d="M148.15,-104.89C128.77,-90.39 100.78,-69.46 79.31,-53.41"/>
<polygon fill="green" stroke="green" stroke-width="0.27" points="81.25,-50.48 71.14,-47.3 77.05,-56.09 81.25,-50.48"/>
</g>
<!-- 6807&#45;&gt;7471 -->
<g id="edge4" class="edge">
<title>6807&#45;&gt;7471</title>
<path fill="none" stroke="red" stroke-width="0.3" stroke-dasharray="1,5" d="M191.61,-102.02C205.18,-88.88 223.12,-71.51 237.98,-57.13"/>
<polygon fill="red" stroke="red" stroke-width="0.3" points="240.68,-59.38 245.43,-49.91 235.81,-54.35 240.68,-59.38"/>
</g>
<!-- 6807&#45;&gt;8109 -->
<g id="edge15" class="edge">
<title>6807&#45;&gt;8109</title>
<path fill="none" stroke="green" stroke-width="0.32" stroke-dasharray="1,5" d="M158.16,-96.84C153.03,-86.8 147.04,-75.08 141.52,-64.28"/>
<polygon fill="green" stroke="green" stroke-width="0.32" points="144.49,-62.41 136.83,-55.1 138.26,-65.59 144.49,-62.41"/>
</g>
<!-- 7154 -->
<g id="node15" class="node">
<title>7154</title>
<ellipse fill="white" stroke="black" cx="539" cy="-968.82" rx="28.98" ry="28.98"/>
<text text-anchor="middle" x="539" y="-966.62" font-family="Times,serif" font-size="9.00">7154</text>
</g>
<!-- 7402&#45;&gt;2 -->
<g id="edge9" class="edge">
<title>7402&#45;&gt;2</title>
<path fill="none" stroke="green" stroke-width="0.16" stroke-dasharray="1,5" d="M351.93,-683.07C387.82,-677.86 447.6,-663.14 475,-621.88 489.26,-600.41 480.34,-589.11 475,-563.9 472.04,-549.93 434.8,-469.43 415.88,-429.03"/>
<polygon fill="green" stroke="green" stroke-width="0.16" points="419.02,-427.48 411.6,-419.92 412.68,-430.46 419.02,-427.48"/>
</g>
<!-- 7402&#45;&gt;6807 -->
<g id="edge25" class="edge">
<title>7402&#45;&gt;6807</title>
<path fill="none" stroke="green" stroke-width="1.35" d="M306.47,-662.94C298.78,-651.19 290.2,-636.35 285,-621.88 266.43,-570.25 266,-554.77 266,-499.91 266,-499.91 266,-499.91 266,-309.94 266,-248.85 224.85,-187.62 196.71,-152.89"/>
<polygon fill="green" stroke="green" stroke-width="1.35" points="199.3,-150.53 190.22,-145.07 193.91,-155 199.3,-150.53"/>
</g>
<!-- 7567 -->
<g id="node20" class="node">
<title>7567</title>
<ellipse fill="white" stroke="black" cx="380" cy="-498.91" rx="28.98" ry="28.98"/>
<text text-anchor="middle" x="380" y="-496.71" font-family="Times,serif" font-size="9.00">7567</text>
</g>
<!-- 7402&#45;&gt;7567 -->
<g id="edge7" class="edge">
<title>7402&#45;&gt;7567</title>
<path fill="none" stroke="green" stroke-width="0.4" stroke-dasharray="1,5" d="M339.53,-662.94C347.22,-651.19 355.8,-636.35 361,-621.88 370.71,-594.88 375.46,-562.76 377.78,-538.26"/>
<polygon fill="green" stroke="green" stroke-width="0.4" points="381.27,-538.53 378.64,-528.27 374.3,-537.93 381.27,-538.53"/>
</g>
<!-- 8062 -->
<g id="node25" class="node">
<title>8062</title>
<ellipse fill="white" stroke="black" cx="437" cy="-592.89" rx="28.98" ry="28.98"/>
<text text-anchor="middle" x="437" y="-590.69" font-family="Times,serif" font-size="9.00">8062</text>
</g>
<!-- 7402&#45;&gt;8062 -->
<g id="edge13" class="edge">
<title>7402&#45;&gt;8062</title>
<path fill="none" stroke="red" stroke-width="0.14" d="M345.25,-667.92C362.83,-653.74 387.53,-633.8 406.88,-618.19"/>
<polygon fill="red" stroke="red" stroke-width="0.14" points="409.22,-620.8 414.81,-611.8 404.82,-615.35 409.22,-620.8"/>
</g>
<!-- 8991 -->
<g id="node38" class="node">
<title>8991</title>
<ellipse fill="white" stroke="black" cx="323" cy="-592.89" rx="28.98" ry="28.98"/>
<text text-anchor="middle" x="323" y="-590.69" font-family="Times,serif" font-size="9.00">8991</text>
</g>
<!-- 7402&#45;&gt;8991 -->
<g id="edge50" class="edge">
<title>7402&#45;&gt;8991</title>
<path fill="none" stroke="green" stroke-width="0.3" d="M323,-657.77C323,-649.73 323,-640.83 323,-632.29"/>
<polygon fill="green" stroke="green" stroke-width="0.3" points="326.5,-632.13 323,-622.13 319.5,-632.13 326.5,-632.13"/>
</g>
<!-- 7497 -->
<g id="node18" class="node">
<title>7497</title>
<ellipse fill="white" stroke="black" cx="475" cy="-216.96" rx="28.98" ry="28.98"/>
<text text-anchor="middle" x="475" y="-214.76" font-family="Times,serif" font-size="9.00">7497</text>
</g>
<!-- 7497&#45;&gt;1 -->
<g id="edge29" class="edge">
<title>7497&#45;&gt;1</title>
<path fill="none" stroke="green" stroke-width="0.37" stroke-dasharray="1,5" d="M470.63,-187.86C466.78,-163.13 461.02,-126.17 456,-93.98 454.01,-81.22 451.79,-67.03 449.95,-55.26"/>
<polygon fill="green" stroke="green" stroke-width="0.37" points="453.39,-54.59 448.39,-45.25 446.47,-55.67 453.39,-54.59"/>
</g>
<!-- 7497&#45;&gt;6807 -->
<g id="edge5" class="edge">
<title>7497&#45;&gt;6807</title>
<path fill="none" stroke="green" stroke-width="0.47" stroke-dasharray="1,5" d="M453.06,-197.42C448.03,-193.86 442.52,-190.47 437,-187.97 369.03,-157.16 345.45,-169.85 273,-151.97 251.54,-146.67 227.71,-140.17 208.49,-134.76"/>
<polygon fill="green" stroke="green" stroke-width="0.47" points="209.18,-131.32 198.61,-131.97 207.28,-138.06 209.18,-131.32"/>
</g>
<!-- 8846 -->
<g id="node36" class="node">
<title>8846</title>
<ellipse fill="white" stroke="black" cx="418" cy="-122.97" rx="28.98" ry="28.98"/>
<text text-anchor="middle" x="418" y="-120.77" font-family="Times,serif" font-size="9.00">8846</text>
</g>
<!-- 7497&#45;&gt;8846 -->
<g id="edge44" class="edge">
<title>7497&#45;&gt;8846</title>
<path fill="none" stroke="green" stroke-width="0.27" d="M460.02,-191.79C453.35,-181.02 445.38,-168.16 438.19,-156.56"/>
<polygon fill="green" stroke="green" stroke-width="0.27" points="441.12,-154.64 432.88,-147.98 435.17,-158.32 441.12,-154.64"/>
</g>
<!-- 7536 -->
<g id="node19" class="node">
<title>7536</title>
<ellipse fill="white" stroke="black" cx="684" cy="-404.92" rx="28.98" ry="28.98"/>
<text text-anchor="middle" x="684" y="-402.72" font-family="Times,serif" font-size="9.00">7536</text>
</g>
<!-- 7536&#45;&gt;5935 -->
<g id="edge6" class="edge">
<title>7536&#45;&gt;5935</title>
<path fill="none" stroke="red" stroke-width="0.16" stroke-dasharray="1,5" d="M660.39,-387.37C654.22,-383.38 647.48,-379.3 641,-375.93 600.33,-354.82 551.06,-336.07 518.03,-324.4"/>
<polygon fill="red" stroke="red" stroke-width="0.16" points="518.92,-321.01 508.33,-321.02 516.62,-327.62 518.92,-321.01"/>
</g>
<!-- 7567&#45;&gt;2 -->
<g id="edge8" class="edge">
<title>7567&#45;&gt;2</title>
<path fill="none" stroke="green" stroke-width="0.31" d="M387.37,-470.8C390.83,-458.05 394.93,-442.96 398.31,-430.54"/>
<polygon fill="green" stroke="green" stroke-width="0.31" points="401.7,-431.41 400.95,-420.84 394.94,-429.57 401.7,-431.41"/>
</g>
<!-- 7640 -->
<g id="node21" class="node">
<title>7640</title>
<ellipse fill="white" stroke="black" cx="95" cy="-122.97" rx="28.98" ry="28.98"/>
<text text-anchor="middle" x="95" y="-120.77" font-family="Times,serif" font-size="9.00">7640</text>
</g>
<!-- 7640&#45;&gt;6742 -->
<g id="edge47" class="edge">
<title>7640&#45;&gt;6742</title>
<path fill="none" stroke="red" stroke-width="0.42" d="M82.16,-96.84C77.03,-86.8 71.04,-75.08 65.52,-64.28"/>
<polygon fill="red" stroke="red" stroke-width="0.42" points="68.49,-62.41 60.83,-55.1 62.26,-65.59 68.49,-62.41"/>
</g>
<!-- 7640&#45;&gt;8124 -->
<g id="edge16" class="edge">
<title>7640&#45;&gt;8124</title>
<path fill="none" stroke="red" stroke-width="0.16" d="M116.17,-142.85C126.91,-154.45 139.75,-169.63 150.39,-183.15"/>
<polygon fill="red" stroke="red" stroke-width="0.16" points="147.81,-185.53 156.69,-191.31 153.35,-181.25 147.81,-185.53"/>
</g>
<!-- 7878&#45;&gt;8124 -->
<g id="edge19" class="edge">
<title>7878&#45;&gt;8124</title>
<path fill="none" stroke="green" stroke-width="0.18" stroke-dasharray="1,5" d="M171,-281.84C171,-273.8 171,-264.9 171,-256.36"/>
<polygon fill="green" stroke="green" stroke-width="0.18" points="174.5,-256.2 171,-246.2 167.5,-256.2 174.5,-256.2"/>
</g>
<!-- 8014 -->
<g id="node23" class="node">
<title>8014</title>
<ellipse fill="white" stroke="black" cx="237" cy="-686.87" rx="28.98" ry="28.98"/>
<text text-anchor="middle" x="237" y="-684.67" font-family="Times,serif" font-size="9.00">8014</text>
</g>
<!-- 8014&#45;&gt;7471 -->
<g id="edge10" class="edge">
<title>8014&#45;&gt;7471</title>
<path fill="none" stroke="red" stroke-width="0.15" stroke-dasharray="1,5" d="M234.8,-657.85C232.13,-621.47 228,-555.99 228,-499.91 228,-499.91 228,-499.91 228,-215.96 228,-163.25 242.84,-103.8 253.97,-66.62"/>
<polygon fill="red" stroke="red" stroke-width="0.15" points="257.41,-67.33 256.99,-56.74 250.72,-65.28 257.41,-67.33"/>
</g>
<!-- 8035&#45;&gt;0 -->
<g id="edge17" class="edge">
<title>8035&#45;&gt;0</title>
<path fill="none" stroke="green" stroke-width="0.21" stroke-dasharray="1,5" d="M315.63,-188.86C312.17,-176.1 308.07,-161.01 304.69,-148.59"/>
<polygon fill="green" stroke="green" stroke-width="0.21" points="308.06,-147.63 302.05,-138.89 301.3,-149.46 308.06,-147.63"/>
</g>
<!-- 8062&#45;&gt;7567 -->
<g id="edge14" class="edge">
<title>8062&#45;&gt;7567</title>
<path fill="none" stroke="red" stroke-width="0.31" d="M422.02,-567.72C415.35,-556.95 407.38,-544.09 400.19,-532.49"/>
<polygon fill="red" stroke="red" stroke-width="0.31" points="403.12,-530.57 394.88,-523.91 397.17,-534.26 403.12,-530.57"/>
</g>
<!-- 8124&#45;&gt;7640 -->
<g id="edge38" class="edge">
<title>8124&#45;&gt;7640</title>
<path fill="none" stroke="green" stroke-width="0.32" d="M149.66,-196.9C138.95,-185.31 126.16,-170.19 115.57,-156.73"/>
<polygon fill="green" stroke="green" stroke-width="0.32" points="118.18,-154.38 109.3,-148.61 112.64,-158.66 118.18,-154.38"/>
</g>
<!-- 8285 -->
<g id="node28" class="node">
<title>8285</title>
<ellipse fill="white" stroke="black" cx="463" cy="-968.82" rx="28.98" ry="28.98"/>
<text text-anchor="middle" x="463" y="-966.62" font-family="Times,serif" font-size="9.00">8285</text>
</g>
<!-- 8285&#45;&gt;8833 -->
<g id="edge43" class="edge">
<title>8285&#45;&gt;8833</title>
<path fill="none" stroke="green" stroke-width="0.38" d="M461.17,-939.72C460.64,-931.68 460.06,-922.78 459.5,-914.24"/>
<polygon fill="green" stroke="green" stroke-width="0.38" points="462.99,-913.83 458.84,-904.08 456,-914.29 462.99,-913.83"/>
</g>
<!-- 8360 -->
<g id="node29" class="node">
<title>8360</title>
<ellipse fill="white" stroke="black" cx="615" cy="-968.82" rx="28.98" ry="28.98"/>
<text text-anchor="middle" x="615" y="-966.62" font-family="Times,serif" font-size="9.00">8360</text>
</g>
<!-- 8381&#45;&gt;5935 -->
<g id="edge21" class="edge">
<title>8381&#45;&gt;5935</title>
<path fill="none" stroke="red" stroke-width="0.79" stroke-dasharray="1,5" d="M518.33,-379.27C512.62,-368.96 505.88,-356.81 499.71,-345.69"/>
<polygon fill="red" stroke="red" stroke-width="0.79" points="502.61,-343.71 494.7,-336.66 496.49,-347.1 502.61,-343.71"/>
</g>
<!-- 8577&#45;&gt;8381 -->
<g id="edge32" class="edge">
<title>8577&#45;&gt;8381</title>
<path fill="none" stroke="green" stroke-width="0.53" stroke-dasharray="1,5" d="M532,-469.81C532,-461.77 532,-452.87 532,-444.32"/>
<polygon fill="green" stroke="green" stroke-width="0.53" points="535.5,-444.16 532,-434.16 528.5,-444.16 535.5,-444.16"/>
</g>
<!-- 8696&#45;&gt;7402 -->
<g id="edge35" class="edge">
<title>8696&#45;&gt;7402</title>
<path fill="none" stroke="green" stroke-width="0.74" d="M260.79,-758.52C271.73,-746.1 285.66,-730.27 297.58,-716.74"/>
<polygon fill="green" stroke="green" stroke-width="0.74" points="300.33,-718.91 304.32,-709.09 295.08,-714.28 300.33,-718.91"/>
</g>
<!-- 8696&#45;&gt;8014 -->
<g id="edge36" class="edge">
<title>8696&#45;&gt;8014</title>
<path fill="none" stroke="red" stroke-width="0.16" d="M240.47,-751.76C240.04,-743.72 239.55,-734.82 239.09,-726.27"/>
<polygon fill="red" stroke="red" stroke-width="0.16" points="242.57,-725.91 238.54,-716.11 235.58,-726.29 242.57,-725.91"/>
</g>
<!-- 8833&#45;&gt;8565 -->
<g id="edge42" class="edge">
<title>8833&#45;&gt;8565</title>
<path fill="none" stroke="red" stroke-width="0.47" d="M439.7,-851.1C430.8,-839.4 419.82,-824.98 410.2,-812.34"/>
<polygon fill="red" stroke="red" stroke-width="0.47" points="412.95,-810.17 404.1,-804.33 407.38,-814.41 412.95,-810.17"/>
</g>
<!-- 8846&#45;&gt;1 -->
<g id="edge45" class="edge">
<title>8846&#45;&gt;1</title>
<path fill="none" stroke="red" stroke-width="0.3" d="M426.25,-94.87C430.16,-82.04 434.79,-66.83 438.58,-54.36"/>
<polygon fill="red" stroke="red" stroke-width="0.3" points="441.97,-55.23 441.54,-44.65 435.28,-53.2 441.97,-55.23"/>
</g>
<!-- 8846&#45;&gt;7471 -->
<g id="edge52" class="edge">
<title>8846&#45;&gt;7471</title>
<path fill="none" stroke="red" stroke-width="0.23" d="M393.58,-107.2C367.98,-91.71 327.61,-67.28 299.15,-50.05"/>
<polygon fill="red" stroke="red" stroke-width="0.23" points="300.73,-46.92 290.36,-44.73 297.1,-52.91 300.73,-46.92"/>
</g>
<!-- 8979 -->
<g id="node37" class="node">
<title>8979</title>
<ellipse fill="white" stroke="black" cx="95" cy="-216.96" rx="28.98" ry="28.98"/>
<text text-anchor="middle" x="95" y="-214.76" font-family="Times,serif" font-size="9.00">8979</text>
</g>
<!-- 8979&#45;&gt;7640 -->
<g id="edge49" class="edge">
<title>8979&#45;&gt;7640</title>
<path fill="none" stroke="red" stroke-width="0.34" d="M95,-187.86C95,-179.82 95,-170.92 95,-162.38"/>
<polygon fill="red" stroke="red" stroke-width="0.34" points="98.5,-162.22 95,-152.22 91.5,-162.22 98.5,-162.22"/>
</g>
<!-- 8991&#45;&gt;7567 -->
<g id="edge51" class="edge">
<title>8991&#45;&gt;7567</title>
<path fill="none" stroke="green" stroke-width="0.58" d="M337.98,-567.72C344.65,-556.95 352.62,-544.09 359.81,-532.49"/>
<polygon fill="green" stroke="green" stroke-width="0.58" points="362.83,-534.26 365.12,-523.91 356.88,-530.57 362.83,-534.26"/>
</g>
<!-- 9017&#45;&gt;8565 -->
<g id="edge54" class="edge">
<title>9017&#45;&gt;8565</title>
<path fill="none" stroke="green" stroke-width="0.61" d="M355.26,-848.21C359.93,-838.45 365.34,-827.14 370.35,-816.66"/>
<polygon fill="green" stroke="green" stroke-width="0.61" points="373.65,-817.87 374.81,-807.34 367.34,-814.85 373.65,-817.87"/>
</g>
</g>
</svg>
