<?xml version="1.0" encoding="utf-8" standalone="no"?>
<!DOCTYPE svg PUBLIC "-//W3C//DTD SVG 1.1//EN"
  "http://www.w3.org/Graphics/SVG/1.1/DTD/svg11.dtd">
<!-- Created with matplotlib (https://matplotlib.org/) -->
<svg height="345.6pt" version="1.1" viewBox="0 0 460.8 345.6" width="460.8pt" xmlns="http://www.w3.org/2000/svg" xmlns:xlink="http://www.w3.org/1999/xlink">
 <metadata>
  <rdf:RDF xmlns:cc="http://creativecommons.org/ns#" xmlns:dc="http://purl.org/dc/elements/1.1/" xmlns:rdf="http://www.w3.org/1999/02/22-rdf-syntax-ns#">
   <cc:Work>
    <dc:type rdf:resource="http://purl.org/dc/dcmitype/StillImage"/>
    <dc:date>2023-01-08T22:04:57.337604</dc:date>
    <dc:format>image/svg+xml</dc:format>
    <dc:creator>
     <cc:Agent>
      <dc:title>Matplotlib v3.3.4, https://matplotlib.org/</dc:title>
     </cc:Agent>
    </dc:creator>
   </cc:Work>
  </rdf:RDF>
 </metadata>
 <defs>
  <style type="text/css">*{stroke-linecap:butt;stroke-linejoin:round;}</style>
 </defs>
 <g id="figure_1">
  <g id="patch_1">
   <path d="M 0 345.6 
L 460.8 345.6 
L 460.8 0 
L 0 0 
z
" style="fill:#ffffff;"/>
  </g>
  <g id="axes_1">
   <g id="patch_2">
    <path d="M 57.6 307.584 
L 414.72 307.584 
L 414.72 41.472 
L 57.6 41.472 
z
" style="fill:#ffffff;"/>
   </g>
   <g id="PolyCollection_1">
    <path clip-path="url(#pc6af350fce)" d="M 73.832727 54.144 
L 73.832727 307.584 
L 74.76297 307.584 
L 75.693212 307.584 
L 76.623454 307.584 
L 77.553696 307.584 
L 78.483939 307.584 
L 79.414181 307.584 
L 80.344423 307.584 
L 81.274665 307.584 
L 82.204908 307.584 
L 83.13515 307.584 
L 84.065392 307.584 
L 84.995634 307.584 
L 85.925877 307.584 
L 86.856119 307.584 
L 87.786361 307.584 
L 88.716603 307.584 
L 89.646846 307.584 
L 90.577088 307.584 
L 91.50733 307.584 
L 92.437572 307.584 
L 93.367815 307.584 
L 94.298057 307.584 
L 95.228299 307.584 
L 96.158541 307.584 
L 97.088784 307.584 
L 98.019026 307.584 
L 98.949268 307.584 
L 99.87951 307.584 
L 100.809753 307.584 
L 101.739995 307.584 
L 102.670237 307.584 
L 103.600479 307.584 
L 104.530722 307.584 
L 105.460964 307.584 
L 106.391206 307.584 
L 107.321448 307.584 
L 108.251691 307.584 
L 109.181933 307.584 
L 110.112175 307.584 
L 111.042417 307.584 
L 111.97266 307.584 
L 112.902902 307.584 
L 113.833144 307.584 
L 114.763386 307.584 
L 115.693629 307.584 
L 116.623871 307.584 
L 117.554113 307.584 
L 118.484355 307.584 
L 119.414598 307.584 
L 120.34484 307.584 
L 121.275082 307.584 
L 122.205324 307.584 
L 123.135567 307.584 
L 124.065809 307.584 
L 124.996051 307.584 
L 125.926293 307.584 
L 126.856536 307.584 
L 127.786778 307.584 
L 128.71702 307.584 
L 129.647262 307.584 
L 130.577505 307.584 
L 131.507747 307.584 
L 132.437989 307.584 
L 133.368231 307.584 
L 134.298474 307.584 
L 135.228716 307.584 
L 136.158958 307.584 
L 137.0892 307.584 
L 138.019443 307.584 
L 138.949685 307.584 
L 139.879927 307.584 
L 140.810169 307.584 
L 141.740412 307.584 
L 142.670654 307.584 
L 143.600896 307.584 
L 144.531138 307.584 
L 145.461381 307.584 
L 146.391623 307.584 
L 147.321865 307.584 
L 148.252107 307.584 
L 149.18235 307.584 
L 150.112592 307.584 
L 151.042834 307.584 
L 151.973076 307.584 
L 152.903319 307.584 
L 153.833561 307.584 
L 154.763803 307.584 
L 155.694045 307.584 
L 156.624288 307.584 
L 157.55453 307.584 
L 158.484772 307.584 
L 159.415014 307.584 
L 160.345257 307.584 
L 161.275499 307.584 
L 162.205741 307.584 
L 163.135983 307.584 
L 164.066226 307.584 
L 164.996468 307.584 
L 165.92671 307.584 
L 166.856952 307.584 
L 167.787195 307.584 
L 168.717437 307.584 
L 169.647679 307.584 
L 170.577921 307.584 
L 171.508164 307.584 
L 172.438406 307.584 
L 173.368648 307.584 
L 174.29889 307.584 
L 175.229133 307.584 
L 176.159375 307.584 
L 177.089617 307.584 
L 178.019859 307.584 
L 178.950102 307.584 
L 179.880344 307.584 
L 180.810586 307.584 
L 181.740828 307.584 
L 182.671071 307.584 
L 183.601313 307.584 
L 184.531555 307.584 
L 185.461797 307.584 
L 186.39204 307.584 
L 187.322282 307.584 
L 188.252524 307.584 
L 189.182766 307.584 
L 190.113009 307.584 
L 191.043251 307.584 
L 191.973493 307.584 
L 192.903735 307.584 
L 193.833978 307.584 
L 194.76422 307.584 
L 195.694462 307.584 
L 196.624704 307.584 
L 197.554947 307.584 
L 198.485189 307.584 
L 199.415431 307.584 
L 200.345673 307.584 
L 201.275916 307.584 
L 202.206158 307.584 
L 203.1364 307.584 
L 204.066642 307.584 
L 204.996885 307.584 
L 205.927127 307.584 
L 206.857369 307.584 
L 207.787611 307.584 
L 208.717854 307.584 
L 209.648096 307.584 
L 210.578338 307.584 
L 211.50858 307.584 
L 212.438823 307.584 
L 213.369065 307.584 
L 214.299307 307.584 
L 215.229549 307.584 
L 216.159792 307.584 
L 217.090034 307.584 
L 218.020276 307.584 
L 218.950518 307.584 
L 219.880761 307.584 
L 220.811003 307.584 
L 221.741245 307.584 
L 222.671487 307.584 
L 223.60173 307.584 
L 224.531972 307.584 
L 225.462214 307.584 
L 226.392456 307.584 
L 227.322699 307.584 
L 228.252941 307.584 
L 229.183183 307.584 
L 230.113425 307.584 
L 231.043668 307.584 
L 231.97391 307.584 
L 232.904152 307.584 
L 233.834394 307.584 
L 234.764637 307.584 
L 235.694879 307.584 
L 236.625121 307.584 
L 237.555363 307.584 
L 238.485606 307.584 
L 239.415848 307.584 
L 240.34609 307.584 
L 241.276332 307.584 
L 242.206575 307.584 
L 243.136817 307.584 
L 244.067059 307.584 
L 244.997301 307.584 
L 245.927544 307.584 
L 246.857786 307.584 
L 247.788028 307.584 
L 248.71827 307.584 
L 249.648513 307.584 
L 250.578755 307.584 
L 251.508997 307.584 
L 252.439239 307.584 
L 253.369482 307.584 
L 254.299724 307.584 
L 255.229966 307.584 
L 256.160208 307.584 
L 257.090451 307.584 
L 258.020693 307.584 
L 258.950935 307.584 
L 259.881177 307.584 
L 260.81142 307.584 
L 261.741662 307.584 
L 262.671904 307.584 
L 263.602146 307.584 
L 264.532389 307.584 
L 265.462631 307.584 
L 266.392873 307.584 
L 267.323115 307.584 
L 268.253358 307.584 
L 269.1836 307.584 
L 270.113842 307.584 
L 271.044084 307.584 
L 271.974327 307.584 
L 272.904569 307.584 
L 273.834811 307.584 
L 274.765053 307.584 
L 275.695296 307.584 
L 276.625538 307.584 
L 277.55578 307.584 
L 278.486022 307.584 
L 279.416265 307.584 
L 280.346507 307.584 
L 281.276749 307.584 
L 282.206991 307.584 
L 283.137234 307.584 
L 284.067476 307.584 
L 284.997718 307.584 
L 285.92796 307.584 
L 286.858203 307.584 
L 287.788445 307.584 
L 288.718687 307.584 
L 289.648929 307.584 
L 290.579172 307.584 
L 291.509414 307.584 
L 292.439656 307.584 
L 293.369898 307.584 
L 294.300141 307.584 
L 295.230383 307.584 
L 296.160625 307.584 
L 297.090867 307.584 
L 298.02111 307.584 
L 298.951352 307.584 
L 299.881594 307.584 
L 300.811836 307.584 
L 301.742079 307.584 
L 302.672321 307.584 
L 303.602563 307.584 
L 304.532805 307.584 
L 305.463048 307.584 
L 306.39329 307.584 
L 307.323532 307.584 
L 308.253774 307.584 
L 309.184017 307.584 
L 310.114259 307.584 
L 311.044501 307.584 
L 311.974743 307.584 
L 312.904986 307.584 
L 313.835228 307.584 
L 314.76547 307.584 
L 315.695712 307.584 
L 316.625955 307.584 
L 317.556197 307.584 
L 318.486439 307.584 
L 319.416681 307.584 
L 320.346924 307.584 
L 321.277166 307.584 
L 322.207408 307.584 
L 323.13765 307.584 
L 324.067893 307.584 
L 324.998135 307.584 
L 325.928377 307.584 
L 326.858619 307.584 
L 327.788862 307.584 
L 328.719104 307.584 
L 329.649346 307.584 
L 330.579588 307.584 
L 331.509831 307.584 
L 332.440073 307.584 
L 333.370315 307.584 
L 334.300557 307.584 
L 335.2308 307.584 
L 336.161042 307.584 
L 337.091284 307.584 
L 338.021526 307.584 
L 338.951769 307.584 
L 339.882011 307.584 
L 340.812253 307.584 
L 341.742495 307.584 
L 342.672738 307.584 
L 343.60298 307.584 
L 344.533222 307.584 
L 345.463464 307.584 
L 346.393707 307.584 
L 347.323949 307.584 
L 348.254191 307.584 
L 349.184433 307.584 
L 350.114676 307.584 
L 351.044918 307.584 
L 351.97516 307.584 
L 352.905402 307.584 
L 353.835645 307.584 
L 354.765887 307.584 
L 355.696129 307.584 
L 356.626371 307.584 
L 357.556614 307.584 
L 358.486856 307.584 
L 359.417098 307.584 
L 360.34734 307.584 
L 361.277583 307.584 
L 362.207825 307.584 
L 363.138067 307.584 
L 364.068309 307.584 
L 364.998552 307.584 
L 365.928794 307.584 
L 366.859036 307.584 
L 367.789278 307.584 
L 368.719521 307.584 
L 369.649763 307.584 
L 370.580005 307.584 
L 371.510247 307.584 
L 372.44049 307.584 
L 373.370732 307.584 
L 374.300974 307.584 
L 375.231216 307.584 
L 376.161459 307.584 
L 377.091701 307.584 
L 378.021943 307.584 
L 378.952185 307.584 
L 379.882428 307.584 
L 380.81267 307.584 
L 381.742912 307.584 
L 382.673154 307.584 
L 383.603397 307.584 
L 384.533639 307.584 
L 385.463881 307.584 
L 386.394123 307.584 
L 387.324366 307.584 
L 388.254608 307.584 
L 389.18485 307.584 
L 390.115092 307.584 
L 391.045335 307.584 
L 391.975577 307.584 
L 392.905819 307.584 
L 393.836061 307.584 
L 394.766304 307.584 
L 395.696546 307.584 
L 396.626788 307.584 
L 397.55703 307.584 
L 398.487273 307.584 
L 398.487273 191.0016 
L 398.487273 191.0016 
L 397.55703 196.0704 
L 396.626788 175.7952 
L 395.696546 160.5888 
L 394.766304 170.7264 
L 393.836061 185.9328 
L 392.905819 201.1392 
L 391.975577 180.864 
L 391.045335 175.7952 
L 390.115092 191.0016 
L 389.18485 201.1392 
L 388.254608 180.864 
L 387.324366 185.9328 
L 386.394123 170.7264 
L 385.463881 196.0704 
L 384.533639 185.9328 
L 383.603397 165.6576 
L 382.673154 175.7952 
L 381.742912 180.864 
L 380.81267 185.9328 
L 379.882428 201.1392 
L 378.952185 180.864 
L 378.021943 185.9328 
L 377.091701 191.0016 
L 376.161459 196.0704 
L 375.231216 180.864 
L 374.300974 185.9328 
L 373.370732 180.864 
L 372.44049 191.0016 
L 371.510247 206.208 
L 370.580005 216.3456 
L 369.649763 191.0016 
L 368.719521 170.7264 
L 367.789278 185.9328 
L 366.859036 201.1392 
L 365.928794 211.2768 
L 364.998552 196.0704 
L 364.068309 191.0016 
L 363.138067 175.7952 
L 362.207825 170.7264 
L 361.277583 165.6576 
L 360.34734 160.5888 
L 359.417098 165.6576 
L 358.486856 170.7264 
L 357.556614 155.52 
L 356.626371 165.6576 
L 355.696129 170.7264 
L 354.765887 191.0016 
L 353.835645 196.0704 
L 352.905402 191.0016 
L 351.97516 196.0704 
L 351.044918 191.0016 
L 350.114676 180.864 
L 349.184433 175.7952 
L 348.254191 191.0016 
L 347.323949 170.7264 
L 346.393707 175.7952 
L 345.463464 180.864 
L 344.533222 211.2768 
L 343.60298 185.9328 
L 342.672738 175.7952 
L 341.742495 180.864 
L 340.812253 185.9328 
L 339.882011 170.7264 
L 338.951769 165.6576 
L 338.021526 170.7264 
L 337.091284 191.0016 
L 336.161042 170.7264 
L 335.2308 180.864 
L 334.300557 160.5888 
L 333.370315 155.52 
L 332.440073 165.6576 
L 331.509831 160.5888 
L 330.579588 165.6576 
L 329.649346 185.9328 
L 328.719104 206.208 
L 327.788862 170.7264 
L 326.858619 165.6576 
L 325.928377 170.7264 
L 324.998135 165.6576 
L 324.067893 175.7952 
L 323.13765 175.7952 
L 322.207408 165.6576 
L 321.277166 180.864 
L 320.346924 185.9328 
L 319.416681 191.0016 
L 318.486439 185.9328 
L 317.556197 165.6576 
L 316.625955 170.7264 
L 315.695712 160.5888 
L 314.76547 170.7264 
L 313.835228 165.6576 
L 312.904986 175.7952 
L 311.974743 180.864 
L 311.044501 175.7952 
L 310.114259 180.864 
L 309.184017 175.7952 
L 308.253774 170.7264 
L 307.323532 180.864 
L 306.39329 170.7264 
L 305.463048 180.864 
L 304.532805 170.7264 
L 303.602563 180.864 
L 302.672321 185.9328 
L 301.742079 196.0704 
L 300.811836 170.7264 
L 299.881594 165.6576 
L 298.951352 191.0016 
L 298.02111 201.1392 
L 297.090867 185.9328 
L 296.160625 175.7952 
L 295.230383 185.9328 
L 294.300141 191.0016 
L 293.369898 175.7952 
L 292.439656 211.2768 
L 291.509414 196.0704 
L 290.579172 191.0016 
L 289.648929 180.864 
L 288.718687 170.7264 
L 287.788445 165.6576 
L 286.858203 170.7264 
L 285.92796 201.1392 
L 284.997718 191.0016 
L 284.067476 211.2768 
L 283.137234 191.0016 
L 282.206991 196.0704 
L 281.276749 201.1392 
L 280.346507 170.7264 
L 279.416265 191.0016 
L 278.486022 170.7264 
L 277.55578 185.9328 
L 276.625538 185.9328 
L 275.695296 196.0704 
L 274.765053 196.0704 
L 273.834811 191.0016 
L 272.904569 196.0704 
L 271.974327 175.7952 
L 271.044084 155.52 
L 270.113842 191.0016 
L 269.1836 201.1392 
L 268.253358 185.9328 
L 267.323115 191.0016 
L 266.392873 180.864 
L 265.462631 185.9328 
L 264.532389 196.0704 
L 263.602146 201.1392 
L 262.671904 185.9328 
L 261.741662 201.1392 
L 260.81142 165.6576 
L 259.881177 170.7264 
L 258.950935 175.7952 
L 258.020693 185.9328 
L 257.090451 170.7264 
L 256.160208 165.6576 
L 255.229966 180.864 
L 254.299724 191.0016 
L 253.369482 201.1392 
L 252.439239 180.864 
L 251.508997 165.6576 
L 250.578755 170.7264 
L 249.648513 191.0016 
L 248.71827 185.9328 
L 247.788028 180.864 
L 246.857786 175.7952 
L 245.927544 201.1392 
L 244.997301 206.208 
L 244.067059 201.1392 
L 243.136817 196.0704 
L 242.206575 216.3456 
L 241.276332 201.1392 
L 240.34609 206.208 
L 239.415848 216.3456 
L 238.485606 185.9328 
L 237.555363 165.6576 
L 236.625121 170.7264 
L 235.694879 165.6576 
L 234.764637 155.52 
L 233.834394 165.6576 
L 232.904152 170.7264 
L 231.97391 185.9328 
L 231.043668 191.0016 
L 230.113425 201.1392 
L 229.183183 216.3456 
L 228.252941 206.208 
L 227.322699 196.0704 
L 226.392456 196.0704 
L 225.462214 180.864 
L 224.531972 191.0016 
L 223.60173 201.1392 
L 222.671487 191.0016 
L 221.741245 185.9328 
L 220.811003 201.1392 
L 219.880761 191.0016 
L 218.950518 196.0704 
L 218.020276 201.1392 
L 217.090034 180.864 
L 216.159792 206.208 
L 215.229549 196.0704 
L 214.299307 191.0016 
L 213.369065 185.9328 
L 212.438823 180.864 
L 211.50858 196.0704 
L 210.578338 206.208 
L 209.648096 201.1392 
L 208.717854 196.0704 
L 207.787611 175.7952 
L 206.857369 191.0016 
L 205.927127 185.9328 
L 204.996885 170.7264 
L 204.066642 175.7952 
L 203.1364 160.5888 
L 202.206158 175.7952 
L 201.275916 109.9008 
L 200.345673 160.5888 
L 199.415431 135.2448 
L 198.485189 120.0384 
L 197.554947 135.2448 
L 196.624704 125.1072 
L 195.694462 140.3136 
L 194.76422 145.3824 
L 193.833978 140.3136 
L 192.903735 135.2448 
L 191.973493 140.3136 
L 191.043251 150.4512 
L 190.113009 140.3136 
L 189.182766 145.3824 
L 188.252524 125.1072 
L 187.322282 135.2448 
L 186.39204 150.4512 
L 185.461797 140.3136 
L 184.531555 145.3824 
L 183.601313 140.3136 
L 182.671071 150.4512 
L 181.740828 140.3136 
L 180.810586 145.3824 
L 179.880344 160.5888 
L 178.950102 165.6576 
L 178.019859 160.5888 
L 177.089617 155.52 
L 176.159375 165.6576 
L 175.229133 175.7952 
L 174.29889 170.7264 
L 173.368648 160.5888 
L 172.438406 175.7952 
L 171.508164 160.5888 
L 170.577921 191.0016 
L 169.647679 201.1392 
L 168.717437 196.0704 
L 167.787195 185.9328 
L 166.856952 191.0016 
L 165.92671 185.9328 
L 164.996468 180.864 
L 164.066226 165.6576 
L 163.135983 175.7952 
L 162.205741 191.0016 
L 161.275499 236.6208 
L 160.345257 282.24 
L 159.415014 125.1072 
L 158.484772 140.3136 
L 157.55453 236.6208 
L 156.624288 74.4192 
L 155.694045 104.832 
L 154.763803 251.8272 
L 153.833561 84.5568 
L 152.903319 69.3504 
L 151.973076 125.1072 
L 151.042834 175.7952 
L 150.112592 251.8272 
L 149.18235 185.9328 
L 148.252107 206.208 
L 147.321865 130.176 
L 146.391623 99.7632 
L 145.461381 267.0336 
L 144.531138 246.7584 
L 143.600896 246.7584 
L 142.670654 226.4832 
L 141.740412 226.4832 
L 140.810169 236.6208 
L 139.879927 277.1712 
L 138.949685 231.552 
L 138.019443 165.6576 
L 137.0892 216.3456 
L 136.158958 216.3456 
L 135.228716 201.1392 
L 134.298474 145.3824 
L 133.368231 175.7952 
L 132.437989 180.864 
L 131.507747 160.5888 
L 130.577505 155.52 
L 129.647262 140.3136 
L 128.71702 89.6256 
L 127.786778 59.2128 
L 126.856536 54.144 
L 125.926293 54.144 
L 124.996051 54.144 
L 124.065809 54.144 
L 123.135567 54.144 
L 122.205324 54.144 
L 121.275082 54.144 
L 120.34484 54.144 
L 119.414598 54.144 
L 118.484355 54.144 
L 117.554113 54.144 
L 116.623871 54.144 
L 115.693629 54.144 
L 114.763386 54.144 
L 113.833144 54.144 
L 112.902902 54.144 
L 111.97266 54.144 
L 111.042417 54.144 
L 110.112175 54.144 
L 109.181933 54.144 
L 108.251691 54.144 
L 107.321448 54.144 
L 106.391206 54.144 
L 105.460964 54.144 
L 104.530722 54.144 
L 103.600479 54.144 
L 102.670237 54.144 
L 101.739995 54.144 
L 100.809753 54.144 
L 99.87951 54.144 
L 98.949268 54.144 
L 98.019026 54.144 
L 97.088784 54.144 
L 96.158541 54.144 
L 95.228299 54.144 
L 94.298057 54.144 
L 93.367815 54.144 
L 92.437572 54.144 
L 91.50733 54.144 
L 90.577088 54.144 
L 89.646846 54.144 
L 88.716603 54.144 
L 87.786361 54.144 
L 86.856119 54.144 
L 85.925877 54.144 
L 84.995634 54.144 
L 84.065392 54.144 
L 83.13515 54.144 
L 82.204908 54.144 
L 81.274665 54.144 
L 80.344423 54.144 
L 79.414181 54.144 
L 78.483939 54.144 
L 77.553696 54.144 
L 76.623454 54.144 
L 75.693212 54.144 
L 74.76297 54.144 
L 73.832727 54.144 
z
" style="fill:#1f77b4;"/>
   </g>
   <g id="PolyCollection_2">
    <path clip-path="url(#pc6af350fce)" d="M 73.832727 54.144 
L 73.832727 54.144 
L 74.76297 54.144 
L 75.693212 54.144 
L 76.623454 54.144 
L 77.553696 54.144 
L 78.483939 54.144 
L 79.414181 54.144 
L 80.344423 54.144 
L 81.274665 54.144 
L 82.204908 54.144 
L 83.13515 54.144 
L 84.065392 54.144 
L 84.995634 54.144 
L 85.925877 54.144 
L 86.856119 54.144 
L 87.786361 54.144 
L 88.716603 54.144 
L 89.646846 54.144 
L 90.577088 54.144 
L 91.50733 54.144 
L 92.437572 54.144 
L 93.367815 54.144 
L 94.298057 54.144 
L 95.228299 54.144 
L 96.158541 54.144 
L 97.088784 54.144 
L 98.019026 54.144 
L 98.949268 54.144 
L 99.87951 54.144 
L 100.809753 54.144 
L 101.739995 54.144 
L 102.670237 54.144 
L 103.600479 54.144 
L 104.530722 54.144 
L 105.460964 54.144 
L 106.391206 54.144 
L 107.321448 54.144 
L 108.251691 54.144 
L 109.181933 54.144 
L 110.112175 54.144 
L 111.042417 54.144 
L 111.97266 54.144 
L 112.902902 54.144 
L 113.833144 54.144 
L 114.763386 54.144 
L 115.693629 54.144 
L 116.623871 54.144 
L 117.554113 54.144 
L 118.484355 54.144 
L 119.414598 54.144 
L 120.34484 54.144 
L 121.275082 54.144 
L 122.205324 54.144 
L 123.135567 54.144 
L 124.065809 54.144 
L 124.996051 54.144 
L 125.926293 54.144 
L 126.856536 54.144 
L 127.786778 59.2128 
L 128.71702 89.6256 
L 129.647262 140.3136 
L 130.577505 155.52 
L 131.507747 160.5888 
L 132.437989 180.864 
L 133.368231 175.7952 
L 134.298474 145.3824 
L 135.228716 201.1392 
L 136.158958 216.3456 
L 137.0892 216.3456 
L 138.019443 165.6576 
L 138.949685 231.552 
L 139.879927 277.1712 
L 140.810169 236.6208 
L 141.740412 226.4832 
L 142.670654 226.4832 
L 143.600896 246.7584 
L 144.531138 246.7584 
L 145.461381 267.0336 
L 146.391623 99.7632 
L 147.321865 130.176 
L 148.252107 206.208 
L 149.18235 185.9328 
L 150.112592 251.8272 
L 151.042834 175.7952 
L 151.973076 125.1072 
L 152.903319 69.3504 
L 153.833561 84.5568 
L 154.763803 251.8272 
L 155.694045 104.832 
L 156.624288 74.4192 
L 157.55453 236.6208 
L 158.484772 140.3136 
L 159.415014 125.1072 
L 160.345257 282.24 
L 161.275499 236.6208 
L 162.205741 191.0016 
L 163.135983 175.7952 
L 164.066226 165.6576 
L 164.996468 180.864 
L 165.92671 185.9328 
L 166.856952 191.0016 
L 167.787195 185.9328 
L 168.717437 196.0704 
L 169.647679 201.1392 
L 170.577921 191.0016 
L 171.508164 160.5888 
L 172.438406 175.7952 
L 173.368648 160.5888 
L 174.29889 170.7264 
L 175.229133 175.7952 
L 176.159375 165.6576 
L 177.089617 155.52 
L 178.019859 160.5888 
L 178.950102 165.6576 
L 179.880344 160.5888 
L 180.810586 145.3824 
L 181.740828 140.3136 
L 182.671071 150.4512 
L 183.601313 140.3136 
L 184.531555 145.3824 
L 185.461797 140.3136 
L 186.39204 150.4512 
L 187.322282 135.2448 
L 188.252524 125.1072 
L 189.182766 145.3824 
L 190.113009 140.3136 
L 191.043251 150.4512 
L 191.973493 140.3136 
L 192.903735 135.2448 
L 193.833978 140.3136 
L 194.76422 145.3824 
L 195.694462 140.3136 
L 196.624704 125.1072 
L 197.554947 135.2448 
L 198.485189 120.0384 
L 199.415431 135.2448 
L 200.345673 160.5888 
L 201.275916 109.9008 
L 202.206158 175.7952 
L 203.1364 160.5888 
L 204.066642 175.7952 
L 204.996885 170.7264 
L 205.927127 185.9328 
L 206.857369 191.0016 
L 207.787611 175.7952 
L 208.717854 196.0704 
L 209.648096 201.1392 
L 210.578338 206.208 
L 211.50858 196.0704 
L 212.438823 180.864 
L 213.369065 185.9328 
L 214.299307 191.0016 
L 215.229549 196.0704 
L 216.159792 206.208 
L 217.090034 180.864 
L 218.020276 201.1392 
L 218.950518 196.0704 
L 219.880761 191.0016 
L 220.811003 201.1392 
L 221.741245 185.9328 
L 222.671487 191.0016 
L 223.60173 201.1392 
L 224.531972 191.0016 
L 225.462214 180.864 
L 226.392456 196.0704 
L 227.322699 196.0704 
L 228.252941 206.208 
L 229.183183 216.3456 
L 230.113425 201.1392 
L 231.043668 191.0016 
L 231.97391 185.9328 
L 232.904152 170.7264 
L 233.834394 165.6576 
L 234.764637 155.52 
L 235.694879 165.6576 
L 236.625121 170.7264 
L 237.555363 165.6576 
L 238.485606 185.9328 
L 239.415848 216.3456 
L 240.34609 206.208 
L 241.276332 201.1392 
L 242.206575 216.3456 
L 243.136817 196.0704 
L 244.067059 201.1392 
L 244.997301 206.208 
L 245.927544 201.1392 
L 246.857786 175.7952 
L 247.788028 180.864 
L 248.71827 185.9328 
L 249.648513 191.0016 
L 250.578755 170.7264 
L 251.508997 165.6576 
L 252.439239 180.864 
L 253.369482 201.1392 
L 254.299724 191.0016 
L 255.229966 180.864 
L 256.160208 165.6576 
L 257.090451 170.7264 
L 258.020693 185.9328 
L 258.950935 175.7952 
L 259.881177 170.7264 
L 260.81142 165.6576 
L 261.741662 201.1392 
L 262.671904 185.9328 
L 263.602146 201.1392 
L 264.532389 196.0704 
L 265.462631 185.9328 
L 266.392873 180.864 
L 267.323115 191.0016 
L 268.253358 185.9328 
L 269.1836 201.1392 
L 270.113842 191.0016 
L 271.044084 155.52 
L 271.974327 175.7952 
L 272.904569 196.0704 
L 273.834811 191.0016 
L 274.765053 196.0704 
L 275.695296 196.0704 
L 276.625538 185.9328 
L 277.55578 185.9328 
L 278.486022 170.7264 
L 279.416265 191.0016 
L 280.346507 170.7264 
L 281.276749 201.1392 
L 282.206991 196.0704 
L 283.137234 191.0016 
L 284.067476 211.2768 
L 284.997718 191.0016 
L 285.92796 201.1392 
L 286.858203 170.7264 
L 287.788445 165.6576 
L 288.718687 170.7264 
L 289.648929 180.864 
L 290.579172 191.0016 
L 291.509414 196.0704 
L 292.439656 211.2768 
L 293.369898 175.7952 
L 294.300141 191.0016 
L 295.230383 185.9328 
L 296.160625 175.7952 
L 297.090867 185.9328 
L 298.02111 201.1392 
L 298.951352 191.0016 
L 299.881594 165.6576 
L 300.811836 170.7264 
L 301.742079 196.0704 
L 302.672321 185.9328 
L 303.602563 180.864 
L 304.532805 170.7264 
L 305.463048 180.864 
L 306.39329 170.7264 
L 307.323532 180.864 
L 308.253774 170.7264 
L 309.184017 175.7952 
L 310.114259 180.864 
L 311.044501 175.7952 
L 311.974743 180.864 
L 312.904986 175.7952 
L 313.835228 165.6576 
L 314.76547 170.7264 
L 315.695712 160.5888 
L 316.625955 170.7264 
L 317.556197 165.6576 
L 318.486439 185.9328 
L 319.416681 191.0016 
L 320.346924 185.9328 
L 321.277166 180.864 
L 322.207408 165.6576 
L 323.13765 175.7952 
L 324.067893 175.7952 
L 324.998135 165.6576 
L 325.928377 170.7264 
L 326.858619 165.6576 
L 327.788862 170.7264 
L 328.719104 206.208 
L 329.649346 185.9328 
L 330.579588 165.6576 
L 331.509831 160.5888 
L 332.440073 165.6576 
L 333.370315 155.52 
L 334.300557 160.5888 
L 335.2308 180.864 
L 336.161042 170.7264 
L 337.091284 191.0016 
L 338.021526 170.7264 
L 338.951769 165.6576 
L 339.882011 170.7264 
L 340.812253 185.9328 
L 341.742495 180.864 
L 342.672738 175.7952 
L 343.60298 185.9328 
L 344.533222 211.2768 
L 345.463464 180.864 
L 346.393707 175.7952 
L 347.323949 170.7264 
L 348.254191 191.0016 
L 349.184433 175.7952 
L 350.114676 180.864 
L 351.044918 191.0016 
L 351.97516 196.0704 
L 352.905402 191.0016 
L 353.835645 196.0704 
L 354.765887 191.0016 
L 355.696129 170.7264 
L 356.626371 165.6576 
L 357.556614 155.52 
L 358.486856 170.7264 
L 359.417098 165.6576 
L 360.34734 160.5888 
L 361.277583 165.6576 
L 362.207825 170.7264 
L 363.138067 175.7952 
L 364.068309 191.0016 
L 364.998552 196.0704 
L 365.928794 211.2768 
L 366.859036 201.1392 
L 367.789278 185.9328 
L 368.719521 170.7264 
L 369.649763 191.0016 
L 370.580005 216.3456 
L 371.510247 206.208 
L 372.44049 191.0016 
L 373.370732 180.864 
L 374.300974 185.9328 
L 375.231216 180.864 
L 376.161459 196.0704 
L 377.091701 191.0016 
L 378.021943 185.9328 
L 378.952185 180.864 
L 379.882428 201.1392 
L 380.81267 185.9328 
L 381.742912 180.864 
L 382.673154 175.7952 
L 383.603397 165.6576 
L 384.533639 185.9328 
L 385.463881 196.0704 
L 386.394123 170.7264 
L 387.324366 185.9328 
L 388.254608 180.864 
L 389.18485 201.1392 
L 390.115092 191.0016 
L 391.045335 175.7952 
L 391.975577 180.864 
L 392.905819 201.1392 
L 393.836061 185.9328 
L 394.766304 170.7264 
L 395.696546 160.5888 
L 396.626788 175.7952 
L 397.55703 196.0704 
L 398.487273 191.0016 
L 398.487273 54.144 
L 398.487273 54.144 
L 397.55703 54.144 
L 396.626788 54.144 
L 395.696546 54.144 
L 394.766304 54.144 
L 393.836061 54.144 
L 392.905819 54.144 
L 391.975577 54.144 
L 391.045335 54.144 
L 390.115092 54.144 
L 389.18485 54.144 
L 388.254608 54.144 
L 387.324366 54.144 
L 386.394123 54.144 
L 385.463881 54.144 
L 384.533639 54.144 
L 383.603397 54.144 
L 382.673154 54.144 
L 381.742912 54.144 
L 380.81267 54.144 
L 379.882428 54.144 
L 378.952185 54.144 
L 378.021943 54.144 
L 377.091701 54.144 
L 376.161459 54.144 
L 375.231216 54.144 
L 374.300974 54.144 
L 373.370732 54.144 
L 372.44049 54.144 
L 371.510247 54.144 
L 370.580005 54.144 
L 369.649763 54.144 
L 368.719521 54.144 
L 367.789278 54.144 
L 366.859036 54.144 
L 365.928794 54.144 
L 364.998552 54.144 
L 364.068309 54.144 
L 363.138067 54.144 
L 362.207825 54.144 
L 361.277583 54.144 
L 360.34734 54.144 
L 359.417098 54.144 
L 358.486856 54.144 
L 357.556614 54.144 
L 356.626371 54.144 
L 355.696129 54.144 
L 354.765887 54.144 
L 353.835645 54.144 
L 352.905402 54.144 
L 351.97516 54.144 
L 351.044918 54.144 
L 350.114676 54.144 
L 349.184433 54.144 
L 348.254191 54.144 
L 347.323949 54.144 
L 346.393707 54.144 
L 345.463464 54.144 
L 344.533222 54.144 
L 343.60298 54.144 
L 342.672738 54.144 
L 341.742495 54.144 
L 340.812253 54.144 
L 339.882011 54.144 
L 338.951769 54.144 
L 338.021526 54.144 
L 337.091284 54.144 
L 336.161042 54.144 
L 335.2308 54.144 
L 334.300557 54.144 
L 333.370315 54.144 
L 332.440073 54.144 
L 331.509831 54.144 
L 330.579588 54.144 
L 329.649346 54.144 
L 328.719104 54.144 
L 327.788862 54.144 
L 326.858619 54.144 
L 325.928377 54.144 
L 324.998135 54.144 
L 324.067893 54.144 
L 323.13765 54.144 
L 322.207408 54.144 
L 321.277166 54.144 
L 320.346924 54.144 
L 319.416681 54.144 
L 318.486439 54.144 
L 317.556197 54.144 
L 316.625955 54.144 
L 315.695712 54.144 
L 314.76547 54.144 
L 313.835228 54.144 
L 312.904986 54.144 
L 311.974743 54.144 
L 311.044501 54.144 
L 310.114259 54.144 
L 309.184017 54.144 
L 308.253774 54.144 
L 307.323532 54.144 
L 306.39329 54.144 
L 305.463048 54.144 
L 304.532805 54.144 
L 303.602563 54.144 
L 302.672321 54.144 
L 301.742079 54.144 
L 300.811836 54.144 
L 299.881594 54.144 
L 298.951352 54.144 
L 298.02111 54.144 
L 297.090867 54.144 
L 296.160625 54.144 
L 295.230383 54.144 
L 294.300141 54.144 
L 293.369898 54.144 
L 292.439656 54.144 
L 291.509414 54.144 
L 290.579172 54.144 
L 289.648929 54.144 
L 288.718687 54.144 
L 287.788445 54.144 
L 286.858203 54.144 
L 285.92796 54.144 
L 284.997718 54.144 
L 284.067476 54.144 
L 283.137234 54.144 
L 282.206991 54.144 
L 281.276749 54.144 
L 280.346507 54.144 
L 279.416265 54.144 
L 278.486022 54.144 
L 277.55578 54.144 
L 276.625538 54.144 
L 275.695296 54.144 
L 274.765053 54.144 
L 273.834811 54.144 
L 272.904569 54.144 
L 271.974327 54.144 
L 271.044084 54.144 
L 270.113842 54.144 
L 269.1836 54.144 
L 268.253358 54.144 
L 267.323115 54.144 
L 266.392873 54.144 
L 265.462631 54.144 
L 264.532389 54.144 
L 263.602146 54.144 
L 262.671904 54.144 
L 261.741662 54.144 
L 260.81142 54.144 
L 259.881177 54.144 
L 258.950935 54.144 
L 258.020693 54.144 
L 257.090451 54.144 
L 256.160208 54.144 
L 255.229966 54.144 
L 254.299724 54.144 
L 253.369482 54.144 
L 252.439239 54.144 
L 251.508997 54.144 
L 250.578755 54.144 
L 249.648513 54.144 
L 248.71827 54.144 
L 247.788028 54.144 
L 246.857786 54.144 
L 245.927544 54.144 
L 244.997301 54.144 
L 244.067059 54.144 
L 243.136817 54.144 
L 242.206575 54.144 
L 241.276332 54.144 
L 240.34609 54.144 
L 239.415848 54.144 
L 238.485606 54.144 
L 237.555363 54.144 
L 236.625121 54.144 
L 235.694879 54.144 
L 234.764637 54.144 
L 233.834394 54.144 
L 232.904152 54.144 
L 231.97391 54.144 
L 231.043668 54.144 
L 230.113425 54.144 
L 229.183183 54.144 
L 228.252941 54.144 
L 227.322699 54.144 
L 226.392456 54.144 
L 225.462214 54.144 
L 224.531972 54.144 
L 223.60173 54.144 
L 222.671487 54.144 
L 221.741245 54.144 
L 220.811003 54.144 
L 219.880761 54.144 
L 218.950518 54.144 
L 218.020276 54.144 
L 217.090034 54.144 
L 216.159792 54.144 
L 215.229549 54.144 
L 214.299307 54.144 
L 213.369065 54.144 
L 212.438823 54.144 
L 211.50858 54.144 
L 210.578338 54.144 
L 209.648096 54.144 
L 208.717854 54.144 
L 207.787611 54.144 
L 206.857369 54.144 
L 205.927127 54.144 
L 204.996885 54.144 
L 204.066642 54.144 
L 203.1364 54.144 
L 202.206158 54.144 
L 201.275916 54.144 
L 200.345673 54.144 
L 199.415431 54.144 
L 198.485189 54.144 
L 197.554947 54.144 
L 196.624704 54.144 
L 195.694462 54.144 
L 194.76422 54.144 
L 193.833978 54.144 
L 192.903735 54.144 
L 191.973493 54.144 
L 191.043251 54.144 
L 190.113009 54.144 
L 189.182766 54.144 
L 188.252524 54.144 
L 187.322282 54.144 
L 186.39204 54.144 
L 185.461797 54.144 
L 184.531555 54.144 
L 183.601313 54.144 
L 182.671071 54.144 
L 181.740828 54.144 
L 180.810586 54.144 
L 179.880344 54.144 
L 178.950102 54.144 
L 178.019859 54.144 
L 177.089617 54.144 
L 176.159375 54.144 
L 175.229133 54.144 
L 174.29889 54.144 
L 173.368648 54.144 
L 172.438406 54.144 
L 171.508164 54.144 
L 170.577921 54.144 
L 169.647679 54.144 
L 168.717437 54.144 
L 167.787195 54.144 
L 166.856952 54.144 
L 165.92671 54.144 
L 164.996468 54.144 
L 164.066226 54.144 
L 163.135983 54.144 
L 162.205741 54.144 
L 161.275499 54.144 
L 160.345257 54.144 
L 159.415014 54.144 
L 158.484772 54.144 
L 157.55453 54.144 
L 156.624288 54.144 
L 155.694045 54.144 
L 154.763803 54.144 
L 153.833561 54.144 
L 152.903319 54.144 
L 151.973076 54.144 
L 151.042834 54.144 
L 150.112592 54.144 
L 149.18235 54.144 
L 148.252107 54.144 
L 147.321865 54.144 
L 146.391623 54.144 
L 145.461381 54.144 
L 144.531138 54.144 
L 143.600896 54.144 
L 142.670654 54.144 
L 141.740412 54.144 
L 140.810169 54.144 
L 139.879927 54.144 
L 138.949685 54.144 
L 138.019443 54.144 
L 137.0892 54.144 
L 136.158958 54.144 
L 135.228716 54.144 
L 134.298474 54.144 
L 133.368231 54.144 
L 132.437989 54.144 
L 131.507747 54.144 
L 130.577505 54.144 
L 129.647262 54.144 
L 128.71702 54.144 
L 127.786778 54.144 
L 126.856536 54.144 
L 125.926293 54.144 
L 124.996051 54.144 
L 124.065809 54.144 
L 123.135567 54.144 
L 122.205324 54.144 
L 121.275082 54.144 
L 120.34484 54.144 
L 119.414598 54.144 
L 118.484355 54.144 
L 117.554113 54.144 
L 116.623871 54.144 
L 115.693629 54.144 
L 114.763386 54.144 
L 113.833144 54.144 
L 112.902902 54.144 
L 111.97266 54.144 
L 111.042417 54.144 
L 110.112175 54.144 
L 109.181933 54.144 
L 108.251691 54.144 
L 107.321448 54.144 
L 106.391206 54.144 
L 105.460964 54.144 
L 104.530722 54.144 
L 103.600479 54.144 
L 102.670237 54.144 
L 101.739995 54.144 
L 100.809753 54.144 
L 99.87951 54.144 
L 98.949268 54.144 
L 98.019026 54.144 
L 97.088784 54.144 
L 96.158541 54.144 
L 95.228299 54.144 
L 94.298057 54.144 
L 93.367815 54.144 
L 92.437572 54.144 
L 91.50733 54.144 
L 90.577088 54.144 
L 89.646846 54.144 
L 88.716603 54.144 
L 87.786361 54.144 
L 86.856119 54.144 
L 85.925877 54.144 
L 84.995634 54.144 
L 84.065392 54.144 
L 83.13515 54.144 
L 82.204908 54.144 
L 81.274665 54.144 
L 80.344423 54.144 
L 79.414181 54.144 
L 78.483939 54.144 
L 77.553696 54.144 
L 76.623454 54.144 
L 75.693212 54.144 
L 74.76297 54.144 
L 73.832727 54.144 
z
" style="fill:#ff7f0e;"/>
   </g>
   <g id="matplotlib.axis_1">
    <g id="xtick_1">
     <g id="line2d_1">
      <defs>
       <path d="M 0 0 
L 0 3.5 
" id="m083a3487c4" style="stroke:#000000;stroke-width:0.8;"/>
      </defs>
      <g>
       <use style="stroke:#000000;stroke-width:0.8;" x="73.832727" xlink:href="#m083a3487c4" y="307.584"/>
      </g>
     </g>
     <g id="text_1">
      <!-- 0 -->
      <g transform="translate(70.651477 322.182437)scale(0.1 -0.1)">
       <defs>
        <path d="M 31.78125 66.40625 
Q 24.171875 66.40625 20.328125 58.90625 
Q 16.5 51.421875 16.5 36.375 
Q 16.5 21.390625 20.328125 13.890625 
Q 24.171875 6.390625 31.78125 6.390625 
Q 39.453125 6.390625 43.28125 13.890625 
Q 47.125 21.390625 47.125 36.375 
Q 47.125 51.421875 43.28125 58.90625 
Q 39.453125 66.40625 31.78125 66.40625 
z
M 31.78125 74.21875 
Q 44.046875 74.21875 50.515625 64.515625 
Q 56.984375 54.828125 56.984375 36.375 
Q 56.984375 17.96875 50.515625 8.265625 
Q 44.046875 -1.421875 31.78125 -1.421875 
Q 19.53125 -1.421875 13.0625 8.265625 
Q 6.59375 17.96875 6.59375 36.375 
Q 6.59375 54.828125 13.0625 64.515625 
Q 19.53125 74.21875 31.78125 74.21875 
z
" id="DejaVuSans-48"/>
       </defs>
       <use xlink:href="#DejaVuSans-48"/>
      </g>
     </g>
    </g>
    <g id="xtick_2">
     <g id="line2d_2">
      <g>
       <use style="stroke:#000000;stroke-width:0.8;" x="120.34484" xlink:href="#m083a3487c4" y="307.584"/>
      </g>
     </g>
     <g id="text_2">
      <!-- 50 -->
      <g transform="translate(113.98234 322.182437)scale(0.1 -0.1)">
       <defs>
        <path d="M 10.796875 72.90625 
L 49.515625 72.90625 
L 49.515625 64.59375 
L 19.828125 64.59375 
L 19.828125 46.734375 
Q 21.96875 47.46875 24.109375 47.828125 
Q 26.265625 48.1875 28.421875 48.1875 
Q 40.625 48.1875 47.75 41.5 
Q 54.890625 34.8125 54.890625 23.390625 
Q 54.890625 11.625 47.5625 5.09375 
Q 40.234375 -1.421875 26.90625 -1.421875 
Q 22.3125 -1.421875 17.546875 -0.640625 
Q 12.796875 0.140625 7.71875 1.703125 
L 7.71875 11.625 
Q 12.109375 9.234375 16.796875 8.0625 
Q 21.484375 6.890625 26.703125 6.890625 
Q 35.15625 6.890625 40.078125 11.328125 
Q 45.015625 15.765625 45.015625 23.390625 
Q 45.015625 31 40.078125 35.4375 
Q 35.15625 39.890625 26.703125 39.890625 
Q 22.75 39.890625 18.8125 39.015625 
Q 14.890625 38.140625 10.796875 36.28125 
z
" id="DejaVuSans-53"/>
       </defs>
       <use xlink:href="#DejaVuSans-53"/>
       <use x="63.623047" xlink:href="#DejaVuSans-48"/>
      </g>
     </g>
    </g>
    <g id="xtick_3">
     <g id="line2d_3">
      <g>
       <use style="stroke:#000000;stroke-width:0.8;" x="166.856952" xlink:href="#m083a3487c4" y="307.584"/>
      </g>
     </g>
     <g id="text_3">
      <!-- 100 -->
      <g transform="translate(157.313202 322.182437)scale(0.1 -0.1)">
       <defs>
        <path d="M 12.40625 8.296875 
L 28.515625 8.296875 
L 28.515625 63.921875 
L 10.984375 60.40625 
L 10.984375 69.390625 
L 28.421875 72.90625 
L 38.28125 72.90625 
L 38.28125 8.296875 
L 54.390625 8.296875 
L 54.390625 0 
L 12.40625 0 
z
" id="DejaVuSans-49"/>
       </defs>
       <use xlink:href="#DejaVuSans-49"/>
       <use x="63.623047" xlink:href="#DejaVuSans-48"/>
       <use x="127.246094" xlink:href="#DejaVuSans-48"/>
      </g>
     </g>
    </g>
    <g id="xtick_4">
     <g id="line2d_4">
      <g>
       <use style="stroke:#000000;stroke-width:0.8;" x="213.369065" xlink:href="#m083a3487c4" y="307.584"/>
      </g>
     </g>
     <g id="text_4">
      <!-- 150 -->
      <g transform="translate(203.825315 322.182437)scale(0.1 -0.1)">
       <use xlink:href="#DejaVuSans-49"/>
       <use x="63.623047" xlink:href="#DejaVuSans-53"/>
       <use x="127.246094" xlink:href="#DejaVuSans-48"/>
      </g>
     </g>
    </g>
    <g id="xtick_5">
     <g id="line2d_5">
      <g>
       <use style="stroke:#000000;stroke-width:0.8;" x="259.881177" xlink:href="#m083a3487c4" y="307.584"/>
      </g>
     </g>
     <g id="text_5">
      <!-- 200 -->
      <g transform="translate(250.337427 322.182437)scale(0.1 -0.1)">
       <defs>
        <path d="M 19.1875 8.296875 
L 53.609375 8.296875 
L 53.609375 0 
L 7.328125 0 
L 7.328125 8.296875 
Q 12.9375 14.109375 22.625 23.890625 
Q 32.328125 33.6875 34.8125 36.53125 
Q 39.546875 41.84375 41.421875 45.53125 
Q 43.3125 49.21875 43.3125 52.78125 
Q 43.3125 58.59375 39.234375 62.25 
Q 35.15625 65.921875 28.609375 65.921875 
Q 23.96875 65.921875 18.8125 64.3125 
Q 13.671875 62.703125 7.8125 59.421875 
L 7.8125 69.390625 
Q 13.765625 71.78125 18.9375 73 
Q 24.125 74.21875 28.421875 74.21875 
Q 39.75 74.21875 46.484375 68.546875 
Q 53.21875 62.890625 53.21875 53.421875 
Q 53.21875 48.921875 51.53125 44.890625 
Q 49.859375 40.875 45.40625 35.40625 
Q 44.1875 33.984375 37.640625 27.21875 
Q 31.109375 20.453125 19.1875 8.296875 
z
" id="DejaVuSans-50"/>
       </defs>
       <use xlink:href="#DejaVuSans-50"/>
       <use x="63.623047" xlink:href="#DejaVuSans-48"/>
       <use x="127.246094" xlink:href="#DejaVuSans-48"/>
      </g>
     </g>
    </g>
    <g id="xtick_6">
     <g id="line2d_6">
      <g>
       <use style="stroke:#000000;stroke-width:0.8;" x="306.39329" xlink:href="#m083a3487c4" y="307.584"/>
      </g>
     </g>
     <g id="text_6">
      <!-- 250 -->
      <g transform="translate(296.84954 322.182437)scale(0.1 -0.1)">
       <use xlink:href="#DejaVuSans-50"/>
       <use x="63.623047" xlink:href="#DejaVuSans-53"/>
       <use x="127.246094" xlink:href="#DejaVuSans-48"/>
      </g>
     </g>
    </g>
    <g id="xtick_7">
     <g id="line2d_7">
      <g>
       <use style="stroke:#000000;stroke-width:0.8;" x="352.905402" xlink:href="#m083a3487c4" y="307.584"/>
      </g>
     </g>
     <g id="text_7">
      <!-- 300 -->
      <g transform="translate(343.361652 322.182437)scale(0.1 -0.1)">
       <defs>
        <path d="M 40.578125 39.3125 
Q 47.65625 37.796875 51.625 33 
Q 55.609375 28.21875 55.609375 21.1875 
Q 55.609375 10.40625 48.1875 4.484375 
Q 40.765625 -1.421875 27.09375 -1.421875 
Q 22.515625 -1.421875 17.65625 -0.515625 
Q 12.796875 0.390625 7.625 2.203125 
L 7.625 11.71875 
Q 11.71875 9.328125 16.59375 8.109375 
Q 21.484375 6.890625 26.8125 6.890625 
Q 36.078125 6.890625 40.9375 10.546875 
Q 45.796875 14.203125 45.796875 21.1875 
Q 45.796875 27.640625 41.28125 31.265625 
Q 36.765625 34.90625 28.71875 34.90625 
L 20.21875 34.90625 
L 20.21875 43.015625 
L 29.109375 43.015625 
Q 36.375 43.015625 40.234375 45.921875 
Q 44.09375 48.828125 44.09375 54.296875 
Q 44.09375 59.90625 40.109375 62.90625 
Q 36.140625 65.921875 28.71875 65.921875 
Q 24.65625 65.921875 20.015625 65.03125 
Q 15.375 64.15625 9.8125 62.3125 
L 9.8125 71.09375 
Q 15.4375 72.65625 20.34375 73.4375 
Q 25.25 74.21875 29.59375 74.21875 
Q 40.828125 74.21875 47.359375 69.109375 
Q 53.90625 64.015625 53.90625 55.328125 
Q 53.90625 49.265625 50.4375 45.09375 
Q 46.96875 40.921875 40.578125 39.3125 
z
" id="DejaVuSans-51"/>
       </defs>
       <use xlink:href="#DejaVuSans-51"/>
       <use x="63.623047" xlink:href="#DejaVuSans-48"/>
       <use x="127.246094" xlink:href="#DejaVuSans-48"/>
      </g>
     </g>
    </g>
    <g id="xtick_8">
     <g id="line2d_8">
      <g>
       <use style="stroke:#000000;stroke-width:0.8;" x="399.417515" xlink:href="#m083a3487c4" y="307.584"/>
      </g>
     </g>
     <g id="text_8">
      <!-- 350 -->
      <g transform="translate(389.873765 322.182437)scale(0.1 -0.1)">
       <use xlink:href="#DejaVuSans-51"/>
       <use x="63.623047" xlink:href="#DejaVuSans-53"/>
       <use x="127.246094" xlink:href="#DejaVuSans-48"/>
      </g>
     </g>
    </g>
    <g id="text_9">
     <!-- Generations -->
     <g transform="translate(205.662344 335.860562)scale(0.1 -0.1)">
      <defs>
       <path d="M 59.515625 10.40625 
L 59.515625 29.984375 
L 43.40625 29.984375 
L 43.40625 38.09375 
L 69.28125 38.09375 
L 69.28125 6.78125 
Q 63.578125 2.734375 56.6875 0.65625 
Q 49.8125 -1.421875 42 -1.421875 
Q 24.90625 -1.421875 15.25 8.5625 
Q 5.609375 18.5625 5.609375 36.375 
Q 5.609375 54.25 15.25 64.234375 
Q 24.90625 74.21875 42 74.21875 
Q 49.125 74.21875 55.546875 72.453125 
Q 61.96875 70.703125 67.390625 67.28125 
L 67.390625 56.78125 
Q 61.921875 61.421875 55.765625 63.765625 
Q 49.609375 66.109375 42.828125 66.109375 
Q 29.4375 66.109375 22.71875 58.640625 
Q 16.015625 51.171875 16.015625 36.375 
Q 16.015625 21.625 22.71875 14.15625 
Q 29.4375 6.6875 42.828125 6.6875 
Q 48.046875 6.6875 52.140625 7.59375 
Q 56.25 8.5 59.515625 10.40625 
z
" id="DejaVuSans-71"/>
       <path d="M 56.203125 29.59375 
L 56.203125 25.203125 
L 14.890625 25.203125 
Q 15.484375 15.921875 20.484375 11.0625 
Q 25.484375 6.203125 34.421875 6.203125 
Q 39.59375 6.203125 44.453125 7.46875 
Q 49.3125 8.734375 54.109375 11.28125 
L 54.109375 2.78125 
Q 49.265625 0.734375 44.1875 -0.34375 
Q 39.109375 -1.421875 33.890625 -1.421875 
Q 20.796875 -1.421875 13.15625 6.1875 
Q 5.515625 13.8125 5.515625 26.8125 
Q 5.515625 40.234375 12.765625 48.109375 
Q 20.015625 56 32.328125 56 
Q 43.359375 56 49.78125 48.890625 
Q 56.203125 41.796875 56.203125 29.59375 
z
M 47.21875 32.234375 
Q 47.125 39.59375 43.09375 43.984375 
Q 39.0625 48.390625 32.421875 48.390625 
Q 24.90625 48.390625 20.390625 44.140625 
Q 15.875 39.890625 15.1875 32.171875 
z
" id="DejaVuSans-101"/>
       <path d="M 54.890625 33.015625 
L 54.890625 0 
L 45.90625 0 
L 45.90625 32.71875 
Q 45.90625 40.484375 42.875 44.328125 
Q 39.84375 48.1875 33.796875 48.1875 
Q 26.515625 48.1875 22.3125 43.546875 
Q 18.109375 38.921875 18.109375 30.90625 
L 18.109375 0 
L 9.078125 0 
L 9.078125 54.6875 
L 18.109375 54.6875 
L 18.109375 46.1875 
Q 21.34375 51.125 25.703125 53.5625 
Q 30.078125 56 35.796875 56 
Q 45.21875 56 50.046875 50.171875 
Q 54.890625 44.34375 54.890625 33.015625 
z
" id="DejaVuSans-110"/>
       <path d="M 41.109375 46.296875 
Q 39.59375 47.171875 37.8125 47.578125 
Q 36.03125 48 33.890625 48 
Q 26.265625 48 22.1875 43.046875 
Q 18.109375 38.09375 18.109375 28.8125 
L 18.109375 0 
L 9.078125 0 
L 9.078125 54.6875 
L 18.109375 54.6875 
L 18.109375 46.1875 
Q 20.953125 51.171875 25.484375 53.578125 
Q 30.03125 56 36.53125 56 
Q 37.453125 56 38.578125 55.875 
Q 39.703125 55.765625 41.0625 55.515625 
z
" id="DejaVuSans-114"/>
       <path d="M 34.28125 27.484375 
Q 23.390625 27.484375 19.1875 25 
Q 14.984375 22.515625 14.984375 16.5 
Q 14.984375 11.71875 18.140625 8.90625 
Q 21.296875 6.109375 26.703125 6.109375 
Q 34.1875 6.109375 38.703125 11.40625 
Q 43.21875 16.703125 43.21875 25.484375 
L 43.21875 27.484375 
z
M 52.203125 31.203125 
L 52.203125 0 
L 43.21875 0 
L 43.21875 8.296875 
Q 40.140625 3.328125 35.546875 0.953125 
Q 30.953125 -1.421875 24.3125 -1.421875 
Q 15.921875 -1.421875 10.953125 3.296875 
Q 6 8.015625 6 15.921875 
Q 6 25.140625 12.171875 29.828125 
Q 18.359375 34.515625 30.609375 34.515625 
L 43.21875 34.515625 
L 43.21875 35.40625 
Q 43.21875 41.609375 39.140625 45 
Q 35.0625 48.390625 27.6875 48.390625 
Q 23 48.390625 18.546875 47.265625 
Q 14.109375 46.140625 10.015625 43.890625 
L 10.015625 52.203125 
Q 14.9375 54.109375 19.578125 55.046875 
Q 24.21875 56 28.609375 56 
Q 40.484375 56 46.34375 49.84375 
Q 52.203125 43.703125 52.203125 31.203125 
z
" id="DejaVuSans-97"/>
       <path d="M 18.3125 70.21875 
L 18.3125 54.6875 
L 36.8125 54.6875 
L 36.8125 47.703125 
L 18.3125 47.703125 
L 18.3125 18.015625 
Q 18.3125 11.328125 20.140625 9.421875 
Q 21.96875 7.515625 27.59375 7.515625 
L 36.8125 7.515625 
L 36.8125 0 
L 27.59375 0 
Q 17.1875 0 13.234375 3.875 
Q 9.28125 7.765625 9.28125 18.015625 
L 9.28125 47.703125 
L 2.6875 47.703125 
L 2.6875 54.6875 
L 9.28125 54.6875 
L 9.28125 70.21875 
z
" id="DejaVuSans-116"/>
       <path d="M 9.421875 54.6875 
L 18.40625 54.6875 
L 18.40625 0 
L 9.421875 0 
z
M 9.421875 75.984375 
L 18.40625 75.984375 
L 18.40625 64.59375 
L 9.421875 64.59375 
z
" id="DejaVuSans-105"/>
       <path d="M 30.609375 48.390625 
Q 23.390625 48.390625 19.1875 42.75 
Q 14.984375 37.109375 14.984375 27.296875 
Q 14.984375 17.484375 19.15625 11.84375 
Q 23.34375 6.203125 30.609375 6.203125 
Q 37.796875 6.203125 41.984375 11.859375 
Q 46.1875 17.53125 46.1875 27.296875 
Q 46.1875 37.015625 41.984375 42.703125 
Q 37.796875 48.390625 30.609375 48.390625 
z
M 30.609375 56 
Q 42.328125 56 49.015625 48.375 
Q 55.71875 40.765625 55.71875 27.296875 
Q 55.71875 13.875 49.015625 6.21875 
Q 42.328125 -1.421875 30.609375 -1.421875 
Q 18.84375 -1.421875 12.171875 6.21875 
Q 5.515625 13.875 5.515625 27.296875 
Q 5.515625 40.765625 12.171875 48.375 
Q 18.84375 56 30.609375 56 
z
" id="DejaVuSans-111"/>
       <path d="M 44.28125 53.078125 
L 44.28125 44.578125 
Q 40.484375 46.53125 36.375 47.5 
Q 32.28125 48.484375 27.875 48.484375 
Q 21.1875 48.484375 17.84375 46.4375 
Q 14.5 44.390625 14.5 40.28125 
Q 14.5 37.15625 16.890625 35.375 
Q 19.28125 33.59375 26.515625 31.984375 
L 29.59375 31.296875 
Q 39.15625 29.25 43.1875 25.515625 
Q 47.21875 21.78125 47.21875 15.09375 
Q 47.21875 7.46875 41.1875 3.015625 
Q 35.15625 -1.421875 24.609375 -1.421875 
Q 20.21875 -1.421875 15.453125 -0.5625 
Q 10.6875 0.296875 5.421875 2 
L 5.421875 11.28125 
Q 10.40625 8.6875 15.234375 7.390625 
Q 20.0625 6.109375 24.8125 6.109375 
Q 31.15625 6.109375 34.5625 8.28125 
Q 37.984375 10.453125 37.984375 14.40625 
Q 37.984375 18.0625 35.515625 20.015625 
Q 33.0625 21.96875 24.703125 23.78125 
L 21.578125 24.515625 
Q 13.234375 26.265625 9.515625 29.90625 
Q 5.8125 33.546875 5.8125 39.890625 
Q 5.8125 47.609375 11.28125 51.796875 
Q 16.75 56 26.8125 56 
Q 31.78125 56 36.171875 55.265625 
Q 40.578125 54.546875 44.28125 53.078125 
z
" id="DejaVuSans-115"/>
      </defs>
      <use xlink:href="#DejaVuSans-71"/>
      <use x="77.490234" xlink:href="#DejaVuSans-101"/>
      <use x="139.013672" xlink:href="#DejaVuSans-110"/>
      <use x="202.392578" xlink:href="#DejaVuSans-101"/>
      <use x="263.916016" xlink:href="#DejaVuSans-114"/>
      <use x="305.029297" xlink:href="#DejaVuSans-97"/>
      <use x="366.308594" xlink:href="#DejaVuSans-116"/>
      <use x="405.517578" xlink:href="#DejaVuSans-105"/>
      <use x="433.300781" xlink:href="#DejaVuSans-111"/>
      <use x="494.482422" xlink:href="#DejaVuSans-110"/>
      <use x="557.861328" xlink:href="#DejaVuSans-115"/>
     </g>
    </g>
   </g>
   <g id="matplotlib.axis_2">
    <g id="ytick_1">
     <g id="line2d_9">
      <defs>
       <path d="M 0 0 
L -3.5 0 
" id="m995c7f5a42" style="stroke:#000000;stroke-width:0.8;"/>
      </defs>
      <g>
       <use style="stroke:#000000;stroke-width:0.8;" x="57.6" xlink:href="#m995c7f5a42" y="307.584"/>
      </g>
     </g>
     <g id="text_10">
      <!-- 0 -->
      <g transform="translate(44.2375 311.383219)scale(0.1 -0.1)">
       <use xlink:href="#DejaVuSans-48"/>
      </g>
     </g>
    </g>
    <g id="ytick_2">
     <g id="line2d_10">
      <g>
       <use style="stroke:#000000;stroke-width:0.8;" x="57.6" xlink:href="#m995c7f5a42" y="256.896"/>
      </g>
     </g>
     <g id="text_11">
      <!-- 10 -->
      <g transform="translate(37.875 260.695219)scale(0.1 -0.1)">
       <use xlink:href="#DejaVuSans-49"/>
       <use x="63.623047" xlink:href="#DejaVuSans-48"/>
      </g>
     </g>
    </g>
    <g id="ytick_3">
     <g id="line2d_11">
      <g>
       <use style="stroke:#000000;stroke-width:0.8;" x="57.6" xlink:href="#m995c7f5a42" y="206.208"/>
      </g>
     </g>
     <g id="text_12">
      <!-- 20 -->
      <g transform="translate(37.875 210.007219)scale(0.1 -0.1)">
       <use xlink:href="#DejaVuSans-50"/>
       <use x="63.623047" xlink:href="#DejaVuSans-48"/>
      </g>
     </g>
    </g>
    <g id="ytick_4">
     <g id="line2d_12">
      <g>
       <use style="stroke:#000000;stroke-width:0.8;" x="57.6" xlink:href="#m995c7f5a42" y="155.52"/>
      </g>
     </g>
     <g id="text_13">
      <!-- 30 -->
      <g transform="translate(37.875 159.319219)scale(0.1 -0.1)">
       <use xlink:href="#DejaVuSans-51"/>
       <use x="63.623047" xlink:href="#DejaVuSans-48"/>
      </g>
     </g>
    </g>
    <g id="ytick_5">
     <g id="line2d_13">
      <g>
       <use style="stroke:#000000;stroke-width:0.8;" x="57.6" xlink:href="#m995c7f5a42" y="104.832"/>
      </g>
     </g>
     <g id="text_14">
      <!-- 40 -->
      <g transform="translate(37.875 108.631219)scale(0.1 -0.1)">
       <defs>
        <path d="M 37.796875 64.3125 
L 12.890625 25.390625 
L 37.796875 25.390625 
z
M 35.203125 72.90625 
L 47.609375 72.90625 
L 47.609375 25.390625 
L 58.015625 25.390625 
L 58.015625 17.1875 
L 47.609375 17.1875 
L 47.609375 0 
L 37.796875 0 
L 37.796875 17.1875 
L 4.890625 17.1875 
L 4.890625 26.703125 
z
" id="DejaVuSans-52"/>
       </defs>
       <use xlink:href="#DejaVuSans-52"/>
       <use x="63.623047" xlink:href="#DejaVuSans-48"/>
      </g>
     </g>
    </g>
    <g id="ytick_6">
     <g id="line2d_14">
      <g>
       <use style="stroke:#000000;stroke-width:0.8;" x="57.6" xlink:href="#m995c7f5a42" y="54.144"/>
      </g>
     </g>
     <g id="text_15">
      <!-- 50 -->
      <g transform="translate(37.875 57.943219)scale(0.1 -0.1)">
       <use xlink:href="#DejaVuSans-53"/>
       <use x="63.623047" xlink:href="#DejaVuSans-48"/>
      </g>
     </g>
    </g>
    <g id="text_16">
     <!-- Size per Species -->
     <g transform="translate(31.795312 215.520969)rotate(-90)scale(0.1 -0.1)">
      <defs>
       <path d="M 53.515625 70.515625 
L 53.515625 60.890625 
Q 47.90625 63.578125 42.921875 64.890625 
Q 37.9375 66.21875 33.296875 66.21875 
Q 25.25 66.21875 20.875 63.09375 
Q 16.5 59.96875 16.5 54.203125 
Q 16.5 49.359375 19.40625 46.890625 
Q 22.3125 44.4375 30.421875 42.921875 
L 36.375 41.703125 
Q 47.40625 39.59375 52.65625 34.296875 
Q 57.90625 29 57.90625 20.125 
Q 57.90625 9.515625 50.796875 4.046875 
Q 43.703125 -1.421875 29.984375 -1.421875 
Q 24.8125 -1.421875 18.96875 -0.25 
Q 13.140625 0.921875 6.890625 3.21875 
L 6.890625 13.375 
Q 12.890625 10.015625 18.65625 8.296875 
Q 24.421875 6.59375 29.984375 6.59375 
Q 38.421875 6.59375 43.015625 9.90625 
Q 47.609375 13.234375 47.609375 19.390625 
Q 47.609375 24.75 44.3125 27.78125 
Q 41.015625 30.8125 33.5 32.328125 
L 27.484375 33.5 
Q 16.453125 35.6875 11.515625 40.375 
Q 6.59375 45.0625 6.59375 53.421875 
Q 6.59375 63.09375 13.40625 68.65625 
Q 20.21875 74.21875 32.171875 74.21875 
Q 37.3125 74.21875 42.625 73.28125 
Q 47.953125 72.359375 53.515625 70.515625 
z
" id="DejaVuSans-83"/>
       <path d="M 5.515625 54.6875 
L 48.1875 54.6875 
L 48.1875 46.484375 
L 14.40625 7.171875 
L 48.1875 7.171875 
L 48.1875 0 
L 4.296875 0 
L 4.296875 8.203125 
L 38.09375 47.515625 
L 5.515625 47.515625 
z
" id="DejaVuSans-122"/>
       <path id="DejaVuSans-32"/>
       <path d="M 18.109375 8.203125 
L 18.109375 -20.796875 
L 9.078125 -20.796875 
L 9.078125 54.6875 
L 18.109375 54.6875 
L 18.109375 46.390625 
Q 20.953125 51.265625 25.265625 53.625 
Q 29.59375 56 35.59375 56 
Q 45.5625 56 51.78125 48.09375 
Q 58.015625 40.1875 58.015625 27.296875 
Q 58.015625 14.40625 51.78125 6.484375 
Q 45.5625 -1.421875 35.59375 -1.421875 
Q 29.59375 -1.421875 25.265625 0.953125 
Q 20.953125 3.328125 18.109375 8.203125 
z
M 48.6875 27.296875 
Q 48.6875 37.203125 44.609375 42.84375 
Q 40.53125 48.484375 33.40625 48.484375 
Q 26.265625 48.484375 22.1875 42.84375 
Q 18.109375 37.203125 18.109375 27.296875 
Q 18.109375 17.390625 22.1875 11.75 
Q 26.265625 6.109375 33.40625 6.109375 
Q 40.53125 6.109375 44.609375 11.75 
Q 48.6875 17.390625 48.6875 27.296875 
z
" id="DejaVuSans-112"/>
       <path d="M 48.78125 52.59375 
L 48.78125 44.1875 
Q 44.96875 46.296875 41.140625 47.34375 
Q 37.3125 48.390625 33.40625 48.390625 
Q 24.65625 48.390625 19.8125 42.84375 
Q 14.984375 37.3125 14.984375 27.296875 
Q 14.984375 17.28125 19.8125 11.734375 
Q 24.65625 6.203125 33.40625 6.203125 
Q 37.3125 6.203125 41.140625 7.25 
Q 44.96875 8.296875 48.78125 10.40625 
L 48.78125 2.09375 
Q 45.015625 0.34375 40.984375 -0.53125 
Q 36.96875 -1.421875 32.421875 -1.421875 
Q 20.0625 -1.421875 12.78125 6.34375 
Q 5.515625 14.109375 5.515625 27.296875 
Q 5.515625 40.671875 12.859375 48.328125 
Q 20.21875 56 33.015625 56 
Q 37.15625 56 41.109375 55.140625 
Q 45.0625 54.296875 48.78125 52.59375 
z
" id="DejaVuSans-99"/>
      </defs>
      <use xlink:href="#DejaVuSans-83"/>
      <use x="63.476562" xlink:href="#DejaVuSans-105"/>
      <use x="91.259766" xlink:href="#DejaVuSans-122"/>
      <use x="143.75" xlink:href="#DejaVuSans-101"/>
      <use x="205.273438" xlink:href="#DejaVuSans-32"/>
      <use x="237.060547" xlink:href="#DejaVuSans-112"/>
      <use x="300.537109" xlink:href="#DejaVuSans-101"/>
      <use x="362.060547" xlink:href="#DejaVuSans-114"/>
      <use x="403.173828" xlink:href="#DejaVuSans-32"/>
      <use x="434.960938" xlink:href="#DejaVuSans-83"/>
      <use x="498.4375" xlink:href="#DejaVuSans-112"/>
      <use x="561.914062" xlink:href="#DejaVuSans-101"/>
      <use x="623.4375" xlink:href="#DejaVuSans-99"/>
      <use x="678.417969" xlink:href="#DejaVuSans-105"/>
      <use x="706.201172" xlink:href="#DejaVuSans-101"/>
      <use x="767.724609" xlink:href="#DejaVuSans-115"/>
     </g>
    </g>
   </g>
   <g id="patch_3">
    <path d="M 57.6 307.584 
L 57.6 41.472 
" style="fill:none;stroke:#000000;stroke-linecap:square;stroke-linejoin:miter;stroke-width:0.8;"/>
   </g>
   <g id="patch_4">
    <path d="M 414.72 307.584 
L 414.72 41.472 
" style="fill:none;stroke:#000000;stroke-linecap:square;stroke-linejoin:miter;stroke-width:0.8;"/>
   </g>
   <g id="patch_5">
    <path d="M 57.6 307.584 
L 414.72 307.584 
" style="fill:none;stroke:#000000;stroke-linecap:square;stroke-linejoin:miter;stroke-width:0.8;"/>
   </g>
   <g id="patch_6">
    <path d="M 57.6 41.472 
L 414.72 41.472 
" style="fill:none;stroke:#000000;stroke-linecap:square;stroke-linejoin:miter;stroke-width:0.8;"/>
   </g>
   <g id="text_17">
    <!-- Speciation -->
    <g transform="translate(204.714375 35.472)scale(0.12 -0.12)">
     <use xlink:href="#DejaVuSans-83"/>
     <use x="63.476562" xlink:href="#DejaVuSans-112"/>
     <use x="126.953125" xlink:href="#DejaVuSans-101"/>
     <use x="188.476562" xlink:href="#DejaVuSans-99"/>
     <use x="243.457031" xlink:href="#DejaVuSans-105"/>
     <use x="271.240234" xlink:href="#DejaVuSans-97"/>
     <use x="332.519531" xlink:href="#DejaVuSans-116"/>
     <use x="371.728516" xlink:href="#DejaVuSans-105"/>
     <use x="399.511719" xlink:href="#DejaVuSans-111"/>
     <use x="460.693359" xlink:href="#DejaVuSans-110"/>
    </g>
   </g>
  </g>
 </g>
 <defs>
  <clipPath id="pc6af350fce">
   <rect height="266.112" width="357.12" x="57.6" y="41.472"/>
  </clipPath>
 </defs>
</svg>
