<?xml version="1.0" encoding="UTF-8" standalone="no"?>
<!DOCTYPE svg PUBLIC "-//W3C//DTD SVG 1.1//EN"
 "http://www.w3.org/Graphics/SVG/1.1/DTD/svg11.dtd">
<!-- Generated by graphviz version 2.43.0 (0)
 -->
<!-- Title: %3 Pages: 1 -->
<svg width="415pt" height="356pt"
 viewBox="0.00 0.00 415.23 356.42" xmlns="http://www.w3.org/2000/svg" xmlns:xlink="http://www.w3.org/1999/xlink">
<g id="graph0" class="graph" transform="scale(1 1) rotate(0) translate(4 352.42)">
<title>%3</title>
<polygon fill="white" stroke="transparent" points="-4,4 -4,-352.42 411.23,-352.42 411.23,4 -4,4"/>
<!-- ball_left -->
<g id="node1" class="node">
<title>ball_left</title>
<polygon fill="lightgray" stroke="black" points="60.44,-324.89 7.44,-324.89 7.44,-306.89 60.44,-306.89 60.44,-324.89"/>
<text text-anchor="middle" x="33.94" y="-313.69" font-family="Times,serif" font-size="9.00">ball_left</text>
</g>
<!-- RIGHT -->
<g id="node6" class="node">
<title>RIGHT</title>
<ellipse fill="lightblue" stroke="black" cx="33.94" cy="-213.42" rx="33.88" ry="33.88"/>
<text text-anchor="middle" x="33.94" y="-211.22" font-family="Times,serif" font-size="9.00">RIGHT</text>
</g>
<!-- ball_left&#45;&gt;RIGHT -->
<g id="edge3" class="edge">
<title>ball_left&#45;&gt;RIGHT</title>
<path fill="none" stroke="green" stroke-width="0.49" d="M33.94,-306.67C33.94,-295.83 33.94,-275.98 33.94,-257.45"/>
<polygon fill="green" stroke="green" stroke-width="0.49" points="37.44,-257.36 33.94,-247.36 30.44,-257.36 37.44,-257.36"/>
</g>
<!-- ball_right -->
<g id="node2" class="node">
<title>ball_right</title>
<polygon fill="lightgray" stroke="black" points="152.94,-324.89 90.94,-324.89 90.94,-306.89 152.94,-306.89 152.94,-324.89"/>
<text text-anchor="middle" x="121.94" y="-313.69" font-family="Times,serif" font-size="9.00">ball_right</text>
</g>
<!-- ball_right&#45;&gt;RIGHT -->
<g id="edge2" class="edge">
<title>ball_right&#45;&gt;RIGHT</title>
<path fill="none" stroke="red" stroke-width="0.31" stroke-dasharray="1,5" d="M114.74,-306.67C103.46,-293.79 81,-268.15 62.62,-247.16"/>
<polygon fill="red" stroke="red" stroke-width="0.31" points="65.03,-244.6 55.81,-239.38 59.76,-249.21 65.03,-244.6"/>
</g>
<!-- LEFT -->
<g id="node7" class="node">
<title>LEFT</title>
<ellipse fill="lightblue" stroke="black" cx="95.94" cy="-28.99" rx="28.98" ry="28.98"/>
<text text-anchor="middle" x="95.94" y="-26.79" font-family="Times,serif" font-size="9.00">LEFT</text>
</g>
<!-- ball_right&#45;&gt;LEFT -->
<g id="edge1" class="edge">
<title>ball_right&#45;&gt;LEFT</title>
<path fill="none" stroke="green" stroke-width="0.78" d="M121.19,-306.67C118.02,-271.94 105.61,-135.93 99.45,-68.43"/>
<polygon fill="green" stroke="green" stroke-width="0.78" points="102.91,-67.85 98.52,-58.21 95.94,-68.48 102.91,-67.85"/>
</g>
<!-- 984 -->
<g id="node8" class="node">
<title>984</title>
<ellipse fill="white" stroke="black" cx="159.94" cy="-118.73" rx="25" ry="25"/>
<text text-anchor="middle" x="159.94" y="-116.53" font-family="Times,serif" font-size="9.00">984</text>
</g>
<!-- ball_right&#45;&gt;984 -->
<g id="edge4" class="edge">
<title>ball_right&#45;&gt;984</title>
<path fill="none" stroke="green" stroke-width="0.22" stroke-dasharray="1,5" d="M123.57,-306.5C128.66,-280.39 144.41,-199.51 153.42,-153.2"/>
<polygon fill="green" stroke="green" stroke-width="0.22" points="156.87,-153.81 155.35,-143.32 150,-152.47 156.87,-153.81"/>
</g>
<!-- 1066 -->
<g id="node10" class="node">
<title>1066</title>
<ellipse fill="white" stroke="black" cx="190.94" cy="-213.42" rx="28.98" ry="28.98"/>
<text text-anchor="middle" x="190.94" y="-211.22" font-family="Times,serif" font-size="9.00">1066</text>
</g>
<!-- ball_right&#45;&gt;1066 -->
<g id="edge7" class="edge">
<title>ball_right&#45;&gt;1066</title>
<path fill="none" stroke="green" stroke-width="0.18" d="M127.59,-306.67C136.58,-293.57 154.64,-267.28 169.18,-246.11"/>
<polygon fill="green" stroke="green" stroke-width="0.18" points="172.18,-247.92 174.96,-237.7 166.41,-243.96 172.18,-247.92"/>
</g>
<!-- ball_out_field -->
<g id="node3" class="node">
<title>ball_out_field</title>
<polygon fill="lightgray" stroke="black" points="248.94,-324.89 170.94,-324.89 170.94,-306.89 248.94,-306.89 248.94,-324.89"/>
<text text-anchor="middle" x="209.94" y="-313.69" font-family="Times,serif" font-size="9.00">ball_out_field</text>
</g>
<!-- NOOP -->
<g id="node4" class="node">
<title>NOOP</title>
<ellipse fill="lightblue" stroke="black" cx="299.94" cy="-315.89" rx="32.55" ry="32.55"/>
<text text-anchor="middle" x="299.94" y="-313.69" font-family="Times,serif" font-size="9.00">NOOP</text>
</g>
<!-- FIRE -->
<g id="node5" class="node">
<title>FIRE</title>
<ellipse fill="lightblue" stroke="black" cx="378.94" cy="-315.89" rx="28.07" ry="28.07"/>
<text text-anchor="middle" x="378.94" y="-313.69" font-family="Times,serif" font-size="9.00">FIRE</text>
</g>
<!-- 984&#45;&gt;LEFT -->
<g id="edge5" class="edge">
<title>984&#45;&gt;LEFT</title>
<path fill="none" stroke="green" stroke-width="0.41" stroke-dasharray="1,5" d="M145.74,-98.26C137.78,-87.35 127.67,-73.48 118.64,-61.1"/>
<polygon fill="green" stroke="green" stroke-width="0.41" points="121.32,-58.84 112.6,-52.83 115.66,-62.97 121.32,-58.84"/>
</g>
<!-- 1049 -->
<g id="node9" class="node">
<title>1049</title>
<ellipse fill="white" stroke="black" cx="171.94" cy="-28.99" rx="28.98" ry="28.98"/>
<text text-anchor="middle" x="171.94" y="-26.79" font-family="Times,serif" font-size="9.00">1049</text>
</g>
<!-- 984&#45;&gt;1049 -->
<g id="edge6" class="edge">
<title>984&#45;&gt;1049</title>
<path fill="none" stroke="green" stroke-width="0.32" d="M163.22,-93.76C164.31,-85.81 165.55,-76.75 166.74,-68.01"/>
<polygon fill="green" stroke="green" stroke-width="0.32" points="170.23,-68.36 168.11,-57.98 163.29,-67.41 170.23,-68.36"/>
</g>
<!-- 1066&#45;&gt;984 -->
<g id="edge8" class="edge">
<title>1066&#45;&gt;984</title>
<path fill="none" stroke="green" stroke-width="0.23" d="M181.97,-185.61C178.47,-175.13 174.42,-163.02 170.75,-152.06"/>
<polygon fill="green" stroke="green" stroke-width="0.23" points="174.02,-150.78 167.52,-142.41 167.38,-153 174.02,-150.78"/>
</g>
</g>
</svg>
