<?xml version="1.0" encoding="utf-8" standalone="no"?>
<!DOCTYPE svg PUBLIC "-//W3C//DTD SVG 1.1//EN"
  "http://www.w3.org/Graphics/SVG/1.1/DTD/svg11.dtd">
<svg xmlns:xlink="http://www.w3.org/1999/xlink" width="460.8pt" height="345.6pt" viewBox="0 0 460.8 345.6" xmlns="http://www.w3.org/2000/svg" version="1.1">
 <metadata>
  <rdf:RDF xmlns:dc="http://purl.org/dc/elements/1.1/" xmlns:cc="http://creativecommons.org/ns#" xmlns:rdf="http://www.w3.org/1999/02/22-rdf-syntax-ns#">
   <cc:Work>
    <dc:type rdf:resource="http://purl.org/dc/dcmitype/StillImage"/>
    <dc:date>2023-02-17T23:35:14.409318</dc:date>
    <dc:format>image/svg+xml</dc:format>
    <dc:creator>
     <cc:Agent>
      <dc:title>Matplotlib v3.6.2, https://matplotlib.org/</dc:title>
     </cc:Agent>
    </dc:creator>
   </cc:Work>
  </rdf:RDF>
 </metadata>
 <defs>
  <style type="text/css">*{stroke-linejoin: round; stroke-linecap: butt}</style>
 </defs>
 <g id="figure_1">
  <g id="patch_1">
   <path d="M 0 345.6 
L 460.8 345.6 
L 460.8 0 
L 0 0 
z
" style="fill: #ffffff"/>
  </g>
  <g id="axes_1">
   <g id="patch_2">
    <path d="M 57.6 307.584 
L 414.72 307.584 
L 414.72 41.472 
L 57.6 41.472 
z
" style="fill: #ffffff"/>
   </g>
   <g id="PolyCollection_1">
    <path d="M 73.832727 77.184 
L 73.832727 307.584 
L 85.027712 307.584 
L 96.222696 307.584 
L 107.41768 307.584 
L 118.612665 307.584 
L 129.807649 307.584 
L 141.002633 307.584 
L 152.197618 307.584 
L 163.392602 307.584 
L 174.587586 307.584 
L 185.782571 307.584 
L 196.977555 307.584 
L 208.172539 307.584 
L 219.367524 307.584 
L 230.562508 307.584 
L 241.757492 307.584 
L 252.952476 307.584 
L 264.147461 307.584 
L 275.342445 307.584 
L 286.537429 307.584 
L 297.732414 307.584 
L 308.927398 307.584 
L 320.122382 307.584 
L 331.317367 307.584 
L 342.512351 307.584 
L 353.707335 307.584 
L 364.90232 307.584 
L 376.097304 307.584 
L 387.292288 307.584 
L 398.487273 307.584 
L 398.487273 296.832 
L 398.487273 296.832 
L 387.292288 296.832 
L 376.097304 296.832 
L 364.90232 295.296 
L 353.707335 289.152 
L 342.512351 264.576 
L 331.317367 296.832 
L 320.122382 302.976 
L 308.927398 302.976 
L 297.732414 299.904 
L 286.537429 302.976 
L 275.342445 301.44 
L 264.147461 281.472 
L 252.952476 266.112 
L 241.757492 275.328 
L 230.562508 278.4 
L 219.367524 264.576 
L 208.172539 275.328 
L 196.977555 246.144 
L 185.782571 230.784 
L 174.587586 233.856 
L 163.392602 240 
L 152.197618 135.552 
L 141.002633 160.128 
L 129.807649 193.92 
L 118.612665 157.056 
L 107.41768 100.224 
L 96.222696 77.184 
L 85.027712 77.184 
L 73.832727 77.184 
z
" clip-path="url(#p727777bad2)" style="fill: #1f77b4"/>
   </g>
   <g id="PolyCollection_2">
    <path d="M 73.832727 77.184 
L 73.832727 77.184 
L 85.027712 77.184 
L 96.222696 77.184 
L 107.41768 100.224 
L 118.612665 157.056 
L 129.807649 193.92 
L 141.002633 160.128 
L 152.197618 135.552 
L 163.392602 240 
L 174.587586 233.856 
L 185.782571 230.784 
L 196.977555 246.144 
L 208.172539 275.328 
L 219.367524 264.576 
L 230.562508 278.4 
L 241.757492 275.328 
L 252.952476 266.112 
L 264.147461 281.472 
L 275.342445 301.44 
L 286.537429 302.976 
L 297.732414 299.904 
L 308.927398 302.976 
L 320.122382 302.976 
L 331.317367 296.832 
L 342.512351 264.576 
L 353.707335 289.152 
L 364.90232 295.296 
L 376.097304 296.832 
L 387.292288 296.832 
L 398.487273 296.832 
L 398.487273 292.224 
L 398.487273 292.224 
L 387.292288 292.224 
L 376.097304 292.224 
L 364.90232 290.688 
L 353.707335 284.544 
L 342.512351 261.504 
L 331.317367 290.688 
L 320.122382 298.368 
L 308.927398 298.368 
L 297.732414 293.76 
L 286.537429 298.368 
L 275.342445 295.296 
L 264.147461 270.72 
L 252.952476 256.896 
L 241.757492 263.04 
L 230.562508 261.504 
L 219.367524 244.608 
L 208.172539 249.216 
L 196.977555 229.248 
L 185.782571 212.352 
L 174.587586 213.888 
L 163.392602 212.352 
L 152.197618 110.976 
L 141.002633 121.728 
L 129.807649 134.016 
L 118.612665 89.472 
L 107.41768 80.256 
L 96.222696 77.184 
L 85.027712 77.184 
L 73.832727 77.184 
z
" clip-path="url(#p727777bad2)" style="fill: #ff7f0e"/>
   </g>
   <g id="PolyCollection_3">
    <path d="M 73.832727 77.184 
L 73.832727 77.184 
L 85.027712 77.184 
L 96.222696 77.184 
L 107.41768 80.256 
L 118.612665 89.472 
L 129.807649 134.016 
L 141.002633 121.728 
L 152.197618 110.976 
L 163.392602 212.352 
L 174.587586 213.888 
L 185.782571 212.352 
L 196.977555 229.248 
L 208.172539 249.216 
L 219.367524 244.608 
L 230.562508 261.504 
L 241.757492 263.04 
L 252.952476 256.896 
L 264.147461 270.72 
L 275.342445 295.296 
L 286.537429 298.368 
L 297.732414 293.76 
L 308.927398 298.368 
L 320.122382 298.368 
L 331.317367 290.688 
L 342.512351 261.504 
L 353.707335 284.544 
L 364.90232 290.688 
L 376.097304 292.224 
L 387.292288 292.224 
L 398.487273 292.224 
L 398.487273 286.08 
L 398.487273 286.08 
L 387.292288 289.152 
L 376.097304 287.616 
L 364.90232 275.328 
L 353.707335 273.792 
L 342.512351 256.896 
L 331.317367 287.616 
L 320.122382 283.008 
L 308.927398 290.688 
L 297.732414 281.472 
L 286.537429 273.792 
L 275.342445 281.472 
L 264.147461 250.752 
L 252.952476 235.392 
L 241.757492 232.32 
L 230.562508 204.672 
L 219.367524 206.208 
L 208.172539 206.208 
L 196.977555 201.6 
L 185.782571 183.168 
L 174.587586 158.592 
L 163.392602 169.344 
L 152.197618 87.936 
L 141.002633 77.184 
L 129.807649 75.648 
L 118.612665 77.184 
L 107.41768 77.184 
L 96.222696 77.184 
L 85.027712 77.184 
L 73.832727 77.184 
z
" clip-path="url(#p727777bad2)" style="fill: #2ca02c"/>
   </g>
   <g id="PolyCollection_4">
    <path d="M 73.832727 77.184 
L 73.832727 77.184 
L 85.027712 77.184 
L 96.222696 77.184 
L 107.41768 77.184 
L 118.612665 77.184 
L 129.807649 75.648 
L 141.002633 77.184 
L 152.197618 87.936 
L 163.392602 169.344 
L 174.587586 158.592 
L 185.782571 183.168 
L 196.977555 201.6 
L 208.172539 206.208 
L 219.367524 206.208 
L 230.562508 204.672 
L 241.757492 232.32 
L 252.952476 235.392 
L 264.147461 250.752 
L 275.342445 281.472 
L 286.537429 273.792 
L 297.732414 281.472 
L 308.927398 290.688 
L 320.122382 283.008 
L 331.317367 287.616 
L 342.512351 256.896 
L 353.707335 273.792 
L 364.90232 275.328 
L 376.097304 287.616 
L 387.292288 289.152 
L 398.487273 286.08 
L 398.487273 281.472 
L 398.487273 281.472 
L 387.292288 284.544 
L 376.097304 283.008 
L 364.90232 270.72 
L 353.707335 269.184 
L 342.512351 252.288 
L 331.317367 283.008 
L 320.122382 278.4 
L 308.927398 286.08 
L 297.732414 276.864 
L 286.537429 267.648 
L 275.342445 275.328 
L 264.147461 244.608 
L 252.952476 227.712 
L 241.757492 224.64 
L 230.562508 193.92 
L 219.367524 196.992 
L 208.172539 198.528 
L 196.977555 198.528 
L 185.782571 177.024 
L 174.587586 140.16 
L 163.392602 155.52 
L 152.197618 86.4 
L 141.002633 77.184 
L 129.807649 75.648 
L 118.612665 77.184 
L 107.41768 77.184 
L 96.222696 77.184 
L 85.027712 77.184 
L 73.832727 77.184 
z
" clip-path="url(#p727777bad2)" style="fill: #d62728"/>
   </g>
   <g id="PolyCollection_5">
    <path d="M 73.832727 77.184 
L 73.832727 77.184 
L 85.027712 77.184 
L 96.222696 77.184 
L 107.41768 77.184 
L 118.612665 77.184 
L 129.807649 75.648 
L 141.002633 77.184 
L 152.197618 86.4 
L 163.392602 155.52 
L 174.587586 140.16 
L 185.782571 177.024 
L 196.977555 198.528 
L 208.172539 198.528 
L 219.367524 196.992 
L 230.562508 193.92 
L 241.757492 224.64 
L 252.952476 227.712 
L 264.147461 244.608 
L 275.342445 275.328 
L 286.537429 267.648 
L 297.732414 276.864 
L 308.927398 286.08 
L 320.122382 278.4 
L 331.317367 283.008 
L 342.512351 252.288 
L 353.707335 269.184 
L 364.90232 270.72 
L 376.097304 283.008 
L 387.292288 284.544 
L 398.487273 281.472 
L 398.487273 275.328 
L 398.487273 275.328 
L 387.292288 279.936 
L 376.097304 276.864 
L 364.90232 258.432 
L 353.707335 250.752 
L 342.512351 240 
L 331.317367 259.968 
L 320.122382 264.576 
L 308.927398 275.328 
L 297.732414 256.896 
L 286.537429 241.536 
L 275.342445 261.504 
L 264.147461 238.464 
L 252.952476 216.96 
L 241.757492 169.344 
L 230.562508 137.088 
L 219.367524 132.48 
L 208.172539 127.872 
L 196.977555 118.656 
L 185.782571 101.76 
L 174.587586 81.792 
L 163.392602 81.792 
L 152.197618 77.184 
L 141.002633 77.184 
L 129.807649 75.648 
L 118.612665 77.184 
L 107.41768 77.184 
L 96.222696 77.184 
L 85.027712 77.184 
L 73.832727 77.184 
z
" clip-path="url(#p727777bad2)" style="fill: #9467bd"/>
   </g>
   <g id="PolyCollection_6">
    <path d="M 73.832727 77.184 
L 73.832727 77.184 
L 85.027712 77.184 
L 96.222696 77.184 
L 107.41768 77.184 
L 118.612665 77.184 
L 129.807649 75.648 
L 141.002633 77.184 
L 152.197618 77.184 
L 163.392602 81.792 
L 174.587586 81.792 
L 185.782571 101.76 
L 196.977555 118.656 
L 208.172539 127.872 
L 219.367524 132.48 
L 230.562508 137.088 
L 241.757492 169.344 
L 252.952476 216.96 
L 264.147461 238.464 
L 275.342445 261.504 
L 286.537429 241.536 
L 297.732414 256.896 
L 308.927398 275.328 
L 320.122382 264.576 
L 331.317367 259.968 
L 342.512351 240 
L 353.707335 250.752 
L 364.90232 258.432 
L 376.097304 276.864 
L 387.292288 279.936 
L 398.487273 275.328 
L 398.487273 270.72 
L 398.487273 270.72 
L 387.292288 275.328 
L 376.097304 272.256 
L 364.90232 253.824 
L 353.707335 247.68 
L 342.512351 238.464 
L 331.317367 256.896 
L 320.122382 261.504 
L 308.927398 272.256 
L 297.732414 252.288 
L 286.537429 236.928 
L 275.342445 255.36 
L 264.147461 229.248 
L 252.952476 206.208 
L 241.757492 163.2 
L 230.562508 130.944 
L 219.367524 126.336 
L 208.172539 123.264 
L 196.977555 114.048 
L 185.782571 95.616 
L 174.587586 77.184 
L 163.392602 78.72 
L 152.197618 77.184 
L 141.002633 77.184 
L 129.807649 75.648 
L 118.612665 77.184 
L 107.41768 77.184 
L 96.222696 77.184 
L 85.027712 77.184 
L 73.832727 77.184 
z
" clip-path="url(#p727777bad2)" style="fill: #8c564b"/>
   </g>
   <g id="PolyCollection_7">
    <path d="M 73.832727 77.184 
L 73.832727 77.184 
L 85.027712 77.184 
L 96.222696 77.184 
L 107.41768 77.184 
L 118.612665 77.184 
L 129.807649 75.648 
L 141.002633 77.184 
L 152.197618 77.184 
L 163.392602 78.72 
L 174.587586 77.184 
L 185.782571 95.616 
L 196.977555 114.048 
L 208.172539 123.264 
L 219.367524 126.336 
L 230.562508 130.944 
L 241.757492 163.2 
L 252.952476 206.208 
L 264.147461 229.248 
L 275.342445 255.36 
L 286.537429 236.928 
L 297.732414 252.288 
L 308.927398 272.256 
L 320.122382 261.504 
L 331.317367 256.896 
L 342.512351 238.464 
L 353.707335 247.68 
L 364.90232 253.824 
L 376.097304 272.256 
L 387.292288 275.328 
L 398.487273 270.72 
L 398.487273 266.112 
L 398.487273 266.112 
L 387.292288 270.72 
L 376.097304 267.648 
L 364.90232 249.216 
L 353.707335 243.072 
L 342.512351 233.856 
L 331.317367 252.288 
L 320.122382 256.896 
L 308.927398 267.648 
L 297.732414 247.68 
L 286.537429 232.32 
L 275.342445 250.752 
L 264.147461 224.64 
L 252.952476 196.992 
L 241.757492 157.056 
L 230.562508 123.264 
L 219.367524 117.12 
L 208.172539 109.44 
L 196.977555 103.296 
L 185.782571 80.256 
L 174.587586 75.648 
L 163.392602 78.72 
L 152.197618 77.184 
L 141.002633 77.184 
L 129.807649 75.648 
L 118.612665 77.184 
L 107.41768 77.184 
L 96.222696 77.184 
L 85.027712 77.184 
L 73.832727 77.184 
z
" clip-path="url(#p727777bad2)" style="fill: #e377c2"/>
   </g>
   <g id="PolyCollection_8">
    <path d="M 73.832727 77.184 
L 73.832727 77.184 
L 85.027712 77.184 
L 96.222696 77.184 
L 107.41768 77.184 
L 118.612665 77.184 
L 129.807649 75.648 
L 141.002633 77.184 
L 152.197618 77.184 
L 163.392602 78.72 
L 174.587586 75.648 
L 185.782571 80.256 
L 196.977555 103.296 
L 208.172539 109.44 
L 219.367524 117.12 
L 230.562508 123.264 
L 241.757492 157.056 
L 252.952476 196.992 
L 264.147461 224.64 
L 275.342445 250.752 
L 286.537429 232.32 
L 297.732414 247.68 
L 308.927398 267.648 
L 320.122382 256.896 
L 331.317367 252.288 
L 342.512351 233.856 
L 353.707335 243.072 
L 364.90232 249.216 
L 376.097304 267.648 
L 387.292288 270.72 
L 398.487273 266.112 
L 398.487273 263.04 
L 398.487273 263.04 
L 387.292288 267.648 
L 376.097304 263.04 
L 364.90232 244.608 
L 353.707335 238.464 
L 342.512351 229.248 
L 331.317367 249.216 
L 320.122382 252.288 
L 308.927398 263.04 
L 297.732414 243.072 
L 286.537429 227.712 
L 275.342445 246.144 
L 264.147461 220.032 
L 252.952476 190.848 
L 241.757492 152.448 
L 230.562508 118.656 
L 219.367524 112.512 
L 208.172539 104.832 
L 196.977555 98.688 
L 185.782571 78.72 
L 174.587586 75.648 
L 163.392602 78.72 
L 152.197618 77.184 
L 141.002633 77.184 
L 129.807649 75.648 
L 118.612665 77.184 
L 107.41768 77.184 
L 96.222696 77.184 
L 85.027712 77.184 
L 73.832727 77.184 
z
" clip-path="url(#p727777bad2)" style="fill: #7f7f7f"/>
   </g>
   <g id="PolyCollection_9">
    <path d="M 73.832727 77.184 
L 73.832727 77.184 
L 85.027712 77.184 
L 96.222696 77.184 
L 107.41768 77.184 
L 118.612665 77.184 
L 129.807649 75.648 
L 141.002633 77.184 
L 152.197618 77.184 
L 163.392602 78.72 
L 174.587586 75.648 
L 185.782571 78.72 
L 196.977555 98.688 
L 208.172539 104.832 
L 219.367524 112.512 
L 230.562508 118.656 
L 241.757492 152.448 
L 252.952476 190.848 
L 264.147461 220.032 
L 275.342445 246.144 
L 286.537429 227.712 
L 297.732414 243.072 
L 308.927398 263.04 
L 320.122382 252.288 
L 331.317367 249.216 
L 342.512351 229.248 
L 353.707335 238.464 
L 364.90232 244.608 
L 376.097304 263.04 
L 387.292288 267.648 
L 398.487273 263.04 
L 398.487273 258.432 
L 398.487273 258.432 
L 387.292288 263.04 
L 376.097304 258.432 
L 364.90232 240 
L 353.707335 233.856 
L 342.512351 224.64 
L 331.317367 244.608 
L 320.122382 247.68 
L 308.927398 258.432 
L 297.732414 238.464 
L 286.537429 223.104 
L 275.342445 243.072 
L 264.147461 216.96 
L 252.952476 181.632 
L 241.757492 143.232 
L 230.562508 112.512 
L 219.367524 100.224 
L 208.172539 95.616 
L 196.977555 84.864 
L 185.782571 77.184 
L 174.587586 75.648 
L 163.392602 78.72 
L 152.197618 77.184 
L 141.002633 77.184 
L 129.807649 75.648 
L 118.612665 77.184 
L 107.41768 77.184 
L 96.222696 77.184 
L 85.027712 77.184 
L 73.832727 77.184 
z
" clip-path="url(#p727777bad2)" style="fill: #bcbd22"/>
   </g>
   <g id="PolyCollection_10">
    <path d="M 73.832727 77.184 
L 73.832727 77.184 
L 85.027712 77.184 
L 96.222696 77.184 
L 107.41768 77.184 
L 118.612665 77.184 
L 129.807649 75.648 
L 141.002633 77.184 
L 152.197618 77.184 
L 163.392602 78.72 
L 174.587586 75.648 
L 185.782571 77.184 
L 196.977555 84.864 
L 208.172539 95.616 
L 219.367524 100.224 
L 230.562508 112.512 
L 241.757492 143.232 
L 252.952476 181.632 
L 264.147461 216.96 
L 275.342445 243.072 
L 286.537429 223.104 
L 297.732414 238.464 
L 308.927398 258.432 
L 320.122382 247.68 
L 331.317367 244.608 
L 342.512351 224.64 
L 353.707335 233.856 
L 364.90232 240 
L 376.097304 258.432 
L 387.292288 263.04 
L 398.487273 258.432 
L 398.487273 253.824 
L 398.487273 253.824 
L 387.292288 258.432 
L 376.097304 253.824 
L 364.90232 238.464 
L 353.707335 226.176 
L 342.512351 218.496 
L 331.317367 240 
L 320.122382 243.072 
L 308.927398 253.824 
L 297.732414 233.856 
L 286.537429 218.496 
L 275.342445 238.464 
L 264.147461 212.352 
L 252.952476 180.096 
L 241.757492 140.16 
L 230.562508 109.44 
L 219.367524 95.616 
L 208.172539 89.472 
L 196.977555 81.792 
L 185.782571 75.648 
L 174.587586 75.648 
L 163.392602 78.72 
L 152.197618 77.184 
L 141.002633 77.184 
L 129.807649 75.648 
L 118.612665 77.184 
L 107.41768 77.184 
L 96.222696 77.184 
L 85.027712 77.184 
L 73.832727 77.184 
z
" clip-path="url(#p727777bad2)" style="fill: #17becf"/>
   </g>
   <g id="PolyCollection_11">
    <path d="M 73.832727 77.184 
L 73.832727 77.184 
L 85.027712 77.184 
L 96.222696 77.184 
L 107.41768 77.184 
L 118.612665 77.184 
L 129.807649 75.648 
L 141.002633 77.184 
L 152.197618 77.184 
L 163.392602 78.72 
L 174.587586 75.648 
L 185.782571 75.648 
L 196.977555 81.792 
L 208.172539 89.472 
L 219.367524 95.616 
L 230.562508 109.44 
L 241.757492 140.16 
L 252.952476 180.096 
L 264.147461 212.352 
L 275.342445 238.464 
L 286.537429 218.496 
L 297.732414 233.856 
L 308.927398 253.824 
L 320.122382 243.072 
L 331.317367 240 
L 342.512351 218.496 
L 353.707335 226.176 
L 364.90232 238.464 
L 376.097304 253.824 
L 387.292288 258.432 
L 398.487273 253.824 
L 398.487273 249.216 
L 398.487273 249.216 
L 387.292288 253.824 
L 376.097304 249.216 
L 364.90232 233.856 
L 353.707335 221.568 
L 342.512351 216.96 
L 331.317367 229.248 
L 320.122382 218.496 
L 308.927398 215.424 
L 297.732414 209.28 
L 286.537429 209.28 
L 275.342445 233.856 
L 264.147461 206.208 
L 252.952476 169.344 
L 241.757492 134.016 
L 230.562508 104.832 
L 219.367524 91.008 
L 208.172539 84.864 
L 196.977555 78.72 
L 185.782571 75.648 
L 174.587586 75.648 
L 163.392602 78.72 
L 152.197618 77.184 
L 141.002633 77.184 
L 129.807649 75.648 
L 118.612665 77.184 
L 107.41768 77.184 
L 96.222696 77.184 
L 85.027712 77.184 
L 73.832727 77.184 
z
" clip-path="url(#p727777bad2)" style="fill: #1f77b4"/>
   </g>
   <g id="PolyCollection_12">
    <path d="M 73.832727 77.184 
L 73.832727 77.184 
L 85.027712 77.184 
L 96.222696 77.184 
L 107.41768 77.184 
L 118.612665 77.184 
L 129.807649 75.648 
L 141.002633 77.184 
L 152.197618 77.184 
L 163.392602 78.72 
L 174.587586 75.648 
L 185.782571 75.648 
L 196.977555 78.72 
L 208.172539 84.864 
L 219.367524 91.008 
L 230.562508 104.832 
L 241.757492 134.016 
L 252.952476 169.344 
L 264.147461 206.208 
L 275.342445 233.856 
L 286.537429 209.28 
L 297.732414 209.28 
L 308.927398 215.424 
L 320.122382 218.496 
L 331.317367 229.248 
L 342.512351 216.96 
L 353.707335 221.568 
L 364.90232 233.856 
L 376.097304 249.216 
L 387.292288 253.824 
L 398.487273 249.216 
L 398.487273 244.608 
L 398.487273 244.608 
L 387.292288 249.216 
L 376.097304 244.608 
L 364.90232 229.248 
L 353.707335 216.96 
L 342.512351 212.352 
L 331.317367 224.64 
L 320.122382 213.888 
L 308.927398 210.816 
L 297.732414 204.672 
L 286.537429 204.672 
L 275.342445 227.712 
L 264.147461 196.992 
L 252.952476 158.592 
L 241.757492 115.584 
L 230.562508 86.4 
L 219.367524 75.648 
L 208.172539 74.112 
L 196.977555 72.576 
L 185.782571 75.648 
L 174.587586 75.648 
L 163.392602 78.72 
L 152.197618 77.184 
L 141.002633 77.184 
L 129.807649 75.648 
L 118.612665 77.184 
L 107.41768 77.184 
L 96.222696 77.184 
L 85.027712 77.184 
L 73.832727 77.184 
z
" clip-path="url(#p727777bad2)" style="fill: #ff7f0e"/>
   </g>
   <g id="PolyCollection_13">
    <path d="M 73.832727 77.184 
L 73.832727 77.184 
L 85.027712 77.184 
L 96.222696 77.184 
L 107.41768 77.184 
L 118.612665 77.184 
L 129.807649 75.648 
L 141.002633 77.184 
L 152.197618 77.184 
L 163.392602 78.72 
L 174.587586 75.648 
L 185.782571 75.648 
L 196.977555 72.576 
L 208.172539 74.112 
L 219.367524 75.648 
L 230.562508 86.4 
L 241.757492 115.584 
L 252.952476 158.592 
L 264.147461 196.992 
L 275.342445 227.712 
L 286.537429 204.672 
L 297.732414 204.672 
L 308.927398 210.816 
L 320.122382 213.888 
L 331.317367 224.64 
L 342.512351 212.352 
L 353.707335 216.96 
L 364.90232 229.248 
L 376.097304 244.608 
L 387.292288 249.216 
L 398.487273 244.608 
L 398.487273 240 
L 398.487273 240 
L 387.292288 244.608 
L 376.097304 240 
L 364.90232 224.64 
L 353.707335 210.816 
L 342.512351 206.208 
L 331.317367 221.568 
L 320.122382 209.28 
L 308.927398 206.208 
L 297.732414 201.6 
L 286.537429 198.528 
L 275.342445 221.568 
L 264.147461 195.456 
L 252.952476 149.376 
L 241.757492 109.44 
L 230.562508 84.864 
L 219.367524 75.648 
L 208.172539 74.112 
L 196.977555 72.576 
L 185.782571 75.648 
L 174.587586 75.648 
L 163.392602 78.72 
L 152.197618 77.184 
L 141.002633 77.184 
L 129.807649 75.648 
L 118.612665 77.184 
L 107.41768 77.184 
L 96.222696 77.184 
L 85.027712 77.184 
L 73.832727 77.184 
z
" clip-path="url(#p727777bad2)" style="fill: #2ca02c"/>
   </g>
   <g id="PolyCollection_14">
    <path d="M 73.832727 77.184 
L 73.832727 77.184 
L 85.027712 77.184 
L 96.222696 77.184 
L 107.41768 77.184 
L 118.612665 77.184 
L 129.807649 75.648 
L 141.002633 77.184 
L 152.197618 77.184 
L 163.392602 78.72 
L 174.587586 75.648 
L 185.782571 75.648 
L 196.977555 72.576 
L 208.172539 74.112 
L 219.367524 75.648 
L 230.562508 84.864 
L 241.757492 109.44 
L 252.952476 149.376 
L 264.147461 195.456 
L 275.342445 221.568 
L 286.537429 198.528 
L 297.732414 201.6 
L 308.927398 206.208 
L 320.122382 209.28 
L 331.317367 221.568 
L 342.512351 206.208 
L 353.707335 210.816 
L 364.90232 224.64 
L 376.097304 240 
L 387.292288 244.608 
L 398.487273 240 
L 398.487273 235.392 
L 398.487273 235.392 
L 387.292288 240 
L 376.097304 236.928 
L 364.90232 218.496 
L 353.707335 206.208 
L 342.512351 201.6 
L 331.317367 216.96 
L 320.122382 204.672 
L 308.927398 201.6 
L 297.732414 196.992 
L 286.537429 193.92 
L 275.342445 216.96 
L 264.147461 190.848 
L 252.952476 144.768 
L 241.757492 104.832 
L 230.562508 83.328 
L 219.367524 75.648 
L 208.172539 74.112 
L 196.977555 72.576 
L 185.782571 75.648 
L 174.587586 75.648 
L 163.392602 78.72 
L 152.197618 77.184 
L 141.002633 77.184 
L 129.807649 75.648 
L 118.612665 77.184 
L 107.41768 77.184 
L 96.222696 77.184 
L 85.027712 77.184 
L 73.832727 77.184 
z
" clip-path="url(#p727777bad2)" style="fill: #d62728"/>
   </g>
   <g id="PolyCollection_15">
    <path d="M 73.832727 77.184 
L 73.832727 77.184 
L 85.027712 77.184 
L 96.222696 77.184 
L 107.41768 77.184 
L 118.612665 77.184 
L 129.807649 75.648 
L 141.002633 77.184 
L 152.197618 77.184 
L 163.392602 78.72 
L 174.587586 75.648 
L 185.782571 75.648 
L 196.977555 72.576 
L 208.172539 74.112 
L 219.367524 75.648 
L 230.562508 83.328 
L 241.757492 104.832 
L 252.952476 144.768 
L 264.147461 190.848 
L 275.342445 216.96 
L 286.537429 193.92 
L 297.732414 196.992 
L 308.927398 201.6 
L 320.122382 204.672 
L 331.317367 216.96 
L 342.512351 201.6 
L 353.707335 206.208 
L 364.90232 218.496 
L 376.097304 236.928 
L 387.292288 240 
L 398.487273 235.392 
L 398.487273 230.784 
L 398.487273 230.784 
L 387.292288 235.392 
L 376.097304 232.32 
L 364.90232 213.888 
L 353.707335 198.528 
L 342.512351 190.848 
L 331.317367 203.136 
L 320.122382 192.384 
L 308.927398 192.384 
L 297.732414 183.168 
L 286.537429 181.632 
L 275.342445 203.136 
L 264.147461 178.56 
L 252.952476 127.872 
L 241.757492 91.008 
L 230.562508 78.72 
L 219.367524 75.648 
L 208.172539 74.112 
L 196.977555 72.576 
L 185.782571 75.648 
L 174.587586 75.648 
L 163.392602 78.72 
L 152.197618 77.184 
L 141.002633 77.184 
L 129.807649 75.648 
L 118.612665 77.184 
L 107.41768 77.184 
L 96.222696 77.184 
L 85.027712 77.184 
L 73.832727 77.184 
z
" clip-path="url(#p727777bad2)" style="fill: #9467bd"/>
   </g>
   <g id="PolyCollection_16">
    <path d="M 73.832727 77.184 
L 73.832727 77.184 
L 85.027712 77.184 
L 96.222696 77.184 
L 107.41768 77.184 
L 118.612665 77.184 
L 129.807649 75.648 
L 141.002633 77.184 
L 152.197618 77.184 
L 163.392602 78.72 
L 174.587586 75.648 
L 185.782571 75.648 
L 196.977555 72.576 
L 208.172539 74.112 
L 219.367524 75.648 
L 230.562508 78.72 
L 241.757492 91.008 
L 252.952476 127.872 
L 264.147461 178.56 
L 275.342445 203.136 
L 286.537429 181.632 
L 297.732414 183.168 
L 308.927398 192.384 
L 320.122382 192.384 
L 331.317367 203.136 
L 342.512351 190.848 
L 353.707335 198.528 
L 364.90232 213.888 
L 376.097304 232.32 
L 387.292288 235.392 
L 398.487273 230.784 
L 398.487273 226.176 
L 398.487273 226.176 
L 387.292288 230.784 
L 376.097304 227.712 
L 364.90232 209.28 
L 353.707335 193.92 
L 342.512351 186.24 
L 331.317367 198.528 
L 320.122382 187.776 
L 308.927398 187.776 
L 297.732414 178.56 
L 286.537429 177.024 
L 275.342445 200.064 
L 264.147461 172.416 
L 252.952476 121.728 
L 241.757492 83.328 
L 230.562508 77.184 
L 219.367524 75.648 
L 208.172539 74.112 
L 196.977555 72.576 
L 185.782571 75.648 
L 174.587586 75.648 
L 163.392602 78.72 
L 152.197618 77.184 
L 141.002633 77.184 
L 129.807649 75.648 
L 118.612665 77.184 
L 107.41768 77.184 
L 96.222696 77.184 
L 85.027712 77.184 
L 73.832727 77.184 
z
" clip-path="url(#p727777bad2)" style="fill: #8c564b"/>
   </g>
   <g id="PolyCollection_17">
    <path d="M 73.832727 77.184 
L 73.832727 77.184 
L 85.027712 77.184 
L 96.222696 77.184 
L 107.41768 77.184 
L 118.612665 77.184 
L 129.807649 75.648 
L 141.002633 77.184 
L 152.197618 77.184 
L 163.392602 78.72 
L 174.587586 75.648 
L 185.782571 75.648 
L 196.977555 72.576 
L 208.172539 74.112 
L 219.367524 75.648 
L 230.562508 77.184 
L 241.757492 83.328 
L 252.952476 121.728 
L 264.147461 172.416 
L 275.342445 200.064 
L 286.537429 177.024 
L 297.732414 178.56 
L 308.927398 187.776 
L 320.122382 187.776 
L 331.317367 198.528 
L 342.512351 186.24 
L 353.707335 193.92 
L 364.90232 209.28 
L 376.097304 227.712 
L 387.292288 230.784 
L 398.487273 226.176 
L 398.487273 220.032 
L 398.487273 220.032 
L 387.292288 227.712 
L 376.097304 221.568 
L 364.90232 203.136 
L 353.707335 187.776 
L 342.512351 175.488 
L 331.317367 166.272 
L 320.122382 173.952 
L 308.927398 173.952 
L 297.732414 144.768 
L 286.537429 152.448 
L 275.342445 141.696 
L 264.147461 143.232 
L 252.952476 100.224 
L 241.757492 72.576 
L 230.562508 75.648 
L 219.367524 75.648 
L 208.172539 74.112 
L 196.977555 72.576 
L 185.782571 75.648 
L 174.587586 75.648 
L 163.392602 78.72 
L 152.197618 77.184 
L 141.002633 77.184 
L 129.807649 75.648 
L 118.612665 77.184 
L 107.41768 77.184 
L 96.222696 77.184 
L 85.027712 77.184 
L 73.832727 77.184 
z
" clip-path="url(#p727777bad2)" style="fill: #e377c2"/>
   </g>
   <g id="PolyCollection_18">
    <path d="M 73.832727 77.184 
L 73.832727 77.184 
L 85.027712 77.184 
L 96.222696 77.184 
L 107.41768 77.184 
L 118.612665 77.184 
L 129.807649 75.648 
L 141.002633 77.184 
L 152.197618 77.184 
L 163.392602 78.72 
L 174.587586 75.648 
L 185.782571 75.648 
L 196.977555 72.576 
L 208.172539 74.112 
L 219.367524 75.648 
L 230.562508 75.648 
L 241.757492 72.576 
L 252.952476 100.224 
L 264.147461 143.232 
L 275.342445 141.696 
L 286.537429 152.448 
L 297.732414 144.768 
L 308.927398 173.952 
L 320.122382 173.952 
L 331.317367 166.272 
L 342.512351 175.488 
L 353.707335 187.776 
L 364.90232 203.136 
L 376.097304 221.568 
L 387.292288 227.712 
L 398.487273 220.032 
L 398.487273 213.888 
L 398.487273 213.888 
L 387.292288 221.568 
L 376.097304 212.352 
L 364.90232 192.384 
L 353.707335 177.024 
L 342.512351 169.344 
L 331.317367 160.128 
L 320.122382 166.272 
L 308.927398 166.272 
L 297.732414 137.088 
L 286.537429 141.696 
L 275.342445 132.48 
L 264.147461 129.408 
L 252.952476 94.08 
L 241.757492 69.504 
L 230.562508 75.648 
L 219.367524 75.648 
L 208.172539 74.112 
L 196.977555 72.576 
L 185.782571 75.648 
L 174.587586 75.648 
L 163.392602 78.72 
L 152.197618 77.184 
L 141.002633 77.184 
L 129.807649 75.648 
L 118.612665 77.184 
L 107.41768 77.184 
L 96.222696 77.184 
L 85.027712 77.184 
L 73.832727 77.184 
z
" clip-path="url(#p727777bad2)" style="fill: #7f7f7f"/>
   </g>
   <g id="PolyCollection_19">
    <path d="M 73.832727 77.184 
L 73.832727 77.184 
L 85.027712 77.184 
L 96.222696 77.184 
L 107.41768 77.184 
L 118.612665 77.184 
L 129.807649 75.648 
L 141.002633 77.184 
L 152.197618 77.184 
L 163.392602 78.72 
L 174.587586 75.648 
L 185.782571 75.648 
L 196.977555 72.576 
L 208.172539 74.112 
L 219.367524 75.648 
L 230.562508 75.648 
L 241.757492 69.504 
L 252.952476 94.08 
L 264.147461 129.408 
L 275.342445 132.48 
L 286.537429 141.696 
L 297.732414 137.088 
L 308.927398 166.272 
L 320.122382 166.272 
L 331.317367 160.128 
L 342.512351 169.344 
L 353.707335 177.024 
L 364.90232 192.384 
L 376.097304 212.352 
L 387.292288 221.568 
L 398.487273 213.888 
L 398.487273 209.28 
L 398.487273 209.28 
L 387.292288 216.96 
L 376.097304 207.744 
L 364.90232 187.776 
L 353.707335 172.416 
L 342.512351 164.736 
L 331.317367 155.52 
L 320.122382 161.664 
L 308.927398 161.664 
L 297.732414 132.48 
L 286.537429 137.088 
L 275.342445 127.872 
L 264.147461 123.264 
L 252.952476 92.544 
L 241.757492 69.504 
L 230.562508 75.648 
L 219.367524 75.648 
L 208.172539 74.112 
L 196.977555 72.576 
L 185.782571 75.648 
L 174.587586 75.648 
L 163.392602 78.72 
L 152.197618 77.184 
L 141.002633 77.184 
L 129.807649 75.648 
L 118.612665 77.184 
L 107.41768 77.184 
L 96.222696 77.184 
L 85.027712 77.184 
L 73.832727 77.184 
z
" clip-path="url(#p727777bad2)" style="fill: #bcbd22"/>
   </g>
   <g id="PolyCollection_20">
    <path d="M 73.832727 77.184 
L 73.832727 77.184 
L 85.027712 77.184 
L 96.222696 77.184 
L 107.41768 77.184 
L 118.612665 77.184 
L 129.807649 75.648 
L 141.002633 77.184 
L 152.197618 77.184 
L 163.392602 78.72 
L 174.587586 75.648 
L 185.782571 75.648 
L 196.977555 72.576 
L 208.172539 74.112 
L 219.367524 75.648 
L 230.562508 75.648 
L 241.757492 69.504 
L 252.952476 92.544 
L 264.147461 123.264 
L 275.342445 127.872 
L 286.537429 137.088 
L 297.732414 132.48 
L 308.927398 161.664 
L 320.122382 161.664 
L 331.317367 155.52 
L 342.512351 164.736 
L 353.707335 172.416 
L 364.90232 187.776 
L 376.097304 207.744 
L 387.292288 216.96 
L 398.487273 209.28 
L 398.487273 201.6 
L 398.487273 201.6 
L 387.292288 207.744 
L 376.097304 198.528 
L 364.90232 173.952 
L 353.707335 161.664 
L 342.512351 155.52 
L 331.317367 144.768 
L 320.122382 152.448 
L 308.927398 150.912 
L 297.732414 126.336 
L 286.537429 126.336 
L 275.342445 118.656 
L 264.147461 97.152 
L 252.952476 77.184 
L 241.757492 69.504 
L 230.562508 75.648 
L 219.367524 75.648 
L 208.172539 74.112 
L 196.977555 72.576 
L 185.782571 75.648 
L 174.587586 75.648 
L 163.392602 78.72 
L 152.197618 77.184 
L 141.002633 77.184 
L 129.807649 75.648 
L 118.612665 77.184 
L 107.41768 77.184 
L 96.222696 77.184 
L 85.027712 77.184 
L 73.832727 77.184 
z
" clip-path="url(#p727777bad2)" style="fill: #17becf"/>
   </g>
   <g id="PolyCollection_21">
    <path d="M 73.832727 77.184 
L 73.832727 77.184 
L 85.027712 77.184 
L 96.222696 77.184 
L 107.41768 77.184 
L 118.612665 77.184 
L 129.807649 75.648 
L 141.002633 77.184 
L 152.197618 77.184 
L 163.392602 78.72 
L 174.587586 75.648 
L 185.782571 75.648 
L 196.977555 72.576 
L 208.172539 74.112 
L 219.367524 75.648 
L 230.562508 75.648 
L 241.757492 69.504 
L 252.952476 77.184 
L 264.147461 97.152 
L 275.342445 118.656 
L 286.537429 126.336 
L 297.732414 126.336 
L 308.927398 150.912 
L 320.122382 152.448 
L 331.317367 144.768 
L 342.512351 155.52 
L 353.707335 161.664 
L 364.90232 173.952 
L 376.097304 198.528 
L 387.292288 207.744 
L 398.487273 201.6 
L 398.487273 192.384 
L 398.487273 192.384 
L 387.292288 198.528 
L 376.097304 187.776 
L 364.90232 161.664 
L 353.707335 149.376 
L 342.512351 143.232 
L 331.317367 134.016 
L 320.122382 140.16 
L 308.927398 138.624 
L 297.732414 110.976 
L 286.537429 107.904 
L 275.342445 103.296 
L 264.147461 74.112 
L 252.952476 72.576 
L 241.757492 69.504 
L 230.562508 75.648 
L 219.367524 75.648 
L 208.172539 74.112 
L 196.977555 72.576 
L 185.782571 75.648 
L 174.587586 75.648 
L 163.392602 78.72 
L 152.197618 77.184 
L 141.002633 77.184 
L 129.807649 75.648 
L 118.612665 77.184 
L 107.41768 77.184 
L 96.222696 77.184 
L 85.027712 77.184 
L 73.832727 77.184 
z
" clip-path="url(#p727777bad2)" style="fill: #1f77b4"/>
   </g>
   <g id="PolyCollection_22">
    <path d="M 73.832727 77.184 
L 73.832727 77.184 
L 85.027712 77.184 
L 96.222696 77.184 
L 107.41768 77.184 
L 118.612665 77.184 
L 129.807649 75.648 
L 141.002633 77.184 
L 152.197618 77.184 
L 163.392602 78.72 
L 174.587586 75.648 
L 185.782571 75.648 
L 196.977555 72.576 
L 208.172539 74.112 
L 219.367524 75.648 
L 230.562508 75.648 
L 241.757492 69.504 
L 252.952476 72.576 
L 264.147461 74.112 
L 275.342445 103.296 
L 286.537429 107.904 
L 297.732414 110.976 
L 308.927398 138.624 
L 320.122382 140.16 
L 331.317367 134.016 
L 342.512351 143.232 
L 353.707335 149.376 
L 364.90232 161.664 
L 376.097304 187.776 
L 387.292288 198.528 
L 398.487273 192.384 
L 398.487273 181.632 
L 398.487273 181.632 
L 387.292288 189.312 
L 376.097304 175.488 
L 364.90232 150.912 
L 353.707335 134.016 
L 342.512351 135.552 
L 331.317367 118.656 
L 320.122382 130.944 
L 308.927398 129.408 
L 297.732414 95.616 
L 286.537429 92.544 
L 275.342445 81.792 
L 264.147461 71.04 
L 252.952476 72.576 
L 241.757492 69.504 
L 230.562508 75.648 
L 219.367524 75.648 
L 208.172539 74.112 
L 196.977555 72.576 
L 185.782571 75.648 
L 174.587586 75.648 
L 163.392602 78.72 
L 152.197618 77.184 
L 141.002633 77.184 
L 129.807649 75.648 
L 118.612665 77.184 
L 107.41768 77.184 
L 96.222696 77.184 
L 85.027712 77.184 
L 73.832727 77.184 
z
" clip-path="url(#p727777bad2)" style="fill: #ff7f0e"/>
   </g>
   <g id="PolyCollection_23">
    <path d="M 73.832727 77.184 
L 73.832727 77.184 
L 85.027712 77.184 
L 96.222696 77.184 
L 107.41768 77.184 
L 118.612665 77.184 
L 129.807649 75.648 
L 141.002633 77.184 
L 152.197618 77.184 
L 163.392602 78.72 
L 174.587586 75.648 
L 185.782571 75.648 
L 196.977555 72.576 
L 208.172539 74.112 
L 219.367524 75.648 
L 230.562508 75.648 
L 241.757492 69.504 
L 252.952476 72.576 
L 264.147461 71.04 
L 275.342445 81.792 
L 286.537429 92.544 
L 297.732414 95.616 
L 308.927398 129.408 
L 320.122382 130.944 
L 331.317367 118.656 
L 342.512351 135.552 
L 353.707335 134.016 
L 364.90232 150.912 
L 376.097304 175.488 
L 387.292288 189.312 
L 398.487273 181.632 
L 398.487273 170.88 
L 398.487273 170.88 
L 387.292288 178.56 
L 376.097304 164.736 
L 364.90232 137.088 
L 353.707335 124.8 
L 342.512351 118.656 
L 331.317367 103.296 
L 320.122382 110.976 
L 308.927398 97.152 
L 297.732414 89.472 
L 286.537429 87.936 
L 275.342445 75.648 
L 264.147461 69.504 
L 252.952476 72.576 
L 241.757492 69.504 
L 230.562508 75.648 
L 219.367524 75.648 
L 208.172539 74.112 
L 196.977555 72.576 
L 185.782571 75.648 
L 174.587586 75.648 
L 163.392602 78.72 
L 152.197618 77.184 
L 141.002633 77.184 
L 129.807649 75.648 
L 118.612665 77.184 
L 107.41768 77.184 
L 96.222696 77.184 
L 85.027712 77.184 
L 73.832727 77.184 
z
" clip-path="url(#p727777bad2)" style="fill: #2ca02c"/>
   </g>
   <g id="PolyCollection_24">
    <path d="M 73.832727 77.184 
L 73.832727 77.184 
L 85.027712 77.184 
L 96.222696 77.184 
L 107.41768 77.184 
L 118.612665 77.184 
L 129.807649 75.648 
L 141.002633 77.184 
L 152.197618 77.184 
L 163.392602 78.72 
L 174.587586 75.648 
L 185.782571 75.648 
L 196.977555 72.576 
L 208.172539 74.112 
L 219.367524 75.648 
L 230.562508 75.648 
L 241.757492 69.504 
L 252.952476 72.576 
L 264.147461 69.504 
L 275.342445 75.648 
L 286.537429 87.936 
L 297.732414 89.472 
L 308.927398 97.152 
L 320.122382 110.976 
L 331.317367 103.296 
L 342.512351 118.656 
L 353.707335 124.8 
L 364.90232 137.088 
L 376.097304 164.736 
L 387.292288 178.56 
L 398.487273 170.88 
L 398.487273 166.272 
L 398.487273 166.272 
L 387.292288 173.952 
L 376.097304 160.128 
L 364.90232 132.48 
L 353.707335 120.192 
L 342.512351 114.048 
L 331.317367 98.688 
L 320.122382 106.368 
L 308.927398 94.08 
L 297.732414 84.864 
L 286.537429 83.328 
L 275.342445 74.112 
L 264.147461 69.504 
L 252.952476 72.576 
L 241.757492 69.504 
L 230.562508 75.648 
L 219.367524 75.648 
L 208.172539 74.112 
L 196.977555 72.576 
L 185.782571 75.648 
L 174.587586 75.648 
L 163.392602 78.72 
L 152.197618 77.184 
L 141.002633 77.184 
L 129.807649 75.648 
L 118.612665 77.184 
L 107.41768 77.184 
L 96.222696 77.184 
L 85.027712 77.184 
L 73.832727 77.184 
z
" clip-path="url(#p727777bad2)" style="fill: #d62728"/>
   </g>
   <g id="PolyCollection_25">
    <path d="M 73.832727 77.184 
L 73.832727 77.184 
L 85.027712 77.184 
L 96.222696 77.184 
L 107.41768 77.184 
L 118.612665 77.184 
L 129.807649 75.648 
L 141.002633 77.184 
L 152.197618 77.184 
L 163.392602 78.72 
L 174.587586 75.648 
L 185.782571 75.648 
L 196.977555 72.576 
L 208.172539 74.112 
L 219.367524 75.648 
L 230.562508 75.648 
L 241.757492 69.504 
L 252.952476 72.576 
L 264.147461 69.504 
L 275.342445 74.112 
L 286.537429 83.328 
L 297.732414 84.864 
L 308.927398 94.08 
L 320.122382 106.368 
L 331.317367 98.688 
L 342.512351 114.048 
L 353.707335 120.192 
L 364.90232 132.48 
L 376.097304 160.128 
L 387.292288 173.952 
L 398.487273 166.272 
L 398.487273 155.52 
L 398.487273 155.52 
L 387.292288 164.736 
L 376.097304 149.376 
L 364.90232 123.264 
L 353.707335 115.584 
L 342.512351 107.904 
L 331.317367 92.544 
L 320.122382 98.688 
L 308.927398 86.4 
L 297.732414 78.72 
L 286.537429 77.184 
L 275.342445 71.04 
L 264.147461 69.504 
L 252.952476 72.576 
L 241.757492 69.504 
L 230.562508 75.648 
L 219.367524 75.648 
L 208.172539 74.112 
L 196.977555 72.576 
L 185.782571 75.648 
L 174.587586 75.648 
L 163.392602 78.72 
L 152.197618 77.184 
L 141.002633 77.184 
L 129.807649 75.648 
L 118.612665 77.184 
L 107.41768 77.184 
L 96.222696 77.184 
L 85.027712 77.184 
L 73.832727 77.184 
z
" clip-path="url(#p727777bad2)" style="fill: #9467bd"/>
   </g>
   <g id="PolyCollection_26">
    <path d="M 73.832727 77.184 
L 73.832727 77.184 
L 85.027712 77.184 
L 96.222696 77.184 
L 107.41768 77.184 
L 118.612665 77.184 
L 129.807649 75.648 
L 141.002633 77.184 
L 152.197618 77.184 
L 163.392602 78.72 
L 174.587586 75.648 
L 185.782571 75.648 
L 196.977555 72.576 
L 208.172539 74.112 
L 219.367524 75.648 
L 230.562508 75.648 
L 241.757492 69.504 
L 252.952476 72.576 
L 264.147461 69.504 
L 275.342445 71.04 
L 286.537429 77.184 
L 297.732414 78.72 
L 308.927398 86.4 
L 320.122382 98.688 
L 331.317367 92.544 
L 342.512351 107.904 
L 353.707335 115.584 
L 364.90232 123.264 
L 376.097304 149.376 
L 387.292288 164.736 
L 398.487273 155.52 
L 398.487273 150.912 
L 398.487273 150.912 
L 387.292288 160.128 
L 376.097304 144.768 
L 364.90232 118.656 
L 353.707335 110.976 
L 342.512351 103.296 
L 331.317367 87.936 
L 320.122382 94.08 
L 308.927398 81.792 
L 297.732414 75.648 
L 286.537429 75.648 
L 275.342445 71.04 
L 264.147461 69.504 
L 252.952476 72.576 
L 241.757492 69.504 
L 230.562508 75.648 
L 219.367524 75.648 
L 208.172539 74.112 
L 196.977555 72.576 
L 185.782571 75.648 
L 174.587586 75.648 
L 163.392602 78.72 
L 152.197618 77.184 
L 141.002633 77.184 
L 129.807649 75.648 
L 118.612665 77.184 
L 107.41768 77.184 
L 96.222696 77.184 
L 85.027712 77.184 
L 73.832727 77.184 
z
" clip-path="url(#p727777bad2)" style="fill: #8c564b"/>
   </g>
   <g id="PolyCollection_27">
    <path d="M 73.832727 77.184 
L 73.832727 77.184 
L 85.027712 77.184 
L 96.222696 77.184 
L 107.41768 77.184 
L 118.612665 77.184 
L 129.807649 75.648 
L 141.002633 77.184 
L 152.197618 77.184 
L 163.392602 78.72 
L 174.587586 75.648 
L 185.782571 75.648 
L 196.977555 72.576 
L 208.172539 74.112 
L 219.367524 75.648 
L 230.562508 75.648 
L 241.757492 69.504 
L 252.952476 72.576 
L 264.147461 69.504 
L 275.342445 71.04 
L 286.537429 75.648 
L 297.732414 75.648 
L 308.927398 81.792 
L 320.122382 94.08 
L 331.317367 87.936 
L 342.512351 103.296 
L 353.707335 110.976 
L 364.90232 118.656 
L 376.097304 144.768 
L 387.292288 160.128 
L 398.487273 150.912 
L 398.487273 146.304 
L 398.487273 146.304 
L 387.292288 155.52 
L 376.097304 140.16 
L 364.90232 114.048 
L 353.707335 106.368 
L 342.512351 98.688 
L 331.317367 83.328 
L 320.122382 89.472 
L 308.927398 80.256 
L 297.732414 71.04 
L 286.537429 72.576 
L 275.342445 71.04 
L 264.147461 69.504 
L 252.952476 72.576 
L 241.757492 69.504 
L 230.562508 75.648 
L 219.367524 75.648 
L 208.172539 74.112 
L 196.977555 72.576 
L 185.782571 75.648 
L 174.587586 75.648 
L 163.392602 78.72 
L 152.197618 77.184 
L 141.002633 77.184 
L 129.807649 75.648 
L 118.612665 77.184 
L 107.41768 77.184 
L 96.222696 77.184 
L 85.027712 77.184 
L 73.832727 77.184 
z
" clip-path="url(#p727777bad2)" style="fill: #e377c2"/>
   </g>
   <g id="PolyCollection_28">
    <path d="M 73.832727 77.184 
L 73.832727 77.184 
L 85.027712 77.184 
L 96.222696 77.184 
L 107.41768 77.184 
L 118.612665 77.184 
L 129.807649 75.648 
L 141.002633 77.184 
L 152.197618 77.184 
L 163.392602 78.72 
L 174.587586 75.648 
L 185.782571 75.648 
L 196.977555 72.576 
L 208.172539 74.112 
L 219.367524 75.648 
L 230.562508 75.648 
L 241.757492 69.504 
L 252.952476 72.576 
L 264.147461 69.504 
L 275.342445 71.04 
L 286.537429 72.576 
L 297.732414 71.04 
L 308.927398 80.256 
L 320.122382 89.472 
L 331.317367 83.328 
L 342.512351 98.688 
L 353.707335 106.368 
L 364.90232 114.048 
L 376.097304 140.16 
L 387.292288 155.52 
L 398.487273 146.304 
L 398.487273 141.696 
L 398.487273 141.696 
L 387.292288 150.912 
L 376.097304 135.552 
L 364.90232 109.44 
L 353.707335 101.76 
L 342.512351 94.08 
L 331.317367 78.72 
L 320.122382 84.864 
L 308.927398 75.648 
L 297.732414 69.504 
L 286.537429 72.576 
L 275.342445 71.04 
L 264.147461 69.504 
L 252.952476 72.576 
L 241.757492 69.504 
L 230.562508 75.648 
L 219.367524 75.648 
L 208.172539 74.112 
L 196.977555 72.576 
L 185.782571 75.648 
L 174.587586 75.648 
L 163.392602 78.72 
L 152.197618 77.184 
L 141.002633 77.184 
L 129.807649 75.648 
L 118.612665 77.184 
L 107.41768 77.184 
L 96.222696 77.184 
L 85.027712 77.184 
L 73.832727 77.184 
z
" clip-path="url(#p727777bad2)" style="fill: #7f7f7f"/>
   </g>
   <g id="PolyCollection_29">
    <path d="M 73.832727 77.184 
L 73.832727 77.184 
L 85.027712 77.184 
L 96.222696 77.184 
L 107.41768 77.184 
L 118.612665 77.184 
L 129.807649 75.648 
L 141.002633 77.184 
L 152.197618 77.184 
L 163.392602 78.72 
L 174.587586 75.648 
L 185.782571 75.648 
L 196.977555 72.576 
L 208.172539 74.112 
L 219.367524 75.648 
L 230.562508 75.648 
L 241.757492 69.504 
L 252.952476 72.576 
L 264.147461 69.504 
L 275.342445 71.04 
L 286.537429 72.576 
L 297.732414 69.504 
L 308.927398 75.648 
L 320.122382 84.864 
L 331.317367 78.72 
L 342.512351 94.08 
L 353.707335 101.76 
L 364.90232 109.44 
L 376.097304 135.552 
L 387.292288 150.912 
L 398.487273 141.696 
L 398.487273 129.408 
L 398.487273 129.408 
L 387.292288 137.088 
L 376.097304 121.728 
L 364.90232 94.08 
L 353.707335 84.864 
L 342.512351 75.648 
L 331.317367 71.04 
L 320.122382 67.968 
L 308.927398 69.504 
L 297.732414 69.504 
L 286.537429 72.576 
L 275.342445 71.04 
L 264.147461 69.504 
L 252.952476 72.576 
L 241.757492 69.504 
L 230.562508 75.648 
L 219.367524 75.648 
L 208.172539 74.112 
L 196.977555 72.576 
L 185.782571 75.648 
L 174.587586 75.648 
L 163.392602 78.72 
L 152.197618 77.184 
L 141.002633 77.184 
L 129.807649 75.648 
L 118.612665 77.184 
L 107.41768 77.184 
L 96.222696 77.184 
L 85.027712 77.184 
L 73.832727 77.184 
z
" clip-path="url(#p727777bad2)" style="fill: #bcbd22"/>
   </g>
   <g id="PolyCollection_30">
    <path d="M 73.832727 77.184 
L 73.832727 77.184 
L 85.027712 77.184 
L 96.222696 77.184 
L 107.41768 77.184 
L 118.612665 77.184 
L 129.807649 75.648 
L 141.002633 77.184 
L 152.197618 77.184 
L 163.392602 78.72 
L 174.587586 75.648 
L 185.782571 75.648 
L 196.977555 72.576 
L 208.172539 74.112 
L 219.367524 75.648 
L 230.562508 75.648 
L 241.757492 69.504 
L 252.952476 72.576 
L 264.147461 69.504 
L 275.342445 71.04 
L 286.537429 72.576 
L 297.732414 69.504 
L 308.927398 69.504 
L 320.122382 67.968 
L 331.317367 71.04 
L 342.512351 75.648 
L 353.707335 84.864 
L 364.90232 94.08 
L 376.097304 121.728 
L 387.292288 137.088 
L 398.487273 129.408 
L 398.487273 124.8 
L 398.487273 124.8 
L 387.292288 132.48 
L 376.097304 117.12 
L 364.90232 89.472 
L 353.707335 80.256 
L 342.512351 67.968 
L 331.317367 69.504 
L 320.122382 67.968 
L 308.927398 69.504 
L 297.732414 69.504 
L 286.537429 72.576 
L 275.342445 71.04 
L 264.147461 69.504 
L 252.952476 72.576 
L 241.757492 69.504 
L 230.562508 75.648 
L 219.367524 75.648 
L 208.172539 74.112 
L 196.977555 72.576 
L 185.782571 75.648 
L 174.587586 75.648 
L 163.392602 78.72 
L 152.197618 77.184 
L 141.002633 77.184 
L 129.807649 75.648 
L 118.612665 77.184 
L 107.41768 77.184 
L 96.222696 77.184 
L 85.027712 77.184 
L 73.832727 77.184 
z
" clip-path="url(#p727777bad2)" style="fill: #17becf"/>
   </g>
   <g id="PolyCollection_31">
    <path d="M 73.832727 77.184 
L 73.832727 77.184 
L 85.027712 77.184 
L 96.222696 77.184 
L 107.41768 77.184 
L 118.612665 77.184 
L 129.807649 75.648 
L 141.002633 77.184 
L 152.197618 77.184 
L 163.392602 78.72 
L 174.587586 75.648 
L 185.782571 75.648 
L 196.977555 72.576 
L 208.172539 74.112 
L 219.367524 75.648 
L 230.562508 75.648 
L 241.757492 69.504 
L 252.952476 72.576 
L 264.147461 69.504 
L 275.342445 71.04 
L 286.537429 72.576 
L 297.732414 69.504 
L 308.927398 69.504 
L 320.122382 67.968 
L 331.317367 69.504 
L 342.512351 67.968 
L 353.707335 80.256 
L 364.90232 89.472 
L 376.097304 117.12 
L 387.292288 132.48 
L 398.487273 124.8 
L 398.487273 118.656 
L 398.487273 118.656 
L 387.292288 127.872 
L 376.097304 109.44 
L 364.90232 83.328 
L 353.707335 74.112 
L 342.512351 61.824 
L 331.317367 67.968 
L 320.122382 67.968 
L 308.927398 69.504 
L 297.732414 69.504 
L 286.537429 72.576 
L 275.342445 71.04 
L 264.147461 69.504 
L 252.952476 72.576 
L 241.757492 69.504 
L 230.562508 75.648 
L 219.367524 75.648 
L 208.172539 74.112 
L 196.977555 72.576 
L 185.782571 75.648 
L 174.587586 75.648 
L 163.392602 78.72 
L 152.197618 77.184 
L 141.002633 77.184 
L 129.807649 75.648 
L 118.612665 77.184 
L 107.41768 77.184 
L 96.222696 77.184 
L 85.027712 77.184 
L 73.832727 77.184 
z
" clip-path="url(#p727777bad2)" style="fill: #1f77b4"/>
   </g>
   <g id="PolyCollection_32">
    <path d="M 73.832727 77.184 
L 73.832727 77.184 
L 85.027712 77.184 
L 96.222696 77.184 
L 107.41768 77.184 
L 118.612665 77.184 
L 129.807649 75.648 
L 141.002633 77.184 
L 152.197618 77.184 
L 163.392602 78.72 
L 174.587586 75.648 
L 185.782571 75.648 
L 196.977555 72.576 
L 208.172539 74.112 
L 219.367524 75.648 
L 230.562508 75.648 
L 241.757492 69.504 
L 252.952476 72.576 
L 264.147461 69.504 
L 275.342445 71.04 
L 286.537429 72.576 
L 297.732414 69.504 
L 308.927398 69.504 
L 320.122382 67.968 
L 331.317367 67.968 
L 342.512351 61.824 
L 353.707335 74.112 
L 364.90232 83.328 
L 376.097304 109.44 
L 387.292288 127.872 
L 398.487273 118.656 
L 398.487273 114.048 
L 398.487273 114.048 
L 387.292288 123.264 
L 376.097304 104.832 
L 364.90232 78.72 
L 353.707335 67.968 
L 342.512351 58.752 
L 331.317367 67.968 
L 320.122382 67.968 
L 308.927398 69.504 
L 297.732414 69.504 
L 286.537429 72.576 
L 275.342445 71.04 
L 264.147461 69.504 
L 252.952476 72.576 
L 241.757492 69.504 
L 230.562508 75.648 
L 219.367524 75.648 
L 208.172539 74.112 
L 196.977555 72.576 
L 185.782571 75.648 
L 174.587586 75.648 
L 163.392602 78.72 
L 152.197618 77.184 
L 141.002633 77.184 
L 129.807649 75.648 
L 118.612665 77.184 
L 107.41768 77.184 
L 96.222696 77.184 
L 85.027712 77.184 
L 73.832727 77.184 
z
" clip-path="url(#p727777bad2)" style="fill: #ff7f0e"/>
   </g>
   <g id="PolyCollection_33">
    <path d="M 73.832727 77.184 
L 73.832727 77.184 
L 85.027712 77.184 
L 96.222696 77.184 
L 107.41768 77.184 
L 118.612665 77.184 
L 129.807649 75.648 
L 141.002633 77.184 
L 152.197618 77.184 
L 163.392602 78.72 
L 174.587586 75.648 
L 185.782571 75.648 
L 196.977555 72.576 
L 208.172539 74.112 
L 219.367524 75.648 
L 230.562508 75.648 
L 241.757492 69.504 
L 252.952476 72.576 
L 264.147461 69.504 
L 275.342445 71.04 
L 286.537429 72.576 
L 297.732414 69.504 
L 308.927398 69.504 
L 320.122382 67.968 
L 331.317367 67.968 
L 342.512351 58.752 
L 353.707335 67.968 
L 364.90232 78.72 
L 376.097304 104.832 
L 387.292288 123.264 
L 398.487273 114.048 
L 398.487273 109.44 
L 398.487273 109.44 
L 387.292288 118.656 
L 376.097304 100.224 
L 364.90232 74.112 
L 353.707335 66.432 
L 342.512351 58.752 
L 331.317367 67.968 
L 320.122382 67.968 
L 308.927398 69.504 
L 297.732414 69.504 
L 286.537429 72.576 
L 275.342445 71.04 
L 264.147461 69.504 
L 252.952476 72.576 
L 241.757492 69.504 
L 230.562508 75.648 
L 219.367524 75.648 
L 208.172539 74.112 
L 196.977555 72.576 
L 185.782571 75.648 
L 174.587586 75.648 
L 163.392602 78.72 
L 152.197618 77.184 
L 141.002633 77.184 
L 129.807649 75.648 
L 118.612665 77.184 
L 107.41768 77.184 
L 96.222696 77.184 
L 85.027712 77.184 
L 73.832727 77.184 
z
" clip-path="url(#p727777bad2)" style="fill: #2ca02c"/>
   </g>
   <g id="PolyCollection_34">
    <path d="M 73.832727 77.184 
L 73.832727 77.184 
L 85.027712 77.184 
L 96.222696 77.184 
L 107.41768 77.184 
L 118.612665 77.184 
L 129.807649 75.648 
L 141.002633 77.184 
L 152.197618 77.184 
L 163.392602 78.72 
L 174.587586 75.648 
L 185.782571 75.648 
L 196.977555 72.576 
L 208.172539 74.112 
L 219.367524 75.648 
L 230.562508 75.648 
L 241.757492 69.504 
L 252.952476 72.576 
L 264.147461 69.504 
L 275.342445 71.04 
L 286.537429 72.576 
L 297.732414 69.504 
L 308.927398 69.504 
L 320.122382 67.968 
L 331.317367 67.968 
L 342.512351 58.752 
L 353.707335 66.432 
L 364.90232 74.112 
L 376.097304 100.224 
L 387.292288 118.656 
L 398.487273 109.44 
L 398.487273 103.296 
L 398.487273 103.296 
L 387.292288 114.048 
L 376.097304 95.616 
L 364.90232 69.504 
L 353.707335 64.896 
L 342.512351 58.752 
L 331.317367 67.968 
L 320.122382 67.968 
L 308.927398 69.504 
L 297.732414 69.504 
L 286.537429 72.576 
L 275.342445 71.04 
L 264.147461 69.504 
L 252.952476 72.576 
L 241.757492 69.504 
L 230.562508 75.648 
L 219.367524 75.648 
L 208.172539 74.112 
L 196.977555 72.576 
L 185.782571 75.648 
L 174.587586 75.648 
L 163.392602 78.72 
L 152.197618 77.184 
L 141.002633 77.184 
L 129.807649 75.648 
L 118.612665 77.184 
L 107.41768 77.184 
L 96.222696 77.184 
L 85.027712 77.184 
L 73.832727 77.184 
z
" clip-path="url(#p727777bad2)" style="fill: #d62728"/>
   </g>
   <g id="PolyCollection_35">
    <path d="M 73.832727 77.184 
L 73.832727 77.184 
L 85.027712 77.184 
L 96.222696 77.184 
L 107.41768 77.184 
L 118.612665 77.184 
L 129.807649 75.648 
L 141.002633 77.184 
L 152.197618 77.184 
L 163.392602 78.72 
L 174.587586 75.648 
L 185.782571 75.648 
L 196.977555 72.576 
L 208.172539 74.112 
L 219.367524 75.648 
L 230.562508 75.648 
L 241.757492 69.504 
L 252.952476 72.576 
L 264.147461 69.504 
L 275.342445 71.04 
L 286.537429 72.576 
L 297.732414 69.504 
L 308.927398 69.504 
L 320.122382 67.968 
L 331.317367 67.968 
L 342.512351 58.752 
L 353.707335 64.896 
L 364.90232 69.504 
L 376.097304 95.616 
L 387.292288 114.048 
L 398.487273 103.296 
L 398.487273 98.688 
L 398.487273 98.688 
L 387.292288 109.44 
L 376.097304 91.008 
L 364.90232 64.896 
L 353.707335 63.36 
L 342.512351 58.752 
L 331.317367 67.968 
L 320.122382 67.968 
L 308.927398 69.504 
L 297.732414 69.504 
L 286.537429 72.576 
L 275.342445 71.04 
L 264.147461 69.504 
L 252.952476 72.576 
L 241.757492 69.504 
L 230.562508 75.648 
L 219.367524 75.648 
L 208.172539 74.112 
L 196.977555 72.576 
L 185.782571 75.648 
L 174.587586 75.648 
L 163.392602 78.72 
L 152.197618 77.184 
L 141.002633 77.184 
L 129.807649 75.648 
L 118.612665 77.184 
L 107.41768 77.184 
L 96.222696 77.184 
L 85.027712 77.184 
L 73.832727 77.184 
z
" clip-path="url(#p727777bad2)" style="fill: #9467bd"/>
   </g>
   <g id="PolyCollection_36">
    <path d="M 73.832727 77.184 
L 73.832727 77.184 
L 85.027712 77.184 
L 96.222696 77.184 
L 107.41768 77.184 
L 118.612665 77.184 
L 129.807649 75.648 
L 141.002633 77.184 
L 152.197618 77.184 
L 163.392602 78.72 
L 174.587586 75.648 
L 185.782571 75.648 
L 196.977555 72.576 
L 208.172539 74.112 
L 219.367524 75.648 
L 230.562508 75.648 
L 241.757492 69.504 
L 252.952476 72.576 
L 264.147461 69.504 
L 275.342445 71.04 
L 286.537429 72.576 
L 297.732414 69.504 
L 308.927398 69.504 
L 320.122382 67.968 
L 331.317367 67.968 
L 342.512351 58.752 
L 353.707335 63.36 
L 364.90232 64.896 
L 376.097304 91.008 
L 387.292288 109.44 
L 398.487273 98.688 
L 398.487273 91.008 
L 398.487273 91.008 
L 387.292288 101.76 
L 376.097304 74.112 
L 364.90232 57.216 
L 353.707335 63.36 
L 342.512351 58.752 
L 331.317367 67.968 
L 320.122382 67.968 
L 308.927398 69.504 
L 297.732414 69.504 
L 286.537429 72.576 
L 275.342445 71.04 
L 264.147461 69.504 
L 252.952476 72.576 
L 241.757492 69.504 
L 230.562508 75.648 
L 219.367524 75.648 
L 208.172539 74.112 
L 196.977555 72.576 
L 185.782571 75.648 
L 174.587586 75.648 
L 163.392602 78.72 
L 152.197618 77.184 
L 141.002633 77.184 
L 129.807649 75.648 
L 118.612665 77.184 
L 107.41768 77.184 
L 96.222696 77.184 
L 85.027712 77.184 
L 73.832727 77.184 
z
" clip-path="url(#p727777bad2)" style="fill: #8c564b"/>
   </g>
   <g id="PolyCollection_37">
    <path d="M 73.832727 77.184 
L 73.832727 77.184 
L 85.027712 77.184 
L 96.222696 77.184 
L 107.41768 77.184 
L 118.612665 77.184 
L 129.807649 75.648 
L 141.002633 77.184 
L 152.197618 77.184 
L 163.392602 78.72 
L 174.587586 75.648 
L 185.782571 75.648 
L 196.977555 72.576 
L 208.172539 74.112 
L 219.367524 75.648 
L 230.562508 75.648 
L 241.757492 69.504 
L 252.952476 72.576 
L 264.147461 69.504 
L 275.342445 71.04 
L 286.537429 72.576 
L 297.732414 69.504 
L 308.927398 69.504 
L 320.122382 67.968 
L 331.317367 67.968 
L 342.512351 58.752 
L 353.707335 63.36 
L 364.90232 57.216 
L 376.097304 74.112 
L 387.292288 101.76 
L 398.487273 91.008 
L 398.487273 77.184 
L 398.487273 77.184 
L 387.292288 87.936 
L 376.097304 69.504 
L 364.90232 57.216 
L 353.707335 63.36 
L 342.512351 58.752 
L 331.317367 67.968 
L 320.122382 67.968 
L 308.927398 69.504 
L 297.732414 69.504 
L 286.537429 72.576 
L 275.342445 71.04 
L 264.147461 69.504 
L 252.952476 72.576 
L 241.757492 69.504 
L 230.562508 75.648 
L 219.367524 75.648 
L 208.172539 74.112 
L 196.977555 72.576 
L 185.782571 75.648 
L 174.587586 75.648 
L 163.392602 78.72 
L 152.197618 77.184 
L 141.002633 77.184 
L 129.807649 75.648 
L 118.612665 77.184 
L 107.41768 77.184 
L 96.222696 77.184 
L 85.027712 77.184 
L 73.832727 77.184 
z
" clip-path="url(#p727777bad2)" style="fill: #e377c2"/>
   </g>
   <g id="PolyCollection_38">
    <path d="M 73.832727 77.184 
L 73.832727 77.184 
L 85.027712 77.184 
L 96.222696 77.184 
L 107.41768 77.184 
L 118.612665 77.184 
L 129.807649 75.648 
L 141.002633 77.184 
L 152.197618 77.184 
L 163.392602 78.72 
L 174.587586 75.648 
L 185.782571 75.648 
L 196.977555 72.576 
L 208.172539 74.112 
L 219.367524 75.648 
L 230.562508 75.648 
L 241.757492 69.504 
L 252.952476 72.576 
L 264.147461 69.504 
L 275.342445 71.04 
L 286.537429 72.576 
L 297.732414 69.504 
L 308.927398 69.504 
L 320.122382 67.968 
L 331.317367 67.968 
L 342.512351 58.752 
L 353.707335 63.36 
L 364.90232 57.216 
L 376.097304 69.504 
L 387.292288 87.936 
L 398.487273 77.184 
L 398.487273 69.504 
L 398.487273 69.504 
L 387.292288 72.576 
L 376.097304 63.36 
L 364.90232 57.216 
L 353.707335 63.36 
L 342.512351 58.752 
L 331.317367 67.968 
L 320.122382 67.968 
L 308.927398 69.504 
L 297.732414 69.504 
L 286.537429 72.576 
L 275.342445 71.04 
L 264.147461 69.504 
L 252.952476 72.576 
L 241.757492 69.504 
L 230.562508 75.648 
L 219.367524 75.648 
L 208.172539 74.112 
L 196.977555 72.576 
L 185.782571 75.648 
L 174.587586 75.648 
L 163.392602 78.72 
L 152.197618 77.184 
L 141.002633 77.184 
L 129.807649 75.648 
L 118.612665 77.184 
L 107.41768 77.184 
L 96.222696 77.184 
L 85.027712 77.184 
L 73.832727 77.184 
z
" clip-path="url(#p727777bad2)" style="fill: #7f7f7f"/>
   </g>
   <g id="PolyCollection_39">
    <path d="M 73.832727 77.184 
L 73.832727 77.184 
L 85.027712 77.184 
L 96.222696 77.184 
L 107.41768 77.184 
L 118.612665 77.184 
L 129.807649 75.648 
L 141.002633 77.184 
L 152.197618 77.184 
L 163.392602 78.72 
L 174.587586 75.648 
L 185.782571 75.648 
L 196.977555 72.576 
L 208.172539 74.112 
L 219.367524 75.648 
L 230.562508 75.648 
L 241.757492 69.504 
L 252.952476 72.576 
L 264.147461 69.504 
L 275.342445 71.04 
L 286.537429 72.576 
L 297.732414 69.504 
L 308.927398 69.504 
L 320.122382 67.968 
L 331.317367 67.968 
L 342.512351 58.752 
L 353.707335 63.36 
L 364.90232 57.216 
L 376.097304 63.36 
L 387.292288 72.576 
L 398.487273 69.504 
L 398.487273 61.824 
L 398.487273 61.824 
L 387.292288 58.752 
L 376.097304 58.752 
L 364.90232 57.216 
L 353.707335 63.36 
L 342.512351 58.752 
L 331.317367 67.968 
L 320.122382 67.968 
L 308.927398 69.504 
L 297.732414 69.504 
L 286.537429 72.576 
L 275.342445 71.04 
L 264.147461 69.504 
L 252.952476 72.576 
L 241.757492 69.504 
L 230.562508 75.648 
L 219.367524 75.648 
L 208.172539 74.112 
L 196.977555 72.576 
L 185.782571 75.648 
L 174.587586 75.648 
L 163.392602 78.72 
L 152.197618 77.184 
L 141.002633 77.184 
L 129.807649 75.648 
L 118.612665 77.184 
L 107.41768 77.184 
L 96.222696 77.184 
L 85.027712 77.184 
L 73.832727 77.184 
z
" clip-path="url(#p727777bad2)" style="fill: #bcbd22"/>
   </g>
   <g id="PolyCollection_40">
    <path d="M 73.832727 77.184 
L 73.832727 77.184 
L 85.027712 77.184 
L 96.222696 77.184 
L 107.41768 77.184 
L 118.612665 77.184 
L 129.807649 75.648 
L 141.002633 77.184 
L 152.197618 77.184 
L 163.392602 78.72 
L 174.587586 75.648 
L 185.782571 75.648 
L 196.977555 72.576 
L 208.172539 74.112 
L 219.367524 75.648 
L 230.562508 75.648 
L 241.757492 69.504 
L 252.952476 72.576 
L 264.147461 69.504 
L 275.342445 71.04 
L 286.537429 72.576 
L 297.732414 69.504 
L 308.927398 69.504 
L 320.122382 67.968 
L 331.317367 67.968 
L 342.512351 58.752 
L 353.707335 63.36 
L 364.90232 57.216 
L 376.097304 58.752 
L 387.292288 58.752 
L 398.487273 61.824 
L 398.487273 58.752 
L 398.487273 58.752 
L 387.292288 58.752 
L 376.097304 58.752 
L 364.90232 57.216 
L 353.707335 63.36 
L 342.512351 58.752 
L 331.317367 67.968 
L 320.122382 67.968 
L 308.927398 69.504 
L 297.732414 69.504 
L 286.537429 72.576 
L 275.342445 71.04 
L 264.147461 69.504 
L 252.952476 72.576 
L 241.757492 69.504 
L 230.562508 75.648 
L 219.367524 75.648 
L 208.172539 74.112 
L 196.977555 72.576 
L 185.782571 75.648 
L 174.587586 75.648 
L 163.392602 78.72 
L 152.197618 77.184 
L 141.002633 77.184 
L 129.807649 75.648 
L 118.612665 77.184 
L 107.41768 77.184 
L 96.222696 77.184 
L 85.027712 77.184 
L 73.832727 77.184 
z
" clip-path="url(#p727777bad2)" style="fill: #17becf"/>
   </g>
   <g id="PolyCollection_41">
    <path d="M 73.832727 77.184 
L 73.832727 77.184 
L 85.027712 77.184 
L 96.222696 77.184 
L 107.41768 77.184 
L 118.612665 77.184 
L 129.807649 75.648 
L 141.002633 77.184 
L 152.197618 77.184 
L 163.392602 78.72 
L 174.587586 75.648 
L 185.782571 75.648 
L 196.977555 72.576 
L 208.172539 74.112 
L 219.367524 75.648 
L 230.562508 75.648 
L 241.757492 69.504 
L 252.952476 72.576 
L 264.147461 69.504 
L 275.342445 71.04 
L 286.537429 72.576 
L 297.732414 69.504 
L 308.927398 69.504 
L 320.122382 67.968 
L 331.317367 67.968 
L 342.512351 58.752 
L 353.707335 63.36 
L 364.90232 57.216 
L 376.097304 58.752 
L 387.292288 58.752 
L 398.487273 58.752 
L 398.487273 54.144 
L 398.487273 54.144 
L 387.292288 58.752 
L 376.097304 58.752 
L 364.90232 57.216 
L 353.707335 63.36 
L 342.512351 58.752 
L 331.317367 67.968 
L 320.122382 67.968 
L 308.927398 69.504 
L 297.732414 69.504 
L 286.537429 72.576 
L 275.342445 71.04 
L 264.147461 69.504 
L 252.952476 72.576 
L 241.757492 69.504 
L 230.562508 75.648 
L 219.367524 75.648 
L 208.172539 74.112 
L 196.977555 72.576 
L 185.782571 75.648 
L 174.587586 75.648 
L 163.392602 78.72 
L 152.197618 77.184 
L 141.002633 77.184 
L 129.807649 75.648 
L 118.612665 77.184 
L 107.41768 77.184 
L 96.222696 77.184 
L 85.027712 77.184 
L 73.832727 77.184 
z
" clip-path="url(#p727777bad2)" style="fill: #1f77b4"/>
   </g>
   <g id="matplotlib.axis_1">
    <g id="xtick_1">
     <g id="line2d_1">
      <defs>
       <path id="m7392e46ddb" d="M 0 0 
L 0 3.5 
" style="stroke: #000000; stroke-width: 0.8"/>
      </defs>
      <g>
       <use xlink:href="#m7392e46ddb" x="73.832727" y="307.584" style="stroke: #000000; stroke-width: 0.8"/>
      </g>
     </g>
     <g id="text_1">
      <!-- 0 -->
      <g transform="translate(70.651477 322.182437) scale(0.1 -0.1)">
       <defs>
        <path id="DejaVuSans-30" d="M 2034 4250 
Q 1547 4250 1301 3770 
Q 1056 3291 1056 2328 
Q 1056 1369 1301 889 
Q 1547 409 2034 409 
Q 2525 409 2770 889 
Q 3016 1369 3016 2328 
Q 3016 3291 2770 3770 
Q 2525 4250 2034 4250 
z
M 2034 4750 
Q 2819 4750 3233 4129 
Q 3647 3509 3647 2328 
Q 3647 1150 3233 529 
Q 2819 -91 2034 -91 
Q 1250 -91 836 529 
Q 422 1150 422 2328 
Q 422 3509 836 4129 
Q 1250 4750 2034 4750 
z
" transform="scale(0.015625)"/>
       </defs>
       <use xlink:href="#DejaVuSans-30"/>
      </g>
     </g>
    </g>
    <g id="xtick_2">
     <g id="line2d_2">
      <g>
       <use xlink:href="#m7392e46ddb" x="129.807649" y="307.584" style="stroke: #000000; stroke-width: 0.8"/>
      </g>
     </g>
     <g id="text_2">
      <!-- 5 -->
      <g transform="translate(126.626399 322.182437) scale(0.1 -0.1)">
       <defs>
        <path id="DejaVuSans-35" d="M 691 4666 
L 3169 4666 
L 3169 4134 
L 1269 4134 
L 1269 2991 
Q 1406 3038 1543 3061 
Q 1681 3084 1819 3084 
Q 2600 3084 3056 2656 
Q 3513 2228 3513 1497 
Q 3513 744 3044 326 
Q 2575 -91 1722 -91 
Q 1428 -91 1123 -41 
Q 819 9 494 109 
L 494 744 
Q 775 591 1075 516 
Q 1375 441 1709 441 
Q 2250 441 2565 725 
Q 2881 1009 2881 1497 
Q 2881 1984 2565 2268 
Q 2250 2553 1709 2553 
Q 1456 2553 1204 2497 
Q 953 2441 691 2322 
L 691 4666 
z
" transform="scale(0.015625)"/>
       </defs>
       <use xlink:href="#DejaVuSans-35"/>
      </g>
     </g>
    </g>
    <g id="xtick_3">
     <g id="line2d_3">
      <g>
       <use xlink:href="#m7392e46ddb" x="185.782571" y="307.584" style="stroke: #000000; stroke-width: 0.8"/>
      </g>
     </g>
     <g id="text_3">
      <!-- 10 -->
      <g transform="translate(179.420071 322.182437) scale(0.1 -0.1)">
       <defs>
        <path id="DejaVuSans-31" d="M 794 531 
L 1825 531 
L 1825 4091 
L 703 3866 
L 703 4441 
L 1819 4666 
L 2450 4666 
L 2450 531 
L 3481 531 
L 3481 0 
L 794 0 
L 794 531 
z
" transform="scale(0.015625)"/>
       </defs>
       <use xlink:href="#DejaVuSans-31"/>
       <use xlink:href="#DejaVuSans-30" x="63.623047"/>
      </g>
     </g>
    </g>
    <g id="xtick_4">
     <g id="line2d_4">
      <g>
       <use xlink:href="#m7392e46ddb" x="241.757492" y="307.584" style="stroke: #000000; stroke-width: 0.8"/>
      </g>
     </g>
     <g id="text_4">
      <!-- 15 -->
      <g transform="translate(235.394992 322.182437) scale(0.1 -0.1)">
       <use xlink:href="#DejaVuSans-31"/>
       <use xlink:href="#DejaVuSans-35" x="63.623047"/>
      </g>
     </g>
    </g>
    <g id="xtick_5">
     <g id="line2d_5">
      <g>
       <use xlink:href="#m7392e46ddb" x="297.732414" y="307.584" style="stroke: #000000; stroke-width: 0.8"/>
      </g>
     </g>
     <g id="text_5">
      <!-- 20 -->
      <g transform="translate(291.369914 322.182437) scale(0.1 -0.1)">
       <defs>
        <path id="DejaVuSans-32" d="M 1228 531 
L 3431 531 
L 3431 0 
L 469 0 
L 469 531 
Q 828 903 1448 1529 
Q 2069 2156 2228 2338 
Q 2531 2678 2651 2914 
Q 2772 3150 2772 3378 
Q 2772 3750 2511 3984 
Q 2250 4219 1831 4219 
Q 1534 4219 1204 4116 
Q 875 4013 500 3803 
L 500 4441 
Q 881 4594 1212 4672 
Q 1544 4750 1819 4750 
Q 2544 4750 2975 4387 
Q 3406 4025 3406 3419 
Q 3406 3131 3298 2873 
Q 3191 2616 2906 2266 
Q 2828 2175 2409 1742 
Q 1991 1309 1228 531 
z
" transform="scale(0.015625)"/>
       </defs>
       <use xlink:href="#DejaVuSans-32"/>
       <use xlink:href="#DejaVuSans-30" x="63.623047"/>
      </g>
     </g>
    </g>
    <g id="xtick_6">
     <g id="line2d_6">
      <g>
       <use xlink:href="#m7392e46ddb" x="353.707335" y="307.584" style="stroke: #000000; stroke-width: 0.8"/>
      </g>
     </g>
     <g id="text_6">
      <!-- 25 -->
      <g transform="translate(347.344835 322.182437) scale(0.1 -0.1)">
       <use xlink:href="#DejaVuSans-32"/>
       <use xlink:href="#DejaVuSans-35" x="63.623047"/>
      </g>
     </g>
    </g>
    <g id="xtick_7">
     <g id="line2d_7">
      <g>
       <use xlink:href="#m7392e46ddb" x="409.682257" y="307.584" style="stroke: #000000; stroke-width: 0.8"/>
      </g>
     </g>
     <g id="text_7">
      <!-- 30 -->
      <g transform="translate(403.319757 322.182437) scale(0.1 -0.1)">
       <defs>
        <path id="DejaVuSans-33" d="M 2597 2516 
Q 3050 2419 3304 2112 
Q 3559 1806 3559 1356 
Q 3559 666 3084 287 
Q 2609 -91 1734 -91 
Q 1441 -91 1130 -33 
Q 819 25 488 141 
L 488 750 
Q 750 597 1062 519 
Q 1375 441 1716 441 
Q 2309 441 2620 675 
Q 2931 909 2931 1356 
Q 2931 1769 2642 2001 
Q 2353 2234 1838 2234 
L 1294 2234 
L 1294 2753 
L 1863 2753 
Q 2328 2753 2575 2939 
Q 2822 3125 2822 3475 
Q 2822 3834 2567 4026 
Q 2313 4219 1838 4219 
Q 1578 4219 1281 4162 
Q 984 4106 628 3988 
L 628 4550 
Q 988 4650 1302 4700 
Q 1616 4750 1894 4750 
Q 2613 4750 3031 4423 
Q 3450 4097 3450 3541 
Q 3450 3153 3228 2886 
Q 3006 2619 2597 2516 
z
" transform="scale(0.015625)"/>
       </defs>
       <use xlink:href="#DejaVuSans-33"/>
       <use xlink:href="#DejaVuSans-30" x="63.623047"/>
      </g>
     </g>
    </g>
    <g id="text_8">
     <!-- Generations -->
     <g transform="translate(205.662344 335.860562) scale(0.1 -0.1)">
      <defs>
       <path id="DejaVuSans-47" d="M 3809 666 
L 3809 1919 
L 2778 1919 
L 2778 2438 
L 4434 2438 
L 4434 434 
Q 4069 175 3628 42 
Q 3188 -91 2688 -91 
Q 1594 -91 976 548 
Q 359 1188 359 2328 
Q 359 3472 976 4111 
Q 1594 4750 2688 4750 
Q 3144 4750 3555 4637 
Q 3966 4525 4313 4306 
L 4313 3634 
Q 3963 3931 3569 4081 
Q 3175 4231 2741 4231 
Q 1884 4231 1454 3753 
Q 1025 3275 1025 2328 
Q 1025 1384 1454 906 
Q 1884 428 2741 428 
Q 3075 428 3337 486 
Q 3600 544 3809 666 
z
" transform="scale(0.015625)"/>
       <path id="DejaVuSans-65" d="M 3597 1894 
L 3597 1613 
L 953 1613 
Q 991 1019 1311 708 
Q 1631 397 2203 397 
Q 2534 397 2845 478 
Q 3156 559 3463 722 
L 3463 178 
Q 3153 47 2828 -22 
Q 2503 -91 2169 -91 
Q 1331 -91 842 396 
Q 353 884 353 1716 
Q 353 2575 817 3079 
Q 1281 3584 2069 3584 
Q 2775 3584 3186 3129 
Q 3597 2675 3597 1894 
z
M 3022 2063 
Q 3016 2534 2758 2815 
Q 2500 3097 2075 3097 
Q 1594 3097 1305 2825 
Q 1016 2553 972 2059 
L 3022 2063 
z
" transform="scale(0.015625)"/>
       <path id="DejaVuSans-6e" d="M 3513 2113 
L 3513 0 
L 2938 0 
L 2938 2094 
Q 2938 2591 2744 2837 
Q 2550 3084 2163 3084 
Q 1697 3084 1428 2787 
Q 1159 2491 1159 1978 
L 1159 0 
L 581 0 
L 581 3500 
L 1159 3500 
L 1159 2956 
Q 1366 3272 1645 3428 
Q 1925 3584 2291 3584 
Q 2894 3584 3203 3211 
Q 3513 2838 3513 2113 
z
" transform="scale(0.015625)"/>
       <path id="DejaVuSans-72" d="M 2631 2963 
Q 2534 3019 2420 3045 
Q 2306 3072 2169 3072 
Q 1681 3072 1420 2755 
Q 1159 2438 1159 1844 
L 1159 0 
L 581 0 
L 581 3500 
L 1159 3500 
L 1159 2956 
Q 1341 3275 1631 3429 
Q 1922 3584 2338 3584 
Q 2397 3584 2469 3576 
Q 2541 3569 2628 3553 
L 2631 2963 
z
" transform="scale(0.015625)"/>
       <path id="DejaVuSans-61" d="M 2194 1759 
Q 1497 1759 1228 1600 
Q 959 1441 959 1056 
Q 959 750 1161 570 
Q 1363 391 1709 391 
Q 2188 391 2477 730 
Q 2766 1069 2766 1631 
L 2766 1759 
L 2194 1759 
z
M 3341 1997 
L 3341 0 
L 2766 0 
L 2766 531 
Q 2569 213 2275 61 
Q 1981 -91 1556 -91 
Q 1019 -91 701 211 
Q 384 513 384 1019 
Q 384 1609 779 1909 
Q 1175 2209 1959 2209 
L 2766 2209 
L 2766 2266 
Q 2766 2663 2505 2880 
Q 2244 3097 1772 3097 
Q 1472 3097 1187 3025 
Q 903 2953 641 2809 
L 641 3341 
Q 956 3463 1253 3523 
Q 1550 3584 1831 3584 
Q 2591 3584 2966 3190 
Q 3341 2797 3341 1997 
z
" transform="scale(0.015625)"/>
       <path id="DejaVuSans-74" d="M 1172 4494 
L 1172 3500 
L 2356 3500 
L 2356 3053 
L 1172 3053 
L 1172 1153 
Q 1172 725 1289 603 
Q 1406 481 1766 481 
L 2356 481 
L 2356 0 
L 1766 0 
Q 1100 0 847 248 
Q 594 497 594 1153 
L 594 3053 
L 172 3053 
L 172 3500 
L 594 3500 
L 594 4494 
L 1172 4494 
z
" transform="scale(0.015625)"/>
       <path id="DejaVuSans-69" d="M 603 3500 
L 1178 3500 
L 1178 0 
L 603 0 
L 603 3500 
z
M 603 4863 
L 1178 4863 
L 1178 4134 
L 603 4134 
L 603 4863 
z
" transform="scale(0.015625)"/>
       <path id="DejaVuSans-6f" d="M 1959 3097 
Q 1497 3097 1228 2736 
Q 959 2375 959 1747 
Q 959 1119 1226 758 
Q 1494 397 1959 397 
Q 2419 397 2687 759 
Q 2956 1122 2956 1747 
Q 2956 2369 2687 2733 
Q 2419 3097 1959 3097 
z
M 1959 3584 
Q 2709 3584 3137 3096 
Q 3566 2609 3566 1747 
Q 3566 888 3137 398 
Q 2709 -91 1959 -91 
Q 1206 -91 779 398 
Q 353 888 353 1747 
Q 353 2609 779 3096 
Q 1206 3584 1959 3584 
z
" transform="scale(0.015625)"/>
       <path id="DejaVuSans-73" d="M 2834 3397 
L 2834 2853 
Q 2591 2978 2328 3040 
Q 2066 3103 1784 3103 
Q 1356 3103 1142 2972 
Q 928 2841 928 2578 
Q 928 2378 1081 2264 
Q 1234 2150 1697 2047 
L 1894 2003 
Q 2506 1872 2764 1633 
Q 3022 1394 3022 966 
Q 3022 478 2636 193 
Q 2250 -91 1575 -91 
Q 1294 -91 989 -36 
Q 684 19 347 128 
L 347 722 
Q 666 556 975 473 
Q 1284 391 1588 391 
Q 1994 391 2212 530 
Q 2431 669 2431 922 
Q 2431 1156 2273 1281 
Q 2116 1406 1581 1522 
L 1381 1569 
Q 847 1681 609 1914 
Q 372 2147 372 2553 
Q 372 3047 722 3315 
Q 1072 3584 1716 3584 
Q 2034 3584 2315 3537 
Q 2597 3491 2834 3397 
z
" transform="scale(0.015625)"/>
      </defs>
      <use xlink:href="#DejaVuSans-47"/>
      <use xlink:href="#DejaVuSans-65" x="77.490234"/>
      <use xlink:href="#DejaVuSans-6e" x="139.013672"/>
      <use xlink:href="#DejaVuSans-65" x="202.392578"/>
      <use xlink:href="#DejaVuSans-72" x="263.916016"/>
      <use xlink:href="#DejaVuSans-61" x="305.029297"/>
      <use xlink:href="#DejaVuSans-74" x="366.308594"/>
      <use xlink:href="#DejaVuSans-69" x="405.517578"/>
      <use xlink:href="#DejaVuSans-6f" x="433.300781"/>
      <use xlink:href="#DejaVuSans-6e" x="494.482422"/>
      <use xlink:href="#DejaVuSans-73" x="557.861328"/>
     </g>
    </g>
   </g>
   <g id="matplotlib.axis_2">
    <g id="ytick_1">
     <g id="line2d_8">
      <defs>
       <path id="m95f0374825" d="M 0 0 
L -3.5 0 
" style="stroke: #000000; stroke-width: 0.8"/>
      </defs>
      <g>
       <use xlink:href="#m95f0374825" x="57.6" y="307.584" style="stroke: #000000; stroke-width: 0.8"/>
      </g>
     </g>
     <g id="text_9">
      <!-- 0 -->
      <g transform="translate(44.2375 311.383219) scale(0.1 -0.1)">
       <use xlink:href="#DejaVuSans-30"/>
      </g>
     </g>
    </g>
    <g id="ytick_2">
     <g id="line2d_9">
      <g>
       <use xlink:href="#m95f0374825" x="57.6" y="276.864" style="stroke: #000000; stroke-width: 0.8"/>
      </g>
     </g>
     <g id="text_10">
      <!-- 20 -->
      <g transform="translate(37.875 280.663219) scale(0.1 -0.1)">
       <use xlink:href="#DejaVuSans-32"/>
       <use xlink:href="#DejaVuSans-30" x="63.623047"/>
      </g>
     </g>
    </g>
    <g id="ytick_3">
     <g id="line2d_10">
      <g>
       <use xlink:href="#m95f0374825" x="57.6" y="246.144" style="stroke: #000000; stroke-width: 0.8"/>
      </g>
     </g>
     <g id="text_11">
      <!-- 40 -->
      <g transform="translate(37.875 249.943219) scale(0.1 -0.1)">
       <defs>
        <path id="DejaVuSans-34" d="M 2419 4116 
L 825 1625 
L 2419 1625 
L 2419 4116 
z
M 2253 4666 
L 3047 4666 
L 3047 1625 
L 3713 1625 
L 3713 1100 
L 3047 1100 
L 3047 0 
L 2419 0 
L 2419 1100 
L 313 1100 
L 313 1709 
L 2253 4666 
z
" transform="scale(0.015625)"/>
       </defs>
       <use xlink:href="#DejaVuSans-34"/>
       <use xlink:href="#DejaVuSans-30" x="63.623047"/>
      </g>
     </g>
    </g>
    <g id="ytick_4">
     <g id="line2d_11">
      <g>
       <use xlink:href="#m95f0374825" x="57.6" y="215.424" style="stroke: #000000; stroke-width: 0.8"/>
      </g>
     </g>
     <g id="text_12">
      <!-- 60 -->
      <g transform="translate(37.875 219.223219) scale(0.1 -0.1)">
       <defs>
        <path id="DejaVuSans-36" d="M 2113 2584 
Q 1688 2584 1439 2293 
Q 1191 2003 1191 1497 
Q 1191 994 1439 701 
Q 1688 409 2113 409 
Q 2538 409 2786 701 
Q 3034 994 3034 1497 
Q 3034 2003 2786 2293 
Q 2538 2584 2113 2584 
z
M 3366 4563 
L 3366 3988 
Q 3128 4100 2886 4159 
Q 2644 4219 2406 4219 
Q 1781 4219 1451 3797 
Q 1122 3375 1075 2522 
Q 1259 2794 1537 2939 
Q 1816 3084 2150 3084 
Q 2853 3084 3261 2657 
Q 3669 2231 3669 1497 
Q 3669 778 3244 343 
Q 2819 -91 2113 -91 
Q 1303 -91 875 529 
Q 447 1150 447 2328 
Q 447 3434 972 4092 
Q 1497 4750 2381 4750 
Q 2619 4750 2861 4703 
Q 3103 4656 3366 4563 
z
" transform="scale(0.015625)"/>
       </defs>
       <use xlink:href="#DejaVuSans-36"/>
       <use xlink:href="#DejaVuSans-30" x="63.623047"/>
      </g>
     </g>
    </g>
    <g id="ytick_5">
     <g id="line2d_12">
      <g>
       <use xlink:href="#m95f0374825" x="57.6" y="184.704" style="stroke: #000000; stroke-width: 0.8"/>
      </g>
     </g>
     <g id="text_13">
      <!-- 80 -->
      <g transform="translate(37.875 188.503219) scale(0.1 -0.1)">
       <defs>
        <path id="DejaVuSans-38" d="M 2034 2216 
Q 1584 2216 1326 1975 
Q 1069 1734 1069 1313 
Q 1069 891 1326 650 
Q 1584 409 2034 409 
Q 2484 409 2743 651 
Q 3003 894 3003 1313 
Q 3003 1734 2745 1975 
Q 2488 2216 2034 2216 
z
M 1403 2484 
Q 997 2584 770 2862 
Q 544 3141 544 3541 
Q 544 4100 942 4425 
Q 1341 4750 2034 4750 
Q 2731 4750 3128 4425 
Q 3525 4100 3525 3541 
Q 3525 3141 3298 2862 
Q 3072 2584 2669 2484 
Q 3125 2378 3379 2068 
Q 3634 1759 3634 1313 
Q 3634 634 3220 271 
Q 2806 -91 2034 -91 
Q 1263 -91 848 271 
Q 434 634 434 1313 
Q 434 1759 690 2068 
Q 947 2378 1403 2484 
z
M 1172 3481 
Q 1172 3119 1398 2916 
Q 1625 2713 2034 2713 
Q 2441 2713 2670 2916 
Q 2900 3119 2900 3481 
Q 2900 3844 2670 4047 
Q 2441 4250 2034 4250 
Q 1625 4250 1398 4047 
Q 1172 3844 1172 3481 
z
" transform="scale(0.015625)"/>
       </defs>
       <use xlink:href="#DejaVuSans-38"/>
       <use xlink:href="#DejaVuSans-30" x="63.623047"/>
      </g>
     </g>
    </g>
    <g id="ytick_6">
     <g id="line2d_13">
      <g>
       <use xlink:href="#m95f0374825" x="57.6" y="153.984" style="stroke: #000000; stroke-width: 0.8"/>
      </g>
     </g>
     <g id="text_14">
      <!-- 100 -->
      <g transform="translate(31.5125 157.783219) scale(0.1 -0.1)">
       <use xlink:href="#DejaVuSans-31"/>
       <use xlink:href="#DejaVuSans-30" x="63.623047"/>
       <use xlink:href="#DejaVuSans-30" x="127.246094"/>
      </g>
     </g>
    </g>
    <g id="ytick_7">
     <g id="line2d_14">
      <g>
       <use xlink:href="#m95f0374825" x="57.6" y="123.264" style="stroke: #000000; stroke-width: 0.8"/>
      </g>
     </g>
     <g id="text_15">
      <!-- 120 -->
      <g transform="translate(31.5125 127.063219) scale(0.1 -0.1)">
       <use xlink:href="#DejaVuSans-31"/>
       <use xlink:href="#DejaVuSans-32" x="63.623047"/>
       <use xlink:href="#DejaVuSans-30" x="127.246094"/>
      </g>
     </g>
    </g>
    <g id="ytick_8">
     <g id="line2d_15">
      <g>
       <use xlink:href="#m95f0374825" x="57.6" y="92.544" style="stroke: #000000; stroke-width: 0.8"/>
      </g>
     </g>
     <g id="text_16">
      <!-- 140 -->
      <g transform="translate(31.5125 96.343219) scale(0.1 -0.1)">
       <use xlink:href="#DejaVuSans-31"/>
       <use xlink:href="#DejaVuSans-34" x="63.623047"/>
       <use xlink:href="#DejaVuSans-30" x="127.246094"/>
      </g>
     </g>
    </g>
    <g id="ytick_9">
     <g id="line2d_16">
      <g>
       <use xlink:href="#m95f0374825" x="57.6" y="61.824" style="stroke: #000000; stroke-width: 0.8"/>
      </g>
     </g>
     <g id="text_17">
      <!-- 160 -->
      <g transform="translate(31.5125 65.623219) scale(0.1 -0.1)">
       <use xlink:href="#DejaVuSans-31"/>
       <use xlink:href="#DejaVuSans-36" x="63.623047"/>
       <use xlink:href="#DejaVuSans-30" x="127.246094"/>
      </g>
     </g>
    </g>
    <g id="text_18">
     <!-- Size per Species -->
     <g transform="translate(25.432812 215.520969) rotate(-90) scale(0.1 -0.1)">
      <defs>
       <path id="DejaVuSans-53" d="M 3425 4513 
L 3425 3897 
Q 3066 4069 2747 4153 
Q 2428 4238 2131 4238 
Q 1616 4238 1336 4038 
Q 1056 3838 1056 3469 
Q 1056 3159 1242 3001 
Q 1428 2844 1947 2747 
L 2328 2669 
Q 3034 2534 3370 2195 
Q 3706 1856 3706 1288 
Q 3706 609 3251 259 
Q 2797 -91 1919 -91 
Q 1588 -91 1214 -16 
Q 841 59 441 206 
L 441 856 
Q 825 641 1194 531 
Q 1563 422 1919 422 
Q 2459 422 2753 634 
Q 3047 847 3047 1241 
Q 3047 1584 2836 1778 
Q 2625 1972 2144 2069 
L 1759 2144 
Q 1053 2284 737 2584 
Q 422 2884 422 3419 
Q 422 4038 858 4394 
Q 1294 4750 2059 4750 
Q 2388 4750 2728 4690 
Q 3069 4631 3425 4513 
z
" transform="scale(0.015625)"/>
       <path id="DejaVuSans-7a" d="M 353 3500 
L 3084 3500 
L 3084 2975 
L 922 459 
L 3084 459 
L 3084 0 
L 275 0 
L 275 525 
L 2438 3041 
L 353 3041 
L 353 3500 
z
" transform="scale(0.015625)"/>
       <path id="DejaVuSans-20" transform="scale(0.015625)"/>
       <path id="DejaVuSans-70" d="M 1159 525 
L 1159 -1331 
L 581 -1331 
L 581 3500 
L 1159 3500 
L 1159 2969 
Q 1341 3281 1617 3432 
Q 1894 3584 2278 3584 
Q 2916 3584 3314 3078 
Q 3713 2572 3713 1747 
Q 3713 922 3314 415 
Q 2916 -91 2278 -91 
Q 1894 -91 1617 61 
Q 1341 213 1159 525 
z
M 3116 1747 
Q 3116 2381 2855 2742 
Q 2594 3103 2138 3103 
Q 1681 3103 1420 2742 
Q 1159 2381 1159 1747 
Q 1159 1113 1420 752 
Q 1681 391 2138 391 
Q 2594 391 2855 752 
Q 3116 1113 3116 1747 
z
" transform="scale(0.015625)"/>
       <path id="DejaVuSans-63" d="M 3122 3366 
L 3122 2828 
Q 2878 2963 2633 3030 
Q 2388 3097 2138 3097 
Q 1578 3097 1268 2742 
Q 959 2388 959 1747 
Q 959 1106 1268 751 
Q 1578 397 2138 397 
Q 2388 397 2633 464 
Q 2878 531 3122 666 
L 3122 134 
Q 2881 22 2623 -34 
Q 2366 -91 2075 -91 
Q 1284 -91 818 406 
Q 353 903 353 1747 
Q 353 2603 823 3093 
Q 1294 3584 2113 3584 
Q 2378 3584 2631 3529 
Q 2884 3475 3122 3366 
z
" transform="scale(0.015625)"/>
      </defs>
      <use xlink:href="#DejaVuSans-53"/>
      <use xlink:href="#DejaVuSans-69" x="63.476562"/>
      <use xlink:href="#DejaVuSans-7a" x="91.259766"/>
      <use xlink:href="#DejaVuSans-65" x="143.75"/>
      <use xlink:href="#DejaVuSans-20" x="205.273438"/>
      <use xlink:href="#DejaVuSans-70" x="237.060547"/>
      <use xlink:href="#DejaVuSans-65" x="300.537109"/>
      <use xlink:href="#DejaVuSans-72" x="362.060547"/>
      <use xlink:href="#DejaVuSans-20" x="403.173828"/>
      <use xlink:href="#DejaVuSans-53" x="434.960938"/>
      <use xlink:href="#DejaVuSans-70" x="498.4375"/>
      <use xlink:href="#DejaVuSans-65" x="561.914062"/>
      <use xlink:href="#DejaVuSans-63" x="623.4375"/>
      <use xlink:href="#DejaVuSans-69" x="678.417969"/>
      <use xlink:href="#DejaVuSans-65" x="706.201172"/>
      <use xlink:href="#DejaVuSans-73" x="767.724609"/>
     </g>
    </g>
   </g>
   <g id="patch_3">
    <path d="M 57.6 307.584 
L 57.6 41.472 
" style="fill: none; stroke: #000000; stroke-width: 0.8; stroke-linejoin: miter; stroke-linecap: square"/>
   </g>
   <g id="patch_4">
    <path d="M 414.72 307.584 
L 414.72 41.472 
" style="fill: none; stroke: #000000; stroke-width: 0.8; stroke-linejoin: miter; stroke-linecap: square"/>
   </g>
   <g id="patch_5">
    <path d="M 57.6 307.584 
L 414.72 307.584 
" style="fill: none; stroke: #000000; stroke-width: 0.8; stroke-linejoin: miter; stroke-linecap: square"/>
   </g>
   <g id="patch_6">
    <path d="M 57.6 41.472 
L 414.72 41.472 
" style="fill: none; stroke: #000000; stroke-width: 0.8; stroke-linejoin: miter; stroke-linecap: square"/>
   </g>
   <g id="text_19">
    <!-- Speciation -->
    <g transform="translate(204.714375 35.472) scale(0.12 -0.12)">
     <use xlink:href="#DejaVuSans-53"/>
     <use xlink:href="#DejaVuSans-70" x="63.476562"/>
     <use xlink:href="#DejaVuSans-65" x="126.953125"/>
     <use xlink:href="#DejaVuSans-63" x="188.476562"/>
     <use xlink:href="#DejaVuSans-69" x="243.457031"/>
     <use xlink:href="#DejaVuSans-61" x="271.240234"/>
     <use xlink:href="#DejaVuSans-74" x="332.519531"/>
     <use xlink:href="#DejaVuSans-69" x="371.728516"/>
     <use xlink:href="#DejaVuSans-6f" x="399.511719"/>
     <use xlink:href="#DejaVuSans-6e" x="460.693359"/>
    </g>
   </g>
  </g>
 </g>
 <defs>
  <clipPath id="p727777bad2">
   <rect x="57.6" y="41.472" width="357.12" height="266.112"/>
  </clipPath>
 </defs>
</svg>
