<?xml version="1.0" encoding="UTF-8" standalone="no"?>
<!DOCTYPE svg PUBLIC "-//W3C//DTD SVG 1.1//EN"
 "http://www.w3.org/Graphics/SVG/1.1/DTD/svg11.dtd">
<!-- Generated by graphviz version 2.43.0 (0)
 -->
<!-- Title: %3 Pages: 1 -->
<svg width="1083pt" height="143pt"
 viewBox="0.00 0.00 1083.25 142.99" xmlns="http://www.w3.org/2000/svg" xmlns:xlink="http://www.w3.org/1999/xlink">
<g id="graph0" class="graph" transform="scale(1 1) rotate(0) translate(4 138.99)">
<title>%3</title>
<polygon fill="white" stroke="transparent" points="-4,4 -4,-138.99 1079.25,-138.99 1079.25,4 -4,4"/>
<!-- &#45;1 -->
<g id="node1" class="node">
<title>&#45;1</title>
<polygon fill="lightgray" stroke="black" points="80.26,-115 54.26,-115 54.26,-97 80.26,-97 80.26,-115"/>
<text text-anchor="middle" x="67.26" y="-103.8" font-family="Times,serif" font-size="9.00">&#45;1</text>
</g>
<!-- 7 -->
<g id="node12" class="node">
<title>7</title>
<ellipse fill="lightblue" stroke="black" cx="16.26" cy="-20.51" rx="16.03" ry="16.03"/>
<text text-anchor="middle" x="16.26" y="-18.31" font-family="Times,serif" font-size="9.00">7</text>
</g>
<!-- &#45;1&#45;&gt;7 -->
<g id="edge5" class="edge">
<title>&#45;1&#45;&gt;7</title>
<path fill="none" stroke="red" stroke-width="0.32" d="M62.37,-97C54.9,-84.76 40.37,-60.98 29.61,-43.36"/>
<polygon fill="red" stroke="red" stroke-width="0.32" points="32.59,-41.52 24.39,-34.81 26.61,-45.16 32.59,-41.52"/>
</g>
<!-- 9 -->
<g id="node14" class="node">
<title>9</title>
<ellipse fill="lightblue" stroke="black" cx="67.26" cy="-20.51" rx="16.03" ry="16.03"/>
<text text-anchor="middle" x="67.26" y="-18.31" font-family="Times,serif" font-size="9.00">9</text>
</g>
<!-- &#45;1&#45;&gt;9 -->
<g id="edge4" class="edge">
<title>&#45;1&#45;&gt;9</title>
<path fill="none" stroke="red" stroke-width="0.25" d="M67.26,-97C67.26,-85.68 67.26,-64.48 67.26,-47.42"/>
<polygon fill="red" stroke="red" stroke-width="0.25" points="70.76,-46.96 67.26,-36.96 63.76,-46.96 70.76,-46.96"/>
</g>
<!-- 17 -->
<g id="node22" class="node">
<title>17</title>
<ellipse fill="lightblue" stroke="black" cx="122.26" cy="-20.51" rx="20.51" ry="20.51"/>
<text text-anchor="middle" x="122.26" y="-18.31" font-family="Times,serif" font-size="9.00">17</text>
</g>
<!-- &#45;1&#45;&gt;17 -->
<g id="edge2" class="edge">
<title>&#45;1&#45;&gt;17</title>
<path fill="none" stroke="green" stroke-width="1.24" d="M72.54,-97C80.09,-85.53 94.33,-63.91 105.65,-46.73"/>
<polygon fill="green" stroke="green" stroke-width="1.24" points="108.67,-48.51 111.24,-38.24 102.82,-44.66 108.67,-48.51"/>
</g>
<!-- &#45;2 -->
<g id="node2" class="node">
<title>&#45;2</title>
<polygon fill="lightgray" stroke="black" points="217.26,-115 191.26,-115 191.26,-97 217.26,-97 217.26,-115"/>
<text text-anchor="middle" x="204.26" y="-103.8" font-family="Times,serif" font-size="9.00">&#45;2</text>
</g>
<!-- 0 -->
<g id="node5" class="node">
<title>0</title>
<ellipse fill="lightblue" stroke="black" cx="177.26" cy="-20.51" rx="16.03" ry="16.03"/>
<text text-anchor="middle" x="177.26" y="-18.31" font-family="Times,serif" font-size="9.00">0</text>
</g>
<!-- &#45;2&#45;&gt;0 -->
<g id="edge6" class="edge">
<title>&#45;2&#45;&gt;0</title>
<path fill="none" stroke="red" stroke-width="0.35" d="M201.67,-97C197.94,-85.44 190.86,-63.57 185.29,-46.33"/>
<polygon fill="red" stroke="red" stroke-width="0.35" points="188.46,-44.77 182.06,-36.33 181.8,-46.92 188.46,-44.77"/>
</g>
<!-- 12 -->
<g id="node17" class="node">
<title>12</title>
<ellipse fill="lightblue" stroke="black" cx="232.26" cy="-20.51" rx="20.51" ry="20.51"/>
<text text-anchor="middle" x="232.26" y="-18.31" font-family="Times,serif" font-size="9.00">12</text>
</g>
<!-- &#45;2&#45;&gt;12 -->
<g id="edge3" class="edge">
<title>&#45;2&#45;&gt;12</title>
<path fill="none" stroke="green" stroke-width="0.12" stroke-dasharray="1,5" d="M206.95,-97C210.55,-86.25 217.15,-66.59 222.7,-50.02"/>
<polygon fill="green" stroke="green" stroke-width="0.12" points="226.13,-50.81 225.99,-40.22 219.49,-48.59 226.13,-50.81"/>
</g>
<!-- &#45;3 -->
<g id="node3" class="node">
<title>&#45;3</title>
<polygon fill="lightgray" stroke="black" points="304.26,-115 278.26,-115 278.26,-97 304.26,-97 304.26,-115"/>
<text text-anchor="middle" x="291.26" y="-103.8" font-family="Times,serif" font-size="9.00">&#45;3</text>
</g>
<!-- 11 -->
<g id="node16" class="node">
<title>11</title>
<ellipse fill="lightblue" stroke="black" cx="291.26" cy="-20.51" rx="20.51" ry="20.51"/>
<text text-anchor="middle" x="291.26" y="-18.31" font-family="Times,serif" font-size="9.00">11</text>
</g>
<!-- &#45;3&#45;&gt;11 -->
<g id="edge1" class="edge">
<title>&#45;3&#45;&gt;11</title>
<path fill="none" stroke="green" stroke-width="1.2" d="M291.26,-97C291.26,-86.55 291.26,-67.68 291.26,-51.43"/>
<polygon fill="green" stroke="green" stroke-width="1.2" points="294.76,-51.23 291.26,-41.23 287.76,-51.23 294.76,-51.23"/>
</g>
<!-- &#45;4 -->
<g id="node4" class="node">
<title>&#45;4</title>
<polygon fill="lightgray" stroke="black" points="348.26,-115 322.26,-115 322.26,-97 348.26,-97 348.26,-115"/>
<text text-anchor="middle" x="335.26" y="-103.8" font-family="Times,serif" font-size="9.00">&#45;4</text>
</g>
<!-- 1 -->
<g id="node6" class="node">
<title>1</title>
<ellipse fill="lightblue" stroke="black" cx="382.26" cy="-106" rx="16.03" ry="16.03"/>
<text text-anchor="middle" x="382.26" y="-103.8" font-family="Times,serif" font-size="9.00">1</text>
</g>
<!-- 2 -->
<g id="node7" class="node">
<title>2</title>
<ellipse fill="lightblue" stroke="black" cx="433.26" cy="-106" rx="16.03" ry="16.03"/>
<text text-anchor="middle" x="433.26" y="-103.8" font-family="Times,serif" font-size="9.00">2</text>
</g>
<!-- 3 -->
<g id="node8" class="node">
<title>3</title>
<ellipse fill="lightblue" stroke="black" cx="484.26" cy="-106" rx="16.03" ry="16.03"/>
<text text-anchor="middle" x="484.26" y="-103.8" font-family="Times,serif" font-size="9.00">3</text>
</g>
<!-- 4 -->
<g id="node9" class="node">
<title>4</title>
<ellipse fill="lightblue" stroke="black" cx="535.26" cy="-106" rx="16.03" ry="16.03"/>
<text text-anchor="middle" x="535.26" y="-103.8" font-family="Times,serif" font-size="9.00">4</text>
</g>
<!-- 5 -->
<g id="node10" class="node">
<title>5</title>
<ellipse fill="lightblue" stroke="black" cx="586.26" cy="-106" rx="16.03" ry="16.03"/>
<text text-anchor="middle" x="586.26" y="-103.8" font-family="Times,serif" font-size="9.00">5</text>
</g>
<!-- 6 -->
<g id="node11" class="node">
<title>6</title>
<ellipse fill="lightblue" stroke="black" cx="637.26" cy="-106" rx="16.03" ry="16.03"/>
<text text-anchor="middle" x="637.26" y="-103.8" font-family="Times,serif" font-size="9.00">6</text>
</g>
<!-- 8 -->
<g id="node13" class="node">
<title>8</title>
<ellipse fill="lightblue" stroke="black" cx="688.26" cy="-106" rx="16.03" ry="16.03"/>
<text text-anchor="middle" x="688.26" y="-103.8" font-family="Times,serif" font-size="9.00">8</text>
</g>
<!-- 10 -->
<g id="node15" class="node">
<title>10</title>
<ellipse fill="lightblue" stroke="black" cx="743.26" cy="-106" rx="20.51" ry="20.51"/>
<text text-anchor="middle" x="743.26" y="-103.8" font-family="Times,serif" font-size="9.00">10</text>
</g>
<!-- 13 -->
<g id="node18" class="node">
<title>13</title>
<ellipse fill="lightblue" stroke="black" cx="802.26" cy="-106" rx="20.51" ry="20.51"/>
<text text-anchor="middle" x="802.26" y="-103.8" font-family="Times,serif" font-size="9.00">13</text>
</g>
<!-- 14 -->
<g id="node19" class="node">
<title>14</title>
<ellipse fill="lightblue" stroke="black" cx="861.26" cy="-106" rx="20.51" ry="20.51"/>
<text text-anchor="middle" x="861.26" y="-103.8" font-family="Times,serif" font-size="9.00">14</text>
</g>
<!-- 15 -->
<g id="node20" class="node">
<title>15</title>
<ellipse fill="lightblue" stroke="black" cx="920.26" cy="-106" rx="20.51" ry="20.51"/>
<text text-anchor="middle" x="920.26" y="-103.8" font-family="Times,serif" font-size="9.00">15</text>
</g>
<!-- 16 -->
<g id="node21" class="node">
<title>16</title>
<ellipse fill="lightblue" stroke="black" cx="979.26" cy="-106" rx="20.51" ry="20.51"/>
<text text-anchor="middle" x="979.26" y="-103.8" font-family="Times,serif" font-size="9.00">16</text>
</g>
<!-- 7244 -->
<g id="node23" class="node">
<title>7244</title>
<ellipse fill="white" stroke="black" cx="1046.26" cy="-106" rx="28.98" ry="28.98"/>
<text text-anchor="middle" x="1046.26" y="-103.8" font-family="Times,serif" font-size="9.00">7244</text>
</g>
</g>
</svg>
