<?xml version="1.0" encoding="UTF-8" standalone="no"?>
<!DOCTYPE svg PUBLIC "-//W3C//DTD SVG 1.1//EN"
 "http://www.w3.org/Graphics/SVG/1.1/DTD/svg11.dtd">
<!-- Generated by graphviz version 2.43.0 (0)
 -->
<!-- Title: %3 Pages: 1 -->
<svg width="306pt" height="262pt"
 viewBox="0.00 0.00 306.29 262.43" xmlns="http://www.w3.org/2000/svg" xmlns:xlink="http://www.w3.org/1999/xlink">
<g id="graph0" class="graph" transform="scale(1 1) rotate(0) translate(4 258.43)">
<title>%3</title>
<polygon fill="white" stroke="transparent" points="-4,4 -4,-258.43 302.29,-258.43 302.29,4 -4,4"/>
<!-- ball_left -->
<g id="node1" class="node">
<title>ball_left</title>
<polygon fill="lightgray" stroke="black" points="133.32,-230.91 80.32,-230.91 80.32,-212.91 133.32,-212.91 133.32,-230.91"/>
<text text-anchor="middle" x="106.82" y="-219.71" font-family="Times,serif" font-size="9.00">ball_left</text>
</g>
<!-- FIRE -->
<g id="node5" class="node">
<title>FIRE</title>
<ellipse fill="lightblue" stroke="black" cx="246.82" cy="-33.94" rx="28.07" ry="28.07"/>
<text text-anchor="middle" x="246.82" y="-31.74" font-family="Times,serif" font-size="9.00">FIRE</text>
</g>
<!-- ball_left&#45;&gt;FIRE -->
<g id="edge1" class="edge">
<title>ball_left&#45;&gt;FIRE</title>
<path fill="none" stroke="green" stroke-width="0.22" stroke-dasharray="1,5" d="M113.76,-212.69C120.28,-205.48 130.69,-195.27 141.82,-189.38 201.27,-157.92 247.3,-206.3 288.82,-153.38 309.51,-127.01 290.24,-89.63 271.52,-63.96"/>
<polygon fill="green" stroke="green" stroke-width="0.22" points="274.1,-61.57 265.25,-55.73 268.53,-65.81 274.1,-61.57"/>
</g>
<!-- RIGHT -->
<g id="node6" class="node">
<title>RIGHT</title>
<ellipse fill="lightblue" stroke="black" cx="166.82" cy="-33.94" rx="33.88" ry="33.88"/>
<text text-anchor="middle" x="166.82" y="-31.74" font-family="Times,serif" font-size="9.00">RIGHT</text>
</g>
<!-- ball_left&#45;&gt;RIGHT -->
<g id="edge2" class="edge">
<title>ball_left&#45;&gt;RIGHT</title>
<path fill="none" stroke="green" stroke-width="0.75" stroke-dasharray="1,5" d="M114.96,-212.59C126.12,-200.63 145.81,-177.35 154.82,-153.38 163.8,-129.47 166.91,-101.05 167.72,-78.04"/>
<polygon fill="green" stroke="green" stroke-width="0.75" points="171.22,-77.96 167.94,-67.88 164.22,-77.8 171.22,-77.96"/>
</g>
<!-- LEFT -->
<g id="node7" class="node">
<title>LEFT</title>
<ellipse fill="lightblue" stroke="black" cx="40.82" cy="-33.94" rx="28.98" ry="28.98"/>
<text text-anchor="middle" x="40.82" y="-31.74" font-family="Times,serif" font-size="9.00">LEFT</text>
</g>
<!-- ball_left&#45;&gt;LEFT -->
<g id="edge3" class="edge">
<title>ball_left&#45;&gt;LEFT</title>
<path fill="none" stroke="red" stroke-width="0.26" stroke-dasharray="1,5" d="M83.6,-212.77C59.45,-202.9 22.94,-183.72 6.82,-153.38 -7.75,-125.95 5.13,-91.55 19.02,-66.9"/>
<polygon fill="red" stroke="red" stroke-width="0.26" points="22.04,-68.67 24.14,-58.29 16.02,-65.1 22.04,-68.67"/>
</g>
<!-- 921 -->
<g id="node8" class="node">
<title>921</title>
<ellipse fill="white" stroke="black" cx="40.82" cy="-128.63" rx="25" ry="25"/>
<text text-anchor="middle" x="40.82" y="-126.43" font-family="Times,serif" font-size="9.00">921</text>
</g>
<!-- ball_left&#45;&gt;921 -->
<g id="edge8" class="edge">
<title>ball_left&#45;&gt;921</title>
<path fill="none" stroke="green" stroke-width="0.23" d="M100.96,-212.81C92.1,-200.55 74.85,-176.7 61.09,-157.67"/>
<polygon fill="green" stroke="green" stroke-width="0.23" points="63.75,-155.37 55.06,-149.32 58.08,-159.47 63.75,-155.37"/>
</g>
<!-- ball_right -->
<g id="node2" class="node">
<title>ball_right</title>
<polygon fill="lightgray" stroke="black" points="145.82,-137.63 83.82,-137.63 83.82,-119.63 145.82,-119.63 145.82,-137.63"/>
<text text-anchor="middle" x="114.82" y="-126.43" font-family="Times,serif" font-size="9.00">ball_right</text>
</g>
<!-- ball_right&#45;&gt;FIRE -->
<g id="edge4" class="edge">
<title>ball_right&#45;&gt;FIRE</title>
<path fill="none" stroke="green" stroke-width="0.23" d="M129.14,-119.62C148.17,-108.76 182.56,-88.37 209.82,-67.88 212.81,-65.63 215.86,-63.19 218.86,-60.7"/>
<polygon fill="green" stroke="green" stroke-width="0.23" points="221.29,-63.21 226.59,-54.04 216.73,-57.91 221.29,-63.21"/>
</g>
<!-- ball_right&#45;&gt;LEFT -->
<g id="edge5" class="edge">
<title>ball_right&#45;&gt;LEFT</title>
<path fill="none" stroke="green" stroke-width="1.05" d="M108.25,-119.41C98.59,-107.31 80.06,-84.1 64.87,-65.07"/>
<polygon fill="green" stroke="green" stroke-width="1.05" points="67.57,-62.84 58.6,-57.21 62.1,-67.21 67.57,-62.84"/>
</g>
<!-- ball_out_field -->
<g id="node3" class="node">
<title>ball_out_field</title>
<polygon fill="lightgray" stroke="black" points="279.82,-137.63 201.82,-137.63 201.82,-119.63 279.82,-119.63 279.82,-137.63"/>
<text text-anchor="middle" x="240.82" y="-126.43" font-family="Times,serif" font-size="9.00">ball_out_field</text>
</g>
<!-- ball_out_field&#45;&gt;FIRE -->
<g id="edge6" class="edge">
<title>ball_out_field&#45;&gt;FIRE</title>
<path fill="none" stroke="green" stroke-width="0.64" d="M241.35,-119.41C242.03,-108.91 243.25,-90.05 244.37,-72.81"/>
<polygon fill="green" stroke="green" stroke-width="0.64" points="247.89,-72.58 245.04,-62.38 240.9,-72.13 247.89,-72.58"/>
</g>
<!-- ball_out_field&#45;&gt;RIGHT -->
<g id="edge7" class="edge">
<title>ball_out_field&#45;&gt;RIGHT</title>
<path fill="none" stroke="red" stroke-width="0.4" stroke-dasharray="1,5" d="M234.25,-119.41C225.29,-108.19 208.7,-87.4 194.22,-69.26"/>
<polygon fill="red" stroke="red" stroke-width="0.4" points="196.72,-66.79 187.75,-61.16 191.25,-71.16 196.72,-66.79"/>
</g>
<!-- NOOP -->
<g id="node4" class="node">
<title>NOOP</title>
<ellipse fill="lightblue" stroke="black" cx="183.82" cy="-221.91" rx="32.55" ry="32.55"/>
<text text-anchor="middle" x="183.82" y="-219.71" font-family="Times,serif" font-size="9.00">NOOP</text>
</g>
<!-- 921&#45;&gt;RIGHT -->
<g id="edge9" class="edge">
<title>921&#45;&gt;RIGHT</title>
<path fill="none" stroke="green" stroke-width="0.64" d="M60.51,-113.15C79.49,-99.18 108.65,-77.73 131.63,-60.83"/>
<polygon fill="green" stroke="green" stroke-width="0.64" points="133.81,-63.57 139.79,-54.83 129.66,-57.93 133.81,-63.57"/>
</g>
<!-- 921&#45;&gt;LEFT -->
<g id="edge10" class="edge">
<title>921&#45;&gt;LEFT</title>
<path fill="none" stroke="green" stroke-width="0.17" d="M40.82,-103.76C40.82,-94.43 40.82,-83.49 40.82,-73.12"/>
<polygon fill="green" stroke="green" stroke-width="0.17" points="44.32,-73.01 40.82,-63.01 37.32,-73.01 44.32,-73.01"/>
</g>
</g>
</svg>
