<?xml version="1.0" encoding="UTF-8" standalone="no"?>
<!DOCTYPE svg PUBLIC "-//W3C//DTD SVG 1.1//EN"
 "http://www.w3.org/Graphics/SVG/1.1/DTD/svg11.dtd">
<!-- Generated by graphviz version 2.43.0 (0)
 -->
<!-- Title: %3 Pages: 1 -->
<svg width="1980pt" height="477pt"
 viewBox="0.00 0.00 1980.49 477.39" xmlns="http://www.w3.org/2000/svg" xmlns:xlink="http://www.w3.org/1999/xlink">
<g id="graph0" class="graph" transform="scale(1 1) rotate(0) translate(4 473.39)">
<title>%3</title>
<polygon fill="white" stroke="transparent" points="-4,4 -4,-473.39 1976.49,-473.39 1976.49,4 -4,4"/>
<!-- ball_left -->
<g id="node1" class="node">
<title>ball_left</title>
<polygon fill="lightgray" stroke="black" points="53,-404.85 0,-404.85 0,-386.85 53,-386.85 53,-404.85"/>
<text text-anchor="middle" x="26.5" y="-393.65" font-family="Times,serif" font-size="9.00">ball_left</text>
</g>
<!-- ball_right -->
<g id="node2" class="node">
<title>ball_right</title>
<polygon fill="lightgray" stroke="black" points="133.5,-404.85 71.5,-404.85 71.5,-386.85 133.5,-386.85 133.5,-404.85"/>
<text text-anchor="middle" x="102.5" y="-393.65" font-family="Times,serif" font-size="9.00">ball_right</text>
</g>
<!-- DOWNRIGHT -->
<g id="node11" class="node">
<title>DOWNRIGHT</title>
<ellipse fill="lightblue" stroke="black" cx="101.5" cy="-56.57" rx="56.64" ry="56.64"/>
<text text-anchor="middle" x="101.5" y="-54.37" font-family="Times,serif" font-size="9.00">DOWNRIGHT</text>
</g>
<!-- ball_right&#45;&gt;DOWNRIGHT -->
<g id="edge2" class="edge">
<title>ball_right&#45;&gt;DOWNRIGHT</title>
<path fill="none" stroke="green" stroke-width="0.43" d="M101.49,-386.7C99.31,-368.65 94.23,-323.93 92.5,-286.32 89.7,-225.41 89.51,-210.03 92.5,-149.14 92.91,-140.77 93.53,-131.98 94.26,-123.3"/>
<polygon fill="green" stroke="green" stroke-width="0.43" points="97.76,-123.46 95.15,-113.19 90.78,-122.84 97.76,-123.46"/>
</g>
<!-- 3250 -->
<g id="node21" class="node">
<title>3250</title>
<ellipse fill="white" stroke="black" cx="130.5" cy="-217.73" rx="28.98" ry="28.98"/>
<text text-anchor="middle" x="130.5" y="-215.53" font-family="Times,serif" font-size="9.00">3250</text>
</g>
<!-- ball_right&#45;&gt;3250 -->
<g id="edge3" class="edge">
<title>ball_right&#45;&gt;3250</title>
<path fill="none" stroke="green" stroke-width="0.31" d="M103.78,-386.83C107.37,-364.2 117.77,-298.78 124.49,-256.54"/>
<polygon fill="green" stroke="green" stroke-width="0.31" points="127.95,-257.03 126.07,-246.6 121.04,-255.93 127.95,-257.03"/>
</g>
<!-- NOOP -->
<g id="node3" class="node">
<title>NOOP</title>
<ellipse fill="lightblue" stroke="black" cx="184.5" cy="-395.85" rx="32.55" ry="32.55"/>
<text text-anchor="middle" x="184.5" y="-393.65" font-family="Times,serif" font-size="9.00">NOOP</text>
</g>
<!-- FIRE -->
<g id="node4" class="node">
<title>FIRE</title>
<ellipse fill="lightblue" stroke="black" cx="263.5" cy="-395.85" rx="28.07" ry="28.07"/>
<text text-anchor="middle" x="263.5" y="-393.65" font-family="Times,serif" font-size="9.00">FIRE</text>
</g>
<!-- RIGHT -->
<g id="node5" class="node">
<title>RIGHT</title>
<ellipse fill="lightblue" stroke="black" cx="343.5" cy="-395.85" rx="33.88" ry="33.88"/>
<text text-anchor="middle" x="343.5" y="-393.65" font-family="Times,serif" font-size="9.00">RIGHT</text>
</g>
<!-- LEFT -->
<g id="node6" class="node">
<title>LEFT</title>
<ellipse fill="lightblue" stroke="black" cx="424.5" cy="-395.85" rx="28.98" ry="28.98"/>
<text text-anchor="middle" x="424.5" y="-393.65" font-family="Times,serif" font-size="9.00">LEFT</text>
</g>
<!-- RIGHTFIRE -->
<g id="node7" class="node">
<title>RIGHTFIRE</title>
<ellipse fill="lightblue" stroke="black" cx="521.5" cy="-395.85" rx="50.41" ry="50.41"/>
<text text-anchor="middle" x="521.5" y="-393.65" font-family="Times,serif" font-size="9.00">RIGHTFIRE</text>
</g>
<!-- LEFTRIGHTFIRE -->
<g id="node8" class="node">
<title>LEFTRIGHTFIRE</title>
<ellipse fill="lightblue" stroke="black" cx="657.5" cy="-395.85" rx="67.76" ry="67.76"/>
<text text-anchor="middle" x="657.5" y="-393.65" font-family="Times,serif" font-size="9.00">LEFTRIGHTFIRE</text>
</g>
<!-- UPRIGHT -->
<g id="node9" class="node">
<title>UPRIGHT</title>
<ellipse fill="lightblue" stroke="black" cx="787.5" cy="-395.85" rx="43.68" ry="43.68"/>
<text text-anchor="middle" x="787.5" y="-393.65" font-family="Times,serif" font-size="9.00">UPRIGHT</text>
</g>
<!-- UPLEFT -->
<g id="node10" class="node">
<title>UPLEFT</title>
<ellipse fill="lightblue" stroke="black" cx="888.5" cy="-395.85" rx="38.78" ry="38.78"/>
<text text-anchor="middle" x="888.5" y="-393.65" font-family="Times,serif" font-size="9.00">UPLEFT</text>
</g>
<!-- DOWNLEFT -->
<g id="node12" class="node">
<title>DOWNLEFT</title>
<ellipse fill="lightblue" stroke="black" cx="997.5" cy="-395.85" rx="52.15" ry="52.15"/>
<text text-anchor="middle" x="997.5" y="-393.65" font-family="Times,serif" font-size="9.00">DOWNLEFT</text>
</g>
<!-- UPFIRE -->
<g id="node13" class="node">
<title>UPFIRE</title>
<ellipse fill="lightblue" stroke="black" cx="1105.5" cy="-395.85" rx="37.45" ry="37.45"/>
<text text-anchor="middle" x="1105.5" y="-393.65" font-family="Times,serif" font-size="9.00">UPFIRE</text>
</g>
<!-- LEFTFIRE -->
<g id="node14" class="node">
<title>LEFTFIRE</title>
<ellipse fill="lightblue" stroke="black" cx="1206.5" cy="-395.85" rx="45.92" ry="45.92"/>
<text text-anchor="middle" x="1206.5" y="-393.65" font-family="Times,serif" font-size="9.00">LEFTFIRE</text>
</g>
<!-- DOWNFIRE -->
<g id="node15" class="node">
<title>DOWNFIRE</title>
<ellipse fill="lightblue" stroke="black" cx="1321.5" cy="-395.85" rx="50.82" ry="50.82"/>
<text text-anchor="middle" x="1321.5" y="-393.65" font-family="Times,serif" font-size="9.00">DOWNFIRE</text>
</g>
<!-- UPRIGHTFIRE -->
<g id="node16" class="node">
<title>UPRIGHTFIRE</title>
<ellipse fill="lightblue" stroke="black" cx="1450.5" cy="-395.85" rx="60.21" ry="60.21"/>
<text text-anchor="middle" x="1450.5" y="-393.65" font-family="Times,serif" font-size="9.00">UPRIGHTFIRE</text>
</g>
<!-- UPLEFTFIRE -->
<g id="node17" class="node">
<title>UPLEFTFIRE</title>
<ellipse fill="lightblue" stroke="black" cx="1583.5" cy="-395.85" rx="55.31" ry="55.31"/>
<text text-anchor="middle" x="1583.5" y="-393.65" font-family="Times,serif" font-size="9.00">UPLEFTFIRE</text>
</g>
<!-- DOWNRIGHTFIRE -->
<g id="node18" class="node">
<title>DOWNRIGHTFIRE</title>
<ellipse fill="lightblue" stroke="black" cx="1730.5" cy="-395.85" rx="73.58" ry="73.58"/>
<text text-anchor="middle" x="1730.5" y="-393.65" font-family="Times,serif" font-size="9.00">DOWNRIGHTFIRE</text>
</g>
<!-- DOWNLEFTFIRE -->
<g id="node19" class="node">
<title>DOWNLEFTFIRE</title>
<ellipse fill="lightblue" stroke="black" cx="1859.5" cy="-217.73" rx="68.68" ry="68.68"/>
<text text-anchor="middle" x="1859.5" y="-215.53" font-family="Times,serif" font-size="9.00">DOWNLEFTFIRE</text>
</g>
<!-- 2958 -->
<g id="node20" class="node">
<title>2958</title>
<ellipse fill="white" stroke="black" cx="1943.5" cy="-395.85" rx="28.98" ry="28.98"/>
<text text-anchor="middle" x="1943.5" y="-393.65" font-family="Times,serif" font-size="9.00">2958</text>
</g>
<!-- 3250&#45;&gt;DOWNRIGHT -->
<g id="edge4" class="edge">
<title>3250&#45;&gt;DOWNRIGHT</title>
<path fill="none" stroke="green" stroke-width="0.56" d="M125.45,-189C122.08,-170.53 117.52,-145.46 113.27,-122.17"/>
<polygon fill="green" stroke="green" stroke-width="0.56" points="116.71,-121.53 111.48,-112.32 109.83,-122.79 116.71,-121.53"/>
</g>
<!-- ball_out -->
<g id="node22" class="node">
<title>ball_out</title>
<ellipse fill="none" stroke="black" cx="1859.5" cy="-395.85" rx="37.45" ry="37.45"/>
<text text-anchor="middle" x="1859.5" y="-393.65" font-family="Times,serif" font-size="9.00">ball_out</text>
</g>
<!-- ball_out&#45;&gt;DOWNLEFTFIRE -->
<g id="edge1" class="edge">
<title>ball_out&#45;&gt;DOWNLEFTFIRE</title>
<path fill="none" stroke="red" stroke-width="0.76" d="M1859.5,-358.36C1859.5,-340.44 1859.5,-318.13 1859.5,-296.63"/>
<polygon fill="red" stroke="red" stroke-width="0.76" points="1863,-296.5 1859.5,-286.5 1856,-296.5 1863,-296.5"/>
</g>
</g>
</svg>
