<?xml version="1.0" encoding="UTF-8" standalone="no"?>
<!DOCTYPE svg PUBLIC "-//W3C//DTD SVG 1.1//EN"
 "http://www.w3.org/Graphics/SVG/1.1/DTD/svg11.dtd">
<!-- Generated by graphviz version 2.43.0 (0)
 -->
<!-- Title: %3 Pages: 1 -->
<svg width="450pt" height="365pt"
 viewBox="0.00 0.00 450.25 364.90" xmlns="http://www.w3.org/2000/svg" xmlns:xlink="http://www.w3.org/1999/xlink">
<g id="graph0" class="graph" transform="scale(1 1) rotate(0) translate(4 360.9)">
<title>%3</title>
<polygon fill="white" stroke="transparent" points="-4,4 -4,-360.9 446.25,-360.9 446.25,4 -4,4"/>
<!-- ball_left -->
<g id="node1" class="node">
<title>ball_left</title>
<polygon fill="lightgray" stroke="black" points="55.49,-333.37 2.49,-333.37 2.49,-315.37 55.49,-315.37 55.49,-333.37"/>
<text text-anchor="middle" x="28.99" y="-322.17" font-family="Times,serif" font-size="9.00">ball_left</text>
</g>
<!-- LEFT -->
<g id="node7" class="node">
<title>LEFT</title>
<ellipse fill="lightblue" stroke="black" cx="28.99" cy="-226.86" rx="28.98" ry="28.98"/>
<text text-anchor="middle" x="28.99" y="-224.66" font-family="Times,serif" font-size="9.00">LEFT</text>
</g>
<!-- ball_left&#45;&gt;LEFT -->
<g id="edge1" class="edge">
<title>ball_left&#45;&gt;LEFT</title>
<path fill="none" stroke="green" stroke-width="0.88" d="M28.99,-315.23C28.99,-304.32 28.99,-284.22 28.99,-266.04"/>
<polygon fill="green" stroke="green" stroke-width="0.88" points="32.49,-265.93 28.99,-255.93 25.49,-265.93 32.49,-265.93"/>
</g>
<!-- ball_right -->
<g id="node2" class="node">
<title>ball_right</title>
<polygon fill="lightgray" stroke="black" points="135.99,-333.37 73.99,-333.37 73.99,-315.37 135.99,-315.37 135.99,-333.37"/>
<text text-anchor="middle" x="104.99" y="-322.17" font-family="Times,serif" font-size="9.00">ball_right</text>
</g>
<!-- ball_out_field -->
<g id="node3" class="node">
<title>ball_out_field</title>
<polygon fill="lightgray" stroke="black" points="231.99,-333.37 153.99,-333.37 153.99,-315.37 231.99,-315.37 231.99,-333.37"/>
<text text-anchor="middle" x="192.99" y="-322.17" font-family="Times,serif" font-size="9.00">ball_out_field</text>
</g>
<!-- NOOP -->
<g id="node4" class="node">
<title>NOOP</title>
<ellipse fill="lightblue" stroke="black" cx="282.99" cy="-324.37" rx="32.55" ry="32.55"/>
<text text-anchor="middle" x="282.99" y="-322.17" font-family="Times,serif" font-size="9.00">NOOP</text>
</g>
<!-- 9 -->
<g id="node9" class="node">
<title>9</title>
<ellipse fill="white" stroke="black" cx="282.99" cy="-226.86" rx="16.03" ry="16.03"/>
<text text-anchor="middle" x="282.99" y="-224.66" font-family="Times,serif" font-size="9.00">9</text>
</g>
<!-- NOOP&#45;&gt;9 -->
<g id="edge3" class="edge">
<title>NOOP&#45;&gt;9</title>
<path fill="none" stroke="green" stroke-width="0.48" stroke-dasharray="1,5" d="M282.99,-291.83C282.99,-279.35 282.99,-265.19 282.99,-253.38"/>
<polygon fill="green" stroke="green" stroke-width="0.48" points="286.49,-253.29 282.99,-243.29 279.49,-253.29 286.49,-253.29"/>
</g>
<!-- FIRE -->
<g id="node5" class="node">
<title>FIRE</title>
<ellipse fill="lightblue" stroke="black" cx="192.99" cy="-127.92" rx="28.07" ry="28.07"/>
<text text-anchor="middle" x="192.99" y="-125.72" font-family="Times,serif" font-size="9.00">FIRE</text>
</g>
<!-- 1027 -->
<g id="node10" class="node">
<title>1027</title>
<ellipse fill="white" stroke="black" cx="303.99" cy="-28.99" rx="28.98" ry="28.98"/>
<text text-anchor="middle" x="303.99" y="-26.79" font-family="Times,serif" font-size="9.00">1027</text>
</g>
<!-- FIRE&#45;&gt;1027 -->
<g id="edge8" class="edge">
<title>FIRE&#45;&gt;1027</title>
<path fill="none" stroke="red" stroke-width="0.12" d="M213.69,-108.4C218.99,-103.69 224.69,-98.63 229.99,-93.98 244.61,-81.15 260.96,-67 274.57,-55.27"/>
<polygon fill="red" stroke="red" stroke-width="0.12" points="276.93,-57.85 282.23,-48.67 272.36,-52.54 276.93,-57.85"/>
</g>
<!-- RIGHT -->
<g id="node6" class="node">
<title>RIGHT</title>
<ellipse fill="lightblue" stroke="black" cx="272.99" cy="-127.92" rx="33.88" ry="33.88"/>
<text text-anchor="middle" x="272.99" y="-125.72" font-family="Times,serif" font-size="9.00">RIGHT</text>
</g>
<!-- RIGHT&#45;&gt;1027 -->
<g id="edge2" class="edge">
<title>RIGHT&#45;&gt;1027</title>
<path fill="none" stroke="green" stroke-width="0.13" d="M283.06,-95.45C286.02,-86.18 289.29,-75.96 292.35,-66.4"/>
<polygon fill="green" stroke="green" stroke-width="0.13" points="295.72,-67.35 295.43,-56.75 289.05,-65.21 295.72,-67.35"/>
</g>
<!-- 5 -->
<g id="node8" class="node">
<title>5</title>
<ellipse fill="white" stroke="black" cx="425.99" cy="-324.37" rx="16.03" ry="16.03"/>
<text text-anchor="middle" x="425.99" y="-322.17" font-family="Times,serif" font-size="9.00">5</text>
</g>
<!-- 1038 -->
<g id="node11" class="node">
<title>1038</title>
<ellipse fill="white" stroke="black" cx="362.99" cy="-226.86" rx="28.98" ry="28.98"/>
<text text-anchor="middle" x="362.99" y="-224.66" font-family="Times,serif" font-size="9.00">1038</text>
</g>
<!-- 1038&#45;&gt;1027 -->
<g id="edge4" class="edge">
<title>1038&#45;&gt;1027</title>
<path fill="none" stroke="red" stroke-width="0.49" stroke-dasharray="1,5" d="M354.79,-198.62C344.44,-164.27 326.61,-105.07 315.06,-66.74"/>
<polygon fill="red" stroke="red" stroke-width="0.49" points="318.36,-65.56 312.13,-56.99 311.66,-67.58 318.36,-65.56"/>
</g>
<!-- 1186 -->
<g id="node13" class="node">
<title>1186</title>
<ellipse fill="white" stroke="black" cx="391.99" cy="-127.92" rx="28.98" ry="28.98"/>
<text text-anchor="middle" x="391.99" y="-125.72" font-family="Times,serif" font-size="9.00">1186</text>
</g>
<!-- 1038&#45;&gt;1186 -->
<g id="edge6" class="edge">
<title>1038&#45;&gt;1186</title>
<path fill="none" stroke="green" stroke-width="0.27" d="M371.07,-198.86C374.15,-188.56 377.71,-176.65 381.02,-165.61"/>
<polygon fill="green" stroke="green" stroke-width="0.27" points="384.44,-166.36 383.96,-155.78 377.74,-164.36 384.44,-166.36"/>
</g>
<!-- 1147 -->
<g id="node12" class="node">
<title>1147</title>
<ellipse fill="white" stroke="black" cx="362.99" cy="-324.37" rx="28.98" ry="28.98"/>
<text text-anchor="middle" x="362.99" y="-322.17" font-family="Times,serif" font-size="9.00">1147</text>
</g>
<!-- 1147&#45;&gt;1038 -->
<g id="edge5" class="edge">
<title>1147&#45;&gt;1038</title>
<path fill="none" stroke="red" stroke-width="0.46" d="M362.99,-295.23C362.99,-286.18 362.99,-275.99 362.99,-266.33"/>
<polygon fill="red" stroke="red" stroke-width="0.46" points="366.49,-266.13 362.99,-256.13 359.49,-266.13 366.49,-266.13"/>
</g>
<!-- 1186&#45;&gt;1027 -->
<g id="edge7" class="edge">
<title>1186&#45;&gt;1027</title>
<path fill="none" stroke="red" stroke-width="0.13" d="M372.9,-105.89C360.33,-92.05 343.71,-73.75 329.95,-58.59"/>
<polygon fill="red" stroke="red" stroke-width="0.13" points="332.36,-56.03 323.05,-50.98 327.18,-60.74 332.36,-56.03"/>
</g>
</g>
</svg>
